G04 #@! TF.GenerationSoftware,KiCad,Pcbnew,7.0.9*
G04 #@! TF.CreationDate,2023-12-29T22:16:46-05:00*
G04 #@! TF.ProjectId,MEAP_Rev3b,4d454150-5f52-4657-9633-622e6b696361,rev?*
G04 #@! TF.SameCoordinates,Original*
G04 #@! TF.FileFunction,Legend,Top*
G04 #@! TF.FilePolarity,Positive*
%FSLAX46Y46*%
G04 Gerber Fmt 4.6, Leading zero omitted, Abs format (unit mm)*
G04 Created by KiCad (PCBNEW 7.0.9) date 2023-12-29 22:16:46*
%MOMM*%
%LPD*%
G01*
G04 APERTURE LIST*
%ADD10C,0.120000*%
%ADD11C,0.150000*%
G04 APERTURE END LIST*
D10*
X27540000Y-89550000D02*
X30370000Y-89450000D01*
X44780000Y-80840000D02*
X44320000Y-80840000D01*
X22250000Y-117520000D02*
X22870000Y-116690000D01*
X37200000Y-35280000D02*
X36990000Y-35220000D01*
X34180000Y-103310000D02*
X34860000Y-103900000D01*
X38800000Y-28830000D02*
X38610000Y-28990000D01*
X22050000Y-50430000D02*
X21810000Y-50470000D01*
X51230000Y-21070000D02*
X51910000Y-21100000D01*
X37100000Y-29130000D02*
X36910000Y-29400000D01*
X14610000Y-36180000D02*
X14500000Y-36570000D01*
X14400000Y-37540000D02*
X14000000Y-37420000D01*
X41410000Y-113480000D02*
X42000000Y-114290000D01*
X38140000Y-33830000D02*
X38140000Y-35230000D01*
X11430000Y-34940000D02*
X11500000Y-37660000D01*
X51410000Y-21390000D02*
X51850000Y-22210000D01*
X24070000Y-54610000D02*
X24190000Y-54880000D01*
X32260000Y-87560000D02*
X32060000Y-86520000D01*
X20640000Y-112810000D02*
X21690000Y-112100000D01*
X24740000Y-23630000D02*
X24500000Y-24020000D01*
X14850000Y-36250000D02*
X14610000Y-36180000D01*
X25640000Y-76480000D02*
X25750000Y-76620000D01*
X14580000Y-22580000D02*
X14230000Y-22510000D01*
X40010000Y-35610000D02*
X40230000Y-35360000D01*
X44590000Y-82200000D02*
X45070000Y-81670000D01*
X38900000Y-96940000D02*
X39450000Y-97340000D01*
X24850000Y-36210000D02*
X24120000Y-37450000D01*
X51910000Y-21100000D02*
X51410000Y-21390000D01*
X44880000Y-106740000D02*
X44540000Y-103780000D01*
X19940000Y-27060000D02*
X22260000Y-26770000D01*
X31960000Y-36580000D02*
X31580000Y-36590000D01*
X39430000Y-35360000D02*
X39720000Y-36230000D01*
X27780000Y-35420000D02*
X27940000Y-35530000D01*
X27930000Y-29620000D02*
X28010000Y-29430000D01*
X26890000Y-29140000D02*
X26850000Y-29530000D01*
X40070000Y-33960000D02*
X39470000Y-34080000D01*
X31190000Y-34940000D02*
X31670000Y-36110000D01*
X14490000Y-28740000D02*
X14650000Y-28650000D01*
X38610000Y-28990000D02*
X38610000Y-29340000D01*
X16760000Y-37450000D02*
X17330000Y-37210000D01*
X41410000Y-35950000D02*
X41270000Y-35800000D01*
X26490000Y-29000000D02*
X26730000Y-29020000D01*
X16780000Y-35680000D02*
X16330000Y-35610000D01*
X35420000Y-107220000D02*
X35550000Y-108450000D01*
X28000000Y-35880000D02*
X27830000Y-35820000D01*
X26400000Y-62100000D02*
X27040000Y-62640000D01*
X34980000Y-99290000D02*
X35010000Y-100200000D01*
X35900000Y-35070000D02*
X36420000Y-33690000D01*
X26260000Y-23780000D02*
X26360000Y-23080000D01*
X45770000Y-106920000D02*
X45470000Y-106870000D01*
X20420000Y-23270000D02*
X20020000Y-23270000D01*
X24320000Y-50870000D02*
X23880000Y-51140000D01*
X23020000Y-36960000D02*
X23060000Y-36360000D01*
X35210000Y-95740000D02*
X35600000Y-95650000D01*
X37480000Y-22660000D02*
X37490000Y-22600000D01*
X36600000Y-22100000D02*
X36600000Y-22570000D01*
X20130000Y-29400000D02*
X21030000Y-27130000D01*
X45470000Y-103470000D02*
X45810000Y-104090000D01*
X27270000Y-35750000D02*
X27020000Y-35930000D01*
X20450000Y-34570000D02*
X20450000Y-34340000D01*
X34960000Y-104310000D02*
X34250000Y-104500000D01*
X20330000Y-36740000D02*
X20950000Y-36720000D01*
X27420000Y-63230000D02*
X27310000Y-63890000D01*
X46170000Y-83010000D02*
X45240000Y-81190000D01*
X44320000Y-80840000D02*
X44030000Y-81690000D01*
X21720000Y-35630000D02*
X21890000Y-36190000D01*
X16280000Y-87110000D02*
X16560000Y-87390000D01*
X15860000Y-85910000D02*
X16340000Y-85930000D01*
X49570000Y-51030000D02*
X49500000Y-51410000D01*
X43880000Y-113110000D02*
X43020000Y-113240000D01*
X24850000Y-19640000D02*
X24850000Y-20360000D01*
X32530000Y-84940000D02*
X31530000Y-83320000D01*
X35030000Y-92430000D02*
X35220000Y-92740000D01*
X13830000Y-35180000D02*
X13740000Y-35180000D01*
X26240000Y-29060000D02*
X26380000Y-29810000D01*
X23870000Y-20360000D02*
X25760000Y-20360000D01*
X35050000Y-99410000D02*
X35460000Y-99180000D01*
X11930000Y-35020000D02*
X11480000Y-34990000D01*
X37490000Y-22600000D02*
X37550000Y-22660000D01*
X44640000Y-96450000D02*
X44110000Y-97350000D01*
X15300000Y-24060000D02*
X15300000Y-23800000D01*
X16540000Y-36820000D02*
X16540000Y-36330000D01*
X24780000Y-61720000D02*
X24780000Y-62470000D01*
X42900000Y-34640000D02*
X43610000Y-34540000D01*
X27990000Y-76620000D02*
X27840000Y-77030000D01*
X34830000Y-100200000D02*
X34480000Y-100230000D01*
X27010000Y-36470000D02*
X27070000Y-37080000D01*
X35410000Y-96240000D02*
X35150000Y-96900000D01*
X44970000Y-19360000D02*
X45530000Y-20510000D01*
X25690000Y-23900000D02*
X25710000Y-23000000D01*
X37530000Y-23010000D02*
X37550000Y-23830000D01*
X26140000Y-29810000D02*
X25970000Y-29100000D01*
X47300000Y-82790000D02*
X46790000Y-82790000D01*
X36320000Y-20760000D02*
X36660000Y-20760000D01*
X51530000Y-25710000D02*
X50980000Y-25440000D01*
X28770000Y-36360000D02*
X29360000Y-36390000D01*
X14650000Y-28650000D02*
X14760000Y-28390000D01*
X16120000Y-86820000D02*
X15930000Y-86870000D01*
X21810000Y-50470000D02*
X21800000Y-51620000D01*
X24340000Y-29030000D02*
X24710000Y-29530000D01*
X34890000Y-108170000D02*
X35290000Y-108450000D01*
X22940000Y-89580000D02*
X25330000Y-89560000D01*
X20870000Y-26340000D02*
X20780000Y-25540000D01*
X44740000Y-20690000D02*
X44970000Y-19360000D01*
X37900000Y-23440000D02*
X37920000Y-22320000D01*
X14210000Y-24060000D02*
X15300000Y-24060000D01*
X12770000Y-20450000D02*
X11980000Y-20450000D01*
X30270000Y-35270000D02*
X29720000Y-35270000D01*
X25150000Y-22610000D02*
X25300000Y-22690000D01*
X44890000Y-21270000D02*
X44390000Y-21130000D01*
X28760000Y-36690000D02*
X28770000Y-36360000D01*
X24750000Y-77770000D02*
X24870000Y-78000000D01*
X14760000Y-28390000D02*
X14690000Y-28240000D01*
X39200000Y-29180000D02*
X39320000Y-29360000D01*
X20450000Y-35850000D02*
X20520000Y-35330000D01*
X21450000Y-37190000D02*
X20750000Y-37080000D01*
X26120000Y-61360000D02*
X26570000Y-60950000D01*
X41820000Y-36000000D02*
X41790000Y-34460000D01*
X19148292Y-37620000D02*
G75*
G03*
X19148292Y-37620000I-438292J0D01*
G01*
X22170000Y-37090000D02*
X23020000Y-36960000D01*
X35770000Y-100500000D02*
X35480000Y-100920000D01*
X14620000Y-87190000D02*
X14590000Y-87850000D01*
X25900000Y-75770000D02*
X25640000Y-76060000D01*
X35250000Y-101490000D02*
X35270000Y-102530000D01*
X36350000Y-29290000D02*
X36690000Y-29400000D01*
X38350000Y-28840000D02*
X38550000Y-28840000D01*
X25190000Y-76890000D02*
X24870000Y-76980000D01*
X34320000Y-100930000D02*
X33910000Y-100980000D01*
X35560000Y-94290000D02*
X34970000Y-94760000D01*
X22330000Y-36660000D02*
X22510000Y-36780000D01*
X25580000Y-36400000D02*
X25200000Y-36780000D01*
X43640000Y-114720000D02*
X44660000Y-114020000D01*
X51930000Y-50340000D02*
X51930000Y-50800000D01*
X14680000Y-86020000D02*
X14660000Y-86450000D01*
X35450000Y-102090000D02*
X35360000Y-103690000D01*
X32940000Y-84390000D02*
X32420000Y-84280000D01*
X45810000Y-104090000D02*
X45810000Y-104770000D01*
X37870000Y-36520000D02*
X38340000Y-36380000D01*
X27160000Y-61250000D02*
X27230000Y-61950000D01*
X14660000Y-86450000D02*
X14680000Y-86930000D01*
X38140000Y-35570000D02*
X37850000Y-35570000D01*
X35800000Y-28170000D02*
X35760000Y-28730000D01*
X24680000Y-85750000D02*
X23500000Y-86460000D01*
X44380000Y-78640000D02*
X44610000Y-78690000D01*
X34810000Y-92300000D02*
X35660000Y-92210000D01*
X22410000Y-34960000D02*
X22140000Y-34960000D01*
X35200000Y-94790000D02*
X35050000Y-97240000D01*
X24190000Y-54880000D02*
X24190000Y-55300000D01*
X18560000Y-102340000D02*
X18560000Y-103180000D01*
X22430000Y-36180000D02*
X22410000Y-34960000D01*
X45560000Y-83490000D02*
X45660000Y-83350000D01*
X38360000Y-33900000D02*
X38140000Y-33830000D01*
X51080000Y-52410000D02*
X50780000Y-52410000D01*
X40060000Y-34390000D02*
X39770000Y-34580000D01*
X27850000Y-35170000D02*
X27780000Y-35420000D01*
X14680000Y-86930000D02*
X15180000Y-86950000D01*
X27690000Y-29620000D02*
X27930000Y-29620000D01*
X38050000Y-36020000D02*
X38100000Y-35820000D01*
X35110000Y-97630000D02*
X35450000Y-97720000D01*
X22200000Y-32020000D02*
X22620000Y-31350000D01*
X26430000Y-35800000D02*
X26430000Y-36970000D01*
X44460000Y-27630000D02*
X45080000Y-27250000D01*
X42266340Y-72280000D02*
G75*
G03*
X42266340Y-72280000I-476340J0D01*
G01*
X36280000Y-35150000D02*
X35810000Y-35620000D01*
X16190000Y-35210000D02*
X15830000Y-35490000D01*
X16560000Y-88150000D02*
X16280000Y-88220000D01*
X35660000Y-29950000D02*
X35480000Y-29740000D01*
X15410000Y-30020000D02*
X14760000Y-29150000D01*
X35590000Y-97180000D02*
X35200000Y-97210000D01*
X35220000Y-92740000D02*
X35560000Y-93880000D01*
X45740000Y-27580000D02*
X45400000Y-28600000D01*
X39470000Y-34080000D02*
X39430000Y-35360000D01*
X25660000Y-78420000D02*
X26840000Y-76270000D01*
X41800000Y-96860000D02*
X43210000Y-96910000D01*
X26650000Y-35770000D02*
X26460000Y-35770000D01*
X40550000Y-34680000D02*
X40080000Y-33920000D01*
X43600000Y-97530000D02*
X43010000Y-98430000D01*
X51220000Y-24520000D02*
X51110000Y-25240000D01*
X25640000Y-76060000D02*
X25640000Y-76480000D01*
X22700000Y-36630000D02*
X22700000Y-36460000D01*
X38870000Y-36470000D02*
X38940000Y-34920000D01*
X35560000Y-93880000D02*
X35560000Y-94290000D01*
X42990000Y-118380000D02*
X42970000Y-113270000D01*
X49600000Y-49620000D02*
X49470000Y-49800000D01*
X14450000Y-28520000D02*
X14490000Y-28740000D01*
X14450000Y-27930000D02*
X14150000Y-28190000D01*
X38920000Y-34260000D02*
X38710000Y-34390000D01*
X25520000Y-64070000D02*
X25910000Y-64130000D01*
X22680000Y-50630000D02*
X22050000Y-50430000D01*
X45460000Y-26980000D02*
X46090000Y-26690000D01*
X14470000Y-30060000D02*
X14470000Y-29260000D01*
X35530000Y-96770000D02*
X35960000Y-96450000D01*
X12340000Y-20090000D02*
X11600000Y-20090000D01*
X43010000Y-98430000D02*
X43010000Y-97550000D01*
X20590000Y-21090000D02*
X20420000Y-23270000D01*
X26080000Y-37230000D02*
X25580000Y-36400000D01*
X46230000Y-80780000D02*
X46150000Y-81400000D01*
X18560000Y-95830000D02*
X18560000Y-97030000D01*
X26690000Y-23060000D02*
X27060000Y-23450000D01*
X21650000Y-35530000D02*
X20750000Y-35570000D01*
X23620000Y-57610000D02*
X22950000Y-54280000D01*
X37310000Y-23510000D02*
X37290000Y-23850000D01*
X34810000Y-98280000D02*
X34810000Y-99920000D01*
X27480000Y-29260000D02*
X27860000Y-29140000D01*
X36190000Y-94320000D02*
X36380000Y-93150000D01*
X40830000Y-36020000D02*
X41270000Y-36340000D01*
X50720000Y-49770000D02*
X50290000Y-52410000D01*
X44390000Y-21130000D02*
X44800000Y-20630000D01*
X38680000Y-34420000D02*
X38680000Y-34620000D01*
X24490000Y-49950000D02*
X24490000Y-50340000D01*
X25520000Y-63130000D02*
X25520000Y-64070000D01*
X20520000Y-35330000D02*
X21290000Y-35250000D01*
X50480000Y-25150000D02*
X50480000Y-24480000D01*
X44240000Y-106980000D02*
X44540000Y-105900000D01*
X16410000Y-86780000D02*
X16120000Y-86820000D01*
X40270000Y-34690000D02*
X40080000Y-34430000D01*
X36600000Y-22570000D02*
X37100000Y-22880000D01*
X34400000Y-104060000D02*
X34300000Y-104230000D01*
X34810000Y-99920000D02*
X35250000Y-101490000D01*
X22920000Y-57440000D02*
X23120000Y-56740000D01*
X25200000Y-36780000D02*
X24850000Y-36210000D01*
X45810000Y-104770000D02*
X44980000Y-104950000D01*
X42590000Y-111950000D02*
X43050000Y-110850000D01*
X23880000Y-51140000D02*
X24590000Y-51110000D01*
X24540000Y-28060000D02*
X24190000Y-27800000D01*
X38740000Y-98240000D02*
X38470000Y-97560000D01*
X27310000Y-63890000D02*
X26870000Y-63660000D01*
X51110000Y-25240000D02*
X51530000Y-25710000D01*
X49500000Y-51410000D02*
X49470000Y-52130000D01*
X34090000Y-103580000D02*
X34090000Y-103430000D01*
X15260000Y-36020000D02*
X15260000Y-36990000D01*
X27800000Y-28890000D02*
X27580000Y-28890000D01*
X50410000Y-21980000D02*
X50610000Y-21210000D01*
X45820000Y-81480000D02*
X46680000Y-81690000D01*
X17380000Y-36140000D02*
X17300000Y-35510000D01*
X35110000Y-97250000D02*
X35530000Y-96770000D01*
X27940000Y-35530000D02*
X28030000Y-35430000D01*
X20190000Y-33810000D02*
X20870000Y-33780000D01*
X23060000Y-36360000D02*
X22810000Y-36180000D01*
X24190000Y-55300000D02*
X23670000Y-55870000D01*
X43610000Y-34540000D02*
X43590000Y-34210000D01*
X37200000Y-36550000D02*
X37200000Y-35280000D01*
X42620000Y-114370000D02*
X41890000Y-113730000D01*
X33890000Y-104040000D02*
X33630000Y-103220000D01*
X13830000Y-35870000D02*
X13600000Y-35870000D01*
X24900000Y-51430000D02*
X24670000Y-52090000D01*
X18560000Y-103180000D02*
X18850000Y-103510000D01*
X35360000Y-108820000D02*
X35440000Y-110300000D01*
X14990000Y-85770000D02*
X14830000Y-85770000D01*
X22790000Y-50320000D02*
X23930000Y-52890000D01*
X31340000Y-83480000D02*
X30520000Y-83340000D01*
X34480000Y-100910000D02*
X34480000Y-100750000D01*
X22380000Y-56690000D02*
X22700000Y-57590000D01*
X21130000Y-110750000D02*
X21990000Y-113410000D01*
X49470000Y-49800000D02*
X49470000Y-50410000D01*
X37620000Y-35270000D02*
X37530000Y-35480000D01*
X43930000Y-110770000D02*
X44100000Y-112650000D01*
X45920000Y-106020000D02*
X45900000Y-106790000D01*
X51360000Y-51410000D02*
X51440000Y-51900000D01*
X26460000Y-63850000D02*
X25840000Y-61340000D01*
X46280000Y-27780000D02*
X45740000Y-27580000D01*
X36380000Y-93150000D02*
X36480000Y-91800000D01*
X30910000Y-84460000D02*
X31340000Y-84210000D01*
X37530000Y-29040000D02*
X37600000Y-29630000D01*
X25510000Y-85240000D02*
X24680000Y-85750000D01*
X16280000Y-88220000D02*
X15930000Y-88090000D01*
X20800000Y-34260000D02*
X21610000Y-34170000D01*
X33660000Y-101040000D02*
X34270000Y-101240000D01*
X43730000Y-96860000D02*
X44640000Y-96450000D01*
X52411885Y-30080000D02*
G75*
G03*
X52411885Y-30080000I-451885J0D01*
G01*
X27280000Y-36120000D02*
X27270000Y-36650000D01*
X27440000Y-34830000D02*
X27300000Y-35730000D01*
X49950000Y-25440000D02*
X50400000Y-25220000D01*
X20780000Y-25540000D02*
X22080000Y-25200000D01*
X44830000Y-22450000D02*
X44890000Y-21270000D01*
X23920000Y-29010000D02*
X24340000Y-29030000D01*
X24780000Y-62470000D02*
X25240000Y-62490000D01*
X21800000Y-103400000D02*
X22090000Y-99760000D01*
X21250000Y-30870000D02*
X21140000Y-31690000D01*
X35220000Y-108160000D02*
X34890000Y-108170000D01*
X21800000Y-29730000D02*
X21590000Y-28550000D01*
X37810000Y-35830000D02*
X37840000Y-36060000D01*
X35760000Y-28730000D02*
X36350000Y-29290000D01*
X14470000Y-29260000D02*
X14970000Y-30000000D01*
X28800000Y-35300000D02*
X28880000Y-34990000D01*
X44650000Y-98010000D02*
X43600000Y-97530000D01*
X22500000Y-23070000D02*
X21910000Y-23070000D01*
X48280000Y-35760000D02*
X48280000Y-35930000D01*
X37790000Y-96450000D02*
X38430000Y-97030000D01*
X34660000Y-100630000D02*
X34150000Y-100630000D01*
X33367612Y-89560000D02*
G75*
G03*
X33367612Y-89560000I-417612J0D01*
G01*
X30370000Y-89450000D02*
X31710000Y-89310000D01*
X36420000Y-27740000D02*
X36070000Y-27810000D01*
X22530000Y-118080000D02*
X22680000Y-118810000D01*
X26620000Y-36970000D02*
X26650000Y-35770000D01*
X14120000Y-28240000D02*
X14120000Y-30090000D01*
X27570000Y-34830000D02*
X27450000Y-34840000D01*
X14760000Y-29150000D02*
X15280000Y-28450000D01*
X20980000Y-32180000D02*
X22200000Y-32020000D01*
X35450000Y-103620000D02*
X35810000Y-103620000D01*
X38940000Y-34920000D02*
X38730000Y-35120000D01*
X28010000Y-37040000D02*
X28000000Y-35880000D01*
X24670000Y-52090000D02*
X24200000Y-52140000D01*
X15930000Y-86870000D02*
X16280000Y-87110000D01*
X45510000Y-105400000D02*
X45920000Y-106020000D01*
X25860000Y-35040000D02*
X26080000Y-37230000D01*
X16340000Y-85930000D02*
X16410000Y-86210000D01*
X11600000Y-20090000D02*
X13030000Y-20100000D01*
X44360000Y-103910000D02*
X43430000Y-103540000D01*
X24870000Y-78000000D02*
X25550000Y-78000000D01*
X25160000Y-29260000D02*
X25010000Y-29610000D01*
X12020000Y-37130000D02*
X11930000Y-35020000D01*
X26260000Y-29050000D02*
X26490000Y-29000000D01*
X43250000Y-34290000D02*
X42120000Y-34330000D01*
X34150000Y-93120000D02*
X34020000Y-92240000D01*
X23500000Y-86460000D02*
X22840000Y-87500000D01*
X37030000Y-34540000D02*
X36980000Y-34860000D01*
X14120000Y-30090000D02*
X14470000Y-30060000D01*
X23210000Y-52970000D02*
X23530000Y-52330000D01*
X45070000Y-82550000D02*
X45320000Y-83460000D01*
X35010000Y-100200000D02*
X35450000Y-101110000D01*
X36010000Y-91800000D02*
X35530000Y-91610000D01*
X20020000Y-23270000D02*
X19920000Y-22920000D01*
X25830000Y-29950000D02*
X26020000Y-29990000D01*
X14830000Y-85770000D02*
X14680000Y-86020000D01*
X24760000Y-20990000D02*
X25060000Y-20990000D01*
X15340000Y-85970000D02*
X14990000Y-85770000D01*
X39770000Y-35270000D02*
X40010000Y-35610000D01*
X35970000Y-93000000D02*
X35660000Y-93880000D01*
X14000000Y-37400000D02*
X14240000Y-35760000D01*
X21960000Y-31140000D02*
X21970000Y-30770000D01*
X27410000Y-36690000D02*
X27420000Y-36140000D01*
X37290000Y-23850000D02*
X36640000Y-24130000D01*
X43010000Y-97550000D02*
X41800000Y-96860000D01*
X24190000Y-27800000D02*
X23910000Y-28050000D01*
X19180000Y-64960000D02*
X18810000Y-64960000D01*
X27470000Y-29230000D02*
X27530000Y-29430000D01*
X50610000Y-25970000D02*
X50650000Y-25440000D01*
X41520000Y-35660000D02*
X41410000Y-35950000D01*
X36910000Y-29400000D02*
X36910000Y-29780000D01*
X21650000Y-27070000D02*
X22590000Y-29690000D01*
X50080000Y-49470000D02*
X49600000Y-49620000D01*
X13660000Y-37780000D02*
X13810000Y-37320000D01*
X51650000Y-49750000D02*
X51900000Y-49820000D01*
X37200000Y-34970000D02*
X37230000Y-34720000D01*
X35370000Y-20170000D02*
X37490000Y-20170000D01*
X27130000Y-78710000D02*
X26810000Y-78710000D01*
X31820000Y-85140000D02*
X31960000Y-84870000D01*
X43360000Y-104080000D02*
X43360000Y-104490000D01*
X24340000Y-57220000D02*
X23940000Y-57240000D01*
X21290000Y-35250000D02*
X21400000Y-34730000D01*
X51050000Y-19980000D02*
X51230000Y-21070000D01*
X16550000Y-36970000D02*
X16540000Y-36820000D01*
X28880000Y-34960000D02*
X30310000Y-34970000D01*
X21610000Y-34170000D02*
X21780000Y-34800000D01*
X22250000Y-19770000D02*
X22500000Y-23070000D01*
X35450000Y-97720000D02*
X35080000Y-97840000D01*
X14620000Y-35760000D02*
X15260000Y-36020000D01*
X27100000Y-77270000D02*
X26870000Y-77210000D01*
X21930000Y-21130000D02*
X20960000Y-21830000D01*
X20460000Y-24180000D02*
X22420000Y-24100000D01*
X34250000Y-104500000D02*
X33890000Y-104040000D01*
X42080000Y-113110000D02*
X41920000Y-112300000D01*
X13470000Y-35470000D02*
X13670000Y-35560000D01*
X35530000Y-91610000D02*
X35220000Y-91990000D01*
X22270000Y-26060000D02*
X20870000Y-26340000D01*
X20340000Y-111180000D02*
X21020000Y-110530000D01*
X35360000Y-105080000D02*
X35270000Y-105680000D01*
X22590000Y-29690000D02*
X21800000Y-29730000D01*
X16210000Y-37440000D02*
X16760000Y-37450000D01*
X14580000Y-23780000D02*
X14580000Y-22580000D01*
X24560000Y-22460000D02*
X24110000Y-22850000D01*
X24710000Y-29530000D02*
X24580000Y-29990000D01*
X17300000Y-35510000D02*
X16190000Y-35210000D01*
X46770000Y-19860000D02*
X45830000Y-20920000D01*
X45660000Y-83350000D02*
X45690000Y-82580000D01*
X38760000Y-22730000D02*
X39260000Y-22140000D01*
X34150000Y-103850000D02*
X34030000Y-103870000D01*
X44850000Y-103780000D02*
X45470000Y-103470000D01*
X45750000Y-27220000D02*
X46280000Y-27780000D01*
X45320000Y-83460000D02*
X45560000Y-83490000D01*
X43240000Y-111840000D02*
X43930000Y-110770000D01*
X21370000Y-36760000D02*
X21500000Y-36150000D01*
X35490000Y-34850000D02*
X34790000Y-36360000D01*
X42990000Y-115880000D02*
X43640000Y-114720000D01*
X15830000Y-36490000D02*
X16210000Y-37440000D01*
X40230000Y-35360000D02*
X40270000Y-34690000D01*
X24590000Y-51110000D02*
X24900000Y-51430000D01*
X42670000Y-34620000D02*
X42540000Y-36250000D01*
X45590000Y-21360000D02*
X44830000Y-22450000D01*
X15090000Y-37420000D02*
X14850000Y-37390000D01*
X38680000Y-34620000D02*
X38920000Y-34540000D01*
X35010000Y-106120000D02*
X35360000Y-108820000D01*
X45530000Y-20510000D02*
X46770000Y-19860000D01*
X36980000Y-34860000D02*
X37200000Y-34970000D01*
X21990000Y-113410000D02*
X23250000Y-118420000D01*
X26550000Y-76210000D02*
X26110000Y-75770000D01*
X32050000Y-34900000D02*
X32290000Y-34900000D01*
X50520000Y-49900000D02*
X50080000Y-49470000D01*
X20380000Y-103510000D02*
X21080000Y-103510000D01*
X14210000Y-22490000D02*
X14210000Y-24060000D01*
X24110000Y-22850000D02*
X24370000Y-23280000D01*
X22080000Y-25200000D02*
X22070000Y-24800000D01*
X22260000Y-26770000D02*
X22270000Y-26060000D01*
X13550000Y-37210000D02*
X13660000Y-37780000D01*
X23760000Y-28600000D02*
X23920000Y-29010000D01*
X42190000Y-113590000D02*
X41410000Y-113480000D01*
X35810000Y-35620000D02*
X35490000Y-34850000D01*
X26850000Y-29530000D02*
X26990000Y-29690000D01*
X38760000Y-97340000D02*
X38740000Y-98240000D01*
X25310000Y-20590000D02*
X24320000Y-20590000D01*
X50910000Y-21650000D02*
X50410000Y-21980000D01*
X26470000Y-35060000D02*
X26350000Y-35130000D01*
X37360000Y-29600000D02*
X37360000Y-29220000D01*
X14900000Y-88130000D02*
X15310000Y-87980000D01*
X38920000Y-34540000D02*
X38920000Y-34260000D01*
X35360000Y-103690000D02*
X35360000Y-105080000D01*
X27800000Y-37040000D02*
X28010000Y-37040000D01*
X26990000Y-29690000D02*
X27310000Y-29710000D01*
X51600000Y-51100000D02*
X50980000Y-51030000D01*
X26350000Y-35130000D02*
X26350000Y-35340000D01*
X31340000Y-84210000D02*
X31480000Y-85050000D01*
X24500000Y-24020000D02*
X24000000Y-23940000D01*
X22390000Y-23610000D02*
X19850000Y-23670000D01*
X21930000Y-55600000D02*
X22300000Y-55900000D01*
X37100000Y-22880000D02*
X37310000Y-23510000D01*
X38660000Y-36450000D02*
X38870000Y-36470000D01*
X35030000Y-94820000D02*
X34810000Y-98280000D01*
X11500000Y-37660000D02*
X13190000Y-37540000D01*
X37530000Y-35480000D02*
X37530000Y-36140000D01*
X35270000Y-97090000D02*
X36380000Y-96710000D01*
X23420000Y-54630000D02*
X24070000Y-54610000D01*
X43050000Y-110850000D02*
X43240000Y-111840000D01*
X24200000Y-52140000D02*
X24010000Y-52140000D01*
X25710000Y-23000000D02*
X26260000Y-23780000D01*
X31670000Y-36110000D02*
X32040000Y-34900000D01*
X27530000Y-29430000D02*
X27690000Y-29620000D01*
X27080000Y-29030000D02*
X26890000Y-29140000D01*
X22700000Y-117910000D02*
X23080000Y-117650000D01*
X27860000Y-29140000D02*
X27800000Y-28890000D01*
X35660000Y-92210000D02*
X36040000Y-92330000D01*
X13590000Y-35900000D02*
X13550000Y-37210000D01*
X27580000Y-28890000D02*
X27480000Y-29040000D01*
X24280000Y-30430000D02*
X23850000Y-30310000D01*
X45400000Y-27630000D02*
X44460000Y-27630000D01*
X35960000Y-96450000D02*
X36440000Y-96450000D01*
X34400000Y-96200000D02*
X34810000Y-96720000D01*
X46790000Y-82790000D02*
X46250000Y-82500000D01*
X38030000Y-97180000D02*
X37790000Y-96450000D01*
X42000000Y-114290000D02*
X42940000Y-114770000D01*
X31060000Y-35400000D02*
X30970000Y-36620000D01*
X35050000Y-97240000D02*
X34980000Y-99290000D01*
X27590000Y-37010000D02*
X27580000Y-34830000D01*
X32030000Y-82540000D02*
X32530000Y-82540000D01*
X21800000Y-51620000D02*
X22500000Y-52140000D01*
X24270000Y-49710000D02*
X24490000Y-49950000D01*
X41050000Y-35350000D02*
X41040000Y-34560000D01*
X17330000Y-36800000D02*
X16900000Y-36970000D01*
X37230000Y-34720000D02*
X37030000Y-34540000D01*
X18560000Y-97030000D02*
X18560000Y-99030000D01*
X35030000Y-100870000D02*
X34660000Y-100630000D01*
X44030000Y-81690000D02*
X44590000Y-82200000D01*
X13670000Y-35250000D02*
X13470000Y-35470000D01*
X28030000Y-35430000D02*
X28030000Y-35270000D01*
X35460000Y-99180000D02*
X35110000Y-99650000D01*
X34680000Y-101040000D02*
X34680000Y-101160000D01*
X34360000Y-101000000D02*
X34360000Y-101080000D01*
X34860000Y-102390000D02*
X35140000Y-102650000D01*
X35270000Y-105680000D02*
X35420000Y-107220000D01*
X21180000Y-110795000D02*
X20860000Y-110265000D01*
X24580000Y-29990000D02*
X24280000Y-30430000D01*
X22070000Y-24800000D02*
X20460000Y-25030000D01*
X38340000Y-36380000D02*
X38360000Y-33900000D01*
X44100000Y-112650000D02*
X43880000Y-113110000D01*
X43260000Y-95680000D02*
X43730000Y-96860000D01*
X40830000Y-34640000D02*
X40830000Y-36020000D01*
X19070000Y-94620000D02*
X18560000Y-95830000D01*
X43750000Y-106650000D02*
X44240000Y-106980000D01*
X31960000Y-84870000D02*
X31850000Y-84280000D01*
X30890000Y-34920000D02*
X31150000Y-34920000D01*
X35210000Y-102410000D02*
X34860000Y-102390000D01*
X26020000Y-29990000D02*
X26140000Y-29810000D01*
X39370000Y-23510000D02*
X38760000Y-22730000D01*
X50240000Y-50750000D02*
X49620000Y-50930000D01*
X22140000Y-34940000D02*
X22170000Y-37090000D01*
X36270000Y-96670000D02*
X36310000Y-96580000D01*
X14500000Y-36570000D02*
X14500000Y-37210000D01*
X50650000Y-25440000D02*
X49950000Y-25440000D01*
X38330000Y-23270000D02*
X38460000Y-22340000D01*
X31480000Y-85050000D02*
X31820000Y-85140000D01*
X34790000Y-36220000D02*
X35410000Y-33920000D01*
X42120000Y-34620000D02*
X42670000Y-34620000D01*
X25010000Y-29610000D02*
X25010000Y-30140000D01*
X22580000Y-30330000D02*
X20470000Y-30170000D01*
X44110000Y-97350000D02*
X44650000Y-98010000D01*
X34270000Y-101240000D02*
X34640000Y-101240000D01*
X21820000Y-116690000D02*
X22570000Y-115740000D01*
X21400000Y-34730000D02*
X21160000Y-34570000D01*
X22810000Y-36180000D02*
X22430000Y-36180000D01*
X13670000Y-35560000D02*
X13810000Y-35510000D01*
X44980000Y-104950000D02*
X45510000Y-105400000D01*
X23940000Y-57240000D02*
X23720000Y-56820000D01*
X37090000Y-21930000D02*
X36600000Y-22100000D01*
X36480000Y-91800000D02*
X36010000Y-91800000D01*
X21500000Y-36150000D02*
X21480000Y-35940000D01*
X34860000Y-96600000D02*
X34400000Y-96200000D01*
X50980000Y-25440000D02*
X50610000Y-25970000D01*
X22500000Y-52140000D02*
X22790000Y-51480000D01*
X18560000Y-99030000D02*
X18560000Y-101000000D01*
X43760000Y-104760000D02*
X44270000Y-104840000D01*
X35090000Y-96560000D02*
X35410000Y-96240000D01*
X22090000Y-99760000D02*
X22020000Y-96810000D01*
X42780000Y-36260000D02*
X42900000Y-34640000D01*
X39450000Y-29360000D02*
X39630000Y-29220000D01*
X38470000Y-97560000D02*
X37540000Y-97540000D01*
X29360000Y-36390000D02*
X29480000Y-35310000D01*
X25750000Y-76620000D02*
X25990000Y-76890000D01*
X22630000Y-118210000D02*
X22700000Y-117910000D01*
X39450000Y-97340000D02*
X38760000Y-97340000D01*
X35810000Y-103620000D02*
X35430000Y-103920000D01*
X22840000Y-53070000D02*
X22710000Y-52590000D01*
X36440000Y-96450000D02*
X36600000Y-96830000D01*
X26980000Y-85040000D02*
X25510000Y-85240000D01*
X33630000Y-103220000D02*
X34180000Y-103310000D01*
X36850000Y-27980000D02*
X36420000Y-27740000D01*
X49470000Y-52130000D02*
X50110000Y-51670000D01*
X22830000Y-88520000D02*
X22940000Y-89580000D01*
X18560000Y-101000000D02*
X18560000Y-102340000D01*
X22700000Y-36460000D02*
X22530000Y-36440000D01*
X26670000Y-22360000D02*
X26710000Y-23710000D01*
X20390000Y-19920000D02*
X21060000Y-21240000D01*
X21110000Y-113660000D02*
X21820000Y-113040000D01*
X16900000Y-36970000D02*
X16550000Y-36970000D01*
X42120000Y-34330000D02*
X42120000Y-34620000D01*
X27120000Y-60950000D02*
X27160000Y-61250000D01*
X21590000Y-28550000D02*
X21070000Y-28550000D01*
X34150000Y-100630000D02*
X33660000Y-101040000D01*
X34280000Y-98630000D02*
X34700000Y-99080000D01*
X24270000Y-56670000D02*
X24340000Y-57220000D01*
X12340000Y-19560000D02*
X12340000Y-20090000D01*
X20750000Y-37080000D02*
X20330000Y-36740000D01*
X25570000Y-29660000D02*
X25210000Y-29220000D01*
X49470000Y-50410000D02*
X50240000Y-50750000D01*
X44310000Y-115280000D02*
X43050000Y-115820000D01*
X19550000Y-64960000D02*
X19180000Y-64960000D01*
X37220000Y-29800000D02*
X37360000Y-29600000D01*
X35450000Y-101110000D02*
X35450000Y-102090000D01*
X20950000Y-36720000D02*
X21370000Y-36760000D01*
X35600000Y-95650000D02*
X35190000Y-95990000D01*
X27040000Y-62640000D02*
X27420000Y-63230000D01*
X44270000Y-104840000D02*
X43670000Y-105870000D01*
X23290000Y-50350000D02*
X23690000Y-49760000D01*
X34990000Y-100930000D02*
X34320000Y-100930000D01*
X22840000Y-87500000D02*
X22830000Y-88520000D01*
X30300000Y-34990000D02*
X30270000Y-35270000D01*
X15260000Y-36990000D02*
X15090000Y-37420000D01*
X21060000Y-21240000D02*
X22250000Y-19770000D01*
X45070000Y-81670000D02*
X45070000Y-82550000D01*
X41510000Y-34490000D02*
X41520000Y-35660000D01*
X16880000Y-35970000D02*
X16990000Y-35870000D01*
X25050000Y-61440000D02*
X24780000Y-61720000D01*
X25240000Y-62490000D02*
X25610000Y-62510000D01*
X36420000Y-33690000D02*
X36600000Y-36400000D01*
X35300000Y-100750000D02*
X35770000Y-100500000D01*
X26870000Y-63660000D02*
X26500000Y-63000000D01*
X41920000Y-112300000D02*
X41920000Y-111090000D01*
X31710000Y-89310000D02*
X32180000Y-88600000D01*
X45320000Y-80280000D02*
X46150000Y-80280000D01*
X25990000Y-76890000D02*
X25190000Y-76890000D01*
X42970000Y-113270000D02*
X42080000Y-113110000D01*
X25330000Y-89560000D02*
X27540000Y-89550000D01*
X14240000Y-35760000D02*
X14620000Y-35760000D01*
X22420000Y-24100000D02*
X22410000Y-23700000D01*
X21710000Y-115720000D02*
X22420000Y-115040000D01*
X34490000Y-91990000D02*
X34490000Y-92210000D01*
X45080000Y-27250000D02*
X44900000Y-26290000D01*
X26660000Y-35080000D02*
X26510000Y-35080000D01*
X34150000Y-94250000D02*
X34150000Y-93120000D01*
X30290000Y-36700000D02*
X28760000Y-36690000D01*
X20400000Y-30130000D02*
X20190000Y-33810000D01*
X24870000Y-76980000D02*
X24750000Y-77770000D01*
X22770000Y-54800000D02*
X22250000Y-54410000D01*
X27770000Y-35840000D02*
X27800000Y-37040000D01*
X27720000Y-77270000D02*
X27100000Y-77270000D01*
X25010000Y-30140000D02*
X25370000Y-30160000D01*
X31320000Y-85230000D02*
X31110000Y-85160000D01*
X34590000Y-92300000D02*
X35030000Y-92430000D01*
X21070000Y-28550000D02*
X20380000Y-29800000D01*
X19910000Y-22890000D02*
X20390000Y-19920000D01*
X46120000Y-21600000D02*
X45590000Y-21360000D01*
X50980000Y-51030000D02*
X51360000Y-51410000D01*
X38100000Y-35820000D02*
X38100000Y-35580000D01*
X46680000Y-81690000D02*
X47350000Y-82440000D01*
X15830000Y-35490000D02*
X15830000Y-36490000D01*
X27270000Y-36650000D02*
X27410000Y-36690000D01*
X25610000Y-62510000D02*
X25520000Y-63130000D01*
X34260000Y-103900000D02*
X33940000Y-103550000D01*
X23690000Y-49760000D02*
X24270000Y-49710000D01*
X39320000Y-29360000D02*
X39450000Y-29360000D01*
X14850000Y-37390000D02*
X14850000Y-36250000D01*
X34970000Y-94760000D02*
X34150000Y-94250000D01*
X36600000Y-96830000D02*
X36160000Y-97080000D01*
X24850000Y-20360000D02*
X23870000Y-20360000D01*
X30970000Y-36620000D02*
X30630000Y-36560000D01*
X45400000Y-28600000D02*
X45400000Y-27630000D01*
X44900000Y-26290000D02*
X45460000Y-26980000D01*
X37600000Y-29630000D02*
X37830000Y-29630000D01*
X39200000Y-29030000D02*
X39570000Y-28960000D01*
X25550000Y-78000000D02*
X25720000Y-77830000D01*
X35000000Y-104310000D02*
X34260000Y-103900000D01*
X51390000Y-52280000D02*
X51080000Y-52410000D01*
X41270000Y-36340000D02*
X41680000Y-36320000D01*
X38130000Y-28920000D02*
X38220000Y-29550000D01*
X35410000Y-33920000D02*
X35900000Y-35070000D01*
X21480000Y-35940000D02*
X20450000Y-35850000D01*
X34730000Y-98800000D02*
X34280000Y-98630000D01*
X20450000Y-34340000D02*
X20840000Y-34220000D01*
X21300000Y-114690000D02*
X22230000Y-113880000D01*
X27840000Y-77030000D02*
X27720000Y-77270000D01*
X37020000Y-20460000D02*
X35880000Y-20460000D01*
X32320000Y-83710000D02*
X32690000Y-83660000D01*
X35910000Y-96740000D02*
X35970000Y-96610000D01*
X26350000Y-35340000D02*
X26470000Y-35370000D01*
X14650000Y-28210000D02*
X14450000Y-28520000D01*
X25620000Y-29210000D02*
X25830000Y-29950000D01*
X41920000Y-111090000D02*
X42590000Y-111950000D01*
X36600000Y-36400000D02*
X36280000Y-35150000D01*
X36430000Y-19640000D02*
X36450000Y-20170000D01*
X27070000Y-37080000D02*
X27590000Y-37010000D01*
X38100000Y-35280000D02*
X37620000Y-35270000D01*
X49820000Y-20600000D02*
X50670000Y-20860000D01*
X37530000Y-36140000D02*
X37870000Y-36520000D01*
X50560000Y-20890000D02*
X51050000Y-19980000D01*
X29720000Y-35270000D02*
X29630000Y-36450000D01*
X15300000Y-23800000D02*
X14580000Y-23780000D01*
X35270000Y-102530000D02*
X35010000Y-103720000D01*
X36070000Y-27810000D02*
X35800000Y-28170000D01*
X25370000Y-30160000D02*
X25570000Y-29660000D01*
X16560000Y-87390000D02*
X16560000Y-88150000D01*
X43360000Y-104490000D02*
X43760000Y-104760000D01*
X42940000Y-114770000D02*
X42990000Y-115880000D01*
X36310000Y-30120000D02*
X35660000Y-29950000D01*
X42540000Y-36250000D02*
X42780000Y-36260000D01*
X35460000Y-98510000D02*
X34990000Y-98650000D01*
X41790000Y-34460000D02*
X41510000Y-34490000D01*
X14950000Y-28000000D02*
X14450000Y-27930000D01*
X34320000Y-97310000D02*
X34770000Y-97670000D01*
X22020000Y-96810000D02*
X21690000Y-94910000D01*
X22300000Y-55900000D02*
X22730000Y-55750000D01*
X12530000Y-20750000D02*
X12300000Y-20750000D01*
X47350000Y-82440000D02*
X47300000Y-82790000D01*
X21160000Y-34570000D02*
X20450000Y-34570000D01*
X50780000Y-52410000D02*
X50720000Y-51920000D01*
X45830000Y-20920000D02*
X46120000Y-21600000D01*
X21890000Y-36190000D02*
X21450000Y-37190000D01*
X30630000Y-36540000D02*
X30880000Y-34940000D01*
X36970000Y-35220000D02*
X36970000Y-36550000D01*
X16550000Y-36350000D02*
X17380000Y-36140000D01*
X20380000Y-29800000D02*
X20110000Y-29460000D01*
X13190000Y-37540000D02*
X13140000Y-37130000D01*
X50800000Y-24830000D02*
X51220000Y-24520000D01*
X34150000Y-100750000D02*
X34300000Y-100910000D01*
X40550000Y-35760000D02*
X40550000Y-34680000D01*
X31580000Y-36590000D02*
X31060000Y-35400000D01*
X21730000Y-31520000D02*
X21960000Y-31140000D01*
X22250000Y-54410000D02*
X21930000Y-55600000D01*
X43020000Y-114770000D02*
X42190000Y-113590000D01*
X30360000Y-83750000D02*
X30380000Y-84250000D01*
X22510000Y-36780000D02*
X22700000Y-36630000D01*
X16990000Y-35870000D02*
X16780000Y-35680000D01*
X51440000Y-51900000D02*
X51390000Y-52280000D01*
X26870000Y-77210000D02*
X27370000Y-78180000D01*
X36160000Y-97080000D02*
X35590000Y-97180000D01*
X27420000Y-36140000D02*
X27300000Y-36120000D01*
X27080000Y-76480000D02*
X27690000Y-76480000D01*
X22470000Y-36430000D02*
X22330000Y-36660000D01*
X30380000Y-84250000D02*
X30910000Y-84460000D01*
X37850000Y-35570000D02*
X37810000Y-35830000D01*
X39720000Y-36230000D02*
X40550000Y-35760000D01*
X32290000Y-34890000D02*
X31960000Y-36580000D01*
X38710000Y-35160000D02*
X38660000Y-36450000D01*
X14590000Y-87850000D02*
X14900000Y-88130000D01*
X24370000Y-23280000D02*
X24740000Y-23630000D01*
X21970000Y-30770000D02*
X21250000Y-30880000D01*
X21400000Y-27610000D02*
X21590000Y-28130000D01*
X39560000Y-28720000D02*
X39280000Y-28720000D01*
X26110000Y-75770000D02*
X25900000Y-75770000D01*
X34480000Y-100230000D02*
X34860000Y-100470000D01*
X49620000Y-50930000D02*
X49570000Y-51030000D01*
X34850000Y-97410000D02*
X34320000Y-97310000D01*
X22620000Y-31350000D02*
X22580000Y-30330000D01*
X36970000Y-36550000D02*
X37200000Y-36550000D01*
X21140000Y-31690000D02*
X21730000Y-31520000D01*
X35010000Y-106300000D02*
X34640000Y-106170000D01*
X21780000Y-34800000D02*
X21650000Y-35530000D01*
X22820000Y-53030000D02*
X23210000Y-52970000D01*
X32690000Y-83660000D02*
X32940000Y-84050000D01*
X50610000Y-21210000D02*
X49820000Y-20600000D01*
X29480000Y-35310000D02*
X28800000Y-35300000D01*
X27480000Y-29040000D02*
X27470000Y-29230000D01*
X43590000Y-34210000D02*
X43250000Y-34280000D01*
X37840000Y-36060000D02*
X38050000Y-36020000D01*
X17330000Y-37210000D02*
X17330000Y-36800000D01*
X26280000Y-78560000D02*
X26280000Y-77970000D01*
X25260000Y-36210000D02*
X25860000Y-35040000D01*
X20450000Y-111990000D02*
X21300000Y-111430000D01*
X43020000Y-113240000D02*
X43020000Y-114770000D01*
X32940000Y-84050000D02*
X32940000Y-84390000D01*
X16190000Y-35760000D02*
X16190000Y-36040000D01*
X36450000Y-20170000D02*
X35370000Y-20170000D01*
X25230000Y-23100000D02*
X25230000Y-23820000D01*
X13140000Y-37130000D02*
X12020000Y-37130000D01*
X37930000Y-29240000D02*
X37880000Y-29000000D01*
X27230000Y-61950000D02*
X26400000Y-62100000D01*
X26750000Y-23080000D02*
X27080000Y-22480000D01*
X28030000Y-35270000D02*
X27890000Y-35190000D01*
X30290000Y-36440000D02*
X30290000Y-36700000D01*
X20750000Y-35570000D02*
X21720000Y-35630000D01*
X44660000Y-114020000D02*
X44310000Y-115280000D01*
X32670000Y-82750000D02*
X32690000Y-83020000D01*
X46150000Y-80280000D02*
X46230000Y-80780000D01*
X25590000Y-61490000D02*
X25050000Y-61440000D01*
X36690000Y-29400000D02*
X36680000Y-29920000D01*
X34640000Y-101240000D02*
X35080000Y-100930000D01*
X22790000Y-51480000D02*
X22710000Y-52680000D01*
X38610000Y-29340000D02*
X38950000Y-29410000D01*
X51850000Y-22210000D02*
X50910000Y-21650000D01*
X13810000Y-37320000D02*
X13830000Y-35870000D01*
X32530000Y-82540000D02*
X32670000Y-82750000D01*
X43480000Y-115370000D02*
X44070000Y-114830000D01*
X39770000Y-34580000D02*
X39770000Y-35270000D01*
X24560000Y-35320000D02*
X25260000Y-36210000D01*
X32180000Y-88600000D02*
X32260000Y-87560000D01*
X37920000Y-22320000D02*
X38330000Y-23270000D01*
X13810000Y-35510000D02*
X13830000Y-35180000D01*
X51930000Y-50800000D02*
X51600000Y-51100000D01*
X21130000Y-28070000D02*
X21400000Y-27610000D01*
X22700000Y-57590000D02*
X22920000Y-57440000D01*
X27370000Y-78180000D02*
X27130000Y-78710000D01*
X35010000Y-103720000D02*
X35010000Y-106120000D01*
X20870000Y-33780000D02*
X20980000Y-32180000D01*
X37438188Y-99330000D02*
G75*
G03*
X37438188Y-99330000I-468188J0D01*
G01*
X32060000Y-86520000D02*
X31320000Y-85230000D01*
X15560000Y-88220000D02*
X15530000Y-85910000D01*
X39280000Y-28720000D02*
X39230000Y-28850000D01*
X34350000Y-103850000D02*
X34350000Y-103720000D01*
X37360000Y-29220000D02*
X37140000Y-29120000D01*
X22730000Y-55750000D02*
X22380000Y-56690000D01*
X35010000Y-98410000D02*
X35460000Y-98510000D01*
X38870000Y-96320000D02*
X38900000Y-96940000D01*
X51900000Y-49820000D02*
X51930000Y-50340000D01*
X34640000Y-106170000D02*
X35010000Y-106590000D01*
X32690000Y-83020000D02*
X32320000Y-83710000D01*
X46150000Y-81400000D02*
X45820000Y-81480000D01*
X44070000Y-114830000D02*
X44260000Y-114530000D01*
X15180000Y-86950000D02*
X14620000Y-87190000D01*
X36040000Y-92330000D02*
X35970000Y-93000000D01*
X21030000Y-27130000D02*
X21650000Y-27070000D01*
X37830000Y-29630000D02*
X37930000Y-29500000D01*
X45900000Y-106790000D02*
X45770000Y-106920000D01*
X14500000Y-37210000D02*
X14400000Y-37540000D01*
X38320000Y-97090000D02*
X38870000Y-96320000D01*
X41680000Y-36320000D02*
X41820000Y-36000000D01*
X26660000Y-35260000D02*
X26660000Y-35080000D01*
X39570000Y-28960000D02*
X39560000Y-28720000D01*
X25910000Y-64130000D02*
X25950000Y-63980000D01*
X45470000Y-106870000D02*
X45080000Y-106210000D01*
X15280000Y-28450000D02*
X14950000Y-28000000D01*
X26810000Y-78710000D02*
X26280000Y-78560000D01*
X36910000Y-29780000D02*
X37220000Y-29800000D01*
X38740000Y-22050000D02*
X38740000Y-23660000D01*
X24490000Y-50340000D02*
X24320000Y-50870000D01*
X20460000Y-25030000D02*
X20460000Y-24180000D01*
X35220000Y-91990000D02*
X34840000Y-91990000D01*
X26570000Y-60950000D02*
X27120000Y-60950000D01*
X21590000Y-28130000D02*
X21170000Y-28130000D01*
X31870000Y-83270000D02*
X32030000Y-82540000D01*
X43670000Y-105870000D02*
X43750000Y-106650000D01*
X26451868Y-69640000D02*
G75*
G03*
X26451868Y-69640000I-241868J0D01*
G01*
X20960000Y-21830000D02*
X20590000Y-21090000D01*
X41270000Y-35800000D02*
X41050000Y-35350000D01*
X50480000Y-24480000D02*
X50800000Y-24830000D01*
X34860000Y-103900000D02*
X34980000Y-104210000D01*
X21080000Y-103510000D02*
X21800000Y-103400000D01*
X41040000Y-34560000D02*
X40840000Y-34590000D01*
X38140000Y-28900000D02*
X38350000Y-28840000D01*
X18850000Y-103510000D02*
X20380000Y-103510000D01*
X30520000Y-83340000D02*
X30360000Y-83750000D01*
X35160000Y-94630000D02*
X36190000Y-94320000D01*
X27690000Y-76480000D02*
X27990000Y-76620000D01*
X35550000Y-108450000D02*
X35690000Y-110280000D01*
X19850000Y-23670000D02*
X19940000Y-27060000D01*
X44650000Y-80380000D02*
X45260000Y-81240000D01*
X16190000Y-36040000D02*
X16880000Y-35970000D01*
X16330000Y-35610000D02*
X16190000Y-35760000D01*
X51130000Y-49950000D02*
X51650000Y-49750000D01*
X45130000Y-80650000D02*
X45320000Y-80280000D01*
X35960000Y-96960000D02*
X36180000Y-96990000D01*
X14970000Y-30000000D02*
X15410000Y-30020000D01*
X46090000Y-26690000D02*
X45750000Y-27220000D01*
X16410000Y-86210000D02*
X16410000Y-86780000D01*
X20150000Y-110850000D02*
X22530000Y-118080000D01*
X24050000Y-37450000D02*
X24560000Y-35320000D01*
X27020000Y-35930000D02*
X27010000Y-36470000D01*
X23670000Y-55870000D02*
X24270000Y-56670000D01*
X34840000Y-91990000D02*
X34490000Y-91990000D01*
X26470000Y-35370000D02*
X26660000Y-35260000D01*
X23910000Y-28050000D02*
X23760000Y-28600000D01*
X21910000Y-23070000D02*
X21930000Y-21130000D01*
X34020000Y-92210000D02*
X34590000Y-92300000D01*
X37930000Y-29500000D02*
X37930000Y-29240000D01*
X43430000Y-103540000D02*
X43360000Y-104080000D01*
X25950000Y-63980000D02*
X26140000Y-63300000D01*
X29630000Y-36450000D02*
X30290000Y-36440000D01*
X37540000Y-97540000D02*
X38030000Y-97180000D01*
X26430000Y-36970000D02*
X26620000Y-36970000D01*
X45650000Y-88160000D02*
G75*
G03*
X45650000Y-88160000I-259422J0D01*
G01*
X43100000Y-96980000D02*
X43260000Y-95680000D01*
X36680000Y-29920000D02*
X36310000Y-30120000D01*
X39230000Y-28850000D02*
X39200000Y-29180000D01*
D11*
X51872200Y-55530839D02*
X51919819Y-55387982D01*
X51919819Y-55387982D02*
X51919819Y-55149887D01*
X51919819Y-55149887D02*
X51872200Y-55054649D01*
X51872200Y-55054649D02*
X51824580Y-55007030D01*
X51824580Y-55007030D02*
X51729342Y-54959411D01*
X51729342Y-54959411D02*
X51634104Y-54959411D01*
X51634104Y-54959411D02*
X51538866Y-55007030D01*
X51538866Y-55007030D02*
X51491247Y-55054649D01*
X51491247Y-55054649D02*
X51443628Y-55149887D01*
X51443628Y-55149887D02*
X51396009Y-55340363D01*
X51396009Y-55340363D02*
X51348390Y-55435601D01*
X51348390Y-55435601D02*
X51300771Y-55483220D01*
X51300771Y-55483220D02*
X51205533Y-55530839D01*
X51205533Y-55530839D02*
X51110295Y-55530839D01*
X51110295Y-55530839D02*
X51015057Y-55483220D01*
X51015057Y-55483220D02*
X50967438Y-55435601D01*
X50967438Y-55435601D02*
X50919819Y-55340363D01*
X50919819Y-55340363D02*
X50919819Y-55102268D01*
X50919819Y-55102268D02*
X50967438Y-54959411D01*
X51824580Y-53959411D02*
X51872200Y-54007030D01*
X51872200Y-54007030D02*
X51919819Y-54149887D01*
X51919819Y-54149887D02*
X51919819Y-54245125D01*
X51919819Y-54245125D02*
X51872200Y-54387982D01*
X51872200Y-54387982D02*
X51776961Y-54483220D01*
X51776961Y-54483220D02*
X51681723Y-54530839D01*
X51681723Y-54530839D02*
X51491247Y-54578458D01*
X51491247Y-54578458D02*
X51348390Y-54578458D01*
X51348390Y-54578458D02*
X51157914Y-54530839D01*
X51157914Y-54530839D02*
X51062676Y-54483220D01*
X51062676Y-54483220D02*
X50967438Y-54387982D01*
X50967438Y-54387982D02*
X50919819Y-54245125D01*
X50919819Y-54245125D02*
X50919819Y-54149887D01*
X50919819Y-54149887D02*
X50967438Y-54007030D01*
X50967438Y-54007030D02*
X51015057Y-53959411D01*
X51919819Y-53054649D02*
X51919819Y-53530839D01*
X51919819Y-53530839D02*
X50919819Y-53530839D01*
X48081103Y-47699375D02*
X48086973Y-47766463D01*
X48086973Y-47766463D02*
X48031624Y-47906506D01*
X48031624Y-47906506D02*
X47970406Y-47979463D01*
X47970406Y-47979463D02*
X47842101Y-48058289D01*
X47842101Y-48058289D02*
X47707927Y-48070028D01*
X47707927Y-48070028D02*
X47604361Y-48045288D01*
X47604361Y-48045288D02*
X47427839Y-47959331D01*
X47427839Y-47959331D02*
X47318404Y-47867504D01*
X47318404Y-47867504D02*
X47203100Y-47708590D01*
X47203100Y-47708590D02*
X47160752Y-47610894D01*
X47160752Y-47610894D02*
X47149013Y-47476719D01*
X47149013Y-47476719D02*
X47204362Y-47336675D01*
X47204362Y-47336675D02*
X47265580Y-47263719D01*
X47265580Y-47263719D02*
X47393885Y-47184893D01*
X47393885Y-47184893D02*
X47460972Y-47179024D01*
X47571669Y-46898936D02*
X48551976Y-47286375D01*
X48551976Y-47286375D02*
X48000194Y-46388240D01*
X48256804Y-46230587D02*
X48250935Y-46163500D01*
X48250935Y-46163500D02*
X48275675Y-46059935D01*
X48275675Y-46059935D02*
X48428719Y-45877543D01*
X48428719Y-45877543D02*
X48526415Y-45835195D01*
X48526415Y-45835195D02*
X48593503Y-45829326D01*
X48593503Y-45829326D02*
X48697068Y-45854066D01*
X48697068Y-45854066D02*
X48770025Y-45915283D01*
X48770025Y-45915283D02*
X48848851Y-46043589D01*
X48848851Y-46043589D02*
X48919283Y-46848635D01*
X48919283Y-46848635D02*
X49317199Y-46374417D01*
X13199819Y-43733220D02*
X12199819Y-43733220D01*
X12199819Y-43733220D02*
X12199819Y-43352268D01*
X12199819Y-43352268D02*
X12247438Y-43257030D01*
X12247438Y-43257030D02*
X12295057Y-43209411D01*
X12295057Y-43209411D02*
X12390295Y-43161792D01*
X12390295Y-43161792D02*
X12533152Y-43161792D01*
X12533152Y-43161792D02*
X12628390Y-43209411D01*
X12628390Y-43209411D02*
X12676009Y-43257030D01*
X12676009Y-43257030D02*
X12723628Y-43352268D01*
X12723628Y-43352268D02*
X12723628Y-43733220D01*
X13199819Y-42590363D02*
X13152200Y-42685601D01*
X13152200Y-42685601D02*
X13104580Y-42733220D01*
X13104580Y-42733220D02*
X13009342Y-42780839D01*
X13009342Y-42780839D02*
X12723628Y-42780839D01*
X12723628Y-42780839D02*
X12628390Y-42733220D01*
X12628390Y-42733220D02*
X12580771Y-42685601D01*
X12580771Y-42685601D02*
X12533152Y-42590363D01*
X12533152Y-42590363D02*
X12533152Y-42447506D01*
X12533152Y-42447506D02*
X12580771Y-42352268D01*
X12580771Y-42352268D02*
X12628390Y-42304649D01*
X12628390Y-42304649D02*
X12723628Y-42257030D01*
X12723628Y-42257030D02*
X13009342Y-42257030D01*
X13009342Y-42257030D02*
X13104580Y-42304649D01*
X13104580Y-42304649D02*
X13152200Y-42352268D01*
X13152200Y-42352268D02*
X13199819Y-42447506D01*
X13199819Y-42447506D02*
X13199819Y-42590363D01*
X12533152Y-41971315D02*
X12533152Y-41590363D01*
X12199819Y-41828458D02*
X13056961Y-41828458D01*
X13056961Y-41828458D02*
X13152200Y-41780839D01*
X13152200Y-41780839D02*
X13199819Y-41685601D01*
X13199819Y-41685601D02*
X13199819Y-41590363D01*
X12199819Y-40304648D02*
X12199819Y-40209410D01*
X12199819Y-40209410D02*
X12247438Y-40114172D01*
X12247438Y-40114172D02*
X12295057Y-40066553D01*
X12295057Y-40066553D02*
X12390295Y-40018934D01*
X12390295Y-40018934D02*
X12580771Y-39971315D01*
X12580771Y-39971315D02*
X12818866Y-39971315D01*
X12818866Y-39971315D02*
X13009342Y-40018934D01*
X13009342Y-40018934D02*
X13104580Y-40066553D01*
X13104580Y-40066553D02*
X13152200Y-40114172D01*
X13152200Y-40114172D02*
X13199819Y-40209410D01*
X13199819Y-40209410D02*
X13199819Y-40304648D01*
X13199819Y-40304648D02*
X13152200Y-40399886D01*
X13152200Y-40399886D02*
X13104580Y-40447505D01*
X13104580Y-40447505D02*
X13009342Y-40495124D01*
X13009342Y-40495124D02*
X12818866Y-40542743D01*
X12818866Y-40542743D02*
X12580771Y-40542743D01*
X12580771Y-40542743D02*
X12390295Y-40495124D01*
X12390295Y-40495124D02*
X12295057Y-40447505D01*
X12295057Y-40447505D02*
X12247438Y-40399886D01*
X12247438Y-40399886D02*
X12199819Y-40304648D01*
X42099819Y-68963446D02*
X41623628Y-69296779D01*
X42099819Y-69534874D02*
X41099819Y-69534874D01*
X41099819Y-69534874D02*
X41099819Y-69153922D01*
X41099819Y-69153922D02*
X41147438Y-69058684D01*
X41147438Y-69058684D02*
X41195057Y-69011065D01*
X41195057Y-69011065D02*
X41290295Y-68963446D01*
X41290295Y-68963446D02*
X41433152Y-68963446D01*
X41433152Y-68963446D02*
X41528390Y-69011065D01*
X41528390Y-69011065D02*
X41576009Y-69058684D01*
X41576009Y-69058684D02*
X41623628Y-69153922D01*
X41623628Y-69153922D02*
X41623628Y-69534874D01*
X42052200Y-68582493D02*
X42099819Y-68439636D01*
X42099819Y-68439636D02*
X42099819Y-68201541D01*
X42099819Y-68201541D02*
X42052200Y-68106303D01*
X42052200Y-68106303D02*
X42004580Y-68058684D01*
X42004580Y-68058684D02*
X41909342Y-68011065D01*
X41909342Y-68011065D02*
X41814104Y-68011065D01*
X41814104Y-68011065D02*
X41718866Y-68058684D01*
X41718866Y-68058684D02*
X41671247Y-68106303D01*
X41671247Y-68106303D02*
X41623628Y-68201541D01*
X41623628Y-68201541D02*
X41576009Y-68392017D01*
X41576009Y-68392017D02*
X41528390Y-68487255D01*
X41528390Y-68487255D02*
X41480771Y-68534874D01*
X41480771Y-68534874D02*
X41385533Y-68582493D01*
X41385533Y-68582493D02*
X41290295Y-68582493D01*
X41290295Y-68582493D02*
X41195057Y-68534874D01*
X41195057Y-68534874D02*
X41147438Y-68487255D01*
X41147438Y-68487255D02*
X41099819Y-68392017D01*
X41099819Y-68392017D02*
X41099819Y-68153922D01*
X41099819Y-68153922D02*
X41147438Y-68011065D01*
X41099819Y-67725350D02*
X41099819Y-67153922D01*
X42099819Y-67439636D02*
X41099819Y-67439636D01*
X12109819Y-70496077D02*
X13109819Y-70162744D01*
X13109819Y-70162744D02*
X12109819Y-69829411D01*
X13109819Y-69353220D02*
X13062200Y-69448458D01*
X13062200Y-69448458D02*
X13014580Y-69496077D01*
X13014580Y-69496077D02*
X12919342Y-69543696D01*
X12919342Y-69543696D02*
X12633628Y-69543696D01*
X12633628Y-69543696D02*
X12538390Y-69496077D01*
X12538390Y-69496077D02*
X12490771Y-69448458D01*
X12490771Y-69448458D02*
X12443152Y-69353220D01*
X12443152Y-69353220D02*
X12443152Y-69210363D01*
X12443152Y-69210363D02*
X12490771Y-69115125D01*
X12490771Y-69115125D02*
X12538390Y-69067506D01*
X12538390Y-69067506D02*
X12633628Y-69019887D01*
X12633628Y-69019887D02*
X12919342Y-69019887D01*
X12919342Y-69019887D02*
X13014580Y-69067506D01*
X13014580Y-69067506D02*
X13062200Y-69115125D01*
X13062200Y-69115125D02*
X13109819Y-69210363D01*
X13109819Y-69210363D02*
X13109819Y-69353220D01*
X13109819Y-68448458D02*
X13062200Y-68543696D01*
X13062200Y-68543696D02*
X12966961Y-68591315D01*
X12966961Y-68591315D02*
X12109819Y-68591315D01*
X12443152Y-67638934D02*
X13109819Y-67638934D01*
X12443152Y-68067505D02*
X12966961Y-68067505D01*
X12966961Y-68067505D02*
X13062200Y-68019886D01*
X13062200Y-68019886D02*
X13109819Y-67924648D01*
X13109819Y-67924648D02*
X13109819Y-67781791D01*
X13109819Y-67781791D02*
X13062200Y-67686553D01*
X13062200Y-67686553D02*
X13014580Y-67638934D01*
X13109819Y-67162743D02*
X12443152Y-67162743D01*
X12538390Y-67162743D02*
X12490771Y-67115124D01*
X12490771Y-67115124D02*
X12443152Y-67019886D01*
X12443152Y-67019886D02*
X12443152Y-66877029D01*
X12443152Y-66877029D02*
X12490771Y-66781791D01*
X12490771Y-66781791D02*
X12586009Y-66734172D01*
X12586009Y-66734172D02*
X13109819Y-66734172D01*
X12586009Y-66734172D02*
X12490771Y-66686553D01*
X12490771Y-66686553D02*
X12443152Y-66591315D01*
X12443152Y-66591315D02*
X12443152Y-66448458D01*
X12443152Y-66448458D02*
X12490771Y-66353219D01*
X12490771Y-66353219D02*
X12586009Y-66305600D01*
X12586009Y-66305600D02*
X13109819Y-66305600D01*
X13062200Y-65448458D02*
X13109819Y-65543696D01*
X13109819Y-65543696D02*
X13109819Y-65734172D01*
X13109819Y-65734172D02*
X13062200Y-65829410D01*
X13062200Y-65829410D02*
X12966961Y-65877029D01*
X12966961Y-65877029D02*
X12586009Y-65877029D01*
X12586009Y-65877029D02*
X12490771Y-65829410D01*
X12490771Y-65829410D02*
X12443152Y-65734172D01*
X12443152Y-65734172D02*
X12443152Y-65543696D01*
X12443152Y-65543696D02*
X12490771Y-65448458D01*
X12490771Y-65448458D02*
X12586009Y-65400839D01*
X12586009Y-65400839D02*
X12681247Y-65400839D01*
X12681247Y-65400839D02*
X12776485Y-65877029D01*
X49539160Y-74138200D02*
X49682017Y-74176295D01*
X49682017Y-74176295D02*
X49920112Y-74176295D01*
X49920112Y-74176295D02*
X50015350Y-74138200D01*
X50015350Y-74138200D02*
X50062969Y-74100104D01*
X50062969Y-74100104D02*
X50110588Y-74023914D01*
X50110588Y-74023914D02*
X50110588Y-73947723D01*
X50110588Y-73947723D02*
X50062969Y-73871533D01*
X50062969Y-73871533D02*
X50015350Y-73833438D01*
X50015350Y-73833438D02*
X49920112Y-73795342D01*
X49920112Y-73795342D02*
X49729636Y-73757247D01*
X49729636Y-73757247D02*
X49634398Y-73719152D01*
X49634398Y-73719152D02*
X49586779Y-73681057D01*
X49586779Y-73681057D02*
X49539160Y-73604866D01*
X49539160Y-73604866D02*
X49539160Y-73528676D01*
X49539160Y-73528676D02*
X49586779Y-73452485D01*
X49586779Y-73452485D02*
X49634398Y-73414390D01*
X49634398Y-73414390D02*
X49729636Y-73376295D01*
X49729636Y-73376295D02*
X49967731Y-73376295D01*
X49967731Y-73376295D02*
X50110588Y-73414390D01*
X50539160Y-74176295D02*
X50539160Y-73376295D01*
X50539160Y-73376295D02*
X50920112Y-73376295D01*
X50920112Y-73376295D02*
X51015350Y-73414390D01*
X51015350Y-73414390D02*
X51062969Y-73452485D01*
X51062969Y-73452485D02*
X51110588Y-73528676D01*
X51110588Y-73528676D02*
X51110588Y-73642961D01*
X51110588Y-73642961D02*
X51062969Y-73719152D01*
X51062969Y-73719152D02*
X51015350Y-73757247D01*
X51015350Y-73757247D02*
X50920112Y-73795342D01*
X50920112Y-73795342D02*
X50539160Y-73795342D01*
X51539160Y-74176295D02*
X51539160Y-73376295D01*
X52110588Y-74176295D02*
X51682017Y-73719152D01*
X52110588Y-73376295D02*
X51539160Y-73833438D01*
X49777255Y-74664295D02*
X49967731Y-74664295D01*
X49967731Y-74664295D02*
X50062969Y-74702390D01*
X50062969Y-74702390D02*
X50158207Y-74778580D01*
X50158207Y-74778580D02*
X50205826Y-74930961D01*
X50205826Y-74930961D02*
X50205826Y-75197628D01*
X50205826Y-75197628D02*
X50158207Y-75350009D01*
X50158207Y-75350009D02*
X50062969Y-75426200D01*
X50062969Y-75426200D02*
X49967731Y-75464295D01*
X49967731Y-75464295D02*
X49777255Y-75464295D01*
X49777255Y-75464295D02*
X49682017Y-75426200D01*
X49682017Y-75426200D02*
X49586779Y-75350009D01*
X49586779Y-75350009D02*
X49539160Y-75197628D01*
X49539160Y-75197628D02*
X49539160Y-74930961D01*
X49539160Y-74930961D02*
X49586779Y-74778580D01*
X49586779Y-74778580D02*
X49682017Y-74702390D01*
X49682017Y-74702390D02*
X49777255Y-74664295D01*
X50634398Y-75464295D02*
X50634398Y-74664295D01*
X50634398Y-74664295D02*
X51205826Y-75464295D01*
X51205826Y-75464295D02*
X51205826Y-74664295D01*
X48160830Y-43883534D02*
X48154961Y-43950621D01*
X48154961Y-43950621D02*
X48076135Y-44078926D01*
X48076135Y-44078926D02*
X48003179Y-44140144D01*
X48003179Y-44140144D02*
X47863135Y-44195492D01*
X47863135Y-44195492D02*
X47728960Y-44183754D01*
X47728960Y-44183754D02*
X47631264Y-44141406D01*
X47631264Y-44141406D02*
X47472350Y-44026102D01*
X47472350Y-44026102D02*
X47380523Y-43916667D01*
X47380523Y-43916667D02*
X47294566Y-43740145D01*
X47294566Y-43740145D02*
X47269826Y-43636579D01*
X47269826Y-43636579D02*
X47281565Y-43502405D01*
X47281565Y-43502405D02*
X47360391Y-43374100D01*
X47360391Y-43374100D02*
X47433348Y-43312882D01*
X47433348Y-43312882D02*
X47573391Y-43257533D01*
X47573391Y-43257533D02*
X47640479Y-43263403D01*
X47798131Y-43006792D02*
X48696266Y-43558574D01*
X48696266Y-43558574D02*
X48308827Y-42578267D01*
X49608224Y-42793351D02*
X49170484Y-43160658D01*
X49389354Y-42977004D02*
X48746567Y-42210960D01*
X48746567Y-42210960D02*
X48765437Y-42381613D01*
X48765437Y-42381613D02*
X48753698Y-42515787D01*
X48753698Y-42515787D02*
X48711350Y-42613483D01*
X51822200Y-59400839D02*
X51869819Y-59257982D01*
X51869819Y-59257982D02*
X51869819Y-59019887D01*
X51869819Y-59019887D02*
X51822200Y-58924649D01*
X51822200Y-58924649D02*
X51774580Y-58877030D01*
X51774580Y-58877030D02*
X51679342Y-58829411D01*
X51679342Y-58829411D02*
X51584104Y-58829411D01*
X51584104Y-58829411D02*
X51488866Y-58877030D01*
X51488866Y-58877030D02*
X51441247Y-58924649D01*
X51441247Y-58924649D02*
X51393628Y-59019887D01*
X51393628Y-59019887D02*
X51346009Y-59210363D01*
X51346009Y-59210363D02*
X51298390Y-59305601D01*
X51298390Y-59305601D02*
X51250771Y-59353220D01*
X51250771Y-59353220D02*
X51155533Y-59400839D01*
X51155533Y-59400839D02*
X51060295Y-59400839D01*
X51060295Y-59400839D02*
X50965057Y-59353220D01*
X50965057Y-59353220D02*
X50917438Y-59305601D01*
X50917438Y-59305601D02*
X50869819Y-59210363D01*
X50869819Y-59210363D02*
X50869819Y-58972268D01*
X50869819Y-58972268D02*
X50917438Y-58829411D01*
X51869819Y-58400839D02*
X50869819Y-58400839D01*
X50869819Y-58400839D02*
X50869819Y-58162744D01*
X50869819Y-58162744D02*
X50917438Y-58019887D01*
X50917438Y-58019887D02*
X51012676Y-57924649D01*
X51012676Y-57924649D02*
X51107914Y-57877030D01*
X51107914Y-57877030D02*
X51298390Y-57829411D01*
X51298390Y-57829411D02*
X51441247Y-57829411D01*
X51441247Y-57829411D02*
X51631723Y-57877030D01*
X51631723Y-57877030D02*
X51726961Y-57924649D01*
X51726961Y-57924649D02*
X51822200Y-58019887D01*
X51822200Y-58019887D02*
X51869819Y-58162744D01*
X51869819Y-58162744D02*
X51869819Y-58400839D01*
X51584104Y-57448458D02*
X51584104Y-56972268D01*
X51869819Y-57543696D02*
X50869819Y-57210363D01*
X50869819Y-57210363D02*
X51869819Y-56877030D01*
X11889819Y-56254649D02*
X10889819Y-56254649D01*
X11842200Y-56254649D02*
X11889819Y-56349887D01*
X11889819Y-56349887D02*
X11889819Y-56540363D01*
X11889819Y-56540363D02*
X11842200Y-56635601D01*
X11842200Y-56635601D02*
X11794580Y-56683220D01*
X11794580Y-56683220D02*
X11699342Y-56730839D01*
X11699342Y-56730839D02*
X11413628Y-56730839D01*
X11413628Y-56730839D02*
X11318390Y-56683220D01*
X11318390Y-56683220D02*
X11270771Y-56635601D01*
X11270771Y-56635601D02*
X11223152Y-56540363D01*
X11223152Y-56540363D02*
X11223152Y-56349887D01*
X11223152Y-56349887D02*
X11270771Y-56254649D01*
X11842200Y-55397506D02*
X11889819Y-55492744D01*
X11889819Y-55492744D02*
X11889819Y-55683220D01*
X11889819Y-55683220D02*
X11842200Y-55778458D01*
X11842200Y-55778458D02*
X11746961Y-55826077D01*
X11746961Y-55826077D02*
X11366009Y-55826077D01*
X11366009Y-55826077D02*
X11270771Y-55778458D01*
X11270771Y-55778458D02*
X11223152Y-55683220D01*
X11223152Y-55683220D02*
X11223152Y-55492744D01*
X11223152Y-55492744D02*
X11270771Y-55397506D01*
X11270771Y-55397506D02*
X11366009Y-55349887D01*
X11366009Y-55349887D02*
X11461247Y-55349887D01*
X11461247Y-55349887D02*
X11556485Y-55826077D01*
X11842200Y-54968934D02*
X11889819Y-54873696D01*
X11889819Y-54873696D02*
X11889819Y-54683220D01*
X11889819Y-54683220D02*
X11842200Y-54587982D01*
X11842200Y-54587982D02*
X11746961Y-54540363D01*
X11746961Y-54540363D02*
X11699342Y-54540363D01*
X11699342Y-54540363D02*
X11604104Y-54587982D01*
X11604104Y-54587982D02*
X11556485Y-54683220D01*
X11556485Y-54683220D02*
X11556485Y-54826077D01*
X11556485Y-54826077D02*
X11508866Y-54921315D01*
X11508866Y-54921315D02*
X11413628Y-54968934D01*
X11413628Y-54968934D02*
X11366009Y-54968934D01*
X11366009Y-54968934D02*
X11270771Y-54921315D01*
X11270771Y-54921315D02*
X11223152Y-54826077D01*
X11223152Y-54826077D02*
X11223152Y-54683220D01*
X11223152Y-54683220D02*
X11270771Y-54587982D01*
X11889819Y-54111791D02*
X11223152Y-54111791D01*
X10889819Y-54111791D02*
X10937438Y-54159410D01*
X10937438Y-54159410D02*
X10985057Y-54111791D01*
X10985057Y-54111791D02*
X10937438Y-54064172D01*
X10937438Y-54064172D02*
X10889819Y-54111791D01*
X10889819Y-54111791D02*
X10985057Y-54111791D01*
X11223152Y-53207030D02*
X12032676Y-53207030D01*
X12032676Y-53207030D02*
X12127914Y-53254649D01*
X12127914Y-53254649D02*
X12175533Y-53302268D01*
X12175533Y-53302268D02*
X12223152Y-53397506D01*
X12223152Y-53397506D02*
X12223152Y-53540363D01*
X12223152Y-53540363D02*
X12175533Y-53635601D01*
X11842200Y-53207030D02*
X11889819Y-53302268D01*
X11889819Y-53302268D02*
X11889819Y-53492744D01*
X11889819Y-53492744D02*
X11842200Y-53587982D01*
X11842200Y-53587982D02*
X11794580Y-53635601D01*
X11794580Y-53635601D02*
X11699342Y-53683220D01*
X11699342Y-53683220D02*
X11413628Y-53683220D01*
X11413628Y-53683220D02*
X11318390Y-53635601D01*
X11318390Y-53635601D02*
X11270771Y-53587982D01*
X11270771Y-53587982D02*
X11223152Y-53492744D01*
X11223152Y-53492744D02*
X11223152Y-53302268D01*
X11223152Y-53302268D02*
X11270771Y-53207030D01*
X11223152Y-52730839D02*
X11889819Y-52730839D01*
X11318390Y-52730839D02*
X11270771Y-52683220D01*
X11270771Y-52683220D02*
X11223152Y-52587982D01*
X11223152Y-52587982D02*
X11223152Y-52445125D01*
X11223152Y-52445125D02*
X11270771Y-52349887D01*
X11270771Y-52349887D02*
X11366009Y-52302268D01*
X11366009Y-52302268D02*
X11889819Y-52302268D01*
X11842200Y-51445125D02*
X11889819Y-51540363D01*
X11889819Y-51540363D02*
X11889819Y-51730839D01*
X11889819Y-51730839D02*
X11842200Y-51826077D01*
X11842200Y-51826077D02*
X11746961Y-51873696D01*
X11746961Y-51873696D02*
X11366009Y-51873696D01*
X11366009Y-51873696D02*
X11270771Y-51826077D01*
X11270771Y-51826077D02*
X11223152Y-51730839D01*
X11223152Y-51730839D02*
X11223152Y-51540363D01*
X11223152Y-51540363D02*
X11270771Y-51445125D01*
X11270771Y-51445125D02*
X11366009Y-51397506D01*
X11366009Y-51397506D02*
X11461247Y-51397506D01*
X11461247Y-51397506D02*
X11556485Y-51873696D01*
X11889819Y-50540363D02*
X10889819Y-50540363D01*
X11842200Y-50540363D02*
X11889819Y-50635601D01*
X11889819Y-50635601D02*
X11889819Y-50826077D01*
X11889819Y-50826077D02*
X11842200Y-50921315D01*
X11842200Y-50921315D02*
X11794580Y-50968934D01*
X11794580Y-50968934D02*
X11699342Y-51016553D01*
X11699342Y-51016553D02*
X11413628Y-51016553D01*
X11413628Y-51016553D02*
X11318390Y-50968934D01*
X11318390Y-50968934D02*
X11270771Y-50921315D01*
X11270771Y-50921315D02*
X11223152Y-50826077D01*
X11223152Y-50826077D02*
X11223152Y-50635601D01*
X11223152Y-50635601D02*
X11270771Y-50540363D01*
X11889819Y-49302267D02*
X10889819Y-49302267D01*
X11270771Y-49302267D02*
X11223152Y-49207029D01*
X11223152Y-49207029D02*
X11223152Y-49016553D01*
X11223152Y-49016553D02*
X11270771Y-48921315D01*
X11270771Y-48921315D02*
X11318390Y-48873696D01*
X11318390Y-48873696D02*
X11413628Y-48826077D01*
X11413628Y-48826077D02*
X11699342Y-48826077D01*
X11699342Y-48826077D02*
X11794580Y-48873696D01*
X11794580Y-48873696D02*
X11842200Y-48921315D01*
X11842200Y-48921315D02*
X11889819Y-49016553D01*
X11889819Y-49016553D02*
X11889819Y-49207029D01*
X11889819Y-49207029D02*
X11842200Y-49302267D01*
X11223152Y-48492743D02*
X11889819Y-48254648D01*
X11223152Y-48016553D02*
X11889819Y-48254648D01*
X11889819Y-48254648D02*
X12127914Y-48349886D01*
X12127914Y-48349886D02*
X12175533Y-48397505D01*
X12175533Y-48397505D02*
X12223152Y-48492743D01*
X13499819Y-56683220D02*
X12833152Y-56683220D01*
X12928390Y-56683220D02*
X12880771Y-56635601D01*
X12880771Y-56635601D02*
X12833152Y-56540363D01*
X12833152Y-56540363D02*
X12833152Y-56397506D01*
X12833152Y-56397506D02*
X12880771Y-56302268D01*
X12880771Y-56302268D02*
X12976009Y-56254649D01*
X12976009Y-56254649D02*
X13499819Y-56254649D01*
X12976009Y-56254649D02*
X12880771Y-56207030D01*
X12880771Y-56207030D02*
X12833152Y-56111792D01*
X12833152Y-56111792D02*
X12833152Y-55968935D01*
X12833152Y-55968935D02*
X12880771Y-55873696D01*
X12880771Y-55873696D02*
X12976009Y-55826077D01*
X12976009Y-55826077D02*
X13499819Y-55826077D01*
X13499819Y-54921316D02*
X12976009Y-54921316D01*
X12976009Y-54921316D02*
X12880771Y-54968935D01*
X12880771Y-54968935D02*
X12833152Y-55064173D01*
X12833152Y-55064173D02*
X12833152Y-55254649D01*
X12833152Y-55254649D02*
X12880771Y-55349887D01*
X13452200Y-54921316D02*
X13499819Y-55016554D01*
X13499819Y-55016554D02*
X13499819Y-55254649D01*
X13499819Y-55254649D02*
X13452200Y-55349887D01*
X13452200Y-55349887D02*
X13356961Y-55397506D01*
X13356961Y-55397506D02*
X13261723Y-55397506D01*
X13261723Y-55397506D02*
X13166485Y-55349887D01*
X13166485Y-55349887D02*
X13118866Y-55254649D01*
X13118866Y-55254649D02*
X13118866Y-55016554D01*
X13118866Y-55016554D02*
X13071247Y-54921316D01*
X13452200Y-54492744D02*
X13499819Y-54397506D01*
X13499819Y-54397506D02*
X13499819Y-54207030D01*
X13499819Y-54207030D02*
X13452200Y-54111792D01*
X13452200Y-54111792D02*
X13356961Y-54064173D01*
X13356961Y-54064173D02*
X13309342Y-54064173D01*
X13309342Y-54064173D02*
X13214104Y-54111792D01*
X13214104Y-54111792D02*
X13166485Y-54207030D01*
X13166485Y-54207030D02*
X13166485Y-54349887D01*
X13166485Y-54349887D02*
X13118866Y-54445125D01*
X13118866Y-54445125D02*
X13023628Y-54492744D01*
X13023628Y-54492744D02*
X12976009Y-54492744D01*
X12976009Y-54492744D02*
X12880771Y-54445125D01*
X12880771Y-54445125D02*
X12833152Y-54349887D01*
X12833152Y-54349887D02*
X12833152Y-54207030D01*
X12833152Y-54207030D02*
X12880771Y-54111792D01*
X13499819Y-53492744D02*
X13452200Y-53587982D01*
X13452200Y-53587982D02*
X13404580Y-53635601D01*
X13404580Y-53635601D02*
X13309342Y-53683220D01*
X13309342Y-53683220D02*
X13023628Y-53683220D01*
X13023628Y-53683220D02*
X12928390Y-53635601D01*
X12928390Y-53635601D02*
X12880771Y-53587982D01*
X12880771Y-53587982D02*
X12833152Y-53492744D01*
X12833152Y-53492744D02*
X12833152Y-53349887D01*
X12833152Y-53349887D02*
X12880771Y-53254649D01*
X12880771Y-53254649D02*
X12928390Y-53207030D01*
X12928390Y-53207030D02*
X13023628Y-53159411D01*
X13023628Y-53159411D02*
X13309342Y-53159411D01*
X13309342Y-53159411D02*
X13404580Y-53207030D01*
X13404580Y-53207030D02*
X13452200Y-53254649D01*
X13452200Y-53254649D02*
X13499819Y-53349887D01*
X13499819Y-53349887D02*
X13499819Y-53492744D01*
X12833152Y-52730839D02*
X13499819Y-52730839D01*
X12928390Y-52730839D02*
X12880771Y-52683220D01*
X12880771Y-52683220D02*
X12833152Y-52587982D01*
X12833152Y-52587982D02*
X12833152Y-52445125D01*
X12833152Y-52445125D02*
X12880771Y-52349887D01*
X12880771Y-52349887D02*
X12976009Y-52302268D01*
X12976009Y-52302268D02*
X13499819Y-52302268D01*
X13499819Y-51064172D02*
X12833152Y-51064172D01*
X12928390Y-51064172D02*
X12880771Y-51016553D01*
X12880771Y-51016553D02*
X12833152Y-50921315D01*
X12833152Y-50921315D02*
X12833152Y-50778458D01*
X12833152Y-50778458D02*
X12880771Y-50683220D01*
X12880771Y-50683220D02*
X12976009Y-50635601D01*
X12976009Y-50635601D02*
X13499819Y-50635601D01*
X12976009Y-50635601D02*
X12880771Y-50587982D01*
X12880771Y-50587982D02*
X12833152Y-50492744D01*
X12833152Y-50492744D02*
X12833152Y-50349887D01*
X12833152Y-50349887D02*
X12880771Y-50254648D01*
X12880771Y-50254648D02*
X12976009Y-50207029D01*
X12976009Y-50207029D02*
X13499819Y-50207029D01*
X13499819Y-49302268D02*
X12976009Y-49302268D01*
X12976009Y-49302268D02*
X12880771Y-49349887D01*
X12880771Y-49349887D02*
X12833152Y-49445125D01*
X12833152Y-49445125D02*
X12833152Y-49635601D01*
X12833152Y-49635601D02*
X12880771Y-49730839D01*
X13452200Y-49302268D02*
X13499819Y-49397506D01*
X13499819Y-49397506D02*
X13499819Y-49635601D01*
X13499819Y-49635601D02*
X13452200Y-49730839D01*
X13452200Y-49730839D02*
X13356961Y-49778458D01*
X13356961Y-49778458D02*
X13261723Y-49778458D01*
X13261723Y-49778458D02*
X13166485Y-49730839D01*
X13166485Y-49730839D02*
X13118866Y-49635601D01*
X13118866Y-49635601D02*
X13118866Y-49397506D01*
X13118866Y-49397506D02*
X13071247Y-49302268D01*
X12833152Y-48826077D02*
X13499819Y-48826077D01*
X12928390Y-48826077D02*
X12880771Y-48778458D01*
X12880771Y-48778458D02*
X12833152Y-48683220D01*
X12833152Y-48683220D02*
X12833152Y-48540363D01*
X12833152Y-48540363D02*
X12880771Y-48445125D01*
X12880771Y-48445125D02*
X12976009Y-48397506D01*
X12976009Y-48397506D02*
X13499819Y-48397506D01*
X12833152Y-47921315D02*
X13499819Y-47921315D01*
X12928390Y-47921315D02*
X12880771Y-47873696D01*
X12880771Y-47873696D02*
X12833152Y-47778458D01*
X12833152Y-47778458D02*
X12833152Y-47635601D01*
X12833152Y-47635601D02*
X12880771Y-47540363D01*
X12880771Y-47540363D02*
X12976009Y-47492744D01*
X12976009Y-47492744D02*
X13499819Y-47492744D01*
X15109819Y-56683220D02*
X14443152Y-56683220D01*
X14109819Y-56683220D02*
X14157438Y-56730839D01*
X14157438Y-56730839D02*
X14205057Y-56683220D01*
X14205057Y-56683220D02*
X14157438Y-56635601D01*
X14157438Y-56635601D02*
X14109819Y-56683220D01*
X14109819Y-56683220D02*
X14205057Y-56683220D01*
X14443152Y-56207030D02*
X15109819Y-56207030D01*
X14538390Y-56207030D02*
X14490771Y-56159411D01*
X14490771Y-56159411D02*
X14443152Y-56064173D01*
X14443152Y-56064173D02*
X14443152Y-55921316D01*
X14443152Y-55921316D02*
X14490771Y-55826078D01*
X14490771Y-55826078D02*
X14586009Y-55778459D01*
X14586009Y-55778459D02*
X15109819Y-55778459D01*
X14443152Y-54540363D02*
X15109819Y-54540363D01*
X14538390Y-54540363D02*
X14490771Y-54492744D01*
X14490771Y-54492744D02*
X14443152Y-54397506D01*
X14443152Y-54397506D02*
X14443152Y-54254649D01*
X14443152Y-54254649D02*
X14490771Y-54159411D01*
X14490771Y-54159411D02*
X14586009Y-54111792D01*
X14586009Y-54111792D02*
X15109819Y-54111792D01*
X15062200Y-53254649D02*
X15109819Y-53349887D01*
X15109819Y-53349887D02*
X15109819Y-53540363D01*
X15109819Y-53540363D02*
X15062200Y-53635601D01*
X15062200Y-53635601D02*
X14966961Y-53683220D01*
X14966961Y-53683220D02*
X14586009Y-53683220D01*
X14586009Y-53683220D02*
X14490771Y-53635601D01*
X14490771Y-53635601D02*
X14443152Y-53540363D01*
X14443152Y-53540363D02*
X14443152Y-53349887D01*
X14443152Y-53349887D02*
X14490771Y-53254649D01*
X14490771Y-53254649D02*
X14586009Y-53207030D01*
X14586009Y-53207030D02*
X14681247Y-53207030D01*
X14681247Y-53207030D02*
X14776485Y-53683220D01*
X14443152Y-52873696D02*
X15109819Y-52683220D01*
X15109819Y-52683220D02*
X14633628Y-52492744D01*
X14633628Y-52492744D02*
X15109819Y-52302268D01*
X15109819Y-52302268D02*
X14443152Y-52111792D01*
X14443152Y-51064172D02*
X15109819Y-50826077D01*
X14443152Y-50587982D02*
X15109819Y-50826077D01*
X15109819Y-50826077D02*
X15347914Y-50921315D01*
X15347914Y-50921315D02*
X15395533Y-50968934D01*
X15395533Y-50968934D02*
X15443152Y-51064172D01*
X15109819Y-50064172D02*
X15062200Y-50159410D01*
X15062200Y-50159410D02*
X15014580Y-50207029D01*
X15014580Y-50207029D02*
X14919342Y-50254648D01*
X14919342Y-50254648D02*
X14633628Y-50254648D01*
X14633628Y-50254648D02*
X14538390Y-50207029D01*
X14538390Y-50207029D02*
X14490771Y-50159410D01*
X14490771Y-50159410D02*
X14443152Y-50064172D01*
X14443152Y-50064172D02*
X14443152Y-49921315D01*
X14443152Y-49921315D02*
X14490771Y-49826077D01*
X14490771Y-49826077D02*
X14538390Y-49778458D01*
X14538390Y-49778458D02*
X14633628Y-49730839D01*
X14633628Y-49730839D02*
X14919342Y-49730839D01*
X14919342Y-49730839D02*
X15014580Y-49778458D01*
X15014580Y-49778458D02*
X15062200Y-49826077D01*
X15062200Y-49826077D02*
X15109819Y-49921315D01*
X15109819Y-49921315D02*
X15109819Y-50064172D01*
X15109819Y-49302267D02*
X14443152Y-49302267D01*
X14633628Y-49302267D02*
X14538390Y-49254648D01*
X14538390Y-49254648D02*
X14490771Y-49207029D01*
X14490771Y-49207029D02*
X14443152Y-49111791D01*
X14443152Y-49111791D02*
X14443152Y-49016553D01*
X15109819Y-48683219D02*
X14109819Y-48683219D01*
X14728866Y-48587981D02*
X15109819Y-48302267D01*
X14443152Y-48302267D02*
X14824104Y-48683219D01*
X17237438Y-99819411D02*
X17189819Y-99914649D01*
X17189819Y-99914649D02*
X17189819Y-100057506D01*
X17189819Y-100057506D02*
X17237438Y-100200363D01*
X17237438Y-100200363D02*
X17332676Y-100295601D01*
X17332676Y-100295601D02*
X17427914Y-100343220D01*
X17427914Y-100343220D02*
X17618390Y-100390839D01*
X17618390Y-100390839D02*
X17761247Y-100390839D01*
X17761247Y-100390839D02*
X17951723Y-100343220D01*
X17951723Y-100343220D02*
X18046961Y-100295601D01*
X18046961Y-100295601D02*
X18142200Y-100200363D01*
X18142200Y-100200363D02*
X18189819Y-100057506D01*
X18189819Y-100057506D02*
X18189819Y-99962268D01*
X18189819Y-99962268D02*
X18142200Y-99819411D01*
X18142200Y-99819411D02*
X18094580Y-99771792D01*
X18094580Y-99771792D02*
X17761247Y-99771792D01*
X17761247Y-99771792D02*
X17761247Y-99962268D01*
X18189819Y-99343220D02*
X17189819Y-99343220D01*
X17189819Y-99343220D02*
X18189819Y-98771792D01*
X18189819Y-98771792D02*
X17189819Y-98771792D01*
X18189819Y-98295601D02*
X17189819Y-98295601D01*
X17189819Y-98295601D02*
X17189819Y-98057506D01*
X17189819Y-98057506D02*
X17237438Y-97914649D01*
X17237438Y-97914649D02*
X17332676Y-97819411D01*
X17332676Y-97819411D02*
X17427914Y-97771792D01*
X17427914Y-97771792D02*
X17618390Y-97724173D01*
X17618390Y-97724173D02*
X17761247Y-97724173D01*
X17761247Y-97724173D02*
X17951723Y-97771792D01*
X17951723Y-97771792D02*
X18046961Y-97819411D01*
X18046961Y-97819411D02*
X18142200Y-97914649D01*
X18142200Y-97914649D02*
X18189819Y-98057506D01*
X18189819Y-98057506D02*
X18189819Y-98295601D01*
X27611541Y-84679819D02*
X28230588Y-84679819D01*
X28230588Y-84679819D02*
X27897255Y-85060771D01*
X27897255Y-85060771D02*
X28040112Y-85060771D01*
X28040112Y-85060771D02*
X28135350Y-85108390D01*
X28135350Y-85108390D02*
X28182969Y-85156009D01*
X28182969Y-85156009D02*
X28230588Y-85251247D01*
X28230588Y-85251247D02*
X28230588Y-85489342D01*
X28230588Y-85489342D02*
X28182969Y-85584580D01*
X28182969Y-85584580D02*
X28135350Y-85632200D01*
X28135350Y-85632200D02*
X28040112Y-85679819D01*
X28040112Y-85679819D02*
X27754398Y-85679819D01*
X27754398Y-85679819D02*
X27659160Y-85632200D01*
X27659160Y-85632200D02*
X27611541Y-85584580D01*
X28563922Y-85013152D02*
X28802017Y-85679819D01*
X28802017Y-85679819D02*
X29040112Y-85013152D01*
X29325827Y-84679819D02*
X29944874Y-84679819D01*
X29944874Y-84679819D02*
X29611541Y-85060771D01*
X29611541Y-85060771D02*
X29754398Y-85060771D01*
X29754398Y-85060771D02*
X29849636Y-85108390D01*
X29849636Y-85108390D02*
X29897255Y-85156009D01*
X29897255Y-85156009D02*
X29944874Y-85251247D01*
X29944874Y-85251247D02*
X29944874Y-85489342D01*
X29944874Y-85489342D02*
X29897255Y-85584580D01*
X29897255Y-85584580D02*
X29849636Y-85632200D01*
X29849636Y-85632200D02*
X29754398Y-85679819D01*
X29754398Y-85679819D02*
X29468684Y-85679819D01*
X29468684Y-85679819D02*
X29373446Y-85632200D01*
X29373446Y-85632200D02*
X29325827Y-85584580D01*
X12789819Y-97323220D02*
X11789819Y-97323220D01*
X11789819Y-97323220D02*
X11789819Y-96942268D01*
X11789819Y-96942268D02*
X11837438Y-96847030D01*
X11837438Y-96847030D02*
X11885057Y-96799411D01*
X11885057Y-96799411D02*
X11980295Y-96751792D01*
X11980295Y-96751792D02*
X12123152Y-96751792D01*
X12123152Y-96751792D02*
X12218390Y-96799411D01*
X12218390Y-96799411D02*
X12266009Y-96847030D01*
X12266009Y-96847030D02*
X12313628Y-96942268D01*
X12313628Y-96942268D02*
X12313628Y-97323220D01*
X12789819Y-96180363D02*
X12742200Y-96275601D01*
X12742200Y-96275601D02*
X12694580Y-96323220D01*
X12694580Y-96323220D02*
X12599342Y-96370839D01*
X12599342Y-96370839D02*
X12313628Y-96370839D01*
X12313628Y-96370839D02*
X12218390Y-96323220D01*
X12218390Y-96323220D02*
X12170771Y-96275601D01*
X12170771Y-96275601D02*
X12123152Y-96180363D01*
X12123152Y-96180363D02*
X12123152Y-96037506D01*
X12123152Y-96037506D02*
X12170771Y-95942268D01*
X12170771Y-95942268D02*
X12218390Y-95894649D01*
X12218390Y-95894649D02*
X12313628Y-95847030D01*
X12313628Y-95847030D02*
X12599342Y-95847030D01*
X12599342Y-95847030D02*
X12694580Y-95894649D01*
X12694580Y-95894649D02*
X12742200Y-95942268D01*
X12742200Y-95942268D02*
X12789819Y-96037506D01*
X12789819Y-96037506D02*
X12789819Y-96180363D01*
X12123152Y-95561315D02*
X12123152Y-95180363D01*
X11789819Y-95418458D02*
X12646961Y-95418458D01*
X12646961Y-95418458D02*
X12742200Y-95370839D01*
X12742200Y-95370839D02*
X12789819Y-95275601D01*
X12789819Y-95275601D02*
X12789819Y-95180363D01*
X12789819Y-93561315D02*
X12789819Y-94132743D01*
X12789819Y-93847029D02*
X11789819Y-93847029D01*
X11789819Y-93847029D02*
X11932676Y-93942267D01*
X11932676Y-93942267D02*
X12027914Y-94037505D01*
X12027914Y-94037505D02*
X12075533Y-94132743D01*
X31469580Y-76116666D02*
X31517200Y-76164285D01*
X31517200Y-76164285D02*
X31564819Y-76307142D01*
X31564819Y-76307142D02*
X31564819Y-76402380D01*
X31564819Y-76402380D02*
X31517200Y-76545237D01*
X31517200Y-76545237D02*
X31421961Y-76640475D01*
X31421961Y-76640475D02*
X31326723Y-76688094D01*
X31326723Y-76688094D02*
X31136247Y-76735713D01*
X31136247Y-76735713D02*
X30993390Y-76735713D01*
X30993390Y-76735713D02*
X30802914Y-76688094D01*
X30802914Y-76688094D02*
X30707676Y-76640475D01*
X30707676Y-76640475D02*
X30612438Y-76545237D01*
X30612438Y-76545237D02*
X30564819Y-76402380D01*
X30564819Y-76402380D02*
X30564819Y-76307142D01*
X30564819Y-76307142D02*
X30612438Y-76164285D01*
X30612438Y-76164285D02*
X30660057Y-76116666D01*
X30564819Y-75783332D02*
X30564819Y-75164285D01*
X30564819Y-75164285D02*
X30945771Y-75497618D01*
X30945771Y-75497618D02*
X30945771Y-75354761D01*
X30945771Y-75354761D02*
X30993390Y-75259523D01*
X30993390Y-75259523D02*
X31041009Y-75211904D01*
X31041009Y-75211904D02*
X31136247Y-75164285D01*
X31136247Y-75164285D02*
X31374342Y-75164285D01*
X31374342Y-75164285D02*
X31469580Y-75211904D01*
X31469580Y-75211904D02*
X31517200Y-75259523D01*
X31517200Y-75259523D02*
X31564819Y-75354761D01*
X31564819Y-75354761D02*
X31564819Y-75640475D01*
X31564819Y-75640475D02*
X31517200Y-75735713D01*
X31517200Y-75735713D02*
X31469580Y-75783332D01*
X32638094Y-41849104D02*
X33114284Y-41849104D01*
X32542856Y-42134819D02*
X32876189Y-41134819D01*
X32876189Y-41134819D02*
X33209522Y-42134819D01*
X33542856Y-41468152D02*
X33542856Y-42134819D01*
X33542856Y-41563390D02*
X33590475Y-41515771D01*
X33590475Y-41515771D02*
X33685713Y-41468152D01*
X33685713Y-41468152D02*
X33828570Y-41468152D01*
X33828570Y-41468152D02*
X33923808Y-41515771D01*
X33923808Y-41515771D02*
X33971427Y-41611009D01*
X33971427Y-41611009D02*
X33971427Y-42134819D01*
X34304761Y-41468152D02*
X34685713Y-41468152D01*
X34447618Y-41134819D02*
X34447618Y-41991961D01*
X34447618Y-41991961D02*
X34495237Y-42087200D01*
X34495237Y-42087200D02*
X34590475Y-42134819D01*
X34590475Y-42134819D02*
X34685713Y-42134819D01*
X35399999Y-42087200D02*
X35304761Y-42134819D01*
X35304761Y-42134819D02*
X35114285Y-42134819D01*
X35114285Y-42134819D02*
X35019047Y-42087200D01*
X35019047Y-42087200D02*
X34971428Y-41991961D01*
X34971428Y-41991961D02*
X34971428Y-41611009D01*
X34971428Y-41611009D02*
X35019047Y-41515771D01*
X35019047Y-41515771D02*
X35114285Y-41468152D01*
X35114285Y-41468152D02*
X35304761Y-41468152D01*
X35304761Y-41468152D02*
X35399999Y-41515771D01*
X35399999Y-41515771D02*
X35447618Y-41611009D01*
X35447618Y-41611009D02*
X35447618Y-41706247D01*
X35447618Y-41706247D02*
X34971428Y-41801485D01*
X35876190Y-41468152D02*
X35876190Y-42134819D01*
X35876190Y-41563390D02*
X35923809Y-41515771D01*
X35923809Y-41515771D02*
X36019047Y-41468152D01*
X36019047Y-41468152D02*
X36161904Y-41468152D01*
X36161904Y-41468152D02*
X36257142Y-41515771D01*
X36257142Y-41515771D02*
X36304761Y-41611009D01*
X36304761Y-41611009D02*
X36304761Y-42134819D01*
X36780952Y-41468152D02*
X36780952Y-42134819D01*
X36780952Y-41563390D02*
X36828571Y-41515771D01*
X36828571Y-41515771D02*
X36923809Y-41468152D01*
X36923809Y-41468152D02*
X37066666Y-41468152D01*
X37066666Y-41468152D02*
X37161904Y-41515771D01*
X37161904Y-41515771D02*
X37209523Y-41611009D01*
X37209523Y-41611009D02*
X37209523Y-42134819D01*
X38114285Y-42134819D02*
X38114285Y-41611009D01*
X38114285Y-41611009D02*
X38066666Y-41515771D01*
X38066666Y-41515771D02*
X37971428Y-41468152D01*
X37971428Y-41468152D02*
X37780952Y-41468152D01*
X37780952Y-41468152D02*
X37685714Y-41515771D01*
X38114285Y-42087200D02*
X38019047Y-42134819D01*
X38019047Y-42134819D02*
X37780952Y-42134819D01*
X37780952Y-42134819D02*
X37685714Y-42087200D01*
X37685714Y-42087200D02*
X37638095Y-41991961D01*
X37638095Y-41991961D02*
X37638095Y-41896723D01*
X37638095Y-41896723D02*
X37685714Y-41801485D01*
X37685714Y-41801485D02*
X37780952Y-41753866D01*
X37780952Y-41753866D02*
X38019047Y-41753866D01*
X38019047Y-41753866D02*
X38114285Y-41706247D01*
X39304762Y-41849104D02*
X39780952Y-41849104D01*
X39209524Y-42134819D02*
X39542857Y-41134819D01*
X39542857Y-41134819D02*
X39876190Y-42134819D01*
X40209524Y-42134819D02*
X40209524Y-41468152D01*
X40209524Y-41658628D02*
X40257143Y-41563390D01*
X40257143Y-41563390D02*
X40304762Y-41515771D01*
X40304762Y-41515771D02*
X40400000Y-41468152D01*
X40400000Y-41468152D02*
X40495238Y-41468152D01*
X41209524Y-42087200D02*
X41114286Y-42134819D01*
X41114286Y-42134819D02*
X40923810Y-42134819D01*
X40923810Y-42134819D02*
X40828572Y-42087200D01*
X40828572Y-42087200D02*
X40780953Y-41991961D01*
X40780953Y-41991961D02*
X40780953Y-41611009D01*
X40780953Y-41611009D02*
X40828572Y-41515771D01*
X40828572Y-41515771D02*
X40923810Y-41468152D01*
X40923810Y-41468152D02*
X41114286Y-41468152D01*
X41114286Y-41468152D02*
X41209524Y-41515771D01*
X41209524Y-41515771D02*
X41257143Y-41611009D01*
X41257143Y-41611009D02*
X41257143Y-41706247D01*
X41257143Y-41706247D02*
X40780953Y-41801485D01*
X42114286Y-42134819D02*
X42114286Y-41611009D01*
X42114286Y-41611009D02*
X42066667Y-41515771D01*
X42066667Y-41515771D02*
X41971429Y-41468152D01*
X41971429Y-41468152D02*
X41780953Y-41468152D01*
X41780953Y-41468152D02*
X41685715Y-41515771D01*
X42114286Y-42087200D02*
X42019048Y-42134819D01*
X42019048Y-42134819D02*
X41780953Y-42134819D01*
X41780953Y-42134819D02*
X41685715Y-42087200D01*
X41685715Y-42087200D02*
X41638096Y-41991961D01*
X41638096Y-41991961D02*
X41638096Y-41896723D01*
X41638096Y-41896723D02*
X41685715Y-41801485D01*
X41685715Y-41801485D02*
X41780953Y-41753866D01*
X41780953Y-41753866D02*
X42019048Y-41753866D01*
X42019048Y-41753866D02*
X42114286Y-41706247D01*
D10*
X22490000Y-90220000D02*
X22490000Y-110780000D01*
X22490000Y-110780000D02*
X32770000Y-110780000D01*
X24980000Y-90280000D02*
X24980000Y-110720000D01*
X24980000Y-110720000D02*
X30280000Y-110720000D01*
X26630000Y-90280000D02*
X24980000Y-90280000D01*
X30280000Y-90280000D02*
X28630000Y-90280000D01*
X30280000Y-110720000D02*
X30280000Y-90280000D01*
X32770000Y-90220000D02*
X22490000Y-90220000D01*
X32770000Y-110780000D02*
X32770000Y-90220000D01*
X26630000Y-90280000D02*
G75*
G03*
X28630000Y-90280000I1000000J0D01*
G01*
X39150000Y-87223733D02*
X39150000Y-87516267D01*
X38130000Y-87223733D02*
X38130000Y-87516267D01*
X19880000Y-38615000D02*
X19880000Y-43815000D01*
X19880000Y-43815000D02*
X25180000Y-43815000D01*
X21530000Y-38615000D02*
X19880000Y-38615000D01*
X25180000Y-38615000D02*
X23530000Y-38615000D01*
X25180000Y-43815000D02*
X25180000Y-38615000D01*
X21530000Y-38615000D02*
G75*
G03*
X23530000Y-38615000I1000000J0D01*
G01*
X19181000Y-48200000D02*
G75*
G03*
X19181000Y-48200000I-1251000J0D01*
G01*
X16113767Y-102040000D02*
X15821233Y-102040000D01*
X16113767Y-101020000D02*
X15821233Y-101020000D01*
X51481000Y-44430000D02*
G75*
G03*
X51481000Y-44430000I-1251000J0D01*
G01*
X43637500Y-86081269D02*
X43637500Y-85788735D01*
X44657500Y-86081269D02*
X44657500Y-85788735D01*
X46550000Y-100180000D02*
X47880000Y-100180000D01*
X46550000Y-101510000D02*
X46550000Y-100180000D01*
X46550000Y-102780000D02*
X46550000Y-110460000D01*
X46550000Y-102780000D02*
X49150000Y-102780000D01*
X46550000Y-110460000D02*
X51750000Y-110460000D01*
X49150000Y-100180000D02*
X51750000Y-100180000D01*
X49150000Y-102780000D02*
X49150000Y-100180000D01*
X51750000Y-100180000D02*
X51750000Y-110460000D01*
X17730000Y-78310000D02*
X23740000Y-78310000D01*
X19980000Y-85130000D02*
X23740000Y-85130000D01*
X23740000Y-78310000D02*
X23740000Y-79570000D01*
X23740000Y-85130000D02*
X23740000Y-83870000D01*
X47649223Y-96788501D02*
X47139775Y-96788501D01*
X47649223Y-95743501D02*
X47139775Y-95743501D01*
X51740000Y-34530000D02*
X51740000Y-31080000D01*
X51740000Y-34530000D02*
X51740000Y-36480000D01*
X46620000Y-34530000D02*
X46620000Y-32580000D01*
X46620000Y-34530000D02*
X46620000Y-36480000D01*
X51401000Y-47750000D02*
G75*
G03*
X51401000Y-47750000I-1251000J0D01*
G01*
X38720258Y-73307450D02*
X38329999Y-72979983D01*
X39391971Y-72506933D02*
X39001712Y-72179466D01*
X31955000Y-77330113D02*
X31955000Y-77830113D01*
X32205000Y-77580113D02*
X31705000Y-77580113D01*
X33060000Y-80134888D02*
X27900000Y-80134888D01*
X33060000Y-80174888D02*
X27900000Y-80174888D01*
X33059000Y-80214888D02*
X27901000Y-80214888D01*
X33058000Y-80254888D02*
X27902000Y-80254888D01*
X33056000Y-80294888D02*
X27904000Y-80294888D01*
X33053000Y-80334888D02*
X27907000Y-80334888D01*
X33049000Y-80374888D02*
X31520000Y-80374888D01*
X29440000Y-80374888D02*
X27911000Y-80374888D01*
X33045000Y-80414888D02*
X31520000Y-80414888D01*
X29440000Y-80414888D02*
X27915000Y-80414888D01*
X33041000Y-80454888D02*
X31520000Y-80454888D01*
X29440000Y-80454888D02*
X27919000Y-80454888D01*
X33036000Y-80494888D02*
X31520000Y-80494888D01*
X29440000Y-80494888D02*
X27924000Y-80494888D01*
X33030000Y-80534888D02*
X31520000Y-80534888D01*
X29440000Y-80534888D02*
X27930000Y-80534888D01*
X33023000Y-80574888D02*
X31520000Y-80574888D01*
X29440000Y-80574888D02*
X27937000Y-80574888D01*
X33016000Y-80614888D02*
X31520000Y-80614888D01*
X29440000Y-80614888D02*
X27944000Y-80614888D01*
X33008000Y-80654888D02*
X31520000Y-80654888D01*
X29440000Y-80654888D02*
X27952000Y-80654888D01*
X33000000Y-80694888D02*
X31520000Y-80694888D01*
X29440000Y-80694888D02*
X27960000Y-80694888D01*
X32991000Y-80734888D02*
X31520000Y-80734888D01*
X29440000Y-80734888D02*
X27969000Y-80734888D01*
X32981000Y-80774888D02*
X31520000Y-80774888D01*
X29440000Y-80774888D02*
X27979000Y-80774888D01*
X32971000Y-80814888D02*
X31520000Y-80814888D01*
X29440000Y-80814888D02*
X27989000Y-80814888D01*
X32960000Y-80855888D02*
X31520000Y-80855888D01*
X29440000Y-80855888D02*
X28000000Y-80855888D01*
X32948000Y-80895888D02*
X31520000Y-80895888D01*
X29440000Y-80895888D02*
X28012000Y-80895888D01*
X32935000Y-80935888D02*
X31520000Y-80935888D01*
X29440000Y-80935888D02*
X28025000Y-80935888D01*
X32922000Y-80975888D02*
X31520000Y-80975888D01*
X29440000Y-80975888D02*
X28038000Y-80975888D01*
X32908000Y-81015888D02*
X31520000Y-81015888D01*
X29440000Y-81015888D02*
X28052000Y-81015888D01*
X32894000Y-81055888D02*
X31520000Y-81055888D01*
X29440000Y-81055888D02*
X28066000Y-81055888D01*
X32878000Y-81095888D02*
X31520000Y-81095888D01*
X29440000Y-81095888D02*
X28082000Y-81095888D01*
X32862000Y-81135888D02*
X31520000Y-81135888D01*
X29440000Y-81135888D02*
X28098000Y-81135888D01*
X32845000Y-81175888D02*
X31520000Y-81175888D01*
X29440000Y-81175888D02*
X28115000Y-81175888D01*
X32828000Y-81215888D02*
X31520000Y-81215888D01*
X29440000Y-81215888D02*
X28132000Y-81215888D01*
X32809000Y-81255888D02*
X31520000Y-81255888D01*
X29440000Y-81255888D02*
X28151000Y-81255888D01*
X32790000Y-81295888D02*
X31520000Y-81295888D01*
X29440000Y-81295888D02*
X28170000Y-81295888D01*
X32770000Y-81335888D02*
X31520000Y-81335888D01*
X29440000Y-81335888D02*
X28190000Y-81335888D01*
X32748000Y-81375888D02*
X31520000Y-81375888D01*
X29440000Y-81375888D02*
X28212000Y-81375888D01*
X32727000Y-81415888D02*
X31520000Y-81415888D01*
X29440000Y-81415888D02*
X28233000Y-81415888D01*
X32704000Y-81455888D02*
X31520000Y-81455888D01*
X29440000Y-81455888D02*
X28256000Y-81455888D01*
X32680000Y-81495888D02*
X31520000Y-81495888D01*
X29440000Y-81495888D02*
X28280000Y-81495888D01*
X32655000Y-81535888D02*
X31520000Y-81535888D01*
X29440000Y-81535888D02*
X28305000Y-81535888D01*
X32629000Y-81575888D02*
X31520000Y-81575888D01*
X29440000Y-81575888D02*
X28331000Y-81575888D01*
X32602000Y-81615888D02*
X31520000Y-81615888D01*
X29440000Y-81615888D02*
X28358000Y-81615888D01*
X32575000Y-81655888D02*
X31520000Y-81655888D01*
X29440000Y-81655888D02*
X28385000Y-81655888D01*
X32545000Y-81695888D02*
X31520000Y-81695888D01*
X29440000Y-81695888D02*
X28415000Y-81695888D01*
X32515000Y-81735888D02*
X31520000Y-81735888D01*
X29440000Y-81735888D02*
X28445000Y-81735888D01*
X32484000Y-81775888D02*
X31520000Y-81775888D01*
X29440000Y-81775888D02*
X28476000Y-81775888D01*
X32451000Y-81815888D02*
X31520000Y-81815888D01*
X29440000Y-81815888D02*
X28509000Y-81815888D01*
X32417000Y-81855888D02*
X31520000Y-81855888D01*
X29440000Y-81855888D02*
X28543000Y-81855888D01*
X32381000Y-81895888D02*
X31520000Y-81895888D01*
X29440000Y-81895888D02*
X28579000Y-81895888D01*
X32344000Y-81935888D02*
X31520000Y-81935888D01*
X29440000Y-81935888D02*
X28616000Y-81935888D01*
X32306000Y-81975888D02*
X31520000Y-81975888D01*
X29440000Y-81975888D02*
X28654000Y-81975888D01*
X32265000Y-82015888D02*
X31520000Y-82015888D01*
X29440000Y-82015888D02*
X28695000Y-82015888D01*
X32223000Y-82055888D02*
X31520000Y-82055888D01*
X29440000Y-82055888D02*
X28737000Y-82055888D01*
X32179000Y-82095888D02*
X31520000Y-82095888D01*
X29440000Y-82095888D02*
X28781000Y-82095888D01*
X32133000Y-82135888D02*
X31520000Y-82135888D01*
X29440000Y-82135888D02*
X28827000Y-82135888D01*
X32085000Y-82175888D02*
X31520000Y-82175888D01*
X29440000Y-82175888D02*
X28875000Y-82175888D01*
X32034000Y-82215888D02*
X31520000Y-82215888D01*
X29440000Y-82215888D02*
X28926000Y-82215888D01*
X31980000Y-82255888D02*
X31520000Y-82255888D01*
X29440000Y-82255888D02*
X28980000Y-82255888D01*
X31923000Y-82295888D02*
X31520000Y-82295888D01*
X29440000Y-82295888D02*
X29037000Y-82295888D01*
X31863000Y-82335888D02*
X31520000Y-82335888D01*
X29440000Y-82335888D02*
X29097000Y-82335888D01*
X31799000Y-82375888D02*
X31520000Y-82375888D01*
X29440000Y-82375888D02*
X29161000Y-82375888D01*
X31731000Y-82415888D02*
X31520000Y-82415888D01*
X29440000Y-82415888D02*
X29229000Y-82415888D01*
X31658000Y-82455888D02*
X29302000Y-82455888D01*
X31578000Y-82495888D02*
X29382000Y-82495888D01*
X31491000Y-82535888D02*
X29469000Y-82535888D01*
X31395000Y-82575888D02*
X29565000Y-82575888D01*
X31285000Y-82615888D02*
X29675000Y-82615888D01*
X31157000Y-82655888D02*
X29803000Y-82655888D01*
X30998000Y-82695888D02*
X29962000Y-82695888D01*
X30764000Y-82735888D02*
X30196000Y-82735888D01*
X33100000Y-80134888D02*
G75*
G03*
X33100000Y-80134888I-2620000J0D01*
G01*
X32030000Y-76096267D02*
X32030000Y-75803733D01*
X33050000Y-76096267D02*
X33050000Y-75803733D01*
X47877500Y-51584724D02*
X47877500Y-51075276D01*
X48922500Y-51584724D02*
X48922500Y-51075276D01*
X27121000Y-59470000D02*
G75*
G03*
X27121000Y-59470000I-1251000J0D01*
G01*
X48870000Y-40076233D02*
X48870000Y-40368767D01*
X47850000Y-40076233D02*
X47850000Y-40368767D01*
X25724998Y-72884997D02*
X25724998Y-69434997D01*
X25724998Y-72884997D02*
X25724998Y-74834997D01*
X20604998Y-72884997D02*
X20604998Y-70934997D01*
X20604998Y-72884997D02*
X20604998Y-74834997D01*
X35020000Y-19370000D02*
X36920000Y-19370000D01*
X35020000Y-33610000D02*
X35020000Y-19370000D01*
X36920000Y-19370000D02*
X43160000Y-19370000D01*
X43160000Y-19370000D02*
X43460000Y-19370000D01*
X43460000Y-19370000D02*
X43460000Y-33610000D01*
X43460000Y-33610000D02*
X35020000Y-33610000D01*
X44775000Y-73015000D02*
X41325000Y-73015000D01*
X44775000Y-73015000D02*
X46725000Y-73015000D01*
X44775000Y-78135000D02*
X42825000Y-78135000D01*
X44775000Y-78135000D02*
X46725000Y-78135000D01*
X45190001Y-93551268D02*
X45190001Y-93258734D01*
X46210001Y-93551268D02*
X46210001Y-93258734D01*
X51560000Y-93050000D02*
X50230000Y-93050000D01*
X51560000Y-91720000D02*
X51560000Y-93050000D01*
X51560000Y-90450000D02*
X51560000Y-87850000D01*
X51560000Y-90450000D02*
X48900000Y-90450000D01*
X51560000Y-87850000D02*
X48900000Y-87850000D01*
X48900000Y-90450000D02*
X48900000Y-87850000D01*
X27111000Y-53210000D02*
G75*
G03*
X27111000Y-53210000I-1251000J0D01*
G01*
X46767500Y-85014724D02*
X46767500Y-84505276D01*
X47812500Y-85014724D02*
X47812500Y-84505276D01*
X33460000Y-90890000D02*
X34110000Y-90890000D01*
X36700000Y-90890000D02*
X36110000Y-90890000D01*
X36700000Y-88890000D02*
X33460000Y-88890000D01*
X33460000Y-69110000D02*
X33460000Y-90890000D01*
X33460000Y-69110000D02*
X34410000Y-69110000D01*
X36700000Y-69110000D02*
X36700000Y-90890000D01*
X36700000Y-69110000D02*
X35810000Y-69110000D01*
X30680000Y-66950000D02*
X30680000Y-67450000D01*
X30930000Y-67200000D02*
X30430000Y-67200000D01*
X30315563Y-67690000D02*
X30180000Y-67690000D01*
X30315563Y-67690000D02*
X31380000Y-68754437D01*
X27924437Y-67690000D02*
X28060000Y-67690000D01*
X27924437Y-67690000D02*
X26860000Y-68754437D01*
X31380000Y-68754437D02*
X31380000Y-72210000D01*
X26860000Y-68754437D02*
X26860000Y-72210000D01*
X31380000Y-72210000D02*
X30180000Y-72210000D01*
X26860000Y-72210000D02*
X28060000Y-72210000D01*
X49030000Y-76020000D02*
X50360000Y-76020000D01*
X49030000Y-77350000D02*
X49030000Y-76020000D01*
X49030000Y-78620000D02*
X49030000Y-83760000D01*
X49030000Y-78620000D02*
X51690000Y-78620000D01*
X49030000Y-83760000D02*
X51690000Y-83760000D01*
X51690000Y-78620000D02*
X51690000Y-83760000D01*
X46453733Y-78810000D02*
X46746267Y-78810000D01*
X46453733Y-79830000D02*
X46746267Y-79830000D01*
X46770000Y-88733767D02*
X46770000Y-88441233D01*
X47790000Y-88733767D02*
X47790000Y-88441233D01*
X28400000Y-38680000D02*
X28400000Y-45430000D01*
X28400000Y-38680000D02*
X46400000Y-38680000D01*
X28400000Y-63430000D02*
X28400000Y-64180000D01*
X28400000Y-64180000D02*
X29400000Y-64180000D01*
X46400000Y-38680000D02*
X46400000Y-45430000D01*
X46400000Y-44620000D02*
X28400000Y-44620000D01*
X46400000Y-63430000D02*
X46400000Y-64180000D01*
X46400000Y-64180000D02*
X45400000Y-64180000D01*
X12567500Y-77047224D02*
X12567500Y-76537776D01*
X13612500Y-77047224D02*
X13612500Y-76537776D01*
X21992499Y-67587219D02*
X21992499Y-67077771D01*
X23037499Y-67587219D02*
X23037499Y-67077771D01*
X17307224Y-76385002D02*
X16797776Y-76385002D01*
X17307224Y-75340002D02*
X16797776Y-75340002D01*
X15132498Y-76525277D02*
X15132498Y-77034725D01*
X14087498Y-76525277D02*
X14087498Y-77034725D01*
X45770000Y-36076233D02*
X45770000Y-36368767D01*
X44750000Y-36076233D02*
X44750000Y-36368767D01*
X50540000Y-58940000D02*
X49210000Y-58940000D01*
X50540000Y-57610000D02*
X50540000Y-58940000D01*
X50540000Y-56340000D02*
X50540000Y-53740000D01*
X50540000Y-56340000D02*
X47880000Y-56340000D01*
X50540000Y-53740000D02*
X47880000Y-53740000D01*
X47880000Y-56340000D02*
X47880000Y-53740000D01*
X11020000Y-19325000D02*
X12920000Y-19325000D01*
X11020000Y-33565000D02*
X11020000Y-19325000D01*
X12920000Y-19325000D02*
X19160000Y-19325000D01*
X19160000Y-19325000D02*
X19460000Y-19325000D01*
X19460000Y-19325000D02*
X19460000Y-33565000D01*
X19460000Y-33565000D02*
X11020000Y-33565000D01*
X40271000Y-69950000D02*
G75*
G03*
X40271000Y-69950000I-1251000J0D01*
G01*
X40792500Y-84145276D02*
X40792500Y-84654724D01*
X39747500Y-84145276D02*
X39747500Y-84654724D01*
X39445000Y-100105000D02*
X35995000Y-100105000D01*
X39445000Y-100105000D02*
X41395000Y-100105000D01*
X39445000Y-110225000D02*
X37495000Y-110225000D01*
X39445000Y-110225000D02*
X41395000Y-110225000D01*
X48404000Y-63515000D02*
X48560000Y-63515000D01*
X50720000Y-63515000D02*
X50876000Y-63515000D01*
X48561392Y-60282666D02*
G75*
G03*
X48404485Y-63514999I1078608J-1672334D01*
G01*
X48560164Y-60913871D02*
G75*
G03*
X48560001Y-62995960I1079836J-1041129D01*
G01*
X50719999Y-62995960D02*
G75*
G03*
X50719836Y-60913871I-1079999J1040960D01*
G01*
X50875515Y-63514999D02*
G75*
G03*
X50718608Y-60282666I-1235515J1559999D01*
G01*
X18890000Y-95490000D02*
X20220000Y-95490000D01*
X18890000Y-96820000D02*
X18890000Y-95490000D01*
X18890000Y-98090000D02*
X18890000Y-103230000D01*
X18890000Y-98090000D02*
X21550000Y-98090000D01*
X18890000Y-103230000D02*
X21550000Y-103230000D01*
X21550000Y-98090000D02*
X21550000Y-103230000D01*
X18361974Y-85513725D02*
X18744996Y-85835119D01*
X18714182Y-85482911D02*
X18392788Y-85865933D01*
X21220837Y-86470121D02*
X17904053Y-90422910D01*
X21251478Y-86495832D02*
X17934694Y-90448622D01*
X21281477Y-86522310D02*
X17965979Y-90473567D01*
X21311476Y-86548787D02*
X17997263Y-90498513D01*
X21340833Y-86576031D02*
X18029191Y-90522692D01*
X21369546Y-86604041D02*
X18061761Y-90546105D01*
X21397617Y-86632816D02*
X20414794Y-87804098D01*
X19077796Y-89397471D02*
X18094974Y-90568753D01*
X21425687Y-86661592D02*
X20445436Y-87829810D01*
X19108438Y-89423182D02*
X18128187Y-90591400D01*
X21453758Y-86690368D02*
X20476078Y-87855521D01*
X19139080Y-89448894D02*
X18161400Y-90614047D01*
X21481186Y-86719909D02*
X20506720Y-87881233D01*
X19169721Y-89474605D02*
X18195255Y-90635929D01*
X21507971Y-86750217D02*
X20537361Y-87906944D01*
X19200363Y-89500317D02*
X18229754Y-90657044D01*
X21534113Y-86781291D02*
X20568003Y-87932656D01*
X19231005Y-89526028D02*
X18264895Y-90677393D01*
X21560255Y-86812365D02*
X20598645Y-87958367D01*
X19261647Y-89551740D02*
X18300037Y-90697742D01*
X21585755Y-86844205D02*
X20629287Y-87984079D01*
X19292289Y-89577451D02*
X18335821Y-90717325D01*
X21611254Y-86876045D02*
X20659929Y-88009790D01*
X19322930Y-89603163D02*
X18371605Y-90736909D01*
X21636111Y-86908650D02*
X20690570Y-88035502D01*
X19353572Y-89628874D02*
X18408032Y-90755726D01*
X21660325Y-86942022D02*
X20721212Y-88061213D01*
X19384214Y-89654586D02*
X18445101Y-90773777D01*
X21684539Y-86975394D02*
X20751854Y-88086925D01*
X19414856Y-89680297D02*
X18482171Y-90791828D01*
X21708876Y-87010175D02*
X20783262Y-88113279D01*
X19446263Y-89706652D02*
X18520649Y-90809756D01*
X21731804Y-87045079D02*
X20813903Y-88138991D01*
X19476905Y-89732363D02*
X18559005Y-90826275D01*
X21754090Y-87080749D02*
X20844545Y-88164702D01*
X19507547Y-89758075D02*
X18598003Y-90842027D01*
X21776375Y-87116419D02*
X20875187Y-88190414D01*
X19538189Y-89783786D02*
X18637001Y-90857780D01*
X21798018Y-87152855D02*
X20905829Y-88216125D01*
X19568831Y-89809498D02*
X18676641Y-90872767D01*
X21819661Y-87189292D02*
X20936471Y-88241837D01*
X19599472Y-89835209D02*
X18716282Y-90887754D01*
X21840018Y-87227260D02*
X20967112Y-88267548D01*
X19630114Y-89860921D02*
X18757209Y-90901209D01*
X21860375Y-87265228D02*
X20997754Y-88293260D01*
X19660756Y-89886632D02*
X18798135Y-90914664D01*
X21880090Y-87303962D02*
X21028396Y-88318971D01*
X19691398Y-89912344D02*
X18839704Y-90927353D01*
X21899804Y-87342697D02*
X21059038Y-88344683D01*
X19722039Y-89938055D02*
X18881273Y-90940041D01*
X21918233Y-87382963D02*
X21089679Y-88370394D01*
X19752681Y-89963767D02*
X18924128Y-90951198D01*
X21936662Y-87423229D02*
X21120321Y-88396106D01*
X19783323Y-89989478D02*
X18966983Y-90962355D01*
X21954448Y-87464262D02*
X21150963Y-88421817D01*
X19813965Y-90015190D02*
X19010480Y-90972745D01*
X21970948Y-87506826D02*
X21181605Y-88447529D01*
X19844607Y-90040901D02*
X19055263Y-90981604D01*
X21988091Y-87548625D02*
X21212247Y-88473240D01*
X19875248Y-90066613D02*
X19099404Y-90991228D01*
X22003949Y-87591955D02*
X21242888Y-88498952D01*
X19905890Y-90092324D02*
X19144830Y-90999321D01*
X22019164Y-87636052D02*
X21273530Y-88524663D01*
X19936532Y-90118036D02*
X19190898Y-91006647D01*
X22033736Y-87680914D02*
X21304172Y-88550375D01*
X19967174Y-90143747D02*
X19237610Y-91013208D01*
X22047665Y-87726543D02*
X21334814Y-88576086D01*
X19997815Y-90169459D02*
X19284964Y-91019002D01*
X22060952Y-87772938D02*
X21365455Y-88601798D01*
X20028457Y-90195170D02*
X19332961Y-91024030D01*
X22074238Y-87819332D02*
X21396097Y-88627509D01*
X20059099Y-90220882D02*
X19380958Y-91029059D01*
X22085596Y-87868025D02*
X21426739Y-88653221D01*
X20089741Y-90246593D02*
X19430884Y-91031789D01*
X22096954Y-87916718D02*
X21457381Y-88678932D01*
X20120383Y-90272305D02*
X19480809Y-91034519D01*
X22107670Y-87966177D02*
X21488023Y-88704644D01*
X20151024Y-90298016D02*
X19531377Y-91036483D01*
X22117100Y-88017168D02*
X21518664Y-88730355D01*
X20181666Y-90323728D02*
X19583231Y-91036915D01*
X22125887Y-88068925D02*
X21549306Y-88756067D01*
X20212308Y-90349439D02*
X19635727Y-91036581D01*
X22133388Y-88122214D02*
X21579948Y-88781778D01*
X20242950Y-90375151D02*
X19689510Y-91034715D01*
X22140247Y-88176269D02*
X21610590Y-88807490D01*
X20273591Y-90400862D02*
X19743934Y-91032083D01*
X22146463Y-88231090D02*
X21641231Y-88833201D01*
X20304233Y-90426574D02*
X19799002Y-91028685D01*
X22150750Y-88288210D02*
X21671873Y-88858913D01*
X20334875Y-90452285D02*
X19855998Y-91022988D01*
X22154395Y-88346095D02*
X21702515Y-88884624D01*
X20365517Y-90477997D02*
X19913637Y-91016526D01*
X22156754Y-88405513D02*
X21733157Y-88910336D01*
X20396159Y-90503708D02*
X19972562Y-91008532D01*
X22157827Y-88466462D02*
X21763799Y-88936047D01*
X20426800Y-90529420D02*
X20032772Y-90999005D01*
X22157615Y-88528944D02*
X21794440Y-88961759D01*
X20457442Y-90555131D02*
X20094267Y-90987946D01*
X22155475Y-88593723D02*
X21825082Y-88987470D01*
X20488084Y-90580843D02*
X20157691Y-90974590D01*
X22151406Y-88660801D02*
X21855724Y-89013182D01*
X20518726Y-90606554D02*
X20223043Y-90958935D01*
X22145409Y-88730177D02*
X21886366Y-89038893D01*
X20549367Y-90632266D02*
X20290324Y-90940982D01*
X22137484Y-88801852D02*
X21917007Y-89064605D01*
X20580009Y-90657977D02*
X20359533Y-90920731D01*
X22126987Y-88876590D02*
X21947649Y-89090316D01*
X20610651Y-90683689D02*
X20431313Y-90897415D01*
X22113919Y-88954392D02*
X21978291Y-89116028D01*
X20641293Y-90709400D02*
X20505665Y-90871036D01*
X22097638Y-89036025D02*
X20583230Y-90840826D01*
X22076856Y-89123020D02*
X20665295Y-90805254D01*
X22051576Y-89215378D02*
X20751859Y-90764319D01*
X22020510Y-89314629D02*
X20844208Y-90716491D01*
X21980445Y-89424606D02*
X20945557Y-90657937D01*
X21928810Y-89548371D02*
X21058475Y-90585595D01*
X21857248Y-89695884D02*
X21191320Y-90489506D01*
X21737478Y-89900849D02*
X21372374Y-90335963D01*
X22182444Y-88446516D02*
G75*
G03*
X22182444Y-88446516I-2619999J0D01*
G01*
X10830000Y-118700000D02*
X10830000Y-104000000D01*
X20030000Y-118700000D02*
X10830000Y-118700000D01*
X20030000Y-110400000D02*
X20030000Y-118700000D01*
X10630000Y-104850000D02*
X10630000Y-103800000D01*
X10830000Y-104000000D02*
X13130000Y-104000000D01*
X17930000Y-104000000D02*
X20030000Y-104000000D01*
X20030000Y-104000000D02*
X20030000Y-105400000D01*
X11680000Y-103800000D02*
X10630000Y-103800000D01*
X27141000Y-56330000D02*
G75*
G03*
X27141000Y-56330000I-1251000J0D01*
G01*
X49486233Y-29240000D02*
X49778767Y-29240000D01*
X49486233Y-30260000D02*
X49778767Y-30260000D01*
X14300000Y-86099038D02*
X14050000Y-85666025D01*
X13958494Y-86007531D02*
X14391506Y-85757531D01*
X11940654Y-84222531D02*
X16409346Y-81642531D01*
X11920654Y-84187890D02*
X16389346Y-81607890D01*
X11901520Y-84152749D02*
X16368480Y-81573749D01*
X11882387Y-84117608D02*
X16347613Y-81539608D01*
X11864119Y-84081967D02*
X16325881Y-81505967D01*
X11846717Y-84045826D02*
X16303283Y-81472826D01*
X11830181Y-84009185D02*
X13154334Y-83244685D01*
X14955666Y-82204685D02*
X16279819Y-81440185D01*
X11813645Y-83972544D02*
X13134334Y-83210044D01*
X14935666Y-82170044D02*
X16256355Y-81407544D01*
X11797109Y-83935903D02*
X13114334Y-83175403D01*
X14915666Y-82135403D02*
X16232891Y-81374903D01*
X11781439Y-83898762D02*
X13094334Y-83140762D01*
X14895666Y-82100762D02*
X16208561Y-81342762D01*
X11766635Y-83861121D02*
X13074334Y-83106121D01*
X14875666Y-82066121D02*
X16183365Y-81311121D01*
X11752697Y-83822980D02*
X13054334Y-83071480D01*
X14855666Y-82031480D02*
X16157303Y-81279980D01*
X11738760Y-83784839D02*
X13034334Y-83036839D01*
X14835666Y-81996839D02*
X16131240Y-81248839D01*
X11725688Y-83746198D02*
X13014334Y-83002198D01*
X14815666Y-81962198D02*
X16104312Y-81218198D01*
X11712616Y-83707557D02*
X12994334Y-82967557D01*
X14795666Y-81927557D02*
X16077384Y-81187557D01*
X11700410Y-83668416D02*
X12974334Y-82932916D01*
X14775666Y-81892916D02*
X16049590Y-81157416D01*
X11689070Y-83628775D02*
X12954334Y-82898275D01*
X14755666Y-81858275D02*
X16020930Y-81127775D01*
X11677731Y-83589134D02*
X12934334Y-82863634D01*
X14735666Y-81823634D02*
X15992269Y-81098134D01*
X11666757Y-83548127D02*
X12913834Y-82828127D01*
X14715166Y-81788127D02*
X15962243Y-81068127D01*
X11657149Y-83507486D02*
X12893834Y-82793486D01*
X14695166Y-81753486D02*
X15931851Y-81039486D01*
X11648408Y-83466345D02*
X12873834Y-82758845D01*
X14675166Y-81718845D02*
X15900592Y-81011345D01*
X11639666Y-83425204D02*
X12853834Y-82724204D01*
X14655166Y-81684204D02*
X15869334Y-80983204D01*
X11631790Y-83383563D02*
X12833834Y-82689563D01*
X14635166Y-81649563D02*
X15837210Y-80955563D01*
X11623915Y-83341922D02*
X12813834Y-82654922D01*
X14615166Y-81614922D02*
X15805085Y-80927922D01*
X11617771Y-83299281D02*
X12793834Y-82620281D01*
X14595166Y-81580281D02*
X15771229Y-80901281D01*
X11611627Y-83256640D02*
X12773834Y-82585640D01*
X14575166Y-81545640D02*
X15737373Y-80874640D01*
X11606350Y-83213499D02*
X12753834Y-82550999D01*
X14555166Y-81510999D02*
X15702650Y-80848499D01*
X11601072Y-83170358D02*
X12733834Y-82516358D01*
X14535166Y-81476358D02*
X15667928Y-80822358D01*
X11597527Y-83126217D02*
X12713834Y-82481717D01*
X14515166Y-81441717D02*
X15631473Y-80797217D01*
X11593981Y-83082076D02*
X12693834Y-82447076D01*
X14495166Y-81407076D02*
X15595019Y-80772076D01*
X11591302Y-83037435D02*
X12673834Y-82412435D01*
X14475166Y-81372435D02*
X15557698Y-80747435D01*
X11590354Y-82991794D02*
X12653834Y-82377794D01*
X14455166Y-81337794D02*
X15518646Y-80723794D01*
X11588541Y-82946653D02*
X12633834Y-82343153D01*
X14435166Y-81303153D02*
X15480459Y-80699653D01*
X11588460Y-82900512D02*
X12613834Y-82308512D01*
X14415166Y-81268512D02*
X15440540Y-80676512D01*
X11589244Y-82853871D02*
X12593834Y-82273871D01*
X14395166Y-81233871D02*
X15399756Y-80653871D01*
X11590895Y-82806730D02*
X12573834Y-82239230D01*
X14375166Y-81199230D02*
X15358105Y-80631730D01*
X11593411Y-82759089D02*
X12553834Y-82204589D01*
X14355166Y-81164589D02*
X15315589Y-80610089D01*
X11596794Y-82710948D02*
X12533834Y-82169948D01*
X14335166Y-81129948D02*
X15272206Y-80588948D01*
X11600177Y-82662807D02*
X12513834Y-82135307D01*
X14315166Y-81095307D02*
X15228823Y-80567807D01*
X11606158Y-82613166D02*
X12493834Y-82100666D01*
X14295166Y-81060666D02*
X15182842Y-80548166D01*
X11612138Y-82563525D02*
X12473834Y-82066025D01*
X14275166Y-81026025D02*
X15136862Y-80528525D01*
X11618985Y-82513384D02*
X12453834Y-82031384D01*
X14255166Y-80991384D02*
X15090015Y-80509384D01*
X11627564Y-82462243D02*
X12433834Y-81996743D01*
X14235166Y-80956743D02*
X15041436Y-80491243D01*
X11637009Y-82410602D02*
X12413834Y-81962102D01*
X14215166Y-80922102D02*
X14991991Y-80473602D01*
X11648186Y-82357961D02*
X12393834Y-81927461D01*
X14195166Y-80887461D02*
X14940814Y-80456961D01*
X11660229Y-82304819D02*
X12373834Y-81892819D01*
X14175166Y-80852819D02*
X14888771Y-80440819D01*
X11673138Y-82251178D02*
X12353834Y-81858178D01*
X14155166Y-80818178D02*
X14835862Y-80425178D01*
X11688645Y-82196037D02*
X12333834Y-81823537D01*
X14135166Y-80783537D02*
X14780355Y-80411037D01*
X11705018Y-82140396D02*
X12313834Y-81788896D01*
X14115166Y-80748896D02*
X14723982Y-80397396D01*
X11723123Y-82083755D02*
X12293834Y-81754255D01*
X14095166Y-80714255D02*
X14665877Y-80384755D01*
X11742960Y-82026114D02*
X12273834Y-81719614D01*
X14075166Y-80679614D02*
X14606040Y-80373114D01*
X11764529Y-81967473D02*
X12253834Y-81684973D01*
X14055166Y-80644973D02*
X14544471Y-80362473D01*
X11788697Y-81907332D02*
X12233834Y-81650332D01*
X14035166Y-80610332D02*
X14480303Y-80353332D01*
X11815462Y-81845691D02*
X12213834Y-81615691D01*
X14015166Y-80575691D02*
X14413538Y-80345691D01*
X11844825Y-81782550D02*
X12193834Y-81581050D01*
X13995166Y-80541050D02*
X14344175Y-80339550D01*
X11876787Y-81717909D02*
X12173834Y-81546409D01*
X13975166Y-80506409D02*
X14272213Y-80334909D01*
X11912212Y-81651268D02*
X12153834Y-81511768D01*
X13955166Y-80471768D02*
X14196788Y-80332268D01*
X11951102Y-81582627D02*
X12133834Y-81477127D01*
X13935166Y-80437127D02*
X14117898Y-80331627D01*
X11994322Y-81511486D02*
X14034678Y-80333486D01*
X12043604Y-81436845D02*
X13945396Y-80338845D01*
X12098948Y-81358704D02*
X13850052Y-80347704D01*
X12162087Y-81276063D02*
X13746913Y-80361063D01*
X12237350Y-81186422D02*
X13631650Y-80381422D01*
X12328201Y-81087781D02*
X13500799Y-80410781D01*
X12445899Y-80973640D02*
X13343101Y-80455640D01*
X12628549Y-80821999D02*
X13120451Y-80537999D01*
X16795000Y-82932531D02*
G75*
G03*
X16795000Y-82932531I-2620000J0D01*
G01*
X49082778Y-97352501D02*
X49592226Y-97352501D01*
X49082778Y-98397501D02*
X49592226Y-98397501D01*
X32807500Y-28634724D02*
X32807500Y-28125276D01*
X33852500Y-28634724D02*
X33852500Y-28125276D01*
X27320001Y-74181232D02*
X27320001Y-74473766D01*
X26300001Y-74181232D02*
X26300001Y-74473766D01*
X50150001Y-40418768D02*
X50150001Y-40126234D01*
X51170001Y-40418768D02*
X51170001Y-40126234D01*
X21065000Y-49974775D02*
X21065000Y-49474775D01*
X20815000Y-49724775D02*
X21315000Y-49724775D01*
X19960000Y-47170000D02*
X25120000Y-47170000D01*
X19960000Y-47130000D02*
X25120000Y-47130000D01*
X19961000Y-47090000D02*
X25119000Y-47090000D01*
X19962000Y-47050000D02*
X25118000Y-47050000D01*
X19964000Y-47010000D02*
X25116000Y-47010000D01*
X19967000Y-46970000D02*
X25113000Y-46970000D01*
X19971000Y-46930000D02*
X21500000Y-46930000D01*
X23580000Y-46930000D02*
X25109000Y-46930000D01*
X19975000Y-46890000D02*
X21500000Y-46890000D01*
X23580000Y-46890000D02*
X25105000Y-46890000D01*
X19979000Y-46850000D02*
X21500000Y-46850000D01*
X23580000Y-46850000D02*
X25101000Y-46850000D01*
X19984000Y-46810000D02*
X21500000Y-46810000D01*
X23580000Y-46810000D02*
X25096000Y-46810000D01*
X19990000Y-46770000D02*
X21500000Y-46770000D01*
X23580000Y-46770000D02*
X25090000Y-46770000D01*
X19997000Y-46730000D02*
X21500000Y-46730000D01*
X23580000Y-46730000D02*
X25083000Y-46730000D01*
X20004000Y-46690000D02*
X21500000Y-46690000D01*
X23580000Y-46690000D02*
X25076000Y-46690000D01*
X20012000Y-46650000D02*
X21500000Y-46650000D01*
X23580000Y-46650000D02*
X25068000Y-46650000D01*
X20020000Y-46610000D02*
X21500000Y-46610000D01*
X23580000Y-46610000D02*
X25060000Y-46610000D01*
X20029000Y-46570000D02*
X21500000Y-46570000D01*
X23580000Y-46570000D02*
X25051000Y-46570000D01*
X20039000Y-46530000D02*
X21500000Y-46530000D01*
X23580000Y-46530000D02*
X25041000Y-46530000D01*
X20049000Y-46490000D02*
X21500000Y-46490000D01*
X23580000Y-46490000D02*
X25031000Y-46490000D01*
X20060000Y-46449000D02*
X21500000Y-46449000D01*
X23580000Y-46449000D02*
X25020000Y-46449000D01*
X20072000Y-46409000D02*
X21500000Y-46409000D01*
X23580000Y-46409000D02*
X25008000Y-46409000D01*
X20085000Y-46369000D02*
X21500000Y-46369000D01*
X23580000Y-46369000D02*
X24995000Y-46369000D01*
X20098000Y-46329000D02*
X21500000Y-46329000D01*
X23580000Y-46329000D02*
X24982000Y-46329000D01*
X20112000Y-46289000D02*
X21500000Y-46289000D01*
X23580000Y-46289000D02*
X24968000Y-46289000D01*
X20126000Y-46249000D02*
X21500000Y-46249000D01*
X23580000Y-46249000D02*
X24954000Y-46249000D01*
X20142000Y-46209000D02*
X21500000Y-46209000D01*
X23580000Y-46209000D02*
X24938000Y-46209000D01*
X20158000Y-46169000D02*
X21500000Y-46169000D01*
X23580000Y-46169000D02*
X24922000Y-46169000D01*
X20175000Y-46129000D02*
X21500000Y-46129000D01*
X23580000Y-46129000D02*
X24905000Y-46129000D01*
X20192000Y-46089000D02*
X21500000Y-46089000D01*
X23580000Y-46089000D02*
X24888000Y-46089000D01*
X20211000Y-46049000D02*
X21500000Y-46049000D01*
X23580000Y-46049000D02*
X24869000Y-46049000D01*
X20230000Y-46009000D02*
X21500000Y-46009000D01*
X23580000Y-46009000D02*
X24850000Y-46009000D01*
X20250000Y-45969000D02*
X21500000Y-45969000D01*
X23580000Y-45969000D02*
X24830000Y-45969000D01*
X20272000Y-45929000D02*
X21500000Y-45929000D01*
X23580000Y-45929000D02*
X24808000Y-45929000D01*
X20293000Y-45889000D02*
X21500000Y-45889000D01*
X23580000Y-45889000D02*
X24787000Y-45889000D01*
X20316000Y-45849000D02*
X21500000Y-45849000D01*
X23580000Y-45849000D02*
X24764000Y-45849000D01*
X20340000Y-45809000D02*
X21500000Y-45809000D01*
X23580000Y-45809000D02*
X24740000Y-45809000D01*
X20365000Y-45769000D02*
X21500000Y-45769000D01*
X23580000Y-45769000D02*
X24715000Y-45769000D01*
X20391000Y-45729000D02*
X21500000Y-45729000D01*
X23580000Y-45729000D02*
X24689000Y-45729000D01*
X20418000Y-45689000D02*
X21500000Y-45689000D01*
X23580000Y-45689000D02*
X24662000Y-45689000D01*
X20445000Y-45649000D02*
X21500000Y-45649000D01*
X23580000Y-45649000D02*
X24635000Y-45649000D01*
X20475000Y-45609000D02*
X21500000Y-45609000D01*
X23580000Y-45609000D02*
X24605000Y-45609000D01*
X20505000Y-45569000D02*
X21500000Y-45569000D01*
X23580000Y-45569000D02*
X24575000Y-45569000D01*
X20536000Y-45529000D02*
X21500000Y-45529000D01*
X23580000Y-45529000D02*
X24544000Y-45529000D01*
X20569000Y-45489000D02*
X21500000Y-45489000D01*
X23580000Y-45489000D02*
X24511000Y-45489000D01*
X20603000Y-45449000D02*
X21500000Y-45449000D01*
X23580000Y-45449000D02*
X24477000Y-45449000D01*
X20639000Y-45409000D02*
X21500000Y-45409000D01*
X23580000Y-45409000D02*
X24441000Y-45409000D01*
X20676000Y-45369000D02*
X21500000Y-45369000D01*
X23580000Y-45369000D02*
X24404000Y-45369000D01*
X20714000Y-45329000D02*
X21500000Y-45329000D01*
X23580000Y-45329000D02*
X24366000Y-45329000D01*
X20755000Y-45289000D02*
X21500000Y-45289000D01*
X23580000Y-45289000D02*
X24325000Y-45289000D01*
X20797000Y-45249000D02*
X21500000Y-45249000D01*
X23580000Y-45249000D02*
X24283000Y-45249000D01*
X20841000Y-45209000D02*
X21500000Y-45209000D01*
X23580000Y-45209000D02*
X24239000Y-45209000D01*
X20887000Y-45169000D02*
X21500000Y-45169000D01*
X23580000Y-45169000D02*
X24193000Y-45169000D01*
X20935000Y-45129000D02*
X21500000Y-45129000D01*
X23580000Y-45129000D02*
X24145000Y-45129000D01*
X20986000Y-45089000D02*
X21500000Y-45089000D01*
X23580000Y-45089000D02*
X24094000Y-45089000D01*
X21040000Y-45049000D02*
X21500000Y-45049000D01*
X23580000Y-45049000D02*
X24040000Y-45049000D01*
X21097000Y-45009000D02*
X21500000Y-45009000D01*
X23580000Y-45009000D02*
X23983000Y-45009000D01*
X21157000Y-44969000D02*
X21500000Y-44969000D01*
X23580000Y-44969000D02*
X23923000Y-44969000D01*
X21221000Y-44929000D02*
X21500000Y-44929000D01*
X23580000Y-44929000D02*
X23859000Y-44929000D01*
X21289000Y-44889000D02*
X21500000Y-44889000D01*
X23580000Y-44889000D02*
X23791000Y-44889000D01*
X21362000Y-44849000D02*
X23718000Y-44849000D01*
X21442000Y-44809000D02*
X23638000Y-44809000D01*
X21529000Y-44769000D02*
X23551000Y-44769000D01*
X21625000Y-44729000D02*
X23455000Y-44729000D01*
X21735000Y-44689000D02*
X23345000Y-44689000D01*
X21863000Y-44649000D02*
X23217000Y-44649000D01*
X22022000Y-44609000D02*
X23058000Y-44609000D01*
X22256000Y-44569000D02*
X22824000Y-44569000D01*
X25160000Y-47170000D02*
G75*
G03*
X25160000Y-47170000I-2620000J0D01*
G01*
X14710000Y-58540000D02*
X14710000Y-59040000D01*
X14960000Y-58790000D02*
X14460000Y-58790000D01*
X14345563Y-59280000D02*
X14210000Y-59280000D01*
X14345563Y-59280000D02*
X15410000Y-60344437D01*
X11954437Y-59280000D02*
X12090000Y-59280000D01*
X11954437Y-59280000D02*
X10890000Y-60344437D01*
X15410000Y-60344437D02*
X15410000Y-63800000D01*
X10890000Y-60344437D02*
X10890000Y-63800000D01*
X15410000Y-63800000D02*
X14210000Y-63800000D01*
X10890000Y-63800000D02*
X12090000Y-63800000D01*
X21517499Y-67072775D02*
X21517499Y-67582223D01*
X20472499Y-67072775D02*
X20472499Y-67582223D01*
X20685276Y-63517500D02*
X21194724Y-63517500D01*
X20685276Y-64562500D02*
X21194724Y-64562500D01*
X50730000Y-72440000D02*
X44270000Y-72440000D01*
X50730000Y-72410000D02*
X50730000Y-72440000D01*
X50730000Y-70510000D02*
X50730000Y-67910000D01*
X50730000Y-65980000D02*
X50730000Y-66010000D01*
X50730000Y-65980000D02*
X44270000Y-65980000D01*
X44270000Y-72440000D02*
X44270000Y-72410000D01*
X44270000Y-70510000D02*
X44270000Y-67910000D01*
X44270000Y-65980000D02*
X44270000Y-66010000D01*
X16662498Y-78050278D02*
X16662498Y-78559726D01*
X15617498Y-78050278D02*
X15617498Y-78559726D01*
X38179999Y-93598768D02*
X38179999Y-93306234D01*
X39199999Y-93598768D02*
X39199999Y-93306234D01*
X44755000Y-91380000D02*
X44755000Y-87930000D01*
X44755000Y-91380000D02*
X44755000Y-93330000D01*
X39635000Y-91380000D02*
X39635000Y-89430000D01*
X39635000Y-91380000D02*
X39635000Y-93330000D01*
X14200000Y-65600000D02*
X15530000Y-65600000D01*
X14200000Y-66930000D02*
X14200000Y-65600000D01*
X14200000Y-68200000D02*
X14200000Y-73340000D01*
X14200000Y-68200000D02*
X16800000Y-68200000D01*
X14200000Y-73340000D02*
X19400000Y-73340000D01*
X16800000Y-65600000D02*
X19400000Y-65600000D01*
X16800000Y-68200000D02*
X16800000Y-65600000D01*
X19400000Y-65600000D02*
X19400000Y-73340000D01*
X32969999Y-113492000D02*
X33419999Y-113492000D01*
X32969999Y-115342000D02*
X32969999Y-113492000D01*
X32969999Y-117892000D02*
X32969999Y-117642000D01*
X35169999Y-112942000D02*
X35169999Y-113392000D01*
X35169999Y-112942000D02*
X35619999Y-112942000D01*
X40769999Y-113492000D02*
X40319999Y-113492000D01*
X40769999Y-115342000D02*
X40769999Y-113492000D01*
X40769999Y-117892000D02*
X40769999Y-117642000D01*
X43272225Y-84022501D02*
X42762777Y-84022501D01*
X43272225Y-82977501D02*
X42762777Y-82977501D01*
X23280000Y-19360000D02*
X25180000Y-19360000D01*
X23280000Y-33600000D02*
X23280000Y-19360000D01*
X25180000Y-19360000D02*
X31420000Y-19360000D01*
X31420000Y-19360000D02*
X31720000Y-19360000D01*
X31720000Y-19360000D02*
X31720000Y-33600000D01*
X31720000Y-33600000D02*
X23280000Y-33600000D01*
X16710003Y-45789999D02*
X15380003Y-45789999D01*
X16710003Y-44459999D02*
X16710003Y-45789999D01*
X16710003Y-43189999D02*
X16710003Y-38049999D01*
X16710003Y-43189999D02*
X14050003Y-43189999D01*
X16710003Y-38049999D02*
X14050003Y-38049999D01*
X14050003Y-43189999D02*
X14050003Y-38049999D01*
X39742500Y-75935276D02*
X39742500Y-76444724D01*
X38697500Y-75935276D02*
X38697500Y-76444724D01*
X23300000Y-89050000D02*
X23300000Y-87720000D01*
X24630000Y-89050000D02*
X23300000Y-89050000D01*
X25900000Y-89050000D02*
X31040000Y-89050000D01*
X25900000Y-89050000D02*
X25900000Y-86390000D01*
X31040000Y-89050000D02*
X31040000Y-86390000D01*
X25900000Y-86390000D02*
X31040000Y-86390000D01*
X24732777Y-66107501D02*
X25242225Y-66107501D01*
X24732777Y-67152501D02*
X25242225Y-67152501D01*
X11259998Y-102106251D02*
X11259998Y-101583747D01*
X12679998Y-102106251D02*
X12679998Y-101583747D01*
X21575000Y-61270000D02*
X20245000Y-61270000D01*
X21575000Y-59940000D02*
X21575000Y-61270000D01*
X21575000Y-58670000D02*
X21575000Y-50990000D01*
X21575000Y-58670000D02*
X18975000Y-58670000D01*
X21575000Y-50990000D02*
X16375000Y-50990000D01*
X18975000Y-61270000D02*
X16375000Y-61270000D01*
X18975000Y-58670000D02*
X18975000Y-61270000D01*
X16375000Y-61270000D02*
X16375000Y-50990000D01*
X16810000Y-99800000D02*
X15480000Y-99800000D01*
X16810000Y-98470000D02*
X16810000Y-99800000D01*
X16810000Y-97200000D02*
X16810000Y-92060000D01*
X16810000Y-97200000D02*
X14150000Y-97200000D01*
X16810000Y-92060000D02*
X14150000Y-92060000D01*
X14150000Y-97200000D02*
X14150000Y-92060000D01*
X50460000Y-95266233D02*
X50460000Y-95558767D01*
X49440000Y-95266233D02*
X49440000Y-95558767D01*
X13415276Y-78710003D02*
X13924724Y-78710003D01*
X13415276Y-79755003D02*
X13924724Y-79755003D01*
X26862500Y-48515276D02*
X26862500Y-49024724D01*
X25817500Y-48515276D02*
X25817500Y-49024724D01*
X38180000Y-78113733D02*
X38180000Y-78406267D01*
X37160000Y-78113733D02*
X37160000Y-78406267D01*
X34741000Y-66600000D02*
G75*
G03*
X34741000Y-66600000I-1251000J0D01*
G01*
X15202776Y-90167500D02*
X15712224Y-90167500D01*
X15202776Y-91212500D02*
X15712224Y-91212500D01*
X25222220Y-68742498D02*
X24712772Y-68742498D01*
X25222220Y-67697498D02*
X24712772Y-67697498D01*
X32480000Y-25097500D02*
X34180000Y-25097500D01*
X32480000Y-25097500D02*
X32480000Y-22437500D01*
X34180000Y-25097500D02*
X34180000Y-22437500D01*
X39221000Y-67030000D02*
G75*
G03*
X39221000Y-67030000I-1251000J0D01*
G01*
M02*
