G04 #@! TF.GenerationSoftware,KiCad,Pcbnew,7.0.9*
G04 #@! TF.CreationDate,2024-03-13T00:50:52-04:00*
G04 #@! TF.ProjectId,MEAP_Rev3b,4d454150-5f52-4657-9633-622e6b696361,rev?*
G04 #@! TF.SameCoordinates,Original*
G04 #@! TF.FileFunction,Copper,L2,Bot*
G04 #@! TF.FilePolarity,Positive*
%FSLAX46Y46*%
G04 Gerber Fmt 4.6, Leading zero omitted, Abs format (unit mm)*
G04 Created by KiCad (PCBNEW 7.0.9) date 2024-03-13 00:50:52*
%MOMM*%
%LPD*%
G01*
G04 APERTURE LIST*
G04 Aperture macros list*
%AMRoundRect*
0 Rectangle with rounded corners*
0 $1 Rounding radius*
0 $2 $3 $4 $5 $6 $7 $8 $9 X,Y pos of 4 corners*
0 Add a 4 corners polygon primitive as box body*
4,1,4,$2,$3,$4,$5,$6,$7,$8,$9,$2,$3,0*
0 Add four circle primitives for the rounded corners*
1,1,$1+$1,$2,$3*
1,1,$1+$1,$4,$5*
1,1,$1+$1,$6,$7*
1,1,$1+$1,$8,$9*
0 Add four rect primitives between the rounded corners*
20,1,$1+$1,$2,$3,$4,$5,0*
20,1,$1+$1,$4,$5,$6,$7,0*
20,1,$1+$1,$6,$7,$8,$9,0*
20,1,$1+$1,$8,$9,$2,$3,0*%
%AMRotRect*
0 Rectangle, with rotation*
0 The origin of the aperture is its center*
0 $1 length*
0 $2 width*
0 $3 Rotation angle, in degrees counterclockwise*
0 Add horizontal line*
21,1,$1,$2,0,0,$3*%
G04 Aperture macros list end*
G04 #@! TA.AperFunction,ComponentPad*
%ADD10R,1.600000X1.600000*%
G04 #@! TD*
G04 #@! TA.AperFunction,ComponentPad*
%ADD11O,1.600000X1.600000*%
G04 #@! TD*
G04 #@! TA.AperFunction,ComponentPad*
%ADD12C,2.000000*%
G04 #@! TD*
G04 #@! TA.AperFunction,ComponentPad*
%ADD13R,1.700000X1.700000*%
G04 #@! TD*
G04 #@! TA.AperFunction,ComponentPad*
%ADD14O,1.700000X1.700000*%
G04 #@! TD*
G04 #@! TA.AperFunction,ComponentPad*
%ADD15C,1.600000*%
G04 #@! TD*
G04 #@! TA.AperFunction,ComponentPad*
%ADD16O,2.800000X1.800000*%
G04 #@! TD*
G04 #@! TA.AperFunction,ComponentPad*
%ADD17R,1.450000X1.450000*%
G04 #@! TD*
G04 #@! TA.AperFunction,ComponentPad*
%ADD18C,1.450000*%
G04 #@! TD*
G04 #@! TA.AperFunction,ComponentPad*
%ADD19R,1.800000X1.800000*%
G04 #@! TD*
G04 #@! TA.AperFunction,ComponentPad*
%ADD20C,1.800000*%
G04 #@! TD*
G04 #@! TA.AperFunction,ComponentPad*
%ADD21RotRect,1.600000X1.600000X320.000000*%
G04 #@! TD*
G04 #@! TA.AperFunction,ComponentPad*
%ADD22R,4.000000X4.000000*%
G04 #@! TD*
G04 #@! TA.AperFunction,ComponentPad*
%ADD23RoundRect,1.000000X1.000000X-1.000000X1.000000X1.000000X-1.000000X1.000000X-1.000000X-1.000000X0*%
G04 #@! TD*
G04 #@! TA.AperFunction,ComponentPad*
%ADD24RotRect,1.600000X1.600000X120.000000*%
G04 #@! TD*
G04 #@! TA.AperFunction,ComponentPad*
%ADD25O,1.200000X1.900000*%
G04 #@! TD*
G04 #@! TA.AperFunction,SMDPad,CuDef*
%ADD26RoundRect,0.237500X-0.250000X-0.237500X0.250000X-0.237500X0.250000X0.237500X-0.250000X0.237500X0*%
G04 #@! TD*
G04 #@! TA.AperFunction,SMDPad,CuDef*
%ADD27RoundRect,0.237500X0.250000X0.237500X-0.250000X0.237500X-0.250000X-0.237500X0.250000X-0.237500X0*%
G04 #@! TD*
G04 #@! TA.AperFunction,SMDPad,CuDef*
%ADD28RoundRect,0.237500X0.237500X-0.250000X0.237500X0.250000X-0.237500X0.250000X-0.237500X-0.250000X0*%
G04 #@! TD*
G04 #@! TA.AperFunction,SMDPad,CuDef*
%ADD29RoundRect,0.250000X0.550000X-1.050000X0.550000X1.050000X-0.550000X1.050000X-0.550000X-1.050000X0*%
G04 #@! TD*
G04 #@! TA.AperFunction,SMDPad,CuDef*
%ADD30RoundRect,0.237500X-0.237500X0.250000X-0.237500X-0.250000X0.237500X-0.250000X0.237500X0.250000X0*%
G04 #@! TD*
G04 #@! TA.AperFunction,SMDPad,CuDef*
%ADD31RoundRect,0.250000X1.050000X0.550000X-1.050000X0.550000X-1.050000X-0.550000X1.050000X-0.550000X0*%
G04 #@! TD*
G04 #@! TA.AperFunction,SMDPad,CuDef*
%ADD32RoundRect,0.237500X-0.237500X0.300000X-0.237500X-0.300000X0.237500X-0.300000X0.237500X0.300000X0*%
G04 #@! TD*
G04 #@! TA.AperFunction,SMDPad,CuDef*
%ADD33RoundRect,0.237500X0.300000X0.237500X-0.300000X0.237500X-0.300000X-0.237500X0.300000X-0.237500X0*%
G04 #@! TD*
G04 #@! TA.AperFunction,SMDPad,CuDef*
%ADD34RoundRect,0.150000X0.825000X0.150000X-0.825000X0.150000X-0.825000X-0.150000X0.825000X-0.150000X0*%
G04 #@! TD*
G04 #@! TA.AperFunction,SMDPad,CuDef*
%ADD35RoundRect,0.237500X0.254201X0.285986X-0.336684X0.181797X-0.254201X-0.285986X0.336684X-0.181797X0*%
G04 #@! TD*
G04 #@! TA.AperFunction,ViaPad*
%ADD36C,1.600000*%
G04 #@! TD*
G04 #@! TA.AperFunction,ViaPad*
%ADD37C,0.800000*%
G04 #@! TD*
G04 #@! TA.AperFunction,Conductor*
%ADD38C,0.812800*%
G04 #@! TD*
G04 #@! TA.AperFunction,Conductor*
%ADD39C,0.406400*%
G04 #@! TD*
G04 APERTURE END LIST*
D10*
X23820000Y-91610000D03*
D11*
X23820000Y-94150000D03*
X23820000Y-96690000D03*
X23820000Y-99230000D03*
X23820000Y-101770000D03*
X23820000Y-104310000D03*
X23820000Y-106850000D03*
X23820000Y-109390000D03*
X31440000Y-109390000D03*
X31440000Y-106850000D03*
X31440000Y-104310000D03*
X31440000Y-101770000D03*
X31440000Y-99230000D03*
X31440000Y-96690000D03*
X31440000Y-94150000D03*
X31440000Y-91610000D03*
D10*
X18720000Y-39945000D03*
D11*
X18720000Y-42485000D03*
X26340000Y-42485000D03*
X26340000Y-39945000D03*
D12*
X17930000Y-48200000D03*
X50230000Y-44430000D03*
D13*
X47880000Y-101510000D03*
D14*
X50420000Y-101510000D03*
X47880000Y-104050000D03*
X50420000Y-104050000D03*
X47880000Y-106590000D03*
X50420000Y-106590000D03*
X47880000Y-109130000D03*
X50420000Y-109130000D03*
D12*
X50150000Y-47750000D03*
D10*
X30480000Y-78884888D03*
D15*
X30480000Y-81384888D03*
D12*
X25870000Y-59470000D03*
D16*
X41140000Y-28590000D03*
X39140000Y-26790000D03*
X39140000Y-20690000D03*
X41140000Y-23090000D03*
X39140000Y-32290000D03*
D13*
X50230000Y-91720000D03*
D14*
X50230000Y-89180000D03*
D12*
X25860000Y-53210000D03*
D17*
X35110000Y-90160000D03*
D18*
X35110000Y-87620000D03*
X35110000Y-85080000D03*
X35110000Y-82540000D03*
X35110000Y-80000000D03*
X35110000Y-77460000D03*
X35110000Y-74920000D03*
X35110000Y-72380000D03*
X35110000Y-69840000D03*
D13*
X50360000Y-77350000D03*
D14*
X50360000Y-79890000D03*
X50360000Y-82430000D03*
D13*
X49210000Y-57610000D03*
D14*
X49210000Y-55070000D03*
D16*
X17140000Y-28545000D03*
X15140000Y-26745000D03*
X15140000Y-20645000D03*
X17140000Y-23045000D03*
X15140000Y-32245000D03*
D12*
X39020000Y-69950000D03*
D19*
X49640000Y-63225000D03*
D20*
X49640000Y-60685000D03*
D13*
X20220000Y-96820000D03*
D14*
X20220000Y-99360000D03*
X20220000Y-101900000D03*
D21*
X18604889Y-87643031D03*
D15*
X20520000Y-89250000D03*
D22*
X15430000Y-104900000D03*
D23*
X15430000Y-110900000D03*
X20130000Y-107900000D03*
D12*
X25890000Y-56330000D03*
D24*
X14800000Y-84015063D03*
D15*
X13550000Y-81849999D03*
D10*
X22540000Y-48420000D03*
D15*
X22540000Y-45920000D03*
D13*
X15530000Y-66930000D03*
D14*
X15530000Y-69470000D03*
X15530000Y-72010000D03*
X18070000Y-66930000D03*
X18070000Y-69470000D03*
X18070000Y-72010000D03*
D25*
X33369999Y-116492000D03*
D18*
X34369999Y-113792000D03*
X39369999Y-113792000D03*
D25*
X40369999Y-116492000D03*
D16*
X29400000Y-28580000D03*
X27400000Y-26780000D03*
X27400000Y-20680000D03*
X29400000Y-23080000D03*
X27400000Y-32280000D03*
D13*
X15380003Y-44459999D03*
D14*
X15380003Y-41919999D03*
X15380003Y-39379999D03*
D13*
X24630000Y-87720000D03*
D14*
X27170000Y-87720000D03*
X29710000Y-87720000D03*
D13*
X20245000Y-59940000D03*
D14*
X17705000Y-59940000D03*
X20245000Y-57400000D03*
X17705000Y-57400000D03*
X20245000Y-54860000D03*
X17705000Y-54860000D03*
X20245000Y-52320000D03*
X17705000Y-52320000D03*
D13*
X15480000Y-98470000D03*
D14*
X15480000Y-95930000D03*
X15480000Y-93390000D03*
D12*
X33490000Y-66600000D03*
X37970000Y-67030000D03*
D26*
X46377500Y-34150000D03*
X48202500Y-34150000D03*
D27*
X43282500Y-52740000D03*
X41457500Y-52740000D03*
D28*
X41039996Y-81802502D03*
X41039996Y-79977502D03*
X36150000Y-32482500D03*
X36150000Y-30657500D03*
D29*
X19299999Y-35569997D03*
X19299999Y-31969997D03*
D26*
X27517500Y-96690000D03*
X29342500Y-96690000D03*
D30*
X44210000Y-58787500D03*
X44210000Y-60612500D03*
D31*
X17070000Y-76600000D03*
X13470000Y-76600000D03*
D32*
X24690000Y-82310000D03*
X24690000Y-84035000D03*
D33*
X48192500Y-31870000D03*
X46467500Y-31870000D03*
D30*
X36470000Y-26067500D03*
X36470000Y-27892500D03*
X46520000Y-66947500D03*
X46520000Y-68772500D03*
D26*
X27537500Y-99230000D03*
X29362500Y-99230000D03*
D19*
X21124999Y-93060001D03*
D20*
X18584999Y-93060001D03*
D28*
X43040000Y-81812500D03*
X43040000Y-79987500D03*
D26*
X27527500Y-94150000D03*
X29352500Y-94150000D03*
D28*
X51250000Y-58982500D03*
X51250000Y-57157500D03*
D26*
X27507500Y-101760000D03*
X29332500Y-101760000D03*
X27507500Y-109400000D03*
X29332500Y-109400000D03*
D29*
X21270002Y-27599999D03*
X21270002Y-23999999D03*
D27*
X43302500Y-54680000D03*
X41477500Y-54680000D03*
D34*
X41445000Y-100770000D03*
X41445000Y-102040000D03*
X41445000Y-103310000D03*
X41445000Y-104580000D03*
X41445000Y-105850000D03*
X41445000Y-107120000D03*
X41445000Y-108390000D03*
X41445000Y-109660000D03*
X36495000Y-109660000D03*
X36495000Y-108390000D03*
X36495000Y-107120000D03*
X36495000Y-105850000D03*
X36495000Y-104580000D03*
X36495000Y-103310000D03*
X36495000Y-102040000D03*
X36495000Y-100770000D03*
D30*
X51280000Y-53197500D03*
X51280000Y-55022500D03*
D35*
X40809397Y-97810228D03*
X39110603Y-98109772D03*
D33*
X24030000Y-67410000D03*
X22305000Y-67410000D03*
D26*
X27517500Y-104310000D03*
X29342500Y-104310000D03*
D29*
X22469998Y-77140001D03*
X22469998Y-73540001D03*
D30*
X39050000Y-79967500D03*
X39050000Y-81792500D03*
X48280000Y-27917500D03*
X48280000Y-29742500D03*
D26*
X27547500Y-91610000D03*
X29372500Y-91610000D03*
X27537500Y-106830000D03*
X29362500Y-106830000D03*
D36*
X12850000Y-88280000D03*
D37*
X43990000Y-77560000D03*
X46520000Y-30410000D03*
X37410000Y-93900000D03*
X37590000Y-90860000D03*
X46760000Y-70300000D03*
X39761765Y-78361765D03*
X20380000Y-79700000D03*
X12700000Y-74970000D03*
X20210000Y-69780000D03*
X50300000Y-56080000D03*
X51520000Y-64610000D03*
X47130000Y-94170000D03*
X40600000Y-99530000D03*
X47740000Y-81100000D03*
X36620000Y-23390000D03*
X37560000Y-86150000D03*
X37200000Y-87110000D03*
X46190000Y-63800000D03*
X31840000Y-49200000D03*
X36920000Y-62470000D03*
X26901644Y-79410000D03*
X36880000Y-72970000D03*
X18120000Y-63015014D03*
X17090000Y-74860000D03*
X44450000Y-47420000D03*
X44710000Y-48650000D03*
X30170000Y-48910000D03*
X30180000Y-50110000D03*
X30160000Y-52090000D03*
X29880000Y-53830000D03*
X30210000Y-60020000D03*
X25780000Y-62450000D03*
X25640000Y-108720000D03*
X26860000Y-62760000D03*
X26480000Y-107180000D03*
X30180000Y-58220000D03*
X22510000Y-57960000D03*
X39600000Y-62370000D03*
X47420000Y-62640000D03*
X41950000Y-47260000D03*
X42920000Y-48320000D03*
X44640000Y-54130000D03*
X44670000Y-52620000D03*
X30510000Y-74950000D03*
X34210000Y-62340000D03*
X30630000Y-76570000D03*
X35510000Y-62430000D03*
X34180000Y-108310000D03*
X28640000Y-75980000D03*
X31690000Y-62350000D03*
X34700000Y-107440000D03*
X48900000Y-65980000D03*
X43820000Y-108330000D03*
X34640000Y-106380000D03*
X33040000Y-62350000D03*
X29570000Y-76490000D03*
X45640000Y-99600000D03*
X40050000Y-81850000D03*
X37460000Y-74010000D03*
X49680000Y-33940000D03*
X46680000Y-35500000D03*
X49390000Y-28690000D03*
X51050000Y-33860000D03*
X45140000Y-33900000D03*
X50200000Y-35520000D03*
X49230000Y-39980000D03*
X22520000Y-71810000D03*
X16670000Y-80290000D03*
X25180000Y-65630000D03*
X20730000Y-73740000D03*
X22180000Y-79800000D03*
D38*
X23060000Y-85125785D02*
X21000052Y-86150052D01*
X12850000Y-88280000D02*
X18604889Y-87643031D01*
X28341786Y-85239152D02*
X23060000Y-85125785D01*
X35110000Y-85080000D02*
X28341786Y-85239152D01*
X21000052Y-86150052D02*
X18604889Y-87643031D01*
X31074573Y-112875427D02*
X31460000Y-115940000D01*
D39*
X12700000Y-74970000D02*
X13470000Y-76600000D01*
D38*
X31460000Y-115940000D02*
X33369999Y-116492000D01*
X41445000Y-108390000D02*
X41445000Y-107120000D01*
X31074573Y-112875427D02*
X30349810Y-112050190D01*
X25460000Y-110390000D02*
X23820000Y-109390000D01*
X15530000Y-72010000D02*
X13470000Y-76600000D01*
X25954737Y-110595263D02*
X25460000Y-110390000D01*
X41445000Y-109660000D02*
X41396487Y-111030000D01*
X22540000Y-45920000D02*
X26290000Y-42485000D01*
X26990000Y-110768020D02*
X25954737Y-110595263D01*
X40809397Y-97810228D02*
X39700000Y-96970000D01*
X41445000Y-109660000D02*
X41445000Y-108390000D01*
X20920000Y-81750000D02*
X20030000Y-81720000D01*
X20030000Y-81720000D02*
X20380000Y-79700000D01*
X22305000Y-67410000D02*
X20210000Y-69780000D01*
X23820000Y-91610000D02*
X20520000Y-89250000D01*
X43837951Y-24450000D02*
X43075427Y-21834573D01*
X18070000Y-72010000D02*
X15530000Y-72010000D01*
X27890000Y-110749746D02*
X26990000Y-110768020D01*
X46292500Y-31870000D02*
X46520000Y-30410000D01*
X42010000Y-20690000D02*
X39140000Y-20690000D01*
X13550000Y-81849999D02*
X16060000Y-81560000D01*
X39700000Y-96970000D02*
X37440000Y-96970000D01*
X35110000Y-90160000D02*
X37590000Y-90860000D01*
X43075427Y-21834573D02*
X42010000Y-20690000D01*
X41396487Y-111030000D02*
X42310000Y-114880000D01*
X22540000Y-45920000D02*
X15380003Y-44459999D01*
D39*
X46520000Y-68860000D02*
X46760000Y-70300000D01*
X43990000Y-77560000D02*
X44740000Y-73120000D01*
D38*
X21000000Y-83810000D02*
X20920000Y-81750000D01*
D39*
X44550000Y-70410000D02*
X46520000Y-68772500D01*
X44740000Y-73120000D02*
X44550000Y-70410000D01*
D38*
X16060000Y-81560000D02*
X14380000Y-79680000D01*
X27890000Y-110749746D02*
X29237317Y-111142683D01*
X37410000Y-93900000D02*
X36258692Y-94991308D01*
X37440000Y-96970000D02*
X36258692Y-94991308D01*
X42310000Y-114880000D02*
X42270000Y-116410000D01*
X22270000Y-83870000D02*
X21000000Y-83810000D01*
X14380000Y-79680000D02*
X13470000Y-76600000D01*
X39140000Y-20690000D02*
X27400000Y-20680000D01*
X29237317Y-111142683D02*
X30349810Y-112050190D01*
X46292500Y-31870000D02*
X43930000Y-26670000D01*
X42270000Y-116410000D02*
X40369999Y-116492000D01*
X20030000Y-81720000D02*
X16060000Y-81560000D01*
X43930000Y-26670000D02*
X43837951Y-24450000D01*
X24690000Y-84035000D02*
X22270000Y-83870000D01*
X39050000Y-79880000D02*
X39761765Y-78361765D01*
X48021524Y-94170000D02*
X48080113Y-96890053D01*
X11031267Y-90340000D02*
X13030000Y-92460000D01*
X13030000Y-92460000D02*
X15480000Y-93390000D01*
X38938262Y-98140160D02*
X36500000Y-98000000D01*
X11230000Y-86590000D02*
X12940000Y-85210000D01*
X27440000Y-94150000D02*
X27460000Y-91610000D01*
X27170000Y-87720000D02*
X27460000Y-91610000D01*
X11031267Y-90340000D02*
X11230000Y-86590000D01*
D39*
X48410000Y-56290000D02*
X49490000Y-56320000D01*
D38*
X24630000Y-87720000D02*
X27170000Y-87720000D01*
X49480000Y-64940000D02*
X51520000Y-64610000D01*
X36387411Y-97500000D02*
X32291884Y-90228116D01*
D39*
X51280000Y-55110000D02*
X50300000Y-56080000D01*
D38*
X48300000Y-68340000D02*
X47840000Y-66190000D01*
D39*
X51250000Y-57070000D02*
X51280000Y-55110000D01*
D38*
X47840000Y-66190000D02*
X48240000Y-64960000D01*
D39*
X47130000Y-94170000D02*
X48021524Y-94170000D01*
D38*
X47740000Y-81100000D02*
X48263481Y-77406619D01*
X36620000Y-23390000D02*
X38060000Y-24620000D01*
D39*
X45720000Y-57380000D02*
X48410000Y-56290000D01*
D38*
X48263481Y-77406619D02*
X48300771Y-73590040D01*
X36387411Y-97500000D02*
X36500000Y-98000000D01*
D39*
X44210000Y-58700000D02*
X45720000Y-57380000D01*
D38*
X29710000Y-87720000D02*
X32291884Y-90228116D01*
X27430000Y-104310000D02*
X27420000Y-101760000D01*
X47740000Y-81100000D02*
X48021524Y-94170000D01*
X27170000Y-87720000D02*
X29710000Y-87720000D01*
X27420000Y-109400000D02*
X27450000Y-106830000D01*
X27430000Y-96690000D02*
X27440000Y-94150000D01*
X40600000Y-99530000D02*
X43990000Y-99480390D01*
X36500000Y-98000000D02*
X36495000Y-100770000D01*
X48240000Y-64960000D02*
X49480000Y-64940000D01*
X48080113Y-96890053D02*
X45479899Y-98379899D01*
X27450000Y-106830000D02*
X27430000Y-104310000D01*
X27450000Y-99230000D02*
X27420000Y-101760000D01*
X43990000Y-99480390D02*
X45479899Y-98379899D01*
D39*
X49490000Y-56320000D02*
X50300000Y-56080000D01*
D38*
X40600000Y-99530000D02*
X38938262Y-98140160D01*
X27450000Y-99230000D02*
X27430000Y-96690000D01*
X12940000Y-85210000D02*
X14800000Y-84015063D01*
X48300771Y-73590040D02*
X48300000Y-68340000D01*
X38060000Y-24620000D02*
X36470000Y-25980000D01*
D39*
X32860000Y-76930000D02*
X33631014Y-73690000D01*
X33710000Y-72020000D02*
X33631014Y-73690000D01*
X30480000Y-78884888D02*
X32860000Y-76930000D01*
X35110000Y-69840000D02*
X33710000Y-72020000D01*
X30480000Y-81384888D02*
X31690000Y-80880000D01*
X31690000Y-80880000D02*
X33200000Y-78950000D01*
X34230000Y-77630824D02*
X35110000Y-77460000D01*
X33200000Y-78950000D02*
X34230000Y-77630824D01*
X23020000Y-63810000D02*
X18080000Y-65220000D01*
X27750000Y-72380000D02*
X26570000Y-65080000D01*
X25360000Y-63780000D02*
X23020000Y-63810000D01*
X30000000Y-83646308D02*
X29410000Y-83610000D01*
X27440000Y-82330000D02*
X25000000Y-80580000D01*
X26160000Y-76400000D02*
X27750000Y-72380000D01*
X36220000Y-82370000D02*
X37430000Y-84470000D01*
X35780000Y-81370000D02*
X36220000Y-82370000D01*
X24910000Y-79120000D02*
X26160000Y-76400000D01*
X37560000Y-86150000D02*
X37430000Y-84470000D01*
X25000000Y-80580000D02*
X24910000Y-79120000D01*
X32390000Y-82550000D02*
X34300000Y-81430000D01*
X31090000Y-83617527D02*
X32390000Y-82550000D01*
X29410000Y-83610000D02*
X27440000Y-82330000D01*
X26570000Y-65080000D02*
X25360000Y-63780000D01*
X18080000Y-65220000D02*
X15530000Y-66930000D01*
X31090000Y-83617527D02*
X30000000Y-83646308D01*
X34300000Y-81430000D02*
X35780000Y-81370000D01*
X23730000Y-79030000D02*
X21520000Y-78990000D01*
X18070000Y-66930000D02*
X21430000Y-65160000D01*
X26050000Y-65310000D02*
X27030000Y-72640000D01*
X27030000Y-72640000D02*
X23730000Y-79030000D01*
X21520000Y-78990000D02*
X21320000Y-80270000D01*
X28800000Y-84230000D02*
X30440000Y-84277782D01*
X21770000Y-82310000D02*
X21900000Y-83020000D01*
X35560000Y-83810000D02*
X30440000Y-84277782D01*
X36280000Y-84150000D02*
X35560000Y-83810000D01*
X21320000Y-80270000D02*
X21790000Y-81070000D01*
X37200000Y-87110000D02*
X36530000Y-86460000D01*
X21790000Y-81070000D02*
X21770000Y-82310000D01*
X36530000Y-86460000D02*
X36280000Y-84150000D01*
X23080000Y-64410000D02*
X25130000Y-64330000D01*
X27220000Y-83310000D02*
X28800000Y-84230000D01*
X21430000Y-65160000D02*
X23080000Y-64410000D01*
X25130000Y-64330000D02*
X26050000Y-65310000D01*
X21900000Y-83020000D02*
X27220000Y-83310000D01*
X41710000Y-60760000D02*
X32940000Y-50430000D01*
X32940000Y-50430000D02*
X31840000Y-49200000D01*
X46190000Y-63800000D02*
X41710000Y-60760000D01*
X29240000Y-77780000D02*
X30650000Y-77610000D01*
X36683672Y-63340000D02*
X36920000Y-62470000D01*
X34470000Y-68760000D02*
X36040000Y-67970000D01*
X26901644Y-79410000D02*
X27610000Y-79410000D01*
X34077992Y-69287992D02*
X34470000Y-68760000D01*
X31530000Y-76840000D02*
X34077992Y-69287992D01*
X27610000Y-79410000D02*
X29240000Y-77780000D01*
X36040000Y-67970000D02*
X36683672Y-63340000D01*
X30650000Y-77610000D02*
X31530000Y-76840000D01*
X18097493Y-62992507D02*
X17570000Y-62992507D01*
X39790000Y-74660000D02*
X40870000Y-77970000D01*
X10728200Y-57530000D02*
X10728200Y-47910000D01*
X11800000Y-58980000D02*
X11062692Y-58420000D01*
X13796968Y-59760000D02*
X13744585Y-59580000D01*
X16610000Y-25090000D02*
X21270002Y-27599999D01*
X13200000Y-25220000D02*
X16610000Y-25090000D01*
X13397923Y-59142077D02*
X13140000Y-59030000D01*
X11062692Y-58420000D02*
X10728200Y-57530000D01*
X14763800Y-61336200D02*
X13796968Y-59760000D01*
X39790000Y-74660000D02*
X38620000Y-73790000D01*
X16411000Y-62529000D02*
X14763800Y-61336200D01*
X40870000Y-77970000D02*
X41039996Y-79890002D01*
X11310000Y-35610000D02*
X11356324Y-35420000D01*
X37410000Y-72950000D02*
X36880000Y-72970000D01*
X13744585Y-59580000D02*
X13397923Y-59142077D01*
X18120000Y-63015014D02*
X18097493Y-62992507D01*
X10728200Y-47910000D02*
X11310000Y-35610000D01*
X38620000Y-73790000D02*
X37410000Y-72950000D01*
X17570000Y-62992507D02*
X16411000Y-62529000D01*
X12440000Y-58990000D02*
X11800000Y-58980000D01*
X13140000Y-59030000D02*
X12440000Y-58990000D01*
X11356324Y-35420000D02*
X13200000Y-25220000D01*
X14080000Y-45540000D02*
X14013595Y-38890000D01*
X30859382Y-61779382D02*
X30030000Y-62160000D01*
X46770000Y-76120000D02*
X47200000Y-73630000D01*
X15153208Y-57849510D02*
X13786782Y-56310000D01*
X14438889Y-38018889D02*
X15940000Y-36230000D01*
X19020000Y-73500000D02*
X19620000Y-72810000D01*
X17090000Y-74860000D02*
X19020000Y-73500000D01*
X36720000Y-61250000D02*
X39960000Y-61320000D01*
X47360000Y-67760000D02*
X44433946Y-67876054D01*
X18623590Y-63913590D02*
X19089487Y-63589487D01*
X19520000Y-62102509D02*
X18680000Y-62203168D01*
X18937933Y-70992067D02*
X19211356Y-71258644D01*
X18420000Y-70773056D02*
X17190000Y-70830000D01*
X41580000Y-62910000D02*
X43210000Y-65330000D01*
X14195135Y-70294865D02*
X13917029Y-69962971D01*
X14516540Y-70533460D02*
X15080000Y-70723435D01*
X14777518Y-65227518D02*
X14073000Y-66040000D01*
X13917029Y-69962971D02*
X13696099Y-69220000D01*
X14777518Y-65227518D02*
X15729515Y-64779515D01*
X16320000Y-61500000D02*
X15153208Y-57849510D01*
X19089487Y-63589487D02*
X19520000Y-62960000D01*
X13743200Y-56060000D02*
X13743200Y-55850000D01*
X18160000Y-62180000D02*
X16320000Y-61500000D01*
X43210000Y-65330000D02*
X44433946Y-67876054D01*
X14516540Y-70533460D02*
X14195135Y-70294865D01*
X18937933Y-70992067D02*
X18420000Y-70773056D01*
X15940000Y-36230000D02*
X19299999Y-35569997D01*
X17190000Y-70830000D02*
X15080000Y-70723435D01*
X46988975Y-73191025D02*
X47200000Y-73630000D01*
X19620000Y-72810000D02*
X19533029Y-72140000D01*
X36720000Y-61250000D02*
X33550000Y-61281129D01*
X19533029Y-72140000D02*
X19211356Y-71258644D01*
X43040000Y-79900000D02*
X46770000Y-76120000D01*
X28270000Y-62257591D02*
X26150000Y-61730000D01*
X13671238Y-51170000D02*
X14429159Y-47810000D01*
X30859382Y-61779382D02*
X33550000Y-61281129D01*
X18680000Y-62203168D02*
X18160000Y-62180000D01*
X13786782Y-56310000D02*
X13743200Y-56060000D01*
X13713000Y-67240000D02*
X13696099Y-69220000D01*
X15729515Y-64779515D02*
X18623590Y-63913590D01*
X39960000Y-61320000D02*
X41580000Y-62910000D01*
X13713000Y-67240000D02*
X14073000Y-66040000D01*
X19520000Y-62960000D02*
X19520000Y-62102509D01*
X30030000Y-62160000D02*
X28270000Y-62257591D01*
X13743200Y-55850000D02*
X13671238Y-51170000D01*
X23630000Y-61610000D02*
X19520000Y-62102509D01*
X46988975Y-73191025D02*
X47470000Y-70360000D01*
X14013595Y-38890000D02*
X14438889Y-38018889D01*
X47470000Y-70360000D02*
X47360000Y-67760000D01*
X26150000Y-61730000D02*
X23630000Y-61610000D01*
X14429159Y-47810000D02*
X14080000Y-45540000D01*
X49210000Y-57610000D02*
X51250000Y-59070000D01*
X49210000Y-55070000D02*
X51280000Y-53110000D01*
X14660389Y-50040389D02*
X15614540Y-48440000D01*
X21690000Y-47130000D02*
X22590000Y-47130000D01*
X22590000Y-47130000D02*
X23600000Y-47070000D01*
X14217550Y-52880000D02*
X14304347Y-51140000D01*
X31190000Y-47435548D02*
X28990000Y-47294170D01*
X23600000Y-47070000D02*
X25710000Y-47500000D01*
X15614540Y-48440000D02*
X15880000Y-47480000D01*
X15880000Y-47480000D02*
X17000000Y-46750000D01*
X14408317Y-56100000D02*
X14349600Y-55630000D01*
X17620000Y-61310000D02*
X16874173Y-60935827D01*
X42470000Y-49453464D02*
X40680000Y-49434283D01*
X16709606Y-60720394D02*
X15571279Y-57513459D01*
X14300000Y-53460000D02*
X14217550Y-52880000D01*
X18420000Y-61310000D02*
X19248018Y-60948018D01*
X14349600Y-53930000D02*
X14300000Y-53460000D01*
X18420000Y-61310000D02*
X17620000Y-61310000D01*
X40680000Y-49434283D02*
X36940000Y-48943030D01*
X20245000Y-59940000D02*
X19248018Y-60948018D01*
X17930000Y-46610000D02*
X19750000Y-46760000D01*
X42470000Y-49453464D02*
X43334681Y-49144681D01*
X17000000Y-46750000D02*
X17930000Y-46610000D01*
X19750000Y-46760000D02*
X21690000Y-47130000D01*
X14304347Y-51140000D02*
X14660389Y-50040389D01*
X16874173Y-60935827D02*
X16709606Y-60720394D01*
X36940000Y-48943030D02*
X31190000Y-47435548D01*
X14349600Y-55630000D02*
X14349600Y-53930000D01*
X44450000Y-47420000D02*
X43710000Y-48680000D01*
X15571279Y-57513459D02*
X14408317Y-56100000D01*
X25710000Y-47500000D02*
X28990000Y-47294170D01*
X43710000Y-48680000D02*
X43334681Y-49144681D01*
X44710000Y-48650000D02*
X44170695Y-49550695D01*
X43070000Y-50270000D02*
X44170695Y-49550695D01*
X16620000Y-49628803D02*
X19040000Y-49842218D01*
X14764406Y-52490000D02*
X15050085Y-50960000D01*
X19040000Y-49842218D02*
X19650000Y-49808328D01*
X15890000Y-57070000D02*
X15066025Y-56000000D01*
X17705000Y-59940000D02*
X15890000Y-57070000D01*
X41250000Y-50270000D02*
X38030000Y-49858409D01*
X43070000Y-50270000D02*
X41250000Y-50270000D01*
X23480000Y-49640000D02*
X25910000Y-48690000D01*
X21980000Y-49808750D02*
X23480000Y-49640000D01*
X25910000Y-48690000D02*
X29590000Y-48010000D01*
X14940000Y-53420000D02*
X14764406Y-52490000D01*
X15066025Y-56000000D02*
X14940000Y-53420000D01*
X38030000Y-49858409D02*
X31760000Y-48245486D01*
X15050085Y-50960000D02*
X16620000Y-49628803D01*
X31760000Y-48245486D02*
X29590000Y-48010000D01*
X19650000Y-49808328D02*
X21980000Y-49808750D01*
X18240000Y-50569506D02*
X23240000Y-50514708D01*
X16930000Y-51200000D02*
X18240000Y-50569506D01*
X15555366Y-53588761D02*
X15554644Y-53340000D01*
X15554644Y-53340000D02*
X16930000Y-51200000D01*
X27190000Y-49520000D02*
X30170000Y-48910000D01*
X23240000Y-50514708D02*
X27190000Y-49520000D01*
X15811775Y-55988225D02*
X15671515Y-55730000D01*
X17705000Y-57400000D02*
X15811775Y-55988225D01*
X15671515Y-55730000D02*
X15555366Y-53588761D01*
X31501860Y-51078140D02*
X30180000Y-50110000D01*
X26410000Y-54700000D02*
X28560000Y-55004851D01*
X24000000Y-54740000D02*
X26410000Y-54700000D01*
X31542252Y-53792252D02*
X31905533Y-53135533D01*
X31856382Y-51573618D02*
X31997982Y-52190000D01*
X31542252Y-53792252D02*
X30420000Y-54714425D01*
X31905533Y-53135533D02*
X31997982Y-52190000D01*
X28560000Y-55004851D02*
X30420000Y-54714425D01*
X20245000Y-54860000D02*
X24000000Y-54740000D01*
X31501860Y-51078140D02*
X31856382Y-51573618D01*
X30160000Y-52090000D02*
X27620000Y-51590000D01*
X19400000Y-53590000D02*
X18850000Y-53780000D01*
X21640000Y-53510000D02*
X20620000Y-53580000D01*
X18850000Y-53780000D02*
X17705000Y-54860000D01*
X27620000Y-51590000D02*
X25340000Y-51690000D01*
X20620000Y-53580000D02*
X19400000Y-53590000D01*
X25340000Y-51690000D02*
X21640000Y-53510000D01*
X31150000Y-52270000D02*
X31120000Y-51760000D01*
X21210000Y-52124776D02*
X20245000Y-52320000D01*
X30479396Y-51220604D02*
X29470000Y-50818281D01*
X31009014Y-52959014D02*
X31150000Y-52270000D01*
X30885834Y-53185834D02*
X31009014Y-52959014D01*
X29880000Y-53830000D02*
X30370000Y-53716923D01*
X31120000Y-51760000D02*
X30479396Y-51220604D01*
X25210000Y-50853599D02*
X21210000Y-52124776D01*
X28050000Y-50643378D02*
X25210000Y-50853599D01*
X29470000Y-50818281D02*
X28050000Y-50643378D01*
X30885834Y-53185834D02*
X30370000Y-53716923D01*
X17010000Y-56130000D02*
X16400000Y-55690000D01*
X19400000Y-56190000D02*
X17760000Y-56140000D01*
X20700000Y-56124682D02*
X21887636Y-56452364D01*
X26850000Y-58070000D02*
X29810000Y-59510000D01*
X16400000Y-55690000D02*
X16270000Y-54330000D01*
X16270000Y-54330000D02*
X16440000Y-53610000D01*
X20730000Y-56100000D02*
X19400000Y-56190000D01*
X16440000Y-53610000D02*
X17705000Y-52320000D01*
X21887636Y-56452364D02*
X24650000Y-57870000D01*
X20700000Y-56124682D02*
X20730000Y-56100000D01*
X24650000Y-57870000D02*
X26850000Y-58070000D01*
X29810000Y-59510000D02*
X30210000Y-60020000D01*
X17760000Y-56140000D02*
X17010000Y-56130000D01*
X30332630Y-68390000D02*
X30392679Y-67250000D01*
X26810000Y-63640000D02*
X26090000Y-63120000D01*
X25611814Y-80130000D02*
X25606866Y-79030000D01*
X30392679Y-67250000D02*
X30508095Y-64973893D01*
X23440000Y-89893545D02*
X22559081Y-88680000D01*
X39231492Y-85689068D02*
X39280000Y-84160000D01*
X30508095Y-64973893D02*
X26810000Y-63640000D01*
X34110000Y-88980000D02*
X36180000Y-89050000D01*
X23590000Y-85887734D02*
X26941151Y-85947173D01*
X25640000Y-108720000D02*
X25260000Y-90150000D01*
X26941151Y-85947173D02*
X27730000Y-85938986D01*
X27730000Y-85938986D02*
X31420000Y-85998442D01*
X30382304Y-69402304D02*
X30332630Y-68390000D01*
X33560000Y-79560000D02*
X31209815Y-82579815D01*
X27701290Y-81448710D02*
X27180000Y-80970000D01*
X27180000Y-80970000D02*
X25611814Y-80130000D01*
X31209815Y-82579815D02*
X29640000Y-82518863D01*
X34690000Y-78670000D02*
X33560000Y-79560000D01*
X31420000Y-85998442D02*
X34110000Y-88980000D01*
X25606866Y-79030000D02*
X30254568Y-69674616D01*
X26090000Y-63120000D02*
X25780000Y-62450000D01*
X36530000Y-80050000D02*
X35950000Y-78780000D01*
X29640000Y-82518863D02*
X27701290Y-81448710D01*
X39030000Y-88970000D02*
X39062623Y-87230000D01*
X22559081Y-88680000D02*
X22779044Y-86539044D01*
X39062623Y-87230000D02*
X39231492Y-85689068D01*
X22779044Y-86539044D02*
X23590000Y-85887734D01*
X25260000Y-90150000D02*
X23440000Y-89893545D01*
X36688158Y-82061842D02*
X36530000Y-80050000D01*
X30254568Y-69674616D02*
X30382304Y-69402304D01*
X35950000Y-78780000D02*
X34690000Y-78670000D01*
X39280000Y-84160000D02*
X36688158Y-82061842D01*
X36180000Y-89050000D02*
X39030000Y-88970000D01*
X30215771Y-86494229D02*
X31203615Y-87006385D01*
X30863232Y-67980198D02*
X31080000Y-64690000D01*
X31080000Y-64690000D02*
X27770000Y-63070000D01*
X30863232Y-67980198D02*
X31060000Y-69150000D01*
X37080000Y-79770000D02*
X36970000Y-76950000D01*
X27770000Y-63070000D02*
X26860000Y-62760000D01*
X40110000Y-91460000D02*
X39825737Y-85960000D01*
X27950000Y-75780000D02*
X26157029Y-79300000D01*
X37249025Y-81420975D02*
X37080000Y-79770000D01*
X37249025Y-81420975D02*
X38040000Y-82410000D01*
X34060000Y-76840000D02*
X34830000Y-76240000D01*
X39810000Y-83660000D02*
X39825737Y-85960000D01*
X31730000Y-79780000D02*
X34060000Y-76840000D01*
X31060000Y-69150000D02*
X27950000Y-75780000D01*
X26480000Y-107180000D02*
X26510000Y-103070000D01*
X27410000Y-80490000D02*
X27825982Y-80864018D01*
X23140000Y-88520000D02*
X23300000Y-86790000D01*
X36970000Y-76950000D02*
X36500000Y-75960000D01*
X37940000Y-92820000D02*
X40110000Y-91460000D01*
X27825982Y-80864018D02*
X29870000Y-80240000D01*
X38040000Y-82410000D02*
X39810000Y-83660000D01*
X31203615Y-87006385D02*
X33300000Y-90410000D01*
X26155504Y-79810000D02*
X26157029Y-79300000D01*
X29870000Y-80240000D02*
X31160000Y-80210000D01*
X23790000Y-89170000D02*
X23140000Y-88520000D01*
X33300000Y-90410000D02*
X34650000Y-92580000D01*
X26080000Y-89190000D02*
X23790000Y-89170000D01*
X23300000Y-86790000D02*
X23823307Y-86414940D01*
X31160000Y-80210000D02*
X31730000Y-79780000D01*
X34650000Y-92580000D02*
X37940000Y-92820000D01*
X23823307Y-86414940D02*
X30215771Y-86494229D01*
X26510000Y-103070000D02*
X26080000Y-89190000D01*
X26155504Y-79810000D02*
X27410000Y-80490000D01*
X36500000Y-75960000D02*
X34830000Y-76240000D01*
X36470000Y-27980000D02*
X38130000Y-28390000D01*
X38130000Y-28390000D02*
X41140000Y-28590000D01*
X42770000Y-26190000D02*
X41140000Y-23090000D01*
X38200000Y-29980000D02*
X41850000Y-30580000D01*
X41850000Y-30580000D02*
X42980000Y-29890000D01*
X42980000Y-29890000D02*
X43320000Y-28300000D01*
X36150000Y-30570000D02*
X38200000Y-29980000D01*
X43320000Y-28300000D02*
X42770000Y-26190000D01*
X29440000Y-60821605D02*
X30430000Y-60739194D01*
X25660000Y-61113750D02*
X24474029Y-60545971D01*
X30958480Y-59750000D02*
X30180000Y-58220000D01*
X24474029Y-60545971D02*
X22510000Y-57960000D01*
X26790000Y-61104333D02*
X27660000Y-60310000D01*
X30934582Y-60174582D02*
X30958480Y-59750000D01*
X30430000Y-60739194D02*
X30769444Y-60499444D01*
X29440000Y-60821605D02*
X28570000Y-60639884D01*
X30769444Y-60499444D02*
X30934582Y-60174582D01*
X26790000Y-61104333D02*
X25660000Y-61113750D01*
X27660000Y-60310000D02*
X28570000Y-60639884D01*
X39600000Y-62370000D02*
X40280000Y-66880000D01*
X40280000Y-66880000D02*
X40000000Y-68690000D01*
X40000000Y-68690000D02*
X39020000Y-69950000D01*
X44510000Y-61650000D02*
X44210000Y-60700000D01*
X47420000Y-62640000D02*
X45370000Y-62470000D01*
X45370000Y-62470000D02*
X44510000Y-61650000D01*
X46450000Y-45164286D02*
X46796807Y-44680000D01*
X45330000Y-45210000D02*
X46450000Y-45164286D01*
X46796807Y-44680000D02*
X46750000Y-37790000D01*
X41950000Y-47260000D02*
X45330000Y-45210000D01*
X44410000Y-37773084D02*
X38754028Y-34085972D01*
X38754028Y-34085972D02*
X36150000Y-32570000D01*
X46750000Y-37790000D02*
X44410000Y-37773084D01*
X34920000Y-115050000D02*
X40280000Y-115120000D01*
X39724091Y-107949665D02*
X39711446Y-105909991D01*
X29420000Y-109400000D02*
X31440000Y-109390000D01*
X39711446Y-105909991D02*
X41445000Y-105850000D01*
X31440000Y-109390000D02*
X31540000Y-112020000D01*
X32660000Y-114650000D02*
X34920000Y-115050000D01*
X40280000Y-115120000D02*
X40930000Y-113670000D01*
X39738986Y-109280000D02*
X39724091Y-107949665D01*
X40930000Y-113670000D02*
X40490000Y-111540000D01*
X40490000Y-111540000D02*
X39738986Y-109280000D01*
X32660000Y-114650000D02*
X31540000Y-112020000D01*
X31440000Y-106850000D02*
X29450000Y-106830000D01*
X32524328Y-109120000D02*
X32116301Y-107860000D01*
X32561332Y-109350000D02*
X32500080Y-109890081D01*
X41445000Y-104580000D02*
X39097098Y-104629888D01*
X32011884Y-107588116D02*
X31440000Y-106850000D01*
X33031057Y-112298943D02*
X35110000Y-112764211D01*
X32500080Y-109890081D02*
X32010000Y-110660000D01*
X37640000Y-112740000D02*
X35110000Y-112764211D01*
X39133118Y-110440000D02*
X39170000Y-112000000D01*
X39170000Y-112000000D02*
X37640000Y-112740000D01*
X33031057Y-112298943D02*
X32390000Y-111580000D01*
X32390000Y-111580000D02*
X32010000Y-110660000D01*
X32561332Y-109350000D02*
X32524328Y-109120000D01*
X39097098Y-104629888D02*
X39133118Y-110440000D01*
X32116301Y-107860000D02*
X32011884Y-107588116D01*
X38482936Y-102069566D02*
X38507030Y-110020000D01*
X41445000Y-102040000D02*
X38482936Y-102069566D01*
X34080000Y-111930000D02*
X37040000Y-111930000D01*
X33088903Y-109390000D02*
X33043750Y-109020000D01*
X33043750Y-109020000D02*
X32524892Y-105700000D01*
X32660000Y-110750000D02*
X32984496Y-110084496D01*
X32984496Y-110084496D02*
X33088903Y-109390000D01*
X34080000Y-111930000D02*
X32660000Y-110750000D01*
X32371429Y-104938571D02*
X31440000Y-104310000D01*
X37040000Y-111930000D02*
X38490000Y-111500000D01*
X32524892Y-105700000D02*
X32371429Y-104938571D01*
X29430000Y-104310000D02*
X31440000Y-104310000D01*
X38490000Y-111500000D02*
X38507030Y-110020000D01*
X33611459Y-109370000D02*
X32825055Y-104104945D01*
X33470000Y-110640000D02*
X33611459Y-109370000D01*
X34350000Y-111360000D02*
X33470000Y-110640000D01*
X36760000Y-111250000D02*
X35880000Y-111227436D01*
X37873200Y-100740000D02*
X41445000Y-100770000D01*
X37872381Y-110030000D02*
X37890000Y-107440000D01*
X31440000Y-101770000D02*
X29420000Y-101760000D01*
X37889315Y-110999877D02*
X36760000Y-111250000D01*
X32825055Y-104104945D02*
X32590000Y-103610000D01*
X37890000Y-107440000D02*
X37873200Y-100740000D01*
X35880000Y-111227436D02*
X34350000Y-111360000D01*
X31440000Y-101770000D02*
X32590000Y-103610000D01*
X37872381Y-110030000D02*
X37889315Y-110999877D01*
X32710000Y-101960000D02*
X33450000Y-103890000D01*
X33450000Y-103890000D02*
X34490000Y-105270000D01*
X32447621Y-100510000D02*
X31440000Y-99230000D01*
X32447621Y-100510000D02*
X32710000Y-101960000D01*
X29450000Y-99230000D02*
X31440000Y-99230000D01*
X34490000Y-105270000D02*
X36495000Y-105850000D01*
X35200000Y-104349302D02*
X36130000Y-104580000D01*
X33048270Y-97881730D02*
X32905122Y-97634878D01*
X33378092Y-99010000D02*
X33399978Y-101060000D01*
X32379963Y-97180037D02*
X31440000Y-96690000D01*
X31440000Y-96690000D02*
X29430000Y-96690000D01*
X34299089Y-103490911D02*
X33766768Y-102310000D01*
X33766768Y-102310000D02*
X33399978Y-101060000D01*
X34634585Y-103985415D02*
X34299089Y-103490911D01*
X32905122Y-97634878D02*
X32379963Y-97180037D01*
X35200000Y-104349302D02*
X34634585Y-103985415D01*
X33378092Y-99010000D02*
X33048270Y-97881730D01*
X32402118Y-94927882D02*
X31440000Y-94150000D01*
X31440000Y-94150000D02*
X29440000Y-94150000D01*
X33972143Y-97850000D02*
X34004171Y-100850000D01*
X33378868Y-96191132D02*
X33057109Y-95642891D01*
X34520700Y-102100000D02*
X34004171Y-100850000D01*
X35340000Y-103182041D02*
X34990914Y-102839086D01*
X33057109Y-95642891D02*
X32402118Y-94927882D01*
X35340000Y-103182041D02*
X36495000Y-103310000D01*
X33972143Y-97850000D02*
X33378868Y-96191132D01*
X34990914Y-102839086D02*
X34520700Y-102100000D01*
X32573743Y-92696257D02*
X31440000Y-91610000D01*
X33581793Y-94000000D02*
X32573743Y-92696257D01*
X35369778Y-101450222D02*
X34818815Y-100960000D01*
X34818815Y-100960000D02*
X34606228Y-100440000D01*
X34606228Y-100440000D02*
X34569288Y-96980000D01*
X36495000Y-102040000D02*
X35369778Y-101450222D01*
X29460000Y-91610000D02*
X31440000Y-91610000D01*
X34111607Y-95280000D02*
X33581793Y-94000000D01*
X34569288Y-96980000D02*
X34111607Y-95280000D01*
X30280000Y-46210000D02*
X27940000Y-45370000D01*
X27770000Y-43810000D02*
X27770000Y-41580000D01*
X36580000Y-48090000D02*
X30280000Y-46210000D01*
X42920000Y-48320000D02*
X41590000Y-48680000D01*
X27770000Y-41580000D02*
X26290000Y-39945000D01*
X41590000Y-48680000D02*
X36580000Y-48090000D01*
X27940000Y-45370000D02*
X27770000Y-43810000D01*
X43410000Y-54720000D02*
X44640000Y-54130000D01*
X43370000Y-52740000D02*
X44670000Y-52620000D01*
X33861116Y-67925157D02*
X34710000Y-67450000D01*
X35060000Y-64010000D02*
X34210000Y-62340000D01*
X35170000Y-66270000D02*
X35060000Y-64010000D01*
X34710000Y-67450000D02*
X35170000Y-66270000D01*
X33369934Y-68179934D02*
X33861116Y-67925157D01*
X30510000Y-74950000D02*
X33369934Y-68179934D01*
X33747742Y-68717742D02*
X34140000Y-68350000D01*
X34140000Y-68350000D02*
X35450000Y-67640000D01*
X30630000Y-76570000D02*
X33747742Y-68717742D01*
X35880000Y-65230000D02*
X35510000Y-62430000D01*
X35450000Y-67640000D02*
X35880000Y-65230000D01*
X31610000Y-69160000D02*
X31451710Y-67310000D01*
X31540000Y-65940000D02*
X32191915Y-63559805D01*
X36495000Y-109660000D02*
X34840000Y-108830000D01*
X32191915Y-63559805D02*
X31690000Y-62350000D01*
X30540000Y-71670000D02*
X31610000Y-69160000D01*
X31451710Y-67310000D02*
X31540000Y-65940000D01*
X34840000Y-108830000D02*
X34180000Y-108310000D01*
X28640000Y-75980000D02*
X30540000Y-71670000D01*
X48780000Y-82330000D02*
X48788813Y-95540000D01*
X48780000Y-82330000D02*
X49116800Y-76700000D01*
X46300000Y-102780000D02*
X48010000Y-102800000D01*
X49110000Y-73410000D02*
X49390000Y-68000000D01*
X49220000Y-99880000D02*
X48788813Y-95540000D01*
X49116800Y-76700000D02*
X49110000Y-73410000D01*
X49220000Y-102780000D02*
X49220000Y-99880000D01*
X48010000Y-102800000D02*
X49220000Y-102780000D01*
X44067855Y-107450000D02*
X43820000Y-108330000D01*
X44067855Y-107450000D02*
X46300000Y-102780000D01*
X49390000Y-68000000D02*
X48900000Y-65980000D01*
X36495000Y-108390000D02*
X34700000Y-107440000D01*
X32170000Y-65600000D02*
X33040000Y-62350000D01*
X36495000Y-107120000D02*
X34640000Y-106380000D01*
X29570000Y-75250000D02*
X32360000Y-69100000D01*
X29570000Y-76490000D02*
X29570000Y-75250000D01*
X32047348Y-66780000D02*
X32170000Y-65600000D01*
X32360000Y-69100000D02*
X32047348Y-66780000D01*
X38670000Y-80950000D02*
X38435393Y-80824607D01*
X41445000Y-103310000D02*
X44150000Y-101810000D01*
X38435393Y-80824607D02*
X38288729Y-80541271D01*
X40050000Y-81850000D02*
X39960000Y-80950000D01*
X44150000Y-101810000D02*
X45640000Y-99600000D01*
X38080000Y-77030000D02*
X37460000Y-74010000D01*
X38288729Y-80541271D02*
X38080000Y-77030000D01*
X39960000Y-80950000D02*
X38670000Y-80950000D01*
X48367500Y-31870000D02*
X49680000Y-33940000D01*
X48367500Y-31870000D02*
X48280000Y-29830000D01*
X45470000Y-56000000D02*
X46890000Y-50040000D01*
X48081356Y-44873934D02*
X48023350Y-42938577D01*
X48050000Y-37190000D02*
X47360000Y-35500000D01*
X47660000Y-47080000D02*
X48081356Y-44873934D01*
X43010000Y-56140000D02*
X45470000Y-56000000D01*
X47360000Y-35500000D02*
X46680000Y-35500000D01*
X46890000Y-50040000D02*
X47660000Y-47080000D01*
X48023350Y-42938577D02*
X48050000Y-37190000D01*
X48280000Y-27830000D02*
X49390000Y-28690000D01*
X41410000Y-54720000D02*
X43010000Y-56140000D01*
X51090000Y-38140000D02*
X51050000Y-33860000D01*
X50230000Y-44430000D02*
X51090000Y-38140000D01*
X45140000Y-33900000D02*
X46290000Y-34150000D01*
X46470000Y-36850000D02*
X44800000Y-36850000D01*
X43537006Y-35462994D02*
X43592422Y-34542422D01*
X43980000Y-34130000D02*
X45140000Y-33900000D01*
X44800000Y-36850000D02*
X43870000Y-35960000D01*
X43040000Y-51110000D02*
X46270000Y-49100000D01*
X46270000Y-49100000D02*
X47450000Y-44880000D01*
X47374551Y-40459833D02*
X47420000Y-37440000D01*
X47420000Y-37440000D02*
X46470000Y-36850000D01*
X43870000Y-35960000D02*
X43537006Y-35462994D01*
X41370000Y-52740000D02*
X43040000Y-51110000D01*
X47450000Y-44880000D02*
X47374551Y-40459833D01*
X43592422Y-34542422D02*
X43980000Y-34130000D01*
X48900000Y-45910000D02*
X50150000Y-47750000D01*
X48790000Y-43370000D02*
X48720000Y-44650000D01*
X50200000Y-35520000D02*
X50160000Y-39080000D01*
X50160000Y-39080000D02*
X49880000Y-41330000D01*
X49880000Y-41330000D02*
X48790000Y-43370000D01*
X48720000Y-44650000D02*
X48900000Y-45910000D01*
X49200000Y-37200000D02*
X48290000Y-34150000D01*
X49230000Y-39980000D02*
X49200000Y-37200000D01*
X46640000Y-65050000D02*
X47520000Y-63670000D01*
X46520000Y-66860000D02*
X46640000Y-65050000D01*
X47520000Y-63670000D02*
X49640000Y-63225000D01*
X39550000Y-82660000D02*
X40580000Y-82860000D01*
X37490000Y-76870000D02*
X35996080Y-73053920D01*
X35996080Y-73053920D02*
X35110000Y-72380000D01*
X38040843Y-81149157D02*
X37833254Y-80836746D01*
X37833254Y-80836746D02*
X37678306Y-80420000D01*
X40580000Y-82860000D02*
X41039996Y-81802502D01*
X39050000Y-81792500D02*
X39550000Y-82660000D01*
X39050000Y-81792500D02*
X38203587Y-81356413D01*
X41039996Y-81890002D02*
X43040000Y-81900000D01*
X37678306Y-80420000D02*
X37490000Y-76870000D01*
X38203587Y-81356413D02*
X38040843Y-81149157D01*
X22520000Y-71810000D02*
X22469998Y-73540001D01*
X16670000Y-80290000D02*
X17070000Y-76600000D01*
X25180000Y-65630000D02*
X23969998Y-66099999D01*
X23969998Y-66099999D02*
X24030000Y-67410000D01*
X21290000Y-75940000D02*
X22469998Y-77140001D01*
X20730000Y-73740000D02*
X21290000Y-75940000D01*
D38*
X19299999Y-31969997D02*
X17140000Y-28545000D01*
X21270002Y-23999999D02*
X17140000Y-23045000D01*
D39*
X24130000Y-80700000D02*
X22180000Y-79800000D01*
X24690000Y-82310000D02*
X24130000Y-80700000D01*
M02*
