G04 #@! TF.GenerationSoftware,KiCad,Pcbnew,7.0.9*
G04 #@! TF.CreationDate,2024-03-13T00:50:52-04:00*
G04 #@! TF.ProjectId,MEAP_Rev3b,4d454150-5f52-4657-9633-622e6b696361,rev?*
G04 #@! TF.SameCoordinates,Original*
G04 #@! TF.FileFunction,Paste,Top*
G04 #@! TF.FilePolarity,Positive*
%FSLAX46Y46*%
G04 Gerber Fmt 4.6, Leading zero omitted, Abs format (unit mm)*
G04 Created by KiCad (PCBNEW 7.0.9) date 2024-03-13 00:50:52*
%MOMM*%
%LPD*%
G01*
G04 APERTURE LIST*
G04 Aperture macros list*
%AMRoundRect*
0 Rectangle with rounded corners*
0 $1 Rounding radius*
0 $2 $3 $4 $5 $6 $7 $8 $9 X,Y pos of 4 corners*
0 Add a 4 corners polygon primitive as box body*
4,1,4,$2,$3,$4,$5,$6,$7,$8,$9,$2,$3,0*
0 Add four circle primitives for the rounded corners*
1,1,$1+$1,$2,$3*
1,1,$1+$1,$4,$5*
1,1,$1+$1,$6,$7*
1,1,$1+$1,$8,$9*
0 Add four rect primitives between the rounded corners*
20,1,$1+$1,$2,$3,$4,$5,0*
20,1,$1+$1,$4,$5,$6,$7,0*
20,1,$1+$1,$6,$7,$8,$9,0*
20,1,$1+$1,$8,$9,$2,$3,0*%
G04 Aperture macros list end*
%ADD10RoundRect,0.237500X-0.237500X0.300000X-0.237500X-0.300000X0.237500X-0.300000X0.237500X0.300000X0*%
%ADD11RoundRect,0.237500X0.300000X0.237500X-0.300000X0.237500X-0.300000X-0.237500X0.300000X-0.237500X0*%
%ADD12RoundRect,0.237500X0.237500X-0.300000X0.237500X0.300000X-0.237500X0.300000X-0.237500X-0.300000X0*%
%ADD13R,2.000000X1.500000*%
%ADD14R,2.000000X3.800000*%
%ADD15RoundRect,0.237500X0.250000X0.237500X-0.250000X0.237500X-0.250000X-0.237500X0.250000X-0.237500X0*%
%ADD16RoundRect,0.150000X-0.150000X0.825000X-0.150000X-0.825000X0.150000X-0.825000X0.150000X0.825000X0*%
%ADD17RoundRect,0.237500X0.344173X0.021239X-0.038849X0.342632X-0.344173X-0.021239X0.038849X-0.342632X0*%
%ADD18RoundRect,0.237500X0.237500X-0.250000X0.237500X0.250000X-0.237500X0.250000X-0.237500X-0.250000X0*%
%ADD19RoundRect,0.150000X-0.825000X-0.150000X0.825000X-0.150000X0.825000X0.150000X-0.825000X0.150000X0*%
%ADD20RoundRect,0.250000X-0.550000X1.050000X-0.550000X-1.050000X0.550000X-1.050000X0.550000X1.050000X0*%
%ADD21RoundRect,0.237500X-0.300000X-0.237500X0.300000X-0.237500X0.300000X0.237500X-0.300000X0.237500X0*%
%ADD22R,1.500000X0.900000*%
%ADD23R,0.900000X1.500000*%
%ADD24R,0.900000X0.900000*%
%ADD25RoundRect,0.237500X-0.237500X0.250000X-0.237500X-0.250000X0.237500X-0.250000X0.237500X0.250000X0*%
%ADD26RoundRect,0.237500X-0.250000X-0.237500X0.250000X-0.237500X0.250000X0.237500X-0.250000X0.237500X0*%
%ADD27R,1.550000X1.300000*%
%ADD28R,0.200000X1.150000*%
%ADD29R,1.300000X1.700000*%
%ADD30RoundRect,0.250000X0.450000X-0.325000X0.450000X0.325000X-0.450000X0.325000X-0.450000X-0.325000X0*%
%ADD31RoundRect,0.112500X0.112500X-0.187500X0.112500X0.187500X-0.112500X0.187500X-0.112500X-0.187500X0*%
G04 APERTURE END LIST*
D10*
X38640000Y-86507500D03*
X38640000Y-88232500D03*
D11*
X16830000Y-101530000D03*
X15105000Y-101530000D03*
D12*
X44147500Y-86797502D03*
X44147500Y-85072502D03*
D13*
X18680000Y-79420000D03*
X18680000Y-81720000D03*
X18680000Y-84020000D03*
D14*
X24980000Y-81720000D03*
D15*
X48306999Y-96266001D03*
X46481999Y-96266001D03*
D16*
X51085000Y-32055000D03*
X49815000Y-32055000D03*
X48545000Y-32055000D03*
X47275000Y-32055000D03*
X47275000Y-37005000D03*
X48545000Y-37005000D03*
X49815000Y-37005000D03*
X51085000Y-37005000D03*
D17*
X39560001Y-73330002D03*
X38161969Y-72156914D03*
D12*
X32540000Y-76812500D03*
X32540000Y-75087500D03*
D18*
X48400000Y-52242500D03*
X48400000Y-50417500D03*
D10*
X48360000Y-39360000D03*
X48360000Y-41085000D03*
D16*
X25069998Y-70409997D03*
X23799998Y-70409997D03*
X22529998Y-70409997D03*
X21259998Y-70409997D03*
X21259998Y-75359997D03*
X22529998Y-75359997D03*
X23799998Y-75359997D03*
X25069998Y-75359997D03*
D19*
X42300000Y-73670000D03*
X42300000Y-74940000D03*
X42300000Y-76210000D03*
X42300000Y-77480000D03*
X47250000Y-77480000D03*
X47250000Y-76210000D03*
X47250000Y-74940000D03*
X47250000Y-73670000D03*
D12*
X45700001Y-94267501D03*
X45700001Y-92542501D03*
D18*
X47290000Y-85672500D03*
X47290000Y-83847500D03*
D20*
X29120000Y-68150000D03*
X29120000Y-71750000D03*
D21*
X45737500Y-79320000D03*
X47462500Y-79320000D03*
D12*
X47280000Y-89450000D03*
X47280000Y-87725000D03*
D22*
X28650000Y-46170000D03*
X28650000Y-47440000D03*
X28650000Y-48710000D03*
X28650000Y-49980000D03*
X28650000Y-51250000D03*
X28650000Y-52520000D03*
X28650000Y-53790000D03*
X28650000Y-55060000D03*
X28650000Y-56330000D03*
X28650000Y-57600000D03*
X28650000Y-58870000D03*
X28650000Y-60140000D03*
X28650000Y-61410000D03*
X28650000Y-62680000D03*
D23*
X30415000Y-63930000D03*
X31685000Y-63930000D03*
X32955000Y-63930000D03*
X34225000Y-63930000D03*
X35495000Y-63930000D03*
X36765000Y-63930000D03*
X38035000Y-63930000D03*
X39305000Y-63930000D03*
X40575000Y-63930000D03*
X41845000Y-63930000D03*
X43115000Y-63930000D03*
X44385000Y-63930000D03*
D22*
X46150000Y-62680000D03*
X46150000Y-61410000D03*
X46150000Y-60140000D03*
X46150000Y-58870000D03*
X46150000Y-57600000D03*
X46150000Y-56330000D03*
X46150000Y-55060000D03*
X46150000Y-53790000D03*
X46150000Y-52520000D03*
X46150000Y-51250000D03*
X46150000Y-49980000D03*
X46150000Y-48710000D03*
X46150000Y-47440000D03*
X46150000Y-46170000D03*
D24*
X34500000Y-52490000D03*
X34500000Y-53890000D03*
X34500000Y-55290000D03*
X34500000Y-55290000D03*
X35900000Y-52490000D03*
X35900000Y-52490000D03*
X35900000Y-53890000D03*
X35900000Y-55290000D03*
X37300000Y-52490000D03*
X37300000Y-53890000D03*
X37300000Y-55290000D03*
D18*
X13090000Y-77705000D03*
X13090000Y-75880000D03*
X22514999Y-68244995D03*
X22514999Y-66419995D03*
D15*
X17965000Y-75862502D03*
X16140000Y-75862502D03*
D25*
X14609998Y-75867501D03*
X14609998Y-77692501D03*
D10*
X45260000Y-35360000D03*
X45260000Y-37085000D03*
D25*
X40270000Y-83487500D03*
X40270000Y-85312500D03*
D19*
X36970000Y-100720000D03*
X36970000Y-101990000D03*
X36970000Y-103260000D03*
X36970000Y-104530000D03*
X36970000Y-105800000D03*
X36970000Y-107070000D03*
X36970000Y-108340000D03*
X36970000Y-109610000D03*
X41920000Y-109610000D03*
X41920000Y-108340000D03*
X41920000Y-107070000D03*
X41920000Y-105800000D03*
X41920000Y-104530000D03*
X41920000Y-103260000D03*
X41920000Y-101990000D03*
X41920000Y-100720000D03*
D21*
X48770000Y-29750000D03*
X50495000Y-29750000D03*
D26*
X48425002Y-97875001D03*
X50250002Y-97875001D03*
D18*
X33330000Y-29292500D03*
X33330000Y-27467500D03*
D10*
X26810001Y-73464999D03*
X26810001Y-75189999D03*
D12*
X50660001Y-41135001D03*
X50660001Y-39410001D03*
D20*
X13150000Y-59740000D03*
X13150000Y-63340000D03*
D25*
X20994999Y-66414999D03*
X20994999Y-68239999D03*
D26*
X20027500Y-64040000D03*
X21852500Y-64040000D03*
D27*
X51475000Y-71460000D03*
X43525000Y-71460000D03*
X51475000Y-66960000D03*
X43525000Y-66960000D03*
D25*
X16139998Y-77392502D03*
X16139998Y-79217502D03*
D12*
X38689999Y-94315001D03*
X38689999Y-92590001D03*
D16*
X44100000Y-88905000D03*
X42830000Y-88905000D03*
X41560000Y-88905000D03*
X40290000Y-88905000D03*
X40290000Y-93855000D03*
X41560000Y-93855000D03*
X42830000Y-93855000D03*
X44100000Y-93855000D03*
D28*
X35569999Y-113792000D03*
X36219999Y-113792000D03*
X36869999Y-113792000D03*
X37519999Y-113792000D03*
X38169999Y-113792000D03*
D29*
X35869999Y-116492000D03*
X37869999Y-116492000D03*
D15*
X43930001Y-83500001D03*
X42105001Y-83500001D03*
D25*
X39220000Y-75277500D03*
X39220000Y-77102500D03*
D26*
X24075001Y-66630001D03*
X25900001Y-66630001D03*
D30*
X11969998Y-102869999D03*
X11969998Y-100819999D03*
D10*
X49950000Y-94550000D03*
X49950000Y-96275000D03*
D26*
X12757500Y-79232503D03*
X14582500Y-79232503D03*
D25*
X26340000Y-47857500D03*
X26340000Y-49682500D03*
D10*
X37670000Y-77397500D03*
X37670000Y-79122500D03*
D26*
X14545000Y-90690000D03*
X16370000Y-90690000D03*
D15*
X25879996Y-68219998D03*
X24054996Y-68219998D03*
D31*
X33330000Y-24537500D03*
X33330000Y-22437500D03*
M02*
