G04 #@! TF.GenerationSoftware,KiCad,Pcbnew,7.0.9*
G04 #@! TF.CreationDate,2024-06-15T21:38:13-04:00*
G04 #@! TF.ProjectId,MEAP_Rev3c,4d454150-5f52-4657-9633-632e6b696361,rev?*
G04 #@! TF.SameCoordinates,Original*
G04 #@! TF.FileFunction,Copper,L1,Top*
G04 #@! TF.FilePolarity,Positive*
%FSLAX46Y46*%
G04 Gerber Fmt 4.6, Leading zero omitted, Abs format (unit mm)*
G04 Created by KiCad (PCBNEW 7.0.9) date 2024-06-15 21:38:13*
%MOMM*%
%LPD*%
G01*
G04 APERTURE LIST*
G04 Aperture macros list*
%AMRoundRect*
0 Rectangle with rounded corners*
0 $1 Rounding radius*
0 $2 $3 $4 $5 $6 $7 $8 $9 X,Y pos of 4 corners*
0 Add a 4 corners polygon primitive as box body*
4,1,4,$2,$3,$4,$5,$6,$7,$8,$9,$2,$3,0*
0 Add four circle primitives for the rounded corners*
1,1,$1+$1,$2,$3*
1,1,$1+$1,$4,$5*
1,1,$1+$1,$6,$7*
1,1,$1+$1,$8,$9*
0 Add four rect primitives between the rounded corners*
20,1,$1+$1,$2,$3,$4,$5,0*
20,1,$1+$1,$4,$5,$6,$7,0*
20,1,$1+$1,$6,$7,$8,$9,0*
20,1,$1+$1,$8,$9,$2,$3,0*%
G04 Aperture macros list end*
G04 #@! TA.AperFunction,SMDPad,CuDef*
%ADD10RoundRect,0.237500X-0.237500X0.300000X-0.237500X-0.300000X0.237500X-0.300000X0.237500X0.300000X0*%
G04 #@! TD*
G04 #@! TA.AperFunction,ComponentPad*
%ADD11R,1.600000X1.600000*%
G04 #@! TD*
G04 #@! TA.AperFunction,ComponentPad*
%ADD12O,1.600000X1.600000*%
G04 #@! TD*
G04 #@! TA.AperFunction,ComponentPad*
%ADD13C,2.000000*%
G04 #@! TD*
G04 #@! TA.AperFunction,SMDPad,CuDef*
%ADD14RoundRect,0.237500X0.237500X-0.300000X0.237500X0.300000X-0.237500X0.300000X-0.237500X-0.300000X0*%
G04 #@! TD*
G04 #@! TA.AperFunction,ComponentPad*
%ADD15R,1.700000X1.700000*%
G04 #@! TD*
G04 #@! TA.AperFunction,ComponentPad*
%ADD16O,1.700000X1.700000*%
G04 #@! TD*
G04 #@! TA.AperFunction,SMDPad,CuDef*
%ADD17R,2.000000X1.500000*%
G04 #@! TD*
G04 #@! TA.AperFunction,SMDPad,CuDef*
%ADD18R,2.000000X3.800000*%
G04 #@! TD*
G04 #@! TA.AperFunction,SMDPad,CuDef*
%ADD19RoundRect,0.237500X0.250000X0.237500X-0.250000X0.237500X-0.250000X-0.237500X0.250000X-0.237500X0*%
G04 #@! TD*
G04 #@! TA.AperFunction,SMDPad,CuDef*
%ADD20RoundRect,0.150000X-0.150000X0.825000X-0.150000X-0.825000X0.150000X-0.825000X0.150000X0.825000X0*%
G04 #@! TD*
G04 #@! TA.AperFunction,SMDPad,CuDef*
%ADD21RoundRect,0.237500X0.344173X0.021239X-0.038849X0.342632X-0.344173X-0.021239X0.038849X-0.342632X0*%
G04 #@! TD*
G04 #@! TA.AperFunction,SMDPad,CuDef*
%ADD22RoundRect,0.237500X0.237500X-0.250000X0.237500X0.250000X-0.237500X0.250000X-0.237500X-0.250000X0*%
G04 #@! TD*
G04 #@! TA.AperFunction,ComponentPad*
%ADD23O,2.800000X1.800000*%
G04 #@! TD*
G04 #@! TA.AperFunction,SMDPad,CuDef*
%ADD24RoundRect,0.150000X-0.825000X-0.150000X0.825000X-0.150000X0.825000X0.150000X-0.825000X0.150000X0*%
G04 #@! TD*
G04 #@! TA.AperFunction,ComponentPad*
%ADD25R,1.450000X1.450000*%
G04 #@! TD*
G04 #@! TA.AperFunction,ComponentPad*
%ADD26C,1.450000*%
G04 #@! TD*
G04 #@! TA.AperFunction,SMDPad,CuDef*
%ADD27RoundRect,0.250000X-0.337500X-0.475000X0.337500X-0.475000X0.337500X0.475000X-0.337500X0.475000X0*%
G04 #@! TD*
G04 #@! TA.AperFunction,SMDPad,CuDef*
%ADD28RoundRect,0.237500X-0.300000X-0.237500X0.300000X-0.237500X0.300000X0.237500X-0.300000X0.237500X0*%
G04 #@! TD*
G04 #@! TA.AperFunction,SMDPad,CuDef*
%ADD29R,1.500000X0.900000*%
G04 #@! TD*
G04 #@! TA.AperFunction,SMDPad,CuDef*
%ADD30R,0.900000X1.500000*%
G04 #@! TD*
G04 #@! TA.AperFunction,SMDPad,CuDef*
%ADD31R,0.900000X0.900000*%
G04 #@! TD*
G04 #@! TA.AperFunction,SMDPad,CuDef*
%ADD32R,1.250000X1.000000*%
G04 #@! TD*
G04 #@! TA.AperFunction,SMDPad,CuDef*
%ADD33RoundRect,0.237500X-0.237500X0.250000X-0.237500X-0.250000X0.237500X-0.250000X0.237500X0.250000X0*%
G04 #@! TD*
G04 #@! TA.AperFunction,ComponentPad*
%ADD34R,1.800000X1.800000*%
G04 #@! TD*
G04 #@! TA.AperFunction,ComponentPad*
%ADD35C,1.800000*%
G04 #@! TD*
G04 #@! TA.AperFunction,ComponentPad*
%ADD36R,4.000000X4.000000*%
G04 #@! TD*
G04 #@! TA.AperFunction,ComponentPad*
%ADD37RoundRect,1.000000X1.000000X-1.000000X1.000000X1.000000X-1.000000X1.000000X-1.000000X-1.000000X0*%
G04 #@! TD*
G04 #@! TA.AperFunction,SMDPad,CuDef*
%ADD38RoundRect,0.250000X0.337500X0.475000X-0.337500X0.475000X-0.337500X-0.475000X0.337500X-0.475000X0*%
G04 #@! TD*
G04 #@! TA.AperFunction,SMDPad,CuDef*
%ADD39RoundRect,0.237500X-0.250000X-0.237500X0.250000X-0.237500X0.250000X0.237500X-0.250000X0.237500X0*%
G04 #@! TD*
G04 #@! TA.AperFunction,ComponentPad*
%ADD40R,2.200000X2.200000*%
G04 #@! TD*
G04 #@! TA.AperFunction,ComponentPad*
%ADD41O,2.200000X2.200000*%
G04 #@! TD*
G04 #@! TA.AperFunction,SMDPad,CuDef*
%ADD42RoundRect,0.250000X0.475000X-0.337500X0.475000X0.337500X-0.475000X0.337500X-0.475000X-0.337500X0*%
G04 #@! TD*
G04 #@! TA.AperFunction,SMDPad,CuDef*
%ADD43RoundRect,0.250000X-0.475000X0.337500X-0.475000X-0.337500X0.475000X-0.337500X0.475000X0.337500X0*%
G04 #@! TD*
G04 #@! TA.AperFunction,SMDPad,CuDef*
%ADD44R,0.400000X1.350000*%
G04 #@! TD*
G04 #@! TA.AperFunction,ComponentPad*
%ADD45O,1.200000X1.900000*%
G04 #@! TD*
G04 #@! TA.AperFunction,SMDPad,CuDef*
%ADD46R,1.200000X1.900000*%
G04 #@! TD*
G04 #@! TA.AperFunction,SMDPad,CuDef*
%ADD47R,1.500000X1.900000*%
G04 #@! TD*
G04 #@! TA.AperFunction,SMDPad,CuDef*
%ADD48RoundRect,0.250000X0.450000X-0.325000X0.450000X0.325000X-0.450000X0.325000X-0.450000X-0.325000X0*%
G04 #@! TD*
G04 #@! TA.AperFunction,SMDPad,CuDef*
%ADD49RoundRect,0.112500X0.112500X-0.187500X0.112500X0.187500X-0.112500X0.187500X-0.112500X-0.187500X0*%
G04 #@! TD*
G04 #@! TA.AperFunction,ViaPad*
%ADD50C,0.800000*%
G04 #@! TD*
G04 #@! TA.AperFunction,Conductor*
%ADD51C,0.406400*%
G04 #@! TD*
G04 #@! TA.AperFunction,Conductor*
%ADD52C,0.250000*%
G04 #@! TD*
G04 #@! TA.AperFunction,Conductor*
%ADD53C,0.812800*%
G04 #@! TD*
G04 APERTURE END LIST*
D10*
X38640000Y-86507500D03*
X38640000Y-88232500D03*
D11*
X18720000Y-39945000D03*
D12*
X18720000Y-42485000D03*
X26340000Y-42485000D03*
X26340000Y-39945000D03*
D13*
X17930000Y-48200000D03*
D10*
X32500000Y-82247500D03*
X32500000Y-83972500D03*
D13*
X50230000Y-44430000D03*
D14*
X44147500Y-86797502D03*
X44147500Y-85072502D03*
D15*
X47880000Y-101510000D03*
D16*
X50420000Y-101510000D03*
X47880000Y-104050000D03*
X50420000Y-104050000D03*
X47880000Y-106590000D03*
X50420000Y-106590000D03*
X47880000Y-109130000D03*
X50420000Y-109130000D03*
D17*
X18680000Y-79420000D03*
X18680000Y-81720000D03*
X18680000Y-84020000D03*
D18*
X24980000Y-81720000D03*
D19*
X48306999Y-96266001D03*
X46481999Y-96266001D03*
D20*
X51085000Y-32055000D03*
X49815000Y-32055000D03*
X48545000Y-32055000D03*
X47275000Y-32055000D03*
X47275000Y-37005000D03*
X48545000Y-37005000D03*
X49815000Y-37005000D03*
X51085000Y-37005000D03*
D13*
X50150000Y-47750000D03*
D21*
X39560001Y-73330002D03*
X38161969Y-72156914D03*
D22*
X44659999Y-32724999D03*
X44659999Y-30899999D03*
D14*
X32540000Y-76812500D03*
X32540000Y-75087500D03*
D22*
X48400000Y-52242500D03*
X48400000Y-50417500D03*
D13*
X25870000Y-59470000D03*
D10*
X48360000Y-39360000D03*
X48360000Y-41085000D03*
D20*
X25069998Y-70409997D03*
X23799998Y-70409997D03*
X22529998Y-70409997D03*
X21259998Y-70409997D03*
X21259998Y-75359997D03*
X22529998Y-75359997D03*
X23799998Y-75359997D03*
X25069998Y-75359997D03*
D23*
X41140000Y-28590000D03*
X39140000Y-26790000D03*
X39140000Y-20690000D03*
X41140000Y-23090000D03*
X39140000Y-32290000D03*
D24*
X42130000Y-74700000D03*
X42130000Y-75970000D03*
X42130000Y-77240000D03*
X42130000Y-78510000D03*
X47080000Y-78510000D03*
X47080000Y-77240000D03*
X47080000Y-75970000D03*
X47080000Y-74700000D03*
D14*
X45700001Y-94267501D03*
X45700001Y-92542501D03*
D15*
X50230000Y-91720000D03*
D16*
X50230000Y-89180000D03*
D13*
X25860000Y-53210000D03*
D22*
X47290000Y-85672500D03*
X47290000Y-83847500D03*
D25*
X35110000Y-90160000D03*
D26*
X35110000Y-87620000D03*
X35110000Y-85080000D03*
X35110000Y-82540000D03*
X35110000Y-80000000D03*
X35110000Y-77460000D03*
X35110000Y-74920000D03*
X35110000Y-72380000D03*
X35110000Y-69840000D03*
D27*
X27045000Y-71530000D03*
X29120000Y-71530000D03*
D13*
X42650000Y-111950000D03*
D15*
X50360000Y-77350000D03*
D16*
X50360000Y-79890000D03*
X50360000Y-82430000D03*
D28*
X45795000Y-80200000D03*
X47520000Y-80200000D03*
D14*
X47280000Y-89450000D03*
X47280000Y-87725000D03*
D29*
X28650000Y-46170000D03*
X28650000Y-47440000D03*
X28650000Y-48710000D03*
X28650000Y-49980000D03*
X28650000Y-51250000D03*
X28650000Y-52520000D03*
X28650000Y-53790000D03*
X28650000Y-55060000D03*
X28650000Y-56330000D03*
X28650000Y-57600000D03*
X28650000Y-58870000D03*
X28650000Y-60140000D03*
X28650000Y-61410000D03*
X28650000Y-62680000D03*
D30*
X30415000Y-63930000D03*
X31685000Y-63930000D03*
X32955000Y-63930000D03*
X34225000Y-63930000D03*
X35495000Y-63930000D03*
X36765000Y-63930000D03*
X38035000Y-63930000D03*
X39305000Y-63930000D03*
X40575000Y-63930000D03*
X41845000Y-63930000D03*
X43115000Y-63930000D03*
X44385000Y-63930000D03*
D29*
X46150000Y-62680000D03*
X46150000Y-61410000D03*
X46150000Y-60140000D03*
X46150000Y-58870000D03*
X46150000Y-57600000D03*
X46150000Y-56330000D03*
X46150000Y-55060000D03*
X46150000Y-53790000D03*
X46150000Y-52520000D03*
X46150000Y-51250000D03*
X46150000Y-49980000D03*
X46150000Y-48710000D03*
X46150000Y-47440000D03*
X46150000Y-46170000D03*
D31*
X34500000Y-52490000D03*
X34500000Y-53890000D03*
X34500000Y-55290000D03*
X34500000Y-55290000D03*
X35900000Y-52490000D03*
X35900000Y-52490000D03*
X35900000Y-53890000D03*
X35900000Y-55290000D03*
X37300000Y-52490000D03*
X37300000Y-53890000D03*
X37300000Y-55290000D03*
D32*
X43535000Y-71670000D03*
X51285000Y-71670000D03*
D22*
X12910002Y-76497499D03*
X12910002Y-74672499D03*
X22260000Y-68244995D03*
X22260000Y-66419995D03*
D19*
X17882500Y-75090000D03*
X16057500Y-75090000D03*
D33*
X14430000Y-74660000D03*
X14430000Y-76485000D03*
D10*
X45260000Y-35360000D03*
X45260000Y-37085000D03*
D15*
X49210000Y-57610000D03*
D16*
X49210000Y-55070000D03*
D23*
X17140000Y-28545000D03*
X15140000Y-26745000D03*
X15140000Y-20645000D03*
X17140000Y-23045000D03*
X15140000Y-32245000D03*
D13*
X39020000Y-69950000D03*
D33*
X40270000Y-83487500D03*
X40270000Y-85312500D03*
D24*
X36970000Y-100720000D03*
X36970000Y-101990000D03*
X36970000Y-103260000D03*
X36970000Y-104530000D03*
X36970000Y-105800000D03*
X36970000Y-107070000D03*
X36970000Y-108340000D03*
X36970000Y-109610000D03*
X41920000Y-109610000D03*
X41920000Y-108340000D03*
X41920000Y-107070000D03*
X41920000Y-105800000D03*
X41920000Y-104530000D03*
X41920000Y-103260000D03*
X41920000Y-101990000D03*
X41920000Y-100720000D03*
D34*
X49640000Y-63225000D03*
D35*
X49640000Y-60685000D03*
D15*
X20220000Y-96820000D03*
D16*
X20220000Y-99360000D03*
X20220000Y-101900000D03*
D27*
X18115000Y-86540000D03*
X20190000Y-86540000D03*
D36*
X15430000Y-104900000D03*
D37*
X15430000Y-110900000D03*
X20130000Y-107900000D03*
D13*
X25890000Y-56330000D03*
D28*
X48770000Y-29750000D03*
X50495000Y-29750000D03*
D13*
X28660000Y-66510000D03*
D38*
X16360000Y-81460000D03*
X14285000Y-81460000D03*
D13*
X36100000Y-96250000D03*
D39*
X48425002Y-97875001D03*
X50250002Y-97875001D03*
D22*
X33330000Y-29292500D03*
X33330000Y-27467500D03*
D10*
X26810001Y-73464999D03*
X26810001Y-75189999D03*
D40*
X15270000Y-87950000D03*
D41*
X12730000Y-87950000D03*
D14*
X50660001Y-41135001D03*
X50660001Y-39410001D03*
D42*
X23090000Y-48115000D03*
X23090000Y-46040000D03*
D43*
X13150000Y-60502500D03*
X13150000Y-62577500D03*
D33*
X20730000Y-66427500D03*
X20730000Y-68252500D03*
D40*
X15300000Y-84580000D03*
D41*
X12760000Y-84580000D03*
D39*
X20027500Y-64040000D03*
X21852500Y-64040000D03*
D32*
X51300000Y-67330000D03*
X43550000Y-67330000D03*
D33*
X16150000Y-76660000D03*
X16150000Y-78485000D03*
D14*
X38689999Y-94315001D03*
X38689999Y-92590001D03*
D20*
X44100000Y-88905000D03*
X42830000Y-88905000D03*
X41560000Y-88905000D03*
X40290000Y-88905000D03*
X40290000Y-93855000D03*
X41560000Y-93855000D03*
X42830000Y-93855000D03*
X44100000Y-93855000D03*
D15*
X15530000Y-66930000D03*
D16*
X15530000Y-69470000D03*
X15530000Y-72010000D03*
X18070000Y-66930000D03*
X18070000Y-69470000D03*
X18070000Y-72010000D03*
D44*
X35569999Y-113792000D03*
X36219999Y-113792000D03*
X36869999Y-113792000D03*
X37519999Y-113792000D03*
X38169999Y-113792000D03*
D45*
X33369999Y-116492000D03*
D46*
X33969999Y-116492000D03*
D26*
X34369999Y-113792000D03*
D47*
X35869999Y-116492000D03*
X37869999Y-116492000D03*
D26*
X39369999Y-113792000D03*
D46*
X39769999Y-116492000D03*
D45*
X40369999Y-116492000D03*
D19*
X43930001Y-83500001D03*
X42105001Y-83500001D03*
D23*
X29400000Y-28580000D03*
X27400000Y-26780000D03*
X27400000Y-20680000D03*
X29400000Y-23080000D03*
X27400000Y-32280000D03*
D15*
X15380003Y-44459999D03*
D16*
X15380003Y-41919999D03*
X15380003Y-39379999D03*
D33*
X39220000Y-75277500D03*
X39220000Y-77102500D03*
D15*
X24630000Y-87720000D03*
D16*
X27170000Y-87720000D03*
X29710000Y-87720000D03*
D39*
X24075001Y-66630001D03*
X25900001Y-66630001D03*
D48*
X11540000Y-102840000D03*
X11540000Y-100790000D03*
D15*
X20245000Y-59940000D03*
D16*
X17705000Y-59940000D03*
X20245000Y-57400000D03*
X17705000Y-57400000D03*
X20245000Y-54860000D03*
X17705000Y-54860000D03*
X20245000Y-52320000D03*
X17705000Y-52320000D03*
D15*
X15480000Y-98470000D03*
D16*
X15480000Y-95930000D03*
X15480000Y-93390000D03*
D10*
X49950000Y-94550000D03*
X49950000Y-96275000D03*
D39*
X12717500Y-78030000D03*
X14542500Y-78030000D03*
D33*
X26340000Y-47857500D03*
X26340000Y-49682500D03*
D10*
X37670000Y-77397500D03*
X37670000Y-79122500D03*
D13*
X33490000Y-66600000D03*
D19*
X16370000Y-101160000D03*
X14545000Y-101160000D03*
X26072500Y-68250000D03*
X24247500Y-68250000D03*
D49*
X33330000Y-24537500D03*
X33330000Y-22437500D03*
D11*
X23800000Y-91695000D03*
D12*
X23800000Y-94235000D03*
X23800000Y-96775000D03*
X23800000Y-99315000D03*
X23800000Y-101855000D03*
X23800000Y-104395000D03*
X23800000Y-106935000D03*
X23800000Y-109475000D03*
X31420000Y-109475000D03*
X31420000Y-106935000D03*
X31420000Y-104395000D03*
X31420000Y-101855000D03*
X31420000Y-99315000D03*
X31420000Y-96775000D03*
X31420000Y-94235000D03*
X31420000Y-91695000D03*
D13*
X37970000Y-67030000D03*
D34*
X21124999Y-93060001D03*
D35*
X18584999Y-93060001D03*
D50*
X46520000Y-30410000D03*
X45740000Y-70990000D03*
X13940000Y-79940000D03*
X43790000Y-79020000D03*
X12790000Y-72750000D03*
X21290000Y-45650000D03*
X37590000Y-90860000D03*
X39761765Y-78361765D03*
X19770000Y-89130000D03*
X20380000Y-79700000D03*
X20210000Y-69780000D03*
X41270000Y-91840163D03*
X50300000Y-56080000D03*
X51520000Y-64610000D03*
X47270000Y-81330000D03*
X47130000Y-94170000D03*
X40600000Y-99530000D03*
X36620000Y-23390000D03*
X31900000Y-78180000D03*
X37560000Y-86150000D03*
X37200000Y-87110000D03*
X46190000Y-63800000D03*
X31840000Y-49200000D03*
X36920000Y-62470000D03*
X26901644Y-79410000D03*
X36880000Y-72970000D03*
X18120000Y-63015014D03*
X19100000Y-74920000D03*
X44450000Y-47420000D03*
X44710000Y-48650000D03*
X30170000Y-48910000D03*
X30180000Y-50110000D03*
X30160000Y-52090000D03*
X29880000Y-53830000D03*
X30210000Y-60020000D03*
X25780000Y-62450000D03*
X25640000Y-108720000D03*
X26860000Y-62760000D03*
X26480000Y-107180000D03*
X30180000Y-58220000D03*
X22510000Y-57960000D03*
X39600000Y-62370000D03*
X47420000Y-62640000D03*
X41950000Y-47260000D03*
X42920000Y-48320000D03*
X44640000Y-54130000D03*
X44670000Y-52620000D03*
X30510000Y-74950000D03*
X34210000Y-62340000D03*
X30630000Y-76570000D03*
X35510000Y-62430000D03*
X34180000Y-108310000D03*
X28640000Y-75980000D03*
X31690000Y-62350000D03*
X34700000Y-107440000D03*
X49390000Y-68000000D03*
X43820000Y-108330000D03*
X34640000Y-106380000D03*
X33040000Y-62350000D03*
X29570000Y-76490000D03*
X45640000Y-99600000D03*
X40050000Y-81850000D03*
X37460000Y-74010000D03*
X49680000Y-33940000D03*
X47050000Y-33840000D03*
X49390000Y-28690000D03*
X51050000Y-33860000D03*
X44830000Y-33961466D03*
X50200000Y-35520000D03*
X22520000Y-71810000D03*
X17300000Y-76630000D03*
X25180000Y-65630000D03*
X20730000Y-73740000D03*
X24000000Y-77800000D03*
D51*
X38290000Y-106490000D02*
X36970000Y-107070000D01*
D52*
X42130000Y-78510000D02*
X39761765Y-78361765D01*
D51*
X46520000Y-30410000D02*
X47275000Y-32055000D01*
D53*
X49890000Y-41251538D02*
X50660001Y-41135001D01*
D51*
X33969999Y-116492000D02*
X35869999Y-116492000D01*
D53*
X40020000Y-91830000D02*
X38689999Y-92590001D01*
D51*
X21030000Y-64260000D02*
X20944667Y-63300000D01*
D53*
X35900000Y-55290000D02*
X34500000Y-55290000D01*
X41270000Y-91840163D02*
X40020000Y-91830000D01*
X32660000Y-80410000D02*
X35110000Y-80000000D01*
X23820000Y-96690000D02*
X23820000Y-94150000D01*
X20190000Y-86540000D02*
X22120000Y-85040000D01*
X35110000Y-90160000D02*
X33540076Y-88330000D01*
X21460000Y-73150000D02*
X20660000Y-72500000D01*
D51*
X41790000Y-115930000D02*
X40369999Y-116492000D01*
D53*
X46150000Y-46170000D02*
X47510000Y-45390000D01*
D51*
X20120000Y-65220000D02*
X20800000Y-65130000D01*
D53*
X36030000Y-46170000D02*
X28650000Y-46170000D01*
X35900000Y-52490000D02*
X36030000Y-46170000D01*
D51*
X44520000Y-112240000D02*
X43690000Y-113750000D01*
X44840000Y-108160000D02*
X43430000Y-106470000D01*
D53*
X34500000Y-53890000D02*
X35900000Y-53890000D01*
X14930000Y-60560000D02*
X17100000Y-63390000D01*
X23820000Y-94150000D02*
X23820000Y-91610000D01*
X51300000Y-67330000D02*
X51285000Y-71670000D01*
D51*
X32540000Y-75087500D02*
X35110000Y-74920000D01*
D53*
X46150000Y-46170000D02*
X36030000Y-46170000D01*
D51*
X20730000Y-68252500D02*
X20210000Y-69780000D01*
D53*
X35110000Y-80000000D02*
X37670000Y-79122500D01*
D51*
X38169999Y-113792000D02*
X39369999Y-113792000D01*
D53*
X30753493Y-73926507D02*
X32540000Y-75087500D01*
X13600000Y-42560000D02*
X11880000Y-34170000D01*
X36970000Y-108340000D02*
X36970000Y-109610000D01*
X20660000Y-72500000D02*
X18070000Y-72010000D01*
X21290000Y-45650000D02*
X23090000Y-46040000D01*
X33800000Y-78390000D02*
X33820000Y-76670000D01*
D51*
X20800000Y-65130000D02*
X21030000Y-64260000D01*
D53*
X26810001Y-73464999D02*
X23950000Y-73150000D01*
X32500000Y-82247500D02*
X32660000Y-80410000D01*
X11880000Y-34170000D02*
X11900982Y-29540000D01*
X30340000Y-83670000D02*
X30120000Y-81940000D01*
X20220000Y-101900000D02*
X15430000Y-104900000D01*
X17100000Y-63390000D02*
X17977043Y-64352957D01*
X17977043Y-64352957D02*
X19190693Y-63330693D01*
X34500000Y-52490000D02*
X34500000Y-53890000D01*
X23820000Y-109390000D02*
X23820000Y-106850000D01*
D51*
X20120000Y-65220000D02*
X19840000Y-66240000D01*
D53*
X20220000Y-99360000D02*
X15480000Y-98470000D01*
X12770000Y-22750000D02*
X15140000Y-20645000D01*
D51*
X44300000Y-109540000D02*
X44520000Y-112240000D01*
D53*
X20210000Y-69780000D02*
X21259998Y-70409997D01*
D51*
X42120000Y-106440000D02*
X40050000Y-106440000D01*
D53*
X20380000Y-79700000D02*
X18680000Y-79420000D01*
X47510000Y-45390000D02*
X48360000Y-41260000D01*
D51*
X20000000Y-67680000D02*
X20730000Y-68252500D01*
D53*
X23820000Y-106850000D02*
X23820000Y-104310000D01*
D51*
X33369999Y-116492000D02*
X33969999Y-116492000D01*
D53*
X35900000Y-53890000D02*
X35900000Y-52490000D01*
D51*
X43690000Y-113750000D02*
X41790000Y-115930000D01*
X37869999Y-116492000D02*
X39769999Y-116492000D01*
X40050000Y-106440000D02*
X38290000Y-106490000D01*
D53*
X35900000Y-53890000D02*
X37300000Y-53890000D01*
X37300000Y-53890000D02*
X37300000Y-55290000D01*
X23820000Y-99230000D02*
X23820000Y-96690000D01*
X51285000Y-71670000D02*
X45740000Y-70990000D01*
X15380003Y-44459999D02*
X14020000Y-52530000D01*
X33820000Y-76670000D02*
X35110000Y-74920000D01*
X35900000Y-53890000D02*
X35900000Y-55290000D01*
D51*
X19840000Y-66240000D02*
X20000000Y-67680000D01*
D53*
X35900000Y-52490000D02*
X34500000Y-52490000D01*
X28060000Y-73515177D02*
X26810001Y-73464999D01*
D51*
X40369999Y-116492000D02*
X39769999Y-116492000D01*
D53*
X37300000Y-55290000D02*
X35900000Y-55290000D01*
X49890000Y-41251538D02*
X48360000Y-41260000D01*
D51*
X44300000Y-109540000D02*
X44840000Y-108160000D01*
D53*
X20220000Y-96820000D02*
X23820000Y-96690000D01*
X23820000Y-101770000D02*
X23820000Y-99230000D01*
X30753493Y-73926507D02*
X28960000Y-73652618D01*
X36970000Y-107070000D02*
X36970000Y-108340000D01*
X15380003Y-44459999D02*
X13600000Y-42560000D01*
D51*
X20240000Y-63073941D02*
X19190693Y-63330693D01*
D53*
X20220000Y-99360000D02*
X20220000Y-96820000D01*
X14830000Y-57760000D02*
X14930000Y-60560000D01*
X45700001Y-92542501D02*
X43710000Y-91860000D01*
X11900982Y-29540000D02*
X12770000Y-22750000D01*
D51*
X39369999Y-113792000D02*
X40369999Y-116492000D01*
D53*
X22050000Y-80920000D02*
X20380000Y-79700000D01*
D51*
X43430000Y-106470000D02*
X42120000Y-106440000D01*
D53*
X22120000Y-85040000D02*
X22050000Y-80920000D01*
X43710000Y-91860000D02*
X41270000Y-91840163D01*
X35110000Y-80000000D02*
X33800000Y-78390000D01*
X28960000Y-73652618D02*
X29120000Y-71530000D01*
X18070000Y-72010000D02*
X19781543Y-71151543D01*
X14285000Y-81460000D02*
X13940000Y-79940000D01*
X28960000Y-73652618D02*
X28060000Y-73515177D01*
X33335426Y-86020000D02*
X33540076Y-88330000D01*
X23820000Y-104310000D02*
X23820000Y-101770000D01*
X37670000Y-79122500D02*
X39761765Y-78361765D01*
X34500000Y-55290000D02*
X34500000Y-53890000D01*
X38689999Y-92590001D02*
X38669804Y-90830000D01*
X37300000Y-52490000D02*
X35900000Y-52490000D01*
D51*
X40290000Y-88905000D02*
X38640000Y-88232500D01*
D53*
X45795000Y-80200000D02*
X43790000Y-79020000D01*
D52*
X42130000Y-78510000D02*
X43790000Y-79020000D01*
D53*
X12790000Y-72750000D02*
X12910002Y-74672499D01*
X30120000Y-81940000D02*
X32660000Y-80410000D01*
X37300000Y-52490000D02*
X37300000Y-53890000D01*
X19781543Y-71151543D02*
X21259998Y-70409997D01*
X23950000Y-73150000D02*
X21460000Y-73150000D01*
X15480000Y-98470000D02*
X14545000Y-101160000D01*
X37590000Y-90860000D02*
X38669804Y-90830000D01*
X20220000Y-101900000D02*
X20220000Y-99360000D01*
X28650000Y-46170000D02*
X26130000Y-42495000D01*
X14020000Y-52530000D02*
X14830000Y-57760000D01*
D52*
X42130000Y-78510000D02*
X42000000Y-78620000D01*
D53*
X20190000Y-86540000D02*
X19770000Y-89130000D01*
X15140000Y-20645000D02*
X27400000Y-20680000D01*
D51*
X35869999Y-116492000D02*
X37869999Y-116492000D01*
D53*
X50620000Y-41247500D02*
X49890000Y-41251538D01*
X33335426Y-86020000D02*
X30877549Y-84232451D01*
X30877549Y-84232451D02*
X30340000Y-83670000D01*
X38669804Y-90830000D02*
X38640000Y-88232500D01*
D51*
X20944667Y-63300000D02*
X20240000Y-63073941D01*
D53*
X24170000Y-39400000D02*
X24380000Y-35900000D01*
X24630000Y-87720000D02*
X21500000Y-89310000D01*
X26340000Y-47770000D02*
X28650000Y-47440000D01*
D51*
X50300000Y-56080000D02*
X52068600Y-56090000D01*
D53*
X52068600Y-52520000D02*
X48400000Y-52330000D01*
X26340000Y-47770000D02*
X24500000Y-44120000D01*
X47270000Y-81330000D02*
X47520000Y-80200000D01*
X51520000Y-64610000D02*
X52068600Y-61610000D01*
X18680000Y-81720000D02*
X16360000Y-81460000D01*
X24500000Y-44120000D02*
X24170000Y-39400000D01*
D51*
X44100000Y-93855000D02*
X45700001Y-94267501D01*
D53*
X17360000Y-43170000D02*
X18580000Y-44260000D01*
D51*
X19350000Y-85600000D02*
X20560000Y-84480000D01*
D53*
X19410000Y-90520000D02*
X15480000Y-93390000D01*
X15380003Y-39379999D02*
X16590000Y-41110000D01*
X52068600Y-56090000D02*
X52068600Y-52520000D01*
D51*
X45700001Y-94267501D02*
X47130000Y-94170000D01*
D53*
X25690000Y-34610000D02*
X28200000Y-34540000D01*
X18680000Y-81720000D02*
X20226550Y-82503450D01*
X52068600Y-27200000D02*
X47480000Y-27720000D01*
D51*
X18960000Y-87550000D02*
X19250000Y-86310000D01*
D53*
X42960000Y-26260000D02*
X39850000Y-24495413D01*
X34060000Y-32240000D02*
X35940000Y-29650000D01*
X47480000Y-27720000D02*
X42960000Y-26260000D01*
D51*
X41920000Y-100720000D02*
X40600000Y-99530000D01*
D53*
X51085000Y-37005000D02*
X52068600Y-37130000D01*
X35940000Y-29650000D02*
X36620000Y-23390000D01*
X24630000Y-87720000D02*
X24980000Y-81720000D01*
D51*
X19250000Y-86310000D02*
X19350000Y-85600000D01*
X15480000Y-93390000D02*
X16385012Y-92325012D01*
X47520000Y-80200000D02*
X47080000Y-78510000D01*
D53*
X52068600Y-52520000D02*
X52068600Y-37130000D01*
X52068600Y-37130000D02*
X52068600Y-27200000D01*
X21500000Y-89310000D02*
X19410000Y-90520000D01*
X50759983Y-38520000D02*
X51085000Y-37005000D01*
X18580000Y-44260000D02*
X24500000Y-44120000D01*
X36620000Y-23390000D02*
X39850000Y-24495413D01*
D51*
X16470000Y-89870000D02*
X18960000Y-87550000D01*
D53*
X50759983Y-38520000D02*
X50660001Y-39410001D01*
X28200000Y-34540000D02*
X29810000Y-34590000D01*
X29810000Y-34590000D02*
X34060000Y-32240000D01*
X24380000Y-35900000D02*
X25690000Y-34610000D01*
X52068600Y-61610000D02*
X52068600Y-56090000D01*
X20226550Y-82503450D02*
X20560000Y-84480000D01*
X16590000Y-41110000D02*
X17360000Y-43170000D01*
X50620000Y-39172500D02*
X50759983Y-38520000D01*
D51*
X16385012Y-92325012D02*
X16470000Y-89870000D01*
X31900000Y-78180000D02*
X32540000Y-76812500D01*
X36470000Y-70510000D02*
X35110000Y-69840000D01*
X38161969Y-72156914D02*
X36470000Y-70510000D01*
X39220000Y-77102500D02*
X37670000Y-77397500D01*
X37670000Y-77397500D02*
X35110000Y-77460000D01*
X39670000Y-81150000D02*
X37000000Y-82560000D01*
X36194052Y-85714052D02*
X37000000Y-82560000D01*
X45622480Y-83407520D02*
X44190000Y-82550000D01*
X44190000Y-82550000D02*
X40420000Y-81090870D01*
X35110000Y-87620000D02*
X36194052Y-85714052D01*
X39670000Y-81150000D02*
X40420000Y-81090870D01*
X47280000Y-89625000D02*
X45850000Y-88330000D01*
X47280000Y-89450000D02*
X50230000Y-91720000D01*
X45720000Y-83540000D02*
X45622480Y-83407520D01*
X45850000Y-88330000D02*
X45720000Y-83540000D01*
X47290000Y-85760000D02*
X47280000Y-87550000D01*
X39250000Y-84370000D02*
X37760000Y-85230000D01*
X42830000Y-88905000D02*
X44100000Y-88905000D01*
X44147500Y-86797502D02*
X41680000Y-84650000D01*
X41010000Y-84370000D02*
X39250000Y-84370000D01*
X41680000Y-84650000D02*
X41010000Y-84370000D01*
X44100000Y-88905000D02*
X44147500Y-86797502D01*
X37760000Y-85230000D02*
X37560000Y-86150000D01*
X40270000Y-83487500D02*
X42000000Y-83477500D01*
X42000000Y-83477500D02*
X44147500Y-85072502D01*
X20210000Y-74881966D02*
X19370000Y-74190000D01*
X14260000Y-72900000D02*
X12900000Y-66980000D01*
X14430000Y-74660000D02*
X14503333Y-73386667D01*
X19370000Y-74190000D02*
X16450000Y-74070000D01*
X20460000Y-74890000D02*
X21259998Y-75359997D01*
X20210000Y-74881966D02*
X20460000Y-74890000D01*
X12900000Y-66980000D02*
X13150000Y-63340000D01*
X14503333Y-73386667D02*
X14260000Y-72900000D01*
X16450000Y-74070000D02*
X14503333Y-73386667D01*
X48530000Y-94875417D02*
X47450000Y-92910000D01*
X37920000Y-87380000D02*
X37200000Y-87110000D01*
X48530000Y-94875417D02*
X47070000Y-95210000D01*
X42950000Y-95190000D02*
X42830000Y-93855000D01*
X40920000Y-87250000D02*
X39670000Y-87320000D01*
X44700000Y-95420000D02*
X42950000Y-95190000D01*
X39670000Y-87320000D02*
X39080000Y-87380000D01*
X41170000Y-90420000D02*
X40900000Y-89730000D01*
X47450000Y-92910000D02*
X45950000Y-91090000D01*
X49950000Y-94550000D02*
X48530000Y-94875417D01*
X41560000Y-93855000D02*
X42830000Y-93855000D01*
X45770000Y-95250000D02*
X44700000Y-95420000D01*
X45950000Y-91090000D02*
X41170000Y-90420000D01*
X39080000Y-87380000D02*
X37920000Y-87380000D01*
X40900000Y-89730000D02*
X40920000Y-87250000D01*
X47070000Y-95210000D02*
X45770000Y-95250000D01*
X48306999Y-96266001D02*
X49950000Y-96275000D01*
X49950000Y-96275000D02*
X50250002Y-97875001D01*
X43896953Y-96154772D02*
X40440000Y-95750000D01*
X38689999Y-94315001D02*
X40290000Y-93855000D01*
X40440000Y-95750000D02*
X40290000Y-93855000D01*
X46481999Y-96266001D02*
X43896953Y-96154772D01*
X30820000Y-48170000D02*
X29860000Y-48120000D01*
X29860000Y-48120000D02*
X28650000Y-48710000D01*
X31840000Y-49200000D02*
X30820000Y-48170000D01*
D53*
X26340000Y-49682500D02*
X23090000Y-48115000D01*
D51*
X45470000Y-64980000D02*
X46190000Y-63800000D01*
X43550000Y-67330000D02*
X45470000Y-64980000D01*
X26340000Y-49770000D02*
X28650000Y-48710000D01*
X25425405Y-26555405D02*
X25840000Y-25790000D01*
X21200000Y-34090000D02*
X18720000Y-39945000D01*
X25840000Y-25790000D02*
X26466643Y-25386643D01*
X27640000Y-25152500D02*
X28390000Y-25090000D01*
X33330000Y-24537500D02*
X33330000Y-27380000D01*
X28390000Y-25090000D02*
X33330000Y-24537500D01*
X25425405Y-26555405D02*
X21200000Y-34090000D01*
X26466643Y-25386643D02*
X27640000Y-25152500D01*
X17200000Y-40400000D02*
X17650000Y-41710000D01*
X26271837Y-24181837D02*
X27250000Y-23604390D01*
X22120000Y-30700000D02*
X24973974Y-25833974D01*
X27250000Y-23604390D02*
X29400000Y-23080000D01*
X17650000Y-41710000D02*
X18670000Y-42485000D01*
X29400000Y-23080000D02*
X33330000Y-22437500D01*
X26271837Y-24181837D02*
X24973974Y-25833974D01*
X17350000Y-38670000D02*
X17200000Y-40400000D01*
X17350000Y-38670000D02*
X22120000Y-30700000D01*
X44390000Y-60530000D02*
X37610000Y-61630000D01*
X19960000Y-91890000D02*
X22760000Y-89622080D01*
X19960000Y-91890000D02*
X18584999Y-93060001D01*
X25540000Y-89400313D02*
X22760000Y-89622080D01*
X25989033Y-87430000D02*
X25980000Y-88410000D01*
X26059623Y-87110000D02*
X25989033Y-87430000D01*
X46150000Y-60140000D02*
X44390000Y-60530000D01*
X26663052Y-85753052D02*
X26059623Y-87110000D01*
X25980000Y-88410000D02*
X25940625Y-89040000D01*
X25940625Y-89040000D02*
X25540000Y-89400313D01*
X26901644Y-79410000D02*
X26663052Y-79648592D01*
X37610000Y-61630000D02*
X36920000Y-62470000D01*
X26663052Y-79648592D02*
X26663052Y-85753052D01*
X47490000Y-58960000D02*
X46150000Y-58870000D01*
X49640000Y-60685000D02*
X47490000Y-58960000D01*
D53*
X11290000Y-109380000D02*
X11540000Y-102840000D01*
X15430000Y-110900000D02*
X11840000Y-110620000D01*
X11840000Y-110620000D02*
X11290000Y-109380000D01*
D51*
X41460000Y-80830000D02*
X44636431Y-82163569D01*
X50230000Y-89180000D02*
X48506435Y-85483565D01*
X39960000Y-80526621D02*
X39060000Y-80770095D01*
X36530000Y-82010000D02*
X35110000Y-82540000D01*
X47290000Y-83847500D02*
X44636431Y-82163569D01*
X39060000Y-80770095D02*
X36530000Y-82010000D01*
X40300000Y-80514855D02*
X41460000Y-80830000D01*
X48506435Y-85483565D02*
X47290000Y-83847500D01*
X39960000Y-80526621D02*
X40300000Y-80514855D01*
X43427889Y-98658923D02*
X43140000Y-100030000D01*
X43500000Y-101600000D02*
X43140000Y-100030000D01*
X47300000Y-105330000D02*
X50310000Y-105400000D01*
X50310000Y-105400000D02*
X50420000Y-104050000D01*
X39331679Y-98639971D02*
X41243712Y-98462735D01*
X47300000Y-105330000D02*
X46062985Y-104849918D01*
X36970000Y-105800000D02*
X39370000Y-105757143D01*
X39370000Y-105757143D02*
X39331679Y-98639971D01*
X41243712Y-98462735D02*
X43427889Y-98658923D01*
X46062985Y-104849918D02*
X43500000Y-101600000D01*
X47880000Y-104050000D02*
X46210000Y-104020000D01*
X46210000Y-104020000D02*
X44070000Y-101390000D01*
X38840000Y-104523415D02*
X36970000Y-104530000D01*
X41386555Y-97942021D02*
X38824088Y-98164589D01*
X38824088Y-98164589D02*
X38840000Y-104523415D01*
X44058561Y-98214130D02*
X41386555Y-97942021D01*
X43694982Y-100030000D02*
X44058561Y-98214130D01*
X44070000Y-101390000D02*
X43694982Y-100030000D01*
X49910000Y-102830000D02*
X50420000Y-101510000D01*
X38320000Y-100200000D02*
X38292238Y-97704558D01*
X38292238Y-97704558D02*
X41332530Y-97427500D01*
X46640000Y-102850000D02*
X44610000Y-100990000D01*
X41332530Y-97427500D02*
X44567108Y-97756900D01*
X36970000Y-101990000D02*
X38320000Y-101942000D01*
X46640000Y-102850000D02*
X48380000Y-102860000D01*
X38320000Y-101942000D02*
X38320000Y-100200000D01*
X44567108Y-97756900D02*
X44727330Y-98643405D01*
X44402702Y-100400000D02*
X44386874Y-99216874D01*
X48380000Y-102860000D02*
X49910000Y-102830000D01*
X44610000Y-100990000D02*
X44402702Y-100400000D01*
X44727330Y-98643405D02*
X44386874Y-99216874D01*
X44916414Y-99710000D02*
X44940548Y-99330548D01*
X45032573Y-100665042D02*
X44916414Y-99710000D01*
X44983065Y-97292299D02*
X41428911Y-96910219D01*
X44940548Y-99330548D02*
X45300000Y-98640000D01*
X41428911Y-96910219D02*
X37889438Y-97232767D01*
X45032573Y-100665042D02*
X46450000Y-101830000D01*
X45300000Y-98640000D02*
X44983065Y-97292299D01*
X37889438Y-97232767D02*
X36970000Y-100720000D01*
X46450000Y-101830000D02*
X47880000Y-101510000D01*
X44173954Y-105012294D02*
X41920000Y-104530000D01*
X46750000Y-108020000D02*
X44173954Y-105012294D01*
X47880000Y-109130000D02*
X46750000Y-108020000D01*
X47360000Y-107901723D02*
X44060000Y-104110000D01*
X49420000Y-107840000D02*
X50420000Y-106590000D01*
X47360000Y-107901723D02*
X49420000Y-107840000D01*
X44060000Y-104110000D02*
X41920000Y-103260000D01*
X46640000Y-106280000D02*
X43160000Y-102296971D01*
X41920000Y-101990000D02*
X43160000Y-102296971D01*
X47880000Y-106590000D02*
X46640000Y-106280000D01*
X49620000Y-110590000D02*
X50420000Y-109130000D01*
X46400000Y-108390000D02*
X44020000Y-105740000D01*
X44020000Y-105740000D02*
X41920000Y-105800000D01*
X47080000Y-110523333D02*
X48080000Y-110590000D01*
X46570000Y-109430000D02*
X46400000Y-108390000D01*
X47080000Y-110523333D02*
X46570000Y-109430000D01*
X48080000Y-110590000D02*
X49620000Y-110590000D01*
X30552124Y-70207876D02*
X28740000Y-69972000D01*
X26674519Y-67474519D02*
X26711041Y-66700000D01*
X36880000Y-72970000D02*
X36520000Y-71910000D01*
X19813558Y-62283558D02*
X18120000Y-63015014D01*
X36520000Y-71910000D02*
X35820000Y-70910000D01*
X19813558Y-62283558D02*
X22624560Y-62745440D01*
X34880000Y-70910000D02*
X34190000Y-70959522D01*
X27660000Y-69900000D02*
X28740000Y-69972000D01*
X34190000Y-70959522D02*
X32790000Y-71060000D01*
X22624560Y-62745440D02*
X24836622Y-63952309D01*
X31560000Y-70890000D02*
X30552124Y-70207876D01*
X26711041Y-66700000D02*
X26712614Y-65860000D01*
X35820000Y-70910000D02*
X34880000Y-70910000D01*
X25069998Y-70409997D02*
X25879996Y-68219998D01*
X32790000Y-71060000D02*
X31560000Y-70890000D01*
X26072500Y-68250000D02*
X26674519Y-67474519D01*
X26712614Y-65860000D02*
X24836622Y-63952309D01*
X25879996Y-68219998D02*
X27660000Y-69900000D01*
X23150000Y-76630000D02*
X21040000Y-76680000D01*
X21040000Y-76680000D02*
X20060000Y-76300000D01*
X17882500Y-75090000D02*
X19100000Y-74920000D01*
X23799998Y-75359997D02*
X23150000Y-76630000D01*
X20060000Y-76300000D02*
X17882500Y-75090000D01*
X46150000Y-56330000D02*
X49210000Y-57610000D01*
X46150000Y-55060000D02*
X49210000Y-55070000D01*
X46150000Y-47440000D02*
X44450000Y-47420000D01*
X44710000Y-48650000D02*
X46150000Y-48710000D01*
X26400000Y-63449928D02*
X25430000Y-63080569D01*
X24933119Y-62646881D02*
X24040000Y-61300000D01*
X24040000Y-61300000D02*
X20245000Y-57400000D01*
X30415000Y-63930000D02*
X26400000Y-63449928D01*
X25430000Y-63080569D02*
X24933119Y-62646881D01*
X30170000Y-48910000D02*
X29577052Y-49577051D01*
X29577052Y-49577051D02*
X28650000Y-49980000D01*
X29760000Y-50860000D02*
X28650000Y-51250000D01*
X30180000Y-50110000D02*
X29760000Y-50860000D01*
X28650000Y-52520000D02*
X30160000Y-52090000D01*
X28650000Y-53790000D02*
X29880000Y-53830000D01*
X30210000Y-60020000D02*
X28650000Y-60140000D01*
X28650000Y-55060000D02*
X27290000Y-54670000D01*
X27290000Y-54670000D02*
X25860000Y-53210000D01*
X28650000Y-56330000D02*
X25890000Y-56330000D01*
X36370000Y-65250000D02*
X36765000Y-63930000D01*
X33490000Y-66600000D02*
X36370000Y-65250000D01*
X37970000Y-67030000D02*
X38035000Y-63930000D01*
X16410000Y-80040000D02*
X17070000Y-79240000D01*
D53*
X34950000Y-81308600D02*
X33880000Y-81470000D01*
D51*
X24598729Y-78518729D02*
X24991456Y-78031456D01*
X19400000Y-70390000D02*
X19459636Y-68750000D01*
X17070000Y-79240000D02*
X17180000Y-78620000D01*
X25069998Y-75359997D02*
X26810001Y-75189999D01*
X14250000Y-79120000D02*
X15060000Y-79440000D01*
D53*
X14493750Y-83186250D02*
X15300000Y-84580000D01*
X36310000Y-81110000D02*
X34950000Y-81308600D01*
X44370000Y-80900000D02*
X41240000Y-79490000D01*
D51*
X11700000Y-61710000D02*
X13570000Y-61530000D01*
X15060000Y-79440000D02*
X16410000Y-80040000D01*
D53*
X47320000Y-82650000D02*
X44370000Y-80900000D01*
D51*
X12717500Y-78030000D02*
X14250000Y-79120000D01*
X18910000Y-78080000D02*
X20240000Y-78440000D01*
X13970000Y-68360000D02*
X16470000Y-68230000D01*
X11573832Y-76760000D02*
X11700000Y-61710000D01*
D53*
X18680000Y-84020000D02*
X18115000Y-86540000D01*
X39020000Y-79830000D02*
X36310000Y-81110000D01*
D51*
X16470000Y-68230000D02*
X16830000Y-69030000D01*
X14150000Y-61750000D02*
X14920000Y-63630000D01*
X13570000Y-61530000D02*
X14150000Y-61750000D01*
X19160000Y-65520000D02*
X20027500Y-64040000D01*
D53*
X32500000Y-83972500D02*
X33600518Y-84439482D01*
D51*
X16923384Y-70510159D02*
X17910000Y-70710000D01*
D53*
X33600518Y-84439482D02*
X35110000Y-85080000D01*
D51*
X17180000Y-78620000D02*
X17720000Y-78180000D01*
D53*
X41240000Y-79490000D02*
X39020000Y-79830000D01*
D51*
X16830000Y-69030000D02*
X16923384Y-70510159D01*
X25123836Y-77340000D02*
X25069998Y-75359997D01*
D53*
X12900000Y-82790000D02*
X12911773Y-79840000D01*
X33880000Y-81470000D02*
X33600518Y-84439482D01*
D51*
X19459636Y-68750000D02*
X19160000Y-65520000D01*
X14040000Y-65760000D02*
X13970000Y-68360000D01*
X17910000Y-70710000D02*
X19400000Y-70390000D01*
X12717500Y-78030000D02*
X11573832Y-76760000D01*
X14920000Y-63630000D02*
X14040000Y-65760000D01*
D53*
X50360000Y-82430000D02*
X47320000Y-82650000D01*
X18115000Y-86540000D02*
X15270000Y-87950000D01*
D51*
X20240000Y-78440000D02*
X24598729Y-78518729D01*
D53*
X18680000Y-84020000D02*
X15300000Y-84580000D01*
X12911773Y-79840000D02*
X12717500Y-78030000D01*
D51*
X24991456Y-78031456D02*
X25123836Y-77340000D01*
X17720000Y-78180000D02*
X18910000Y-78080000D01*
D53*
X14493750Y-83186250D02*
X12900000Y-82790000D01*
D51*
X28180000Y-111300000D02*
X34920000Y-112610397D01*
X28650000Y-61410000D02*
X26700000Y-61710000D01*
X25640000Y-108720000D02*
X28180000Y-111300000D01*
X36230000Y-112600000D02*
X34920000Y-112610397D01*
X26700000Y-61710000D02*
X25780000Y-62450000D01*
X36219999Y-113792000D02*
X36230000Y-112600000D01*
X26860000Y-62760000D02*
X28650000Y-62680000D01*
X30300000Y-110530000D02*
X26480000Y-107180000D01*
X36869999Y-113792000D02*
X36850000Y-112040000D01*
X35000000Y-112040000D02*
X30300000Y-110530000D01*
X36850000Y-112040000D02*
X35000000Y-112040000D01*
X33330000Y-29380000D02*
X29400000Y-28580000D01*
X18960000Y-52520000D02*
X18960000Y-51500000D01*
X21684822Y-54105178D02*
X21200000Y-53590000D01*
X20470000Y-53590000D02*
X19040000Y-53570000D01*
X28650000Y-58870000D02*
X30180000Y-58220000D01*
X19040000Y-53570000D02*
X18960000Y-52520000D01*
X21200000Y-53590000D02*
X20470000Y-53590000D01*
X18960000Y-51500000D02*
X17930000Y-48200000D01*
X22033844Y-55070000D02*
X21684822Y-54105178D01*
X22510000Y-57960000D02*
X22033844Y-55070000D01*
X25870000Y-59470000D02*
X27040000Y-58210000D01*
X27040000Y-58210000D02*
X28650000Y-57600000D01*
X43140000Y-61640000D02*
X41220000Y-62110000D01*
X46150000Y-61410000D02*
X43140000Y-61640000D01*
X41220000Y-62110000D02*
X39600000Y-62370000D01*
X48050000Y-64570000D02*
X47420000Y-62640000D01*
X50180000Y-68150000D02*
X49970000Y-66960000D01*
X48220000Y-69210000D02*
X49850000Y-68830000D01*
X46150000Y-62680000D02*
X47420000Y-62640000D01*
X49970000Y-66960000D02*
X48050000Y-64570000D01*
X44140000Y-69400000D02*
X48220000Y-69210000D01*
X49850000Y-68830000D02*
X50180000Y-68150000D01*
X43535000Y-71670000D02*
X44140000Y-69400000D01*
X43210000Y-77850000D02*
X41670000Y-77870000D01*
X48980000Y-79070000D02*
X48300000Y-77900000D01*
X46580000Y-77870000D02*
X43210000Y-77850000D01*
X48300000Y-77900000D02*
X46580000Y-77870000D01*
X40120000Y-76520000D02*
X39220000Y-75277500D01*
X50360000Y-79890000D02*
X48980000Y-79070000D01*
X40760000Y-77870000D02*
X40120000Y-76520000D01*
X39220000Y-75277500D02*
X39560001Y-73330002D01*
X41670000Y-77870000D02*
X40760000Y-77870000D01*
X23799998Y-70409997D02*
X24247500Y-68250000D01*
X24075001Y-66630001D02*
X24247500Y-68250000D01*
X20720000Y-77228259D02*
X18810000Y-76420000D01*
X18810000Y-76420000D02*
X17660000Y-75960000D01*
X23460000Y-77130000D02*
X20720000Y-77228259D01*
X17020000Y-75860000D02*
X16057500Y-75090000D01*
X24450000Y-74440000D02*
X24380000Y-77060000D01*
X16150000Y-76660000D02*
X16057500Y-75090000D01*
X24330000Y-73940000D02*
X24450000Y-74440000D01*
X17660000Y-75960000D02*
X17020000Y-75860000D01*
X24380000Y-77060000D02*
X23460000Y-77130000D01*
X22529998Y-75359997D02*
X22760000Y-73950000D01*
X22760000Y-73950000D02*
X24330000Y-73940000D01*
X43550000Y-50820000D02*
X42060000Y-48850000D01*
X46150000Y-51250000D02*
X43550000Y-50820000D01*
X42060000Y-48850000D02*
X41950000Y-47260000D01*
X44280000Y-49490000D02*
X43987013Y-49142987D01*
X43987013Y-49142987D02*
X42920000Y-48320000D01*
X46150000Y-49980000D02*
X44280000Y-49490000D01*
X48400000Y-50330000D02*
X46150000Y-49980000D01*
X44640000Y-54130000D02*
X46150000Y-53790000D01*
X44670000Y-52620000D02*
X46150000Y-52520000D01*
X28500000Y-67980000D02*
X27740000Y-67900000D01*
X32150000Y-65273150D02*
X32932868Y-64790000D01*
X15380003Y-41919999D02*
X16700000Y-43680000D01*
X26470000Y-64024279D02*
X25160000Y-63532769D01*
X25160000Y-63532769D02*
X22948350Y-62161650D01*
X32150000Y-65273150D02*
X30410000Y-67690000D01*
X17550000Y-61303755D02*
X16368636Y-60671364D01*
X15620000Y-59800000D02*
X16368636Y-60671364D01*
X27740000Y-67900000D02*
X27274110Y-66869705D01*
X26988990Y-64231010D02*
X26470000Y-64024279D01*
X22948350Y-62161650D02*
X18750000Y-61445313D01*
X27280000Y-65920000D02*
X27462727Y-64457273D01*
X16700000Y-43680000D02*
X16870000Y-45710000D01*
X32932868Y-64790000D02*
X32955000Y-63930000D01*
X16870000Y-45710000D02*
X15660000Y-48900000D01*
X27462727Y-64457273D02*
X26988990Y-64231010D01*
X18750000Y-61445313D02*
X17550000Y-61303755D01*
X15660000Y-48900000D02*
X15620000Y-59800000D01*
X27274110Y-66869705D02*
X27280000Y-65920000D01*
X30410000Y-67690000D02*
X28500000Y-67980000D01*
X26300000Y-90235335D02*
X27771209Y-89761209D01*
X27771209Y-89761209D02*
X28081814Y-89541814D01*
X34210000Y-62340000D02*
X34225000Y-63930000D01*
X23300000Y-90360046D02*
X26300000Y-90235335D01*
X28046156Y-86513844D02*
X27284890Y-84460000D01*
X27339974Y-78650026D02*
X27040000Y-78270000D01*
X29140000Y-74968940D02*
X30510000Y-74950000D01*
X22492687Y-91080000D02*
X22730000Y-90585576D01*
X18740000Y-95560000D02*
X22490000Y-94960000D01*
X28081814Y-89541814D02*
X28416235Y-88540000D01*
X27284890Y-84460000D02*
X27609884Y-79440000D01*
X27040000Y-78270000D02*
X26780000Y-76680000D01*
X22588828Y-92660000D02*
X22492687Y-91080000D01*
X27339974Y-78650026D02*
X27605161Y-79210000D01*
X15480000Y-95930000D02*
X18740000Y-95560000D01*
X28491530Y-75141530D02*
X29140000Y-74968940D01*
X26780000Y-76680000D02*
X28491530Y-75141530D01*
X28425547Y-87390000D02*
X28046156Y-86513844D01*
X22490000Y-94960000D02*
X22588828Y-92660000D01*
X27609884Y-79440000D02*
X27605161Y-79210000D01*
X28416235Y-88540000D02*
X28425547Y-87390000D01*
X22730000Y-90585576D02*
X23300000Y-90360046D01*
X44977833Y-84250000D02*
X44560000Y-83714200D01*
X44560000Y-83714200D02*
X43930001Y-83500001D01*
X51680000Y-88850000D02*
X51636475Y-87351270D01*
X45070000Y-85040000D02*
X44977833Y-84250000D01*
X51686352Y-82380807D02*
X51618595Y-76200564D01*
X48810000Y-93690000D02*
X51650000Y-93690000D01*
X45310000Y-89260000D02*
X45490375Y-89429625D01*
X47080000Y-77240000D02*
X49130000Y-76160000D01*
X45210000Y-87440000D02*
X45310000Y-89260000D01*
X51680000Y-91810000D02*
X51680000Y-88850000D01*
X49130000Y-76160000D02*
X50190000Y-75510000D01*
X51618595Y-76200564D02*
X51510000Y-75530000D01*
X51650000Y-93690000D02*
X51680000Y-91810000D01*
X51636475Y-87351270D02*
X51686352Y-82380807D01*
X45210000Y-87440000D02*
X45070000Y-85040000D01*
X50190000Y-75510000D02*
X51510000Y-75530000D01*
X45490375Y-89429625D02*
X48810000Y-93690000D01*
X52110000Y-73430000D02*
X47080000Y-74700000D01*
X49160000Y-99189030D02*
X48467587Y-98730000D01*
X52110000Y-74830000D02*
X52110000Y-73430000D01*
X52248358Y-87450000D02*
X52202750Y-98560000D01*
X48467587Y-98730000D02*
X48425002Y-97875001D01*
X52248358Y-87450000D02*
X52110000Y-74830000D01*
X51350000Y-99218545D02*
X52202750Y-98560000D01*
X51350000Y-99218545D02*
X49160000Y-99189030D01*
X42380000Y-65840000D02*
X43190000Y-65430000D01*
X43190000Y-65430000D02*
X43115000Y-63930000D01*
X42300000Y-73670000D02*
X42034875Y-72660000D01*
X42070000Y-66400000D02*
X42380000Y-65840000D01*
X41978854Y-69120000D02*
X42070000Y-66400000D01*
X42034875Y-72660000D02*
X41978854Y-69120000D01*
X42300000Y-73670000D02*
X42130000Y-74700000D01*
X41380000Y-66690000D02*
X41146277Y-72290000D01*
X41510000Y-66110000D02*
X41380000Y-66690000D01*
X41760000Y-65130000D02*
X41510000Y-66110000D01*
X41019004Y-73360000D02*
X41146277Y-72290000D01*
X40890000Y-75380000D02*
X40731301Y-74924035D01*
X40950000Y-73980000D02*
X41019004Y-73360000D01*
X41845000Y-63930000D02*
X41760000Y-65130000D01*
X40731301Y-74924035D02*
X40950000Y-73980000D01*
X42130000Y-75970000D02*
X40890000Y-75380000D01*
X40810000Y-76390000D02*
X42130000Y-77240000D01*
X40810000Y-76390000D02*
X40090000Y-75560000D01*
X40425187Y-70560000D02*
X40550000Y-66520000D01*
X40419520Y-72270000D02*
X40425187Y-70560000D01*
X40550000Y-66520000D02*
X40575000Y-63930000D01*
X40265188Y-74670000D02*
X40455045Y-73440000D01*
X40455045Y-73440000D02*
X40419520Y-72270000D01*
X40090000Y-75560000D02*
X40265188Y-74670000D01*
X34830000Y-99490000D02*
X35050000Y-102570000D01*
X35510000Y-62430000D02*
X35495000Y-63930000D01*
X32654318Y-86610000D02*
X30210000Y-84920000D01*
X37790935Y-96640935D02*
X37876890Y-96133110D01*
X35050000Y-102570000D02*
X35440000Y-103310000D01*
X29299531Y-77900469D02*
X29299531Y-80670000D01*
X35820000Y-93670000D02*
X37375835Y-95058636D01*
X37375835Y-95058636D02*
X37876890Y-96133110D01*
X33156085Y-90850000D02*
X32790000Y-88450000D01*
X33320000Y-91540000D02*
X33156085Y-90850000D01*
X36590000Y-97920000D02*
X34830000Y-99490000D01*
X35440000Y-103310000D02*
X36970000Y-103260000D01*
X30210000Y-84920000D02*
X29180000Y-83880000D01*
X30630000Y-76570000D02*
X29299531Y-77900469D01*
X32790000Y-88450000D02*
X32654318Y-86610000D01*
X29180000Y-83880000D02*
X29299531Y-80670000D01*
X33320000Y-91540000D02*
X35820000Y-93670000D01*
X37450000Y-96940000D02*
X36590000Y-97920000D01*
X37790935Y-96640935D02*
X37450000Y-96940000D01*
X32846176Y-94130000D02*
X32830000Y-106710000D01*
X32750000Y-108550000D02*
X32787391Y-107690000D01*
X29990000Y-92170000D02*
X30670000Y-92830000D01*
X27860000Y-84530000D02*
X28134500Y-80790000D01*
X31685000Y-63930000D02*
X30750000Y-65920000D01*
X27690000Y-77570000D02*
X28120000Y-79050000D01*
X28120000Y-79050000D02*
X28134500Y-80790000D01*
X31140000Y-89310000D02*
X31089732Y-87170000D01*
X39680000Y-111280000D02*
X36640000Y-111533600D01*
X36640000Y-111533600D02*
X35000000Y-111410000D01*
X30670000Y-92830000D02*
X31740000Y-92830000D01*
X31089732Y-87170000D02*
X30250000Y-86550000D01*
X29952353Y-91690000D02*
X29990000Y-92170000D01*
X32070000Y-92856812D02*
X32658642Y-93541358D01*
X28640000Y-75980000D02*
X28202638Y-76417362D01*
X32830000Y-106710000D02*
X32787391Y-107690000D01*
X33350000Y-110210000D02*
X32750000Y-108550000D01*
X32658642Y-93541358D02*
X32846176Y-94130000D01*
X29952353Y-91690000D02*
X31140000Y-89310000D01*
X30250000Y-86550000D02*
X28770000Y-85950000D01*
X31685000Y-63930000D02*
X31690000Y-62350000D01*
X28770000Y-85950000D02*
X27860000Y-84530000D01*
X41920000Y-109610000D02*
X39680000Y-111280000D01*
X31740000Y-92830000D02*
X32070000Y-92856812D01*
X34180000Y-108310000D02*
X32787391Y-107690000D01*
X27690000Y-77570000D02*
X28202638Y-76417362D01*
X30750000Y-65920000D02*
X28660000Y-66510000D01*
X35000000Y-111410000D02*
X33350000Y-110210000D01*
X42710000Y-66470000D02*
X42555868Y-67021202D01*
X46540000Y-68440000D02*
X49390000Y-68000000D01*
X42555868Y-67021202D02*
X42530000Y-68350000D01*
X39090000Y-110820000D02*
X37130000Y-110950000D01*
X43820000Y-108330000D02*
X43330000Y-108332579D01*
X39090000Y-108350000D02*
X39090000Y-110820000D01*
X37130000Y-110950000D02*
X35900000Y-110970000D01*
X34630000Y-109820000D02*
X34960000Y-108510000D01*
X43760000Y-65910000D02*
X42710000Y-66470000D01*
X43330000Y-108332579D02*
X43570000Y-109670000D01*
X41920000Y-108340000D02*
X39090000Y-108350000D01*
X35900000Y-110970000D02*
X34910000Y-110460000D01*
X34960000Y-108510000D02*
X34700000Y-107440000D01*
X42530000Y-68350000D02*
X46540000Y-68440000D01*
X43330000Y-108332579D02*
X41920000Y-108340000D01*
X43570000Y-109670000D02*
X42650000Y-111950000D01*
X44385000Y-63930000D02*
X43760000Y-65910000D01*
X34910000Y-110460000D02*
X34630000Y-109820000D01*
X36160000Y-110400000D02*
X37160000Y-110375823D01*
X33499109Y-94140000D02*
X33451560Y-94920118D01*
X41920000Y-107070000D02*
X38490000Y-107050000D01*
X33530000Y-105300000D02*
X34640000Y-106380000D01*
X34640000Y-106380000D02*
X35620000Y-106880000D01*
X33451560Y-94920118D02*
X36100000Y-96250000D01*
X35620000Y-106880000D02*
X35610000Y-110020000D01*
X38490000Y-107050000D02*
X38520000Y-110350000D01*
X29570000Y-76490000D02*
X29120000Y-76940000D01*
X28707729Y-77850000D02*
X29120000Y-76940000D01*
X46150000Y-57600000D02*
X44210000Y-57830000D01*
X31922601Y-86950000D02*
X32230000Y-89680000D01*
X35610000Y-110020000D02*
X36160000Y-110400000D01*
X28590000Y-84480000D02*
X28707729Y-81100000D01*
X34180000Y-59490000D02*
X33040000Y-62350000D01*
X31922601Y-86950000D02*
X30300000Y-85910000D01*
X33499109Y-94140000D02*
X32711249Y-91450000D01*
X44210000Y-57830000D02*
X34180000Y-59490000D01*
X33451560Y-94920118D02*
X33530000Y-105300000D01*
X28707729Y-77850000D02*
X28707729Y-81100000D01*
X30300000Y-85910000D02*
X28590000Y-84480000D01*
X32230000Y-89680000D02*
X32711249Y-91450000D01*
X38520000Y-110350000D02*
X37160000Y-110375823D01*
X37447047Y-70420000D02*
X37460000Y-69170000D01*
X37460000Y-74010000D02*
X38900000Y-72760000D01*
X38160000Y-83050000D02*
X40050000Y-81850000D01*
X39570528Y-66770000D02*
X39305000Y-63930000D01*
X37460000Y-69170000D02*
X38330000Y-68640000D01*
X36210000Y-88480000D02*
X36420000Y-87130000D01*
X41420000Y-96400000D02*
X45360000Y-96820000D01*
X39163568Y-71930000D02*
X38893405Y-71556595D01*
X38570000Y-71310000D02*
X37447047Y-70420000D01*
X36420000Y-87130000D02*
X37280484Y-83507790D01*
X38083126Y-95016874D02*
X37826322Y-94783678D01*
X39490000Y-96577245D02*
X41420000Y-96400000D01*
X37826322Y-94783678D02*
X36204277Y-91070000D01*
X45360000Y-96820000D02*
X45960000Y-98630000D01*
X39133206Y-72343206D02*
X39163568Y-71930000D01*
X39490000Y-96577245D02*
X38083126Y-95016874D01*
X38330000Y-68640000D02*
X39140510Y-68000510D01*
X45960000Y-98630000D02*
X45640000Y-99600000D01*
X39140510Y-68000510D02*
X39570528Y-66770000D01*
X38893405Y-71556595D02*
X38570000Y-71310000D01*
X36204277Y-91070000D02*
X36210000Y-88480000D01*
X37280484Y-83507790D02*
X38160000Y-83050000D01*
X38900000Y-72760000D02*
X39133206Y-72343206D01*
X49680000Y-33940000D02*
X48545000Y-32055000D01*
X46580000Y-28720000D02*
X49390000Y-28690000D01*
X46470000Y-32980000D02*
X45450000Y-29970000D01*
X45450000Y-29970000D02*
X45450000Y-29230000D01*
X47050000Y-33840000D02*
X46470000Y-32980000D01*
X45450000Y-29230000D02*
X46580000Y-28720000D01*
X49390000Y-28690000D02*
X48595000Y-29750000D01*
X50670000Y-29750000D02*
X51085000Y-32055000D01*
X51085000Y-32055000D02*
X49815000Y-32055000D01*
X51050000Y-33860000D02*
X51085000Y-32055000D01*
X44659999Y-32724999D02*
X44830000Y-33961466D01*
X45260000Y-35360000D02*
X44830000Y-33961466D01*
X48790000Y-40210000D02*
X49420000Y-40080000D01*
X46720000Y-38070000D02*
X47650000Y-40230000D01*
X47650000Y-40230000D02*
X48790000Y-40210000D01*
X49815000Y-37005000D02*
X50200000Y-35520000D01*
X48545000Y-37005000D02*
X49815000Y-37005000D01*
X49420000Y-40080000D02*
X49815000Y-37005000D01*
X45260000Y-37085000D02*
X46720000Y-38070000D01*
X48360000Y-39360000D02*
X47275000Y-37005000D01*
X45770373Y-32493262D02*
X44659999Y-30899999D01*
X47275000Y-37005000D02*
X46330000Y-34830000D01*
X46330000Y-34830000D02*
X45770373Y-32493262D01*
X13760000Y-102100000D02*
X13670000Y-100470000D01*
X19780000Y-94490000D02*
X21124999Y-93060001D01*
X16370000Y-101160000D02*
X15050000Y-102270000D01*
X14080000Y-94790000D02*
X16080000Y-94660000D01*
X16080000Y-94660000D02*
X19780000Y-94490000D01*
X15050000Y-102270000D02*
X13760000Y-102100000D01*
X13670000Y-100470000D02*
X14080000Y-94790000D01*
X22529998Y-70409997D02*
X22260000Y-68244995D01*
X22529998Y-70409997D02*
X22520000Y-71810000D01*
X22260000Y-66419995D02*
X22505000Y-64890000D01*
X23170000Y-68930000D02*
X23190000Y-66950000D01*
X23190000Y-71360000D02*
X23170000Y-68930000D01*
X23580000Y-72000000D02*
X23190000Y-71360000D01*
X25110000Y-72060000D02*
X23580000Y-72000000D01*
X23190000Y-66950000D02*
X22260000Y-66419995D01*
X22505000Y-64890000D02*
X21852500Y-64040000D01*
X22260000Y-66419995D02*
X20730000Y-66427500D01*
X27045000Y-71530000D02*
X25110000Y-72060000D01*
X16561383Y-77501383D02*
X16773200Y-77303200D01*
X15780000Y-77660000D02*
X16250000Y-77648101D01*
D53*
X14430000Y-76485000D02*
X14542500Y-78030000D01*
X12910002Y-76497499D02*
X14430000Y-76485000D01*
D51*
X16773200Y-77303200D02*
X17300000Y-76630000D01*
X14542500Y-78030000D02*
X15780000Y-77660000D01*
X16250000Y-77648101D02*
X16561383Y-77501383D01*
X25900001Y-66630001D02*
X25180000Y-65630000D01*
X20730000Y-73740000D02*
X17880000Y-73610000D01*
X16780000Y-71170000D02*
X15530000Y-69470000D01*
X17880000Y-73610000D02*
X16780000Y-72800000D01*
X16780000Y-72800000D02*
X16780000Y-71170000D01*
X16880000Y-67440000D02*
X16860000Y-65510000D01*
X18070000Y-69470000D02*
X16880000Y-67440000D01*
X14910000Y-61850000D02*
X16860000Y-65510000D01*
X14910000Y-61850000D02*
X13150000Y-59740000D01*
X41610000Y-86360000D02*
X40270000Y-85312500D01*
X38640000Y-86507500D02*
X40270000Y-85312500D01*
X41560000Y-88905000D02*
X41610000Y-86360000D01*
X20450000Y-77803805D02*
X20810000Y-77790000D01*
X18090000Y-77170000D02*
X19310000Y-77270000D01*
X24000000Y-77800000D02*
X22430000Y-77710000D01*
X17120000Y-77760000D02*
X17450000Y-77333200D01*
X20810000Y-77790000D02*
X22430000Y-77710000D01*
X19310000Y-77270000D02*
X20450000Y-77803805D01*
X16150000Y-78485000D02*
X17120000Y-77760000D01*
X17450000Y-77333200D02*
X18090000Y-77170000D01*
D53*
X12730000Y-87950000D02*
X12992284Y-96350000D01*
D51*
X18340000Y-110690000D02*
X17690000Y-108880000D01*
X17690000Y-108880000D02*
X16190000Y-108000000D01*
X12570000Y-106870000D02*
X12810000Y-103400000D01*
X35490000Y-114890000D02*
X33500000Y-114880000D01*
X13170000Y-107770000D02*
X12570000Y-106870000D01*
X35569999Y-113792000D02*
X35490000Y-114890000D01*
D53*
X12939878Y-101980000D02*
X12992284Y-96350000D01*
D51*
X16190000Y-108000000D02*
X13170000Y-107770000D01*
X32420000Y-114530000D02*
X29890000Y-113120000D01*
X33500000Y-114880000D02*
X32420000Y-114530000D01*
X23270000Y-111990000D02*
X18340000Y-110690000D01*
X29890000Y-113120000D02*
X23270000Y-111990000D01*
D53*
X12939878Y-101980000D02*
X12810000Y-103400000D01*
X11090000Y-89940000D02*
X11120000Y-86940000D01*
X11120000Y-86940000D02*
X11190000Y-85460000D01*
X11190000Y-85460000D02*
X12760000Y-84580000D01*
X11540000Y-100790000D02*
X11090000Y-89940000D01*
M02*
