G04 #@! TF.GenerationSoftware,KiCad,Pcbnew,7.0.9*
G04 #@! TF.CreationDate,2024-06-15T21:38:13-04:00*
G04 #@! TF.ProjectId,MEAP_Rev3c,4d454150-5f52-4657-9633-632e6b696361,rev?*
G04 #@! TF.SameCoordinates,Original*
G04 #@! TF.FileFunction,Paste,Top*
G04 #@! TF.FilePolarity,Positive*
%FSLAX46Y46*%
G04 Gerber Fmt 4.6, Leading zero omitted, Abs format (unit mm)*
G04 Created by KiCad (PCBNEW 7.0.9) date 2024-06-15 21:38:13*
%MOMM*%
%LPD*%
G01*
G04 APERTURE LIST*
G04 Aperture macros list*
%AMRoundRect*
0 Rectangle with rounded corners*
0 $1 Rounding radius*
0 $2 $3 $4 $5 $6 $7 $8 $9 X,Y pos of 4 corners*
0 Add a 4 corners polygon primitive as box body*
4,1,4,$2,$3,$4,$5,$6,$7,$8,$9,$2,$3,0*
0 Add four circle primitives for the rounded corners*
1,1,$1+$1,$2,$3*
1,1,$1+$1,$4,$5*
1,1,$1+$1,$6,$7*
1,1,$1+$1,$8,$9*
0 Add four rect primitives between the rounded corners*
20,1,$1+$1,$2,$3,$4,$5,0*
20,1,$1+$1,$4,$5,$6,$7,0*
20,1,$1+$1,$6,$7,$8,$9,0*
20,1,$1+$1,$8,$9,$2,$3,0*%
G04 Aperture macros list end*
%ADD10RoundRect,0.237500X-0.237500X0.300000X-0.237500X-0.300000X0.237500X-0.300000X0.237500X0.300000X0*%
%ADD11RoundRect,0.237500X0.237500X-0.300000X0.237500X0.300000X-0.237500X0.300000X-0.237500X-0.300000X0*%
%ADD12R,2.000000X1.500000*%
%ADD13R,2.000000X3.800000*%
%ADD14RoundRect,0.237500X0.250000X0.237500X-0.250000X0.237500X-0.250000X-0.237500X0.250000X-0.237500X0*%
%ADD15RoundRect,0.150000X-0.150000X0.825000X-0.150000X-0.825000X0.150000X-0.825000X0.150000X0.825000X0*%
%ADD16RoundRect,0.237500X0.344173X0.021239X-0.038849X0.342632X-0.344173X-0.021239X0.038849X-0.342632X0*%
%ADD17RoundRect,0.237500X0.237500X-0.250000X0.237500X0.250000X-0.237500X0.250000X-0.237500X-0.250000X0*%
%ADD18RoundRect,0.150000X-0.825000X-0.150000X0.825000X-0.150000X0.825000X0.150000X-0.825000X0.150000X0*%
%ADD19RoundRect,0.250000X-0.337500X-0.475000X0.337500X-0.475000X0.337500X0.475000X-0.337500X0.475000X0*%
%ADD20RoundRect,0.237500X-0.300000X-0.237500X0.300000X-0.237500X0.300000X0.237500X-0.300000X0.237500X0*%
%ADD21R,1.500000X0.900000*%
%ADD22R,0.900000X1.500000*%
%ADD23R,0.900000X0.900000*%
%ADD24R,1.250000X1.000000*%
%ADD25RoundRect,0.237500X-0.237500X0.250000X-0.237500X-0.250000X0.237500X-0.250000X0.237500X0.250000X0*%
%ADD26RoundRect,0.250000X0.337500X0.475000X-0.337500X0.475000X-0.337500X-0.475000X0.337500X-0.475000X0*%
%ADD27RoundRect,0.237500X-0.250000X-0.237500X0.250000X-0.237500X0.250000X0.237500X-0.250000X0.237500X0*%
%ADD28RoundRect,0.250000X0.475000X-0.337500X0.475000X0.337500X-0.475000X0.337500X-0.475000X-0.337500X0*%
%ADD29RoundRect,0.250000X-0.475000X0.337500X-0.475000X-0.337500X0.475000X-0.337500X0.475000X0.337500X0*%
%ADD30R,0.200000X1.150000*%
%ADD31R,1.300000X1.700000*%
%ADD32RoundRect,0.250000X0.450000X-0.325000X0.450000X0.325000X-0.450000X0.325000X-0.450000X-0.325000X0*%
%ADD33RoundRect,0.112500X0.112500X-0.187500X0.112500X0.187500X-0.112500X0.187500X-0.112500X-0.187500X0*%
G04 APERTURE END LIST*
D10*
X38640000Y-86507500D03*
X38640000Y-88232500D03*
X32500000Y-82247500D03*
X32500000Y-83972500D03*
D11*
X44147500Y-86797502D03*
X44147500Y-85072502D03*
D12*
X18680000Y-79420000D03*
X18680000Y-81720000D03*
X18680000Y-84020000D03*
D13*
X24980000Y-81720000D03*
D14*
X48306999Y-96266001D03*
X46481999Y-96266001D03*
D15*
X51085000Y-32055000D03*
X49815000Y-32055000D03*
X48545000Y-32055000D03*
X47275000Y-32055000D03*
X47275000Y-37005000D03*
X48545000Y-37005000D03*
X49815000Y-37005000D03*
X51085000Y-37005000D03*
D16*
X39560001Y-73330002D03*
X38161969Y-72156914D03*
D17*
X44659999Y-32724999D03*
X44659999Y-30899999D03*
D11*
X32540000Y-76812500D03*
X32540000Y-75087500D03*
D17*
X48400000Y-52242500D03*
X48400000Y-50417500D03*
D10*
X48360000Y-39360000D03*
X48360000Y-41085000D03*
D15*
X25069998Y-70409997D03*
X23799998Y-70409997D03*
X22529998Y-70409997D03*
X21259998Y-70409997D03*
X21259998Y-75359997D03*
X22529998Y-75359997D03*
X23799998Y-75359997D03*
X25069998Y-75359997D03*
D18*
X42130000Y-74700000D03*
X42130000Y-75970000D03*
X42130000Y-77240000D03*
X42130000Y-78510000D03*
X47080000Y-78510000D03*
X47080000Y-77240000D03*
X47080000Y-75970000D03*
X47080000Y-74700000D03*
D11*
X45700001Y-94267501D03*
X45700001Y-92542501D03*
D17*
X47290000Y-85672500D03*
X47290000Y-83847500D03*
D19*
X27045000Y-71530000D03*
X29120000Y-71530000D03*
D20*
X45795000Y-80200000D03*
X47520000Y-80200000D03*
D11*
X47280000Y-89450000D03*
X47280000Y-87725000D03*
D21*
X28650000Y-46170000D03*
X28650000Y-47440000D03*
X28650000Y-48710000D03*
X28650000Y-49980000D03*
X28650000Y-51250000D03*
X28650000Y-52520000D03*
X28650000Y-53790000D03*
X28650000Y-55060000D03*
X28650000Y-56330000D03*
X28650000Y-57600000D03*
X28650000Y-58870000D03*
X28650000Y-60140000D03*
X28650000Y-61410000D03*
X28650000Y-62680000D03*
D22*
X30415000Y-63930000D03*
X31685000Y-63930000D03*
X32955000Y-63930000D03*
X34225000Y-63930000D03*
X35495000Y-63930000D03*
X36765000Y-63930000D03*
X38035000Y-63930000D03*
X39305000Y-63930000D03*
X40575000Y-63930000D03*
X41845000Y-63930000D03*
X43115000Y-63930000D03*
X44385000Y-63930000D03*
D21*
X46150000Y-62680000D03*
X46150000Y-61410000D03*
X46150000Y-60140000D03*
X46150000Y-58870000D03*
X46150000Y-57600000D03*
X46150000Y-56330000D03*
X46150000Y-55060000D03*
X46150000Y-53790000D03*
X46150000Y-52520000D03*
X46150000Y-51250000D03*
X46150000Y-49980000D03*
X46150000Y-48710000D03*
X46150000Y-47440000D03*
X46150000Y-46170000D03*
D23*
X34500000Y-52490000D03*
X34500000Y-53890000D03*
X34500000Y-55290000D03*
X34500000Y-55290000D03*
X35900000Y-52490000D03*
X35900000Y-52490000D03*
X35900000Y-53890000D03*
X35900000Y-55290000D03*
X37300000Y-52490000D03*
X37300000Y-53890000D03*
X37300000Y-55290000D03*
D24*
X43535000Y-71670000D03*
X51285000Y-71670000D03*
D17*
X12910002Y-76497499D03*
X12910002Y-74672499D03*
X22260000Y-68244995D03*
X22260000Y-66419995D03*
D14*
X17882500Y-75090000D03*
X16057500Y-75090000D03*
D25*
X14430000Y-74660000D03*
X14430000Y-76485000D03*
D10*
X45260000Y-35360000D03*
X45260000Y-37085000D03*
D25*
X40270000Y-83487500D03*
X40270000Y-85312500D03*
D18*
X36970000Y-100720000D03*
X36970000Y-101990000D03*
X36970000Y-103260000D03*
X36970000Y-104530000D03*
X36970000Y-105800000D03*
X36970000Y-107070000D03*
X36970000Y-108340000D03*
X36970000Y-109610000D03*
X41920000Y-109610000D03*
X41920000Y-108340000D03*
X41920000Y-107070000D03*
X41920000Y-105800000D03*
X41920000Y-104530000D03*
X41920000Y-103260000D03*
X41920000Y-101990000D03*
X41920000Y-100720000D03*
D19*
X18115000Y-86540000D03*
X20190000Y-86540000D03*
D20*
X48770000Y-29750000D03*
X50495000Y-29750000D03*
D26*
X16360000Y-81460000D03*
X14285000Y-81460000D03*
D27*
X48425002Y-97875001D03*
X50250002Y-97875001D03*
D17*
X33330000Y-29292500D03*
X33330000Y-27467500D03*
D10*
X26810001Y-73464999D03*
X26810001Y-75189999D03*
D11*
X50660001Y-41135001D03*
X50660001Y-39410001D03*
D28*
X23090000Y-48115000D03*
X23090000Y-46040000D03*
D29*
X13150000Y-60502500D03*
X13150000Y-62577500D03*
D25*
X20730000Y-66427500D03*
X20730000Y-68252500D03*
D27*
X20027500Y-64040000D03*
X21852500Y-64040000D03*
D24*
X51300000Y-67330000D03*
X43550000Y-67330000D03*
D25*
X16150000Y-76660000D03*
X16150000Y-78485000D03*
D11*
X38689999Y-94315001D03*
X38689999Y-92590001D03*
D15*
X44100000Y-88905000D03*
X42830000Y-88905000D03*
X41560000Y-88905000D03*
X40290000Y-88905000D03*
X40290000Y-93855000D03*
X41560000Y-93855000D03*
X42830000Y-93855000D03*
X44100000Y-93855000D03*
D30*
X35569999Y-113792000D03*
X36219999Y-113792000D03*
X36869999Y-113792000D03*
X37519999Y-113792000D03*
X38169999Y-113792000D03*
D31*
X35869999Y-116492000D03*
X37869999Y-116492000D03*
D14*
X43930001Y-83500001D03*
X42105001Y-83500001D03*
D25*
X39220000Y-75277500D03*
X39220000Y-77102500D03*
D27*
X24075001Y-66630001D03*
X25900001Y-66630001D03*
D32*
X11540000Y-102840000D03*
X11540000Y-100790000D03*
D10*
X49950000Y-94550000D03*
X49950000Y-96275000D03*
D27*
X12717500Y-78030000D03*
X14542500Y-78030000D03*
D25*
X26340000Y-47857500D03*
X26340000Y-49682500D03*
D10*
X37670000Y-77397500D03*
X37670000Y-79122500D03*
D14*
X16370000Y-101160000D03*
X14545000Y-101160000D03*
X26072500Y-68250000D03*
X24247500Y-68250000D03*
D33*
X33330000Y-24537500D03*
X33330000Y-22437500D03*
M02*
