G04 #@! TF.GenerationSoftware,KiCad,Pcbnew,7.0.9*
G04 #@! TF.CreationDate,2024-06-15T21:38:13-04:00*
G04 #@! TF.ProjectId,MEAP_Rev3c,4d454150-5f52-4657-9633-632e6b696361,rev?*
G04 #@! TF.SameCoordinates,Original*
G04 #@! TF.FileFunction,Paste,Bot*
G04 #@! TF.FilePolarity,Positive*
%FSLAX46Y46*%
G04 Gerber Fmt 4.6, Leading zero omitted, Abs format (unit mm)*
G04 Created by KiCad (PCBNEW 7.0.9) date 2024-06-15 21:38:13*
%MOMM*%
%LPD*%
G01*
G04 APERTURE LIST*
G04 Aperture macros list*
%AMRoundRect*
0 Rectangle with rounded corners*
0 $1 Rounding radius*
0 $2 $3 $4 $5 $6 $7 $8 $9 X,Y pos of 4 corners*
0 Add a 4 corners polygon primitive as box body*
4,1,4,$2,$3,$4,$5,$6,$7,$8,$9,$2,$3,0*
0 Add four circle primitives for the rounded corners*
1,1,$1+$1,$2,$3*
1,1,$1+$1,$4,$5*
1,1,$1+$1,$6,$7*
1,1,$1+$1,$8,$9*
0 Add four rect primitives between the rounded corners*
20,1,$1+$1,$2,$3,$4,$5,0*
20,1,$1+$1,$4,$5,$6,$7,0*
20,1,$1+$1,$6,$7,$8,$9,0*
20,1,$1+$1,$8,$9,$2,$3,0*%
G04 Aperture macros list end*
%ADD10RoundRect,0.250000X-0.475000X0.337500X-0.475000X-0.337500X0.475000X-0.337500X0.475000X0.337500X0*%
%ADD11RoundRect,0.237500X0.250000X0.237500X-0.250000X0.237500X-0.250000X-0.237500X0.250000X-0.237500X0*%
%ADD12RoundRect,0.237500X-0.250000X-0.237500X0.250000X-0.237500X0.250000X0.237500X-0.250000X0.237500X0*%
%ADD13RoundRect,0.237500X0.237500X-0.250000X0.237500X0.250000X-0.237500X0.250000X-0.237500X-0.250000X0*%
%ADD14RoundRect,0.250000X0.475000X-0.337500X0.475000X0.337500X-0.475000X0.337500X-0.475000X-0.337500X0*%
%ADD15RoundRect,0.237500X-0.237500X0.250000X-0.237500X-0.250000X0.237500X-0.250000X0.237500X0.250000X0*%
%ADD16RoundRect,0.250000X0.337500X0.475000X-0.337500X0.475000X-0.337500X-0.475000X0.337500X-0.475000X0*%
%ADD17RoundRect,0.237500X-0.237500X0.300000X-0.237500X-0.300000X0.237500X-0.300000X0.237500X0.300000X0*%
%ADD18RoundRect,0.237500X0.300000X0.237500X-0.300000X0.237500X-0.300000X-0.237500X0.300000X-0.237500X0*%
%ADD19RoundRect,0.150000X0.825000X0.150000X-0.825000X0.150000X-0.825000X-0.150000X0.825000X-0.150000X0*%
%ADD20RoundRect,0.237500X0.254201X0.285986X-0.336684X0.181797X-0.254201X-0.285986X0.336684X-0.181797X0*%
G04 APERTURE END LIST*
D10*
X30540000Y-78565000D03*
X30540000Y-80640000D03*
D11*
X43282500Y-52740000D03*
X41457500Y-52740000D03*
D12*
X27475002Y-104300001D03*
X29300002Y-104300001D03*
D13*
X41039996Y-81802502D03*
X41039996Y-79977502D03*
X36150000Y-32482500D03*
X36150000Y-30657500D03*
D14*
X19299999Y-34807497D03*
X19299999Y-32732497D03*
D15*
X44210000Y-58787500D03*
X44210000Y-60612500D03*
D12*
X27475001Y-99279997D03*
X29300001Y-99279997D03*
D16*
X16307500Y-76600000D03*
X14232500Y-76600000D03*
D17*
X24690000Y-82310000D03*
X24690000Y-84035000D03*
D18*
X48192500Y-31870000D03*
X46467500Y-31870000D03*
D15*
X36470000Y-26067500D03*
X36470000Y-27892500D03*
X46520000Y-66947500D03*
X46520000Y-68772500D03*
D12*
X27475002Y-101789999D03*
X29300002Y-101789999D03*
D13*
X43040000Y-81812500D03*
X43040000Y-79987500D03*
X51250000Y-58982500D03*
X51250000Y-57157500D03*
D12*
X27475000Y-96770000D03*
X29300000Y-96770000D03*
X27474998Y-91750000D03*
X29299998Y-91750000D03*
D14*
X21270002Y-26837499D03*
X21270002Y-24762499D03*
D11*
X43302500Y-54680000D03*
X41477500Y-54680000D03*
D12*
X27474999Y-94260001D03*
X29299999Y-94260001D03*
X27475001Y-109319999D03*
X29300001Y-109319999D03*
D19*
X41445000Y-100770000D03*
X41445000Y-102040000D03*
X41445000Y-103310000D03*
X41445000Y-104580000D03*
X41445000Y-105850000D03*
X41445000Y-107120000D03*
X41445000Y-108390000D03*
X41445000Y-109660000D03*
X36495000Y-109660000D03*
X36495000Y-108390000D03*
X36495000Y-107120000D03*
X36495000Y-105850000D03*
X36495000Y-104580000D03*
X36495000Y-103310000D03*
X36495000Y-102040000D03*
X36495000Y-100770000D03*
D15*
X51280000Y-53197500D03*
X51280000Y-55022500D03*
D12*
X27475002Y-106809997D03*
X29300002Y-106809997D03*
D20*
X40809397Y-97810228D03*
X39110603Y-98109772D03*
D18*
X24030000Y-67410000D03*
X22305000Y-67410000D03*
D14*
X22469998Y-76377501D03*
X22469998Y-74302501D03*
D15*
X39050000Y-79967500D03*
X39050000Y-81792500D03*
X48280000Y-27917500D03*
X48280000Y-29742500D03*
M02*
