<?xml version="1.0" standalone="no"?>
 <!DOCTYPE svg PUBLIC "-//W3C//DTD SVG 1.1//EN" 
 "http://www.w3.org/Graphics/SVG/1.1/DTD/svg11.dtd"> 
<svg xmlns="http://www.w3.org/2000/svg" version="1.1" 
    width="4.83108cm" height="10.2692cm" viewBox="0 0 19020 40430 ">
<title>SVG Picture created as ESP32_AudioBoard-brd.svg date 2023/01/11 22:49:36 </title>
  <desc>Picture generated by PCBNEW </desc>
<g style="fill:#000000; fill-opacity:1;stroke:#000000; stroke-opacity:1;
stroke-linecap:round; stroke-linejoin:round; "
 transform="translate(0 0) scale(1 1)">
</g>
<g style="fill:#000000; fill-opacity:0.0; 
stroke:#000000; stroke-width:-0.000393701; stroke-opacity:1; 
stroke-linecap:round; stroke-linejoin:round;">
</g>
<g style="fill:#000000; fill-opacity:1.0; 
stroke:#000000; stroke-width:0; stroke-opacity:1; 
stroke-linecap:round; stroke-linejoin:round;">
<path style="fill:#000000; fill-opacity:1.0; 
stroke:#000000; stroke-width:0; stroke-opacity:1; 
stroke-linecap:round; stroke-linejoin:round;fill-rule:evenodd;"
d="M 16078,37628
16207,37681
16324,37759
16422,37858
16500,37974
16553,38103
16581,38240
16581,38379
16553,38516
16500,38645
16422,38762
16324,38860
16207,38938
16078,38991
15941,39019
15802,39019
15665,38991
15536,38938
15420,38860
15321,38762
15243,38645
15190,38516
15162,38379
15162,38240
15190,38103
15243,37974
15321,37858
15420,37759
15536,37681
15665,37628
15802,37600
15941,37600
16078,37628
Z" /> 
<path style="fill:#000000; fill-opacity:1.0; 
stroke:#000000; stroke-width:0; stroke-opacity:1; 
stroke-linecap:round; stroke-linejoin:round;fill-rule:evenodd;"
d="M 7811,37628
7940,37681
8056,37759
8155,37858
8232,37974
8286,38103
8313,38240
8313,38379
8286,38516
8232,38645
8155,38762
8056,38860
7940,38938
7811,38991
7674,39019
7534,39019
7397,38991
7268,38938
7152,38860
7053,38762
6975,38645
6922,38516
6895,38379
6895,38240
6922,38103
6975,37974
7053,37858
7152,37759
7268,37681
7397,37628
7534,37600
7674,37600
7811,37628
Z" /> 
<path style="fill:#000000; fill-opacity:1.0; 
stroke:#000000; stroke-width:0; stroke-opacity:1; 
stroke-linecap:round; stroke-linejoin:round;fill-rule:evenodd;"
d="M 3555,35840
3626,35862
3691,35897
3749,35944
3796,36001
3831,36067
3853,36138
3860,36214
3860,37066
3853,37143
3831,37214
3796,37279
3749,37337
3691,37384
3626,37419
3555,37440
3479,37448
2627,37448
2550,37440
2479,37419
2414,37384
2356,37337
2309,37279
2274,37214
2253,37143
2245,37066
2245,36214
2253,36138
2274,36067
2309,36001
2356,35944
2414,35897
2479,35862
2550,35840
2627,35833
3479,35833
3555,35840
Z" /> 
<path style="fill:#000000; fill-opacity:1.0; 
stroke:#000000; stroke-width:0; stroke-opacity:1; 
stroke-linecap:round; stroke-linejoin:round;fill-rule:evenodd;"
d="M 9626,35641
9689,35660
9729,35681
9748,35691
9799,35733
9840,35784
9840,35784
9872,35842
9891,35905
9897,35971
9891,36037
9872,36100
9869,36105
9840,36158
9799,36209
9748,36251
9748,36251
9689,36282
9626,36301
9577,36306
9544,36306
9495,36301
9432,36282
9373,36251
9373,36251
9322,36209
9281,36158
9252,36105
9249,36100
9230,36037
9224,35971
9230,35905
9249,35842
9281,35784
9281,35784
9322,35733
9373,35691
9392,35681
9432,35660
9495,35641
9544,35636
9577,35636
9626,35641
Z" /> 
<path style="fill:#000000; fill-opacity:1.0; 
stroke:#000000; stroke-width:0; stroke-opacity:1; 
stroke-linecap:round; stroke-linejoin:round;fill-rule:evenodd;"
d="M 6626,35641
6689,35660
6729,35681
6748,35691
6799,35733
6840,35784
6840,35784
6872,35842
6891,35905
6897,35971
6891,36037
6872,36100
6869,36105
6840,36158
6799,36209
6748,36251
6748,36251
6689,36282
6626,36301
6577,36306
6544,36306
6495,36301
6432,36282
6373,36251
6373,36251
6322,36209
6281,36158
6252,36105
6249,36100
6230,36037
6224,35971
6230,35905
6249,35842
6281,35784
6281,35784
6322,35733
6373,35691
6392,35681
6432,35660
6495,35641
6544,35636
6577,35636
6626,35641
Z" /> 
<path style="fill:#000000; fill-opacity:1.0; 
stroke:#000000; stroke-width:0; stroke-opacity:1; 
stroke-linecap:round; stroke-linejoin:round;fill-rule:evenodd;"
d="M 5405,34659
5476,34681
5542,34716
5599,34763
5646,34820
5681,34886
5703,34957
5711,35033
5711,35885
5703,35961
5681,36032
5646,36098
5599,36155
5542,36203
5476,36238
5405,36259
5329,36267
4477,36267
4401,36259
4330,36238
4264,36203
4207,36155
4160,36098
4125,36032
4103,35961
4096,35885
4096,35033
4103,34957
4125,34886
4160,34820
4207,34763
4264,34716
4330,34681
4401,34659
4477,34652
5329,34652
5405,34659
Z" /> 
<path style="fill:#000000; fill-opacity:1.0; 
stroke:#000000; stroke-width:0; stroke-opacity:1; 
stroke-linecap:round; stroke-linejoin:round;fill-rule:evenodd;"
d="M 16919,35398
16945,35401
17012,35421
17074,35454
17088,35466
17128,35498
17160,35538
17172,35552
17205,35614
17225,35681
17232,35750
17225,35820
17212,35864
17205,35887
17195,35905
17172,35949
17160,35963
17128,36003
17088,36035
17074,36047
17012,36080
16945,36100
16919,36103
16893,36105
16858,36105
16832,36103
16806,36100
16739,36080
16677,36047
16663,36035
16623,36003
16591,35963
16579,35949
16556,35905
16546,35887
16539,35864
16526,35820
16519,35750
16526,35681
16546,35614
16579,35552
16591,35538
16623,35498
16663,35466
16677,35454
16739,35421
16806,35401
16832,35398
16858,35396
16893,35396
16919,35398
Z" /> 
<path style="fill:#000000; fill-opacity:1.0; 
stroke:#000000; stroke-width:0; stroke-opacity:1; 
stroke-linecap:round; stroke-linejoin:round;fill-rule:evenodd;"
d="M 9626,34641
9689,34660
9729,34681
9748,34691
9799,34733
9840,34784
9840,34784
9872,34842
9891,34905
9897,34971
9891,35037
9872,35100
9869,35105
9840,35158
9799,35209
9748,35251
9748,35251
9689,35282
9626,35301
9577,35306
9544,35306
9495,35301
9432,35282
9373,35251
9373,35251
9322,35209
9281,35158
9252,35105
9249,35100
9230,35037
9224,34971
9230,34905
9249,34842
9281,34784
9281,34784
9322,34733
9373,34691
9392,34681
9432,34660
9495,34641
9544,34636
9577,34636
9626,34641
Z" /> 
<path style="fill:#000000; fill-opacity:1.0; 
stroke:#000000; stroke-width:0; stroke-opacity:1; 
stroke-linecap:round; stroke-linejoin:round;fill-rule:evenodd;"
d="M 6626,34641
6689,34660
6729,34681
6748,34691
6799,34733
6840,34784
6840,34784
6872,34842
6891,34905
6897,34971
6891,35037
6872,35100
6869,35105
6840,35158
6799,35209
6748,35251
6748,35251
6689,35282
6626,35301
6577,35306
6544,35306
6495,35301
6432,35282
6373,35251
6373,35251
6322,35209
6281,35158
6252,35105
6249,35100
6230,35037
6224,34971
6230,34905
6249,34842
6281,34784
6281,34784
6322,34733
6373,34691
6392,34681
6432,34660
6495,34641
6544,34636
6577,34636
6626,34641
Z" /> 
<path style="fill:#000000; fill-opacity:1.0; 
stroke:#000000; stroke-width:0; stroke-opacity:1; 
stroke-linecap:round; stroke-linejoin:round;fill-rule:evenodd;"
d="M 13639,34974
13648,34976
13655,34980
13662,34986
13667,34992
13671,35000
13674,35008
13675,35019
13675,35202
13674,35213
13671,35221
13667,35229
13662,35236
13655,35241
13648,35245
13639,35248
13628,35249
12914,35249
12903,35248
12895,35245
12887,35241
12880,35236
12875,35229
12871,35221
12868,35213
12867,35202
12867,35019
12868,35008
12871,35000
12875,34992
12880,34986
12887,34980
12895,34976
12903,34974
12914,34973
13628,34973
13639,34974
Z" /> 
<path style="fill:#000000; fill-opacity:1.0; 
stroke:#000000; stroke-width:0; stroke-opacity:1; 
stroke-linecap:round; stroke-linejoin:round;fill-rule:evenodd;"
d="M 15588,34974
15596,34976
15604,34980
15611,34986
15616,34992
15620,35000
15623,35008
15624,35019
15624,35202
15623,35213
15620,35221
15616,35229
15611,35236
15604,35241
15596,35245
15588,35248
15577,35249
14863,35249
14852,35248
14844,35245
14836,35241
14829,35236
14824,35229
14820,35221
14817,35213
14816,35202
14816,35019
14817,35008
14820,35000
14824,34992
14829,34986
14836,34980
14844,34976
14852,34974
14863,34973
15577,34973
15588,34974
Z" /> 
<path style="fill:#000000; fill-opacity:1.0; 
stroke:#000000; stroke-width:0; stroke-opacity:1; 
stroke-linecap:round; stroke-linejoin:round;fill-rule:evenodd;"
d="M 16919,34398
16945,34401
17012,34421
17074,34454
17088,34466
17128,34498
17160,34538
17172,34552
17205,34614
17225,34681
17232,34750
17225,34820
17205,34887
17172,34949
17160,34963
17128,35003
17096,35028
17074,35047
17012,35080
16945,35100
16919,35103
16893,35105
16858,35105
16832,35103
16806,35100
16739,35080
16677,35047
16655,35028
16623,35003
16591,34963
16579,34949
16546,34887
16526,34820
16519,34750
16526,34681
16546,34614
16579,34552
16591,34538
16623,34498
16663,34466
16677,34454
16739,34421
16806,34401
16832,34398
16858,34396
16893,34396
16919,34398
Z" /> 
<path style="fill:#000000; fill-opacity:1.0; 
stroke:#000000; stroke-width:0; stroke-opacity:1; 
stroke-linecap:round; stroke-linejoin:round;fill-rule:evenodd;"
d="M 3860,35086
2245,35086
2245,33471
3860,33471
3860,35086
Z" /> 
<path style="fill:#000000; fill-opacity:1.0; 
stroke:#000000; stroke-width:0; stroke-opacity:1; 
stroke-linecap:round; stroke-linejoin:round;fill-rule:evenodd;"
d="M 15588,34474
15596,34476
15604,34480
15611,34486
15616,34492
15620,34500
15623,34508
15624,34519
15624,34702
15623,34713
15620,34721
15616,34729
15611,34736
15604,34741
15596,34745
15588,34748
15577,34749
14863,34749
14852,34748
14844,34745
14836,34741
14829,34736
14824,34729
14820,34721
14817,34713
14816,34702
14816,34519
14817,34508
14820,34500
14824,34492
14829,34486
14836,34480
14844,34476
14852,34474
14863,34473
15577,34473
15588,34474
Z" /> 
<path style="fill:#000000; fill-opacity:1.0; 
stroke:#000000; stroke-width:0; stroke-opacity:1; 
stroke-linecap:round; stroke-linejoin:round;fill-rule:evenodd;"
d="M 13639,34474
13648,34476
13655,34480
13662,34486
13667,34492
13671,34500
13674,34508
13675,34519
13675,34702
13674,34713
13671,34721
13667,34729
13662,34736
13655,34741
13648,34745
13639,34748
13628,34749
12914,34749
12903,34748
12895,34745
12887,34741
12880,34736
12875,34729
12871,34721
12868,34713
12867,34702
12867,34519
12868,34508
12871,34500
12875,34492
12880,34486
12887,34480
12895,34476
12903,34474
12914,34473
13628,34473
13639,34474
Z" /> 
<path style="fill:#000000; fill-opacity:1.0; 
stroke:#000000; stroke-width:0; stroke-opacity:1; 
stroke-linecap:round; stroke-linejoin:round;fill-rule:evenodd;"
d="M 9626,33641
9689,33660
9729,33681
9748,33691
9799,33733
9840,33784
9840,33784
9872,33842
9891,33905
9897,33971
9891,34037
9872,34100
9869,34105
9840,34158
9799,34209
9748,34251
9748,34251
9689,34282
9626,34301
9577,34306
9544,34306
9495,34301
9432,34282
9373,34251
9373,34251
9322,34209
9281,34158
9252,34105
9249,34100
9230,34037
9224,33971
9230,33905
9249,33842
9281,33784
9281,33784
9322,33733
9373,33691
9392,33681
9432,33660
9495,33641
9544,33636
9577,33636
9626,33641
Z" /> 
<path style="fill:#000000; fill-opacity:1.0; 
stroke:#000000; stroke-width:0; stroke-opacity:1; 
stroke-linecap:round; stroke-linejoin:round;fill-rule:evenodd;"
d="M 6626,33641
6689,33660
6729,33681
6748,33691
6799,33733
6840,33784
6840,33784
6872,33842
6891,33905
6897,33971
6891,34037
6872,34100
6869,34105
6840,34158
6799,34209
6748,34251
6748,34251
6689,34282
6626,34301
6577,34306
6544,34306
6495,34301
6432,34282
6373,34251
6373,34251
6322,34209
6281,34158
6252,34105
6249,34100
6230,34037
6224,33971
6230,33905
6249,33842
6281,33784
6281,33784
6322,33733
6373,33691
6392,33681
6432,33660
6495,33641
6544,33636
6577,33636
6626,33641
Z" /> 
<path style="fill:#000000; fill-opacity:1.0; 
stroke:#000000; stroke-width:0; stroke-opacity:1; 
stroke-linecap:round; stroke-linejoin:round;fill-rule:evenodd;"
d="M 15588,33974
15596,33976
15604,33980
15611,33986
15616,33992
15620,34000
15623,34008
15624,34019
15624,34202
15623,34213
15620,34221
15616,34229
15611,34236
15604,34241
15596,34245
15588,34248
15577,34249
14863,34249
14852,34248
14844,34245
14836,34241
14829,34236
14824,34229
14820,34221
14817,34213
14816,34202
14816,34019
14817,34008
14820,34000
14824,33992
14829,33986
14836,33980
14844,33976
14852,33974
14863,33973
15577,33973
15588,33974
Z" /> 
<path style="fill:#000000; fill-opacity:1.0; 
stroke:#000000; stroke-width:0; stroke-opacity:1; 
stroke-linecap:round; stroke-linejoin:round;fill-rule:evenodd;"
d="M 13639,33974
13648,33976
13655,33980
13662,33986
13667,33992
13671,34000
13674,34008
13675,34019
13675,34202
13674,34213
13671,34221
13667,34229
13662,34236
13655,34241
13648,34245
13639,34248
13628,34249
12914,34249
12903,34248
12895,34245
12887,34241
12880,34236
12875,34229
12871,34221
12868,34213
12867,34202
12867,34019
12868,34008
12871,34000
12875,33992
12880,33986
12887,33980
12895,33976
12903,33974
12914,33973
13628,33973
13639,33974
Z" /> 
<path style="fill:#000000; fill-opacity:1.0; 
stroke:#000000; stroke-width:0; stroke-opacity:1; 
stroke-linecap:round; stroke-linejoin:round;fill-rule:evenodd;"
d="M 16919,33398
16945,33401
17012,33421
17074,33454
17088,33466
17128,33498
17160,33538
17172,33552
17205,33614
17225,33681
17232,33750
17225,33820
17205,33887
17172,33949
17160,33963
17128,34003
17096,34028
17074,34047
17012,34080
16945,34100
16919,34103
16893,34105
16858,34105
16832,34103
16806,34100
16739,34080
16677,34047
16655,34028
16623,34003
16591,33963
16579,33949
16546,33887
16526,33820
16519,33750
16526,33681
16546,33614
16579,33552
16591,33538
16623,33498
16663,33466
16677,33454
16739,33421
16806,33401
16832,33398
16858,33396
16893,33396
16919,33398
Z" /> 
<path style="fill:#000000; fill-opacity:1.0; 
stroke:#000000; stroke-width:0; stroke-opacity:1; 
stroke-linecap:round; stroke-linejoin:round;fill-rule:evenodd;"
d="M 15588,33474
15596,33476
15604,33480
15611,33486
15616,33492
15620,33500
15623,33508
15624,33519
15624,33702
15623,33713
15620,33721
15616,33729
15611,33736
15604,33741
15596,33745
15588,33748
15577,33749
14863,33749
14852,33748
14844,33745
14836,33741
14829,33736
14824,33729
14820,33721
14817,33713
14816,33702
14816,33519
14817,33508
14820,33500
14824,33492
14829,33486
14836,33480
14844,33476
14852,33474
14863,33473
15577,33473
15588,33474
Z" /> 
<path style="fill:#000000; fill-opacity:1.0; 
stroke:#000000; stroke-width:0; stroke-opacity:1; 
stroke-linecap:round; stroke-linejoin:round;fill-rule:evenodd;"
d="M 13639,33474
13648,33476
13655,33480
13662,33486
13667,33492
13671,33500
13674,33508
13675,33519
13675,33702
13674,33713
13671,33721
13667,33729
13662,33736
13655,33741
13648,33745
13639,33748
13628,33749
12914,33749
12903,33748
12895,33745
12887,33741
12880,33736
12875,33729
12871,33721
12868,33713
12867,33702
12867,33519
12868,33508
12871,33500
12875,33492
12880,33486
12887,33480
12895,33476
12903,33474
12914,33473
13628,33473
13639,33474
Z" /> 
<path style="fill:#000000; fill-opacity:1.0; 
stroke:#000000; stroke-width:0; stroke-opacity:1; 
stroke-linecap:round; stroke-linejoin:round;fill-rule:evenodd;"
d="M 9626,32641
9689,32660
9729,32681
9748,32691
9799,32733
9840,32784
9840,32784
9872,32842
9891,32905
9897,32971
9891,33037
9872,33100
9869,33105
9840,33158
9799,33209
9748,33251
9748,33251
9689,33282
9626,33301
9577,33306
9544,33306
9495,33301
9432,33282
9373,33251
9373,33251
9322,33209
9281,33158
9252,33105
9249,33100
9230,33037
9224,32971
9230,32905
9249,32842
9281,32784
9281,32784
9322,32733
9373,32691
9392,32681
9432,32660
9495,32641
9544,32636
9577,32636
9626,32641
Z" /> 
<path style="fill:#000000; fill-opacity:1.0; 
stroke:#000000; stroke-width:0; stroke-opacity:1; 
stroke-linecap:round; stroke-linejoin:round;fill-rule:evenodd;"
d="M 6626,32641
6689,32660
6729,32681
6748,32691
6799,32733
6840,32784
6840,32784
6872,32842
6891,32905
6897,32971
6891,33037
6872,33100
6869,33105
6840,33158
6799,33209
6748,33251
6748,33251
6689,33282
6626,33301
6577,33306
6544,33306
6495,33301
6432,33282
6373,33251
6373,33251
6322,33209
6281,33158
6252,33105
6249,33100
6230,33037
6224,32971
6230,32905
6249,32842
6281,32784
6281,32784
6322,32733
6373,32691
6392,32681
6432,32660
6495,32641
6544,32636
6577,32636
6626,32641
Z" /> 
<path style="fill:#000000; fill-opacity:1.0; 
stroke:#000000; stroke-width:0; stroke-opacity:1; 
stroke-linecap:round; stroke-linejoin:round;fill-rule:evenodd;"
d="M 13639,32974
13648,32976
13655,32980
13662,32986
13667,32992
13671,33000
13674,33008
13675,33019
13675,33202
13674,33213
13671,33221
13667,33229
13662,33236
13655,33241
13648,33245
13639,33248
13628,33249
12914,33249
12903,33248
12895,33245
12887,33241
12880,33236
12875,33229
12871,33221
12868,33213
12867,33202
12867,33019
12868,33008
12871,33000
12875,32992
12880,32986
12887,32980
12895,32976
12903,32974
12914,32973
13628,32973
13639,32974
Z" /> 
<path style="fill:#000000; fill-opacity:1.0; 
stroke:#000000; stroke-width:0; stroke-opacity:1; 
stroke-linecap:round; stroke-linejoin:round;fill-rule:evenodd;"
d="M 15588,32974
15596,32976
15604,32980
15611,32986
15616,32992
15620,33000
15623,33008
15624,33019
15624,33202
15623,33213
15620,33221
15616,33229
15611,33236
15604,33241
15596,33245
15588,33248
15577,33249
14863,33249
14852,33248
14844,33245
14836,33241
14829,33236
14824,33229
14820,33221
14817,33213
14816,33202
14816,33019
14817,33008
14820,33000
14824,32992
14829,32986
14836,32980
14844,32976
14852,32974
14863,32973
15577,32973
15588,32974
Z" /> 
<path style="fill:#000000; fill-opacity:1.0; 
stroke:#000000; stroke-width:0; stroke-opacity:1; 
stroke-linecap:round; stroke-linejoin:round;fill-rule:evenodd;"
d="M 16919,32398
16945,32401
17012,32421
17074,32454
17088,32466
17128,32498
17160,32538
17172,32552
17205,32614
17225,32681
17232,32750
17225,32820
17205,32887
17172,32949
17160,32963
17128,33003
17096,33028
17074,33047
17012,33080
16945,33100
16919,33103
16893,33105
16858,33105
16832,33103
16806,33100
16739,33080
16677,33047
16655,33028
16623,33003
16591,32963
16579,32949
16546,32887
16526,32820
16519,32750
16526,32681
16546,32614
16579,32552
16591,32538
16623,32498
16663,32466
16677,32454
16739,32421
16806,32401
16832,32398
16858,32396
16893,32396
16919,32398
Z" /> 
<path style="fill:#000000; fill-opacity:1.0; 
stroke:#000000; stroke-width:0; stroke-opacity:1; 
stroke-linecap:round; stroke-linejoin:round;fill-rule:evenodd;"
d="M 13639,32474
13648,32476
13655,32480
13662,32486
13667,32492
13671,32500
13674,32508
13675,32519
13675,32702
13674,32713
13671,32721
13667,32729
13662,32736
13655,32741
13648,32745
13639,32748
13628,32749
12914,32749
12903,32748
12895,32745
12887,32741
12880,32736
12875,32729
12871,32721
12868,32713
12867,32702
12867,32519
12868,32508
12871,32500
12875,32492
12880,32486
12887,32480
12895,32476
12903,32474
12914,32473
13628,32473
13639,32474
Z" /> 
<path style="fill:#000000; fill-opacity:1.0; 
stroke:#000000; stroke-width:0; stroke-opacity:1; 
stroke-linecap:round; stroke-linejoin:round;fill-rule:evenodd;"
d="M 15588,32474
15596,32476
15604,32480
15611,32486
15616,32492
15620,32500
15623,32508
15624,32519
15624,32702
15623,32713
15620,32721
15616,32729
15611,32736
15604,32741
15596,32745
15588,32748
15577,32749
14863,32749
14852,32748
14844,32745
14836,32741
14829,32736
14824,32729
14820,32721
14817,32713
14816,32702
14816,32519
14817,32508
14820,32500
14824,32492
14829,32486
14836,32480
14844,32476
14852,32474
14863,32473
15577,32473
15588,32474
Z" /> 
<path style="fill:#000000; fill-opacity:1.0; 
stroke:#000000; stroke-width:0; stroke-opacity:1; 
stroke-linecap:round; stroke-linejoin:round;fill-rule:evenodd;"
d="M 6626,31641
6689,31660
6729,31681
6748,31691
6799,31733
6840,31784
6840,31784
6872,31842
6891,31905
6897,31971
6891,32037
6872,32100
6869,32105
6840,32158
6799,32209
6748,32251
6748,32251
6689,32282
6626,32301
6577,32306
6544,32306
6495,32301
6432,32282
6373,32251
6373,32251
6322,32209
6281,32158
6252,32105
6249,32100
6230,32037
6224,31971
6230,31905
6249,31842
6281,31784
6281,31784
6322,31733
6373,31691
6392,31681
6432,31660
6495,31641
6544,31636
6577,31636
6626,31641
Z" /> 
<path style="fill:#000000; fill-opacity:1.0; 
stroke:#000000; stroke-width:0; stroke-opacity:1; 
stroke-linecap:round; stroke-linejoin:round;fill-rule:evenodd;"
d="M 9626,31641
9689,31660
9729,31681
9748,31691
9799,31733
9840,31784
9840,31784
9872,31842
9891,31905
9897,31971
9891,32037
9872,32100
9869,32105
9840,32158
9799,32209
9748,32251
9748,32251
9689,32282
9626,32301
9577,32306
9544,32306
9495,32301
9432,32282
9373,32251
9373,32251
9322,32209
9281,32158
9252,32105
9249,32100
9230,32037
9224,31971
9230,31905
9249,31842
9281,31784
9281,31784
9322,31733
9373,31691
9392,31681
9432,31660
9495,31641
9544,31636
9577,31636
9626,31641
Z" /> 
<path style="fill:#000000; fill-opacity:1.0; 
stroke:#000000; stroke-width:0; stroke-opacity:1; 
stroke-linecap:round; stroke-linejoin:round;fill-rule:evenodd;"
d="M 13639,31974
13648,31976
13655,31980
13662,31986
13667,31992
13671,32000
13674,32008
13675,32019
13675,32202
13674,32213
13671,32221
13667,32229
13662,32236
13655,32241
13648,32245
13639,32248
13628,32249
12914,32249
12903,32248
12895,32245
12887,32241
12880,32236
12875,32229
12871,32221
12868,32213
12867,32202
12867,32019
12868,32008
12871,32000
12875,31992
12880,31986
12887,31980
12895,31976
12903,31974
12914,31973
13628,31973
13639,31974
Z" /> 
<path style="fill:#000000; fill-opacity:1.0; 
stroke:#000000; stroke-width:0; stroke-opacity:1; 
stroke-linecap:round; stroke-linejoin:round;fill-rule:evenodd;"
d="M 15588,31974
15596,31976
15604,31980
15611,31986
15616,31992
15620,32000
15623,32008
15624,32019
15624,32202
15623,32213
15620,32221
15616,32229
15611,32236
15604,32241
15596,32245
15588,32248
15577,32249
14863,32249
14852,32248
14844,32245
14836,32241
14829,32236
14824,32229
14820,32221
14817,32213
14816,32202
14816,32019
14817,32008
14820,32000
14824,31992
14829,31986
14836,31980
14844,31976
14852,31974
14863,31973
15577,31973
15588,31974
Z" /> 
<path style="fill:#000000; fill-opacity:1.0; 
stroke:#000000; stroke-width:0; stroke-opacity:1; 
stroke-linecap:round; stroke-linejoin:round;fill-rule:evenodd;"
d="M 16919,31398
16945,31401
17012,31421
17074,31454
17088,31466
17128,31498
17160,31538
17172,31552
17205,31614
17225,31681
17232,31750
17225,31820
17205,31887
17172,31949
17160,31963
17128,32003
17096,32028
17074,32047
17012,32080
16945,32100
16919,32103
16893,32105
16858,32105
16832,32103
16806,32100
16739,32080
16677,32047
16655,32028
16623,32003
16591,31963
16579,31949
16546,31887
16526,31820
16519,31750
16526,31681
16546,31614
16579,31552
16591,31538
16623,31498
16663,31466
16677,31454
16739,31421
16806,31401
16832,31398
16858,31396
16893,31396
16919,31398
Z" /> 
<path style="fill:#000000; fill-opacity:1.0; 
stroke:#000000; stroke-width:0; stroke-opacity:1; 
stroke-linecap:round; stroke-linejoin:round;fill-rule:evenodd;"
d="M 15588,31474
15596,31476
15604,31480
15611,31486
15616,31492
15620,31500
15623,31508
15624,31519
15624,31702
15623,31713
15620,31721
15616,31729
15611,31736
15604,31741
15596,31745
15588,31748
15577,31749
14863,31749
14852,31748
14844,31745
14836,31741
14829,31736
14824,31729
14820,31721
14817,31713
14816,31702
14816,31519
14817,31508
14820,31500
14824,31492
14829,31486
14836,31480
14844,31476
14852,31474
14863,31473
15577,31473
15588,31474
Z" /> 
<path style="fill:#000000; fill-opacity:1.0; 
stroke:#000000; stroke-width:0; stroke-opacity:1; 
stroke-linecap:round; stroke-linejoin:round;fill-rule:evenodd;"
d="M 13639,31474
13648,31476
13655,31480
13662,31486
13667,31492
13671,31500
13674,31508
13675,31519
13675,31702
13674,31713
13671,31721
13667,31729
13662,31736
13655,31741
13648,31745
13639,31748
13628,31749
12914,31749
12903,31748
12895,31745
12887,31741
12880,31736
12875,31729
12871,31721
12868,31713
12867,31702
12867,31519
12868,31508
12871,31500
12875,31492
12880,31486
12887,31480
12895,31476
12903,31474
12914,31473
13628,31473
13639,31474
Z" /> 
<path style="fill:#000000; fill-opacity:1.0; 
stroke:#000000; stroke-width:0; stroke-opacity:1; 
stroke-linecap:round; stroke-linejoin:round;fill-rule:evenodd;"
d="M 9626,30641
9689,30660
9729,30681
9748,30691
9799,30733
9840,30784
9840,30784
9872,30842
9891,30905
9897,30971
9891,31037
9872,31100
9869,31105
9840,31158
9799,31209
9748,31251
9748,31251
9689,31282
9626,31301
9577,31306
9544,31306
9495,31301
9432,31282
9373,31251
9373,31251
9322,31209
9281,31158
9252,31105
9249,31100
9230,31037
9224,30971
9230,30905
9249,30842
9281,30784
9281,30784
9322,30733
9373,30691
9392,30681
9432,30660
9495,30641
9544,30636
9577,30636
9626,30641
Z" /> 
<path style="fill:#000000; fill-opacity:1.0; 
stroke:#000000; stroke-width:0; stroke-opacity:1; 
stroke-linecap:round; stroke-linejoin:round;fill-rule:evenodd;"
d="M 6626,30641
6689,30660
6729,30681
6748,30691
6799,30733
6840,30784
6840,30784
6872,30842
6891,30905
6897,30971
6891,31037
6872,31100
6869,31105
6840,31158
6799,31209
6748,31251
6748,31251
6689,31282
6626,31301
6577,31306
6544,31306
6495,31301
6432,31282
6373,31251
6373,31251
6322,31209
6281,31158
6252,31105
6249,31100
6230,31037
6224,30971
6230,30905
6249,30842
6281,30784
6281,30784
6322,30733
6373,30691
6392,30681
6432,30660
6495,30641
6544,30636
6577,30636
6626,30641
Z" /> 
<path style="fill:#000000; fill-opacity:1.0; 
stroke:#000000; stroke-width:0; stroke-opacity:1; 
stroke-linecap:round; stroke-linejoin:round;fill-rule:evenodd;"
d="M 16919,30398
16945,30401
17012,30421
17074,30454
17088,30466
17128,30498
17160,30538
17172,30552
17205,30614
17225,30681
17232,30750
17225,30820
17205,30887
17172,30949
17160,30963
17128,31003
17088,31035
17074,31047
17012,31080
16945,31100
16919,31103
16893,31105
16858,31105
16832,31103
16806,31100
16739,31080
16677,31047
16663,31035
16623,31003
16591,30963
16579,30949
16546,30887
16526,30820
16519,30750
16526,30681
16546,30614
16579,30552
16591,30538
16623,30498
16663,30466
16677,30454
16739,30421
16806,30401
16832,30398
16858,30396
16893,30396
16919,30398
Z" /> 
<path style="fill:#000000; fill-opacity:1.0; 
stroke:#000000; stroke-width:0; stroke-opacity:1; 
stroke-linecap:round; stroke-linejoin:round;fill-rule:evenodd;"
d="M 9626,29641
9689,29660
9729,29681
9748,29691
9799,29733
9840,29784
9840,29784
9872,29842
9891,29905
9897,29971
9891,30037
9872,30100
9869,30105
9840,30158
9799,30209
9748,30251
9748,30251
9689,30282
9626,30301
9577,30306
9544,30306
9495,30301
9432,30282
9373,30251
9373,30251
9322,30209
9281,30158
9252,30105
9249,30100
9230,30037
9224,29971
9230,29905
9249,29842
9281,29784
9281,29784
9322,29733
9373,29691
9392,29681
9432,29660
9495,29641
9544,29636
9577,29636
9626,29641
Z" /> 
<path style="fill:#000000; fill-opacity:1.0; 
stroke:#000000; stroke-width:0; stroke-opacity:1; 
stroke-linecap:round; stroke-linejoin:round;fill-rule:evenodd;"
d="M 6626,29641
6689,29660
6729,29681
6748,29691
6799,29733
6840,29784
6840,29784
6872,29842
6891,29905
6897,29971
6891,30037
6872,30100
6869,30105
6840,30158
6799,30209
6748,30251
6748,30251
6689,30282
6626,30301
6577,30306
6544,30306
6495,30301
6432,30282
6373,30251
6373,30251
6322,30209
6281,30158
6252,30105
6249,30100
6230,30037
6224,29971
6230,29905
6249,29842
6281,29784
6281,29784
6322,29733
6373,29691
6392,29681
6432,29660
6495,29641
6544,29636
6577,29636
6626,29641
Z" /> 
<path style="fill:#000000; fill-opacity:1.0; 
stroke:#000000; stroke-width:0; stroke-opacity:1; 
stroke-linecap:round; stroke-linejoin:round;fill-rule:evenodd;"
d="M 16919,29398
16945,29401
17012,29421
17074,29454
17088,29466
17128,29498
17160,29538
17172,29552
17205,29614
17225,29681
17232,29750
17225,29820
17205,29887
17172,29949
17160,29963
17128,30003
17088,30035
17074,30047
17012,30080
16945,30100
16919,30103
16893,30105
16858,30105
16832,30103
16806,30100
16739,30080
16677,30047
16663,30035
16623,30003
16591,29963
16579,29949
16546,29887
16526,29820
16519,29750
16526,29681
16546,29614
16579,29552
16591,29538
16623,29498
16663,29466
16677,29454
16739,29421
16806,29401
16832,29398
16858,29396
16893,29396
16919,29398
Z" /> 
<path style="fill:#000000; fill-opacity:1.0; 
stroke:#000000; stroke-width:0; stroke-opacity:1; 
stroke-linecap:round; stroke-linejoin:round;fill-rule:evenodd;"
d="M 6896,29306
6225,29306
6225,28636
6896,28636
6896,29306
Z" /> 
<path style="fill:#000000; fill-opacity:1.0; 
stroke:#000000; stroke-width:0; stroke-opacity:1; 
stroke-linecap:round; stroke-linejoin:round;fill-rule:evenodd;"
d="M 9626,28641
9689,28660
9742,28688
9748,28691
9799,28733
9840,28784
9840,28784
9872,28842
9891,28905
9897,28971
9891,29037
9872,29100
9869,29105
9840,29158
9799,29209
9748,29251
9748,29251
9689,29282
9626,29301
9577,29306
9544,29306
9495,29301
9432,29282
9373,29251
9373,29251
9322,29209
9281,29158
9252,29105
9249,29100
9230,29037
9224,28971
9230,28905
9249,28842
9281,28784
9281,28784
9322,28733
9373,28691
9379,28688
9432,28660
9495,28641
9544,28636
9577,28636
9626,28641
Z" /> 
<path style="fill:#000000; fill-opacity:1.0; 
stroke:#000000; stroke-width:0; stroke-opacity:1; 
stroke-linecap:round; stroke-linejoin:round;fill-rule:evenodd;"
d="M 17230,29105
16521,29105
16521,28396
17230,28396
17230,29105
Z" /> 
<path style="fill:#000000; fill-opacity:1.0; 
stroke:#000000; stroke-width:0; stroke-opacity:1; 
stroke-linecap:round; stroke-linejoin:round;fill-rule:evenodd;"
d="M 13130,28690
12519,28690
12519,28079
13130,28079
13130,28690
Z" /> 
<path style="fill:#000000; fill-opacity:1.0; 
stroke:#000000; stroke-width:0; stroke-opacity:1; 
stroke-linecap:round; stroke-linejoin:round;fill-rule:evenodd;"
d="M 16926,27201
16941,27205
16955,27212
16967,27222
16976,27234
16984,27248
16988,27263
16990,27281
16990,27610
16988,27628
16984,27643
16976,27656
16967,27668
16955,27678
16941,27686
16926,27690
16908,27692
16480,27692
16463,27690
16448,27686
16434,27678
16422,27668
16412,27656
16405,27643
16400,27628
16399,27610
16399,27281
16400,27263
16405,27248
16412,27234
16422,27222
16434,27212
16448,27205
16463,27201
16480,27199
16908,27199
16926,27201
Z" /> 
<path style="fill:#000000; fill-opacity:1.0; 
stroke:#000000; stroke-width:0; stroke-opacity:1; 
stroke-linecap:round; stroke-linejoin:round;fill-rule:evenodd;"
d="M 12913,27091
12913,27091
12913,27091
12969,27114
12969,27114
13019,27147
13062,27190
13095,27240
13095,27240
13118,27295
13130,27354
13130,27414
13118,27473
13095,27529
13095,27529
13062,27579
13019,27622
12987,27643
12969,27655
12913,27678
12913,27678
12913,27678
12854,27690
12794,27690
12735,27678
12735,27678
12735,27678
12680,27655
12661,27643
12630,27622
12587,27579
12554,27529
12554,27529
12531,27473
12519,27414
12519,27354
12531,27295
12554,27240
12554,27240
12587,27190
12630,27147
12680,27114
12680,27114
12735,27091
12735,27091
12735,27091
12794,27079
12854,27079
12913,27091
Z" /> 
<path style="fill:#000000; fill-opacity:1.0; 
stroke:#000000; stroke-width:0; stroke-opacity:1; 
stroke-linecap:round; stroke-linejoin:round;fill-rule:evenodd;"
d="M 15068,26449
15081,26452
15093,26459
15103,26467
15112,26478
15118,26490
15122,26503
15124,26519
15124,27084
15122,27100
15118,27113
15112,27125
15103,27136
15093,27144
15081,27151
15068,27155
15052,27156
14368,27156
14352,27155
14339,27151
14327,27144
14317,27136
14308,27125
14302,27113
14298,27100
14296,27084
14296,26519
14298,26503
14302,26490
14308,26478
14317,26467
14327,26459
14339,26452
14352,26449
14368,26447
15052,26447
15068,26449
Z" /> 
<path style="fill:#000000; fill-opacity:1.0; 
stroke:#000000; stroke-width:0; stroke-opacity:1; 
stroke-linecap:round; stroke-linejoin:round;fill-rule:evenodd;"
d="M 10958,27150
9973,27150
9973,26165
10958,26165
10958,27150
Z" /> 
<path style="fill:#000000; fill-opacity:1.0; 
stroke:#000000; stroke-width:0; stroke-opacity:1; 
stroke-linecap:round; stroke-linejoin:round;fill-rule:evenodd;"
d="M 9408,26173
9459,26184
9549,26221
9629,26275
9698,26343
9752,26424
9752,26424
9789,26513
9808,26609
9808,26706
9789,26801
9755,26883
9752,26890
9698,26971
9629,27040
9549,27094
9549,27094
9549,27094
9459,27131
9364,27150
9267,27150
9172,27131
9082,27094
9082,27094
9082,27094
9001,27040
8933,26971
8879,26890
8876,26883
8842,26801
8823,26706
8823,26609
8842,26513
8879,26424
8879,26424
8933,26343
9001,26275
9082,26221
9172,26184
9222,26173
9267,26165
9364,26165
9408,26173
Z" /> 
<path style="fill:#000000; fill-opacity:1.0; 
stroke:#000000; stroke-width:0; stroke-opacity:1; 
stroke-linecap:round; stroke-linejoin:round;fill-rule:evenodd;"
d="M 7913,26167
7946,26173
8035,26211
8116,26264
8184,26333
8236,26410
8238,26414
8275,26503
8294,26599
8294,26696
8275,26791
8242,26871
8238,26880
8184,26961
8116,27030
8035,27083
8035,27083
8035,27083
7946,27121
7850,27140
7753,27140
7658,27121
7569,27083
7569,27083
7569,27083
7488,27030
7419,26961
7365,26880
7362,26871
7328,26791
7309,26696
7309,26599
7328,26503
7365,26414
7368,26410
7419,26333
7488,26264
7569,26211
7658,26173
7690,26167
7753,26155
7850,26155
7913,26167
Z" /> 
<path style="fill:#000000; fill-opacity:1.0; 
stroke:#000000; stroke-width:0; stroke-opacity:1; 
stroke-linecap:round; stroke-linejoin:round;fill-rule:evenodd;"
d="M 7144,27140
6159,27140
6159,26155
7144,26155
7144,27140
Z" /> 
<path style="fill:#000000; fill-opacity:1.0; 
stroke:#000000; stroke-width:0; stroke-opacity:1; 
stroke-linecap:round; stroke-linejoin:round;fill-rule:evenodd;"
d="M 16926,26394
16941,26398
16955,26405
16967,26415
16976,26427
16984,26441
16988,26456
16990,26474
16990,26803
16988,26821
16984,26836
16976,26849
16967,26861
16955,26871
16941,26878
16926,26883
16908,26885
16480,26885
16463,26883
16448,26878
16434,26871
16422,26861
16412,26849
16405,26836
16400,26821
16399,26803
16399,26474
16400,26456
16405,26441
16412,26427
16422,26415
16434,26405
16448,26398
16463,26394
16480,26392
16908,26392
16926,26394
Z" /> 
<path style="fill:#000000; fill-opacity:1.0; 
stroke:#000000; stroke-width:0; stroke-opacity:1; 
stroke-linecap:round; stroke-linejoin:round;fill-rule:evenodd;"
d="M 12913,26091
12913,26091
12913,26091
12969,26114
12969,26114
13019,26147
13062,26190
13076,26211
13095,26240
13110,26275
13118,26295
13130,26354
13130,26414
13119,26467
13118,26473
13095,26529
13095,26529
13062,26579
13019,26622
12969,26655
12969,26655
12913,26678
12913,26678
12913,26678
12854,26690
12794,26690
12735,26678
12735,26678
12735,26678
12680,26655
12680,26655
12630,26622
12587,26579
12554,26529
12554,26529
12531,26473
12529,26467
12519,26414
12519,26354
12531,26295
12539,26275
12554,26240
12573,26211
12587,26190
12630,26147
12680,26114
12680,26114
12735,26091
12735,26091
12735,26091
12794,26079
12854,26079
12913,26091
Z" /> 
<path style="fill:#000000; fill-opacity:1.0; 
stroke:#000000; stroke-width:0; stroke-opacity:1; 
stroke-linecap:round; stroke-linejoin:round;fill-rule:evenodd;"
d="M 14813,25465
14839,25468
14906,25488
14967,25521
14969,25522
15021,25565
15053,25605
15066,25619
15098,25681
15119,25748
15126,25817
15119,25887
15098,25954
15066,26015
15054,26029
15021,26069
14990,26095
14967,26114
14906,26147
14839,26167
14813,26170
14787,26172
14634,26172
14608,26170
14582,26167
14515,26147
14453,26114
14431,26095
14399,26069
14366,26029
14355,26015
14322,25954
14301,25887
14295,25817
14301,25748
14322,25681
14355,25619
14367,25605
14399,25565
14451,25522
14453,25521
14515,25488
14582,25468
14608,25465
14634,25463
14787,25463
14813,25465
Z" /> 
<path style="fill:#000000; fill-opacity:1.0; 
stroke:#000000; stroke-width:0; stroke-opacity:1; 
stroke-linecap:round; stroke-linejoin:round;fill-rule:evenodd;"
d="M 16922,25604
16937,25609
16951,25616
16963,25626
16973,25638
16980,25652
16984,25666
16986,25684
16986,26014
16984,26031
16980,26046
16973,26060
16963,26072
16951,26082
16937,26089
16922,26094
16904,26095
16477,26095
16459,26094
16444,26089
16430,26082
16418,26072
16408,26060
16401,26046
16397,26031
16395,26014
16395,25684
16397,25666
16401,25652
16408,25638
16418,25626
16430,25616
16444,25609
16459,25604
16477,25602
16904,25602
16922,25604
Z" /> 
<path style="fill:#000000; fill-opacity:1.0; 
stroke:#000000; stroke-width:0; stroke-opacity:1; 
stroke-linecap:round; stroke-linejoin:round;fill-rule:evenodd;"
d="M 12913,25091
12913,25091
12913,25091
12969,25114
12969,25114
13019,25147
13062,25190
13070,25202
13095,25240
13118,25295
13118,25295
13130,25354
13130,25414
13119,25468
13118,25473
13095,25529
13095,25529
13062,25579
13019,25622
12977,25650
12969,25655
12913,25678
12913,25678
12913,25678
12854,25690
12794,25690
12735,25678
12735,25678
12735,25678
12680,25655
12672,25650
12630,25622
12587,25579
12554,25529
12554,25529
12531,25473
12529,25468
12519,25414
12519,25354
12531,25295
12531,25295
12554,25240
12579,25202
12587,25190
12630,25147
12680,25114
12680,25114
12735,25091
12735,25091
12735,25091
12794,25079
12854,25079
12913,25091
Z" /> 
<path style="fill:#000000; fill-opacity:1.0; 
stroke:#000000; stroke-width:0; stroke-opacity:1; 
stroke-linecap:round; stroke-linejoin:round;fill-rule:evenodd;"
d="M 11372,24975
11375,24976
11379,24978
11382,24980
11386,24985
11389,24989
11395,24996
11403,25001
11412,25005
11422,25007
11431,25007
11441,25005
11450,25001
11458,24996
11465,24989
11467,24985
11471,24980
11475,24978
11478,24976
11482,24975
11488,24974
11680,24974
11687,24975
11692,24975
11699,24975
11708,24976
11741,24983
11750,24985
11781,24998
11783,24999
11783,24999
11787,25001
11787,25001
11789,25002
11817,25021
11824,25027
11847,25050
11853,25057
11872,25085
11873,25087
11873,25087
11875,25091
11875,25091
11876,25093
11889,25124
11891,25133
11898,25166
11899,25175
11899,25182
11899,25187
11900,25194
11900,25386
11899,25393
11899,25398
11899,25405
11898,25414
11891,25447
11889,25455
11876,25487
11875,25489
11875,25489
11873,25492
11873,25492
11872,25494
11853,25522
11847,25529
11824,25553
11817,25559
11789,25578
11787,25579
11787,25579
11783,25581
11783,25581
11781,25582
11750,25595
11741,25597
11708,25604
11699,25605
11692,25605
11687,25605
11680,25606
11488,25606
11482,25605
11478,25604
11475,25602
11471,25599
11467,25594
11465,25590
11458,25584
11450,25578
11441,25575
11431,25573
11422,25573
11412,25575
11403,25578
11395,25584
11389,25590
11386,25595
11382,25599
11379,25602
11375,25604
11372,25605
11365,25606
11173,25606
11166,25605
11161,25605
11154,25605
11145,25604
11112,25597
11104,25595
11072,25582
11070,25581
11070,25581
11067,25579
11067,25579
11065,25578
11037,25559
11030,25553
11006,25529
11000,25522
10982,25494
10980,25492
10980,25492
10979,25489
10979,25489
10977,25487
10964,25455
10962,25447
10955,25414
10954,25405
10954,25398
10954,25393
10953,25386
10953,25194
10954,25187
10954,25182
10954,25175
10955,25166
10962,25133
10964,25124
10977,25093
10979,25091
10979,25091
10980,25087
10980,25087
10982,25085
11000,25057
11006,25050
11030,25027
11037,25021
11065,25002
11067,25001
11067,25001
11070,24999
11070,24999
11072,24998
11104,24985
11112,24983
11145,24976
11154,24975
11161,24975
11166,24975
11173,24974
11365,24974
11372,24975
Z" /> 
<path style="fill:#000000; fill-opacity:1.0; 
stroke:#000000; stroke-width:0; stroke-opacity:1; 
stroke-linecap:round; stroke-linejoin:round;fill-rule:evenodd;"
d="M 16922,24797
16937,24802
16951,24809
16963,24819
16973,24831
16980,24844
16984,24859
16986,24877
16986,25207
16984,25224
16980,25239
16973,25253
16963,25265
16951,25275
16937,25282
16922,25287
16904,25288
16477,25288
16459,25287
16444,25282
16430,25275
16418,25265
16408,25253
16401,25239
16397,25224
16395,25207
16395,24877
16397,24859
16401,24844
16408,24831
16418,24819
16430,24809
16444,24802
16459,24797
16477,24795
16904,24795
16922,24797
Z" /> 
<path style="fill:#000000; fill-opacity:1.0; 
stroke:#000000; stroke-width:0; stroke-opacity:1; 
stroke-linecap:round; stroke-linejoin:round;fill-rule:evenodd;"
d="M 12913,24091
12913,24091
12913,24091
12969,24114
12969,24114
13019,24147
13062,24190
13095,24240
13095,24240
13118,24295
13118,24295
13130,24354
13130,24414
13121,24459
13118,24473
13095,24529
13095,24529
13062,24579
13019,24622
12969,24655
12969,24655
12913,24678
12913,24678
12913,24678
12854,24690
12794,24690
12735,24678
12735,24678
12735,24678
12680,24655
12680,24655
12630,24622
12587,24579
12554,24529
12554,24529
12531,24473
12528,24459
12519,24414
12519,24354
12531,24295
12531,24295
12554,24240
12554,24240
12587,24190
12630,24147
12680,24114
12680,24114
12735,24091
12735,24091
12735,24091
12794,24079
12854,24079
12913,24091
Z" /> 
<path style="fill:#000000; fill-opacity:1.0; 
stroke:#000000; stroke-width:0; stroke-opacity:1; 
stroke-linecap:round; stroke-linejoin:round;fill-rule:evenodd;"
d="M 2326,23938
2395,23967
2395,23967
2456,24008
2508,24060
2529,24091
2549,24121
2577,24189
2592,24262
2592,24335
2577,24408
2549,24476
2538,24492
2508,24537
2456,24589
2425,24610
2395,24630
2326,24658
2254,24673
2180,24673
2108,24658
2040,24630
2009,24610
1979,24589
1926,24537
1896,24492
1885,24476
1857,24408
1843,24335
1843,24262
1857,24189
1885,24121
1906,24091
1926,24060
1979,24008
2040,23967
2040,23967
2108,23938
2180,23924
2254,23924
2326,23938
Z" /> 
<path style="fill:#000000; fill-opacity:1.0; 
stroke:#000000; stroke-width:0; stroke-opacity:1; 
stroke-linecap:round; stroke-linejoin:round;fill-rule:evenodd;"
d="M 11664,23624
11669,23625
11676,23625
11685,23626
11718,23632
11726,23635
11757,23648
11759,23649
11759,23649
11763,23651
11763,23651
11765,23652
11793,23671
11800,23676
11824,23700
11829,23707
11848,23735
11849,23737
11849,23737
11851,23741
11851,23741
11852,23743
11865,23774
11868,23782
11874,23815
11875,23824
11875,23831
11876,23836
11876,23843
11876,24035
11876,24042
11874,24046
11873,24049
11870,24052
11865,24056
11861,24059
11854,24066
11849,24074
11845,24083
11843,24092
11843,24102
11845,24111
11849,24120
11854,24128
11861,24135
11865,24138
11870,24142
11873,24145
11874,24148
11876,24152
11876,24158
11876,24350
11876,24358
11875,24362
11875,24370
11874,24378
11868,24412
11865,24420
11852,24451
11851,24453
11851,24453
11849,24457
11849,24457
11848,24459
11829,24487
11824,24494
11800,24518
11793,24523
11765,24542
11763,24543
11763,24543
11759,24545
11759,24545
11757,24546
11726,24559
11718,24562
11685,24568
11676,24569
11669,24569
11664,24569
11657,24570
11465,24570
11457,24569
11452,24569
11445,24569
11436,24568
11403,24562
11395,24559
11364,24546
11362,24545
11362,24545
11358,24543
11358,24543
11356,24542
11328,24523
11321,24518
11297,24494
11292,24487
11273,24459
11272,24457
11272,24457
11270,24453
11270,24453
11269,24451
11256,24420
11253,24412
11247,24378
11246,24370
11246,24362
11246,24358
11245,24350
11245,24158
11245,24152
11247,24148
11248,24145
11251,24142
11256,24138
11260,24135
11267,24128
11272,24120
11276,24111
11278,24102
11278,24092
11276,24083
11272,24074
11267,24066
11260,24059
11256,24056
11251,24052
11248,24049
11247,24046
11245,24042
11245,24035
11245,23843
11246,23836
11246,23831
11246,23824
11247,23815
11253,23782
11256,23774
11269,23743
11270,23741
11270,23741
11272,23737
11272,23737
11273,23735
11292,23707
11297,23700
11321,23676
11328,23671
11356,23652
11358,23651
11358,23651
11362,23649
11362,23649
11364,23648
11395,23635
11403,23632
11436,23626
11445,23625
11452,23625
11457,23624
11465,23624
11657,23624
11664,23624
Z" /> 
<path style="fill:#000000; fill-opacity:1.0; 
stroke:#000000; stroke-width:0; stroke-opacity:1; 
stroke-linecap:round; stroke-linejoin:round;fill-rule:evenodd;"
d="M 7418,23815
7431,23819
7443,23825
7454,23834
7462,23844
7469,23856
7473,23869
7474,23885
7474,24451
7473,24466
7469,24479
7462,24491
7454,24502
7443,24511
7431,24517
7418,24521
7402,24523
6719,24523
6703,24521
6690,24517
6678,24511
6667,24502
6659,24491
6652,24479
6648,24466
6647,24451
6647,23885
6648,23869
6652,23856
6659,23844
6667,23834
6678,23825
6690,23819
6703,23815
6719,23813
7402,23813
7418,23815
Z" /> 
<path style="fill:#000000; fill-opacity:1.0; 
stroke:#000000; stroke-width:0; stroke-opacity:1; 
stroke-linecap:round; stroke-linejoin:round;fill-rule:evenodd;"
d="M 17006,23879
17065,23903
17118,23939
17164,23984
17199,24037
17224,24097
17236,24159
17236,24223
17224,24286
17199,24345
17164,24399
17118,24444
17065,24480
17006,24504
16943,24517
16879,24517
16816,24504
16757,24480
16704,24444
16658,24399
16623,24345
16598,24286
16586,24223
16586,24159
16598,24097
16623,24037
16658,23984
16704,23939
16757,23903
16816,23879
16879,23866
16943,23866
17006,23879
Z" /> 
<path style="fill:#000000; fill-opacity:1.0; 
stroke:#000000; stroke-width:0; stroke-opacity:1; 
stroke-linecap:round; stroke-linejoin:round;fill-rule:evenodd;"
d="M 12913,23091
12913,23091
12913,23091
12969,23114
12969,23114
13019,23147
13062,23190
13072,23205
13095,23240
13101,23253
13118,23295
13130,23354
13130,23414
13121,23460
13118,23473
13095,23529
13095,23529
13062,23579
13019,23622
12999,23635
12969,23655
12913,23678
12913,23678
12913,23678
12854,23690
12794,23690
12735,23678
12735,23678
12735,23678
12680,23655
12649,23635
12630,23622
12587,23579
12554,23529
12554,23529
12531,23473
12528,23460
12519,23414
12519,23354
12531,23295
12548,23253
12554,23240
12577,23205
12587,23190
12630,23147
12680,23114
12680,23114
12735,23091
12735,23091
12735,23091
12794,23079
12854,23079
12913,23091
Z" /> 
<path style="fill:#000000; fill-opacity:1.0; 
stroke:#000000; stroke-width:0; stroke-opacity:1; 
stroke-linecap:round; stroke-linejoin:round;fill-rule:evenodd;"
d="M 2326,22954
2395,22982
2421,23000
2456,23023
2508,23076
2525,23101
2549,23137
2577,23205
2592,23277
2592,23351
2577,23423
2549,23492
2535,23513
2508,23553
2456,23605
2431,23622
2395,23646
2326,23674
2254,23689
2180,23689
2108,23674
2040,23646
2003,23622
1979,23605
1926,23553
1900,23513
1885,23492
1857,23423
1843,23351
1843,23277
1857,23205
1885,23137
1910,23101
1926,23076
1979,23023
2014,23000
2040,22982
2108,22954
2180,22940
2254,22940
2326,22954
Z" /> 
<path style="fill:#000000; fill-opacity:1.0; 
stroke:#000000; stroke-width:0; stroke-opacity:1; 
stroke-linecap:round; stroke-linejoin:round;fill-rule:evenodd;"
d="M 7163,22831
7189,22834
7256,22854
7318,22887
7332,22899
7372,22932
7404,22971
7416,22986
7449,23047
7469,23114
7476,23184
7469,23253
7449,23320
7416,23382
7413,23385
7372,23436
7332,23468
7318,23480
7318,23480
7260,23511
7256,23513
7189,23533
7163,23536
7137,23538
6984,23538
6958,23536
6932,23533
6865,23513
6861,23511
6803,23480
6803,23480
6789,23468
6749,23436
6708,23385
6705,23382
6672,23320
6652,23253
6645,23184
6652,23114
6672,23047
6705,22986
6717,22971
6749,22932
6789,22899
6803,22887
6865,22854
6932,22834
6958,22831
6984,22829
7137,22829
7163,22831
Z" /> 
<path style="fill:#000000; fill-opacity:1.0; 
stroke:#000000; stroke-width:0; stroke-opacity:1; 
stroke-linecap:round; stroke-linejoin:round;fill-rule:evenodd;"
d="M 4924,22589
4928,22589
4936,22589
4944,22590
4978,22597
4986,22599
5017,22612
5019,22613
5019,22613
5023,22615
5023,22615
5025,22616
5053,22635
5060,22641
5084,22665
5089,22671
5108,22699
5109,22702
5109,22702
5111,22705
5111,22705
5112,22707
5125,22738
5128,22747
5134,22780
5135,22789
5135,22796
5135,22801
5136,22808
5136,23000
5135,23006
5134,23010
5132,23014
5130,23017
5125,23021
5121,23023
5114,23030
5109,23038
5105,23047
5103,23057
5103,23066
5105,23076
5109,23085
5114,23093
5121,23100
5125,23102
5130,23106
5132,23109
5134,23113
5135,23117
5136,23123
5136,23315
5135,23322
5135,23327
5135,23334
5134,23343
5128,23376
5125,23385
5112,23416
5111,23418
5111,23418
5109,23421
5109,23421
5108,23424
5089,23452
5084,23458
5060,23482
5053,23488
5025,23507
5023,23508
5023,23508
5019,23510
5019,23510
5017,23511
4986,23524
4978,23526
4944,23533
4936,23534
4928,23534
4924,23534
4916,23535
4724,23535
4717,23534
4712,23534
4705,23534
4696,23533
4663,23526
4655,23524
4624,23511
4621,23510
4621,23510
4618,23508
4618,23508
4616,23507
4588,23488
4581,23482
4557,23458
4551,23452
4533,23424
4532,23421
4532,23421
4530,23418
4530,23418
4529,23416
4516,23385
4513,23376
4506,23343
4506,23334
4506,23327
4505,23322
4505,23315
4505,23123
4505,23117
4506,23113
4508,23109
4511,23106
4516,23102
4520,23100
4527,23093
4532,23085
4536,23076
4538,23066
4538,23057
4536,23047
4532,23038
4527,23030
4520,23023
4516,23021
4511,23017
4508,23014
4506,23010
4505,23006
4505,23000
4505,22808
4505,22801
4506,22796
4506,22789
4506,22780
4513,22747
4516,22738
4529,22707
4530,22705
4530,22705
4532,22702
4532,22702
4533,22699
4551,22671
4557,22665
4581,22641
4588,22635
4616,22616
4618,22615
4618,22615
4621,22613
4621,22613
4624,22612
4655,22599
4663,22597
4696,22590
4705,22589
4712,22589
4717,22589
4724,22588
4916,22588
4924,22589
Z" /> 
<path style="fill:#000000; fill-opacity:1.0; 
stroke:#000000; stroke-width:0; stroke-opacity:1; 
stroke-linecap:round; stroke-linejoin:round;fill-rule:evenodd;"
d="M 15037,22894
15096,22919
15150,22955
15195,23000
15231,23053
15255,23112
15268,23175
15268,23239
15255,23302
15231,23361
15195,23414
15150,23460
15096,23495
15037,23520
14974,23532
14910,23532
14848,23520
14788,23495
14735,23460
14690,23414
14654,23361
14630,23302
14617,23239
14617,23175
14630,23112
14654,23053
14690,23000
14735,22955
14788,22919
14848,22894
14910,22882
14974,22882
15037,22894
Z" /> 
<path style="fill:#000000; fill-opacity:1.0; 
stroke:#000000; stroke-width:0; stroke-opacity:1; 
stroke-linecap:round; stroke-linejoin:round;fill-rule:evenodd;"
d="M 2326,21970
2395,21998
2395,21998
2456,22039
2508,22091
2508,22091
2549,22153
2577,22221
2592,22293
2592,22367
2577,22439
2549,22507
2549,22507
2508,22569
2456,22621
2434,22635
2395,22662
2326,22690
2254,22704
2180,22704
2108,22690
2040,22662
2000,22635
1979,22621
1926,22569
1885,22507
1885,22507
1857,22439
1843,22367
1843,22293
1857,22221
1885,22153
1926,22091
1926,22091
1979,22039
2040,21998
2040,21998
2108,21970
2180,21956
2254,21956
2326,21970
Z" /> 
<path style="fill:#000000; fill-opacity:1.0; 
stroke:#000000; stroke-width:0; stroke-opacity:1; 
stroke-linecap:round; stroke-linejoin:round;fill-rule:evenodd;"
d="M 12913,22091
12913,22091
12913,22091
12969,22114
12969,22114
13019,22147
13062,22190
13082,22221
13095,22240
13117,22293
13118,22295
13130,22354
13130,22414
13125,22439
13118,22473
13095,22529
13095,22529
13062,22579
13019,22622
12969,22655
12969,22655
12913,22678
12913,22678
12913,22678
12854,22690
12794,22690
12735,22678
12735,22678
12735,22678
12680,22655
12680,22655
12630,22622
12587,22579
12554,22529
12554,22529
12531,22473
12524,22439
12519,22414
12519,22354
12531,22295
12531,22293
12554,22240
12566,22221
12587,22190
12630,22147
12680,22114
12680,22114
12735,22091
12735,22091
12735,22091
12794,22079
12854,22079
12913,22091
Z" /> 
<path style="fill:#000000; fill-opacity:1.0; 
stroke:#000000; stroke-width:0; stroke-opacity:1; 
stroke-linecap:round; stroke-linejoin:round;fill-rule:evenodd;"
d="M 17236,22548
16586,22548
16586,21898
17236,21898
17236,22548
Z" /> 
<path style="fill:#000000; fill-opacity:1.0; 
stroke:#000000; stroke-width:0; stroke-opacity:1; 
stroke-linecap:round; stroke-linejoin:round;fill-rule:evenodd;"
d="M 12913,21091
12913,21091
12913,21091
12969,21114
12969,21114
13019,21147
13062,21190
13068,21198
13095,21240
13115,21288
13118,21295
13130,21354
13130,21414
13125,21437
13118,21473
13095,21529
13095,21529
13062,21579
13019,21622
12969,21655
12969,21655
12913,21678
12913,21678
12913,21678
12854,21690
12794,21690
12735,21678
12735,21678
12735,21678
12680,21655
12680,21655
12630,21622
12587,21579
12554,21529
12554,21529
12531,21473
12523,21437
12519,21414
12519,21354
12531,21295
12533,21288
12554,21240
12581,21198
12587,21190
12630,21147
12680,21114
12680,21114
12735,21091
12735,21091
12735,21091
12794,21079
12854,21079
12913,21091
Z" /> 
<path style="fill:#000000; fill-opacity:1.0; 
stroke:#000000; stroke-width:0; stroke-opacity:1; 
stroke-linecap:round; stroke-linejoin:round;fill-rule:evenodd;"
d="M 14325,21617
13674,21617
13674,21065
14325,21065
14325,21617
Z" /> 
<path style="fill:#000000; fill-opacity:1.0; 
stroke:#000000; stroke-width:0; stroke-opacity:1; 
stroke-linecap:round; stroke-linejoin:round;fill-rule:evenodd;"
d="M 17455,21617
16804,21617
16804,21065
17455,21065
17455,21617
Z" /> 
<path style="fill:#000000; fill-opacity:1.0; 
stroke:#000000; stroke-width:0; stroke-opacity:1; 
stroke-linecap:round; stroke-linejoin:round;fill-rule:evenodd;"
d="M 10954,20579
10965,20581
11055,20618
11135,20672
11204,20741
11204,20741
11258,20822
11295,20911
11314,21006
11314,21103
11295,21198
11278,21240
11258,21288
11204,21369
11135,21437
11055,21491
11055,21491
11055,21491
10965,21528
10870,21547
10773,21547
10678,21528
10588,21491
10588,21491
10588,21491
10508,21437
10439,21369
10385,21288
10365,21240
10348,21198
10329,21103
10329,21006
10348,20911
10385,20822
10439,20741
10439,20741
10508,20672
10588,20618
10678,20581
10689,20579
10773,20562
10870,20562
10954,20579
Z" /> 
<path style="fill:#000000; fill-opacity:1.0; 
stroke:#000000; stroke-width:0; stroke-opacity:1; 
stroke-linecap:round; stroke-linejoin:round;fill-rule:evenodd;"
d="M 12913,20091
12913,20091
12913,20091
12969,20114
12969,20114
13019,20147
13062,20190
13095,20240
13095,20240
13118,20295
13130,20354
13130,20414
13118,20473
13095,20529
13095,20529
13062,20579
13019,20622
12969,20655
12969,20655
12913,20678
12913,20678
12913,20678
12854,20690
12794,20690
12735,20678
12735,20678
12735,20678
12680,20655
12680,20655
12630,20622
12587,20579
12554,20529
12554,20529
12531,20473
12519,20414
12519,20354
12531,20295
12554,20240
12554,20240
12587,20190
12630,20147
12680,20114
12680,20114
12735,20091
12735,20091
12735,20091
12794,20079
12854,20079
12913,20091
Z" /> 
<path style="fill:#000000; fill-opacity:1.0; 
stroke:#000000; stroke-width:0; stroke-opacity:1; 
stroke-linecap:round; stroke-linejoin:round;fill-rule:evenodd;"
d="M 11314,20397
10329,20397
10329,19412
11314,19412
11314,20397
Z" /> 
<path style="fill:#000000; fill-opacity:1.0; 
stroke:#000000; stroke-width:0; stroke-opacity:1; 
stroke-linecap:round; stroke-linejoin:round;fill-rule:evenodd;"
d="M 17455,19845
16804,19845
16804,19293
17455,19293
17455,19845
Z" /> 
<path style="fill:#000000; fill-opacity:1.0; 
stroke:#000000; stroke-width:0; stroke-opacity:1; 
stroke-linecap:round; stroke-linejoin:round;fill-rule:evenodd;"
d="M 14325,19845
13674,19845
13674,19293
14325,19293
14325,19845
Z" /> 
<path style="fill:#000000; fill-opacity:1.0; 
stroke:#000000; stroke-width:0; stroke-opacity:1; 
stroke-linecap:round; stroke-linejoin:round;fill-rule:evenodd;"
d="M 7018,19546
6308,19546
6308,18837
7018,18837
7018,19546
Z" /> 
<path style="fill:#000000; fill-opacity:1.0; 
stroke:#000000; stroke-width:0; stroke-opacity:1; 
stroke-linecap:round; stroke-linejoin:round;fill-rule:evenodd;"
d="M 9774,19259
9025,19259
9025,18510
9774,18510
9774,19259
Z" /> 
<path style="fill:#000000; fill-opacity:1.0; 
stroke:#000000; stroke-width:0; stroke-opacity:1; 
stroke-linecap:round; stroke-linejoin:round;fill-rule:evenodd;"
d="M 11703,19180
10954,19180
10954,18431
11703,18431
11703,19180
Z" /> 
<path style="fill:#000000; fill-opacity:1.0; 
stroke:#000000; stroke-width:0; stroke-opacity:1; 
stroke-linecap:round; stroke-linejoin:round;fill-rule:evenodd;"
d="M 17455,18956
16804,18956
16804,18404
17455,18404
17455,18956
Z" /> 
<path style="fill:#000000; fill-opacity:1.0; 
stroke:#000000; stroke-width:0; stroke-opacity:1; 
stroke-linecap:round; stroke-linejoin:round;fill-rule:evenodd;"
d="M 14325,18956
13674,18956
13674,18404
14325,18404
14325,18956
Z" /> 
<path style="fill:#000000; fill-opacity:1.0; 
stroke:#000000; stroke-width:0; stroke-opacity:1; 
stroke-linecap:round; stroke-linejoin:round;fill-rule:evenodd;"
d="M 6706,17839
6732,17842
6799,17862
6861,17895
6863,17897
6915,17939
6948,17979
6959,17993
6992,18055
7012,18122
7019,18191
7012,18261
6992,18328
6959,18389
6948,18404
6915,18443
6875,18476
6861,18488
6799,18521
6732,18541
6706,18544
6680,18546
6645,18546
6619,18544
6593,18541
6526,18521
6465,18488
6451,18476
6411,18443
6378,18404
6367,18389
6334,18328
6313,18261
6306,18191
6313,18122
6334,18055
6367,17993
6378,17979
6411,17939
6463,17897
6465,17895
6526,17862
6593,17842
6619,17839
6645,17837
6680,17837
6706,17839
Z" /> 
<path style="fill:#000000; fill-opacity:1.0; 
stroke:#000000; stroke-width:0; stroke-opacity:1; 
stroke-linecap:round; stroke-linejoin:round;fill-rule:evenodd;"
d="M 2252,17714
2320,17742
2320,17742
2381,17783
2433,17835
2451,17862
2474,17897
2502,17965
2517,18037
2517,18111
2502,18183
2474,18251
2468,18261
2433,18313
2381,18365
2350,18386
2320,18406
2252,18434
2179,18448
2106,18448
2033,18434
1965,18406
1935,18386
1904,18365
1852,18313
1817,18261
1811,18251
1782,18183
1768,18111
1768,18037
1782,17965
1811,17897
1834,17862
1852,17835
1904,17783
1965,17742
1965,17742
2033,17714
2106,17700
2179,17700
2252,17714
Z" /> 
<path style="fill:#000000; fill-opacity:1.0; 
stroke:#000000; stroke-width:0; stroke-opacity:1; 
stroke-linecap:round; stroke-linejoin:round;fill-rule:evenodd;"
d="M 9508,17524
9576,17553
9576,17553
9638,17594
9690,17646
9690,17646
9731,17707
9759,17775
9774,17847
9774,17921
9759,17994
9731,18062
9731,18062
9690,18123
9638,18175
9613,18191
9576,18216
9508,18244
9436,18259
9362,18259
9290,18244
9222,18216
9185,18191
9160,18175
9108,18123
9067,18062
9067,18062
9039,17994
9025,17921
9025,17847
9039,17775
9067,17707
9108,17646
9108,17646
9160,17594
9222,17553
9222,17553
9290,17524
9362,17510
9436,17510
9508,17524
Z" /> 
<path style="fill:#000000; fill-opacity:1.0; 
stroke:#000000; stroke-width:0; stroke-opacity:1; 
stroke-linecap:round; stroke-linejoin:round;fill-rule:evenodd;"
d="M 11437,17446
11506,17474
11506,17474
11567,17515
11619,17567
11619,17567
11660,17628
11688,17696
11703,17769
11703,17842
11688,17915
11660,17983
11653,17994
11619,18044
11567,18096
11545,18111
11506,18137
11437,18166
11365,18180
11291,18180
11219,18166
11151,18137
11111,18111
11090,18096
11037,18044
11004,17994
10996,17983
10968,17915
10954,17842
10954,17769
10968,17696
10996,17628
11037,17567
11037,17567
11090,17515
11151,17474
11151,17474
11219,17446
11291,17431
11365,17431
11437,17446
Z" /> 
<path style="fill:#000000; fill-opacity:1.0; 
stroke:#000000; stroke-width:0; stroke-opacity:1; 
stroke-linecap:round; stroke-linejoin:round;fill-rule:evenodd;"
d="M 6706,16839
6732,16842
6799,16862
6861,16895
6875,16907
6915,16939
6948,16979
6959,16993
6992,17055
7012,17122
7019,17191
7012,17261
6992,17328
6959,17389
6948,17404
6915,17443
6878,17474
6861,17488
6799,17521
6732,17541
6706,17544
6680,17546
6645,17546
6619,17544
6593,17541
6526,17521
6465,17488
6448,17474
6411,17443
6378,17404
6367,17389
6334,17328
6313,17261
6306,17191
6313,17122
6334,17055
6367,16993
6378,16979
6411,16939
6451,16907
6465,16895
6526,16862
6593,16842
6619,16839
6645,16837
6680,16837
6706,16839
Z" /> 
<path style="fill:#000000; fill-opacity:1.0; 
stroke:#000000; stroke-width:0; stroke-opacity:1; 
stroke-linecap:round; stroke-linejoin:round;fill-rule:evenodd;"
d="M 2252,16730
2320,16758
2320,16758
2381,16799
2433,16851
2433,16851
2474,16912
2502,16981
2517,17053
2517,17127
2502,17199
2474,17267
2474,17267
2433,17328
2381,17381
2368,17389
2320,17422
2252,17450
2179,17464
2106,17464
2033,17450
1965,17422
1917,17389
1904,17381
1852,17328
1811,17267
1811,17267
1782,17199
1768,17127
1768,17053
1782,16981
1811,16912
1852,16851
1852,16851
1904,16799
1965,16758
1965,16758
2033,16730
2106,16715
2179,16715
2252,16730
Z" /> 
<path style="fill:#000000; fill-opacity:1.0; 
stroke:#000000; stroke-width:0; stroke-opacity:1; 
stroke-linecap:round; stroke-linejoin:round;fill-rule:evenodd;"
d="M 17455,17184
16804,17184
16804,16632
17455,16632
17455,17184
Z" /> 
<path style="fill:#000000; fill-opacity:1.0; 
stroke:#000000; stroke-width:0; stroke-opacity:1; 
stroke-linecap:round; stroke-linejoin:round;fill-rule:evenodd;"
d="M 14325,17184
13674,17184
13674,16632
14325,16632
14325,17184
Z" /> 
<path style="fill:#000000; fill-opacity:1.0; 
stroke:#000000; stroke-width:0; stroke-opacity:1; 
stroke-linecap:round; stroke-linejoin:round;fill-rule:evenodd;"
d="M 6706,15839
6732,15842
6799,15862
6861,15895
6875,15907
6915,15939
6948,15979
6959,15993
6992,16055
7012,16122
7019,16191
7012,16261
6992,16328
6959,16389
6954,16396
6915,16443
6875,16476
6861,16488
6799,16521
6732,16541
6706,16544
6680,16546
6645,16546
6619,16544
6593,16541
6526,16521
6465,16488
6451,16476
6411,16443
6372,16396
6367,16389
6334,16328
6313,16261
6306,16191
6313,16122
6334,16055
6367,15993
6378,15979
6411,15939
6451,15907
6465,15895
6526,15862
6593,15842
6619,15839
6645,15837
6680,15837
6706,15839
Z" /> 
<path style="fill:#000000; fill-opacity:1.0; 
stroke:#000000; stroke-width:0; stroke-opacity:1; 
stroke-linecap:round; stroke-linejoin:round;fill-rule:evenodd;"
d="M 2252,15746
2320,15774
2320,15774
2381,15815
2433,15867
2433,15867
2474,15928
2502,15996
2517,16069
2517,16142
2502,16215
2474,16283
2474,16283
2433,16344
2381,16396
2350,16417
2320,16437
2252,16466
2179,16480
2106,16480
2033,16466
1965,16437
1935,16417
1904,16396
1852,16344
1811,16283
1811,16283
1782,16215
1768,16142
1768,16069
1782,15996
1811,15928
1852,15867
1852,15867
1904,15815
1965,15774
1965,15774
2033,15746
2106,15731
2179,15731
2252,15746
Z" /> 
<path style="fill:#000000; fill-opacity:1.0; 
stroke:#000000; stroke-width:0; stroke-opacity:1; 
stroke-linecap:round; stroke-linejoin:round;fill-rule:evenodd;"
d="M 14441,16040
14046,16040
14046,15213
14441,15213
14441,16040
Z" /> 
<path style="fill:#000000; fill-opacity:1.0; 
stroke:#000000; stroke-width:0; stroke-opacity:1; 
stroke-linecap:round; stroke-linejoin:round;fill-rule:evenodd;"
d="M 13941,16040
13546,16040
13546,15213
13941,15213
13941,16040
Z" /> 
<path style="fill:#000000; fill-opacity:1.0; 
stroke:#000000; stroke-width:0; stroke-opacity:1; 
stroke-linecap:round; stroke-linejoin:round;fill-rule:evenodd;"
d="M 13441,16040
13046,16040
13046,15213
13441,15213
13441,16040
Z" /> 
<path style="fill:#000000; fill-opacity:1.0; 
stroke:#000000; stroke-width:0; stroke-opacity:1; 
stroke-linecap:round; stroke-linejoin:round;fill-rule:evenodd;"
d="M 12941,16040
12546,16040
12546,15213
12941,15213
12941,16040
Z" /> 
<path style="fill:#000000; fill-opacity:1.0; 
stroke:#000000; stroke-width:0; stroke-opacity:1; 
stroke-linecap:round; stroke-linejoin:round;fill-rule:evenodd;"
d="M 12441,16040
12046,16040
12046,15213
12441,15213
12441,16040
Z" /> 
<path style="fill:#000000; fill-opacity:1.0; 
stroke:#000000; stroke-width:0; stroke-opacity:1; 
stroke-linecap:round; stroke-linejoin:round;fill-rule:evenodd;"
d="M 11941,16040
11546,16040
11546,15213
11941,15213
11941,16040
Z" /> 
<path style="fill:#000000; fill-opacity:1.0; 
stroke:#000000; stroke-width:0; stroke-opacity:1; 
stroke-linecap:round; stroke-linejoin:round;fill-rule:evenodd;"
d="M 11441,16040
11046,16040
11046,15213
11441,15213
11441,16040
Z" /> 
<path style="fill:#000000; fill-opacity:1.0; 
stroke:#000000; stroke-width:0; stroke-opacity:1; 
stroke-linecap:round; stroke-linejoin:round;fill-rule:evenodd;"
d="M 10941,16040
10546,16040
10546,15213
10941,15213
10941,16040
Z" /> 
<path style="fill:#000000; fill-opacity:1.0; 
stroke:#000000; stroke-width:0; stroke-opacity:1; 
stroke-linecap:round; stroke-linejoin:round;fill-rule:evenodd;"
d="M 10441,16040
10046,16040
10046,15213
10441,15213
10441,16040
Z" /> 
<path style="fill:#000000; fill-opacity:1.0; 
stroke:#000000; stroke-width:0; stroke-opacity:1; 
stroke-linecap:round; stroke-linejoin:round;fill-rule:evenodd;"
d="M 9941,16040
9546,16040
9546,15213
9941,15213
9941,16040
Z" /> 
<path style="fill:#000000; fill-opacity:1.0; 
stroke:#000000; stroke-width:0; stroke-opacity:1; 
stroke-linecap:round; stroke-linejoin:round;fill-rule:evenodd;"
d="M 6706,14839
6732,14842
6799,14862
6861,14895
6875,14907
6915,14939
6948,14979
6959,14993
6992,15055
7012,15122
7019,15191
7012,15261
6992,15328
6959,15389
6948,15404
6915,15443
6875,15476
6861,15488
6799,15521
6732,15541
6706,15544
6680,15546
6645,15546
6619,15544
6593,15541
6526,15521
6465,15488
6451,15476
6411,15443
6378,15404
6367,15389
6334,15328
6313,15261
6306,15191
6313,15122
6334,15055
6367,14993
6378,14979
6411,14939
6451,14907
6465,14895
6526,14862
6593,14842
6619,14839
6645,14837
6680,14837
6706,14839
Z" /> 
<path style="fill:#000000; fill-opacity:1.0; 
stroke:#000000; stroke-width:0; stroke-opacity:1; 
stroke-linecap:round; stroke-linejoin:round;fill-rule:evenodd;"
d="M 15754,15430
14926,15430
14926,15036
15754,15036
15754,15430
Z" /> 
<path style="fill:#000000; fill-opacity:1.0; 
stroke:#000000; stroke-width:0; stroke-opacity:1; 
stroke-linecap:round; stroke-linejoin:round;fill-rule:evenodd;"
d="M 9061,15430
8233,15430
8233,15036
9061,15036
9061,15430
Z" /> 
<path style="fill:#000000; fill-opacity:1.0; 
stroke:#000000; stroke-width:0; stroke-opacity:1; 
stroke-linecap:round; stroke-linejoin:round;fill-rule:evenodd;"
d="M 15754,14930
14926,14930
14926,14536
15754,14536
15754,14930
Z" /> 
<path style="fill:#000000; fill-opacity:1.0; 
stroke:#000000; stroke-width:0; stroke-opacity:1; 
stroke-linecap:round; stroke-linejoin:round;fill-rule:evenodd;"
d="M 9061,14930
8233,14930
8233,14536
9061,14536
9061,14930
Z" /> 
<path style="fill:#000000; fill-opacity:1.0; 
stroke:#000000; stroke-width:0; stroke-opacity:1; 
stroke-linecap:round; stroke-linejoin:round;fill-rule:evenodd;"
d="M 6706,13839
6732,13842
6799,13862
6861,13895
6869,13901
6915,13939
6939,13968
6959,13993
6992,14055
7012,14122
7019,14191
7012,14261
7004,14290
6992,14328
6976,14359
6959,14389
6957,14393
6915,14443
6875,14476
6861,14488
6799,14521
6732,14541
6706,14544
6680,14546
6645,14546
6619,14544
6593,14541
6526,14521
6465,14488
6451,14476
6411,14443
6369,14393
6367,14389
6350,14359
6334,14328
6322,14290
6313,14261
6306,14191
6313,14122
6334,14055
6367,13993
6387,13968
6411,13939
6457,13901
6465,13895
6526,13862
6593,13842
6619,13839
6645,13837
6680,13837
6706,13839
Z" /> 
<path style="fill:#000000; fill-opacity:1.0; 
stroke:#000000; stroke-width:0; stroke-opacity:1; 
stroke-linecap:round; stroke-linejoin:round;fill-rule:evenodd;"
d="M 15754,14430
14926,14430
14926,14036
15754,14036
15754,14430
Z" /> 
<path style="fill:#000000; fill-opacity:1.0; 
stroke:#000000; stroke-width:0; stroke-opacity:1; 
stroke-linecap:round; stroke-linejoin:round;fill-rule:evenodd;"
d="M 9061,14430
8233,14430
8233,14036
9061,14036
9061,14430
Z" /> 
<path style="fill:#000000; fill-opacity:1.0; 
stroke:#000000; stroke-width:0; stroke-opacity:1; 
stroke-linecap:round; stroke-linejoin:round;fill-rule:evenodd;"
d="M 16718,13686
16744,13688
16811,13709
16873,13742
16887,13753
16927,13786
16960,13826
16971,13840
16983,13862
17001,13895
17004,13901
17024,13968
17031,14038
17024,14107
17004,14174
16971,14236
16960,14250
16927,14290
16887,14323
16873,14334
16811,14367
16744,14387
16724,14389
16692,14393
16657,14393
16625,14389
16605,14387
16538,14367
16477,14334
16463,14323
16423,14290
16390,14250
16378,14236
16345,14174
16325,14107
16318,14038
16325,13968
16345,13901
16349,13895
16366,13862
16378,13840
16390,13826
16423,13786
16463,13753
16477,13742
16538,13709
16605,13688
16631,13686
16657,13683
16692,13683
16718,13686
Z" /> 
<path style="fill:#000000; fill-opacity:1.0; 
stroke:#000000; stroke-width:0; stroke-opacity:1; 
stroke-linecap:round; stroke-linejoin:round;fill-rule:evenodd;"
d="M 9061,13930
8233,13930
8233,13536
9061,13536
9061,13930
Z" /> 
<path style="fill:#000000; fill-opacity:1.0; 
stroke:#000000; stroke-width:0; stroke-opacity:1; 
stroke-linecap:round; stroke-linejoin:round;fill-rule:evenodd;"
d="M 15754,13930
14926,13930
14926,13536
15754,13536
15754,13930
Z" /> 
<path style="fill:#000000; fill-opacity:1.0; 
stroke:#000000; stroke-width:0; stroke-opacity:1; 
stroke-linecap:round; stroke-linejoin:round;fill-rule:evenodd;"
d="M 6706,12839
6732,12842
6799,12862
6861,12895
6869,12901
6915,12939
6948,12979
6959,12993
6992,13055
7012,13122
7019,13191
7012,13261
7009,13273
6992,13328
6976,13359
6959,13389
6957,13393
6915,13443
6875,13476
6861,13488
6799,13521
6732,13541
6706,13544
6680,13546
6645,13546
6619,13544
6593,13541
6526,13521
6465,13488
6451,13476
6411,13443
6369,13393
6367,13389
6350,13359
6334,13328
6317,13273
6313,13261
6306,13191
6313,13122
6334,13055
6367,12993
6378,12979
6411,12939
6457,12901
6465,12895
6526,12862
6593,12842
6619,12839
6645,12837
6680,12837
6706,12839
Z" /> 
<path style="fill:#000000; fill-opacity:1.0; 
stroke:#000000; stroke-width:0; stroke-opacity:1; 
stroke-linecap:round; stroke-linejoin:round;fill-rule:evenodd;"
d="M 3536,12503
3536,12503
3538,12503
3542,12503
3576,12506
3584,12508
3617,12518
3620,12520
3622,12521
3622,12521
3625,12522
3654,12538
3662,12543
3667,12548
3671,12551
3672,12551
3672,12551
3675,12553
3677,12555
3824,12678
3829,12683
3833,12687
3838,12691
3844,12698
3866,12724
3870,12731
3886,12761
3889,12769
3899,12802
3900,12810
3903,12844
3903,12853
3899,12886
3899,12889
3899,12889
3898,12893
3898,12893
3898,12895
3887,12927
3884,12935
3868,12965
3863,12972
3858,12978
3855,12982
3851,12988
3728,13135
3726,13136
3726,13136
3723,13139
3720,13141
3720,13141
3716,13143
3712,13143
3712,13143
3712,13143
3706,13143
3701,13143
3691,13144
3682,13146
3674,13151
3666,13157
3660,13164
3655,13173
3652,13182
3651,13192
3652,13201
3654,13206
3655,13212
3655,13216
3654,13220
3652,13224
3649,13229
3525,13376
3520,13381
3517,13385
3512,13390
3506,13396
3479,13417
3477,13419
3477,13419
3474,13421
3474,13421
3472,13422
3442,13438
3439,13439
3436,13440
3436,13440
3434,13441
3402,13451
3399,13451
3399,13451
3395,13452
3395,13452
3393,13452
3359,13455
3357,13455
3357,13455
3355,13455
3350,13455
3317,13451
3308,13450
3276,13439
3272,13438
3270,13437
3270,13437
3268,13436
3238,13420
3231,13415
3226,13410
3222,13407
3221,13407
3221,13407
3218,13404
3216,13403
3069,13280
3064,13274
3060,13271
3054,13266
3048,13260
3027,13234
3022,13226
3007,13197
3004,13188
2994,13156
2992,13147
2989,13114
2990,13105
2993,13071
2994,13069
2995,13065
2995,13065
2995,13063
3005,13030
3009,13022
3025,12993
3030,12985
3035,12980
3037,12976
3042,12970
3165,12823
3170,12819
3173,12816
3173,12816
3177,12815
3180,12814
3180,12814
3181,12814
3187,12814
3192,12815
3201,12814
3211,12811
3219,12807
3227,12801
3233,12793
3237,12785
3240,12776
3241,12766
3241,12756
3239,12752
3238,12746
3238,12742
3239,12738
3240,12734
3244,12729
3367,12582
3373,12577
3376,12573
3381,12568
3387,12561
3413,12540
3415,12539
3415,12539
3419,12537
3419,12537
3421,12535
3451,12520
3454,12518
3456,12517
3456,12517
3459,12517
3491,12507
3494,12507
3494,12507
3497,12506
3497,12506
3500,12506
3533,12503
3536,12503
Z" /> 
<path style="fill:#000000; fill-opacity:1.0; 
stroke:#000000; stroke-width:0; stroke-opacity:1; 
stroke-linecap:round; stroke-linejoin:round;fill-rule:evenodd;"
d="M 9061,13430
8233,13430
8233,13036
9061,13036
9061,13430
Z" /> 
<path style="fill:#000000; fill-opacity:1.0; 
stroke:#000000; stroke-width:0; stroke-opacity:1; 
stroke-linecap:round; stroke-linejoin:round;fill-rule:evenodd;"
d="M 15754,13430
14926,13430
14926,13036
15754,13036
15754,13430
Z" /> 
<path style="fill:#000000; fill-opacity:1.0; 
stroke:#000000; stroke-width:0; stroke-opacity:1; 
stroke-linecap:round; stroke-linejoin:round;fill-rule:evenodd;"
d="M 16718,12686
16744,12688
16811,12709
16873,12742
16882,12749
16927,12786
16956,12821
16971,12840
16976,12849
17001,12895
17004,12901
17024,12968
17031,13038
17024,13107
17004,13174
16971,13236
16960,13250
16927,13290
16887,13323
16873,13334
16811,13367
16744,13387
16724,13389
16692,13393
16657,13393
16625,13389
16605,13387
16538,13367
16477,13334
16463,13323
16423,13290
16390,13250
16378,13236
16345,13174
16325,13107
16318,13038
16325,12968
16345,12901
16349,12895
16373,12849
16378,12840
16394,12821
16423,12786
16467,12749
16477,12742
16538,12709
16605,12688
16631,12686
16657,12683
16692,12683
16718,12686
Z" /> 
<path style="fill:#000000; fill-opacity:1.0; 
stroke:#000000; stroke-width:0; stroke-opacity:1; 
stroke-linecap:round; stroke-linejoin:round;fill-rule:evenodd;"
d="M 15754,12930
14926,12930
14926,12536
15754,12536
15754,12930
Z" /> 
<path style="fill:#000000; fill-opacity:1.0; 
stroke:#000000; stroke-width:0; stroke-opacity:1; 
stroke-linecap:round; stroke-linejoin:round;fill-rule:evenodd;"
d="M 9061,12930
8233,12930
8233,12536
9061,12536
9061,12930
Z" /> 
<path style="fill:#000000; fill-opacity:1.0; 
stroke:#000000; stroke-width:0; stroke-opacity:1; 
stroke-linecap:round; stroke-linejoin:round;fill-rule:evenodd;"
d="M 2064,11864
2157,11903
2157,11903
2241,11959
2313,12030
2369,12114
2369,12114
2407,12207
2427,12306
2427,12407
2407,12506
2369,12599
2369,12599
2313,12683
2241,12755
2157,12811
2157,12811
2157,12811
2064,12849
1965,12869
1864,12869
1765,12849
1672,12811
1672,12811
1672,12811
1588,12755
1517,12683
1461,12599
1461,12599
1422,12506
1403,12407
1403,12306
1422,12207
1461,12114
1461,12114
1517,12030
1588,11959
1672,11903
1672,11903
1765,11864
1864,11845
1965,11845
2064,11864
Z" /> 
<path style="fill:#000000; fill-opacity:1.0; 
stroke:#000000; stroke-width:0; stroke-opacity:1; 
stroke-linecap:round; stroke-linejoin:round;fill-rule:evenodd;"
d="M 12604,12690
10596,12690
10596,10681
12604,10681
12604,12690
Z" /> 
<path style="fill:#000000; fill-opacity:1.0; 
stroke:#000000; stroke-width:0; stroke-opacity:1; 
stroke-linecap:round; stroke-linejoin:round;fill-rule:evenodd;"
d="M 6706,11839
6732,11842
6799,11862
6861,11895
6875,11907
6915,11939
6931,11959
6959,11993
6992,12055
7012,12122
7019,12191
7012,12261
6999,12306
6992,12328
6976,12359
6959,12389
6957,12393
6915,12443
6875,12476
6861,12488
6861,12488
6801,12520
6799,12521
6732,12541
6706,12544
6680,12546
6645,12546
6619,12544
6593,12541
6526,12521
6525,12520
6465,12488
6465,12488
6451,12476
6411,12443
6369,12393
6367,12389
6350,12359
6334,12328
6327,12306
6313,12261
6306,12191
6313,12122
6334,12055
6367,11993
6395,11959
6411,11939
6451,11907
6465,11895
6526,11862
6593,11842
6619,11839
6645,11837
6680,11837
6706,11839
Z" /> 
<path style="fill:#000000; fill-opacity:1.0; 
stroke:#000000; stroke-width:0; stroke-opacity:1; 
stroke-linecap:round; stroke-linejoin:round;fill-rule:evenodd;"
d="M 9061,12430
8233,12430
8233,12036
9061,12036
9061,12430
Z" /> 
<path style="fill:#000000; fill-opacity:1.0; 
stroke:#000000; stroke-width:0; stroke-opacity:1; 
stroke-linecap:round; stroke-linejoin:round;fill-rule:evenodd;"
d="M 15754,12430
14926,12430
14926,12036
15754,12036
15754,12430
Z" /> 
<path style="fill:#000000; fill-opacity:1.0; 
stroke:#000000; stroke-width:0; stroke-opacity:1; 
stroke-linecap:round; stroke-linejoin:round;fill-rule:evenodd;"
d="M 16718,11686
16744,11688
16811,11709
16873,11742
16887,11753
16927,11786
16960,11826
16971,11840
16974,11845
17001,11895
17004,11901
17024,11968
17031,12038
17024,12107
17004,12174
16971,12236
16960,12250
16927,12290
16887,12323
16873,12334
16811,12367
16744,12387
16724,12389
16692,12393
16657,12393
16625,12389
16605,12387
16538,12367
16477,12334
16463,12323
16423,12290
16390,12250
16378,12236
16345,12174
16325,12107
16318,12038
16325,11968
16345,11901
16349,11895
16376,11845
16378,11840
16390,11826
16423,11786
16463,11753
16477,11742
16538,11709
16605,11688
16631,11686
16657,11683
16692,11683
16718,11686
Z" /> 
<path style="fill:#000000; fill-opacity:1.0; 
stroke:#000000; stroke-width:0; stroke-opacity:1; 
stroke-linecap:round; stroke-linejoin:round;fill-rule:evenodd;"
d="M 15754,11930
14926,11930
14926,11536
15754,11536
15754,11930
Z" /> 
<path style="fill:#000000; fill-opacity:1.0; 
stroke:#000000; stroke-width:0; stroke-opacity:1; 
stroke-linecap:round; stroke-linejoin:round;fill-rule:evenodd;"
d="M 9061,11930
8233,11930
8233,11536
9061,11536
9061,11930
Z" /> 
<path style="fill:#000000; fill-opacity:1.0; 
stroke:#000000; stroke-width:0; stroke-opacity:1; 
stroke-linecap:round; stroke-linejoin:round;fill-rule:evenodd;"
d="M 4388,10835
4447,10860
4500,10896
4545,10941
4581,10994
4606,11053
4618,11116
4618,11180
4606,11243
4581,11302
4545,11355
4500,11401
4447,11436
4388,11461
4325,11473
4261,11473
4198,11461
4139,11436
4086,11401
4040,11355
4005,11302
3980,11243
3968,11180
3968,11116
3980,11053
4005,10994
4040,10941
4086,10896
4139,10860
4198,10835
4261,10823
4325,10823
4388,10835
Z" /> 
<path style="fill:#000000; fill-opacity:1.0; 
stroke:#000000; stroke-width:0; stroke-opacity:1; 
stroke-linecap:round; stroke-linejoin:round;fill-rule:evenodd;"
d="M 2064,10443
2157,10482
2157,10482
2241,10538
2313,10609
2362,10683
2369,10693
2407,10786
2427,10885
2427,10986
2407,11085
2370,11174
2369,11178
2313,11262
2241,11333
2157,11389
2157,11389
2157,11389
2064,11428
1965,11448
1864,11448
1765,11428
1672,11389
1672,11389
1672,11389
1588,11333
1517,11262
1461,11178
1459,11174
1422,11085
1403,10986
1403,10885
1422,10786
1461,10693
1468,10683
1517,10609
1588,10538
1672,10482
1672,10482
1765,10443
1864,10423
1965,10423
2064,10443
Z" /> 
<path style="fill:#000000; fill-opacity:1.0; 
stroke:#000000; stroke-width:0; stroke-opacity:1; 
stroke-linecap:round; stroke-linejoin:round;fill-rule:evenodd;"
d="M 9061,11430
8233,11430
8233,11036
9061,11036
9061,11430
Z" /> 
<path style="fill:#000000; fill-opacity:1.0; 
stroke:#000000; stroke-width:0; stroke-opacity:1; 
stroke-linecap:round; stroke-linejoin:round;fill-rule:evenodd;"
d="M 15754,11430
14926,11430
14926,11036
15754,11036
15754,11430
Z" /> 
<path style="fill:#000000; fill-opacity:1.0; 
stroke:#000000; stroke-width:0; stroke-opacity:1; 
stroke-linecap:round; stroke-linejoin:round;fill-rule:evenodd;"
d="M 16718,10686
16744,10688
16811,10709
16873,10742
16887,10753
16927,10786
16957,10823
16971,10840
17004,10901
17024,10968
17031,11038
17024,11107
17004,11174
16971,11236
16960,11250
16927,11290
16887,11323
16873,11334
16811,11367
16744,11387
16718,11390
16692,11393
16657,11393
16631,11390
16605,11387
16538,11367
16477,11334
16463,11323
16423,11290
16390,11250
16378,11236
16345,11174
16325,11107
16318,11038
16325,10968
16345,10901
16378,10840
16392,10823
16423,10786
16463,10753
16477,10742
16538,10709
16605,10688
16631,10686
16657,10683
16692,10683
16718,10686
Z" /> 
<path style="fill:#000000; fill-opacity:1.0; 
stroke:#000000; stroke-width:0; stroke-opacity:1; 
stroke-linecap:round; stroke-linejoin:round;fill-rule:evenodd;"
d="M 15754,10930
14926,10930
14926,10536
15754,10536
15754,10930
Z" /> 
<path style="fill:#000000; fill-opacity:1.0; 
stroke:#000000; stroke-width:0; stroke-opacity:1; 
stroke-linecap:round; stroke-linejoin:round;fill-rule:evenodd;"
d="M 9061,10930
8233,10930
8233,10536
9061,10536
9061,10930
Z" /> 
<path style="fill:#000000; fill-opacity:1.0; 
stroke:#000000; stroke-width:0; stroke-opacity:1; 
stroke-linecap:round; stroke-linejoin:round;fill-rule:evenodd;"
d="M 9061,10430
8233,10430
8233,10036
9061,10036
9061,10430
Z" /> 
<path style="fill:#000000; fill-opacity:1.0; 
stroke:#000000; stroke-width:0; stroke-opacity:1; 
stroke-linecap:round; stroke-linejoin:round;fill-rule:evenodd;"
d="M 15754,10430
14926,10430
14926,10036
15754,10036
15754,10430
Z" /> 
<path style="fill:#000000; fill-opacity:1.0; 
stroke:#000000; stroke-width:0; stroke-opacity:1; 
stroke-linecap:round; stroke-linejoin:round;fill-rule:evenodd;"
d="M 16718,9686
16744,9688
16811,9709
16873,9742
16884,9750
16927,9786
16960,9826
16971,9840
17004,9901
17024,9968
17031,10038
17024,10107
17004,10174
16971,10236
16960,10250
16927,10290
16887,10323
16873,10334
16811,10367
16744,10387
16718,10390
16692,10393
16657,10393
16631,10390
16605,10387
16538,10367
16477,10334
16463,10323
16423,10290
16390,10250
16378,10236
16345,10174
16325,10107
16318,10038
16325,9968
16345,9901
16378,9840
16390,9826
16423,9786
16466,9750
16477,9742
16538,9709
16605,9688
16631,9686
16657,9683
16692,9683
16718,9686
Z" /> 
<path style="fill:#000000; fill-opacity:1.0; 
stroke:#000000; stroke-width:0; stroke-opacity:1; 
stroke-linecap:round; stroke-linejoin:round;fill-rule:evenodd;"
d="M 6730,9650
6756,9653
6823,9673
6885,9706
6888,9709
6939,9750
6968,9786
6983,9804
7016,9866
7036,9933
7043,10002
7036,10072
7016,10139
6983,10200
6971,10215
6939,10254
6899,10287
6885,10299
6823,10332
6756,10352
6730,10355
6704,10357
6669,10357
6643,10355
6617,10352
6550,10332
6488,10299
6474,10287
6434,10254
6402,10215
6390,10200
6357,10139
6337,10072
6330,10002
6337,9933
6357,9866
6390,9804
6405,9786
6434,9750
6485,9709
6488,9706
6550,9673
6617,9653
6643,9650
6669,9648
6704,9648
6730,9650
Z" /> 
<path style="fill:#000000; fill-opacity:1.0; 
stroke:#000000; stroke-width:0; stroke-opacity:1; 
stroke-linecap:round; stroke-linejoin:round;fill-rule:evenodd;"
d="M 2064,9026
2157,9064
2157,9064
2241,9120
2313,9192
2368,9274
2369,9276
2407,9369
2427,9468
2427,9569
2407,9668
2390,9709
2369,9761
2313,9845
2241,9916
2157,9972
2157,9972
2157,9972
2064,10011
1965,10030
1864,10030
1765,10011
1672,9972
1672,9972
1672,9972
1588,9916
1517,9845
1461,9761
1439,9709
1422,9668
1403,9569
1403,9468
1422,9369
1461,9276
1462,9274
1517,9192
1588,9120
1672,9064
1672,9064
1765,9026
1864,9006
1965,9006
2064,9026
Z" /> 
<path style="fill:#000000; fill-opacity:1.0; 
stroke:#000000; stroke-width:0; stroke-opacity:1; 
stroke-linecap:round; stroke-linejoin:round;fill-rule:evenodd;"
d="M 15754,9930
14926,9930
14926,9536
15754,9536
15754,9930
Z" /> 
<path style="fill:#000000; fill-opacity:1.0; 
stroke:#000000; stroke-width:0; stroke-opacity:1; 
stroke-linecap:round; stroke-linejoin:round;fill-rule:evenodd;"
d="M 9061,9930
8233,9930
8233,9536
9061,9536
9061,9930
Z" /> 
<path style="fill:#000000; fill-opacity:1.0; 
stroke:#000000; stroke-width:0; stroke-opacity:1; 
stroke-linecap:round; stroke-linejoin:round;fill-rule:evenodd;"
d="M 5372,8867
5431,8891
5484,8927
5530,8972
5565,9026
5590,9085
5602,9148
5602,9212
5590,9274
5565,9334
5530,9387
5484,9432
5431,9468
5372,9492
5309,9505
5245,9505
5182,9492
5123,9468
5070,9432
5024,9387
4989,9334
4964,9274
4952,9212
4952,9148
4964,9085
4989,9026
5024,8972
5070,8927
5123,8891
5182,8867
5245,8854
5309,8854
5372,8867
Z" /> 
<path style="fill:#000000; fill-opacity:1.0; 
stroke:#000000; stroke-width:0; stroke-opacity:1; 
stroke-linecap:round; stroke-linejoin:round;fill-rule:evenodd;"
d="M 3634,9505
2983,9505
2983,8854
3634,8854
3634,9505
Z" /> 
<path style="fill:#000000; fill-opacity:1.0; 
stroke:#000000; stroke-width:0; stroke-opacity:1; 
stroke-linecap:round; stroke-linejoin:round;fill-rule:evenodd;"
d="M 9061,9430
8233,9430
8233,9036
9061,9036
9061,9430
Z" /> 
<path style="fill:#000000; fill-opacity:1.0; 
stroke:#000000; stroke-width:0; stroke-opacity:1; 
stroke-linecap:round; stroke-linejoin:round;fill-rule:evenodd;"
d="M 15754,9430
14926,9430
14926,9036
15754,9036
15754,9430
Z" /> 
<path style="fill:#000000; fill-opacity:1.0; 
stroke:#000000; stroke-width:0; stroke-opacity:1; 
stroke-linecap:round; stroke-linejoin:round;fill-rule:evenodd;"
d="M 17029,9393
16320,9393
16320,8683
17029,8683
17029,9393
Z" /> 
<path style="fill:#000000; fill-opacity:1.0; 
stroke:#000000; stroke-width:0; stroke-opacity:1; 
stroke-linecap:round; stroke-linejoin:round;fill-rule:evenodd;"
d="M 7041,9357
6332,9357
6332,8648
7041,8648
7041,9357
Z" /> 
<path style="fill:#000000; fill-opacity:1.0; 
stroke:#000000; stroke-width:0; stroke-opacity:1; 
stroke-linecap:round; stroke-linejoin:round;fill-rule:evenodd;"
d="M 15754,8930
14926,8930
14926,8536
15754,8536
15754,8930
Z" /> 
<path style="fill:#000000; fill-opacity:1.0; 
stroke:#000000; stroke-width:0; stroke-opacity:1; 
stroke-linecap:round; stroke-linejoin:round;fill-rule:evenodd;"
d="M 9061,8930
8233,8930
8233,8536
9061,8536
9061,8930
Z" /> 
<path style="fill:#000000; fill-opacity:1.0; 
stroke:#000000; stroke-width:0; stroke-opacity:1; 
stroke-linecap:round; stroke-linejoin:round;fill-rule:evenodd;"
d="M 4734,8048
4742,8051
4750,8055
4756,8061
4762,8067
4766,8075
4768,8083
4770,8094
4770,8277
4768,8288
4766,8296
4762,8304
4756,8311
4750,8316
4742,8320
4734,8323
4723,8324
4009,8324
3998,8323
3989,8320
3982,8316
3975,8311
3969,8304
3965,8296
3963,8288
3962,8277
3962,8094
3963,8083
3965,8075
3969,8067
3975,8061
3982,8055
3989,8051
3998,8048
4009,8047
4723,8047
4734,8048
Z" /> 
<path style="fill:#000000; fill-opacity:1.0; 
stroke:#000000; stroke-width:0; stroke-opacity:1; 
stroke-linecap:round; stroke-linejoin:round;fill-rule:evenodd;"
d="M 2785,8048
2793,8051
2801,8055
2808,8061
2813,8067
2817,8075
2820,8083
2821,8094
2821,8277
2820,8288
2817,8296
2813,8304
2808,8311
2801,8316
2793,8320
2785,8323
2774,8324
2060,8324
2049,8323
2040,8320
2033,8316
2026,8311
2021,8304
2016,8296
2014,8288
2013,8277
2013,8094
2014,8083
2016,8075
2021,8067
2026,8061
2033,8055
2040,8051
2049,8048
2060,8047
2774,8047
2785,8048
Z" /> 
<path style="fill:#000000; fill-opacity:1.0; 
stroke:#000000; stroke-width:0; stroke-opacity:1; 
stroke-linecap:round; stroke-linejoin:round;fill-rule:evenodd;"
d="M 5635,7705
5650,7709
5663,7716
5675,7726
5685,7738
5692,7752
5697,7767
5699,7785
5699,8114
5697,8132
5692,8147
5685,8160
5675,8172
5663,8182
5650,8190
5635,8194
5617,8196
5189,8196
5171,8194
5156,8190
5143,8182
5131,8172
5121,8160
5114,8147
5109,8132
5107,8114
5107,7785
5109,7767
5114,7752
5121,7738
5131,7726
5143,7716
5156,7709
5171,7705
5189,7703
5617,7703
5635,7705
Z" /> 
<path style="fill:#000000; fill-opacity:1.0; 
stroke:#000000; stroke-width:0; stroke-opacity:1; 
stroke-linecap:round; stroke-linejoin:round;fill-rule:evenodd;"
d="M 4734,7548
4742,7551
4750,7555
4756,7561
4762,7567
4766,7575
4768,7583
4770,7594
4770,7777
4768,7788
4766,7796
4762,7804
4756,7811
4750,7816
4742,7820
4734,7823
4723,7824
4009,7824
3998,7823
3989,7820
3982,7816
3975,7811
3969,7804
3965,7796
3963,7788
3962,7777
3962,7594
3963,7583
3965,7575
3969,7567
3975,7561
3982,7555
3989,7551
3998,7548
4009,7547
4723,7547
4734,7548
Z" /> 
<path style="fill:#000000; fill-opacity:1.0; 
stroke:#000000; stroke-width:0; stroke-opacity:1; 
stroke-linecap:round; stroke-linejoin:round;fill-rule:evenodd;"
d="M 2785,7548
2793,7551
2801,7555
2808,7561
2813,7567
2817,7575
2820,7583
2821,7594
2821,7777
2820,7788
2817,7796
2813,7804
2808,7811
2801,7816
2793,7820
2785,7823
2774,7824
2060,7824
2049,7823
2040,7820
2033,7816
2026,7811
2021,7804
2016,7796
2014,7788
2013,7777
2013,7594
2014,7583
2016,7575
2021,7567
2026,7561
2033,7555
2040,7551
2049,7548
2060,7547
2774,7547
2785,7548
Z" /> 
<path style="fill:#000000; fill-opacity:1.0; 
stroke:#000000; stroke-width:0; stroke-opacity:1; 
stroke-linecap:round; stroke-linejoin:round;fill-rule:evenodd;"
d="M 5635,6898
5650,6902
5663,6909
5675,6919
5685,6931
5692,6945
5697,6960
5699,6978
5699,7307
5697,7325
5692,7340
5685,7353
5675,7365
5663,7375
5650,7382
5635,7387
5617,7389
5189,7389
5171,7387
5156,7382
5143,7375
5131,7365
5121,7353
5114,7340
5109,7325
5107,7307
5107,6978
5109,6960
5114,6945
5121,6931
5131,6919
5143,6909
5156,6902
5171,6898
5189,6896
5617,6896
5635,6898
Z" /> 
<path style="fill:#000000; fill-opacity:1.0; 
stroke:#000000; stroke-width:0; stroke-opacity:1; 
stroke-linecap:round; stroke-linejoin:round;fill-rule:evenodd;"
d="M 4734,7048
4742,7051
4750,7055
4756,7061
4762,7067
4766,7075
4768,7083
4770,7094
4770,7277
4768,7288
4766,7296
4762,7304
4756,7311
4750,7316
4742,7320
4734,7323
4723,7324
4009,7324
3998,7323
3989,7320
3982,7316
3975,7311
3969,7304
3965,7296
3963,7288
3962,7277
3962,7094
3963,7083
3965,7075
3969,7067
3975,7061
3982,7055
3989,7051
3998,7048
4009,7047
4723,7047
4734,7048
Z" /> 
<path style="fill:#000000; fill-opacity:1.0; 
stroke:#000000; stroke-width:0; stroke-opacity:1; 
stroke-linecap:round; stroke-linejoin:round;fill-rule:evenodd;"
d="M 2785,7048
2793,7051
2801,7055
2808,7061
2813,7067
2817,7075
2820,7083
2821,7094
2821,7277
2820,7288
2817,7296
2813,7304
2808,7311
2801,7316
2793,7320
2785,7323
2774,7324
2060,7324
2049,7323
2040,7320
2033,7316
2026,7311
2021,7304
2016,7296
2014,7288
2013,7277
2013,7094
2014,7083
2016,7075
2021,7067
2026,7061
2033,7055
2040,7051
2049,7048
2060,7047
2774,7047
2785,7048
Z" /> 
<path style="fill:#000000; fill-opacity:1.0; 
stroke:#000000; stroke-width:0; stroke-opacity:1; 
stroke-linecap:round; stroke-linejoin:round;fill-rule:evenodd;"
d="M 2785,6548
2793,6551
2801,6555
2808,6561
2813,6567
2817,6575
2820,6583
2821,6594
2821,6777
2820,6788
2817,6796
2813,6804
2808,6811
2801,6816
2793,6820
2785,6823
2774,6824
2060,6824
2049,6823
2040,6820
2033,6816
2026,6811
2021,6804
2016,6796
2014,6788
2013,6777
2013,6594
2014,6583
2016,6575
2021,6567
2026,6561
2033,6555
2040,6551
2049,6548
2060,6547
2774,6547
2785,6548
Z" /> 
<path style="fill:#000000; fill-opacity:1.0; 
stroke:#000000; stroke-width:0; stroke-opacity:1; 
stroke-linecap:round; stroke-linejoin:round;fill-rule:evenodd;"
d="M 4734,6548
4742,6551
4750,6555
4756,6561
4762,6567
4766,6575
4768,6583
4770,6594
4770,6777
4768,6788
4766,6796
4762,6804
4756,6811
4750,6816
4742,6820
4734,6823
4723,6824
4009,6824
3998,6823
3989,6820
3982,6816
3975,6811
3969,6804
3965,6796
3963,6788
3962,6777
3962,6594
3963,6583
3965,6575
3969,6567
3975,6561
3982,6555
3989,6551
3998,6548
4009,6547
4723,6547
4734,6548
Z" /> 
<path style="fill:#000000; fill-opacity:1.0; 
stroke:#000000; stroke-width:0; stroke-opacity:1; 
stroke-linecap:round; stroke-linejoin:round;fill-rule:evenodd;"
d="M 1749,6260
1764,6264
1777,6272
1789,6281
1799,6293
1807,6307
1811,6322
1813,6340
1813,6669
1811,6687
1807,6702
1799,6715
1789,6727
1777,6737
1764,6745
1749,6749
1731,6751
1303,6751
1285,6749
1271,6745
1257,6737
1245,6727
1235,6715
1228,6702
1223,6687
1222,6669
1222,6340
1223,6322
1228,6307
1235,6293
1245,6281
1257,6272
1271,6264
1285,6260
1303,6258
1731,6258
1749,6260
Z" /> 
<path style="fill:#000000; fill-opacity:1.0; 
stroke:#000000; stroke-width:0; stroke-opacity:1; 
stroke-linecap:round; stroke-linejoin:round;fill-rule:evenodd;"
d="M 5328,5669
5343,5674
5356,5681
5368,5691
5378,5703
5385,5716
5390,5731
5392,5749
5392,6177
5390,6195
5385,6210
5378,6223
5368,6235
5356,6245
5343,6252
5328,6257
5310,6259
4980,6259
4963,6257
4948,6252
4934,6245
4922,6235
4912,6223
4905,6210
4900,6195
4899,6177
4899,5749
4900,5731
4905,5716
4912,5703
4922,5691
4934,5681
4948,5674
4963,5669
4980,5667
5310,5667
5328,5669
Z" /> 
<path style="fill:#000000; fill-opacity:1.0; 
stroke:#000000; stroke-width:0; stroke-opacity:1; 
stroke-linecap:round; stroke-linejoin:round;fill-rule:evenodd;"
d="M 6135,5669
6150,5674
6163,5681
6175,5691
6185,5703
6192,5716
6197,5731
6199,5749
6199,6177
6197,6195
6192,6210
6185,6223
6175,6235
6163,6245
6150,6252
6135,6257
6117,6259
5788,6259
5770,6257
5755,6252
5741,6245
5729,6235
5719,6223
5712,6210
5708,6195
5706,6177
5706,5749
5708,5731
5712,5716
5719,5703
5729,5691
5741,5681
5755,5674
5770,5669
5788,5667
6117,5667
6135,5669
Z" /> 
<path style="fill:#000000; fill-opacity:1.0; 
stroke:#000000; stroke-width:0; stroke-opacity:1; 
stroke-linecap:round; stroke-linejoin:round;fill-rule:evenodd;"
d="M 4627,5681
4642,5685
4655,5693
4667,5703
4677,5715
4685,5728
4689,5743
4691,5761
4691,6090
4689,6108
4685,6123
4677,6137
4667,6149
4655,6159
4642,6166
4627,6170
4609,6172
4181,6172
4163,6170
4149,6166
4135,6159
4123,6149
4113,6137
4106,6123
4101,6108
4100,6090
4100,5761
4101,5743
4106,5728
4113,5715
4123,5703
4135,5693
4149,5685
4163,5681
4181,5679
4609,5679
4627,5681
Z" /> 
<path style="fill:#000000; fill-opacity:1.0; 
stroke:#000000; stroke-width:0; stroke-opacity:1; 
stroke-linecap:round; stroke-linejoin:round;fill-rule:evenodd;"
d="M 1749,5453
1764,5457
1777,5464
1789,5474
1799,5486
1807,5500
1811,5515
1813,5533
1813,5862
1811,5880
1807,5895
1799,5908
1789,5920
1777,5930
1764,5938
1749,5942
1731,5944
1303,5944
1285,5942
1271,5938
1257,5930
1245,5920
1235,5908
1228,5895
1223,5880
1222,5862
1222,5533
1223,5515
1228,5500
1235,5486
1245,5474
1257,5464
1271,5457
1285,5453
1303,5451
1731,5451
1749,5453
Z" /> 
<path style="fill:#000000; fill-opacity:1.0; 
stroke:#000000; stroke-width:0; stroke-opacity:1; 
stroke-linecap:round; stroke-linejoin:round;fill-rule:evenodd;"
d="M 2861,4627
2910,4636
3000,4673
3080,4727
3149,4796
3201,4874
3203,4877
3240,4966
3259,5061
3259,5158
3240,5254
3203,5342
3203,5343
3149,5424
3080,5492
3000,5546
3000,5546
3000,5546
2910,5584
2815,5602
2718,5602
2623,5584
2533,5546
2533,5546
2533,5546
2452,5492
2384,5424
2330,5343
2329,5342
2293,5254
2274,5158
2274,5061
2293,4966
2330,4877
2332,4874
2384,4796
2452,4727
2533,4673
2623,4636
2672,4627
2718,4617
2815,4617
2861,4627
Z" /> 
<path style="fill:#000000; fill-opacity:1.0; 
stroke:#000000; stroke-width:0; stroke-opacity:1; 
stroke-linecap:round; stroke-linejoin:round;fill-rule:evenodd;"
d="M 6119,4949
6134,4953
6148,4961
6160,4970
6169,4982
6177,4996
6181,5011
6183,5029
6183,5358
6181,5376
6177,5391
6169,5404
6160,5416
6148,5426
6134,5434
6119,5438
6101,5440
5673,5440
5656,5438
5641,5434
5627,5426
5615,5416
5605,5404
5598,5391
5593,5376
5592,5358
5592,5029
5593,5011
5598,4996
5605,4982
5615,4970
5627,4961
5641,4953
5656,4949
5673,4947
6101,4947
6119,4949
Z" /> 
<path style="fill:#000000; fill-opacity:1.0; 
stroke:#000000; stroke-width:0; stroke-opacity:1; 
stroke-linecap:round; stroke-linejoin:round;fill-rule:evenodd;"
d="M 4627,4874
4642,4878
4655,4886
4667,4896
4677,4908
4685,4921
4689,4936
4691,4954
4691,5283
4689,5301
4685,5316
4677,5330
4667,5342
4655,5351
4642,5359
4627,5363
4609,5365
4181,5365
4163,5363
4149,5359
4135,5351
4123,5342
4113,5330
4106,5316
4101,5301
4100,5283
4100,4954
4101,4936
4106,4921
4113,4908
4123,4896
4135,4886
4149,4878
4163,4874
4181,4872
4609,4872
4627,4874
Z" /> 
<path style="fill:#000000; fill-opacity:1.0; 
stroke:#000000; stroke-width:0; stroke-opacity:1; 
stroke-linecap:round; stroke-linejoin:round;fill-rule:evenodd;"
d="M 6119,4142
6134,4146
6148,4153
6160,4163
6169,4175
6177,4189
6181,4204
6183,4222
6183,4551
6181,4569
6177,4584
6169,4597
6160,4609
6148,4619
6134,4627
6119,4631
6101,4633
5673,4633
5656,4631
5641,4627
5627,4619
5615,4609
5605,4597
5598,4584
5593,4569
5592,4551
5592,4222
5593,4204
5598,4189
5605,4175
5615,4163
5627,4153
5641,4146
5656,4142
5673,4140
6101,4140
6119,4142
Z" /> 
<path style="fill:#000000; fill-opacity:1.0; 
stroke:#000000; stroke-width:0; stroke-opacity:1; 
stroke-linecap:round; stroke-linejoin:round;fill-rule:evenodd;"
d="M 3259,4452
2274,4452
2274,3467
3259,3467
3259,4452
Z" /> 
<path style="fill:#000000; fill-opacity:1.0; 
stroke:#000000; stroke-width:0; stroke-opacity:1; 
stroke-linecap:round; stroke-linejoin:round;fill-rule:evenodd;"
d="M 9673,2656
9749,2687
9749,2687
9794,2717
9816,2732
9874,2790
9919,2858
9951,2933
9966,3013
9966,3094
9951,3174
9919,3250
9919,3250
9874,3317
9816,3375
9749,3420
9749,3420
9749,3420
9673,3452
9593,3467
9512,3467
9432,3452
9357,3420
9357,3420
9357,3420
9289,3375
9231,3317
9186,3250
9186,3250
9155,3174
9139,3094
9139,3013
9155,2933
9186,2858
9231,2790
9289,2732
9311,2717
9357,2687
9357,2687
9432,2656
9512,2640
9593,2640
9673,2656
Z" /> 
<path style="fill:#000000; fill-opacity:1.0; 
stroke:#000000; stroke-width:0; stroke-opacity:1; 
stroke-linecap:round; stroke-linejoin:round;fill-rule:evenodd;"
d="M 16078,1407
16207,1461
16324,1538
16422,1637
16500,1753
16553,1882
16581,2019
16581,2159
16553,2296
16500,2425
16422,2541
16324,2640
16207,2717
16078,2771
15941,2798
15802,2798
15665,2771
15536,2717
15420,2640
15321,2541
15243,2425
15190,2296
15162,2159
15162,2019
15190,1882
15243,1753
15321,1637
15420,1538
15536,1461
15665,1407
15802,1380
15941,1380
16078,1407
Z" /> 
<path style="fill:#000000; fill-opacity:1.0; 
stroke:#000000; stroke-width:0; stroke-opacity:1; 
stroke-linecap:round; stroke-linejoin:round;fill-rule:evenodd;"
d="M 7811,1407
7940,1461
8056,1538
8155,1637
8232,1753
8286,1882
8313,2019
8313,2159
8286,2296
8232,2425
8155,2541
8056,2640
7940,2717
7811,2771
7674,2798
7534,2798
7397,2771
7268,2717
7152,2640
7053,2541
6975,2425
6922,2296
6895,2159
6895,2019
6922,1882
6975,1753
7053,1637
7152,1538
7268,1461
7397,1407
7534,1380
7674,1380
7811,1407
Z" /> 
<path style="fill:#000000; fill-opacity:1.0; 
stroke:#000000; stroke-width:0; stroke-opacity:1; 
stroke-linecap:round; stroke-linejoin:round;fill-rule:evenodd;"
d="M 2953,1700
3020,1720
3081,1753
3094,1764
3135,1798
3168,1838
3180,1852
3213,1913
3233,1980
3233,1980
3237,2019
3238,2032
3238,2185
3233,2237
3213,2304
3180,2366
3168,2380
3135,2420
3081,2464
3020,2497
3020,2497
2953,2517
2883,2524
2814,2517
2747,2497
2685,2464
2669,2451
2631,2420
2587,2366
2554,2304
2554,2304
2534,2237
2529,2185
2529,2032
2530,2019
2534,1980
2534,1980
2554,1913
2587,1852
2631,1798
2685,1753
2747,1720
2814,1700
2883,1693
2953,1700
Z" /> 
<path style="fill:#000000; fill-opacity:1.0; 
stroke:#000000; stroke-width:0; stroke-opacity:1; 
stroke-linecap:round; stroke-linejoin:round;fill-rule:evenodd;"
d="M 4166,1697
4179,1700
4191,1707
4202,1716
4210,1726
4217,1738
4221,1751
4222,1767
4222,2451
4221,2466
4217,2479
4210,2491
4202,2502
4191,2511
4179,2517
4166,2521
4150,2523
3585,2523
3569,2521
3556,2517
3544,2511
3533,2502
3525,2491
3518,2479
3514,2466
3513,2451
3513,1767
3514,1751
3518,1738
3525,1726
3533,1716
3544,1707
3556,1700
3569,1697
3585,1695
4150,1695
4166,1697
Z" /> 
<path style="fill:#000000; fill-opacity:1.0; 
stroke:#000000; stroke-width:0; stroke-opacity:1; 
stroke-linecap:round; stroke-linejoin:round;fill-rule:evenodd;"
d="M 12512,1436
12579,1457
12579,1457
12640,1490
12694,1534
12727,1574
12739,1588
12772,1650
12792,1716
12797,1768
12797,1921
12792,1974
12772,2040
12739,2102
12727,2116
12694,2156
12659,2185
12640,2200
12579,2233
12512,2254
12442,2260
12373,2254
12306,2233
12244,2200
12190,2156
12146,2102
12113,2040
12093,1974
12088,1921
12088,1768
12093,1716
12113,1650
12120,1637
12146,1588
12190,1534
12230,1501
12244,1490
12298,1461
12306,1457
12306,1457
12373,1436
12442,1429
12512,1436
Z" /> 
<path style="fill:#000000; fill-opacity:1.0; 
stroke:#000000; stroke-width:0; stroke-opacity:1; 
stroke-linecap:round; stroke-linejoin:round;fill-rule:evenodd;"
d="M 11757,1433
11770,1437
11782,1443
11792,1452
11801,1462
11807,1474
11811,1487
11813,1503
11813,2187
11811,2203
11807,2216
11801,2228
11792,2238
11782,2247
11770,2253
11757,2257
11741,2259
11175,2259
11160,2257
11146,2253
11134,2247
11124,2238
11115,2228
11109,2216
11105,2203
11103,2187
11103,1503
11105,1487
11109,1474
11115,1462
11124,1452
11134,1443
11146,1437
11160,1433
11175,1431
11741,1431
11757,1433
Z" /> 
<path style="fill:#000000; fill-opacity:1.0; 
stroke:#000000; stroke-width:0; stroke-opacity:1; 
stroke-linecap:round; stroke-linejoin:round;fill-rule:evenodd;"
d="M 9799,1325
9875,1356
9875,1356
9942,1402
10000,1459
10037,1515
10045,1527
10077,1602
10092,1682
10092,1764
10077,1844
10048,1913
10045,1919
10000,1987
9942,2044
9875,2090
9875,2090
9875,2090
9799,2121
9719,2137
9638,2137
9558,2121
9483,2090
9483,2090
9483,2090
9415,2044
9357,1987
9312,1919
9310,1913
9281,1844
9265,1764
9265,1682
9281,1602
9312,1527
9320,1515
9357,1459
9415,1402
9483,1356
9483,1356
9558,1325
9638,1309
9719,1309
9799,1325
Z" /> 
</g> 
</svg>
