G04 #@! TF.GenerationSoftware,KiCad,Pcbnew,8.0.3*
G04 #@! TF.CreationDate,2024-07-27T02:44:29-04:00*
G04 #@! TF.ProjectId,MEAP_Rev4,4d454150-5f52-4657-9634-2e6b69636164,rev?*
G04 #@! TF.SameCoordinates,Original*
G04 #@! TF.FileFunction,Copper,L1,Top*
G04 #@! TF.FilePolarity,Positive*
%FSLAX46Y46*%
G04 Gerber Fmt 4.6, Leading zero omitted, Abs format (unit mm)*
G04 Created by KiCad (PCBNEW 8.0.3) date 2024-07-27 02:44:29*
%MOMM*%
%LPD*%
G01*
G04 APERTURE LIST*
G04 Aperture macros list*
%AMRoundRect*
0 Rectangle with rounded corners*
0 $1 Rounding radius*
0 $2 $3 $4 $5 $6 $7 $8 $9 X,Y pos of 4 corners*
0 Add a 4 corners polygon primitive as box body*
4,1,4,$2,$3,$4,$5,$6,$7,$8,$9,$2,$3,0*
0 Add four circle primitives for the rounded corners*
1,1,$1+$1,$2,$3*
1,1,$1+$1,$4,$5*
1,1,$1+$1,$6,$7*
1,1,$1+$1,$8,$9*
0 Add four rect primitives between the rounded corners*
20,1,$1+$1,$2,$3,$4,$5,0*
20,1,$1+$1,$4,$5,$6,$7,0*
20,1,$1+$1,$6,$7,$8,$9,0*
20,1,$1+$1,$8,$9,$2,$3,0*%
%AMHorizOval*
0 Thick line with rounded ends*
0 $1 width*
0 $2 $3 position (X,Y) of the first rounded end (center of the circle)*
0 $4 $5 position (X,Y) of the second rounded end (center of the circle)*
0 Add line between two ends*
20,1,$1,$2,$3,$4,$5,0*
0 Add two circle primitives to create the rounded ends*
1,1,$1,$2,$3*
1,1,$1,$4,$5*%
%AMRotRect*
0 Rectangle, with rotation*
0 The origin of the aperture is its center*
0 $1 length*
0 $2 width*
0 $3 Rotation angle, in degrees counterclockwise*
0 Add horizontal line*
21,1,$1,$2,0,0,$3*%
%AMFreePoly0*
4,1,19,0.500000,-0.750000,0.000000,-0.750000,0.000000,-0.744911,-0.071157,-0.744911,-0.207708,-0.704816,-0.327430,-0.627875,-0.420627,-0.520320,-0.479746,-0.390866,-0.500000,-0.250000,-0.500000,0.250000,-0.479746,0.390866,-0.420627,0.520320,-0.327430,0.627875,-0.207708,0.704816,-0.071157,0.744911,0.000000,0.744911,0.000000,0.750000,0.500000,0.750000,0.500000,-0.750000,0.500000,-0.750000,
$1*%
%AMFreePoly1*
4,1,19,0.000000,0.744911,0.071157,0.744911,0.207708,0.704816,0.327430,0.627875,0.420627,0.520320,0.479746,0.390866,0.500000,0.250000,0.500000,-0.250000,0.479746,-0.390866,0.420627,-0.520320,0.327430,-0.627875,0.207708,-0.704816,0.071157,-0.744911,0.000000,-0.744911,0.000000,-0.750000,-0.500000,-0.750000,-0.500000,0.750000,0.000000,0.750000,0.000000,0.744911,0.000000,0.744911,
$1*%
G04 Aperture macros list end*
G04 #@! TA.AperFunction,SMDPad,CuDef*
%ADD10RoundRect,0.150000X-0.825000X-0.150000X0.825000X-0.150000X0.825000X0.150000X-0.825000X0.150000X0*%
G04 #@! TD*
G04 #@! TA.AperFunction,SMDPad,CuDef*
%ADD11RoundRect,0.237500X-0.077151X-0.374772X0.382475X0.010901X0.077151X0.374772X-0.382475X-0.010901X0*%
G04 #@! TD*
G04 #@! TA.AperFunction,SMDPad,CuDef*
%ADD12RoundRect,0.250000X1.100000X-0.325000X1.100000X0.325000X-1.100000X0.325000X-1.100000X-0.325000X0*%
G04 #@! TD*
G04 #@! TA.AperFunction,ComponentPad*
%ADD13C,2.000000*%
G04 #@! TD*
G04 #@! TA.AperFunction,SMDPad,CuDef*
%ADD14RoundRect,0.237500X-0.325783X0.200678X-0.120571X-0.363138X0.325783X-0.200678X0.120571X0.363138X0*%
G04 #@! TD*
G04 #@! TA.AperFunction,SMDPad,CuDef*
%ADD15RoundRect,0.150000X-0.587500X-0.150000X0.587500X-0.150000X0.587500X0.150000X-0.587500X0.150000X0*%
G04 #@! TD*
G04 #@! TA.AperFunction,ComponentPad*
%ADD16R,1.700000X1.700000*%
G04 #@! TD*
G04 #@! TA.AperFunction,ComponentPad*
%ADD17O,1.700000X1.700000*%
G04 #@! TD*
G04 #@! TA.AperFunction,SMDPad,CuDef*
%ADD18RoundRect,0.237500X-0.237500X0.300000X-0.237500X-0.300000X0.237500X-0.300000X0.237500X0.300000X0*%
G04 #@! TD*
G04 #@! TA.AperFunction,SMDPad,CuDef*
%ADD19RoundRect,0.237500X0.237500X-0.250000X0.237500X0.250000X-0.237500X0.250000X-0.237500X-0.250000X0*%
G04 #@! TD*
G04 #@! TA.AperFunction,SMDPad,CuDef*
%ADD20RoundRect,0.150000X-0.583790X0.163846X0.433790X-0.423654X0.583790X-0.163846X-0.433790X0.423654X0*%
G04 #@! TD*
G04 #@! TA.AperFunction,SMDPad,CuDef*
%ADD21RoundRect,0.218750X-0.256250X0.218750X-0.256250X-0.218750X0.256250X-0.218750X0.256250X0.218750X0*%
G04 #@! TD*
G04 #@! TA.AperFunction,ComponentPad*
%ADD22O,2.800000X1.800000*%
G04 #@! TD*
G04 #@! TA.AperFunction,SMDPad,CuDef*
%ADD23RoundRect,0.237500X0.237500X-0.300000X0.237500X0.300000X-0.237500X0.300000X-0.237500X-0.300000X0*%
G04 #@! TD*
G04 #@! TA.AperFunction,SMDPad,CuDef*
%ADD24RoundRect,0.237500X-0.300000X-0.237500X0.300000X-0.237500X0.300000X0.237500X-0.300000X0.237500X0*%
G04 #@! TD*
G04 #@! TA.AperFunction,SMDPad,CuDef*
%ADD25RoundRect,0.237500X-0.038849X-0.342632X0.344173X-0.021239X0.038849X0.342632X-0.344173X0.021239X0*%
G04 #@! TD*
G04 #@! TA.AperFunction,SMDPad,CuDef*
%ADD26RoundRect,0.150000X0.150000X-0.825000X0.150000X0.825000X-0.150000X0.825000X-0.150000X-0.825000X0*%
G04 #@! TD*
G04 #@! TA.AperFunction,ComponentPad*
%ADD27R,1.600000X1.600000*%
G04 #@! TD*
G04 #@! TA.AperFunction,ComponentPad*
%ADD28O,1.600000X1.600000*%
G04 #@! TD*
G04 #@! TA.AperFunction,SMDPad,CuDef*
%ADD29RoundRect,0.218750X0.256250X-0.218750X0.256250X0.218750X-0.256250X0.218750X-0.256250X-0.218750X0*%
G04 #@! TD*
G04 #@! TA.AperFunction,SMDPad,CuDef*
%ADD30RoundRect,0.237500X-0.250000X-0.237500X0.250000X-0.237500X0.250000X0.237500X-0.250000X0.237500X0*%
G04 #@! TD*
G04 #@! TA.AperFunction,SMDPad,CuDef*
%ADD31R,1.500000X0.900000*%
G04 #@! TD*
G04 #@! TA.AperFunction,SMDPad,CuDef*
%ADD32R,0.900000X1.500000*%
G04 #@! TD*
G04 #@! TA.AperFunction,SMDPad,CuDef*
%ADD33R,0.900000X0.900000*%
G04 #@! TD*
G04 #@! TA.AperFunction,SMDPad,CuDef*
%ADD34RoundRect,0.093750X-0.093750X-0.106250X0.093750X-0.106250X0.093750X0.106250X-0.093750X0.106250X0*%
G04 #@! TD*
G04 #@! TA.AperFunction,HeatsinkPad*
%ADD35R,1.000000X1.600000*%
G04 #@! TD*
G04 #@! TA.AperFunction,SMDPad,CuDef*
%ADD36RoundRect,0.050000X0.255127X0.279348X-0.319406X-0.202743X-0.255127X-0.279348X0.319406X0.202743X0*%
G04 #@! TD*
G04 #@! TA.AperFunction,SMDPad,CuDef*
%ADD37RoundRect,0.050000X-0.202743X0.319406X-0.279348X0.255127X0.202743X-0.319406X0.279348X-0.255127X0*%
G04 #@! TD*
G04 #@! TA.AperFunction,HeatsinkPad*
%ADD38RotRect,1.650000X1.650000X220.000000*%
G04 #@! TD*
G04 #@! TA.AperFunction,SMDPad,CuDef*
%ADD39RoundRect,0.237500X0.300000X0.237500X-0.300000X0.237500X-0.300000X-0.237500X0.300000X-0.237500X0*%
G04 #@! TD*
G04 #@! TA.AperFunction,SMDPad,CuDef*
%ADD40R,1.500000X1.000000*%
G04 #@! TD*
G04 #@! TA.AperFunction,ComponentPad*
%ADD41R,4.000000X4.000000*%
G04 #@! TD*
G04 #@! TA.AperFunction,ComponentPad*
%ADD42RoundRect,1.000000X1.000000X-1.000000X1.000000X1.000000X-1.000000X1.000000X-1.000000X-1.000000X0*%
G04 #@! TD*
G04 #@! TA.AperFunction,SMDPad,CuDef*
%ADD43RoundRect,0.218750X-0.317568X-0.112544X0.061318X-0.331294X0.317568X0.112544X-0.061318X0.331294X0*%
G04 #@! TD*
G04 #@! TA.AperFunction,SMDPad,CuDef*
%ADD44R,1.250000X1.000000*%
G04 #@! TD*
G04 #@! TA.AperFunction,SMDPad,CuDef*
%ADD45FreePoly0,90.000000*%
G04 #@! TD*
G04 #@! TA.AperFunction,SMDPad,CuDef*
%ADD46FreePoly1,90.000000*%
G04 #@! TD*
G04 #@! TA.AperFunction,SMDPad,CuDef*
%ADD47RoundRect,0.237500X-0.237500X0.250000X-0.237500X-0.250000X0.237500X-0.250000X0.237500X0.250000X0*%
G04 #@! TD*
G04 #@! TA.AperFunction,SMDPad,CuDef*
%ADD48RoundRect,0.237500X-0.200678X-0.325783X0.363138X-0.120571X0.200678X0.325783X-0.363138X0.120571X0*%
G04 #@! TD*
G04 #@! TA.AperFunction,SMDPad,CuDef*
%ADD49RoundRect,0.237500X0.336684X0.181797X-0.254201X0.285986X-0.336684X-0.181797X0.254201X-0.285986X0*%
G04 #@! TD*
G04 #@! TA.AperFunction,SMDPad,CuDef*
%ADD50RoundRect,0.112500X0.112500X-0.187500X0.112500X0.187500X-0.112500X0.187500X-0.112500X-0.187500X0*%
G04 #@! TD*
G04 #@! TA.AperFunction,ComponentPad*
%ADD51O,3.500000X2.200000*%
G04 #@! TD*
G04 #@! TA.AperFunction,ComponentPad*
%ADD52R,2.500000X1.500000*%
G04 #@! TD*
G04 #@! TA.AperFunction,ComponentPad*
%ADD53O,2.500000X1.500000*%
G04 #@! TD*
G04 #@! TA.AperFunction,SMDPad,CuDef*
%ADD54RoundRect,0.237500X0.055681X-0.378558X0.355681X0.141058X-0.055681X0.378558X-0.355681X-0.141058X0*%
G04 #@! TD*
G04 #@! TA.AperFunction,ComponentPad*
%ADD55RotRect,2.200000X2.200000X330.000000*%
G04 #@! TD*
G04 #@! TA.AperFunction,ComponentPad*
%ADD56HorizOval,2.200000X0.000000X0.000000X0.000000X0.000000X0*%
G04 #@! TD*
G04 #@! TA.AperFunction,SMDPad,CuDef*
%ADD57R,0.400000X1.350000*%
G04 #@! TD*
G04 #@! TA.AperFunction,ComponentPad*
%ADD58O,1.200000X1.900000*%
G04 #@! TD*
G04 #@! TA.AperFunction,SMDPad,CuDef*
%ADD59R,1.200000X1.900000*%
G04 #@! TD*
G04 #@! TA.AperFunction,ComponentPad*
%ADD60C,1.450000*%
G04 #@! TD*
G04 #@! TA.AperFunction,SMDPad,CuDef*
%ADD61R,1.500000X1.900000*%
G04 #@! TD*
G04 #@! TA.AperFunction,ComponentPad*
%ADD62R,2.200000X2.200000*%
G04 #@! TD*
G04 #@! TA.AperFunction,ComponentPad*
%ADD63O,2.200000X2.200000*%
G04 #@! TD*
G04 #@! TA.AperFunction,SMDPad,CuDef*
%ADD64RoundRect,0.237500X0.250000X0.237500X-0.250000X0.237500X-0.250000X-0.237500X0.250000X-0.237500X0*%
G04 #@! TD*
G04 #@! TA.AperFunction,SMDPad,CuDef*
%ADD65RoundRect,0.100000X0.100000X-0.712500X0.100000X0.712500X-0.100000X0.712500X-0.100000X-0.712500X0*%
G04 #@! TD*
G04 #@! TA.AperFunction,ComponentPad*
%ADD66R,1.800000X1.800000*%
G04 #@! TD*
G04 #@! TA.AperFunction,ComponentPad*
%ADD67C,1.800000*%
G04 #@! TD*
G04 #@! TA.AperFunction,SMDPad,CuDef*
%ADD68RoundRect,0.237500X-0.344173X-0.021239X0.038849X-0.342632X0.344173X0.021239X-0.038849X0.342632X0*%
G04 #@! TD*
G04 #@! TA.AperFunction,SMDPad,CuDef*
%ADD69RoundRect,0.218750X-0.002858X-0.336909X0.332287X-0.055689X0.002858X0.336909X-0.332287X0.055689X0*%
G04 #@! TD*
G04 #@! TA.AperFunction,ViaPad*
%ADD70C,0.800000*%
G04 #@! TD*
G04 #@! TA.AperFunction,Conductor*
%ADD71C,0.406400*%
G04 #@! TD*
G04 #@! TA.AperFunction,Conductor*
%ADD72C,0.812800*%
G04 #@! TD*
G04 #@! TA.AperFunction,Conductor*
%ADD73C,0.254000*%
G04 #@! TD*
G04 APERTURE END LIST*
D10*
X32165000Y-97215000D03*
X32165000Y-98485000D03*
X32165000Y-99755000D03*
X32165000Y-101025000D03*
X37115000Y-101025000D03*
X37115000Y-99755000D03*
X37115000Y-98485000D03*
X37115000Y-97215000D03*
D11*
X29768572Y-59478810D03*
X31090000Y-58370000D03*
D12*
X48250000Y-97995000D03*
X48250000Y-95045000D03*
D13*
X43620000Y-66350000D03*
D14*
X28055007Y-60489514D03*
X28644993Y-62110486D03*
D15*
X34882503Y-59960000D03*
X34882502Y-61859999D03*
X36757496Y-60910001D03*
D16*
X51700000Y-48700000D03*
D17*
X54240000Y-48700000D03*
X56780000Y-48700000D03*
D18*
X35830000Y-45160000D03*
X35830004Y-46885004D03*
D13*
X40480000Y-70060000D03*
D16*
X35519998Y-38975002D03*
D17*
X35519998Y-41515002D03*
D19*
X40730002Y-21787502D03*
X40730000Y-19962504D03*
D20*
X46662457Y-100012823D03*
X45712459Y-101658277D03*
X47811252Y-101773052D03*
D18*
X30079999Y-99302497D03*
X30079997Y-101027499D03*
D16*
X40800000Y-48700000D03*
D17*
X43340000Y-48700000D03*
X45880000Y-48700000D03*
D19*
X50710001Y-98132499D03*
X50709999Y-96307501D03*
D21*
X32869998Y-37975002D03*
X32869998Y-39550002D03*
D16*
X40800000Y-55100000D03*
D17*
X43340000Y-55100000D03*
X45880000Y-55100000D03*
D22*
X48300000Y-25430000D03*
X46300000Y-23630000D03*
X46300000Y-17530000D03*
X48300000Y-19930000D03*
X46300000Y-29130000D03*
D23*
X39270000Y-101040000D03*
X39269998Y-99314998D03*
D16*
X51700000Y-55100000D03*
D17*
X54240000Y-55100000D03*
X56780000Y-55100000D03*
D16*
X55220000Y-29660000D03*
D17*
X57760000Y-29660000D03*
X55220000Y-32200000D03*
X57760000Y-32200000D03*
X55220000Y-34740000D03*
X57760000Y-34740000D03*
X55220000Y-37280000D03*
X57760000Y-37280000D03*
D13*
X52350000Y-80200000D03*
D16*
X40800000Y-42300000D03*
D17*
X43340000Y-42300000D03*
X45880000Y-42300000D03*
D13*
X44100000Y-70290000D03*
X55320000Y-81070000D03*
D16*
X22690000Y-68810000D03*
D17*
X22690000Y-66270000D03*
X22689997Y-63730001D03*
D18*
X31340000Y-37720000D03*
X31339998Y-39445002D03*
D24*
X35224994Y-56870002D03*
X36950000Y-56870000D03*
D13*
X46755000Y-66350000D03*
D16*
X57469999Y-75489998D03*
D17*
X54929999Y-75489998D03*
X57469999Y-72949998D03*
X54930001Y-72949999D03*
X57469996Y-70409999D03*
X54930000Y-70410000D03*
X57469999Y-67869998D03*
X54929998Y-67869999D03*
D25*
X29070000Y-70000000D03*
X30468030Y-68826912D03*
D26*
X40500000Y-37434998D03*
X41769999Y-37434999D03*
X43039998Y-37434998D03*
X44309999Y-37434998D03*
X45580000Y-37434999D03*
X46849999Y-37434996D03*
X48120000Y-37434998D03*
X49389999Y-37434999D03*
X49389998Y-32484998D03*
X48119999Y-32484997D03*
X46850000Y-32484998D03*
X45579999Y-32484998D03*
X44309998Y-32484997D03*
X43039999Y-32485000D03*
X41769998Y-32484998D03*
X40499999Y-32484997D03*
D18*
X37380000Y-45167502D03*
X37380004Y-46892506D03*
D27*
X30900001Y-32460000D03*
D28*
X30900001Y-35000000D03*
X38520000Y-35000000D03*
X38520001Y-32460000D03*
D23*
X26930000Y-65610000D03*
X26929998Y-63884998D03*
D19*
X40670000Y-26180000D03*
X40669998Y-24355002D03*
D13*
X20180000Y-73670000D03*
X20130000Y-77480000D03*
D24*
X50835000Y-89630000D03*
X52560000Y-89630000D03*
D29*
X32889998Y-42582502D03*
X32889998Y-41007502D03*
D24*
X35222495Y-58400003D03*
X36947501Y-58400001D03*
D30*
X25440000Y-70720000D03*
X27265000Y-70720000D03*
D16*
X40800000Y-61500000D03*
D17*
X43340000Y-61500000D03*
X45880000Y-61500000D03*
D16*
X19750000Y-81040000D03*
D17*
X19750000Y-83580000D03*
X19750000Y-86120000D03*
D19*
X30485001Y-53407500D03*
X30484999Y-51582502D03*
D22*
X24300000Y-25385000D03*
X22300000Y-23585000D03*
X22300000Y-17485000D03*
X24300000Y-19885000D03*
X22300000Y-29085000D03*
D13*
X28380000Y-73080000D03*
D31*
X48839997Y-92260002D03*
X48839997Y-90990002D03*
X48839997Y-89720002D03*
X48839997Y-88450002D03*
X48839997Y-87180002D03*
X48839997Y-85910002D03*
X48839997Y-84640002D03*
X48839997Y-83370002D03*
X48839997Y-82100002D03*
X48839997Y-80830002D03*
X48839997Y-79560002D03*
X48839997Y-78290002D03*
X48839997Y-77020002D03*
X48839997Y-75750002D03*
D32*
X47074997Y-74500002D03*
X45804997Y-74500002D03*
X44534997Y-74500002D03*
X43264997Y-74500002D03*
X41994997Y-74500002D03*
X40724997Y-74500002D03*
X39454997Y-74500002D03*
X38184997Y-74500002D03*
X36914997Y-74500002D03*
X35644997Y-74500002D03*
X34374997Y-74500002D03*
X33104997Y-74500002D03*
D31*
X31339997Y-75750002D03*
X31339997Y-77020002D03*
X31339997Y-78290002D03*
X31339997Y-79560002D03*
X31339997Y-80830002D03*
X31339997Y-82100002D03*
X31339997Y-83370002D03*
X31339997Y-84640002D03*
X31339997Y-85910002D03*
X31339997Y-87180002D03*
X31339997Y-88450002D03*
X31339997Y-89720002D03*
X31339997Y-90990002D03*
X31339997Y-92260002D03*
D33*
X42989997Y-85940002D03*
X42989997Y-84540002D03*
X42989997Y-83140002D03*
X41589997Y-85940002D03*
X41589997Y-84540002D03*
X41589997Y-83140002D03*
X40189997Y-85940002D03*
X40189997Y-84540002D03*
X40189997Y-83140002D03*
D34*
X46750002Y-107580002D03*
X46750003Y-108229997D03*
X46750000Y-108880000D03*
X48525004Y-108879994D03*
X48525003Y-108229999D03*
X48525006Y-107579996D03*
D35*
X47637503Y-108229998D03*
D36*
X34511529Y-66695916D03*
X34254413Y-66389499D03*
X33997297Y-66083080D03*
X33740180Y-65776662D03*
X33483066Y-65470244D03*
D37*
X32567327Y-65390126D03*
X32260910Y-65647242D03*
X31954491Y-65904358D03*
X31648073Y-66161475D03*
X31341655Y-66418589D03*
D36*
X31261537Y-67334328D03*
X31518653Y-67640745D03*
X31775769Y-67947164D03*
X32032886Y-68253582D03*
X32290000Y-68560000D03*
D37*
X33205739Y-68640118D03*
X33512156Y-68383002D03*
X33818575Y-68125886D03*
X34124993Y-67868769D03*
X34431411Y-67611655D03*
D38*
X32886533Y-67015122D03*
D13*
X53140000Y-83660000D03*
X49890000Y-66350000D03*
D39*
X32250000Y-54960000D03*
X30524998Y-54960004D03*
D40*
X28339998Y-51849996D03*
X28340000Y-53150000D03*
D41*
X22602500Y-101740000D03*
D42*
X22602500Y-107740000D03*
X27302500Y-104740000D03*
D43*
X49330000Y-102720000D03*
X50693990Y-103507500D03*
D30*
X28835002Y-49969998D03*
X30660000Y-49970000D03*
D44*
X58684999Y-94670000D03*
X50935001Y-94670000D03*
D16*
X28210000Y-87180000D03*
D17*
X28210000Y-89720000D03*
X28210000Y-92260000D03*
D23*
X25350002Y-61722502D03*
X25349998Y-59997498D03*
D45*
X19170000Y-33200001D03*
D46*
X19170000Y-31899999D03*
D47*
X29060000Y-75480000D03*
X29060000Y-77304994D03*
D39*
X37562499Y-95584996D03*
X35837497Y-95585000D03*
D45*
X25820000Y-33330000D03*
D46*
X25820002Y-32029996D03*
D16*
X51700000Y-61500000D03*
D17*
X54240000Y-61500000D03*
X56780000Y-61500000D03*
D16*
X51700000Y-42300000D03*
D17*
X54240000Y-42300000D03*
X56780000Y-42300000D03*
D19*
X28329998Y-97254998D03*
X28330000Y-95430000D03*
D48*
X27369514Y-68064993D03*
X28990486Y-67475007D03*
D24*
X35427498Y-63460002D03*
X37152502Y-63459998D03*
D18*
X50750000Y-91280000D03*
X50749998Y-93005002D03*
D23*
X32015001Y-53357502D03*
X32014999Y-51632500D03*
D49*
X28659398Y-55289770D03*
X26960602Y-54990230D03*
D50*
X40360002Y-18587502D03*
X40359998Y-16487500D03*
D51*
X20740000Y-55140000D03*
X20740000Y-46940000D03*
D52*
X20740000Y-53040000D03*
D53*
X20740001Y-51039999D03*
X20740000Y-49040000D03*
D54*
X44208749Y-100656948D03*
X45071251Y-99163052D03*
D30*
X46825004Y-106159998D03*
X48650000Y-106160000D03*
D55*
X37310000Y-105960000D03*
D56*
X39509705Y-107230000D03*
D13*
X41260000Y-104220000D03*
D47*
X30660000Y-45950000D03*
X30660000Y-47774994D03*
D57*
X42729999Y-110632000D03*
X43379999Y-110632000D03*
X44029999Y-110632000D03*
X44679999Y-110632000D03*
X45329999Y-110632000D03*
D58*
X40529999Y-113332000D03*
D59*
X41129999Y-113332000D03*
D60*
X41529999Y-110632000D03*
D61*
X43029999Y-113332000D03*
X45029999Y-113332000D03*
D60*
X46529999Y-110632000D03*
D59*
X46929999Y-113332000D03*
D58*
X47529999Y-113332000D03*
D22*
X36560000Y-25420000D03*
X34560000Y-23620000D03*
X34560000Y-17520000D03*
X36560000Y-19920000D03*
X34560000Y-29120000D03*
D62*
X33830000Y-105130000D03*
D63*
X31290000Y-105130000D03*
D16*
X19820000Y-58520000D03*
D17*
X22360000Y-58520000D03*
D24*
X31724998Y-95594998D03*
X33449998Y-95594998D03*
D64*
X39149995Y-102614999D03*
X37324999Y-102615001D03*
D47*
X39270000Y-95780000D03*
X39269998Y-97604998D03*
D11*
X30270000Y-61080000D03*
X31591428Y-59971190D03*
D65*
X32299999Y-49664999D03*
X32949999Y-49664999D03*
X33599998Y-49665001D03*
X34249998Y-49665000D03*
X34249999Y-45440001D03*
X33599999Y-45440001D03*
X32950000Y-45439999D03*
X32300000Y-45440000D03*
D16*
X22540003Y-41299999D03*
D17*
X22540003Y-38759999D03*
X22540003Y-36219999D03*
D23*
X25390000Y-69090000D03*
X25389998Y-67364994D03*
D66*
X24390000Y-81600000D03*
D67*
X24390000Y-79060000D03*
D16*
X22640000Y-95310000D03*
D17*
X22640000Y-92770000D03*
X22640000Y-90230000D03*
D13*
X37380000Y-70630000D03*
X26130000Y-98750000D03*
D19*
X33565000Y-53382499D03*
X33564998Y-51557501D03*
D44*
X50940002Y-99810000D03*
X58690000Y-99810000D03*
D23*
X31340000Y-42810004D03*
X31339998Y-41085002D03*
D47*
X30040000Y-95790000D03*
X30039998Y-97614998D03*
D66*
X25440000Y-75220000D03*
D67*
X22900000Y-75220000D03*
D39*
X35692499Y-102614996D03*
X33967497Y-102615000D03*
D47*
X25390000Y-63865006D03*
X25390000Y-65690000D03*
D19*
X36990001Y-68042499D03*
X36989999Y-66217501D03*
D24*
X38384994Y-39820002D03*
X40110000Y-39820000D03*
D19*
X38570000Y-68350000D03*
X38569998Y-66525002D03*
D68*
X40490986Y-66923457D03*
X41889014Y-68096543D03*
D30*
X23707500Y-83860000D03*
X25532500Y-83860000D03*
D64*
X53692498Y-25739999D03*
X51867502Y-25740001D03*
D47*
X40630001Y-27717501D03*
X40629999Y-29542499D03*
D69*
X31633480Y-61922390D03*
X32840000Y-60910000D03*
D70*
X40330000Y-97220000D03*
X50990000Y-32350000D03*
X40580000Y-39676083D03*
X38390000Y-44430000D03*
X27710000Y-69080000D03*
X32640000Y-85420000D03*
X29540000Y-84560000D03*
X28370000Y-98800000D03*
X23810000Y-62420000D03*
X42160000Y-96320000D03*
X41100000Y-95550000D03*
X30490000Y-62850000D03*
X41120000Y-35450000D03*
X53280000Y-60350000D03*
X47940000Y-58260000D03*
X40470000Y-45220000D03*
X31370000Y-74320000D03*
X48830000Y-99440000D03*
X39420000Y-80050000D03*
X38340000Y-79840000D03*
X35750000Y-78560000D03*
X46400000Y-76790000D03*
X30630000Y-43870000D03*
X48790000Y-51860000D03*
X29520000Y-60630000D03*
X26480000Y-59370000D03*
X32886533Y-67015122D03*
X28140000Y-56320000D03*
X26940000Y-61380000D03*
X29020000Y-47830000D03*
X47260000Y-89680000D03*
X52790000Y-94370000D03*
X47410000Y-77220000D03*
X50270000Y-74370000D03*
X40970000Y-64270000D03*
X41940000Y-64680000D03*
X32970000Y-81520000D03*
X32790000Y-78370000D03*
X32860000Y-79470000D03*
X41760000Y-66540000D03*
X41160000Y-75930000D03*
X40090000Y-76530000D03*
X42460000Y-76150000D03*
X45650000Y-80510000D03*
X45840000Y-81990000D03*
X31820000Y-56160000D03*
X44250000Y-34130000D03*
X51910000Y-33340000D03*
D71*
X37115000Y-101025000D02*
X37324999Y-102615001D01*
X40048198Y-98850000D02*
X39840000Y-98240000D01*
X39840000Y-98240000D02*
X39269998Y-97604998D01*
X40310000Y-96720000D02*
X40330000Y-97220000D01*
X40370000Y-99730000D02*
X40048198Y-98850000D01*
X39270000Y-101040000D02*
X40370000Y-99730000D01*
X39149995Y-102614999D02*
X39270000Y-101040000D01*
X38460000Y-101260000D02*
X38450000Y-100610000D01*
X38360000Y-101690000D02*
X38460000Y-101260000D01*
X37115000Y-99755000D02*
X38280000Y-99502914D01*
X38280000Y-99502914D02*
X39159997Y-99312497D01*
X38450000Y-100610000D02*
X38280000Y-99502914D01*
X38300588Y-102710000D02*
X38360000Y-101690000D01*
X38330000Y-103510000D02*
X38300588Y-102710000D01*
X37115000Y-97215000D02*
X37562499Y-95584996D01*
X32165000Y-101025000D02*
X33967497Y-102615000D01*
X32165000Y-101025000D02*
X30079997Y-101027499D01*
X32165000Y-99755000D02*
X30079999Y-99302497D01*
X32165000Y-97215000D02*
X33449998Y-95594998D01*
X32165000Y-97215000D02*
X32165000Y-98485000D01*
X32165000Y-97215000D02*
X32070000Y-97200000D01*
X32070000Y-97200000D02*
X30060000Y-96740000D01*
X50840000Y-31490000D02*
X49580000Y-30702342D01*
X50990000Y-32350000D02*
X50840000Y-31490000D01*
X49580000Y-30702342D02*
X48410000Y-31080000D01*
D72*
X18250000Y-52880000D02*
X20740000Y-53040000D01*
D71*
X40110000Y-39820000D02*
X40580000Y-39676083D01*
X41170922Y-39039078D02*
X40000000Y-38880000D01*
X40000000Y-38880000D02*
X39772120Y-38210000D01*
X39210000Y-40720000D02*
X39258477Y-39640000D01*
X39258477Y-39640000D02*
X39160000Y-38520000D01*
X39570000Y-40740000D02*
X39210000Y-40720000D01*
X38384994Y-39820002D02*
X37830000Y-40090000D01*
X41480000Y-39760985D02*
X49433600Y-39790000D01*
X41480000Y-39760985D02*
X41170922Y-39039078D01*
X41310000Y-40688008D02*
X39570000Y-40740000D01*
X41310000Y-40688008D02*
X48380000Y-40600000D01*
D72*
X37830000Y-40090000D02*
X37839315Y-39320000D01*
X37839315Y-39320000D02*
X37860000Y-37610000D01*
X38269231Y-36630000D02*
X37840000Y-36619827D01*
X41562904Y-43877096D02*
X40800000Y-42300000D01*
X41990000Y-44760000D02*
X41562904Y-43877096D01*
X39170000Y-43450000D02*
X37630000Y-42680000D01*
X41562904Y-43877096D02*
X39170000Y-43450000D01*
X37630000Y-42680000D02*
X37830000Y-40090000D01*
X37860000Y-37610000D02*
X37840000Y-36619827D01*
X37840000Y-36619827D02*
X34050000Y-36530000D01*
D71*
X38330000Y-45183642D02*
X38390000Y-44430000D01*
X38330000Y-45183642D02*
X37380000Y-45167502D01*
X40470000Y-45220000D02*
X38330000Y-45183642D01*
X36680000Y-42820000D02*
X36930000Y-41130000D01*
X35090000Y-43610000D02*
X36680000Y-42820000D01*
X34249999Y-45440001D02*
X35090000Y-43610000D01*
X35430000Y-37620000D02*
X33970000Y-37620000D01*
X36960000Y-37670000D02*
X35430000Y-37620000D01*
X36930000Y-41130000D02*
X36960000Y-37670000D01*
X33970000Y-37620000D02*
X32869998Y-37975002D01*
X33640000Y-43930000D02*
X33940000Y-42200000D01*
X33599999Y-45440001D02*
X33630000Y-46740000D01*
X34750000Y-47080000D02*
X34849184Y-47530000D01*
X34849184Y-47530000D02*
X35290000Y-49530000D01*
X33630000Y-46740000D02*
X34849184Y-47530000D01*
X32300000Y-45440000D02*
X31750000Y-43690000D01*
X31750000Y-43690000D02*
X31340000Y-42810004D01*
X33470000Y-41790000D02*
X33940000Y-42200000D01*
X32470000Y-41860000D02*
X32670000Y-41780000D01*
X31260000Y-41925702D02*
X32080000Y-41940000D01*
X32080000Y-41940000D02*
X32470000Y-41860000D01*
X32670000Y-41780000D02*
X33470000Y-41790000D01*
X30630000Y-43870000D02*
X30280000Y-42780000D01*
X30440000Y-42020000D02*
X31260000Y-41925702D01*
X30280000Y-42780000D02*
X30440000Y-42020000D01*
X29010000Y-43950000D02*
X29940000Y-41060000D01*
X29830000Y-46350000D02*
X29010000Y-43950000D01*
X29940000Y-41060000D02*
X31339998Y-41085002D01*
X41260000Y-104220000D02*
X39540000Y-104550000D01*
X39540000Y-104550000D02*
X38330000Y-103510000D01*
D73*
X27470000Y-69880000D02*
X28125314Y-69595314D01*
X29261321Y-68871321D02*
X28125314Y-69595314D01*
D71*
X30300000Y-73780000D02*
X30540000Y-72020000D01*
X30540000Y-72020000D02*
X30180000Y-69880000D01*
X30180000Y-69880000D02*
X29740000Y-69350000D01*
X29060000Y-75480000D02*
X30300000Y-73780000D01*
D73*
X29261321Y-68871321D02*
X30175435Y-68105435D01*
D71*
X29740000Y-69350000D02*
X29261321Y-68871321D01*
D73*
X30560000Y-74750000D02*
X31130000Y-72870000D01*
X29803000Y-76160000D02*
X30560000Y-74750000D01*
X31130000Y-72870000D02*
X31590000Y-68620000D01*
D71*
X27369514Y-68064993D02*
X27710000Y-69080000D01*
D73*
X26100000Y-68340000D02*
X26420000Y-69110000D01*
X26420000Y-69110000D02*
X27470000Y-69880000D01*
X30560000Y-67910000D02*
X30175435Y-68105435D01*
X29490000Y-76376129D02*
X29150000Y-76420000D01*
X29490000Y-76376129D02*
X29803000Y-76160000D01*
X28210000Y-78560000D02*
X28216036Y-76770000D01*
X29150000Y-76420000D02*
X28660000Y-76456762D01*
X28216036Y-76770000D02*
X28660000Y-76456762D01*
X28280000Y-79900000D02*
X28210000Y-78560000D01*
X29167894Y-80922106D02*
X29510000Y-81620000D01*
X29167894Y-80922106D02*
X28280000Y-79900000D01*
X28694356Y-81210000D02*
X27929002Y-80290998D01*
X27688832Y-79450000D02*
X27810000Y-76040000D01*
X27929002Y-80290998D02*
X27688832Y-79450000D01*
X29390000Y-83030000D02*
X28694356Y-81210000D01*
D71*
X30180000Y-76510000D02*
X30140000Y-77250000D01*
X30140000Y-77250000D02*
X29060000Y-77304994D01*
X30180000Y-76510000D02*
X30390000Y-76200000D01*
X30390000Y-76200000D02*
X31339997Y-75750002D01*
X31339997Y-85910002D02*
X32640000Y-85420000D01*
X40310000Y-96720000D02*
X39270000Y-95780000D01*
X28370000Y-98800000D02*
X28329998Y-97254998D01*
X31339997Y-84640002D02*
X29540000Y-84560000D01*
X42544316Y-101855684D02*
X41988790Y-100901210D01*
X41896919Y-99180000D02*
X42160000Y-96320000D01*
X41988790Y-100901210D02*
X41896919Y-99180000D01*
X43260000Y-103350000D02*
X41695143Y-101974857D01*
X41283518Y-101170000D02*
X41100000Y-100340000D01*
X41695143Y-101974857D02*
X41283518Y-101170000D01*
X44220000Y-105640000D02*
X43260000Y-103350000D01*
X43363979Y-109670000D02*
X44220000Y-105640000D01*
X43379999Y-110632000D02*
X43363979Y-109670000D01*
X44505108Y-103228471D02*
X42544316Y-101855684D01*
X45690000Y-106990000D02*
X44505108Y-103228471D01*
X44029999Y-110632000D02*
X44208327Y-109640000D01*
X44208327Y-109640000D02*
X45690000Y-106990000D01*
D72*
X42918024Y-101071976D02*
X45020000Y-102680000D01*
X42730000Y-100650000D02*
X42918024Y-101071976D01*
X45020000Y-102680000D02*
X46825004Y-106159998D01*
D71*
X28330000Y-95430000D02*
X30040000Y-95790000D01*
X29400000Y-96590000D02*
X30060000Y-96740000D01*
X27240000Y-96330000D02*
X28470000Y-96330000D01*
X26130000Y-98750000D02*
X27240000Y-96330000D01*
X28470000Y-96330000D02*
X29400000Y-96590000D01*
X31724998Y-95594998D02*
X30040000Y-95790000D01*
X34660000Y-97750000D02*
X33870000Y-100590000D01*
X35837497Y-95585000D02*
X34660000Y-97750000D01*
X33870000Y-100590000D02*
X33967497Y-102615000D01*
D72*
X40350000Y-93380000D02*
X37850000Y-93593068D01*
X37850000Y-93593068D02*
X36320000Y-93723466D01*
D71*
X37562499Y-95584996D02*
X37850000Y-93593068D01*
X30079999Y-99302497D02*
X30039998Y-97614998D01*
X30079997Y-101027499D02*
X22602500Y-101740000D01*
X35692499Y-102614996D02*
X37324999Y-102615001D01*
D72*
X28940000Y-94059016D02*
X26580000Y-93440000D01*
X34940000Y-93877021D02*
X36320000Y-93723466D01*
X28940000Y-94059016D02*
X34940000Y-93877021D01*
X26580000Y-93440000D02*
X24770000Y-91920000D01*
X25532500Y-83860000D02*
X28210000Y-87180000D01*
X28210000Y-89720000D02*
X28210000Y-87180000D01*
X28210000Y-92260000D02*
X28210000Y-89720000D01*
X31339997Y-92260002D02*
X28210000Y-92260000D01*
X42640000Y-92088240D02*
X31339997Y-92260002D01*
D73*
X26100000Y-68340000D02*
X24850000Y-68200000D01*
X24850000Y-68200000D02*
X24290000Y-67470000D01*
X24160000Y-66270000D02*
X23800000Y-64680000D01*
X24290000Y-67470000D02*
X24160000Y-66270000D01*
X23800000Y-64680000D02*
X22689997Y-63730001D01*
D72*
X43380000Y-96750000D02*
X43479231Y-96320000D01*
X43479231Y-96320000D02*
X43800000Y-94930000D01*
X45470000Y-97050000D02*
X43479231Y-96320000D01*
D71*
X41100000Y-100340000D02*
X41100000Y-95550000D01*
D72*
X24770000Y-91920000D02*
X22640000Y-90230000D01*
X43560000Y-98060000D02*
X43380000Y-96750000D01*
X42670000Y-93300000D02*
X40350000Y-93380000D01*
X43420000Y-93500000D02*
X42670000Y-93300000D01*
X43800000Y-94930000D02*
X43420000Y-93500000D01*
X45230000Y-92128860D02*
X43840000Y-92070000D01*
X46910000Y-92200000D02*
X45230000Y-92128860D01*
X31633480Y-61922390D02*
X30490000Y-62850000D01*
D73*
X30010000Y-63530000D02*
X29550000Y-62820000D01*
X31443256Y-63806744D02*
X30010000Y-63530000D01*
X31620000Y-63894043D02*
X31443256Y-63806744D01*
X29543866Y-62036134D02*
X29071757Y-61328243D01*
X29550000Y-62820000D02*
X29543866Y-62036134D01*
X33839253Y-64360747D02*
X33627165Y-64232835D01*
X33627165Y-64232835D02*
X33000000Y-62140000D01*
X33000000Y-62140000D02*
X32840000Y-60910000D01*
D71*
X31591428Y-59971190D02*
X32840000Y-60910000D01*
D73*
X33680000Y-60580000D02*
X33531668Y-60328332D01*
X33401749Y-59580000D02*
X33390000Y-58690000D01*
X33531668Y-60328332D02*
X33401749Y-59580000D01*
X34180000Y-60580000D02*
X33978763Y-60341237D01*
X33867001Y-60140000D02*
X33855147Y-59420000D01*
X33978763Y-60341237D02*
X33867001Y-60140000D01*
X33680000Y-61030000D02*
X33680000Y-60580000D01*
X33590000Y-62540000D02*
X33463171Y-61890000D01*
X33463171Y-61890000D02*
X33680000Y-61030000D01*
X33899105Y-62090000D02*
X33894495Y-61810000D01*
X33925417Y-61515417D02*
X34210000Y-61070000D01*
X33894495Y-61810000D02*
X33925417Y-61515417D01*
X34210000Y-61070000D02*
X34180000Y-60580000D01*
D72*
X18680000Y-71220000D02*
X21010000Y-65340000D01*
X21010000Y-65340000D02*
X22689997Y-63730001D01*
X23810000Y-62420000D02*
X21930000Y-61110000D01*
X24170000Y-68963481D02*
X25390000Y-69090000D01*
X22690000Y-68810000D02*
X24170000Y-68963481D01*
X18676609Y-60443391D02*
X18265149Y-59710000D01*
X21930000Y-61110000D02*
X18676609Y-60443391D01*
D73*
X24670000Y-66030000D02*
X24930000Y-66850000D01*
X25390000Y-63865006D02*
X24690000Y-65130000D01*
X24690000Y-65130000D02*
X24670000Y-66030000D01*
X24930000Y-66850000D02*
X25389998Y-67364994D01*
X28423087Y-63257734D02*
X28050000Y-62710000D01*
X28050000Y-62710000D02*
X27790000Y-62300000D01*
X29420000Y-64260000D02*
X28423087Y-63257734D01*
X28318269Y-63771731D02*
X28122933Y-63447067D01*
X27665785Y-62824215D02*
X26380000Y-61760000D01*
X28122933Y-63447067D02*
X27665785Y-62824215D01*
X27226573Y-62983427D02*
X26900000Y-62780000D01*
X27974704Y-64195296D02*
X27594240Y-63325760D01*
X27226573Y-62983427D02*
X27594240Y-63325760D01*
D71*
X23890000Y-60710000D02*
X21890000Y-59910000D01*
X24770000Y-62797679D02*
X24450000Y-61820000D01*
X25100000Y-62804177D02*
X24770000Y-62797679D01*
X24450000Y-61820000D02*
X23890000Y-60710000D01*
X21890000Y-59910000D02*
X19820000Y-58520000D01*
D72*
X18230000Y-59260000D02*
X18265149Y-59710000D01*
X19750000Y-81040000D02*
X18370000Y-78950000D01*
X18370000Y-78950000D02*
X18680000Y-71220000D01*
D71*
X41270000Y-34300000D02*
X41120000Y-35450000D01*
X41178190Y-36208190D02*
X43527985Y-35137985D01*
X43527985Y-35137985D02*
X44440000Y-34882994D01*
X44871197Y-34819600D02*
X44440000Y-34882994D01*
X40500000Y-37434998D02*
X41178190Y-36208190D01*
X42463109Y-36283109D02*
X43159634Y-35899634D01*
X44766832Y-35360622D02*
X44530000Y-35391951D01*
X43159634Y-35899634D02*
X44530000Y-35391951D01*
X41769999Y-37434999D02*
X42463109Y-36283109D01*
X40329599Y-34240401D02*
X39849122Y-33470000D01*
X40340000Y-35560000D02*
X40329599Y-34240401D01*
X40499999Y-32484997D02*
X41270000Y-34300000D01*
X58367641Y-28422359D02*
X55915169Y-27224831D01*
X58907358Y-29012642D02*
X58367641Y-28422359D01*
X58745738Y-30835738D02*
X58948900Y-30080000D01*
X58948900Y-30080000D02*
X58907358Y-29012642D01*
X57760000Y-32200000D02*
X58745738Y-30835738D01*
X50300000Y-58650000D02*
X53280000Y-60350000D01*
X47940000Y-58260000D02*
X50300000Y-58650000D01*
X48240000Y-55900000D02*
X49580000Y-54220000D01*
X48110000Y-60360000D02*
X47270000Y-59480000D01*
X46750000Y-59110000D02*
X46800000Y-57410000D01*
X48260000Y-62380000D02*
X48390000Y-61240000D01*
X46860000Y-64296540D02*
X45843514Y-64483514D01*
X46800000Y-57410000D02*
X48240000Y-55900000D01*
X46860000Y-64296540D02*
X48260000Y-62380000D01*
X48390000Y-61240000D02*
X48110000Y-60360000D01*
X47270000Y-59480000D02*
X46750000Y-59110000D01*
X50930000Y-50780000D02*
X50944785Y-51900000D01*
X49580000Y-54220000D02*
X50944785Y-51900000D01*
X49290000Y-53630000D02*
X49967648Y-52324812D01*
X49967648Y-52324812D02*
X50401837Y-51720000D01*
X46970000Y-60100000D02*
X46100000Y-59360000D01*
X47720000Y-60900000D02*
X47410000Y-60410000D01*
X46230000Y-57090000D02*
X47310000Y-56110000D01*
X47410000Y-60410000D02*
X46970000Y-60100000D01*
X46100000Y-59360000D02*
X46230000Y-57090000D01*
X47310000Y-56110000D02*
X49290000Y-53630000D01*
X50370000Y-50770000D02*
X50401837Y-51720000D01*
X47200000Y-61260000D02*
X46956226Y-60743774D01*
X45530000Y-59630000D02*
X45560000Y-58110000D01*
X46250000Y-60260000D02*
X45530000Y-59630000D01*
X46720000Y-55950000D02*
X48600000Y-53610000D01*
X45560000Y-58110000D02*
X45740000Y-56750000D01*
X46956226Y-60743774D02*
X46250000Y-60260000D01*
X45740000Y-56750000D02*
X46720000Y-55950000D01*
X49850000Y-51540000D02*
X49850000Y-51100000D01*
X48600000Y-53610000D02*
X49850000Y-51540000D01*
X47630000Y-62330000D02*
X47830000Y-61670000D01*
X46320000Y-63774390D02*
X45680000Y-63886289D01*
X46320000Y-63774390D02*
X47630000Y-62330000D01*
X47830000Y-61670000D02*
X47720000Y-60900000D01*
X46000000Y-63139036D02*
X45630000Y-63180000D01*
X47182178Y-62040000D02*
X47200000Y-61260000D01*
X46000000Y-63139036D02*
X47182178Y-62040000D01*
D72*
X41990000Y-46110000D02*
X41990000Y-44760000D01*
X40800000Y-48700000D02*
X41990000Y-46110000D01*
D71*
X34882503Y-59960000D02*
X35222495Y-58400003D01*
X36270000Y-62960000D02*
X36130000Y-61730000D01*
X36989999Y-66217501D02*
X36320000Y-64050000D01*
X36130000Y-61730000D02*
X35610000Y-61170000D01*
X35610000Y-61170000D02*
X35280000Y-60800000D01*
X36320000Y-64050000D02*
X36270000Y-62960000D01*
X35280000Y-60800000D02*
X34882503Y-59960000D01*
D72*
X38520000Y-35000000D02*
X38269231Y-36630000D01*
X34050000Y-36530000D02*
X30160000Y-36530000D01*
X30160000Y-36530000D02*
X30120000Y-37580000D01*
X30120000Y-37580000D02*
X30360000Y-39570000D01*
X30360000Y-39570000D02*
X31339998Y-39445002D01*
D71*
X35290000Y-49530000D02*
X35290000Y-54730000D01*
X34960000Y-46230000D02*
X34750000Y-47080000D01*
X35830000Y-45160000D02*
X34960000Y-46230000D01*
X35290000Y-54730000D02*
X35224994Y-56870002D01*
X34249998Y-49665000D02*
X34260000Y-48140000D01*
X34260000Y-48140000D02*
X33030000Y-47110000D01*
D73*
X30940000Y-68050000D02*
X30560000Y-67910000D01*
X31518653Y-67640745D02*
X30940000Y-68050000D01*
X29586785Y-68026785D02*
X28830000Y-68292216D01*
X28485249Y-68224751D02*
X28303064Y-68060000D01*
X28830000Y-68292216D02*
X28485249Y-68224751D01*
X29586785Y-68026785D02*
X30360000Y-67480000D01*
X30360000Y-67480000D02*
X31261537Y-67334328D01*
D71*
X50940002Y-99810000D02*
X48830000Y-99440000D01*
X31370000Y-74320000D02*
X31339997Y-75750002D01*
X38870000Y-80740000D02*
X39420000Y-80050000D01*
X37980000Y-80770000D02*
X38340000Y-79840000D01*
X40410000Y-78560000D02*
X35750000Y-78560000D01*
X42100000Y-79805126D02*
X40410000Y-78560000D01*
X45560000Y-79140000D02*
X42100000Y-79805126D01*
X35400000Y-77430000D02*
X37500000Y-77510000D01*
X33880012Y-80620012D02*
X34384710Y-79764710D01*
X34384710Y-79764710D02*
X35400000Y-77430000D01*
X40200000Y-77883333D02*
X40780000Y-77690000D01*
X37500000Y-77510000D02*
X40200000Y-77883333D01*
X33380000Y-80383557D02*
X34960000Y-76790000D01*
X40290000Y-77268555D02*
X38630000Y-77080000D01*
X41333753Y-76953753D02*
X40290000Y-77268555D01*
X36100000Y-76730000D02*
X34960000Y-76790000D01*
X38630000Y-77080000D02*
X36100000Y-76730000D01*
X46840000Y-80280000D02*
X45560000Y-79140000D01*
X48839997Y-80830002D02*
X46840000Y-80280000D01*
X46400000Y-76790000D02*
X44980000Y-76060000D01*
X44980000Y-76060000D02*
X44534997Y-74500002D01*
X31050000Y-44780000D02*
X30660000Y-45950000D01*
X31050000Y-44780000D02*
X30630000Y-43870000D01*
X49420000Y-23660000D02*
X47760000Y-22150000D01*
X45080000Y-22280000D02*
X44080000Y-23850000D01*
X46300000Y-21930000D02*
X45080000Y-22280000D01*
X41740000Y-28900000D02*
X41542885Y-28080000D01*
X53692498Y-25739999D02*
X52100000Y-24590000D01*
X47760000Y-22150000D02*
X46300000Y-21930000D01*
X44080000Y-23850000D02*
X42320000Y-26780000D01*
X52100000Y-24590000D02*
X49420000Y-23660000D01*
X41542885Y-28080000D02*
X41490000Y-27860000D01*
X42320000Y-26780000D02*
X41542885Y-28080000D01*
X41310000Y-24319446D02*
X45220000Y-21120000D01*
X40669998Y-24355002D02*
X41310000Y-24319446D01*
X45220000Y-21120000D02*
X48300000Y-19930000D01*
X51867502Y-25740001D02*
X48300000Y-25430000D01*
D72*
X45810000Y-53230000D02*
X43050000Y-53330000D01*
X48790000Y-51860000D02*
X45810000Y-53230000D01*
X40800000Y-50570000D02*
X40800000Y-53260000D01*
X40800000Y-53260000D02*
X40800000Y-55100000D01*
X43050000Y-53330000D02*
X40800000Y-53260000D01*
X40800000Y-48700000D02*
X40800000Y-50570000D01*
D71*
X49430000Y-50280000D02*
X49330000Y-49350000D01*
X48380000Y-40600000D02*
X48426405Y-43290000D01*
X49850000Y-51100000D02*
X49430000Y-50280000D01*
X49330000Y-49350000D02*
X48426405Y-43290000D01*
X49960000Y-50140000D02*
X50370000Y-50770000D01*
X49953743Y-49582196D02*
X49960000Y-50140000D01*
X49894232Y-47076798D02*
X49953743Y-49582196D01*
X49433600Y-39790000D02*
X49432652Y-43370000D01*
X49432652Y-43370000D02*
X49894232Y-47076798D01*
X50462059Y-49687941D02*
X50420000Y-47270000D01*
X50462059Y-49687941D02*
X50650000Y-50040000D01*
X50420000Y-47270000D02*
X49940000Y-41920000D01*
X49940000Y-39140000D02*
X49940000Y-41920000D01*
X50650000Y-50040000D02*
X50930000Y-50780000D01*
D72*
X36486630Y-33763370D02*
X36363917Y-33120000D01*
X37395565Y-28555565D02*
X36697811Y-30460000D01*
X36363917Y-33120000D02*
X36697811Y-30460000D01*
X36900000Y-34449695D02*
X36486630Y-33763370D01*
D71*
X37462985Y-33387015D02*
X37331933Y-33020000D01*
X37331933Y-33020000D02*
X37269901Y-32230000D01*
X37269901Y-32230000D02*
X37490000Y-31090000D01*
X37860000Y-33690000D02*
X37462985Y-33387015D01*
D72*
X38520000Y-35000000D02*
X36900000Y-34449695D01*
X37395565Y-28555565D02*
X38370056Y-26710056D01*
X38370056Y-26710056D02*
X39732962Y-23732962D01*
X40050000Y-23341753D02*
X39732962Y-23732962D01*
X40780000Y-23100000D02*
X40050000Y-23341753D01*
X40780000Y-23100000D02*
X41796160Y-22646160D01*
X44780000Y-18930000D02*
X44479218Y-19439218D01*
X41796160Y-22646160D02*
X44479218Y-19439218D01*
D71*
X39690000Y-27290000D02*
X40020000Y-26470000D01*
X37490000Y-31090000D02*
X39070000Y-29250000D01*
X39070000Y-29250000D02*
X39690000Y-27290000D01*
X40020000Y-26470000D02*
X40670000Y-26180000D01*
X39849122Y-33470000D02*
X38520001Y-32460000D01*
X39150000Y-33800000D02*
X37860000Y-33690000D01*
X39680000Y-34290000D02*
X39150000Y-33800000D01*
X39710000Y-35430000D02*
X39820000Y-34950000D01*
X39050000Y-36990000D02*
X39360000Y-35990000D01*
X39160000Y-38520000D02*
X39050000Y-36990000D01*
X39360000Y-35990000D02*
X39710000Y-35430000D01*
X39820000Y-34950000D02*
X39680000Y-34290000D01*
X39772120Y-38210000D02*
X39815433Y-36940000D01*
X39815433Y-36940000D02*
X39913146Y-36433146D01*
X39913146Y-36433146D02*
X40340000Y-35560000D01*
X40730002Y-21787502D02*
X38830000Y-22120000D01*
X38830000Y-22120000D02*
X36560000Y-25420000D01*
D72*
X44780000Y-18930000D02*
X46300000Y-17530000D01*
D71*
X30110000Y-46830000D02*
X29830000Y-46350000D01*
D72*
X40800000Y-48700000D02*
X37380004Y-46892506D01*
D71*
X29768572Y-59478810D02*
X29520000Y-60630000D01*
D72*
X28055007Y-60489514D02*
X29768572Y-59478810D01*
D71*
X26190000Y-58133213D02*
X25030000Y-57800000D01*
D73*
X27170000Y-59130000D02*
X27092917Y-58930000D01*
D71*
X26190000Y-58133213D02*
X27092917Y-58930000D01*
D73*
X32490000Y-64062811D02*
X31620000Y-63894043D01*
X29071757Y-61328243D02*
X28840000Y-61212662D01*
X28840000Y-61212662D02*
X28330000Y-61310000D01*
D71*
X26480000Y-59370000D02*
X26150000Y-60110000D01*
D73*
X27200000Y-59860000D02*
X27170000Y-59130000D01*
X27567000Y-61160000D02*
X27240000Y-60610000D01*
X28330000Y-61310000D02*
X27850000Y-61390000D01*
X27850000Y-61390000D02*
X27567000Y-61160000D01*
X27240000Y-60610000D02*
X27200000Y-59860000D01*
X29630000Y-63820000D02*
X28644993Y-62110486D01*
D72*
X27010000Y-74290000D02*
X26520000Y-73400000D01*
X25532500Y-83860000D02*
X26780000Y-79900000D01*
X27010000Y-75200000D02*
X27010000Y-74290000D01*
X26520000Y-73400000D02*
X26590000Y-71720000D01*
X26780000Y-79900000D02*
X27010000Y-75200000D01*
X26590000Y-71720000D02*
X27265000Y-70720000D01*
D73*
X29510000Y-81620000D02*
X30090000Y-81950000D01*
X30090000Y-81950000D02*
X31339997Y-82100002D01*
X27810000Y-76040000D02*
X28140000Y-74770000D01*
X28140000Y-74770000D02*
X29260938Y-74250938D01*
X31339997Y-83370002D02*
X29390000Y-83030000D01*
D72*
X51220000Y-39120000D02*
X50460000Y-37570000D01*
X51700000Y-42300000D02*
X51220000Y-39120000D01*
X50460000Y-37570000D02*
X49389999Y-37434999D01*
X51700000Y-48700000D02*
X51700000Y-42300000D01*
X51700000Y-55100000D02*
X51700000Y-48700000D01*
D71*
X36757496Y-60910001D02*
X37152502Y-63459998D01*
D72*
X40800000Y-61500000D02*
X36757496Y-60910001D01*
X40800000Y-55100000D02*
X40800000Y-61500000D01*
D71*
X24690000Y-22800000D02*
X22690000Y-21420000D01*
D72*
X19700000Y-20620000D02*
X20738187Y-19368187D01*
D71*
X22690000Y-21420000D02*
X20738187Y-19368187D01*
X25820002Y-32029996D02*
X25990000Y-26570000D01*
X25990000Y-26570000D02*
X26060000Y-24580000D01*
X26060000Y-24580000D02*
X24690000Y-22800000D01*
D72*
X20738187Y-19368187D02*
X22300000Y-17485000D01*
D71*
X26707111Y-28020000D02*
X26640000Y-22440000D01*
X26707111Y-28020000D02*
X27180000Y-33060000D01*
X26640000Y-22440000D02*
X24300000Y-19885000D01*
D73*
X28140000Y-56320000D02*
X28659398Y-55289770D01*
D71*
X26960602Y-54990230D02*
X28340000Y-53150000D01*
D73*
X33855147Y-59420000D02*
X33892295Y-58606940D01*
D71*
X33300000Y-57790000D02*
X33860000Y-58060000D01*
X31090000Y-56660000D02*
X31920000Y-56940000D01*
X26210000Y-36990000D02*
X25130000Y-43220000D01*
X28940000Y-57020000D02*
X31090000Y-56660000D01*
X25180000Y-55260000D02*
X25371107Y-56120374D01*
X33860000Y-58060000D02*
X33892295Y-58606940D01*
X25130000Y-43220000D02*
X25180000Y-55260000D01*
X27100000Y-57080000D02*
X28940000Y-57020000D01*
X31920000Y-56940000D02*
X33300000Y-57790000D01*
X27180000Y-33060000D02*
X26210000Y-36990000D01*
X25371107Y-56120374D02*
X27100000Y-57080000D01*
X31682996Y-57407004D02*
X32690000Y-58070000D01*
X31682996Y-57407004D02*
X30590933Y-57360933D01*
X29770000Y-57950000D02*
X30590933Y-57360933D01*
X25820000Y-33330000D02*
X24510000Y-43290000D01*
X24510000Y-43290000D02*
X24470000Y-53540000D01*
X25810000Y-57400000D02*
X27130000Y-57740000D01*
X24470000Y-53540000D02*
X24510000Y-55900000D01*
X28520000Y-58290000D02*
X29770000Y-57950000D01*
X24510000Y-55900000D02*
X25810000Y-57400000D01*
X27130000Y-57740000D02*
X28520000Y-58290000D01*
X32690000Y-58070000D02*
X33390000Y-58690000D01*
D72*
X20490000Y-36040000D02*
X20490000Y-40490000D01*
X20490000Y-36040000D02*
X19170000Y-33200001D01*
X19700000Y-20620000D02*
X19170000Y-31899999D01*
D71*
X30270000Y-61080000D02*
X29768572Y-59478810D01*
D73*
X34125722Y-64004278D02*
X33590000Y-62540000D01*
X34310000Y-64130000D02*
X34125722Y-64004278D01*
X34330000Y-63330000D02*
X33900000Y-62230000D01*
X33900000Y-62230000D02*
X33899105Y-62090000D01*
D71*
X31090000Y-58370000D02*
X31591428Y-59971190D01*
D73*
X30440000Y-64050000D02*
X29630000Y-63820000D01*
X27790000Y-62300000D02*
X26940000Y-61380000D01*
X26150000Y-60830000D02*
X26150000Y-60110000D01*
X26380000Y-61760000D02*
X26150000Y-60830000D01*
X28570000Y-64290000D02*
X28318269Y-63771731D01*
X28030000Y-64320000D02*
X27974704Y-64195296D01*
X34920000Y-64730000D02*
X34310000Y-64130000D01*
X34936624Y-65180395D02*
X34920000Y-64730000D01*
X34254413Y-66389499D02*
X34770000Y-65880000D01*
X34770000Y-65880000D02*
X34936624Y-65180395D01*
X34473750Y-65110000D02*
X34376807Y-64830000D01*
X34376807Y-64830000D02*
X33839253Y-64360747D01*
X34390295Y-65730295D02*
X34452432Y-65582432D01*
X34452432Y-65582432D02*
X34473750Y-65110000D01*
X33740179Y-65776662D02*
X34063098Y-65433098D01*
X34112842Y-65217158D02*
X34033263Y-65026737D01*
X34063098Y-65433098D02*
X34112842Y-65217158D01*
X33997298Y-66083080D02*
X34390295Y-65730295D01*
X32864891Y-64215109D02*
X32490000Y-64062811D01*
X33570000Y-64660000D02*
X32864891Y-64215109D01*
X32468798Y-64471202D02*
X32890000Y-64870000D01*
X30680000Y-64070741D02*
X30440000Y-64050000D01*
X32468798Y-64471202D02*
X30680000Y-64070741D01*
X32567326Y-65390126D02*
X32066062Y-64773938D01*
X32066062Y-64773938D02*
X31030000Y-64520000D01*
X31180000Y-64947951D02*
X30450000Y-64930000D01*
X32260909Y-65647242D02*
X31845680Y-65164320D01*
X31845680Y-65164320D02*
X31180000Y-64947951D01*
X31954491Y-65904357D02*
X31580199Y-65469801D01*
X31120000Y-65318493D02*
X29560000Y-65340000D01*
X31580199Y-65469801D02*
X31120000Y-65318493D01*
X34033263Y-65026737D02*
X33570000Y-64660000D01*
X31030000Y-64520000D02*
X29420000Y-64260000D01*
X35410000Y-64680000D02*
X34690000Y-63930000D01*
X35100000Y-66080000D02*
X35410000Y-64680000D01*
X34690000Y-63930000D02*
X34330000Y-63330000D01*
D72*
X18250000Y-44640000D02*
X20490000Y-40490000D01*
D71*
X29020000Y-47830000D02*
X30660000Y-47774994D01*
D72*
X25390000Y-69090000D02*
X27265000Y-70720000D01*
D71*
X50935001Y-94670000D02*
X52790000Y-94370000D01*
X47260000Y-89680000D02*
X48839997Y-89720002D01*
D72*
X55200000Y-94670000D02*
X53460000Y-91880000D01*
X52600000Y-97530000D02*
X54980000Y-96140000D01*
X54980000Y-96140000D02*
X55200000Y-94670000D01*
X53460000Y-91880000D02*
X52420000Y-91530000D01*
D71*
X50709999Y-96307501D02*
X50935001Y-94670000D01*
X47410000Y-77220000D02*
X48839997Y-77020002D01*
X50270000Y-74370000D02*
X48839997Y-75750002D01*
X42030000Y-63900000D02*
X41200000Y-64130000D01*
X41200000Y-64130000D02*
X40970000Y-64270000D01*
X43600000Y-63800000D02*
X42030000Y-63900000D01*
X41940000Y-64680000D02*
X43970000Y-64620000D01*
X43970000Y-64620000D02*
X45680000Y-63886289D01*
X32690000Y-86780000D02*
X36390000Y-82350000D01*
X31339997Y-87180002D02*
X32690000Y-86780000D01*
X36390000Y-82350000D02*
X37980000Y-80770000D01*
X33880012Y-80620012D02*
X32970000Y-81520000D01*
X43500000Y-76400000D02*
X42611250Y-77091250D01*
X40780000Y-77690000D02*
X42611250Y-77091250D01*
X41333753Y-76953753D02*
X42460000Y-76150000D01*
X31339997Y-80830002D02*
X33380000Y-80383557D01*
X31339997Y-88450002D02*
X32880000Y-87560000D01*
X36290000Y-83510000D02*
X38870000Y-80740000D01*
X32880000Y-87560000D02*
X36290000Y-83510000D01*
X45630000Y-63180000D02*
X43600000Y-63800000D01*
X43505352Y-38910000D02*
X43039998Y-37434998D01*
X43505352Y-38910000D02*
X49940000Y-39140000D01*
X45630000Y-64670000D02*
X45843514Y-64483514D01*
X40499999Y-32484997D02*
X41640000Y-30430000D01*
X41640000Y-30430000D02*
X41740000Y-28900000D01*
X41490000Y-27860000D02*
X40630001Y-27717501D01*
X41769998Y-32484998D02*
X42440000Y-29990000D01*
X43750000Y-26330000D02*
X43271503Y-26701503D01*
X42440000Y-29990000D02*
X43271503Y-26701503D01*
X38520001Y-32460000D02*
X40629999Y-29542499D01*
X37470000Y-21602793D02*
X38200000Y-21321278D01*
X39683403Y-20593403D02*
X40730000Y-19962504D01*
X38200000Y-21321278D02*
X39683403Y-20593403D01*
X34800000Y-22000000D02*
X35430000Y-22000000D01*
X35430000Y-22000000D02*
X37470000Y-21602793D01*
X31420000Y-23300000D02*
X32060000Y-21870000D01*
X29600000Y-31870000D02*
X30420000Y-28400000D01*
X30420000Y-28400000D02*
X31420000Y-23300000D01*
X30900001Y-35000000D02*
X29750000Y-34180000D01*
X32060000Y-21870000D02*
X36560000Y-19920000D01*
X29750000Y-34180000D02*
X29600000Y-31870000D01*
X40359998Y-16487500D02*
X36560000Y-19920000D01*
X40360002Y-18587502D02*
X40730000Y-19962504D01*
X32670000Y-22970000D02*
X33300000Y-22130000D01*
X31610000Y-29420000D02*
X32380000Y-24970000D01*
X33300000Y-22130000D02*
X34800000Y-22000000D01*
X32380000Y-24970000D02*
X32670000Y-22970000D01*
X30900001Y-32460000D02*
X31610000Y-29420000D01*
X43264997Y-74500002D02*
X43500000Y-76400000D01*
X23707500Y-83860000D02*
X24390000Y-81600000D01*
D72*
X25470000Y-73850000D02*
X25440000Y-75220000D01*
D71*
X20180000Y-73670000D02*
X22900000Y-75220000D01*
X24390000Y-79060000D02*
X20130000Y-77480000D01*
X31339997Y-78290002D02*
X32790000Y-78370000D01*
X31339997Y-79560002D02*
X32860000Y-79470000D01*
X45804997Y-74500002D02*
X46570000Y-72240000D01*
X46570000Y-72240000D02*
X49890000Y-66350000D01*
X41889014Y-68096543D02*
X41760000Y-66540000D01*
X38569998Y-66525002D02*
X40490986Y-66923457D01*
X36989999Y-66217501D02*
X38569998Y-66525002D01*
X39250000Y-71450000D02*
X40480000Y-70060000D01*
X38570000Y-68350000D02*
X40480000Y-70060000D01*
X38570000Y-68350000D02*
X37390000Y-67090000D01*
X36990001Y-68042499D02*
X37380000Y-70630000D01*
D73*
X35520000Y-68697310D02*
X36140000Y-67450000D01*
X35520000Y-68697310D02*
X34569904Y-68320096D01*
X36520000Y-67090000D02*
X37390000Y-67090000D01*
X36140000Y-67450000D02*
X36520000Y-67090000D01*
D71*
X41160000Y-75930000D02*
X40724997Y-74500002D01*
X44920000Y-71860000D02*
X45750000Y-71020000D01*
X45750000Y-71020000D02*
X45220000Y-68100000D01*
X42050000Y-72940000D02*
X44920000Y-71860000D01*
X41994997Y-74500002D02*
X42050000Y-72940000D01*
X45170000Y-66610000D02*
X45630000Y-64670000D01*
X45220000Y-68100000D02*
X45170000Y-66610000D01*
X40090000Y-76530000D02*
X33500000Y-75730000D01*
X33500000Y-75730000D02*
X33104997Y-74500002D01*
D73*
X29639931Y-73829931D02*
X29903940Y-73150000D01*
X29903940Y-73150000D02*
X29837925Y-71990000D01*
X29837925Y-71990000D02*
X29070000Y-70000000D01*
X29412522Y-74112522D02*
X29639931Y-73829931D01*
X29260938Y-74250938D02*
X29295508Y-74235508D01*
X29295508Y-74235508D02*
X29412522Y-74112522D01*
D71*
X32780000Y-89197143D02*
X33875986Y-87515986D01*
X38813075Y-81803075D02*
X40080000Y-81190921D01*
X33875986Y-87515986D02*
X38813075Y-81803075D01*
X40080000Y-81190921D02*
X43540000Y-80820000D01*
X31339997Y-90990002D02*
X33499128Y-89849128D01*
X33499128Y-89849128D02*
X38772279Y-82942279D01*
X38772279Y-82942279D02*
X39830000Y-82100980D01*
X39830000Y-82100980D02*
X45840000Y-81990000D01*
X31339997Y-89720002D02*
X32780000Y-89197143D01*
X43540000Y-80820000D02*
X45650000Y-80510000D01*
X48839997Y-79560002D02*
X52350000Y-80200000D01*
X51680000Y-82120000D02*
X53500000Y-81760000D01*
X48839997Y-82100002D02*
X51680000Y-82120000D01*
X53500000Y-81760000D02*
X55320000Y-81070000D01*
X48839997Y-83370002D02*
X53140000Y-83660000D01*
X57290000Y-86060000D02*
X57160000Y-78330000D01*
X48839997Y-84640002D02*
X51630000Y-85500000D01*
X51995621Y-78130000D02*
X52030000Y-76230000D01*
X51630000Y-85500000D02*
X57290000Y-86060000D01*
X57160000Y-78330000D02*
X51995621Y-78130000D01*
X48839997Y-85910002D02*
X53680000Y-86880000D01*
X57965530Y-86880337D02*
X57720000Y-77670000D01*
X53680000Y-86880000D02*
X57965530Y-86880337D01*
X52926757Y-77560000D02*
X52880000Y-75830000D01*
X57720000Y-77670000D02*
X52926757Y-77560000D01*
X58240000Y-76920000D02*
X53830000Y-76920000D01*
X50220000Y-87269676D02*
X54680000Y-87930000D01*
X54680000Y-87930000D02*
X58490000Y-87650000D01*
X48839997Y-87180002D02*
X50220000Y-87269676D01*
X58490000Y-87650000D02*
X58240000Y-76920000D01*
X53540000Y-75980000D02*
X53558309Y-76510000D01*
X53830000Y-76920000D02*
X53558309Y-76510000D01*
X58822199Y-76210000D02*
X58770000Y-74040000D01*
X54600000Y-88700000D02*
X59210000Y-88600000D01*
X48839997Y-88450002D02*
X50200000Y-88382812D01*
X50200000Y-88382812D02*
X54600000Y-88700000D01*
X59210000Y-88600000D02*
X58822199Y-76210000D01*
X48839997Y-78290002D02*
X49630000Y-78306668D01*
X51366741Y-73880000D02*
X51430000Y-72080000D01*
X49630000Y-78306668D02*
X50450000Y-77150000D01*
X50450000Y-77150000D02*
X51366741Y-73880000D01*
X53150000Y-67450000D02*
X50820000Y-70720000D01*
X58480000Y-66510000D02*
X55360000Y-66090000D01*
X58780000Y-71870000D02*
X58780000Y-67690000D01*
X57469999Y-72949998D02*
X58780000Y-71870000D01*
X58780000Y-67690000D02*
X58480000Y-66510000D01*
X55360000Y-66090000D02*
X53150000Y-67450000D01*
X50820000Y-70720000D02*
X47074997Y-74500002D01*
X52240000Y-69900000D02*
X53360000Y-68840000D01*
X51430000Y-72080000D02*
X52240000Y-69900000D01*
X53360000Y-68840000D02*
X54929998Y-67869999D01*
X54150000Y-69200000D02*
X55810000Y-69140000D01*
X52850000Y-70110000D02*
X54150000Y-69200000D01*
X52180000Y-71840000D02*
X52850000Y-70110000D01*
X52030000Y-76230000D02*
X52180000Y-71840000D01*
X55810000Y-69140000D02*
X57469999Y-67869998D01*
X52880000Y-72080000D02*
X53180000Y-71260000D01*
X52880000Y-75830000D02*
X52880000Y-72080000D01*
X53180000Y-71260000D02*
X54930000Y-70410000D01*
X53540000Y-75980000D02*
X53510000Y-73740000D01*
X53510000Y-73740000D02*
X53550000Y-72120000D01*
X48839997Y-89720002D02*
X50835000Y-89630000D01*
X32950000Y-45439999D02*
X33030000Y-47110000D01*
X49630000Y-103720000D02*
X50560000Y-102240000D01*
X49050000Y-109820000D02*
X50200000Y-108630000D01*
D72*
X18250000Y-52880000D02*
X18230000Y-59260000D01*
X41589997Y-84540002D02*
X40189994Y-84540001D01*
D71*
X46529999Y-110632000D02*
X46668379Y-109530000D01*
X31320000Y-46830000D02*
X30110000Y-46830000D01*
D72*
X48120000Y-37434998D02*
X46849999Y-37434996D01*
X56190000Y-101020000D02*
X58690000Y-99810000D01*
X51030000Y-101242847D02*
X51430000Y-101310000D01*
X51430000Y-101310000D02*
X56190000Y-101020000D01*
D71*
X35830004Y-46885004D02*
X37380004Y-46892506D01*
D72*
X20490000Y-40490000D02*
X22540003Y-41299999D01*
X40189997Y-83140005D02*
X40189994Y-84540001D01*
X46929999Y-113332000D02*
X46529999Y-110632000D01*
X40189999Y-85940001D02*
X41589997Y-85940005D01*
D71*
X47650000Y-109490000D02*
X49050000Y-109820000D01*
D72*
X49389999Y-37434999D02*
X48120000Y-37434998D01*
X18250000Y-52880000D02*
X18250000Y-44640000D01*
X41589997Y-83139999D02*
X41589997Y-84540002D01*
X36950000Y-56870000D02*
X36947501Y-58400000D01*
X43029999Y-113332000D02*
X41129999Y-113332000D01*
X22602500Y-101740000D02*
X22640000Y-95310000D01*
D71*
X50200000Y-105970000D02*
X49630000Y-103720000D01*
D72*
X40189994Y-84540001D02*
X40189999Y-85940001D01*
D71*
X46750000Y-108880000D02*
X46668379Y-109530000D01*
D72*
X41129999Y-113332000D02*
X41529999Y-110632000D01*
X41589997Y-85940005D02*
X42989997Y-85940002D01*
X42989997Y-84540000D02*
X42989996Y-83140000D01*
D71*
X33030000Y-47110000D02*
X31320000Y-46830000D01*
D72*
X53459686Y-90370314D02*
X52560000Y-89630000D01*
D71*
X36757496Y-60910001D02*
X36947501Y-58400001D01*
D72*
X45029999Y-113332000D02*
X43029999Y-113332000D01*
X40189997Y-83140005D02*
X41589997Y-83139999D01*
D71*
X46529999Y-110632000D02*
X47650000Y-109490000D01*
D72*
X42989997Y-85940002D02*
X42989997Y-84540000D01*
X58690000Y-99810000D02*
X58684999Y-94670000D01*
D71*
X50560000Y-102240000D02*
X51030000Y-101242847D01*
D72*
X46929999Y-113332000D02*
X45029999Y-113332000D01*
X46662457Y-100012823D02*
X48690000Y-100850000D01*
D71*
X47650000Y-109490000D02*
X47637503Y-108229998D01*
D72*
X42989997Y-84540000D02*
X41589997Y-84540002D01*
X42989996Y-83140000D02*
X41589997Y-83139999D01*
X48690000Y-100850000D02*
X51030000Y-101242847D01*
X48250000Y-95045000D02*
X48839997Y-92260002D01*
D71*
X50200000Y-108630000D02*
X50200000Y-105970000D01*
D72*
X58684999Y-94670000D02*
X53459686Y-90370314D01*
D71*
X45329999Y-110632000D02*
X46529999Y-110632000D01*
D72*
X31339998Y-39445002D02*
X31339998Y-41085002D01*
X45071251Y-99163052D02*
X46662457Y-100012823D01*
X43560000Y-98060000D02*
X42730000Y-100650000D01*
X19750000Y-83580000D02*
X19750000Y-81040000D01*
D71*
X46750002Y-107580002D02*
X46825004Y-106159998D01*
D72*
X19750000Y-86120000D02*
X19750000Y-83580000D01*
X22640000Y-90230000D02*
X19750000Y-86120000D01*
X50750000Y-91280000D02*
X48840001Y-90990002D01*
X48250000Y-97995000D02*
X45470000Y-97050000D01*
X35224999Y-56869999D02*
X35222494Y-58400004D01*
X37380000Y-45167502D02*
X35830000Y-45160000D01*
D71*
X33599999Y-45440001D02*
X33640000Y-43930000D01*
D72*
X50710001Y-98132499D02*
X48250000Y-97995000D01*
D73*
X34511529Y-66695915D02*
X35100000Y-66080000D01*
D71*
X25030000Y-57800000D02*
X23630000Y-56080000D01*
X23411257Y-49980000D02*
X23544834Y-49100000D01*
X23630000Y-56080000D02*
X23411257Y-49980000D01*
X24300000Y-25385000D02*
X24200000Y-35240000D01*
X24200000Y-35240000D02*
X23544834Y-49100000D01*
X42729999Y-110632000D02*
X42650000Y-109620000D01*
X42650000Y-109620000D02*
X41690000Y-108880000D01*
X41690000Y-108880000D02*
X39509705Y-107230000D01*
D73*
X32890000Y-64870000D02*
X33483066Y-65470244D01*
D71*
X32250000Y-54960000D02*
X31820000Y-56160000D01*
D73*
X30450000Y-64930000D02*
X29510000Y-64870000D01*
X29240000Y-64850000D02*
X28570000Y-64290000D01*
X29510000Y-64870000D02*
X29240000Y-64850000D01*
D71*
X30485001Y-53407500D02*
X30524998Y-54960004D01*
D73*
X30320000Y-65721275D02*
X29560000Y-65910000D01*
X31236354Y-65733646D02*
X30320000Y-65721275D01*
X31648073Y-66161476D02*
X31236354Y-65733646D01*
X27710000Y-65910000D02*
X26930000Y-65610000D01*
X29560000Y-65910000D02*
X27710000Y-65910000D01*
D71*
X26929998Y-63884998D02*
X26359363Y-63240637D01*
X26359363Y-63240637D02*
X25100000Y-62804177D01*
X22360000Y-58520000D02*
X25349998Y-59997498D01*
D73*
X26900000Y-62780000D02*
X25350002Y-61722502D01*
X28780000Y-65180000D02*
X28030000Y-64320000D01*
X29560000Y-65340000D02*
X28780000Y-65180000D01*
D71*
X48410000Y-107070000D02*
X47810000Y-106940000D01*
X47150000Y-103880000D02*
X45712459Y-101658277D01*
X47730000Y-105550000D02*
X47150000Y-103880000D01*
X47810000Y-106940000D02*
X47730000Y-105550000D01*
X48525006Y-107579996D02*
X48410000Y-107070000D01*
D72*
X44208749Y-100656948D02*
X45712459Y-101658277D01*
D73*
X31341655Y-66418589D02*
X28990486Y-67475007D01*
X35810000Y-64370000D02*
X35427498Y-63460002D01*
X34431411Y-67611655D02*
X35360000Y-66930000D01*
X35850000Y-65870000D02*
X35810000Y-64370000D01*
X35427498Y-63460002D02*
X34882502Y-61859999D01*
X35360000Y-66930000D02*
X35850000Y-65870000D01*
D71*
X32869998Y-37975002D02*
X31340000Y-37720000D01*
X32889998Y-42582502D02*
X31340000Y-42810004D01*
X32014999Y-51632500D02*
X33565000Y-53382499D01*
X30484999Y-51582502D02*
X30660000Y-49970000D01*
X30484999Y-51582502D02*
X32015001Y-53357502D01*
D72*
X25470000Y-73850000D02*
X25440000Y-70720000D01*
X40030000Y-114859246D02*
X39310000Y-114350000D01*
X37310000Y-105960000D02*
X38060000Y-108200000D01*
X51630000Y-108120000D02*
X52650000Y-105260000D01*
X39511122Y-111380000D02*
X39310000Y-113570000D01*
X51154324Y-109320000D02*
X51630000Y-108120000D01*
X39511122Y-111380000D02*
X39087443Y-109842557D01*
X47920000Y-115179729D02*
X49323152Y-113663152D01*
X51760000Y-104270000D02*
X50693990Y-103507500D01*
X38060000Y-108200000D02*
X39087443Y-109842557D01*
X37310000Y-105960000D02*
X33830000Y-105130000D01*
X39310000Y-113570000D02*
X39310000Y-114350000D01*
X49323152Y-113663152D02*
X51154324Y-109320000D01*
X40030000Y-114859246D02*
X47920000Y-115179729D01*
X52650000Y-105260000D02*
X51760000Y-104270000D01*
X31290000Y-105130000D02*
X29900000Y-107390000D01*
X29900000Y-107390000D02*
X27960000Y-107900000D01*
X27960000Y-107900000D02*
X22602500Y-107740000D01*
D71*
X32869998Y-39550002D02*
X35519998Y-38975002D01*
D72*
X47811251Y-101773052D02*
X49330000Y-102720000D01*
D71*
X32889998Y-41007502D02*
X35519998Y-41515002D01*
X55220000Y-32200000D02*
X53920000Y-30820000D01*
X48410000Y-28720000D02*
X48040000Y-29850000D01*
X47410000Y-30320000D02*
X46420000Y-30470000D01*
X45750000Y-30970000D02*
X45579999Y-32484998D01*
X46420000Y-30470000D02*
X45750000Y-30970000D01*
X53920000Y-30820000D02*
X53870000Y-28990000D01*
X53870000Y-28990000D02*
X48410000Y-28720000D01*
X48040000Y-29850000D02*
X47410000Y-30320000D01*
X51270000Y-36180000D02*
X49540000Y-36070000D01*
X55220000Y-37280000D02*
X51270000Y-36180000D01*
X49540000Y-36070000D02*
X48130000Y-36070000D01*
X46320000Y-36147773D02*
X48130000Y-36070000D01*
X45597070Y-36270000D02*
X45580000Y-37434999D01*
X45597070Y-36270000D02*
X46320000Y-36147773D01*
X50480000Y-34762115D02*
X48480000Y-34940000D01*
X46230000Y-35041810D02*
X44766832Y-35360622D01*
X48080000Y-34958100D02*
X46230000Y-35041810D01*
X55220000Y-34740000D02*
X53590000Y-35115793D01*
X53590000Y-35115793D02*
X50480000Y-34762115D01*
X48480000Y-34940000D02*
X48080000Y-34958100D01*
X56630000Y-36000000D02*
X54430000Y-36000000D01*
X50570000Y-35437401D02*
X48130000Y-35512140D01*
X44381085Y-36270000D02*
X44695738Y-35885738D01*
X44381085Y-36270000D02*
X44309999Y-37434998D01*
X45810000Y-35700885D02*
X46520000Y-35604535D01*
X57760000Y-37280000D02*
X56630000Y-36000000D01*
X45810000Y-35700885D02*
X44695738Y-35885738D01*
X51310000Y-35470000D02*
X50570000Y-35437401D01*
X54430000Y-36000000D02*
X51310000Y-35470000D01*
X46520000Y-35604535D02*
X48130000Y-35512140D01*
X46210000Y-25630000D02*
X47308543Y-26661457D01*
X46210000Y-25630000D02*
X43750000Y-26330000D01*
X47308543Y-26661457D02*
X49230000Y-26730000D01*
X54350000Y-26740000D02*
X55915169Y-27224831D01*
X49230000Y-26730000D02*
X54350000Y-26740000D01*
X46660000Y-27820000D02*
X45130000Y-27860000D01*
X44300000Y-30050000D02*
X44309998Y-32484997D01*
X54380000Y-28320000D02*
X48190000Y-27976122D01*
X55220000Y-29660000D02*
X54380000Y-28320000D01*
X45130000Y-27860000D02*
X44340000Y-28740000D01*
X44340000Y-28740000D02*
X44300000Y-30050000D01*
X48190000Y-27976122D02*
X46660000Y-27820000D01*
X57760000Y-34740000D02*
X56490000Y-33520000D01*
X48890000Y-34360000D02*
X45810000Y-34539640D01*
X49160000Y-34080000D02*
X48890000Y-34360000D01*
X56490000Y-33520000D02*
X54390000Y-33500000D01*
X54390000Y-33500000D02*
X52721101Y-34291101D01*
X52721101Y-34291101D02*
X49160000Y-34080000D01*
X45810000Y-34539640D02*
X44871197Y-34819600D01*
X57760000Y-29660000D02*
X56270000Y-28320000D01*
X56270000Y-28320000D02*
X55970000Y-28314000D01*
X54680000Y-27500000D02*
X49210000Y-27250000D01*
X47467366Y-27173844D02*
X46680000Y-27170000D01*
X43120000Y-29890000D02*
X43039999Y-32485000D01*
X55970000Y-28314000D02*
X54680000Y-27500000D01*
X49210000Y-27250000D02*
X47467366Y-27173844D01*
X43650000Y-27630000D02*
X43120000Y-29890000D01*
X45050000Y-26790000D02*
X43650000Y-27630000D01*
X46680000Y-27170000D02*
X45050000Y-26790000D01*
X44250000Y-34130000D02*
X45460000Y-33930000D01*
X45460000Y-33930000D02*
X46450000Y-33850000D01*
X46450000Y-33850000D02*
X46850000Y-32484998D01*
X48410000Y-31080000D02*
X48119999Y-32484997D01*
X39454997Y-74500002D02*
X39950000Y-72360000D01*
X39950000Y-72360000D02*
X42350000Y-71280000D01*
X42350000Y-71280000D02*
X44100000Y-70290000D01*
X50250000Y-33070000D02*
X51910000Y-33340000D01*
X49389998Y-32484998D02*
X50250000Y-33070000D01*
X28835002Y-49969998D02*
X28339998Y-51849996D01*
D73*
X30468030Y-68826912D02*
X31775768Y-67947164D01*
X26900000Y-66940000D02*
X26120000Y-66450000D01*
X28056929Y-67270000D02*
X27947099Y-67122901D01*
X26120000Y-66450000D02*
X25390000Y-65690000D01*
X28240000Y-67830000D02*
X28303064Y-68060000D01*
X28056929Y-67270000D02*
X28240000Y-67830000D01*
X27947099Y-67122901D02*
X26900000Y-66940000D01*
D71*
X32299999Y-49664999D02*
X30660000Y-47774994D01*
X33564998Y-51557501D02*
X33599998Y-49665001D01*
X49410000Y-107340000D02*
X48650000Y-106160000D01*
X48525004Y-108879994D02*
X49410000Y-108490000D01*
X49410000Y-108490000D02*
X49410000Y-107340000D01*
X36914997Y-74500002D02*
X37380000Y-70630000D01*
D73*
X33818575Y-68125887D02*
X35460000Y-69900000D01*
X35460000Y-69900000D02*
X37380000Y-70630000D01*
D71*
X38160000Y-72880000D02*
X39250000Y-71450000D01*
X38184997Y-74500002D02*
X38160000Y-72880000D01*
D73*
X34124993Y-67868768D02*
X34569904Y-68320096D01*
X34500000Y-69680000D02*
X35470000Y-71210000D01*
X35470000Y-71210000D02*
X35470000Y-71320000D01*
X35644997Y-74500002D02*
X35470000Y-71320000D01*
X33512157Y-68383002D02*
X34500000Y-69680000D01*
X32330000Y-74790000D02*
X32350000Y-76890000D01*
X32290000Y-68560000D02*
X32330000Y-74790000D01*
X32350000Y-76890000D02*
X31339997Y-77020002D01*
X31590000Y-68620000D02*
X32032887Y-68253582D01*
X34374997Y-74500002D02*
X34299187Y-70920000D01*
X33205740Y-68640118D02*
X33588124Y-69121876D01*
X34299187Y-70920000D02*
X33588124Y-69121876D01*
D71*
X27369514Y-68064993D02*
X25389998Y-67364994D01*
X55830000Y-74130000D02*
X54930001Y-72949999D01*
X57380000Y-74130000D02*
X55830000Y-74130000D01*
X58770000Y-74040000D02*
X57380000Y-74130000D01*
X53550000Y-72120000D02*
X54360000Y-71820000D01*
X56480000Y-71350000D02*
X57469996Y-70409999D01*
X54360000Y-71820000D02*
X56480000Y-71350000D01*
D72*
X50749998Y-93005002D02*
X48840000Y-92260000D01*
X48840000Y-92260000D02*
X46910000Y-92200000D01*
X43840000Y-92070000D02*
X42500000Y-89430000D01*
X42500000Y-89430000D02*
X41589997Y-85940005D01*
X50710001Y-98132499D02*
X52600000Y-97530000D01*
X52420000Y-91530000D02*
X50750000Y-91280000D01*
X42640000Y-92088240D02*
X43840000Y-92070000D01*
M02*
