G04 #@! TF.GenerationSoftware,KiCad,Pcbnew,8.0.3*
G04 #@! TF.CreationDate,2024-07-27T02:44:29-04:00*
G04 #@! TF.ProjectId,MEAP_Rev4,4d454150-5f52-4657-9634-2e6b69636164,rev?*
G04 #@! TF.SameCoordinates,Original*
G04 #@! TF.FileFunction,Legend,Bot*
G04 #@! TF.FilePolarity,Positive*
%FSLAX46Y46*%
G04 Gerber Fmt 4.6, Leading zero omitted, Abs format (unit mm)*
G04 Created by KiCad (PCBNEW 8.0.3) date 2024-07-27 02:44:29*
%MOMM*%
%LPD*%
G01*
G04 APERTURE LIST*
%ADD10C,0.120000*%
G04 APERTURE END LIST*
D10*
X52544722Y-40692502D02*
X52035275Y-40692497D01*
X52544725Y-39647503D02*
X52035278Y-39647498D01*
X43437775Y-49977500D02*
X43947223Y-49977500D01*
X43437775Y-51022500D02*
X43947223Y-51022500D01*
X43429779Y-51868124D02*
X43931487Y-51779660D01*
X43611241Y-52897248D02*
X44112949Y-52808784D01*
X54857220Y-47062501D02*
X54347772Y-47062496D01*
X54857224Y-46017502D02*
X54347776Y-46017497D01*
X43749998Y-58080019D02*
X44140259Y-57752553D01*
X44421711Y-58880535D02*
X44811972Y-58553069D01*
X54852224Y-53462503D02*
X54342776Y-53462498D01*
X54852228Y-52417504D02*
X54342780Y-52417499D01*
X40634997Y-33009998D02*
X40635002Y-34960000D01*
X40634998Y-36909998D02*
X40635002Y-34960000D01*
X50755002Y-33010002D02*
X50754998Y-34960000D01*
X50755003Y-36910002D02*
X50754998Y-34960000D01*
X40690000Y-32260001D02*
X40360000Y-32499999D01*
X40360001Y-32020001D01*
X40690000Y-32260001D01*
G36*
X40690000Y-32260001D02*
G01*
X40360000Y-32499999D01*
X40360001Y-32020001D01*
X40690000Y-32260001D01*
G37*
X54852224Y-59872503D02*
X54342777Y-59872498D01*
X54852227Y-58827504D02*
X54342780Y-58827499D01*
X47136015Y-45276810D02*
X46961776Y-45755536D01*
X46154036Y-44919400D02*
X45979797Y-45398126D01*
M02*
