G04 #@! TF.GenerationSoftware,KiCad,Pcbnew,8.0.3*
G04 #@! TF.CreationDate,2024-07-27T02:44:29-04:00*
G04 #@! TF.ProjectId,MEAP_Rev4,4d454150-5f52-4657-9634-2e6b69636164,rev?*
G04 #@! TF.SameCoordinates,Original*
G04 #@! TF.FileFunction,Legend,Top*
G04 #@! TF.FilePolarity,Positive*
%FSLAX46Y46*%
G04 Gerber Fmt 4.6, Leading zero omitted, Abs format (unit mm)*
G04 Created by KiCad (PCBNEW 8.0.3) date 2024-07-27 02:44:29*
%MOMM*%
%LPD*%
G01*
G04 APERTURE LIST*
%ADD10C,0.120000*%
%ADD11C,0.150000*%
G04 APERTURE END LIST*
D10*
X56910000Y-88570000D02*
X56820000Y-87970000D01*
X56700000Y-89050000D02*
X56910000Y-88570000D01*
X56410000Y-89150000D02*
X56700000Y-89050000D01*
X55990000Y-89060000D02*
X56410000Y-89150000D01*
X55910000Y-88170000D02*
X55990000Y-89060000D01*
X56170000Y-87010000D02*
X55910000Y-88170000D01*
X55670000Y-87170000D02*
X56170000Y-87010000D01*
X54940000Y-87000000D02*
X55670000Y-87170000D01*
X55060000Y-86430000D02*
X54940000Y-87000000D01*
X55330000Y-86180000D02*
X55060000Y-86430000D01*
X55760000Y-86180000D02*
X55330000Y-86180000D01*
X56220000Y-86550000D02*
X55760000Y-86180000D01*
X57450000Y-88110000D02*
X57270000Y-87860000D01*
X57590000Y-88400000D02*
X57450000Y-88110000D01*
X58040000Y-88660000D02*
X57590000Y-88400000D01*
X58530000Y-88520000D02*
X58040000Y-88660000D01*
X58610000Y-88210000D02*
X58530000Y-88520000D01*
X58270000Y-87640000D02*
X58610000Y-88210000D01*
X57350000Y-86720000D02*
X58270000Y-87640000D01*
X57610000Y-86690000D02*
X57350000Y-86720000D01*
X57840000Y-86130000D02*
X57610000Y-86690000D01*
X57920000Y-85490000D02*
X57840000Y-86130000D01*
X57560000Y-85420000D02*
X57920000Y-85490000D01*
X57100000Y-85500000D02*
X57560000Y-85420000D01*
X56730000Y-85520000D02*
X57100000Y-85500000D01*
X56610000Y-86330000D02*
X56730000Y-85520000D01*
X50760000Y-73150000D02*
X50980000Y-72000000D01*
X50710000Y-73220000D02*
X50760000Y-73150000D01*
X50170000Y-72640000D02*
X50710000Y-73220000D01*
X50420000Y-71130000D02*
X50170000Y-72640000D01*
X50030000Y-71100000D02*
X50420000Y-71130000D01*
X49640000Y-70910000D02*
X50030000Y-71100000D01*
X49590000Y-70540000D02*
X49640000Y-70910000D01*
X49710000Y-70250000D02*
X49590000Y-70540000D01*
X50100000Y-70250000D02*
X49710000Y-70250000D01*
X50490000Y-70660000D02*
X50100000Y-70250000D01*
X52120000Y-72780000D02*
X51660000Y-72270000D01*
X52510000Y-72780000D02*
X52120000Y-72780000D01*
X52610000Y-72760000D02*
X52510000Y-72780000D01*
X52580000Y-72150000D02*
X52610000Y-72760000D01*
X51510000Y-71050000D02*
X52580000Y-72150000D01*
X51800000Y-71030000D02*
X51510000Y-71050000D01*
X52020000Y-70760000D02*
X51800000Y-71030000D01*
X52000000Y-70180000D02*
X52020000Y-70760000D01*
X51680000Y-69960000D02*
X52000000Y-70180000D01*
X51170000Y-69960000D02*
X51680000Y-69960000D01*
X51000000Y-70130000D02*
X51170000Y-69960000D01*
X50930000Y-70520000D02*
X51000000Y-70130000D01*
X51510000Y-72710000D02*
X50510000Y-70130000D01*
X57450000Y-88740000D02*
X56220000Y-86140000D01*
X44070000Y-96790000D02*
X44220000Y-96320000D01*
X44070000Y-97240000D02*
X44070000Y-96790000D01*
X44470000Y-97290000D02*
X44070000Y-97240000D01*
X44900000Y-97160000D02*
X44470000Y-97290000D01*
X44900000Y-96060000D02*
X44900000Y-97160000D01*
X45590000Y-96260000D02*
X44900000Y-96060000D01*
X45910000Y-96210000D02*
X45590000Y-96260000D01*
X46060000Y-96010000D02*
X45910000Y-96210000D01*
X45930000Y-95560000D02*
X46060000Y-96010000D01*
X45350000Y-95520000D02*
X45930000Y-95560000D01*
X43330000Y-96100000D02*
X43910000Y-95990000D01*
X43100000Y-95940000D02*
X43330000Y-96100000D01*
X43080000Y-95610000D02*
X43100000Y-95940000D01*
X43080000Y-95200000D02*
X43080000Y-95610000D01*
X43350000Y-95160000D02*
X43080000Y-95200000D01*
X44400000Y-95360000D02*
X43350000Y-95160000D01*
X44240000Y-94820000D02*
X44400000Y-95360000D01*
X44240000Y-94440000D02*
X44240000Y-94820000D01*
X44600000Y-94350000D02*
X44240000Y-94440000D01*
X45080000Y-94350000D02*
X44600000Y-94350000D01*
X45140000Y-95040000D02*
X45080000Y-94350000D01*
X43710000Y-96440000D02*
X45280000Y-95250000D01*
X42250000Y-101030000D02*
X41960000Y-100410000D01*
X42490000Y-100950000D02*
X42250000Y-101030000D01*
X42800000Y-100680000D02*
X42490000Y-100950000D01*
X42680000Y-100290000D02*
X42800000Y-100680000D01*
X42490000Y-99450000D02*
X42680000Y-100290000D01*
X43130000Y-99420000D02*
X42490000Y-99450000D01*
X43420000Y-99420000D02*
X43130000Y-99420000D01*
X43520000Y-99030000D02*
X43420000Y-99420000D01*
X43520000Y-98560000D02*
X43520000Y-99030000D01*
X43240000Y-98440000D02*
X43520000Y-98560000D01*
X42670000Y-98650000D02*
X43240000Y-98440000D01*
X41300000Y-100140000D02*
X41430000Y-99900000D01*
X40730000Y-100250000D02*
X41300000Y-100140000D01*
X40570000Y-99990000D02*
X40730000Y-100250000D01*
X40570000Y-99640000D02*
X40570000Y-99990000D01*
X40800000Y-99380000D02*
X40570000Y-99640000D01*
X41040000Y-99270000D02*
X40800000Y-99380000D01*
X41650000Y-99170000D02*
X41040000Y-99270000D01*
X41530000Y-98990000D02*
X41650000Y-99170000D01*
X41290000Y-98620000D02*
X41530000Y-98990000D01*
X41260000Y-98330000D02*
X41290000Y-98620000D01*
X41260000Y-97890000D02*
X41260000Y-98330000D01*
X41390000Y-97730000D02*
X41260000Y-97890000D01*
X41640000Y-97730000D02*
X41390000Y-97730000D01*
X42010000Y-97840000D02*
X41640000Y-97730000D01*
X42290000Y-98440000D02*
X42010000Y-97840000D01*
X41720000Y-100280000D02*
X42500000Y-98410000D01*
X43500000Y-108260000D02*
X43510000Y-108120000D01*
X43290000Y-108540000D02*
X43500000Y-108260000D01*
X42870000Y-108540000D02*
X43290000Y-108540000D01*
X42830000Y-108160000D02*
X42870000Y-108540000D01*
X43010000Y-107280000D02*
X42830000Y-108160000D01*
X42510000Y-107390000D02*
X43010000Y-107280000D01*
X42290000Y-107450000D02*
X42510000Y-107390000D01*
X41920000Y-107280000D02*
X42290000Y-107450000D01*
X41790000Y-107030000D02*
X41900000Y-107260000D01*
X41800000Y-106760000D02*
X41790000Y-107030000D01*
X42210000Y-106690000D02*
X41800000Y-106760000D01*
X42890000Y-106830000D02*
X42210000Y-106690000D01*
X44550000Y-108260000D02*
X44140000Y-108140000D01*
X44790000Y-108230000D02*
X44550000Y-108260000D01*
X44900000Y-107950000D02*
X44790000Y-108230000D01*
X44690000Y-107410000D02*
X44900000Y-107950000D01*
X44510000Y-107230000D02*
X44690000Y-107410000D01*
X43920000Y-107100000D02*
X44510000Y-107230000D01*
X44180000Y-106470000D02*
X43920000Y-107100000D01*
X44290000Y-106270000D02*
X44180000Y-106470000D01*
X44290000Y-106030000D02*
X44290000Y-106270000D01*
X44200000Y-105760000D02*
X44290000Y-106030000D01*
X44130000Y-105640000D02*
X44200000Y-105760000D01*
X43840000Y-105640000D02*
X44130000Y-105640000D01*
X43640000Y-105640000D02*
X43840000Y-105640000D01*
X43470000Y-105790000D02*
X43640000Y-105640000D01*
X43330000Y-106130000D02*
X43470000Y-105790000D01*
X43270000Y-106500000D02*
X43330000Y-106130000D01*
X43700000Y-107600000D02*
X42960000Y-106510000D01*
X44090000Y-108540000D02*
X43700000Y-107600000D01*
X23980000Y-87840000D02*
X24060000Y-87340000D01*
X23980000Y-88060000D02*
X23980000Y-87840000D01*
X24080000Y-88390000D02*
X23980000Y-88060000D01*
X24410000Y-88390000D02*
X24080000Y-88390000D01*
X24780000Y-87940000D02*
X24410000Y-88390000D01*
X24820000Y-87450000D02*
X24780000Y-87940000D01*
X24910000Y-86680000D02*
X24820000Y-87450000D01*
X25340000Y-86830000D02*
X24910000Y-86680000D01*
X25750000Y-86700000D02*
X25340000Y-86830000D01*
X26180000Y-86700000D02*
X25750000Y-86700000D01*
X26360000Y-86030000D02*
X26180000Y-86700000D01*
X26060000Y-85840000D02*
X26360000Y-86030000D01*
X25710000Y-85900000D02*
X26060000Y-85840000D01*
X25280000Y-86070000D02*
X25710000Y-85900000D01*
X23080000Y-87050000D02*
X23570000Y-86870000D01*
X22600000Y-87030000D02*
X23080000Y-87050000D01*
X22540000Y-86810000D02*
X22600000Y-87030000D01*
X22540000Y-86250000D02*
X22540000Y-86810000D01*
X22790000Y-85940000D02*
X22540000Y-86250000D01*
X23260000Y-85900000D02*
X22790000Y-85940000D01*
X24210000Y-86110000D02*
X23260000Y-85900000D01*
X23960000Y-86030000D02*
X24210000Y-86110000D01*
X23820000Y-85370000D02*
X23960000Y-86030000D01*
X23820000Y-84940000D02*
X23820000Y-85370000D01*
X23980000Y-84710000D02*
X23820000Y-84940000D01*
X24640000Y-84710000D02*
X23980000Y-84710000D01*
X25110000Y-84960000D02*
X24640000Y-84710000D01*
X24990000Y-85780000D02*
X25110000Y-84960000D01*
X23420000Y-87470000D02*
X25360000Y-85760000D01*
X27510000Y-82000000D02*
X27850000Y-81350000D01*
X27050000Y-82570000D02*
X27510000Y-82000000D01*
X26630000Y-82510000D02*
X27050000Y-82570000D01*
X26490000Y-82000000D02*
X26630000Y-82510000D01*
X26800000Y-81320000D02*
X26490000Y-82000000D01*
X27850000Y-80270000D02*
X26800000Y-81320000D01*
X27080000Y-80240000D02*
X27850000Y-80270000D01*
X26880000Y-80100000D02*
X27080000Y-80240000D01*
X26850000Y-79700000D02*
X26880000Y-80100000D01*
X26850000Y-79190000D02*
X26850000Y-79700000D01*
X26880000Y-78910000D02*
X26850000Y-79190000D01*
X27360000Y-78880000D02*
X26880000Y-78910000D01*
X27960000Y-79450000D02*
X27360000Y-78880000D01*
X28920000Y-82760000D02*
X28550000Y-82030000D01*
X29460000Y-82760000D02*
X28920000Y-82760000D01*
X29600000Y-81910000D02*
X29460000Y-82760000D01*
X29600000Y-81150000D02*
X29600000Y-81910000D01*
X28840000Y-80210000D02*
X29600000Y-81150000D01*
X29600000Y-79960000D02*
X28840000Y-80210000D01*
X29830000Y-79250000D02*
X29600000Y-79960000D01*
X29600000Y-78510000D02*
X29830000Y-79250000D01*
X29210000Y-78430000D02*
X29600000Y-78510000D01*
X28640000Y-79170000D02*
X29210000Y-78430000D01*
X28360000Y-80360000D02*
X28210000Y-79110000D01*
X28070000Y-82510000D02*
X28360000Y-80360000D01*
X19290000Y-69700000D02*
X19140000Y-69220000D01*
X19170000Y-69950000D02*
X19290000Y-69700000D01*
X18740000Y-69900000D02*
X19170000Y-69950000D01*
X18650000Y-69510000D02*
X18740000Y-69900000D01*
X18730000Y-68730000D02*
X18650000Y-69510000D01*
X18090000Y-68960000D02*
X18730000Y-68730000D01*
X17950000Y-68820000D02*
X18090000Y-68960000D01*
X17950000Y-68480000D02*
X17950000Y-68820000D01*
X18000000Y-68270000D02*
X17950000Y-68480000D01*
X18180000Y-68220000D02*
X18000000Y-68270000D01*
X18520000Y-68220000D02*
X18180000Y-68220000D01*
X20100000Y-69260000D02*
X19550000Y-69140000D01*
X20200000Y-69020000D02*
X20100000Y-69260000D01*
X20120000Y-68640000D02*
X20200000Y-69020000D01*
X19890000Y-68470000D02*
X20120000Y-68640000D01*
X19230000Y-68470000D02*
X19890000Y-68470000D01*
X19630000Y-68360000D02*
X19230000Y-68470000D01*
X19740000Y-68100000D02*
X19630000Y-68360000D01*
X19690000Y-67800000D02*
X19740000Y-68100000D01*
X19320000Y-67660000D02*
X19690000Y-67800000D01*
X18880000Y-67730000D02*
X19320000Y-67660000D01*
X18850000Y-68010000D02*
X18880000Y-67730000D01*
X19630000Y-69610000D02*
X18550000Y-68010000D01*
X22870000Y-73240000D02*
X22840000Y-72690000D01*
X23000000Y-73310000D02*
X22870000Y-73240000D01*
X23490000Y-73040000D02*
X23000000Y-73310000D01*
X23530000Y-72320000D02*
X23490000Y-73040000D01*
X23310000Y-71960000D02*
X23530000Y-72320000D01*
X24140000Y-71920000D02*
X23310000Y-71960000D01*
X24370000Y-71720000D02*
X24140000Y-71920000D01*
X24370000Y-71370000D02*
X24370000Y-71720000D01*
X24150000Y-71040000D02*
X24370000Y-71370000D01*
X23680000Y-71260000D02*
X24150000Y-71040000D01*
X21720000Y-72960000D02*
X22320000Y-72650000D01*
X21570000Y-72890000D02*
X21720000Y-72960000D01*
X21570000Y-72420000D02*
X21570000Y-72890000D01*
X21760000Y-71980000D02*
X21570000Y-72420000D01*
X22530000Y-71810000D02*
X21760000Y-71980000D01*
X22100000Y-71570000D02*
X22530000Y-71810000D01*
X21990000Y-71040000D02*
X22100000Y-71570000D01*
X22050000Y-70730000D02*
X21990000Y-71040000D01*
X22530000Y-70660000D02*
X22050000Y-70730000D01*
X22980000Y-70660000D02*
X22530000Y-70660000D01*
X23280000Y-71120000D02*
X22980000Y-70660000D01*
X22490000Y-72930000D02*
X23530000Y-71040000D01*
X26670000Y-63000000D02*
X26660000Y-62800000D01*
X26650000Y-63140000D02*
X26670000Y-63000000D01*
X26480000Y-63120000D02*
X26650000Y-63140000D01*
X26350000Y-62890000D02*
X26480000Y-63120000D01*
X26340000Y-62550000D02*
X26350000Y-62890000D01*
X26140000Y-62740000D02*
X26340000Y-62550000D01*
X25960000Y-62740000D02*
X26140000Y-62740000D01*
X25940000Y-62460000D02*
X25960000Y-62740000D01*
X25950000Y-62280000D02*
X25940000Y-62460000D01*
X26040000Y-62200000D02*
X25950000Y-62280000D01*
X26230000Y-62220000D02*
X26040000Y-62200000D01*
X27380000Y-62800000D02*
X27070000Y-62740000D01*
X27500000Y-62660000D02*
X27380000Y-62800000D01*
X27300000Y-62410000D02*
X27500000Y-62660000D01*
X26870000Y-62300000D02*
X27300000Y-62410000D01*
X27030000Y-62080000D02*
X26870000Y-62300000D01*
X26800000Y-61870000D02*
X27030000Y-62080000D01*
X26560000Y-61820000D02*
X26800000Y-61870000D01*
X26490000Y-61970000D02*
X26510000Y-61800000D01*
X26850000Y-62690000D02*
X26280000Y-61990000D01*
X29300000Y-65840000D02*
X29300000Y-65620000D01*
X29150000Y-65890000D02*
X29300000Y-65840000D01*
X28670000Y-65620000D02*
X29150000Y-65890000D01*
X28620000Y-65340000D02*
X28670000Y-65620000D01*
X28620000Y-64640000D02*
X28620000Y-65340000D01*
X28010000Y-64640000D02*
X28620000Y-64640000D01*
X27660000Y-64250000D02*
X28010000Y-64640000D01*
X27660000Y-63970000D02*
X27660000Y-64250000D01*
X27800000Y-63710000D02*
X27660000Y-63970000D01*
X28300000Y-63950000D02*
X27800000Y-63710000D01*
X30490000Y-65690000D02*
X29820000Y-65470000D01*
X30750000Y-65400000D02*
X30490000Y-65690000D01*
X30860000Y-64670000D02*
X30750000Y-65400000D01*
X30260000Y-64340000D02*
X30860000Y-64670000D01*
X29230000Y-64340000D02*
X30260000Y-64340000D01*
X29760000Y-64050000D02*
X29230000Y-64340000D01*
X29860000Y-63430000D02*
X29760000Y-64050000D01*
X29730000Y-62770000D02*
X29860000Y-63430000D01*
X29430000Y-62440000D02*
X29730000Y-62770000D01*
X28930000Y-63010000D02*
X29430000Y-62440000D01*
X28800000Y-63580000D02*
X28930000Y-63010000D01*
X29140000Y-65010000D02*
X28290000Y-63420000D01*
X29930000Y-65990000D02*
X29140000Y-65010000D01*
D11*
X51419636Y-28539819D02*
X51324398Y-28492200D01*
X51324398Y-28492200D02*
X51276779Y-28444580D01*
X51276779Y-28444580D02*
X51229160Y-28349342D01*
X51229160Y-28349342D02*
X51229160Y-28063628D01*
X51229160Y-28063628D02*
X51276779Y-27968390D01*
X51276779Y-27968390D02*
X51324398Y-27920771D01*
X51324398Y-27920771D02*
X51419636Y-27873152D01*
X51419636Y-27873152D02*
X51562493Y-27873152D01*
X51562493Y-27873152D02*
X51657731Y-27920771D01*
X51657731Y-27920771D02*
X51705350Y-27968390D01*
X51705350Y-27968390D02*
X51752969Y-28063628D01*
X51752969Y-28063628D02*
X51752969Y-28349342D01*
X51752969Y-28349342D02*
X51705350Y-28444580D01*
X51705350Y-28444580D02*
X51657731Y-28492200D01*
X51657731Y-28492200D02*
X51562493Y-28539819D01*
X51562493Y-28539819D02*
X51419636Y-28539819D01*
X52610112Y-27873152D02*
X52610112Y-28539819D01*
X52181541Y-27873152D02*
X52181541Y-28396961D01*
X52181541Y-28396961D02*
X52229160Y-28492200D01*
X52229160Y-28492200D02*
X52324398Y-28539819D01*
X52324398Y-28539819D02*
X52467255Y-28539819D01*
X52467255Y-28539819D02*
X52562493Y-28492200D01*
X52562493Y-28492200D02*
X52610112Y-28444580D01*
X52943446Y-27873152D02*
X53324398Y-27873152D01*
X53086303Y-27539819D02*
X53086303Y-28396961D01*
X53086303Y-28396961D02*
X53133922Y-28492200D01*
X53133922Y-28492200D02*
X53229160Y-28539819D01*
X53229160Y-28539819D02*
X53324398Y-28539819D01*
X21689636Y-33469819D02*
X21594398Y-33422200D01*
X21594398Y-33422200D02*
X21546779Y-33374580D01*
X21546779Y-33374580D02*
X21499160Y-33279342D01*
X21499160Y-33279342D02*
X21499160Y-32993628D01*
X21499160Y-32993628D02*
X21546779Y-32898390D01*
X21546779Y-32898390D02*
X21594398Y-32850771D01*
X21594398Y-32850771D02*
X21689636Y-32803152D01*
X21689636Y-32803152D02*
X21832493Y-32803152D01*
X21832493Y-32803152D02*
X21927731Y-32850771D01*
X21927731Y-32850771D02*
X21975350Y-32898390D01*
X21975350Y-32898390D02*
X22022969Y-32993628D01*
X22022969Y-32993628D02*
X22022969Y-33279342D01*
X22022969Y-33279342D02*
X21975350Y-33374580D01*
X21975350Y-33374580D02*
X21927731Y-33422200D01*
X21927731Y-33422200D02*
X21832493Y-33469819D01*
X21832493Y-33469819D02*
X21689636Y-33469819D01*
X22880112Y-32803152D02*
X22880112Y-33469819D01*
X22451541Y-32803152D02*
X22451541Y-33326961D01*
X22451541Y-33326961D02*
X22499160Y-33422200D01*
X22499160Y-33422200D02*
X22594398Y-33469819D01*
X22594398Y-33469819D02*
X22737255Y-33469819D01*
X22737255Y-33469819D02*
X22832493Y-33422200D01*
X22832493Y-33422200D02*
X22880112Y-33374580D01*
X23213446Y-32803152D02*
X23594398Y-32803152D01*
X23356303Y-32469819D02*
X23356303Y-33326961D01*
X23356303Y-33326961D02*
X23403922Y-33422200D01*
X23403922Y-33422200D02*
X23499160Y-33469819D01*
X23499160Y-33469819D02*
X23594398Y-33469819D01*
X21439636Y-32109819D02*
X21344398Y-32062200D01*
X21344398Y-32062200D02*
X21296779Y-31966961D01*
X21296779Y-31966961D02*
X21296779Y-31109819D01*
X21820589Y-32109819D02*
X21820589Y-31443152D01*
X21820589Y-31109819D02*
X21772970Y-31157438D01*
X21772970Y-31157438D02*
X21820589Y-31205057D01*
X21820589Y-31205057D02*
X21868208Y-31157438D01*
X21868208Y-31157438D02*
X21820589Y-31109819D01*
X21820589Y-31109819D02*
X21820589Y-31205057D01*
X22296779Y-31443152D02*
X22296779Y-32109819D01*
X22296779Y-31538390D02*
X22344398Y-31490771D01*
X22344398Y-31490771D02*
X22439636Y-31443152D01*
X22439636Y-31443152D02*
X22582493Y-31443152D01*
X22582493Y-31443152D02*
X22677731Y-31490771D01*
X22677731Y-31490771D02*
X22725350Y-31586009D01*
X22725350Y-31586009D02*
X22725350Y-32109819D01*
X23582493Y-32062200D02*
X23487255Y-32109819D01*
X23487255Y-32109819D02*
X23296779Y-32109819D01*
X23296779Y-32109819D02*
X23201541Y-32062200D01*
X23201541Y-32062200D02*
X23153922Y-31966961D01*
X23153922Y-31966961D02*
X23153922Y-31586009D01*
X23153922Y-31586009D02*
X23201541Y-31490771D01*
X23201541Y-31490771D02*
X23296779Y-31443152D01*
X23296779Y-31443152D02*
X23487255Y-31443152D01*
X23487255Y-31443152D02*
X23582493Y-31490771D01*
X23582493Y-31490771D02*
X23630112Y-31586009D01*
X23630112Y-31586009D02*
X23630112Y-31681247D01*
X23630112Y-31681247D02*
X23153922Y-31776485D01*
X51456779Y-27609819D02*
X51456779Y-26943152D01*
X51456779Y-27038390D02*
X51504398Y-26990771D01*
X51504398Y-26990771D02*
X51599636Y-26943152D01*
X51599636Y-26943152D02*
X51742493Y-26943152D01*
X51742493Y-26943152D02*
X51837731Y-26990771D01*
X51837731Y-26990771D02*
X51885350Y-27086009D01*
X51885350Y-27086009D02*
X51885350Y-27609819D01*
X51885350Y-27086009D02*
X51932969Y-26990771D01*
X51932969Y-26990771D02*
X52028207Y-26943152D01*
X52028207Y-26943152D02*
X52171064Y-26943152D01*
X52171064Y-26943152D02*
X52266303Y-26990771D01*
X52266303Y-26990771D02*
X52313922Y-27086009D01*
X52313922Y-27086009D02*
X52313922Y-27609819D01*
X52790112Y-27609819D02*
X52790112Y-26943152D01*
X52790112Y-26609819D02*
X52742493Y-26657438D01*
X52742493Y-26657438D02*
X52790112Y-26705057D01*
X52790112Y-26705057D02*
X52837731Y-26657438D01*
X52837731Y-26657438D02*
X52790112Y-26609819D01*
X52790112Y-26609819D02*
X52790112Y-26705057D01*
X53694873Y-27609819D02*
X53694873Y-26609819D01*
X53694873Y-27562200D02*
X53599635Y-27609819D01*
X53599635Y-27609819D02*
X53409159Y-27609819D01*
X53409159Y-27609819D02*
X53313921Y-27562200D01*
X53313921Y-27562200D02*
X53266302Y-27514580D01*
X53266302Y-27514580D02*
X53218683Y-27419342D01*
X53218683Y-27419342D02*
X53218683Y-27133628D01*
X53218683Y-27133628D02*
X53266302Y-27038390D01*
X53266302Y-27038390D02*
X53313921Y-26990771D01*
X53313921Y-26990771D02*
X53409159Y-26943152D01*
X53409159Y-26943152D02*
X53599635Y-26943152D01*
X53599635Y-26943152D02*
X53694873Y-26990771D01*
X54171064Y-27609819D02*
X54171064Y-26943152D01*
X54171064Y-26609819D02*
X54123445Y-26657438D01*
X54123445Y-26657438D02*
X54171064Y-26705057D01*
X54171064Y-26705057D02*
X54218683Y-26657438D01*
X54218683Y-26657438D02*
X54171064Y-26609819D01*
X54171064Y-26609819D02*
X54171064Y-26705057D01*
X29659819Y-21253220D02*
X28993152Y-21253220D01*
X29088390Y-21253220D02*
X29040771Y-21205601D01*
X29040771Y-21205601D02*
X28993152Y-21110363D01*
X28993152Y-21110363D02*
X28993152Y-20967506D01*
X28993152Y-20967506D02*
X29040771Y-20872268D01*
X29040771Y-20872268D02*
X29136009Y-20824649D01*
X29136009Y-20824649D02*
X29659819Y-20824649D01*
X29136009Y-20824649D02*
X29040771Y-20777030D01*
X29040771Y-20777030D02*
X28993152Y-20681792D01*
X28993152Y-20681792D02*
X28993152Y-20538935D01*
X28993152Y-20538935D02*
X29040771Y-20443696D01*
X29040771Y-20443696D02*
X29136009Y-20396077D01*
X29136009Y-20396077D02*
X29659819Y-20396077D01*
X29659819Y-19919887D02*
X28993152Y-19919887D01*
X28659819Y-19919887D02*
X28707438Y-19967506D01*
X28707438Y-19967506D02*
X28755057Y-19919887D01*
X28755057Y-19919887D02*
X28707438Y-19872268D01*
X28707438Y-19872268D02*
X28659819Y-19919887D01*
X28659819Y-19919887D02*
X28755057Y-19919887D01*
X29659819Y-19015126D02*
X28659819Y-19015126D01*
X29612200Y-19015126D02*
X29659819Y-19110364D01*
X29659819Y-19110364D02*
X29659819Y-19300840D01*
X29659819Y-19300840D02*
X29612200Y-19396078D01*
X29612200Y-19396078D02*
X29564580Y-19443697D01*
X29564580Y-19443697D02*
X29469342Y-19491316D01*
X29469342Y-19491316D02*
X29183628Y-19491316D01*
X29183628Y-19491316D02*
X29088390Y-19443697D01*
X29088390Y-19443697D02*
X29040771Y-19396078D01*
X29040771Y-19396078D02*
X28993152Y-19300840D01*
X28993152Y-19300840D02*
X28993152Y-19110364D01*
X28993152Y-19110364D02*
X29040771Y-19015126D01*
X29659819Y-18538935D02*
X28993152Y-18538935D01*
X28659819Y-18538935D02*
X28707438Y-18586554D01*
X28707438Y-18586554D02*
X28755057Y-18538935D01*
X28755057Y-18538935D02*
X28707438Y-18491316D01*
X28707438Y-18491316D02*
X28659819Y-18538935D01*
X28659819Y-18538935D02*
X28755057Y-18538935D01*
X29659819Y-17300840D02*
X28993152Y-17300840D01*
X28659819Y-17300840D02*
X28707438Y-17348459D01*
X28707438Y-17348459D02*
X28755057Y-17300840D01*
X28755057Y-17300840D02*
X28707438Y-17253221D01*
X28707438Y-17253221D02*
X28659819Y-17300840D01*
X28659819Y-17300840D02*
X28755057Y-17300840D01*
X28993152Y-16824650D02*
X29659819Y-16824650D01*
X29088390Y-16824650D02*
X29040771Y-16777031D01*
X29040771Y-16777031D02*
X28993152Y-16681793D01*
X28993152Y-16681793D02*
X28993152Y-16538936D01*
X28993152Y-16538936D02*
X29040771Y-16443698D01*
X29040771Y-16443698D02*
X29136009Y-16396079D01*
X29136009Y-16396079D02*
X29659819Y-16396079D01*
X52172969Y-36829819D02*
X51696779Y-36829819D01*
X51696779Y-36829819D02*
X51649160Y-37306009D01*
X51649160Y-37306009D02*
X51696779Y-37258390D01*
X51696779Y-37258390D02*
X51792017Y-37210771D01*
X51792017Y-37210771D02*
X52030112Y-37210771D01*
X52030112Y-37210771D02*
X52125350Y-37258390D01*
X52125350Y-37258390D02*
X52172969Y-37306009D01*
X52172969Y-37306009D02*
X52220588Y-37401247D01*
X52220588Y-37401247D02*
X52220588Y-37639342D01*
X52220588Y-37639342D02*
X52172969Y-37734580D01*
X52172969Y-37734580D02*
X52125350Y-37782200D01*
X52125350Y-37782200D02*
X52030112Y-37829819D01*
X52030112Y-37829819D02*
X51792017Y-37829819D01*
X51792017Y-37829819D02*
X51696779Y-37782200D01*
X51696779Y-37782200D02*
X51649160Y-37734580D01*
X52649160Y-37734580D02*
X52696779Y-37782200D01*
X52696779Y-37782200D02*
X52649160Y-37829819D01*
X52649160Y-37829819D02*
X52601541Y-37782200D01*
X52601541Y-37782200D02*
X52649160Y-37734580D01*
X52649160Y-37734580D02*
X52649160Y-37829819D01*
X53030112Y-36829819D02*
X53696778Y-36829819D01*
X53696778Y-36829819D02*
X53268207Y-37829819D01*
X52025350Y-34209819D02*
X51834874Y-34209819D01*
X51834874Y-34209819D02*
X51739636Y-34257438D01*
X51739636Y-34257438D02*
X51692017Y-34305057D01*
X51692017Y-34305057D02*
X51596779Y-34447914D01*
X51596779Y-34447914D02*
X51549160Y-34638390D01*
X51549160Y-34638390D02*
X51549160Y-35019342D01*
X51549160Y-35019342D02*
X51596779Y-35114580D01*
X51596779Y-35114580D02*
X51644398Y-35162200D01*
X51644398Y-35162200D02*
X51739636Y-35209819D01*
X51739636Y-35209819D02*
X51930112Y-35209819D01*
X51930112Y-35209819D02*
X52025350Y-35162200D01*
X52025350Y-35162200D02*
X52072969Y-35114580D01*
X52072969Y-35114580D02*
X52120588Y-35019342D01*
X52120588Y-35019342D02*
X52120588Y-34781247D01*
X52120588Y-34781247D02*
X52072969Y-34686009D01*
X52072969Y-34686009D02*
X52025350Y-34638390D01*
X52025350Y-34638390D02*
X51930112Y-34590771D01*
X51930112Y-34590771D02*
X51739636Y-34590771D01*
X51739636Y-34590771D02*
X51644398Y-34638390D01*
X51644398Y-34638390D02*
X51596779Y-34686009D01*
X51596779Y-34686009D02*
X51549160Y-34781247D01*
X52549160Y-35114580D02*
X52596779Y-35162200D01*
X52596779Y-35162200D02*
X52549160Y-35209819D01*
X52549160Y-35209819D02*
X52501541Y-35162200D01*
X52501541Y-35162200D02*
X52549160Y-35114580D01*
X52549160Y-35114580D02*
X52549160Y-35209819D01*
X53453921Y-34543152D02*
X53453921Y-35209819D01*
X53215826Y-34162200D02*
X52977731Y-34876485D01*
X52977731Y-34876485D02*
X53596778Y-34876485D01*
X51541541Y-31719819D02*
X52160588Y-31719819D01*
X52160588Y-31719819D02*
X51827255Y-32100771D01*
X51827255Y-32100771D02*
X51970112Y-32100771D01*
X51970112Y-32100771D02*
X52065350Y-32148390D01*
X52065350Y-32148390D02*
X52112969Y-32196009D01*
X52112969Y-32196009D02*
X52160588Y-32291247D01*
X52160588Y-32291247D02*
X52160588Y-32529342D01*
X52160588Y-32529342D02*
X52112969Y-32624580D01*
X52112969Y-32624580D02*
X52065350Y-32672200D01*
X52065350Y-32672200D02*
X51970112Y-32719819D01*
X51970112Y-32719819D02*
X51684398Y-32719819D01*
X51684398Y-32719819D02*
X51589160Y-32672200D01*
X51589160Y-32672200D02*
X51541541Y-32624580D01*
X52589160Y-32624580D02*
X52636779Y-32672200D01*
X52636779Y-32672200D02*
X52589160Y-32719819D01*
X52589160Y-32719819D02*
X52541541Y-32672200D01*
X52541541Y-32672200D02*
X52589160Y-32624580D01*
X52589160Y-32624580D02*
X52589160Y-32719819D01*
X53017731Y-31815057D02*
X53065350Y-31767438D01*
X53065350Y-31767438D02*
X53160588Y-31719819D01*
X53160588Y-31719819D02*
X53398683Y-31719819D01*
X53398683Y-31719819D02*
X53493921Y-31767438D01*
X53493921Y-31767438D02*
X53541540Y-31815057D01*
X53541540Y-31815057D02*
X53589159Y-31910295D01*
X53589159Y-31910295D02*
X53589159Y-32005533D01*
X53589159Y-32005533D02*
X53541540Y-32148390D01*
X53541540Y-32148390D02*
X52970112Y-32719819D01*
X52970112Y-32719819D02*
X53589159Y-32719819D01*
X51807255Y-29209819D02*
X51902493Y-29209819D01*
X51902493Y-29209819D02*
X51997731Y-29257438D01*
X51997731Y-29257438D02*
X52045350Y-29305057D01*
X52045350Y-29305057D02*
X52092969Y-29400295D01*
X52092969Y-29400295D02*
X52140588Y-29590771D01*
X52140588Y-29590771D02*
X52140588Y-29828866D01*
X52140588Y-29828866D02*
X52092969Y-30019342D01*
X52092969Y-30019342D02*
X52045350Y-30114580D01*
X52045350Y-30114580D02*
X51997731Y-30162200D01*
X51997731Y-30162200D02*
X51902493Y-30209819D01*
X51902493Y-30209819D02*
X51807255Y-30209819D01*
X51807255Y-30209819D02*
X51712017Y-30162200D01*
X51712017Y-30162200D02*
X51664398Y-30114580D01*
X51664398Y-30114580D02*
X51616779Y-30019342D01*
X51616779Y-30019342D02*
X51569160Y-29828866D01*
X51569160Y-29828866D02*
X51569160Y-29590771D01*
X51569160Y-29590771D02*
X51616779Y-29400295D01*
X51616779Y-29400295D02*
X51664398Y-29305057D01*
X51664398Y-29305057D02*
X51712017Y-29257438D01*
X51712017Y-29257438D02*
X51807255Y-29209819D01*
X52569160Y-30114580D02*
X52616779Y-30162200D01*
X52616779Y-30162200D02*
X52569160Y-30209819D01*
X52569160Y-30209819D02*
X52521541Y-30162200D01*
X52521541Y-30162200D02*
X52569160Y-30114580D01*
X52569160Y-30114580D02*
X52569160Y-30209819D01*
X53569159Y-30209819D02*
X52997731Y-30209819D01*
X53283445Y-30209819D02*
X53283445Y-29209819D01*
X53283445Y-29209819D02*
X53188207Y-29352676D01*
X53188207Y-29352676D02*
X53092969Y-29447914D01*
X53092969Y-29447914D02*
X52997731Y-29495533D01*
X37542200Y-39860839D02*
X37589819Y-39717982D01*
X37589819Y-39717982D02*
X37589819Y-39479887D01*
X37589819Y-39479887D02*
X37542200Y-39384649D01*
X37542200Y-39384649D02*
X37494580Y-39337030D01*
X37494580Y-39337030D02*
X37399342Y-39289411D01*
X37399342Y-39289411D02*
X37304104Y-39289411D01*
X37304104Y-39289411D02*
X37208866Y-39337030D01*
X37208866Y-39337030D02*
X37161247Y-39384649D01*
X37161247Y-39384649D02*
X37113628Y-39479887D01*
X37113628Y-39479887D02*
X37066009Y-39670363D01*
X37066009Y-39670363D02*
X37018390Y-39765601D01*
X37018390Y-39765601D02*
X36970771Y-39813220D01*
X36970771Y-39813220D02*
X36875533Y-39860839D01*
X36875533Y-39860839D02*
X36780295Y-39860839D01*
X36780295Y-39860839D02*
X36685057Y-39813220D01*
X36685057Y-39813220D02*
X36637438Y-39765601D01*
X36637438Y-39765601D02*
X36589819Y-39670363D01*
X36589819Y-39670363D02*
X36589819Y-39432268D01*
X36589819Y-39432268D02*
X36637438Y-39289411D01*
X37589819Y-38860839D02*
X36589819Y-38860839D01*
X36589819Y-38860839D02*
X36589819Y-38479887D01*
X36589819Y-38479887D02*
X36637438Y-38384649D01*
X36637438Y-38384649D02*
X36685057Y-38337030D01*
X36685057Y-38337030D02*
X36780295Y-38289411D01*
X36780295Y-38289411D02*
X36923152Y-38289411D01*
X36923152Y-38289411D02*
X37018390Y-38337030D01*
X37018390Y-38337030D02*
X37066009Y-38384649D01*
X37066009Y-38384649D02*
X37113628Y-38479887D01*
X37113628Y-38479887D02*
X37113628Y-38860839D01*
X37589819Y-37860839D02*
X36589819Y-37860839D01*
X37589819Y-37289411D02*
X37018390Y-37717982D01*
X36589819Y-37289411D02*
X37161247Y-37860839D01*
X53550112Y-102746009D02*
X53692969Y-102793628D01*
X53692969Y-102793628D02*
X53740588Y-102841247D01*
X53740588Y-102841247D02*
X53788207Y-102936485D01*
X53788207Y-102936485D02*
X53788207Y-103079342D01*
X53788207Y-103079342D02*
X53740588Y-103174580D01*
X53740588Y-103174580D02*
X53692969Y-103222200D01*
X53692969Y-103222200D02*
X53597731Y-103269819D01*
X53597731Y-103269819D02*
X53216779Y-103269819D01*
X53216779Y-103269819D02*
X53216779Y-102269819D01*
X53216779Y-102269819D02*
X53550112Y-102269819D01*
X53550112Y-102269819D02*
X53645350Y-102317438D01*
X53645350Y-102317438D02*
X53692969Y-102365057D01*
X53692969Y-102365057D02*
X53740588Y-102460295D01*
X53740588Y-102460295D02*
X53740588Y-102555533D01*
X53740588Y-102555533D02*
X53692969Y-102650771D01*
X53692969Y-102650771D02*
X53645350Y-102698390D01*
X53645350Y-102698390D02*
X53550112Y-102746009D01*
X53550112Y-102746009D02*
X53216779Y-102746009D01*
X54407255Y-102269819D02*
X54597731Y-102269819D01*
X54597731Y-102269819D02*
X54692969Y-102317438D01*
X54692969Y-102317438D02*
X54788207Y-102412676D01*
X54788207Y-102412676D02*
X54835826Y-102603152D01*
X54835826Y-102603152D02*
X54835826Y-102936485D01*
X54835826Y-102936485D02*
X54788207Y-103126961D01*
X54788207Y-103126961D02*
X54692969Y-103222200D01*
X54692969Y-103222200D02*
X54597731Y-103269819D01*
X54597731Y-103269819D02*
X54407255Y-103269819D01*
X54407255Y-103269819D02*
X54312017Y-103222200D01*
X54312017Y-103222200D02*
X54216779Y-103126961D01*
X54216779Y-103126961D02*
X54169160Y-102936485D01*
X54169160Y-102936485D02*
X54169160Y-102603152D01*
X54169160Y-102603152D02*
X54216779Y-102412676D01*
X54216779Y-102412676D02*
X54312017Y-102317438D01*
X54312017Y-102317438D02*
X54407255Y-102269819D01*
X55454874Y-102269819D02*
X55645350Y-102269819D01*
X55645350Y-102269819D02*
X55740588Y-102317438D01*
X55740588Y-102317438D02*
X55835826Y-102412676D01*
X55835826Y-102412676D02*
X55883445Y-102603152D01*
X55883445Y-102603152D02*
X55883445Y-102936485D01*
X55883445Y-102936485D02*
X55835826Y-103126961D01*
X55835826Y-103126961D02*
X55740588Y-103222200D01*
X55740588Y-103222200D02*
X55645350Y-103269819D01*
X55645350Y-103269819D02*
X55454874Y-103269819D01*
X55454874Y-103269819D02*
X55359636Y-103222200D01*
X55359636Y-103222200D02*
X55264398Y-103126961D01*
X55264398Y-103126961D02*
X55216779Y-102936485D01*
X55216779Y-102936485D02*
X55216779Y-102603152D01*
X55216779Y-102603152D02*
X55264398Y-102412676D01*
X55264398Y-102412676D02*
X55359636Y-102317438D01*
X55359636Y-102317438D02*
X55454874Y-102269819D01*
X56169160Y-102269819D02*
X56740588Y-102269819D01*
X56454874Y-103269819D02*
X56454874Y-102269819D01*
X54668207Y-92169819D02*
X54334874Y-91693628D01*
X54096779Y-92169819D02*
X54096779Y-91169819D01*
X54096779Y-91169819D02*
X54477731Y-91169819D01*
X54477731Y-91169819D02*
X54572969Y-91217438D01*
X54572969Y-91217438D02*
X54620588Y-91265057D01*
X54620588Y-91265057D02*
X54668207Y-91360295D01*
X54668207Y-91360295D02*
X54668207Y-91503152D01*
X54668207Y-91503152D02*
X54620588Y-91598390D01*
X54620588Y-91598390D02*
X54572969Y-91646009D01*
X54572969Y-91646009D02*
X54477731Y-91693628D01*
X54477731Y-91693628D02*
X54096779Y-91693628D01*
X55049160Y-92122200D02*
X55192017Y-92169819D01*
X55192017Y-92169819D02*
X55430112Y-92169819D01*
X55430112Y-92169819D02*
X55525350Y-92122200D01*
X55525350Y-92122200D02*
X55572969Y-92074580D01*
X55572969Y-92074580D02*
X55620588Y-91979342D01*
X55620588Y-91979342D02*
X55620588Y-91884104D01*
X55620588Y-91884104D02*
X55572969Y-91788866D01*
X55572969Y-91788866D02*
X55525350Y-91741247D01*
X55525350Y-91741247D02*
X55430112Y-91693628D01*
X55430112Y-91693628D02*
X55239636Y-91646009D01*
X55239636Y-91646009D02*
X55144398Y-91598390D01*
X55144398Y-91598390D02*
X55096779Y-91550771D01*
X55096779Y-91550771D02*
X55049160Y-91455533D01*
X55049160Y-91455533D02*
X55049160Y-91360295D01*
X55049160Y-91360295D02*
X55096779Y-91265057D01*
X55096779Y-91265057D02*
X55144398Y-91217438D01*
X55144398Y-91217438D02*
X55239636Y-91169819D01*
X55239636Y-91169819D02*
X55477731Y-91169819D01*
X55477731Y-91169819D02*
X55620588Y-91217438D01*
X55906303Y-91169819D02*
X56477731Y-91169819D01*
X56192017Y-92169819D02*
X56192017Y-91169819D01*
X29954309Y-72333798D02*
X29311521Y-71567753D01*
X29311521Y-71567753D02*
X30026003Y-71900665D01*
X30026003Y-71900665D02*
X29822217Y-71139228D01*
X29822217Y-71139228D02*
X30465005Y-71905273D01*
X30829788Y-71599183D02*
X30187000Y-70833139D01*
X31571092Y-70852830D02*
X31565223Y-70919918D01*
X31565223Y-70919918D02*
X31486397Y-71048223D01*
X31486397Y-71048223D02*
X31413440Y-71109441D01*
X31413440Y-71109441D02*
X31273397Y-71164789D01*
X31273397Y-71164789D02*
X31139222Y-71153050D01*
X31139222Y-71153050D02*
X31041526Y-71110703D01*
X31041526Y-71110703D02*
X30882612Y-70995398D01*
X30882612Y-70995398D02*
X30790785Y-70885963D01*
X30790785Y-70885963D02*
X30704828Y-70709441D01*
X30704828Y-70709441D02*
X30680088Y-70605876D01*
X30680088Y-70605876D02*
X30691827Y-70471701D01*
X30691827Y-70471701D02*
X30770653Y-70343396D01*
X30770653Y-70343396D02*
X30843609Y-70282178D01*
X30843609Y-70282178D02*
X30983653Y-70226830D01*
X30983653Y-70226830D02*
X31050741Y-70232699D01*
X25019819Y-58757030D02*
X25019819Y-59233220D01*
X25019819Y-59233220D02*
X24019819Y-59233220D01*
X25019819Y-58423696D02*
X24019819Y-58423696D01*
X25019819Y-57947506D02*
X24019819Y-57947506D01*
X24019819Y-57947506D02*
X25019819Y-57376078D01*
X25019819Y-57376078D02*
X24019819Y-57376078D01*
X24496009Y-56899887D02*
X24496009Y-56566554D01*
X25019819Y-56423697D02*
X25019819Y-56899887D01*
X25019819Y-56899887D02*
X24019819Y-56899887D01*
X24019819Y-56899887D02*
X24019819Y-56423697D01*
X22818207Y-61209819D02*
X22484874Y-60733628D01*
X22246779Y-61209819D02*
X22246779Y-60209819D01*
X22246779Y-60209819D02*
X22627731Y-60209819D01*
X22627731Y-60209819D02*
X22722969Y-60257438D01*
X22722969Y-60257438D02*
X22770588Y-60305057D01*
X22770588Y-60305057D02*
X22818207Y-60400295D01*
X22818207Y-60400295D02*
X22818207Y-60543152D01*
X22818207Y-60543152D02*
X22770588Y-60638390D01*
X22770588Y-60638390D02*
X22722969Y-60686009D01*
X22722969Y-60686009D02*
X22627731Y-60733628D01*
X22627731Y-60733628D02*
X22246779Y-60733628D01*
X20012969Y-61139819D02*
X19536779Y-61139819D01*
X19536779Y-61139819D02*
X19536779Y-60139819D01*
X43558207Y-104944580D02*
X43510588Y-104992200D01*
X43510588Y-104992200D02*
X43367731Y-105039819D01*
X43367731Y-105039819D02*
X43272493Y-105039819D01*
X43272493Y-105039819D02*
X43129636Y-104992200D01*
X43129636Y-104992200D02*
X43034398Y-104896961D01*
X43034398Y-104896961D02*
X42986779Y-104801723D01*
X42986779Y-104801723D02*
X42939160Y-104611247D01*
X42939160Y-104611247D02*
X42939160Y-104468390D01*
X42939160Y-104468390D02*
X42986779Y-104277914D01*
X42986779Y-104277914D02*
X43034398Y-104182676D01*
X43034398Y-104182676D02*
X43129636Y-104087438D01*
X43129636Y-104087438D02*
X43272493Y-104039819D01*
X43272493Y-104039819D02*
X43367731Y-104039819D01*
X43367731Y-104039819D02*
X43510588Y-104087438D01*
X43510588Y-104087438D02*
X43558207Y-104135057D01*
X43843922Y-104039819D02*
X44177255Y-105039819D01*
X44177255Y-105039819D02*
X44510588Y-104039819D01*
X44796303Y-104135057D02*
X44843922Y-104087438D01*
X44843922Y-104087438D02*
X44939160Y-104039819D01*
X44939160Y-104039819D02*
X45177255Y-104039819D01*
X45177255Y-104039819D02*
X45272493Y-104087438D01*
X45272493Y-104087438D02*
X45320112Y-104135057D01*
X45320112Y-104135057D02*
X45367731Y-104230295D01*
X45367731Y-104230295D02*
X45367731Y-104325533D01*
X45367731Y-104325533D02*
X45320112Y-104468390D01*
X45320112Y-104468390D02*
X44748684Y-105039819D01*
X44748684Y-105039819D02*
X45367731Y-105039819D01*
X25748207Y-97114580D02*
X25700588Y-97162200D01*
X25700588Y-97162200D02*
X25557731Y-97209819D01*
X25557731Y-97209819D02*
X25462493Y-97209819D01*
X25462493Y-97209819D02*
X25319636Y-97162200D01*
X25319636Y-97162200D02*
X25224398Y-97066961D01*
X25224398Y-97066961D02*
X25176779Y-96971723D01*
X25176779Y-96971723D02*
X25129160Y-96781247D01*
X25129160Y-96781247D02*
X25129160Y-96638390D01*
X25129160Y-96638390D02*
X25176779Y-96447914D01*
X25176779Y-96447914D02*
X25224398Y-96352676D01*
X25224398Y-96352676D02*
X25319636Y-96257438D01*
X25319636Y-96257438D02*
X25462493Y-96209819D01*
X25462493Y-96209819D02*
X25557731Y-96209819D01*
X25557731Y-96209819D02*
X25700588Y-96257438D01*
X25700588Y-96257438D02*
X25748207Y-96305057D01*
X26033922Y-96209819D02*
X26367255Y-97209819D01*
X26367255Y-97209819D02*
X26700588Y-96209819D01*
X27557731Y-97209819D02*
X26986303Y-97209819D01*
X27272017Y-97209819D02*
X27272017Y-96209819D01*
X27272017Y-96209819D02*
X27176779Y-96352676D01*
X27176779Y-96352676D02*
X27081541Y-96447914D01*
X27081541Y-96447914D02*
X26986303Y-96495533D01*
X25707438Y-90509411D02*
X25659819Y-90604649D01*
X25659819Y-90604649D02*
X25659819Y-90747506D01*
X25659819Y-90747506D02*
X25707438Y-90890363D01*
X25707438Y-90890363D02*
X25802676Y-90985601D01*
X25802676Y-90985601D02*
X25897914Y-91033220D01*
X25897914Y-91033220D02*
X26088390Y-91080839D01*
X26088390Y-91080839D02*
X26231247Y-91080839D01*
X26231247Y-91080839D02*
X26421723Y-91033220D01*
X26421723Y-91033220D02*
X26516961Y-90985601D01*
X26516961Y-90985601D02*
X26612200Y-90890363D01*
X26612200Y-90890363D02*
X26659819Y-90747506D01*
X26659819Y-90747506D02*
X26659819Y-90652268D01*
X26659819Y-90652268D02*
X26612200Y-90509411D01*
X26612200Y-90509411D02*
X26564580Y-90461792D01*
X26564580Y-90461792D02*
X26231247Y-90461792D01*
X26231247Y-90461792D02*
X26231247Y-90652268D01*
X26659819Y-90033220D02*
X25659819Y-90033220D01*
X25659819Y-90033220D02*
X26659819Y-89461792D01*
X26659819Y-89461792D02*
X25659819Y-89461792D01*
X26659819Y-88985601D02*
X25659819Y-88985601D01*
X25659819Y-88985601D02*
X25659819Y-88747506D01*
X25659819Y-88747506D02*
X25707438Y-88604649D01*
X25707438Y-88604649D02*
X25802676Y-88509411D01*
X25802676Y-88509411D02*
X25897914Y-88461792D01*
X25897914Y-88461792D02*
X26088390Y-88414173D01*
X26088390Y-88414173D02*
X26231247Y-88414173D01*
X26231247Y-88414173D02*
X26421723Y-88461792D01*
X26421723Y-88461792D02*
X26516961Y-88509411D01*
X26516961Y-88509411D02*
X26612200Y-88604649D01*
X26612200Y-88604649D02*
X26659819Y-88747506D01*
X26659819Y-88747506D02*
X26659819Y-88985601D01*
X22078866Y-85763220D02*
X22078866Y-85001316D01*
X22459819Y-85382268D02*
X21697914Y-85382268D01*
X21459819Y-84620363D02*
X21459819Y-84001316D01*
X21459819Y-84001316D02*
X21840771Y-84334649D01*
X21840771Y-84334649D02*
X21840771Y-84191792D01*
X21840771Y-84191792D02*
X21888390Y-84096554D01*
X21888390Y-84096554D02*
X21936009Y-84048935D01*
X21936009Y-84048935D02*
X22031247Y-84001316D01*
X22031247Y-84001316D02*
X22269342Y-84001316D01*
X22269342Y-84001316D02*
X22364580Y-84048935D01*
X22364580Y-84048935D02*
X22412200Y-84096554D01*
X22412200Y-84096554D02*
X22459819Y-84191792D01*
X22459819Y-84191792D02*
X22459819Y-84477506D01*
X22459819Y-84477506D02*
X22412200Y-84572744D01*
X22412200Y-84572744D02*
X22364580Y-84620363D01*
X21793152Y-83667982D02*
X22459819Y-83429887D01*
X22459819Y-83429887D02*
X21793152Y-83191792D01*
X21459819Y-82906077D02*
X21459819Y-82287030D01*
X21459819Y-82287030D02*
X21840771Y-82620363D01*
X21840771Y-82620363D02*
X21840771Y-82477506D01*
X21840771Y-82477506D02*
X21888390Y-82382268D01*
X21888390Y-82382268D02*
X21936009Y-82334649D01*
X21936009Y-82334649D02*
X22031247Y-82287030D01*
X22031247Y-82287030D02*
X22269342Y-82287030D01*
X22269342Y-82287030D02*
X22364580Y-82334649D01*
X22364580Y-82334649D02*
X22412200Y-82382268D01*
X22412200Y-82382268D02*
X22459819Y-82477506D01*
X22459819Y-82477506D02*
X22459819Y-82763220D01*
X22459819Y-82763220D02*
X22412200Y-82858458D01*
X22412200Y-82858458D02*
X22364580Y-82906077D01*
X17939490Y-76118502D02*
X18337406Y-75644284D01*
X18337406Y-75644284D02*
X18414970Y-76144504D01*
X18414970Y-76144504D02*
X18506797Y-76035069D01*
X18506797Y-76035069D02*
X18604493Y-75992721D01*
X18604493Y-75992721D02*
X18671581Y-75986852D01*
X18671581Y-75986852D02*
X18775146Y-76011591D01*
X18775146Y-76011591D02*
X18957538Y-76164636D01*
X18957538Y-76164636D02*
X18999885Y-76262332D01*
X18999885Y-76262332D02*
X19005755Y-76329419D01*
X19005755Y-76329419D02*
X18981015Y-76432985D01*
X18981015Y-76432985D02*
X18797362Y-76651855D01*
X18797362Y-76651855D02*
X18699665Y-76694202D01*
X18699665Y-76694202D02*
X18632578Y-76700072D01*
X18551669Y-75388936D02*
X18980194Y-74878239D01*
X18980194Y-74878239D02*
X19470758Y-75849332D01*
X18788564Y-71348971D02*
X19262782Y-70951055D01*
X19262782Y-70951055D02*
X19252306Y-71457144D01*
X19252306Y-71457144D02*
X19361741Y-71365317D01*
X19361741Y-71365317D02*
X19465306Y-71340577D01*
X19465306Y-71340577D02*
X19532393Y-71346447D01*
X19532393Y-71346447D02*
X19630090Y-71388795D01*
X19630090Y-71388795D02*
X19783134Y-71571186D01*
X19783134Y-71571186D02*
X19807874Y-71674752D01*
X19807874Y-71674752D02*
X19802004Y-71741839D01*
X19802004Y-71741839D02*
X19759657Y-71839535D01*
X19759657Y-71839535D02*
X19540787Y-72023189D01*
X19540787Y-72023189D02*
X19437221Y-72047928D01*
X19437221Y-72047928D02*
X19370134Y-72042059D01*
X19919392Y-70400094D02*
X19773479Y-70522530D01*
X19773479Y-70522530D02*
X19731131Y-70620226D01*
X19731131Y-70620226D02*
X19725262Y-70687313D01*
X19725262Y-70687313D02*
X19744132Y-70857966D01*
X19744132Y-70857966D02*
X19830089Y-71034488D01*
X19830089Y-71034488D02*
X20074961Y-71326315D01*
X20074961Y-71326315D02*
X20172657Y-71368662D01*
X20172657Y-71368662D02*
X20239744Y-71374532D01*
X20239744Y-71374532D02*
X20343310Y-71349792D01*
X20343310Y-71349792D02*
X20489223Y-71227356D01*
X20489223Y-71227356D02*
X20531571Y-71129660D01*
X20531571Y-71129660D02*
X20537440Y-71062573D01*
X20537440Y-71062573D02*
X20512700Y-70959007D01*
X20512700Y-70959007D02*
X20359656Y-70776616D01*
X20359656Y-70776616D02*
X20261960Y-70734268D01*
X20261960Y-70734268D02*
X20194872Y-70728399D01*
X20194872Y-70728399D02*
X20091307Y-70753138D01*
X20091307Y-70753138D02*
X19945394Y-70875574D01*
X19945394Y-70875574D02*
X19903046Y-70973270D01*
X19903046Y-70973270D02*
X19897177Y-71040358D01*
X19897177Y-71040358D02*
X19921916Y-71143923D01*
X46190588Y-72099819D02*
X45619160Y-72099819D01*
X45904874Y-72099819D02*
X45904874Y-71099819D01*
X45904874Y-71099819D02*
X45809636Y-71242676D01*
X45809636Y-71242676D02*
X45714398Y-71337914D01*
X45714398Y-71337914D02*
X45619160Y-71385533D01*
X46523922Y-71099819D02*
X47142969Y-71099819D01*
X47142969Y-71099819D02*
X46809636Y-71480771D01*
X46809636Y-71480771D02*
X46952493Y-71480771D01*
X46952493Y-71480771D02*
X47047731Y-71528390D01*
X47047731Y-71528390D02*
X47095350Y-71576009D01*
X47095350Y-71576009D02*
X47142969Y-71671247D01*
X47142969Y-71671247D02*
X47142969Y-71909342D01*
X47142969Y-71909342D02*
X47095350Y-72004580D01*
X47095350Y-72004580D02*
X47047731Y-72052200D01*
X47047731Y-72052200D02*
X46952493Y-72099819D01*
X46952493Y-72099819D02*
X46666779Y-72099819D01*
X46666779Y-72099819D02*
X46571541Y-72052200D01*
X46571541Y-72052200D02*
X46523922Y-72004580D01*
X39409160Y-72762200D02*
X39552017Y-72809819D01*
X39552017Y-72809819D02*
X39790112Y-72809819D01*
X39790112Y-72809819D02*
X39885350Y-72762200D01*
X39885350Y-72762200D02*
X39932969Y-72714580D01*
X39932969Y-72714580D02*
X39980588Y-72619342D01*
X39980588Y-72619342D02*
X39980588Y-72524104D01*
X39980588Y-72524104D02*
X39932969Y-72428866D01*
X39932969Y-72428866D02*
X39885350Y-72381247D01*
X39885350Y-72381247D02*
X39790112Y-72333628D01*
X39790112Y-72333628D02*
X39599636Y-72286009D01*
X39599636Y-72286009D02*
X39504398Y-72238390D01*
X39504398Y-72238390D02*
X39456779Y-72190771D01*
X39456779Y-72190771D02*
X39409160Y-72095533D01*
X39409160Y-72095533D02*
X39409160Y-72000295D01*
X39409160Y-72000295D02*
X39456779Y-71905057D01*
X39456779Y-71905057D02*
X39504398Y-71857438D01*
X39504398Y-71857438D02*
X39599636Y-71809819D01*
X39599636Y-71809819D02*
X39837731Y-71809819D01*
X39837731Y-71809819D02*
X39980588Y-71857438D01*
X40980588Y-72714580D02*
X40932969Y-72762200D01*
X40932969Y-72762200D02*
X40790112Y-72809819D01*
X40790112Y-72809819D02*
X40694874Y-72809819D01*
X40694874Y-72809819D02*
X40552017Y-72762200D01*
X40552017Y-72762200D02*
X40456779Y-72666961D01*
X40456779Y-72666961D02*
X40409160Y-72571723D01*
X40409160Y-72571723D02*
X40361541Y-72381247D01*
X40361541Y-72381247D02*
X40361541Y-72238390D01*
X40361541Y-72238390D02*
X40409160Y-72047914D01*
X40409160Y-72047914D02*
X40456779Y-71952676D01*
X40456779Y-71952676D02*
X40552017Y-71857438D01*
X40552017Y-71857438D02*
X40694874Y-71809819D01*
X40694874Y-71809819D02*
X40790112Y-71809819D01*
X40790112Y-71809819D02*
X40932969Y-71857438D01*
X40932969Y-71857438D02*
X40980588Y-71905057D01*
X41885350Y-72809819D02*
X41409160Y-72809819D01*
X41409160Y-72809819D02*
X41409160Y-71809819D01*
X33439160Y-72292200D02*
X33582017Y-72339819D01*
X33582017Y-72339819D02*
X33820112Y-72339819D01*
X33820112Y-72339819D02*
X33915350Y-72292200D01*
X33915350Y-72292200D02*
X33962969Y-72244580D01*
X33962969Y-72244580D02*
X34010588Y-72149342D01*
X34010588Y-72149342D02*
X34010588Y-72054104D01*
X34010588Y-72054104D02*
X33962969Y-71958866D01*
X33962969Y-71958866D02*
X33915350Y-71911247D01*
X33915350Y-71911247D02*
X33820112Y-71863628D01*
X33820112Y-71863628D02*
X33629636Y-71816009D01*
X33629636Y-71816009D02*
X33534398Y-71768390D01*
X33534398Y-71768390D02*
X33486779Y-71720771D01*
X33486779Y-71720771D02*
X33439160Y-71625533D01*
X33439160Y-71625533D02*
X33439160Y-71530295D01*
X33439160Y-71530295D02*
X33486779Y-71435057D01*
X33486779Y-71435057D02*
X33534398Y-71387438D01*
X33534398Y-71387438D02*
X33629636Y-71339819D01*
X33629636Y-71339819D02*
X33867731Y-71339819D01*
X33867731Y-71339819D02*
X34010588Y-71387438D01*
X34439160Y-72339819D02*
X34439160Y-71339819D01*
X34439160Y-71339819D02*
X34677255Y-71339819D01*
X34677255Y-71339819D02*
X34820112Y-71387438D01*
X34820112Y-71387438D02*
X34915350Y-71482676D01*
X34915350Y-71482676D02*
X34962969Y-71577914D01*
X34962969Y-71577914D02*
X35010588Y-71768390D01*
X35010588Y-71768390D02*
X35010588Y-71911247D01*
X35010588Y-71911247D02*
X34962969Y-72101723D01*
X34962969Y-72101723D02*
X34915350Y-72196961D01*
X34915350Y-72196961D02*
X34820112Y-72292200D01*
X34820112Y-72292200D02*
X34677255Y-72339819D01*
X34677255Y-72339819D02*
X34439160Y-72339819D01*
X35391541Y-72054104D02*
X35867731Y-72054104D01*
X35296303Y-72339819D02*
X35629636Y-71339819D01*
X35629636Y-71339819D02*
X35962969Y-72339819D01*
X51148207Y-68824580D02*
X51100588Y-68872200D01*
X51100588Y-68872200D02*
X50957731Y-68919819D01*
X50957731Y-68919819D02*
X50862493Y-68919819D01*
X50862493Y-68919819D02*
X50719636Y-68872200D01*
X50719636Y-68872200D02*
X50624398Y-68776961D01*
X50624398Y-68776961D02*
X50576779Y-68681723D01*
X50576779Y-68681723D02*
X50529160Y-68491247D01*
X50529160Y-68491247D02*
X50529160Y-68348390D01*
X50529160Y-68348390D02*
X50576779Y-68157914D01*
X50576779Y-68157914D02*
X50624398Y-68062676D01*
X50624398Y-68062676D02*
X50719636Y-67967438D01*
X50719636Y-67967438D02*
X50862493Y-67919819D01*
X50862493Y-67919819D02*
X50957731Y-67919819D01*
X50957731Y-67919819D02*
X51100588Y-67967438D01*
X51100588Y-67967438D02*
X51148207Y-68015057D01*
X47270112Y-68526009D02*
X47412969Y-68573628D01*
X47412969Y-68573628D02*
X47460588Y-68621247D01*
X47460588Y-68621247D02*
X47508207Y-68716485D01*
X47508207Y-68716485D02*
X47508207Y-68859342D01*
X47508207Y-68859342D02*
X47460588Y-68954580D01*
X47460588Y-68954580D02*
X47412969Y-69002200D01*
X47412969Y-69002200D02*
X47317731Y-69049819D01*
X47317731Y-69049819D02*
X46936779Y-69049819D01*
X46936779Y-69049819D02*
X46936779Y-68049819D01*
X46936779Y-68049819D02*
X47270112Y-68049819D01*
X47270112Y-68049819D02*
X47365350Y-68097438D01*
X47365350Y-68097438D02*
X47412969Y-68145057D01*
X47412969Y-68145057D02*
X47460588Y-68240295D01*
X47460588Y-68240295D02*
X47460588Y-68335533D01*
X47460588Y-68335533D02*
X47412969Y-68430771D01*
X47412969Y-68430771D02*
X47365350Y-68478390D01*
X47365350Y-68478390D02*
X47270112Y-68526009D01*
X47270112Y-68526009D02*
X46936779Y-68526009D01*
X41169160Y-65694104D02*
X41645350Y-65694104D01*
X41073922Y-65979819D02*
X41407255Y-64979819D01*
X41407255Y-64979819D02*
X41740588Y-65979819D01*
X51360588Y-78559819D02*
X50789160Y-78559819D01*
X51074874Y-78559819D02*
X51074874Y-77559819D01*
X51074874Y-77559819D02*
X50979636Y-77702676D01*
X50979636Y-77702676D02*
X50884398Y-77797914D01*
X50884398Y-77797914D02*
X50789160Y-77845533D01*
X51932017Y-77988390D02*
X51836779Y-77940771D01*
X51836779Y-77940771D02*
X51789160Y-77893152D01*
X51789160Y-77893152D02*
X51741541Y-77797914D01*
X51741541Y-77797914D02*
X51741541Y-77750295D01*
X51741541Y-77750295D02*
X51789160Y-77655057D01*
X51789160Y-77655057D02*
X51836779Y-77607438D01*
X51836779Y-77607438D02*
X51932017Y-77559819D01*
X51932017Y-77559819D02*
X52122493Y-77559819D01*
X52122493Y-77559819D02*
X52217731Y-77607438D01*
X52217731Y-77607438D02*
X52265350Y-77655057D01*
X52265350Y-77655057D02*
X52312969Y-77750295D01*
X52312969Y-77750295D02*
X52312969Y-77797914D01*
X52312969Y-77797914D02*
X52265350Y-77893152D01*
X52265350Y-77893152D02*
X52217731Y-77940771D01*
X52217731Y-77940771D02*
X52122493Y-77988390D01*
X52122493Y-77988390D02*
X51932017Y-77988390D01*
X51932017Y-77988390D02*
X51836779Y-78036009D01*
X51836779Y-78036009D02*
X51789160Y-78083628D01*
X51789160Y-78083628D02*
X51741541Y-78178866D01*
X51741541Y-78178866D02*
X51741541Y-78369342D01*
X51741541Y-78369342D02*
X51789160Y-78464580D01*
X51789160Y-78464580D02*
X51836779Y-78512200D01*
X51836779Y-78512200D02*
X51932017Y-78559819D01*
X51932017Y-78559819D02*
X52122493Y-78559819D01*
X52122493Y-78559819D02*
X52217731Y-78512200D01*
X52217731Y-78512200D02*
X52265350Y-78464580D01*
X52265350Y-78464580D02*
X52312969Y-78369342D01*
X52312969Y-78369342D02*
X52312969Y-78178866D01*
X52312969Y-78178866D02*
X52265350Y-78083628D01*
X52265350Y-78083628D02*
X52217731Y-78036009D01*
X52217731Y-78036009D02*
X52122493Y-77988390D01*
X57040588Y-83309819D02*
X56469160Y-83309819D01*
X56754874Y-83309819D02*
X56754874Y-82309819D01*
X56754874Y-82309819D02*
X56659636Y-82452676D01*
X56659636Y-82452676D02*
X56564398Y-82547914D01*
X56564398Y-82547914D02*
X56469160Y-82595533D01*
X57897731Y-82309819D02*
X57707255Y-82309819D01*
X57707255Y-82309819D02*
X57612017Y-82357438D01*
X57612017Y-82357438D02*
X57564398Y-82405057D01*
X57564398Y-82405057D02*
X57469160Y-82547914D01*
X57469160Y-82547914D02*
X57421541Y-82738390D01*
X57421541Y-82738390D02*
X57421541Y-83119342D01*
X57421541Y-83119342D02*
X57469160Y-83214580D01*
X57469160Y-83214580D02*
X57516779Y-83262200D01*
X57516779Y-83262200D02*
X57612017Y-83309819D01*
X57612017Y-83309819D02*
X57802493Y-83309819D01*
X57802493Y-83309819D02*
X57897731Y-83262200D01*
X57897731Y-83262200D02*
X57945350Y-83214580D01*
X57945350Y-83214580D02*
X57992969Y-83119342D01*
X57992969Y-83119342D02*
X57992969Y-82881247D01*
X57992969Y-82881247D02*
X57945350Y-82786009D01*
X57945350Y-82786009D02*
X57897731Y-82738390D01*
X57897731Y-82738390D02*
X57802493Y-82690771D01*
X57802493Y-82690771D02*
X57612017Y-82690771D01*
X57612017Y-82690771D02*
X57516779Y-82738390D01*
X57516779Y-82738390D02*
X57469160Y-82786009D01*
X57469160Y-82786009D02*
X57421541Y-82881247D01*
X52970588Y-86749819D02*
X52399160Y-86749819D01*
X52684874Y-86749819D02*
X52684874Y-85749819D01*
X52684874Y-85749819D02*
X52589636Y-85892676D01*
X52589636Y-85892676D02*
X52494398Y-85987914D01*
X52494398Y-85987914D02*
X52399160Y-86035533D01*
X53875350Y-85749819D02*
X53399160Y-85749819D01*
X53399160Y-85749819D02*
X53351541Y-86226009D01*
X53351541Y-86226009D02*
X53399160Y-86178390D01*
X53399160Y-86178390D02*
X53494398Y-86130771D01*
X53494398Y-86130771D02*
X53732493Y-86130771D01*
X53732493Y-86130771D02*
X53827731Y-86178390D01*
X53827731Y-86178390D02*
X53875350Y-86226009D01*
X53875350Y-86226009D02*
X53922969Y-86321247D01*
X53922969Y-86321247D02*
X53922969Y-86559342D01*
X53922969Y-86559342D02*
X53875350Y-86654580D01*
X53875350Y-86654580D02*
X53827731Y-86702200D01*
X53827731Y-86702200D02*
X53732493Y-86749819D01*
X53732493Y-86749819D02*
X53494398Y-86749819D01*
X53494398Y-86749819D02*
X53399160Y-86702200D01*
X53399160Y-86702200D02*
X53351541Y-86654580D01*
X18659160Y-44752200D02*
X18754398Y-44799819D01*
X18754398Y-44799819D02*
X18944874Y-44799819D01*
X18944874Y-44799819D02*
X19040112Y-44752200D01*
X19040112Y-44752200D02*
X19087731Y-44656961D01*
X19087731Y-44656961D02*
X19087731Y-44609342D01*
X19087731Y-44609342D02*
X19040112Y-44514104D01*
X19040112Y-44514104D02*
X18944874Y-44466485D01*
X18944874Y-44466485D02*
X18802017Y-44466485D01*
X18802017Y-44466485D02*
X18706779Y-44418866D01*
X18706779Y-44418866D02*
X18659160Y-44323628D01*
X18659160Y-44323628D02*
X18659160Y-44276009D01*
X18659160Y-44276009D02*
X18706779Y-44180771D01*
X18706779Y-44180771D02*
X18802017Y-44133152D01*
X18802017Y-44133152D02*
X18944874Y-44133152D01*
X18944874Y-44133152D02*
X19040112Y-44180771D01*
X19516303Y-44133152D02*
X19516303Y-45133152D01*
X19516303Y-44180771D02*
X19611541Y-44133152D01*
X19611541Y-44133152D02*
X19802017Y-44133152D01*
X19802017Y-44133152D02*
X19897255Y-44180771D01*
X19897255Y-44180771D02*
X19944874Y-44228390D01*
X19944874Y-44228390D02*
X19992493Y-44323628D01*
X19992493Y-44323628D02*
X19992493Y-44609342D01*
X19992493Y-44609342D02*
X19944874Y-44704580D01*
X19944874Y-44704580D02*
X19897255Y-44752200D01*
X19897255Y-44752200D02*
X19802017Y-44799819D01*
X19802017Y-44799819D02*
X19611541Y-44799819D01*
X19611541Y-44799819D02*
X19516303Y-44752200D01*
X20421065Y-44799819D02*
X20421065Y-43799819D01*
X20516303Y-44418866D02*
X20802017Y-44799819D01*
X20802017Y-44133152D02*
X20421065Y-44514104D01*
X22135351Y-44799819D02*
X22040113Y-44752200D01*
X22040113Y-44752200D02*
X21992494Y-44704580D01*
X21992494Y-44704580D02*
X21944875Y-44609342D01*
X21944875Y-44609342D02*
X21944875Y-44323628D01*
X21944875Y-44323628D02*
X21992494Y-44228390D01*
X21992494Y-44228390D02*
X22040113Y-44180771D01*
X22040113Y-44180771D02*
X22135351Y-44133152D01*
X22135351Y-44133152D02*
X22278208Y-44133152D01*
X22278208Y-44133152D02*
X22373446Y-44180771D01*
X22373446Y-44180771D02*
X22421065Y-44228390D01*
X22421065Y-44228390D02*
X22468684Y-44323628D01*
X22468684Y-44323628D02*
X22468684Y-44609342D01*
X22468684Y-44609342D02*
X22421065Y-44704580D01*
X22421065Y-44704580D02*
X22373446Y-44752200D01*
X22373446Y-44752200D02*
X22278208Y-44799819D01*
X22278208Y-44799819D02*
X22135351Y-44799819D01*
X22897256Y-44133152D02*
X22897256Y-44799819D01*
X22897256Y-44228390D02*
X22944875Y-44180771D01*
X22944875Y-44180771D02*
X23040113Y-44133152D01*
X23040113Y-44133152D02*
X23182970Y-44133152D01*
X23182970Y-44133152D02*
X23278208Y-44180771D01*
X23278208Y-44180771D02*
X23325827Y-44276009D01*
X23325827Y-44276009D02*
X23325827Y-44799819D01*
X19743152Y-95083220D02*
X20743152Y-95083220D01*
X19790771Y-95083220D02*
X19743152Y-94987982D01*
X19743152Y-94987982D02*
X19743152Y-94797506D01*
X19743152Y-94797506D02*
X19790771Y-94702268D01*
X19790771Y-94702268D02*
X19838390Y-94654649D01*
X19838390Y-94654649D02*
X19933628Y-94607030D01*
X19933628Y-94607030D02*
X20219342Y-94607030D01*
X20219342Y-94607030D02*
X20314580Y-94654649D01*
X20314580Y-94654649D02*
X20362200Y-94702268D01*
X20362200Y-94702268D02*
X20409819Y-94797506D01*
X20409819Y-94797506D02*
X20409819Y-94987982D01*
X20409819Y-94987982D02*
X20362200Y-95083220D01*
X20409819Y-94035601D02*
X20362200Y-94130839D01*
X20362200Y-94130839D02*
X20314580Y-94178458D01*
X20314580Y-94178458D02*
X20219342Y-94226077D01*
X20219342Y-94226077D02*
X19933628Y-94226077D01*
X19933628Y-94226077D02*
X19838390Y-94178458D01*
X19838390Y-94178458D02*
X19790771Y-94130839D01*
X19790771Y-94130839D02*
X19743152Y-94035601D01*
X19743152Y-94035601D02*
X19743152Y-93892744D01*
X19743152Y-93892744D02*
X19790771Y-93797506D01*
X19790771Y-93797506D02*
X19838390Y-93749887D01*
X19838390Y-93749887D02*
X19933628Y-93702268D01*
X19933628Y-93702268D02*
X20219342Y-93702268D01*
X20219342Y-93702268D02*
X20314580Y-93749887D01*
X20314580Y-93749887D02*
X20362200Y-93797506D01*
X20362200Y-93797506D02*
X20409819Y-93892744D01*
X20409819Y-93892744D02*
X20409819Y-94035601D01*
X19743152Y-93416553D02*
X19743152Y-93035601D01*
X19409819Y-93273696D02*
X20266961Y-93273696D01*
X20266961Y-93273696D02*
X20362200Y-93226077D01*
X20362200Y-93226077D02*
X20409819Y-93130839D01*
X20409819Y-93130839D02*
X20409819Y-93035601D01*
X19409819Y-91749886D02*
X19409819Y-91654648D01*
X19409819Y-91654648D02*
X19457438Y-91559410D01*
X19457438Y-91559410D02*
X19505057Y-91511791D01*
X19505057Y-91511791D02*
X19600295Y-91464172D01*
X19600295Y-91464172D02*
X19790771Y-91416553D01*
X19790771Y-91416553D02*
X20028866Y-91416553D01*
X20028866Y-91416553D02*
X20219342Y-91464172D01*
X20219342Y-91464172D02*
X20314580Y-91511791D01*
X20314580Y-91511791D02*
X20362200Y-91559410D01*
X20362200Y-91559410D02*
X20409819Y-91654648D01*
X20409819Y-91654648D02*
X20409819Y-91749886D01*
X20409819Y-91749886D02*
X20362200Y-91845124D01*
X20362200Y-91845124D02*
X20314580Y-91892743D01*
X20314580Y-91892743D02*
X20219342Y-91940362D01*
X20219342Y-91940362D02*
X20028866Y-91987981D01*
X20028866Y-91987981D02*
X19790771Y-91987981D01*
X19790771Y-91987981D02*
X19600295Y-91940362D01*
X19600295Y-91940362D02*
X19505057Y-91892743D01*
X19505057Y-91892743D02*
X19457438Y-91845124D01*
X19457438Y-91845124D02*
X19409819Y-91749886D01*
X19473152Y-39473220D02*
X20473152Y-39473220D01*
X19520771Y-39473220D02*
X19473152Y-39377982D01*
X19473152Y-39377982D02*
X19473152Y-39187506D01*
X19473152Y-39187506D02*
X19520771Y-39092268D01*
X19520771Y-39092268D02*
X19568390Y-39044649D01*
X19568390Y-39044649D02*
X19663628Y-38997030D01*
X19663628Y-38997030D02*
X19949342Y-38997030D01*
X19949342Y-38997030D02*
X20044580Y-39044649D01*
X20044580Y-39044649D02*
X20092200Y-39092268D01*
X20092200Y-39092268D02*
X20139819Y-39187506D01*
X20139819Y-39187506D02*
X20139819Y-39377982D01*
X20139819Y-39377982D02*
X20092200Y-39473220D01*
X20139819Y-38425601D02*
X20092200Y-38520839D01*
X20092200Y-38520839D02*
X20044580Y-38568458D01*
X20044580Y-38568458D02*
X19949342Y-38616077D01*
X19949342Y-38616077D02*
X19663628Y-38616077D01*
X19663628Y-38616077D02*
X19568390Y-38568458D01*
X19568390Y-38568458D02*
X19520771Y-38520839D01*
X19520771Y-38520839D02*
X19473152Y-38425601D01*
X19473152Y-38425601D02*
X19473152Y-38282744D01*
X19473152Y-38282744D02*
X19520771Y-38187506D01*
X19520771Y-38187506D02*
X19568390Y-38139887D01*
X19568390Y-38139887D02*
X19663628Y-38092268D01*
X19663628Y-38092268D02*
X19949342Y-38092268D01*
X19949342Y-38092268D02*
X20044580Y-38139887D01*
X20044580Y-38139887D02*
X20092200Y-38187506D01*
X20092200Y-38187506D02*
X20139819Y-38282744D01*
X20139819Y-38282744D02*
X20139819Y-38425601D01*
X19473152Y-37806553D02*
X19473152Y-37425601D01*
X19139819Y-37663696D02*
X19996961Y-37663696D01*
X19996961Y-37663696D02*
X20092200Y-37616077D01*
X20092200Y-37616077D02*
X20139819Y-37520839D01*
X20139819Y-37520839D02*
X20139819Y-37425601D01*
X20139819Y-35806553D02*
X20139819Y-36377981D01*
X20139819Y-36092267D02*
X19139819Y-36092267D01*
X19139819Y-36092267D02*
X19282676Y-36187505D01*
X19282676Y-36187505D02*
X19377914Y-36282743D01*
X19377914Y-36282743D02*
X19425533Y-36377981D01*
D10*
X23580000Y-50620000D02*
X24490000Y-49650000D01*
X23580000Y-49930000D02*
X23580000Y-50620000D01*
X24070000Y-49200000D02*
X23580000Y-49930000D01*
X24630000Y-48500000D02*
X24070000Y-49200000D01*
X24180000Y-48050000D02*
X24630000Y-48500000D01*
X23970000Y-47110000D02*
X24180000Y-48050000D01*
X24450000Y-46590000D02*
X23970000Y-47110000D01*
X25220000Y-46590000D02*
X24450000Y-46590000D01*
X25460000Y-47810000D02*
X25220000Y-46590000D01*
X25150000Y-51490000D02*
X25110000Y-50620000D01*
X25910000Y-51600000D02*
X25150000Y-51490000D01*
X26120000Y-50730000D02*
X25910000Y-51600000D01*
X25880000Y-49370000D02*
X26120000Y-50730000D01*
X26680000Y-49370000D02*
X25880000Y-49370000D01*
X27130000Y-49200000D02*
X26680000Y-49370000D01*
X27100000Y-48190000D02*
X27130000Y-49200000D01*
X26230000Y-48150000D02*
X27100000Y-48190000D01*
X24380000Y-50690000D02*
X25810000Y-47950000D01*
X24940000Y-55430000D02*
X24940000Y-54620000D01*
X24630000Y-55670000D02*
X24940000Y-55430000D01*
X24320000Y-55120000D02*
X24630000Y-55670000D01*
X24320000Y-54400000D02*
X24320000Y-55120000D01*
X24350000Y-53690000D02*
X24320000Y-54400000D01*
X23890000Y-53910000D02*
X24350000Y-53690000D01*
X23400000Y-53580000D02*
X23890000Y-53910000D01*
X23400000Y-52850000D02*
X23400000Y-53580000D01*
X23650000Y-52550000D02*
X23400000Y-52850000D01*
X24240000Y-52920000D02*
X23650000Y-52550000D01*
X25680000Y-54490000D02*
X25300000Y-54020000D01*
X26020000Y-54460000D02*
X25680000Y-54490000D01*
X26020000Y-53450000D02*
X26020000Y-54460000D01*
X25300000Y-53320000D02*
X26020000Y-53450000D01*
X25650000Y-52470000D02*
X25300000Y-53320000D01*
X25650000Y-51970000D02*
X25650000Y-52470000D01*
X25140000Y-51910000D02*
X25650000Y-51970000D01*
X24760000Y-52470000D02*
X25140000Y-51910000D01*
X25210000Y-54680000D02*
X24360000Y-52570000D01*
X27020000Y-58180000D02*
X27760000Y-58020000D01*
X26680000Y-58620000D02*
X27020000Y-58180000D01*
X27270000Y-58970000D02*
X26680000Y-58620000D01*
X27990000Y-58970000D02*
X27270000Y-58970000D01*
X28630000Y-57920000D02*
X27990000Y-58970000D01*
X29110000Y-58290000D02*
X28630000Y-57920000D01*
X29680000Y-58290000D02*
X29110000Y-58290000D01*
X30050000Y-58080000D02*
X29680000Y-58290000D01*
X30020000Y-57650000D02*
X30050000Y-58080000D01*
X29400000Y-57620000D02*
X30020000Y-57650000D01*
X26170000Y-57250000D02*
X26990000Y-57510000D01*
X26130000Y-56590000D02*
X26170000Y-57250000D01*
X26590000Y-56320000D02*
X26130000Y-56590000D01*
X27300000Y-56430000D02*
X26590000Y-56320000D01*
X28270000Y-57150000D02*
X27300000Y-56430000D01*
X28510000Y-56940000D02*
X28270000Y-57150000D01*
X29030000Y-56340000D02*
X28510000Y-56940000D01*
X29560000Y-56390000D02*
X29030000Y-56340000D01*
X29280000Y-57050000D02*
X29560000Y-56390000D01*
X27250000Y-57860000D02*
X29430000Y-57350000D01*
X35280000Y-54780000D02*
X35500000Y-54130000D01*
X35980000Y-54780000D02*
X35280000Y-54780000D01*
X36300000Y-54300000D02*
X35980000Y-54780000D01*
X36320000Y-53740000D02*
X36300000Y-54300000D01*
X37130000Y-54150000D02*
X36320000Y-53740000D01*
X37550000Y-54150000D02*
X37130000Y-54150000D01*
X37550000Y-53510000D02*
X37550000Y-54150000D01*
X37000000Y-53300000D02*
X37550000Y-53510000D01*
X35540000Y-53400000D02*
X35690000Y-53410000D01*
X34790000Y-53400000D02*
X35540000Y-53400000D01*
X34650000Y-52850000D02*
X34790000Y-53400000D01*
X34900000Y-52360000D02*
X34650000Y-52850000D01*
X35620000Y-52490000D02*
X34900000Y-52360000D01*
X36180000Y-52880000D02*
X35620000Y-52490000D01*
X36090000Y-52130000D02*
X36180000Y-52880000D01*
X36090000Y-51880000D02*
X36090000Y-52130000D01*
X36490000Y-51790000D02*
X36090000Y-51880000D01*
X37020000Y-51960000D02*
X36490000Y-51790000D01*
X36900000Y-52710000D02*
X37020000Y-51960000D01*
X35480000Y-53870000D02*
X37000000Y-52980000D01*
X35600000Y-51600000D02*
X36000000Y-50810000D01*
X35430000Y-51600000D02*
X35600000Y-51600000D01*
X35430000Y-50630000D02*
X35430000Y-51600000D01*
X35880000Y-49600000D02*
X35430000Y-50630000D01*
X35600000Y-49630000D02*
X35880000Y-49600000D01*
X35300000Y-48540000D02*
X35600000Y-49630000D01*
X35640000Y-48230000D02*
X35300000Y-48540000D01*
X36130000Y-48730000D02*
X35640000Y-48230000D01*
X37040000Y-51160000D02*
X36620000Y-50650000D01*
X37380000Y-51010000D02*
X37040000Y-51160000D01*
X37220000Y-50110000D02*
X37380000Y-51010000D01*
X36790000Y-49600000D02*
X37220000Y-50110000D01*
X37580000Y-49440000D02*
X36790000Y-49600000D01*
X37580000Y-48780000D02*
X37580000Y-49440000D01*
X37380000Y-48290000D02*
X37580000Y-48780000D01*
X36790000Y-48710000D02*
X37380000Y-48290000D01*
X36320000Y-50920000D02*
X36410000Y-48610000D01*
X32710000Y-56820000D02*
X33140000Y-56420000D01*
X32550000Y-56800000D02*
X32710000Y-56820000D01*
X32550000Y-56290000D02*
X32550000Y-56800000D01*
X32880000Y-55890000D02*
X32550000Y-56290000D01*
X33270000Y-55660000D02*
X32880000Y-55890000D01*
X33230000Y-54890000D02*
X33270000Y-55660000D01*
X33390000Y-54810000D02*
X33230000Y-54890000D01*
X33590000Y-55510000D02*
X33390000Y-54810000D01*
X33710000Y-57270000D02*
X33710000Y-56870000D01*
X34120000Y-57230000D02*
X33710000Y-57270000D01*
X34140000Y-56590000D02*
X34120000Y-57230000D01*
X33880000Y-56120000D02*
X34140000Y-56590000D01*
X34290000Y-56100000D02*
X33880000Y-56120000D01*
X34670000Y-55800000D02*
X34290000Y-56100000D01*
X34670000Y-55310000D02*
X34670000Y-55800000D01*
X34350000Y-55310000D02*
X34670000Y-55310000D01*
X33900000Y-55700000D02*
X34350000Y-55310000D01*
X33630000Y-55950000D02*
X33820000Y-55420000D01*
X33370000Y-57040000D02*
X33630000Y-55950000D01*
X55900000Y-25170000D02*
X56940000Y-24690000D01*
X57190000Y-25460000D02*
X55900000Y-25170000D01*
X57190000Y-26450000D02*
X57190000Y-25460000D01*
X57780000Y-25510000D02*
X57190000Y-26450000D01*
X58740000Y-26270000D02*
X57780000Y-25510000D01*
X58220000Y-25170000D02*
X58740000Y-26270000D01*
X58910000Y-24210000D02*
X58220000Y-25170000D01*
X57840000Y-24600000D02*
X58910000Y-24210000D01*
X57320000Y-23360000D02*
X57840000Y-24600000D01*
X57030000Y-24680000D02*
X57320000Y-23360000D01*
X28530000Y-23010000D02*
X27940000Y-22750000D01*
X27920000Y-23040000D02*
X28530000Y-23010000D01*
X27420000Y-23420000D02*
X27920000Y-23040000D01*
X27420000Y-23890000D02*
X27420000Y-23420000D01*
X28350000Y-23860000D02*
X27420000Y-23890000D01*
X29940000Y-23210000D02*
X28350000Y-23860000D01*
X29180000Y-22160000D02*
X29940000Y-23210000D01*
X28770000Y-21600000D02*
X29180000Y-22160000D01*
X28240000Y-21020000D02*
X28770000Y-21600000D01*
X27770000Y-21020000D02*
X28240000Y-21020000D01*
X27500000Y-21220000D02*
X27770000Y-21020000D01*
X27500000Y-21840000D02*
X27500000Y-21220000D01*
X28000000Y-22720000D02*
X27500000Y-21840000D01*
X29830000Y-25570000D02*
X30030000Y-26220000D01*
X29600000Y-25170000D02*
X29830000Y-25570000D01*
X29400000Y-24910000D02*
X29600000Y-25170000D01*
X29110000Y-24860000D02*
X29400000Y-24910000D01*
X28810000Y-24850000D02*
X29110000Y-24860000D01*
X28150000Y-24950000D02*
X28810000Y-24850000D01*
X27800000Y-25430000D02*
X28150000Y-24950000D01*
X28940000Y-25220000D02*
X29520000Y-25410000D01*
X28360000Y-25220000D02*
X28940000Y-25220000D01*
X28070000Y-25580000D02*
X28360000Y-25220000D01*
D11*
X50906779Y-105349875D02*
X50906779Y-104683208D01*
X50906779Y-104778446D02*
X50954398Y-104730827D01*
X50954398Y-104730827D02*
X51049636Y-104683208D01*
X51049636Y-104683208D02*
X51192493Y-104683208D01*
X51192493Y-104683208D02*
X51287731Y-104730827D01*
X51287731Y-104730827D02*
X51335350Y-104826065D01*
X51335350Y-104826065D02*
X51335350Y-105349875D01*
X51335350Y-104826065D02*
X51382969Y-104730827D01*
X51382969Y-104730827D02*
X51478207Y-104683208D01*
X51478207Y-104683208D02*
X51621064Y-104683208D01*
X51621064Y-104683208D02*
X51716303Y-104730827D01*
X51716303Y-104730827D02*
X51763922Y-104826065D01*
X51763922Y-104826065D02*
X51763922Y-105349875D01*
X52668683Y-105349875D02*
X52668683Y-104826065D01*
X52668683Y-104826065D02*
X52621064Y-104730827D01*
X52621064Y-104730827D02*
X52525826Y-104683208D01*
X52525826Y-104683208D02*
X52335350Y-104683208D01*
X52335350Y-104683208D02*
X52240112Y-104730827D01*
X52668683Y-105302256D02*
X52573445Y-105349875D01*
X52573445Y-105349875D02*
X52335350Y-105349875D01*
X52335350Y-105349875D02*
X52240112Y-105302256D01*
X52240112Y-105302256D02*
X52192493Y-105207017D01*
X52192493Y-105207017D02*
X52192493Y-105111779D01*
X52192493Y-105111779D02*
X52240112Y-105016541D01*
X52240112Y-105016541D02*
X52335350Y-104968922D01*
X52335350Y-104968922D02*
X52573445Y-104968922D01*
X52573445Y-104968922D02*
X52668683Y-104921303D01*
X53097255Y-105302256D02*
X53192493Y-105349875D01*
X53192493Y-105349875D02*
X53382969Y-105349875D01*
X53382969Y-105349875D02*
X53478207Y-105302256D01*
X53478207Y-105302256D02*
X53525826Y-105207017D01*
X53525826Y-105207017D02*
X53525826Y-105159398D01*
X53525826Y-105159398D02*
X53478207Y-105064160D01*
X53478207Y-105064160D02*
X53382969Y-105016541D01*
X53382969Y-105016541D02*
X53240112Y-105016541D01*
X53240112Y-105016541D02*
X53144874Y-104968922D01*
X53144874Y-104968922D02*
X53097255Y-104873684D01*
X53097255Y-104873684D02*
X53097255Y-104826065D01*
X53097255Y-104826065D02*
X53144874Y-104730827D01*
X53144874Y-104730827D02*
X53240112Y-104683208D01*
X53240112Y-104683208D02*
X53382969Y-104683208D01*
X53382969Y-104683208D02*
X53478207Y-104730827D01*
X54097255Y-105349875D02*
X54002017Y-105302256D01*
X54002017Y-105302256D02*
X53954398Y-105254636D01*
X53954398Y-105254636D02*
X53906779Y-105159398D01*
X53906779Y-105159398D02*
X53906779Y-104873684D01*
X53906779Y-104873684D02*
X53954398Y-104778446D01*
X53954398Y-104778446D02*
X54002017Y-104730827D01*
X54002017Y-104730827D02*
X54097255Y-104683208D01*
X54097255Y-104683208D02*
X54240112Y-104683208D01*
X54240112Y-104683208D02*
X54335350Y-104730827D01*
X54335350Y-104730827D02*
X54382969Y-104778446D01*
X54382969Y-104778446D02*
X54430588Y-104873684D01*
X54430588Y-104873684D02*
X54430588Y-105159398D01*
X54430588Y-105159398D02*
X54382969Y-105254636D01*
X54382969Y-105254636D02*
X54335350Y-105302256D01*
X54335350Y-105302256D02*
X54240112Y-105349875D01*
X54240112Y-105349875D02*
X54097255Y-105349875D01*
X54859160Y-104683208D02*
X54859160Y-105349875D01*
X54859160Y-104778446D02*
X54906779Y-104730827D01*
X54906779Y-104730827D02*
X55002017Y-104683208D01*
X55002017Y-104683208D02*
X55144874Y-104683208D01*
X55144874Y-104683208D02*
X55240112Y-104730827D01*
X55240112Y-104730827D02*
X55287731Y-104826065D01*
X55287731Y-104826065D02*
X55287731Y-105349875D01*
X50906779Y-106959819D02*
X50906779Y-106293152D01*
X50906779Y-106388390D02*
X50954398Y-106340771D01*
X50954398Y-106340771D02*
X51049636Y-106293152D01*
X51049636Y-106293152D02*
X51192493Y-106293152D01*
X51192493Y-106293152D02*
X51287731Y-106340771D01*
X51287731Y-106340771D02*
X51335350Y-106436009D01*
X51335350Y-106436009D02*
X51335350Y-106959819D01*
X51335350Y-106436009D02*
X51382969Y-106340771D01*
X51382969Y-106340771D02*
X51478207Y-106293152D01*
X51478207Y-106293152D02*
X51621064Y-106293152D01*
X51621064Y-106293152D02*
X51716303Y-106340771D01*
X51716303Y-106340771D02*
X51763922Y-106436009D01*
X51763922Y-106436009D02*
X51763922Y-106959819D01*
X52668683Y-106959819D02*
X52668683Y-106436009D01*
X52668683Y-106436009D02*
X52621064Y-106340771D01*
X52621064Y-106340771D02*
X52525826Y-106293152D01*
X52525826Y-106293152D02*
X52335350Y-106293152D01*
X52335350Y-106293152D02*
X52240112Y-106340771D01*
X52668683Y-106912200D02*
X52573445Y-106959819D01*
X52573445Y-106959819D02*
X52335350Y-106959819D01*
X52335350Y-106959819D02*
X52240112Y-106912200D01*
X52240112Y-106912200D02*
X52192493Y-106816961D01*
X52192493Y-106816961D02*
X52192493Y-106721723D01*
X52192493Y-106721723D02*
X52240112Y-106626485D01*
X52240112Y-106626485D02*
X52335350Y-106578866D01*
X52335350Y-106578866D02*
X52573445Y-106578866D01*
X52573445Y-106578866D02*
X52668683Y-106531247D01*
X53144874Y-106293152D02*
X53144874Y-106959819D01*
X53144874Y-106388390D02*
X53192493Y-106340771D01*
X53192493Y-106340771D02*
X53287731Y-106293152D01*
X53287731Y-106293152D02*
X53430588Y-106293152D01*
X53430588Y-106293152D02*
X53525826Y-106340771D01*
X53525826Y-106340771D02*
X53573445Y-106436009D01*
X53573445Y-106436009D02*
X53573445Y-106959819D01*
X54049636Y-106293152D02*
X54049636Y-106959819D01*
X54049636Y-106388390D02*
X54097255Y-106340771D01*
X54097255Y-106340771D02*
X54192493Y-106293152D01*
X54192493Y-106293152D02*
X54335350Y-106293152D01*
X54335350Y-106293152D02*
X54430588Y-106340771D01*
X54430588Y-106340771D02*
X54478207Y-106436009D01*
X54478207Y-106436009D02*
X54478207Y-106959819D01*
X55668684Y-106055057D02*
X55716303Y-106007438D01*
X55716303Y-106007438D02*
X55811541Y-105959819D01*
X55811541Y-105959819D02*
X56049636Y-105959819D01*
X56049636Y-105959819D02*
X56144874Y-106007438D01*
X56144874Y-106007438D02*
X56192493Y-106055057D01*
X56192493Y-106055057D02*
X56240112Y-106150295D01*
X56240112Y-106150295D02*
X56240112Y-106245533D01*
X56240112Y-106245533D02*
X56192493Y-106388390D01*
X56192493Y-106388390D02*
X55621065Y-106959819D01*
X55621065Y-106959819D02*
X56240112Y-106959819D01*
X56859160Y-105959819D02*
X56954398Y-105959819D01*
X56954398Y-105959819D02*
X57049636Y-106007438D01*
X57049636Y-106007438D02*
X57097255Y-106055057D01*
X57097255Y-106055057D02*
X57144874Y-106150295D01*
X57144874Y-106150295D02*
X57192493Y-106340771D01*
X57192493Y-106340771D02*
X57192493Y-106578866D01*
X57192493Y-106578866D02*
X57144874Y-106769342D01*
X57144874Y-106769342D02*
X57097255Y-106864580D01*
X57097255Y-106864580D02*
X57049636Y-106912200D01*
X57049636Y-106912200D02*
X56954398Y-106959819D01*
X56954398Y-106959819D02*
X56859160Y-106959819D01*
X56859160Y-106959819D02*
X56763922Y-106912200D01*
X56763922Y-106912200D02*
X56716303Y-106864580D01*
X56716303Y-106864580D02*
X56668684Y-106769342D01*
X56668684Y-106769342D02*
X56621065Y-106578866D01*
X56621065Y-106578866D02*
X56621065Y-106340771D01*
X56621065Y-106340771D02*
X56668684Y-106150295D01*
X56668684Y-106150295D02*
X56716303Y-106055057D01*
X56716303Y-106055057D02*
X56763922Y-106007438D01*
X56763922Y-106007438D02*
X56859160Y-105959819D01*
X57573446Y-106055057D02*
X57621065Y-106007438D01*
X57621065Y-106007438D02*
X57716303Y-105959819D01*
X57716303Y-105959819D02*
X57954398Y-105959819D01*
X57954398Y-105959819D02*
X58049636Y-106007438D01*
X58049636Y-106007438D02*
X58097255Y-106055057D01*
X58097255Y-106055057D02*
X58144874Y-106150295D01*
X58144874Y-106150295D02*
X58144874Y-106245533D01*
X58144874Y-106245533D02*
X58097255Y-106388390D01*
X58097255Y-106388390D02*
X57525827Y-106959819D01*
X57525827Y-106959819D02*
X58144874Y-106959819D01*
X59002017Y-106293152D02*
X59002017Y-106959819D01*
X58763922Y-105912200D02*
X58525827Y-106626485D01*
X58525827Y-106626485D02*
X59144874Y-106626485D01*
D10*
X28601234Y-25598008D02*
X28091235Y-25598012D01*
X29511236Y-25418008D02*
X29511237Y-25798009D01*
X29511237Y-25798009D02*
X28491236Y-25598011D01*
X27671237Y-25838007D02*
X27801236Y-25468008D01*
X30021235Y-26218010D02*
X27671236Y-25928006D01*
X27291235Y-27788008D02*
X27631235Y-28038009D01*
X27631235Y-28038009D02*
X27721236Y-27858008D01*
X27721236Y-27858008D02*
X27581238Y-27078011D01*
X27581238Y-27078011D02*
X27741237Y-26908010D01*
X27741237Y-26908010D02*
X28251238Y-26928009D01*
X28251238Y-26928009D02*
X28311238Y-27528004D01*
X28311238Y-27528004D02*
X28711237Y-27548007D01*
X28711237Y-27548007D02*
X29311236Y-26988008D01*
X29311236Y-26988008D02*
X29451237Y-27328009D01*
X29451237Y-27328009D02*
X29421238Y-27968010D01*
X29421238Y-27968010D02*
X29801236Y-28078010D01*
X29801236Y-28078010D02*
X29981236Y-27278012D01*
X29981236Y-27278012D02*
X29601238Y-26548006D01*
X29601238Y-26548006D02*
X29021237Y-26548009D01*
X29021237Y-26548009D02*
X28601235Y-27078007D01*
X28601235Y-27078007D02*
X28651238Y-26708005D01*
X28651238Y-26708005D02*
X28311237Y-26488004D01*
X28311237Y-26488004D02*
X27651237Y-26528007D01*
X27651237Y-26528007D02*
X27141236Y-26708010D01*
X27141236Y-26708010D02*
X27181236Y-27788011D01*
X27541239Y-30248010D02*
X27541236Y-29858008D01*
X27541236Y-29858008D02*
X28251239Y-29608009D01*
X28251239Y-29608009D02*
X27651237Y-29428009D01*
X27651237Y-29428009D02*
X27741236Y-28878007D01*
X27741236Y-28878007D02*
X29291236Y-29788012D01*
X29291236Y-29788012D02*
X27471237Y-30228008D01*
X27621238Y-31598009D02*
X27421238Y-31538010D01*
X27421238Y-31538010D02*
X27411234Y-30618012D01*
X27411234Y-30618012D02*
X27771238Y-30618008D01*
X27771238Y-30618008D02*
X27791239Y-31318007D01*
X27791239Y-31318007D02*
X28291235Y-31318012D01*
X28291235Y-31318012D02*
X28291238Y-30748009D01*
X28291238Y-30748009D02*
X28621235Y-30748009D01*
X28621235Y-30748009D02*
X28601238Y-31488009D01*
X28601238Y-31488009D02*
X28971237Y-31498008D01*
X28971237Y-31498008D02*
X28971238Y-30738009D01*
X28971238Y-30738009D02*
X29351236Y-30738009D01*
X29351236Y-30738009D02*
X29291237Y-32098010D01*
X29291237Y-32098010D02*
X27591238Y-31668008D01*
X27591236Y-33228012D02*
X27841237Y-33228011D01*
X27841237Y-33228011D02*
X27891237Y-32968008D01*
X27891237Y-32968008D02*
X27861237Y-32468007D01*
X27861237Y-32468007D02*
X27571236Y-32448009D01*
X27571236Y-32448009D02*
X27221239Y-32598009D01*
X27221239Y-32598009D02*
X27511235Y-33228009D01*
X27121237Y-33608008D02*
X27091237Y-33078009D01*
X27091237Y-33078009D02*
X26821236Y-32398006D01*
X26821236Y-32398006D02*
X27321238Y-32148009D01*
X27321238Y-32148009D02*
X27921238Y-32098007D01*
X27921238Y-32098007D02*
X28221236Y-32278010D01*
X28221236Y-32278010D02*
X28241236Y-32848008D01*
X28241236Y-32848008D02*
X29171236Y-32448008D01*
X29171236Y-32448008D02*
X29101238Y-32868008D01*
X29101238Y-32868008D02*
X28141237Y-33328008D01*
X28141237Y-33328008D02*
X29101238Y-33508007D01*
X29101238Y-33508007D02*
X29121237Y-34078008D01*
X29121237Y-34078008D02*
X27101238Y-33698006D01*
X26631234Y-35798009D02*
X26771238Y-35888010D01*
X26771238Y-35888010D02*
X26981239Y-36208007D01*
X26981239Y-36208007D02*
X26981237Y-36998010D01*
X26981237Y-36998010D02*
X25921236Y-36738008D01*
X25921236Y-36738008D02*
X25841238Y-36118007D01*
X25841238Y-36118007D02*
X26631235Y-35858010D01*
X28791238Y-37618010D02*
X29121237Y-37668010D01*
X29121237Y-37668010D02*
X29001236Y-36938008D01*
X29001236Y-36938008D02*
X27331236Y-36588009D01*
X27331236Y-36588009D02*
X27331237Y-36008007D01*
X27331237Y-36008007D02*
X26831238Y-35448009D01*
X26831238Y-35448009D02*
X25461235Y-35918011D01*
X25461235Y-35918011D02*
X25811236Y-37148008D01*
X25811236Y-37148008D02*
X28681237Y-37618011D01*
X26671237Y-38808009D02*
X26851236Y-38908007D01*
X26851236Y-38908007D02*
X26811237Y-38488008D01*
X26811237Y-38488008D02*
X26121238Y-38668009D01*
X26121238Y-38668009D02*
X26671237Y-38808009D01*
X28311236Y-39638006D02*
X28311235Y-39218011D01*
X28311235Y-39218011D02*
X27261236Y-38768006D01*
X27261236Y-38768006D02*
X27261239Y-38598008D01*
X27261239Y-38598008D02*
X28381236Y-38458010D01*
X28381236Y-38458010D02*
X28381234Y-37938007D01*
X28381234Y-37938007D02*
X24941237Y-38598009D01*
X24941237Y-38598009D02*
X28271237Y-39668008D01*
X25151238Y-42558007D02*
X28171235Y-42588009D01*
X28171235Y-42588009D02*
X28311234Y-40298007D01*
X28311234Y-40298007D02*
X27791236Y-39918009D01*
X27791236Y-39918009D02*
X27821237Y-41968010D01*
X27821237Y-41968010D02*
X26991234Y-41968008D01*
X26991234Y-41968008D02*
X26811237Y-40958008D01*
X26811237Y-40958008D02*
X26571237Y-40958010D01*
X26571237Y-40958010D02*
X26471236Y-42068010D01*
X26471236Y-42068010D02*
X25741237Y-42068009D01*
X25741237Y-42068009D02*
X25531235Y-40128010D01*
X25531235Y-40128010D02*
X25041238Y-40128007D01*
X25041238Y-40128007D02*
X24941235Y-42588011D01*
X29071238Y-47308011D02*
X28861237Y-46618009D01*
X28861237Y-46618009D02*
X25251238Y-45788008D01*
X25251238Y-45788008D02*
X27131237Y-45058010D01*
X27131237Y-45058010D02*
X27401236Y-44708008D01*
X27401236Y-44708008D02*
X25951236Y-43668011D01*
X25951236Y-43668011D02*
X28621238Y-43458009D01*
X28621238Y-43458009D02*
X28621238Y-43108007D01*
X28621238Y-43108007D02*
X24141237Y-43288009D01*
X24141237Y-43288009D02*
X26641236Y-44848006D01*
X26641236Y-44848006D02*
X23831235Y-45928009D01*
X23831235Y-45928009D02*
X29111236Y-47308008D01*
X29410000Y-114360000D02*
X30030000Y-113530000D01*
X45960000Y-25670000D02*
X45770000Y-25830000D01*
X44260000Y-25970000D02*
X44070000Y-26240000D01*
X27800000Y-109650000D02*
X28850000Y-108940000D01*
X31900000Y-20470000D02*
X31660000Y-20860000D01*
X21740000Y-19420000D02*
X21390000Y-19350000D01*
X35090000Y-26460000D02*
X35170000Y-26270000D01*
X34050000Y-25980000D02*
X34010000Y-26370000D01*
X21650000Y-25580000D02*
X21810000Y-25490000D01*
X45770000Y-25830000D02*
X45770000Y-26180000D01*
X33650000Y-25840000D02*
X33890000Y-25860000D01*
X33420000Y-20620000D02*
X33520000Y-19920000D01*
X44640000Y-19500000D02*
X44650000Y-19440000D01*
X43760000Y-18940000D02*
X43760000Y-19410000D01*
X32010000Y-16480000D02*
X32010000Y-17200000D01*
X33400000Y-25900000D02*
X33540000Y-26650000D01*
X31030000Y-17200000D02*
X32920000Y-17200000D01*
X44650000Y-19440000D02*
X44710000Y-19500000D01*
X22460000Y-20900000D02*
X22460000Y-20640000D01*
X32850000Y-20740000D02*
X32870000Y-19840000D01*
X44690000Y-19850000D02*
X44710000Y-20670000D01*
X33300000Y-26650000D02*
X33130000Y-25940000D01*
X43480000Y-17600000D02*
X43820000Y-17600000D01*
X21810000Y-25490000D02*
X21920000Y-25230000D01*
X31500000Y-25870000D02*
X31870000Y-26370000D01*
X45060000Y-20280000D02*
X45080000Y-19160000D01*
X21370000Y-20900000D02*
X22460000Y-20900000D01*
X19930000Y-17290000D02*
X19140000Y-17290000D01*
X32310000Y-19450000D02*
X32460000Y-19530000D01*
X21920000Y-25230000D02*
X21850000Y-25080000D01*
X46360000Y-26020000D02*
X46480000Y-26200000D01*
X43510000Y-26130000D02*
X43850000Y-26240000D01*
X45510000Y-25680000D02*
X45710000Y-25680000D01*
X42960000Y-25010000D02*
X42920000Y-25570000D01*
X45520000Y-30740000D02*
X45300000Y-30670000D01*
X34850000Y-26460000D02*
X35090000Y-26460000D01*
X42820000Y-26790000D02*
X42640000Y-26580000D01*
X22570000Y-26860000D02*
X21920000Y-25990000D01*
X21610000Y-25360000D02*
X21650000Y-25580000D01*
X21610000Y-24770000D02*
X21310000Y-25030000D01*
X21630000Y-26900000D02*
X21630000Y-26100000D01*
X19500000Y-16930000D02*
X18760000Y-16930000D01*
X33850000Y-19900000D02*
X34220000Y-20290000D01*
X44470000Y-20350000D02*
X44450000Y-20690000D01*
X34640000Y-26100000D02*
X35020000Y-25980000D01*
X43760000Y-19410000D02*
X44260000Y-19720000D01*
X31700000Y-24900000D02*
X31350000Y-24640000D01*
X34960000Y-25730000D02*
X34740000Y-25730000D01*
X28290000Y-107590000D02*
X29150000Y-110250000D01*
X44690000Y-25880000D02*
X44760000Y-26470000D01*
X31080000Y-25850000D02*
X31500000Y-25870000D01*
X42920000Y-25570000D02*
X43510000Y-26130000D01*
X21630000Y-26100000D02*
X22130000Y-26840000D01*
X43580000Y-24580000D02*
X43230000Y-24650000D01*
X29690000Y-114920000D02*
X29840000Y-115650000D01*
X21280000Y-25080000D02*
X21280000Y-26930000D01*
X21920000Y-25990000D02*
X22440000Y-25290000D01*
X18760000Y-16930000D02*
X20190000Y-16940000D01*
X32320000Y-26100000D02*
X32170000Y-26450000D01*
X33420000Y-25890000D02*
X33650000Y-25840000D01*
X21280000Y-26930000D02*
X21630000Y-26900000D01*
X32990000Y-26790000D02*
X33180000Y-26830000D01*
X31920000Y-17830000D02*
X32220000Y-17830000D01*
X44450000Y-20690000D02*
X43800000Y-20970000D01*
X31350000Y-24640000D02*
X31070000Y-24890000D01*
X34630000Y-26070000D02*
X34690000Y-26270000D01*
X44070000Y-26240000D02*
X44070000Y-26620000D01*
X42530000Y-17010000D02*
X44650000Y-17010000D01*
X27500000Y-108020000D02*
X28180000Y-107370000D01*
X21740000Y-20620000D02*
X21740000Y-19420000D01*
X31720000Y-19300000D02*
X31270000Y-19690000D01*
X31870000Y-26370000D02*
X31740000Y-26830000D01*
X45920000Y-19570000D02*
X46420000Y-18980000D01*
X29150000Y-110250000D02*
X30410000Y-115260000D01*
X21370000Y-19330000D02*
X21370000Y-20900000D01*
X31270000Y-19690000D02*
X31530000Y-20120000D01*
X30920000Y-25440000D02*
X31080000Y-25850000D01*
X34010000Y-26370000D02*
X34150000Y-26530000D01*
X32470000Y-17430000D02*
X31480000Y-17430000D01*
X44520000Y-26440000D02*
X44520000Y-26060000D01*
X34150000Y-26530000D02*
X34470000Y-26550000D01*
X31660000Y-20860000D02*
X31160000Y-20780000D01*
X44260000Y-19720000D02*
X44470000Y-20350000D01*
X32870000Y-19840000D02*
X33420000Y-20620000D01*
X34690000Y-26270000D02*
X34850000Y-26460000D01*
X34240000Y-25870000D02*
X34050000Y-25980000D01*
X29860000Y-114750000D02*
X30240000Y-114490000D01*
X35020000Y-25980000D02*
X34960000Y-25730000D01*
X34740000Y-25730000D02*
X34640000Y-25880000D01*
X31440000Y-27270000D02*
X31010000Y-27150000D01*
X28340000Y-107635000D02*
X28020000Y-107105000D01*
X31740000Y-26830000D02*
X31440000Y-27270000D01*
X33180000Y-26830000D02*
X33300000Y-26650000D01*
X46530000Y-20350000D02*
X45920000Y-19570000D01*
X45490000Y-20110000D02*
X45620000Y-19180000D01*
X32170000Y-26450000D02*
X32170000Y-26980000D01*
X28980000Y-113530000D02*
X29730000Y-112580000D01*
X44250000Y-18770000D02*
X43760000Y-18940000D01*
X46610000Y-26200000D02*
X46790000Y-26060000D01*
X29790000Y-115050000D02*
X29860000Y-114750000D01*
X44010000Y-24820000D02*
X43580000Y-24580000D01*
X33830000Y-19200000D02*
X33870000Y-20550000D01*
X28270000Y-110500000D02*
X28980000Y-109880000D01*
X19500000Y-16400000D02*
X19500000Y-16930000D01*
X32730000Y-26500000D02*
X32370000Y-26060000D01*
X44380000Y-26640000D02*
X44520000Y-26440000D01*
X28870000Y-112560000D02*
X29580000Y-111880000D01*
X32170000Y-26980000D02*
X32530000Y-27000000D01*
X46480000Y-26200000D02*
X46610000Y-26200000D01*
X32010000Y-17200000D02*
X31030000Y-17200000D01*
X44760000Y-26470000D02*
X44990000Y-26470000D01*
X46360000Y-25870000D02*
X46730000Y-25800000D01*
X45290000Y-25760000D02*
X45380000Y-26390000D01*
X28460000Y-111530000D02*
X29390000Y-110720000D01*
X44180000Y-17300000D02*
X43040000Y-17300000D01*
X21810000Y-25050000D02*
X21610000Y-25360000D01*
X32780000Y-26050000D02*
X32990000Y-26790000D01*
X43590000Y-16480000D02*
X43610000Y-17010000D01*
X22460000Y-20640000D02*
X21740000Y-20620000D01*
X43230000Y-24650000D02*
X42960000Y-25010000D01*
X32530000Y-27000000D02*
X32730000Y-26500000D01*
X43470000Y-26960000D02*
X42820000Y-26790000D01*
X22110000Y-24840000D02*
X21610000Y-24770000D01*
X19690000Y-17590000D02*
X19460000Y-17590000D01*
X31530000Y-20120000D02*
X31900000Y-20470000D01*
X46720000Y-25560000D02*
X46440000Y-25560000D01*
X34640000Y-25880000D02*
X34630000Y-26070000D01*
X27610000Y-108830000D02*
X28460000Y-108270000D01*
X43610000Y-17010000D02*
X42530000Y-17010000D01*
X32390000Y-19940000D02*
X32390000Y-20660000D01*
X45090000Y-26080000D02*
X45040000Y-25840000D01*
X33910000Y-19920000D02*
X34240000Y-19320000D01*
X43850000Y-26240000D02*
X43840000Y-26760000D01*
X45770000Y-26180000D02*
X46110000Y-26250000D01*
X45080000Y-19160000D02*
X45490000Y-20110000D01*
X46440000Y-25560000D02*
X46390000Y-25690000D01*
X44520000Y-26060000D02*
X44300000Y-25960000D01*
X44990000Y-26470000D02*
X45090000Y-26340000D01*
X46730000Y-25800000D02*
X46720000Y-25560000D01*
X22440000Y-25290000D02*
X22110000Y-24840000D01*
X44070000Y-26620000D02*
X44380000Y-26640000D01*
X45900000Y-18890000D02*
X45900000Y-20500000D01*
X45300000Y-25740000D02*
X45510000Y-25680000D01*
X22130000Y-26840000D02*
X22570000Y-26860000D01*
X27310000Y-107690000D02*
X29690000Y-114920000D01*
X31070000Y-24890000D02*
X30920000Y-25440000D01*
X45090000Y-26340000D02*
X45090000Y-26080000D01*
X43840000Y-26760000D02*
X43470000Y-26960000D01*
X46390000Y-25690000D02*
X46360000Y-26020000D01*
D11*
X19269819Y-67336077D02*
X20269819Y-67002744D01*
X20269819Y-67002744D02*
X19269819Y-66669411D01*
X20269819Y-66193220D02*
X20222200Y-66288458D01*
X20222200Y-66288458D02*
X20174580Y-66336077D01*
X20174580Y-66336077D02*
X20079342Y-66383696D01*
X20079342Y-66383696D02*
X19793628Y-66383696D01*
X19793628Y-66383696D02*
X19698390Y-66336077D01*
X19698390Y-66336077D02*
X19650771Y-66288458D01*
X19650771Y-66288458D02*
X19603152Y-66193220D01*
X19603152Y-66193220D02*
X19603152Y-66050363D01*
X19603152Y-66050363D02*
X19650771Y-65955125D01*
X19650771Y-65955125D02*
X19698390Y-65907506D01*
X19698390Y-65907506D02*
X19793628Y-65859887D01*
X19793628Y-65859887D02*
X20079342Y-65859887D01*
X20079342Y-65859887D02*
X20174580Y-65907506D01*
X20174580Y-65907506D02*
X20222200Y-65955125D01*
X20222200Y-65955125D02*
X20269819Y-66050363D01*
X20269819Y-66050363D02*
X20269819Y-66193220D01*
X20269819Y-65288458D02*
X20222200Y-65383696D01*
X20222200Y-65383696D02*
X20126961Y-65431315D01*
X20126961Y-65431315D02*
X19269819Y-65431315D01*
X19603152Y-64478934D02*
X20269819Y-64478934D01*
X19603152Y-64907505D02*
X20126961Y-64907505D01*
X20126961Y-64907505D02*
X20222200Y-64859886D01*
X20222200Y-64859886D02*
X20269819Y-64764648D01*
X20269819Y-64764648D02*
X20269819Y-64621791D01*
X20269819Y-64621791D02*
X20222200Y-64526553D01*
X20222200Y-64526553D02*
X20174580Y-64478934D01*
X20269819Y-64002743D02*
X19603152Y-64002743D01*
X19698390Y-64002743D02*
X19650771Y-63955124D01*
X19650771Y-63955124D02*
X19603152Y-63859886D01*
X19603152Y-63859886D02*
X19603152Y-63717029D01*
X19603152Y-63717029D02*
X19650771Y-63621791D01*
X19650771Y-63621791D02*
X19746009Y-63574172D01*
X19746009Y-63574172D02*
X20269819Y-63574172D01*
X19746009Y-63574172D02*
X19650771Y-63526553D01*
X19650771Y-63526553D02*
X19603152Y-63431315D01*
X19603152Y-63431315D02*
X19603152Y-63288458D01*
X19603152Y-63288458D02*
X19650771Y-63193219D01*
X19650771Y-63193219D02*
X19746009Y-63145600D01*
X19746009Y-63145600D02*
X20269819Y-63145600D01*
X20222200Y-62288458D02*
X20269819Y-62383696D01*
X20269819Y-62383696D02*
X20269819Y-62574172D01*
X20269819Y-62574172D02*
X20222200Y-62669410D01*
X20222200Y-62669410D02*
X20126961Y-62717029D01*
X20126961Y-62717029D02*
X19746009Y-62717029D01*
X19746009Y-62717029D02*
X19650771Y-62669410D01*
X19650771Y-62669410D02*
X19603152Y-62574172D01*
X19603152Y-62574172D02*
X19603152Y-62383696D01*
X19603152Y-62383696D02*
X19650771Y-62288458D01*
X19650771Y-62288458D02*
X19746009Y-62240839D01*
X19746009Y-62240839D02*
X19841247Y-62240839D01*
X19841247Y-62240839D02*
X19936485Y-62717029D01*
D10*
X34640000Y-96560000D02*
X32690000Y-96560000D01*
X34640000Y-96560000D02*
X36590000Y-96560000D01*
X34640000Y-101680000D02*
X32690000Y-101680000D01*
X34640000Y-101680000D02*
X36590000Y-101680000D01*
X31940000Y-96655000D02*
X31700000Y-96325000D01*
X32180000Y-96325000D01*
X31940000Y-96655000D01*
G36*
X31940000Y-96655000D02*
G01*
X31700000Y-96325000D01*
X32180000Y-96325000D01*
X31940000Y-96655000D01*
G37*
X29989419Y-58627741D02*
X30213510Y-58439702D01*
X30645062Y-59409108D02*
X30869153Y-59221069D01*
X46889998Y-97231252D02*
X46890005Y-95808754D01*
X49609995Y-97231246D02*
X49610002Y-95808748D01*
X44871000Y-66350000D02*
G75*
G02*
X42369000Y-66350000I-1251000J0D01*
G01*
X42369000Y-66350000D02*
G75*
G02*
X44871000Y-66350000I1251000J0D01*
G01*
X27820729Y-61336986D02*
X27920784Y-61611875D01*
X28779216Y-60988125D02*
X28879271Y-61263014D01*
X35819999Y-59350000D02*
X35170001Y-59350002D01*
X35819999Y-59350000D02*
X36469996Y-59350001D01*
X35819999Y-62470000D02*
X35170002Y-62469999D01*
X35819999Y-62470000D02*
X36469997Y-62469998D01*
X34657500Y-59399997D02*
X34417499Y-59070000D01*
X34897500Y-59069998D01*
X34657500Y-59399997D01*
G36*
X34657500Y-59399997D02*
G01*
X34417499Y-59070000D01*
X34897500Y-59069998D01*
X34657500Y-59399997D01*
G37*
X50370000Y-50030000D02*
X50370000Y-48700000D01*
X51700000Y-50030000D02*
X50370000Y-50030000D01*
X52970000Y-47370000D02*
X58110000Y-47370000D01*
X52970000Y-50030000D02*
X52970000Y-47370000D01*
X52970000Y-50030000D02*
X58110000Y-50030000D01*
X58110000Y-50030000D02*
X58110000Y-47370000D01*
X35320003Y-45876238D02*
X35319999Y-46168771D01*
X36340005Y-45876233D02*
X36340001Y-46168766D01*
X41731000Y-70060000D02*
G75*
G02*
X39229000Y-70060000I-1251000J0D01*
G01*
X39229000Y-70060000D02*
G75*
G02*
X41731000Y-70060000I1251000J0D01*
G01*
X34189998Y-37645002D02*
X35519998Y-37645002D01*
X34189998Y-38975002D02*
X34189998Y-37645002D01*
X34189998Y-40245002D02*
X34189998Y-42845002D01*
X34189998Y-40245002D02*
X36849998Y-40245002D01*
X34189998Y-42845002D02*
X36849998Y-42845002D01*
X36849998Y-40245002D02*
X36849998Y-42845002D01*
X40207500Y-21129726D02*
X40207503Y-20620278D01*
X41252499Y-21129728D02*
X41252502Y-20620280D01*
X46219356Y-102655301D02*
X45656442Y-102330302D01*
X46219356Y-102655301D02*
X46782270Y-102980298D01*
X47779354Y-99953303D02*
X47216440Y-99628306D01*
X47779354Y-99953303D02*
X48342268Y-100278302D01*
X47120448Y-99249564D02*
X46747602Y-99415351D01*
X46704754Y-99009565D01*
X47120448Y-99249564D01*
G36*
X47120448Y-99249564D02*
G01*
X46747602Y-99415351D01*
X46704754Y-99009565D01*
X47120448Y-99249564D01*
G37*
X29569998Y-100018732D02*
X29569997Y-100311263D01*
X30589999Y-100018733D02*
X30589998Y-100311264D01*
X39470000Y-50030000D02*
X39470000Y-48700000D01*
X40800000Y-50030000D02*
X39470000Y-50030000D01*
X42070000Y-47370000D02*
X47210000Y-47370000D01*
X42070000Y-50030000D02*
X42070000Y-47370000D01*
X42070000Y-50030000D02*
X47210000Y-50030000D01*
X47210000Y-50030000D02*
X47210000Y-47370000D01*
X50187499Y-97474723D02*
X50187502Y-96965275D01*
X51232498Y-97474725D02*
X51232501Y-96965277D01*
X32359997Y-38599725D02*
X32359998Y-38925282D01*
X33379998Y-38599722D02*
X33379999Y-38925279D01*
X39470000Y-56430000D02*
X39470000Y-55100000D01*
X40800000Y-56430000D02*
X39470000Y-56430000D01*
X42070000Y-53770000D02*
X47210000Y-53770000D01*
X42070000Y-56430000D02*
X42070000Y-53770000D01*
X42070000Y-56430000D02*
X47210000Y-56430000D01*
X47210000Y-56430000D02*
X47210000Y-53770000D01*
X42180000Y-16210000D02*
X44080000Y-16210000D01*
X42180000Y-30450000D02*
X42180000Y-16210000D01*
X44080000Y-16210000D02*
X50320000Y-16210000D01*
X50320000Y-16210000D02*
X50620000Y-16210000D01*
X50620000Y-16210000D02*
X50620000Y-30450000D01*
X50620000Y-30450000D02*
X42180000Y-30450000D01*
X38759998Y-100323766D02*
X38759999Y-100031233D01*
X39779999Y-100323765D02*
X39780000Y-100031232D01*
X50370000Y-56430000D02*
X50370000Y-55100000D01*
X51700000Y-56430000D02*
X50370000Y-56430000D01*
X52970000Y-53770000D02*
X58110000Y-53770000D01*
X52970000Y-56430000D02*
X52970000Y-53770000D01*
X52970000Y-56430000D02*
X58110000Y-56430000D01*
X58110000Y-56430000D02*
X58110000Y-53770000D01*
X53890000Y-28330000D02*
X55220000Y-28330000D01*
X53890000Y-29660000D02*
X53890000Y-28330000D01*
X53890000Y-30930000D02*
X53890000Y-38610000D01*
X53890000Y-30930000D02*
X56490000Y-30930000D01*
X53890000Y-38610000D02*
X59090000Y-38610000D01*
X56490000Y-28330000D02*
X59090000Y-28330000D01*
X56490000Y-30930000D02*
X56490000Y-28330000D01*
X59090000Y-28330000D02*
X59090000Y-38610000D01*
X53601000Y-80200000D02*
G75*
G02*
X51099000Y-80200000I-1251000J0D01*
G01*
X51099000Y-80200000D02*
G75*
G02*
X53601000Y-80200000I1251000J0D01*
G01*
X39470000Y-43630000D02*
X39470000Y-42300000D01*
X40800000Y-43630000D02*
X39470000Y-43630000D01*
X42070000Y-40970000D02*
X47210000Y-40970000D01*
X42070000Y-43630000D02*
X42070000Y-40970000D01*
X42070000Y-43630000D02*
X47210000Y-43630000D01*
X47210000Y-43630000D02*
X47210000Y-40970000D01*
X45351000Y-70290000D02*
G75*
G02*
X42849000Y-70290000I-1251000J0D01*
G01*
X42849000Y-70290000D02*
G75*
G02*
X45351000Y-70290000I1251000J0D01*
G01*
X56571000Y-81070000D02*
G75*
G02*
X54069000Y-81070000I-1251000J0D01*
G01*
X54069000Y-81070000D02*
G75*
G02*
X56571000Y-81070000I1251000J0D01*
G01*
X21360001Y-67540000D02*
X21360000Y-62400002D01*
X24019998Y-67539999D02*
X21360001Y-67540000D01*
X24019998Y-67539999D02*
X24020000Y-62400000D01*
X24019999Y-68810000D02*
X24020002Y-70139999D01*
X24020000Y-62400000D02*
X21360000Y-62400002D01*
X24020002Y-70139999D02*
X22690000Y-70139999D01*
X30829998Y-38436234D02*
X30829999Y-38728767D01*
X31849999Y-38436235D02*
X31850000Y-38728768D01*
X35941231Y-56360001D02*
X36233760Y-56360002D01*
X35941234Y-57380000D02*
X36233763Y-57380001D01*
X48006000Y-66350000D02*
G75*
G02*
X45504000Y-66350000I-1251000J0D01*
G01*
X45504000Y-66350000D02*
G75*
G02*
X48006000Y-66350000I1251000J0D01*
G01*
X58800001Y-76819997D02*
X57469999Y-76819997D01*
X58799998Y-75489998D02*
X58800001Y-76819997D01*
X58799997Y-74219997D02*
X58800001Y-66539999D01*
X58799997Y-74219997D02*
X56199999Y-74219998D01*
X58800001Y-66539999D02*
X53599996Y-66539996D01*
X56199999Y-76819997D02*
X53599999Y-76819998D01*
X56199999Y-74219998D02*
X56199999Y-76819997D01*
X53599999Y-76819998D02*
X53599996Y-66539996D01*
X29238029Y-69176930D02*
X29628289Y-68849465D01*
X29909741Y-69977447D02*
X30300001Y-69649982D01*
X39885001Y-34959998D02*
X39884999Y-33009999D01*
X39885001Y-34959998D02*
X39884999Y-36909999D01*
X50004997Y-34959998D02*
X50004999Y-33009997D01*
X50004997Y-34959998D02*
X50004999Y-36909997D01*
X39939999Y-37659999D02*
X39609998Y-37899997D01*
X39610000Y-37419998D01*
X39939999Y-37659999D01*
G36*
X39939999Y-37659999D02*
G01*
X39609998Y-37899997D01*
X39610000Y-37419998D01*
X39939999Y-37659999D01*
G37*
X36870003Y-45883740D02*
X36869999Y-46176273D01*
X37890005Y-45883735D02*
X37890001Y-46176268D01*
X32060001Y-31130000D02*
X32060001Y-36330000D01*
X32060001Y-36330000D02*
X37360001Y-36330000D01*
X33710001Y-31130000D02*
X32060001Y-31130000D01*
X37360000Y-31129999D02*
X35710003Y-31129999D01*
X37360001Y-36330000D02*
X37360000Y-31129999D01*
X35710003Y-31129999D02*
G75*
G02*
X33709999Y-31130000I-1000002J-1D01*
G01*
X26419998Y-64893767D02*
X26419999Y-64601236D01*
X27439999Y-64893762D02*
X27440000Y-64601231D01*
X40147498Y-25522224D02*
X40147501Y-25012776D01*
X41192497Y-25522226D02*
X41192500Y-25012778D01*
X21431000Y-73670000D02*
G75*
G02*
X18929000Y-73670000I-1251000J0D01*
G01*
X18929000Y-73670000D02*
G75*
G02*
X21431000Y-73670000I1251000J0D01*
G01*
X21381000Y-77480000D02*
G75*
G02*
X18879000Y-77480000I-1251000J0D01*
G01*
X18879000Y-77480000D02*
G75*
G02*
X21381000Y-77480000I1251000J0D01*
G01*
X51551233Y-89120000D02*
X51843767Y-89120000D01*
X51551233Y-90140000D02*
X51843767Y-90140000D01*
X32379998Y-41957782D02*
X32379996Y-41632221D01*
X33400000Y-41957783D02*
X33399998Y-41632222D01*
X35938732Y-57890002D02*
X36231262Y-57890005D01*
X35938734Y-58909999D02*
X36231264Y-58910002D01*
X26097776Y-70197500D02*
X26607224Y-70197500D01*
X26097776Y-71242500D02*
X26607224Y-71242500D01*
X39470000Y-62830000D02*
X39470000Y-61500000D01*
X40800000Y-62830000D02*
X39470000Y-62830000D01*
X42070000Y-60170000D02*
X47210000Y-60170000D01*
X42070000Y-62830000D02*
X42070000Y-60170000D01*
X42070000Y-62830000D02*
X47210000Y-62830000D01*
X47210000Y-62830000D02*
X47210000Y-60170000D01*
X18420000Y-79710000D02*
X19750000Y-79710000D01*
X18420000Y-81040000D02*
X18420000Y-79710000D01*
X18420000Y-82310000D02*
X18420000Y-87450000D01*
X18420000Y-82310000D02*
X21080000Y-82310000D01*
X18420000Y-87450000D02*
X21080000Y-87450000D01*
X21080000Y-82310000D02*
X21080000Y-87450000D01*
X29962499Y-52749724D02*
X29962502Y-52240276D01*
X31007498Y-52749726D02*
X31007501Y-52240278D01*
X18180000Y-16165000D02*
X20080000Y-16165000D01*
X18180000Y-30405000D02*
X18180000Y-16165000D01*
X20080000Y-16165000D02*
X26320000Y-16165000D01*
X26320000Y-16165000D02*
X26620000Y-16165000D01*
X26620000Y-16165000D02*
X26620000Y-30405000D01*
X26620000Y-30405000D02*
X18180000Y-30405000D01*
X29631001Y-73080000D02*
G75*
G02*
X27128999Y-73080000I-1251001J0D01*
G01*
X27128999Y-73080000D02*
G75*
G02*
X29631001Y-73080000I1251001J0D01*
G01*
X30939997Y-74100002D02*
X31939997Y-74100002D01*
X30939997Y-75000002D02*
X30939997Y-74100002D01*
X30939997Y-92950002D02*
X30939997Y-93600002D01*
X30939997Y-93600002D02*
X31939997Y-93600002D01*
X31089997Y-74250002D02*
X32439997Y-74250002D01*
X31089997Y-75000002D02*
X31089997Y-74250002D01*
X31089997Y-93450002D02*
X31089997Y-92950002D01*
X31089997Y-93450002D02*
X49089997Y-93450002D01*
X49089997Y-74250002D02*
X47789997Y-74250002D01*
X49089997Y-75100002D02*
X49089997Y-74250002D01*
X49089997Y-93450002D02*
X49089997Y-92950002D01*
X49239997Y-74100002D02*
X48239997Y-74100002D01*
X49239997Y-74100002D02*
X49239997Y-75100002D01*
X49289997Y-93600002D02*
X48189997Y-93600002D01*
X46637502Y-107119999D02*
X48637502Y-107119996D01*
X46637504Y-109340000D02*
X48637504Y-109339997D01*
X46397502Y-107219999D02*
X46117506Y-107219995D01*
X46397499Y-106939997D01*
X46397502Y-107219999D01*
G36*
X46397502Y-107219999D02*
G01*
X46117506Y-107219995D01*
X46397499Y-106939997D01*
X46397502Y-107219999D01*
G37*
X30618313Y-66816676D02*
X30907565Y-67161402D01*
X30963031Y-66527422D02*
X30618313Y-66816676D01*
X32688087Y-69283342D02*
X32398833Y-68938624D01*
X32740253Y-65036154D02*
X33084979Y-64746902D01*
X33032813Y-68994090D02*
X32688087Y-69283342D01*
X33084979Y-64746902D02*
X33374233Y-65091620D01*
X34810035Y-67502822D02*
X34924939Y-67406401D01*
X34865501Y-66868842D02*
X35000483Y-67029714D01*
X35550723Y-67312091D02*
X35183022Y-67620629D01*
X35154753Y-67213568D01*
X35550723Y-67312091D01*
G36*
X35550723Y-67312091D02*
G01*
X35183022Y-67620629D01*
X35154753Y-67213568D01*
X35550723Y-67312091D01*
G37*
X54391000Y-83660000D02*
G75*
G02*
X51889000Y-83660000I-1251000J0D01*
G01*
X51889000Y-83660000D02*
G75*
G02*
X54391000Y-83660000I1251000J0D01*
G01*
X51141000Y-66350000D02*
G75*
G02*
X48639000Y-66350000I-1251000J0D01*
G01*
X48639000Y-66350000D02*
G75*
G02*
X51141000Y-66350000I1251000J0D01*
G01*
X31533764Y-54450002D02*
X31241230Y-54450001D01*
X31533768Y-55470003D02*
X31241234Y-55470002D01*
X27339998Y-51099995D02*
X29339998Y-51099998D01*
X27340000Y-53899998D02*
X27339998Y-51099995D01*
X29339998Y-51099998D02*
X29340000Y-53900001D01*
X29340000Y-53900001D02*
X27340000Y-53899998D01*
X17802500Y-101690000D02*
X17802500Y-100640000D01*
X18002500Y-100840000D02*
X20302500Y-100840000D01*
X18002500Y-115540000D02*
X18002500Y-100840000D01*
X18852500Y-100640000D02*
X17802500Y-100640000D01*
X25102500Y-100840000D02*
X27202500Y-100840000D01*
X27202500Y-100840000D02*
X27202500Y-102240000D01*
X27202500Y-107240000D02*
X27202500Y-115540000D01*
X27202500Y-115540000D02*
X18002500Y-115540000D01*
X49616025Y-103474036D02*
X49897963Y-103636815D01*
X50126027Y-102590685D02*
X50407965Y-102753464D01*
X29492777Y-49447499D02*
X30002225Y-49447499D01*
X29492777Y-50492499D02*
X30002225Y-50492499D01*
X51609998Y-96670000D02*
X58009998Y-96670000D01*
X51610001Y-95469999D02*
X51609998Y-96670000D01*
X51610002Y-92670000D02*
X51610002Y-93869998D01*
X58009998Y-96670000D02*
X58009998Y-95470002D01*
X58009999Y-93870001D02*
X58010002Y-92670000D01*
X58010002Y-92670000D02*
X51610002Y-92670000D01*
X26880000Y-85850000D02*
X28210000Y-85850000D01*
X26880000Y-87180000D02*
X26880000Y-85850000D01*
X26880000Y-88450000D02*
X26880000Y-93590000D01*
X26880000Y-88450000D02*
X29540000Y-88450000D01*
X26880000Y-93590000D02*
X29540000Y-93590000D01*
X29540000Y-88450000D02*
X29540000Y-93590000D01*
X24839996Y-61006266D02*
X24840003Y-60713737D01*
X25859997Y-61006263D02*
X25860004Y-60713734D01*
X18169999Y-33250001D02*
X18170000Y-31850000D01*
X18869999Y-31150001D02*
X19470001Y-31149999D01*
X19470001Y-33949999D02*
X18869999Y-33950001D01*
X20170001Y-31849999D02*
X20170000Y-33250000D01*
X18170000Y-31850000D02*
G75*
G02*
X18869999Y-31150000I700000J0D01*
G01*
X18869999Y-33950001D02*
G75*
G02*
X18169999Y-33250001I3J700003D01*
G01*
X19470001Y-31149999D02*
G75*
G02*
X20170001Y-31849999I-1J-700001D01*
G01*
X20170000Y-33250000D02*
G75*
G02*
X19470001Y-33949999I-700003J4D01*
G01*
X29582502Y-76137777D02*
X29582498Y-76647223D01*
X28537502Y-76137771D02*
X28537498Y-76647217D01*
X36846263Y-95074998D02*
X36553729Y-95074997D01*
X36846267Y-96094999D02*
X36553733Y-96094998D01*
X24820003Y-33379998D02*
X24820000Y-31979996D01*
X25519999Y-31279998D02*
X26120004Y-31280001D01*
X26120003Y-34079998D02*
X25519998Y-34079995D01*
X26819999Y-31979998D02*
X26820002Y-33380000D01*
X24820000Y-31979996D02*
G75*
G02*
X25519999Y-31279997I700001J-2D01*
G01*
X25519998Y-34079995D02*
G75*
G02*
X24820003Y-33379998I1J699996D01*
G01*
X26120004Y-31280001D02*
G75*
G02*
X26819998Y-31979998I-3J-699997D01*
G01*
X26820002Y-33380000D02*
G75*
G02*
X26120003Y-34079998I-700004J6D01*
G01*
X50370000Y-62830000D02*
X50370000Y-61500000D01*
X51700000Y-62830000D02*
X50370000Y-62830000D01*
X52970000Y-60170000D02*
X58110000Y-60170000D01*
X52970000Y-62830000D02*
X52970000Y-60170000D01*
X52970000Y-62830000D02*
X58110000Y-62830000D01*
X58110000Y-62830000D02*
X58110000Y-60170000D01*
X50370000Y-43630000D02*
X50370000Y-42300000D01*
X51700000Y-43630000D02*
X50370000Y-43630000D01*
X52970000Y-40970000D02*
X58110000Y-40970000D01*
X52970000Y-43630000D02*
X52970000Y-40970000D01*
X52970000Y-43630000D02*
X58110000Y-43630000D01*
X58110000Y-43630000D02*
X58110000Y-40970000D01*
X28852498Y-96597227D02*
X28852502Y-96087781D01*
X27807496Y-96597217D02*
X27807500Y-96087771D01*
X27868124Y-67340781D02*
X28143013Y-67240735D01*
X28216987Y-68299265D02*
X28491876Y-68199219D01*
X36143733Y-62949997D02*
X36436266Y-62950001D01*
X36143734Y-63969999D02*
X36436267Y-63970003D01*
X50239998Y-91996234D02*
X50239999Y-92288767D01*
X51259999Y-91996235D02*
X51260000Y-92288768D01*
X31504999Y-52641268D02*
X31505000Y-52348735D01*
X32525000Y-52641267D02*
X32525001Y-52348734D01*
X27865486Y-55667653D02*
X27577397Y-55616852D01*
X28042603Y-54663148D02*
X27754514Y-54612347D01*
X39510000Y-19147500D02*
X39510000Y-16487499D01*
X39510000Y-19147500D02*
X41210002Y-19147499D01*
X41210002Y-19147499D02*
X41210001Y-16487500D01*
X17779999Y-52540002D02*
X17780000Y-53540001D01*
X17780000Y-53540001D02*
X18280000Y-53040000D01*
X18280000Y-53040000D02*
X17779999Y-52540002D01*
X18479999Y-55449999D02*
X18480000Y-46630001D01*
X18480000Y-46630001D02*
X18789999Y-46630000D01*
X18789999Y-55450001D02*
X18479999Y-55449999D01*
X23000000Y-46629999D02*
X22690000Y-46630000D01*
X23000000Y-46629999D02*
X23000000Y-55450001D01*
X23000000Y-55450001D02*
X22690000Y-55449998D01*
X44125192Y-99781669D02*
X44271459Y-99528332D01*
X45008541Y-100291668D02*
X45154808Y-100038331D01*
X47482775Y-106682498D02*
X47992221Y-106682502D01*
X47482783Y-105637496D02*
X47992229Y-105637500D01*
X38924212Y-105621796D02*
G75*
G02*
X37842147Y-107615193I585493J-1608204D01*
G01*
X42511000Y-104220000D02*
G75*
G02*
X40009000Y-104220000I-1251000J0D01*
G01*
X40009000Y-104220000D02*
G75*
G02*
X42511000Y-104220000I1251000J0D01*
G01*
X30137502Y-46607771D02*
X30137498Y-47117217D01*
X31182502Y-46607777D02*
X31182498Y-47117223D01*
X40129999Y-110332000D02*
X40579999Y-110332000D01*
X40129999Y-112182000D02*
X40129999Y-110332000D01*
X40129999Y-114732000D02*
X40129999Y-114482000D01*
X42329999Y-109782000D02*
X42329999Y-110232000D01*
X42329999Y-109782000D02*
X42779999Y-109782000D01*
X47929999Y-110332000D02*
X47479999Y-110332000D01*
X47929999Y-112182000D02*
X47929999Y-110332000D01*
X47929999Y-114732000D02*
X47929999Y-114482000D01*
X30440000Y-16200000D02*
X32340000Y-16200000D01*
X30440000Y-30440000D02*
X30440000Y-16200000D01*
X32340000Y-16200000D02*
X38580000Y-16200000D01*
X38580000Y-16200000D02*
X38880000Y-16200000D01*
X38880000Y-16200000D02*
X38880000Y-30440000D01*
X38880000Y-30440000D02*
X30440000Y-30440000D01*
X32601153Y-106230000D02*
G75*
G02*
X32541551Y-103962634I-1311153J1100000D01*
G01*
X18489996Y-59850005D02*
X18490000Y-58520001D01*
X19820001Y-59850000D02*
X18489996Y-59850005D01*
X21090000Y-57190001D02*
X23690000Y-57190000D01*
X21090003Y-59849996D02*
X21090000Y-57190001D01*
X21090003Y-59849996D02*
X23689995Y-59850000D01*
X23689995Y-59850000D02*
X23690000Y-57190000D01*
X32441231Y-95084998D02*
X32733765Y-95084998D01*
X32441231Y-96104998D02*
X32733765Y-96104998D01*
X38492219Y-103137502D02*
X37982772Y-103137497D01*
X38492222Y-102092503D02*
X37982775Y-102092498D01*
X39792497Y-96437774D02*
X39792500Y-96947222D01*
X38747498Y-96437776D02*
X38747501Y-96947224D01*
X30490847Y-60228931D02*
X30714938Y-60040892D01*
X31146490Y-61010298D02*
X31370581Y-60822259D01*
X31665000Y-47552501D02*
X31664998Y-46052500D01*
X31665000Y-47552501D02*
X31664999Y-49052500D01*
X34884998Y-47552499D02*
X34884999Y-46052500D01*
X34884998Y-47552499D02*
X34885000Y-49052500D01*
X31840000Y-49764999D02*
X31509998Y-50005001D01*
X31509999Y-49525000D01*
X31840000Y-49764999D01*
G36*
X31840000Y-49764999D02*
G01*
X31509998Y-50005001D01*
X31509999Y-49525000D01*
X31840000Y-49764999D01*
G37*
X21210003Y-40029999D02*
X21210003Y-34889999D01*
X23870003Y-34889999D02*
X21210003Y-34889999D01*
X23870003Y-40029999D02*
X21210003Y-40029999D01*
X23870003Y-40029999D02*
X23870003Y-34889999D01*
X23870003Y-41299999D02*
X23870003Y-42629999D01*
X23870003Y-42629999D02*
X22540003Y-42629999D01*
X24879995Y-68373763D02*
X24880001Y-68081235D01*
X25899997Y-68373759D02*
X25900003Y-68081231D01*
X25470000Y-81890000D02*
X25626001Y-81890000D01*
X23154001Y-81890001D02*
X23310000Y-81890001D01*
X25468607Y-78657666D02*
G75*
G02*
X25625516Y-81889999I-1078603J-1672334D01*
G01*
X25469837Y-79288872D02*
G75*
G02*
X25470001Y-81370960I-1079831J-1041129D01*
G01*
X23310001Y-81370963D02*
G75*
G02*
X23310163Y-79288870I1079997J1040962D01*
G01*
X23154483Y-81889999D02*
G75*
G02*
X23311393Y-78657664I1235522J1559999D01*
G01*
X21310000Y-94040000D02*
X21310000Y-88900000D01*
X23970000Y-88900000D02*
X21310000Y-88900000D01*
X23970000Y-94040000D02*
X21310000Y-94040000D01*
X23970000Y-94040000D02*
X23970000Y-88900000D01*
X23970000Y-95310000D02*
X23970000Y-96640000D01*
X23970000Y-96640000D02*
X22640000Y-96640000D01*
X38631000Y-70630000D02*
G75*
G02*
X36129000Y-70630000I-1251000J0D01*
G01*
X36129000Y-70630000D02*
G75*
G02*
X38631000Y-70630000I1251000J0D01*
G01*
X27381000Y-98750000D02*
G75*
G02*
X24879000Y-98750000I-1251000J0D01*
G01*
X24879000Y-98750000D02*
G75*
G02*
X27381000Y-98750000I1251000J0D01*
G01*
X33042498Y-52724723D02*
X33042501Y-52215275D01*
X34087497Y-52724725D02*
X34087500Y-52215277D01*
X51614999Y-101810000D02*
X58014998Y-101809999D01*
X51615003Y-100610001D02*
X51614999Y-101810000D01*
X51615004Y-97810001D02*
X51615005Y-99009997D01*
X58014998Y-101809999D02*
X58014997Y-100610003D01*
X58014999Y-99009999D02*
X58015003Y-97810000D01*
X58015003Y-97810000D02*
X51615004Y-97810001D01*
X30829998Y-42093770D02*
X30829999Y-41801237D01*
X31849999Y-42093769D02*
X31850000Y-41801236D01*
X29517498Y-96447776D02*
X29517501Y-96957224D01*
X30562497Y-96447774D02*
X30562500Y-96957222D01*
X25730001Y-74139999D02*
X25730000Y-73983999D01*
X25730002Y-76455998D02*
X25730002Y-76299999D01*
X22497666Y-74141392D02*
G75*
G02*
X25729998Y-73984485I1672333J-1078604D01*
G01*
X23128872Y-74140161D02*
G75*
G02*
X25210961Y-74139998I1041129J-1079834D01*
G01*
X25210964Y-76300000D02*
G75*
G02*
X23128869Y-76299839I-1040964J1080000D01*
G01*
X25729998Y-76455518D02*
G75*
G02*
X22497665Y-76298608I-1559998J1235523D01*
G01*
X34976263Y-102104998D02*
X34683729Y-102104997D01*
X34976267Y-103124999D02*
X34683733Y-103124998D01*
X24867501Y-64522777D02*
X24867497Y-65032223D01*
X25912503Y-64522783D02*
X25912499Y-65032229D01*
X37512498Y-67384725D02*
X37512501Y-66875278D01*
X36467499Y-67384722D02*
X36467502Y-66875275D01*
X39101230Y-39309997D02*
X39393760Y-39310004D01*
X39101234Y-40329998D02*
X39393764Y-40330005D01*
X39092497Y-67692226D02*
X39092500Y-67182779D01*
X38047498Y-67692223D02*
X38047501Y-67182776D01*
X40659013Y-67746525D02*
X41049274Y-68073991D01*
X41330726Y-66946009D02*
X41720987Y-67273475D01*
X24365276Y-83337500D02*
X24874724Y-83337500D01*
X24365276Y-84382500D02*
X24874724Y-84382500D01*
X53034722Y-26262502D02*
X52525275Y-26262497D01*
X53034725Y-25217503D02*
X52525278Y-25217498D01*
X40107499Y-28375277D02*
X40107502Y-28884725D01*
X41152498Y-28375275D02*
X41152501Y-28884723D01*
X31784221Y-61130142D02*
X32033613Y-60920881D01*
X32439867Y-61911509D02*
X32689259Y-61702248D01*
M02*
