G04 #@! TF.GenerationSoftware,KiCad,Pcbnew,8.0.3*
G04 #@! TF.CreationDate,2024-07-27T02:44:29-04:00*
G04 #@! TF.ProjectId,MEAP_Rev4,4d454150-5f52-4657-9634-2e6b69636164,rev?*
G04 #@! TF.SameCoordinates,Original*
G04 #@! TF.FileFunction,Copper,L2,Bot*
G04 #@! TF.FilePolarity,Positive*
%FSLAX46Y46*%
G04 Gerber Fmt 4.6, Leading zero omitted, Abs format (unit mm)*
G04 Created by KiCad (PCBNEW 8.0.3) date 2024-07-27 02:44:29*
%MOMM*%
%LPD*%
G01*
G04 APERTURE LIST*
G04 Aperture macros list*
%AMRoundRect*
0 Rectangle with rounded corners*
0 $1 Rounding radius*
0 $2 $3 $4 $5 $6 $7 $8 $9 X,Y pos of 4 corners*
0 Add a 4 corners polygon primitive as box body*
4,1,4,$2,$3,$4,$5,$6,$7,$8,$9,$2,$3,0*
0 Add four circle primitives for the rounded corners*
1,1,$1+$1,$2,$3*
1,1,$1+$1,$4,$5*
1,1,$1+$1,$6,$7*
1,1,$1+$1,$8,$9*
0 Add four rect primitives between the rounded corners*
20,1,$1+$1,$2,$3,$4,$5,0*
20,1,$1+$1,$4,$5,$6,$7,0*
20,1,$1+$1,$6,$7,$8,$9,0*
20,1,$1+$1,$8,$9,$2,$3,0*%
%AMHorizOval*
0 Thick line with rounded ends*
0 $1 width*
0 $2 $3 position (X,Y) of the first rounded end (center of the circle)*
0 $4 $5 position (X,Y) of the second rounded end (center of the circle)*
0 Add line between two ends*
20,1,$1,$2,$3,$4,$5,0*
0 Add two circle primitives to create the rounded ends*
1,1,$1,$2,$3*
1,1,$1,$4,$5*%
%AMRotRect*
0 Rectangle, with rotation*
0 The origin of the aperture is its center*
0 $1 length*
0 $2 width*
0 $3 Rotation angle, in degrees counterclockwise*
0 Add horizontal line*
21,1,$1,$2,0,0,$3*%
G04 Aperture macros list end*
G04 #@! TA.AperFunction,ComponentPad*
%ADD10C,2.000000*%
G04 #@! TD*
G04 #@! TA.AperFunction,ComponentPad*
%ADD11R,1.700000X1.700000*%
G04 #@! TD*
G04 #@! TA.AperFunction,ComponentPad*
%ADD12O,1.700000X1.700000*%
G04 #@! TD*
G04 #@! TA.AperFunction,ComponentPad*
%ADD13O,2.800000X1.800000*%
G04 #@! TD*
G04 #@! TA.AperFunction,ComponentPad*
%ADD14R,1.600000X1.600000*%
G04 #@! TD*
G04 #@! TA.AperFunction,ComponentPad*
%ADD15O,1.600000X1.600000*%
G04 #@! TD*
G04 #@! TA.AperFunction,ComponentPad*
%ADD16R,4.000000X4.000000*%
G04 #@! TD*
G04 #@! TA.AperFunction,ComponentPad*
%ADD17RoundRect,1.000000X1.000000X-1.000000X1.000000X1.000000X-1.000000X1.000000X-1.000000X-1.000000X0*%
G04 #@! TD*
G04 #@! TA.AperFunction,ComponentPad*
%ADD18O,3.500000X2.200000*%
G04 #@! TD*
G04 #@! TA.AperFunction,ComponentPad*
%ADD19R,2.500000X1.500000*%
G04 #@! TD*
G04 #@! TA.AperFunction,ComponentPad*
%ADD20O,2.500000X1.500000*%
G04 #@! TD*
G04 #@! TA.AperFunction,ComponentPad*
%ADD21RotRect,2.200000X2.200000X330.000000*%
G04 #@! TD*
G04 #@! TA.AperFunction,ComponentPad*
%ADD22HorizOval,2.200000X0.000000X0.000000X0.000000X0.000000X0*%
G04 #@! TD*
G04 #@! TA.AperFunction,ComponentPad*
%ADD23O,1.200000X1.900000*%
G04 #@! TD*
G04 #@! TA.AperFunction,ComponentPad*
%ADD24C,1.450000*%
G04 #@! TD*
G04 #@! TA.AperFunction,ComponentPad*
%ADD25R,2.200000X2.200000*%
G04 #@! TD*
G04 #@! TA.AperFunction,ComponentPad*
%ADD26O,2.200000X2.200000*%
G04 #@! TD*
G04 #@! TA.AperFunction,ComponentPad*
%ADD27R,1.800000X1.800000*%
G04 #@! TD*
G04 #@! TA.AperFunction,ComponentPad*
%ADD28C,1.800000*%
G04 #@! TD*
G04 #@! TA.AperFunction,SMDPad,CuDef*
%ADD29RoundRect,0.237500X-0.250000X-0.237500X0.250000X-0.237500X0.250000X0.237500X-0.250000X0.237500X0*%
G04 #@! TD*
G04 #@! TA.AperFunction,SMDPad,CuDef*
%ADD30RoundRect,0.237500X0.250000X0.237500X-0.250000X0.237500X-0.250000X-0.237500X0.250000X-0.237500X0*%
G04 #@! TD*
G04 #@! TA.AperFunction,SMDPad,CuDef*
%ADD31RoundRect,0.237500X0.204960X0.277304X-0.287443X0.190480X-0.204960X-0.277304X0.287443X-0.190480X0*%
G04 #@! TD*
G04 #@! TA.AperFunction,SMDPad,CuDef*
%ADD32RoundRect,0.237500X0.038849X0.342632X-0.344173X0.021239X-0.038849X-0.342632X0.344173X-0.021239X0*%
G04 #@! TD*
G04 #@! TA.AperFunction,SMDPad,CuDef*
%ADD33RoundRect,0.150000X-0.150000X0.825000X-0.150000X-0.825000X0.150000X-0.825000X0.150000X0.825000X0*%
G04 #@! TD*
G04 #@! TA.AperFunction,SMDPad,CuDef*
%ADD34RoundRect,0.237500X0.137672X-0.316153X0.308682X0.153693X-0.137672X0.316153X-0.308682X-0.153693X0*%
G04 #@! TD*
G04 #@! TA.AperFunction,ViaPad*
%ADD35C,0.800000*%
G04 #@! TD*
G04 #@! TA.AperFunction,Conductor*
%ADD36C,0.406400*%
G04 #@! TD*
G04 #@! TA.AperFunction,Conductor*
%ADD37C,0.812800*%
G04 #@! TD*
G04 #@! TA.AperFunction,Conductor*
%ADD38C,0.254000*%
G04 #@! TD*
G04 APERTURE END LIST*
D10*
X43620000Y-66350000D03*
D11*
X51700000Y-48700000D03*
D12*
X54240000Y-48700000D03*
X56780000Y-48700000D03*
D10*
X40480000Y-70060000D03*
D11*
X35519998Y-38975002D03*
D12*
X35519998Y-41515002D03*
D11*
X40800000Y-48700000D03*
D12*
X43340000Y-48700000D03*
X45880000Y-48700000D03*
D11*
X40800000Y-55100000D03*
D12*
X43340000Y-55100000D03*
X45880000Y-55100000D03*
D13*
X48300000Y-25430000D03*
X46300000Y-23630000D03*
X46300000Y-17530000D03*
X48300000Y-19930000D03*
X46300000Y-29130000D03*
D11*
X51700000Y-55100000D03*
D12*
X54240000Y-55100000D03*
X56780000Y-55100000D03*
D11*
X55220000Y-29660000D03*
D12*
X57760000Y-29660000D03*
X55220000Y-32200000D03*
X57760000Y-32200000D03*
X55220000Y-34740000D03*
X57760000Y-34740000D03*
X55220000Y-37280000D03*
X57760000Y-37280000D03*
D10*
X52350000Y-80200000D03*
D11*
X40800000Y-42300000D03*
D12*
X43340000Y-42300000D03*
X45880000Y-42300000D03*
D10*
X44100000Y-70290000D03*
X55320000Y-81070000D03*
D11*
X22690000Y-68810000D03*
D12*
X22690000Y-66270000D03*
X22689997Y-63730001D03*
D10*
X46755000Y-66350000D03*
D11*
X57469999Y-75489998D03*
D12*
X54929999Y-75489998D03*
X57469999Y-72949998D03*
X54930001Y-72949999D03*
X57469996Y-70409999D03*
X54930000Y-70410000D03*
X57469999Y-67869998D03*
X54929998Y-67869999D03*
D14*
X30900001Y-32460000D03*
D15*
X30900001Y-35000000D03*
X38520000Y-35000000D03*
X38520001Y-32460000D03*
D10*
X20180000Y-73670000D03*
X20130000Y-77480000D03*
D11*
X40800000Y-61500000D03*
D12*
X43340000Y-61500000D03*
X45880000Y-61500000D03*
D11*
X19750000Y-81040000D03*
D12*
X19750000Y-83580000D03*
X19750000Y-86120000D03*
D13*
X24300000Y-25385000D03*
X22300000Y-23585000D03*
X22300000Y-17485000D03*
X24300000Y-19885000D03*
X22300000Y-29085000D03*
D10*
X28380000Y-73080000D03*
X53140000Y-83660000D03*
X49890000Y-66350000D03*
D16*
X22602500Y-101740000D03*
D17*
X22602500Y-107740000D03*
X27302500Y-104740000D03*
D11*
X28210000Y-87180000D03*
D12*
X28210000Y-89720000D03*
X28210000Y-92260000D03*
D11*
X51700000Y-61500000D03*
D12*
X54240000Y-61500000D03*
X56780000Y-61500000D03*
D11*
X51700000Y-42300000D03*
D12*
X54240000Y-42300000D03*
X56780000Y-42300000D03*
D18*
X20740000Y-55140000D03*
X20740000Y-46940000D03*
D19*
X20740000Y-53040000D03*
D20*
X20740001Y-51039999D03*
X20740000Y-49040000D03*
D21*
X37310000Y-105960000D03*
D22*
X39509705Y-107230000D03*
D10*
X41260000Y-104220000D03*
D23*
X40529999Y-113332000D03*
D24*
X41529999Y-110632000D03*
X46529999Y-110632000D03*
D23*
X47529999Y-113332000D03*
D13*
X36560000Y-25420000D03*
X34560000Y-23620000D03*
X34560000Y-17520000D03*
X36560000Y-19920000D03*
X34560000Y-29120000D03*
D25*
X33830000Y-105130000D03*
D26*
X31290000Y-105130000D03*
D11*
X19820000Y-58520000D03*
D12*
X22360000Y-58520000D03*
D11*
X22540003Y-41299999D03*
D12*
X22540003Y-38759999D03*
X22540003Y-36219999D03*
D27*
X24390000Y-81600000D03*
D28*
X24390000Y-79060000D03*
D11*
X22640000Y-95310000D03*
D12*
X22640000Y-92770000D03*
X22640000Y-90230000D03*
D10*
X37380000Y-70630000D03*
X26130000Y-98750000D03*
D27*
X25440000Y-75220000D03*
D28*
X22900000Y-75220000D03*
D29*
X51377502Y-40170001D03*
X53202498Y-40169999D03*
D30*
X44604998Y-50500000D03*
X42780000Y-50500000D03*
D31*
X44670000Y-52180000D03*
X42872728Y-52496908D03*
D29*
X53690000Y-46540000D03*
X55514996Y-46539998D03*
D32*
X44980000Y-57730000D03*
X43581970Y-58903088D03*
D29*
X53685004Y-52940002D03*
X55510000Y-52940000D03*
D33*
X41250000Y-32484999D03*
X42519999Y-32485000D03*
X43790000Y-32485003D03*
X45059997Y-32484997D03*
X46330001Y-32484999D03*
X47600001Y-32485000D03*
X48870000Y-32484999D03*
X50139999Y-32485000D03*
X50140000Y-37435001D03*
X48870001Y-37435000D03*
X47600000Y-37434997D03*
X46330003Y-37435003D03*
X45059999Y-37435001D03*
X43789999Y-37435000D03*
X42520000Y-37435001D03*
X41250001Y-37435000D03*
D29*
X53685004Y-59350002D03*
X55510000Y-59350000D03*
D34*
X46245812Y-46194936D03*
X46870000Y-44480000D03*
D35*
X40330000Y-97220000D03*
X50990000Y-32350000D03*
X40580000Y-39676083D03*
X38390000Y-44430000D03*
X27710000Y-69080000D03*
X32640000Y-85420000D03*
X29540000Y-84560000D03*
X28370000Y-98800000D03*
X23810000Y-62420000D03*
X42160000Y-96320000D03*
X41100000Y-95550000D03*
X30490000Y-62850000D03*
X41120000Y-35450000D03*
X53280000Y-60350000D03*
X47940000Y-58260000D03*
X40470000Y-45220000D03*
X31370000Y-74320000D03*
X48830000Y-99440000D03*
X39420000Y-80050000D03*
X38340000Y-79840000D03*
X35750000Y-78560000D03*
X46400000Y-76790000D03*
X30630000Y-43870000D03*
X48790000Y-51860000D03*
X29520000Y-60630000D03*
X26480000Y-59370000D03*
X32886533Y-67015122D03*
X28140000Y-56320000D03*
X26940000Y-61380000D03*
X29020000Y-47830000D03*
X47260000Y-89680000D03*
X52790000Y-94370000D03*
X47410000Y-77220000D03*
X50270000Y-74370000D03*
X40970000Y-64270000D03*
X41940000Y-64680000D03*
X32970000Y-81520000D03*
X32790000Y-78370000D03*
X32860000Y-79470000D03*
X41760000Y-66540000D03*
X41160000Y-75930000D03*
X40090000Y-76530000D03*
X42460000Y-76150000D03*
X45650000Y-80510000D03*
X45840000Y-81990000D03*
X31820000Y-56160000D03*
X44250000Y-34130000D03*
X51910000Y-33340000D03*
D36*
X35570000Y-91770000D02*
X39527513Y-97082487D01*
X40330000Y-97220000D02*
X39527513Y-97082487D01*
X40704404Y-96425596D02*
X41920000Y-97511185D01*
X40055517Y-95090000D02*
X40210000Y-93650000D01*
X40704404Y-96425596D02*
X40055517Y-95090000D01*
X42480000Y-97590000D02*
X41920000Y-97511185D01*
X50900000Y-33970000D02*
X50990000Y-32350000D01*
X50170000Y-30750000D02*
X51530000Y-30490000D01*
X50139999Y-32485000D02*
X50170000Y-30750000D01*
X52240000Y-31750000D02*
X52660000Y-32930000D01*
X51530000Y-30490000D02*
X52240000Y-31750000D01*
X23640000Y-50180000D02*
X20740001Y-51039999D01*
X39850000Y-39930000D02*
X40580000Y-39676083D01*
X40580000Y-39676083D02*
X40654994Y-39649998D01*
X38750000Y-41130000D02*
X39850000Y-39930000D01*
X38390000Y-44430000D02*
X38670000Y-42110000D01*
X38670000Y-42110000D02*
X38750000Y-41130000D01*
X39623354Y-49846646D02*
X39197653Y-47620000D01*
X37695287Y-39100000D02*
X37730000Y-38230000D01*
X39197653Y-47620000D02*
X37310000Y-44210000D01*
X37310000Y-44210000D02*
X37695287Y-39100000D01*
X37005494Y-40480000D02*
X37051868Y-38370000D01*
X36710000Y-44360000D02*
X37005494Y-40480000D01*
X39076000Y-49920000D02*
X38610899Y-47670000D01*
X38610899Y-47670000D02*
X36710000Y-44360000D01*
X41460612Y-40410000D02*
X42503966Y-38850000D01*
X38334625Y-51630000D02*
X38630000Y-55260000D01*
X38334625Y-51630000D02*
X36599192Y-49510808D01*
X31290000Y-46040000D02*
X36599192Y-49510808D01*
X27710000Y-84330000D02*
X30770000Y-83220000D01*
X24730000Y-91450000D02*
X25870000Y-87070000D01*
X30770000Y-83220000D02*
X32970000Y-81520000D01*
X22640000Y-92770000D02*
X24730000Y-91450000D01*
X25870000Y-87070000D02*
X27710000Y-84330000D01*
X27710000Y-69080000D02*
X28240000Y-70700000D01*
X28240000Y-70700000D02*
X28380000Y-73080000D01*
X29340000Y-66040000D02*
X32790000Y-68190000D01*
X24800000Y-69968267D02*
X25270000Y-68260000D01*
X25270000Y-68260000D02*
X25820000Y-66060000D01*
X24800000Y-69968267D02*
X22030000Y-70670000D01*
X25820000Y-66060000D02*
X29340000Y-66040000D01*
X34730000Y-73000000D02*
X33925512Y-69930000D01*
X32790000Y-68190000D02*
X33925512Y-69930000D01*
D37*
X24680000Y-64988032D02*
X29550000Y-65220000D01*
X24680000Y-64988032D02*
X24320000Y-64890000D01*
X29550000Y-65220000D02*
X32886533Y-67015122D01*
D36*
X32640000Y-85420000D02*
X35570000Y-91770000D01*
X28910000Y-95140000D02*
X28370000Y-98800000D01*
X29540000Y-84560000D02*
X29640000Y-90230000D01*
X29640000Y-90230000D02*
X29640000Y-92500000D01*
X29640000Y-92500000D02*
X28910000Y-95140000D01*
D37*
X22640000Y-95310000D02*
X28210000Y-92260000D01*
X24320000Y-64890000D02*
X23810000Y-62420000D01*
X24850000Y-60910000D02*
X22870000Y-60910000D01*
X22870000Y-60910000D02*
X18340000Y-61470000D01*
X26950000Y-62770000D02*
X24850000Y-60910000D01*
X24270000Y-68531875D02*
X24320000Y-64890000D01*
X22690000Y-68810000D02*
X24270000Y-68531875D01*
X20176904Y-105330000D02*
X21238839Y-104858839D01*
X21238839Y-104858839D02*
X21980000Y-104530000D01*
X21980000Y-104530000D02*
X22602500Y-101740000D01*
X20176904Y-105330000D02*
X19830000Y-107820000D01*
X19830000Y-107820000D02*
X19830000Y-109350000D01*
X21980000Y-110720509D02*
X20400000Y-110168972D01*
X20400000Y-110168972D02*
X19830000Y-109350000D01*
X26460000Y-110498767D02*
X27870000Y-110285727D01*
X26460000Y-110498767D02*
X21980000Y-110720509D01*
X27870000Y-110285727D02*
X32000000Y-109400000D01*
X34550000Y-108500000D02*
X37780000Y-109520000D01*
X32000000Y-109400000D02*
X34550000Y-108500000D01*
X37780000Y-109520000D02*
X41529999Y-110632000D01*
D36*
X40210000Y-93650000D02*
X42235513Y-88995513D01*
X42707377Y-86680000D02*
X42880000Y-83390000D01*
X42235513Y-88995513D02*
X42707377Y-86680000D01*
X42594044Y-95694044D02*
X44451018Y-89200000D01*
X44451018Y-89200000D02*
X44759752Y-86260000D01*
X44759752Y-86260000D02*
X44530000Y-83590000D01*
X41522886Y-94962886D02*
X43685803Y-88170000D01*
X43932248Y-85460000D02*
X43930000Y-85170000D01*
X43685803Y-88170000D02*
X43932248Y-85460000D01*
X42594044Y-95694044D02*
X42160000Y-96320000D01*
X41100000Y-95550000D02*
X41522886Y-94962886D01*
X44960000Y-97623401D02*
X42480000Y-97590000D01*
X45180000Y-97700000D02*
X44960000Y-97623401D01*
D37*
X30490000Y-62850000D02*
X26950000Y-62770000D01*
X32886533Y-67015122D02*
X35237721Y-65647721D01*
X35237721Y-65647721D02*
X35870000Y-65280000D01*
D36*
X29520000Y-60630000D02*
X35237721Y-65647721D01*
D37*
X18150000Y-43760000D02*
X19470000Y-39310000D01*
X18340000Y-61470000D02*
X18150000Y-50850000D01*
X22689997Y-63730001D02*
X18340000Y-61470000D01*
X19470000Y-39310000D02*
X22540003Y-36219999D01*
X18150000Y-50850000D02*
X18150000Y-43760000D01*
D36*
X41120000Y-35450000D02*
X41250001Y-37435000D01*
X41870000Y-34720000D02*
X40410000Y-34720000D01*
X39350000Y-35920000D02*
X37980000Y-36770000D01*
X43774133Y-36360000D02*
X41870000Y-34720000D01*
X37980000Y-36770000D02*
X37730000Y-38230000D01*
X40410000Y-34720000D02*
X39350000Y-35920000D01*
X36560000Y-34230000D02*
X36520000Y-36340000D01*
X42050000Y-33980000D02*
X40660000Y-33960000D01*
X43660000Y-35549009D02*
X42050000Y-33980000D01*
X39200000Y-33780000D02*
X37910000Y-33780000D01*
X40660000Y-33960000D02*
X39200000Y-33780000D01*
X37910000Y-33780000D02*
X36560000Y-34230000D01*
X36520000Y-36340000D02*
X37051868Y-38370000D01*
X44140000Y-46850000D02*
X46245812Y-46194936D01*
X53280000Y-60350000D02*
X53685004Y-59350002D01*
X44980000Y-57730000D02*
X47940000Y-58260000D01*
X48970000Y-57900000D02*
X48150000Y-55780000D01*
X48150000Y-55780000D02*
X46922257Y-54210000D01*
X46950000Y-64006288D02*
X48380000Y-63410000D01*
X48380000Y-63410000D02*
X48970000Y-57900000D01*
X45350000Y-64059237D02*
X46950000Y-64006288D01*
X48910000Y-63810000D02*
X49190000Y-61160000D01*
X46530000Y-64686143D02*
X47240000Y-64960000D01*
X49190000Y-61160000D02*
X49470000Y-59250000D01*
X47240000Y-64960000D02*
X48910000Y-63810000D01*
X46530000Y-64686143D02*
X45540000Y-64870000D01*
X49470000Y-64260000D02*
X49650000Y-62840000D01*
X46755000Y-66350000D02*
X47760011Y-65290011D01*
X47760011Y-65290011D02*
X49470000Y-64260000D01*
X49871318Y-60090000D02*
X50160000Y-59220000D01*
X49650000Y-62840000D02*
X49871318Y-60090000D01*
X49909275Y-65190000D02*
X50400000Y-64120000D01*
X50431730Y-60410000D02*
X50521218Y-60001218D01*
X49909275Y-65190000D02*
X49890000Y-66350000D01*
X50400000Y-64120000D02*
X50431730Y-60410000D01*
X45350000Y-64059237D02*
X44940000Y-64160000D01*
X49470000Y-59250000D02*
X49710000Y-57640000D01*
X49710000Y-57640000D02*
X48930000Y-55960000D01*
X48930000Y-55960000D02*
X47550000Y-54100000D01*
D37*
X52010000Y-59130000D02*
X52130000Y-57370000D01*
X51700000Y-61500000D02*
X52010000Y-59130000D01*
X52130000Y-57370000D02*
X51700000Y-55100000D01*
D36*
X50040000Y-56590000D02*
X48810000Y-54710000D01*
X50160000Y-59220000D02*
X50490000Y-58050000D01*
X47751460Y-53468540D02*
X47370000Y-53060000D01*
X50490000Y-58050000D02*
X50040000Y-56590000D01*
X48810000Y-54710000D02*
X47751460Y-53468540D01*
X50521218Y-60001218D02*
X50780000Y-59520000D01*
X50630000Y-56470000D02*
X49650000Y-54830000D01*
X50780000Y-59520000D02*
X51170000Y-57840000D01*
X51170000Y-57840000D02*
X50630000Y-56470000D01*
X49650000Y-54830000D02*
X48737006Y-53630000D01*
X46886315Y-40423685D02*
X44650000Y-41120000D01*
X47330000Y-41330000D02*
X46886315Y-40423685D01*
X46886315Y-40423685D02*
X46155084Y-38930000D01*
X44650000Y-41120000D02*
X43340000Y-42300000D01*
X45350000Y-45100000D02*
X42500000Y-43830000D01*
X41990000Y-42900000D02*
X42170000Y-41590000D01*
X42500000Y-43830000D02*
X41990000Y-42900000D01*
X42740000Y-41060000D02*
X44170000Y-40370000D01*
X42170000Y-41590000D02*
X42740000Y-41060000D01*
X45680000Y-38480000D02*
X45527273Y-39040000D01*
X44170000Y-40370000D02*
X45527273Y-39040000D01*
X47500000Y-42820000D02*
X47330000Y-41330000D01*
X46870000Y-44480000D02*
X47500000Y-42820000D01*
X46155084Y-38930000D02*
X46330003Y-37435003D01*
X41847500Y-45700494D02*
X40470000Y-45220000D01*
X41710000Y-47330000D02*
X39890000Y-47360000D01*
X39890000Y-47360000D02*
X39610000Y-43400000D01*
X42074033Y-47635967D02*
X41710000Y-47330000D01*
X43340000Y-48700000D02*
X42074033Y-47635967D01*
X44940000Y-64160000D02*
X43190000Y-64615709D01*
X42312379Y-65560000D02*
X42549330Y-65189330D01*
X43190000Y-64615709D02*
X42549330Y-65189330D01*
X45540000Y-64870000D02*
X43620000Y-66350000D01*
X44670000Y-52180000D02*
X44595000Y-52980000D01*
X44670000Y-52180000D02*
X44604998Y-50500000D01*
X42780000Y-50500000D02*
X43340000Y-48700000D01*
X44480000Y-47680000D02*
X44710000Y-49500000D01*
X44710000Y-49500000D02*
X44604998Y-50500000D01*
X41847500Y-45700494D02*
X44140000Y-46850000D01*
X44140000Y-46850000D02*
X44480000Y-47680000D01*
X39070000Y-83270000D02*
X36450000Y-81340000D01*
X34750000Y-78550000D02*
X34290000Y-76110000D01*
X48830000Y-99440000D02*
X45180000Y-97700000D01*
X36450000Y-81340000D02*
X34750000Y-78550000D01*
X42880000Y-83390000D02*
X39070000Y-83270000D01*
X34290000Y-76110000D02*
X31370000Y-74320000D01*
X39420000Y-80050000D02*
X39540000Y-79010000D01*
X38340000Y-79840000D02*
X38580000Y-78970000D01*
X22030000Y-70670000D02*
X20930000Y-70180000D01*
X35750000Y-78560000D02*
X34730000Y-73000000D01*
X20930000Y-68490000D02*
X21420000Y-66040000D01*
X20930000Y-70180000D02*
X20930000Y-68490000D01*
X21420000Y-66040000D02*
X22690000Y-66270000D01*
X43230000Y-82520000D02*
X39620000Y-82520000D01*
X36770000Y-80110000D02*
X35130000Y-70310000D01*
X44040313Y-78090313D02*
X46400000Y-76790000D01*
X44040313Y-78090313D02*
X43140000Y-80130000D01*
X39620000Y-82520000D02*
X37730000Y-81500000D01*
X37730000Y-81500000D02*
X36770000Y-80110000D01*
X43140000Y-80130000D02*
X43230000Y-82520000D01*
X40660000Y-63500000D02*
X39660000Y-64550000D01*
X42150000Y-60890000D02*
X42190000Y-62810000D01*
X38780000Y-68700000D02*
X36230000Y-69090000D01*
X36230000Y-69090000D02*
X35130000Y-70310000D01*
X39180000Y-57020000D02*
X42120000Y-59040000D01*
X39660000Y-64550000D02*
X38780000Y-68700000D01*
X42120000Y-59040000D02*
X42150000Y-60890000D01*
X28720000Y-43380000D02*
X31290000Y-46040000D01*
X42190000Y-62810000D02*
X40660000Y-63500000D01*
X38630000Y-55260000D02*
X39180000Y-57020000D01*
X22540003Y-38759999D02*
X28720000Y-43380000D01*
X30630000Y-43870000D02*
X27160000Y-40160000D01*
X27160000Y-40160000D02*
X22540003Y-36219999D01*
X42973457Y-52439016D02*
X40104206Y-50635794D01*
X43340000Y-55100000D02*
X42973457Y-52439016D01*
D37*
X51700000Y-48700000D02*
X48790000Y-51860000D01*
D36*
X48737006Y-53630000D02*
X47950000Y-52890000D01*
X47950000Y-52890000D02*
X47600000Y-52250000D01*
X47600000Y-52250000D02*
X47620000Y-51450000D01*
X47620000Y-51450000D02*
X49070000Y-49030000D01*
X47370000Y-53060000D02*
X47060000Y-52750000D01*
X47060000Y-52750000D02*
X47020000Y-51310000D01*
X48600727Y-48710000D02*
X48893987Y-47400000D01*
X47020000Y-51310000D02*
X48600727Y-48710000D01*
X46445058Y-51140624D02*
X46524080Y-53052100D01*
X48059836Y-48550000D02*
X46885143Y-50377985D01*
X46524080Y-53052100D02*
X47550000Y-54100000D01*
X48059836Y-48550000D02*
X48318669Y-47610000D01*
X46885143Y-50377985D02*
X46445058Y-51140624D01*
X46030000Y-53350000D02*
X45930000Y-51020000D01*
X46922257Y-54210000D02*
X46030000Y-53350000D01*
X47390000Y-45660000D02*
X47430341Y-48420000D01*
X45930000Y-51020000D02*
X47430341Y-48420000D01*
X49070000Y-49030000D02*
X49635720Y-47060000D01*
X49535916Y-42330000D02*
X49635720Y-47060000D01*
X48790000Y-42140000D02*
X48893987Y-47400000D01*
X48270000Y-45690000D02*
X48318669Y-47610000D01*
X52660000Y-32930000D02*
X52640000Y-34550000D01*
X50800000Y-39200000D02*
X50510000Y-39910000D01*
X50510000Y-39910000D02*
X50510000Y-41090000D01*
X52400000Y-38060000D02*
X50800000Y-39200000D01*
X52640000Y-34550000D02*
X52400000Y-38060000D01*
X50510000Y-41090000D02*
X51700000Y-42300000D01*
X53410000Y-35550000D02*
X53354547Y-31319548D01*
X53202498Y-40169999D02*
X53410000Y-35550000D01*
X53354547Y-31319548D02*
X52410000Y-29100000D01*
X54020000Y-32200000D02*
X54020000Y-38110000D01*
X53760000Y-30690000D02*
X54020000Y-32200000D01*
X54467790Y-39912210D02*
X54990000Y-40780000D01*
X54020000Y-38110000D02*
X54467790Y-39912210D01*
D37*
X35870000Y-65280000D02*
X37790000Y-64710000D01*
X37790000Y-64710000D02*
X40800000Y-61500000D01*
D36*
X27570000Y-59310000D02*
X26480000Y-59370000D01*
D38*
X25480000Y-59090000D02*
X25890000Y-57780000D01*
X26940000Y-61380000D02*
X25640000Y-60550000D01*
X27854341Y-56644341D02*
X28140000Y-56320000D01*
X25640000Y-60550000D02*
X25480000Y-59090000D01*
X25890000Y-57780000D02*
X27854341Y-56644341D01*
D36*
X23640000Y-50180000D02*
X29020000Y-47830000D01*
X52790000Y-94370000D02*
X51584340Y-92545660D01*
X50152676Y-91177324D02*
X48570000Y-90035386D01*
X51584340Y-92545660D02*
X50152676Y-91177324D01*
X48570000Y-90035386D02*
X47260000Y-89680000D01*
X43850000Y-80080000D02*
X45340000Y-78200000D01*
X46590000Y-77730000D02*
X47410000Y-77220000D01*
X43930000Y-85170000D02*
X43930000Y-81840000D01*
X45340000Y-78200000D02*
X46590000Y-77730000D01*
X43930000Y-81840000D02*
X43850000Y-80080000D01*
X47730000Y-78280000D02*
X48940000Y-77020000D01*
X45720000Y-78860000D02*
X47730000Y-78280000D01*
X44530000Y-83590000D02*
X44570000Y-80640000D01*
X44570000Y-80640000D02*
X45720000Y-78860000D01*
X48940000Y-77020000D02*
X50270000Y-74370000D01*
X39910000Y-68600000D02*
X39160000Y-69600000D01*
X39160000Y-71250000D02*
X38610000Y-74130000D01*
X40970000Y-64270000D02*
X40180000Y-65820000D01*
X40180000Y-65820000D02*
X39910000Y-68600000D01*
X39160000Y-69600000D02*
X39160000Y-71250000D01*
X38610000Y-74130000D02*
X38580000Y-78970000D01*
X40920000Y-67060000D02*
X40980000Y-65980000D01*
X41940000Y-69780000D02*
X41640000Y-68250000D01*
X39540000Y-79010000D02*
X39350000Y-77510000D01*
X39210000Y-76390000D02*
X41720000Y-70760000D01*
X39350000Y-77510000D02*
X39210000Y-76390000D01*
X41640000Y-68250000D02*
X40920000Y-67060000D01*
X40980000Y-65980000D02*
X41940000Y-64680000D01*
X41720000Y-70760000D02*
X41940000Y-69780000D01*
X45059999Y-37435001D02*
X45024180Y-36175820D01*
X43774133Y-36360000D02*
X43789999Y-37435000D01*
X39790901Y-41040901D02*
X40990000Y-40871983D01*
X40990000Y-40871983D02*
X41460612Y-40410000D01*
X40654994Y-39649998D02*
X40760000Y-38610000D01*
X40760000Y-38610000D02*
X41250001Y-37435000D01*
X39546199Y-41270000D02*
X39790901Y-41040901D01*
X26420000Y-77950000D02*
X23250000Y-77020000D01*
X32790000Y-78370000D02*
X26420000Y-77950000D01*
X23250000Y-77020000D02*
X22900000Y-75220000D01*
X32860000Y-79470000D02*
X26810000Y-79430000D01*
X26810000Y-79430000D02*
X24390000Y-79060000D01*
X42250000Y-67330000D02*
X41760000Y-66540000D01*
X41760000Y-66540000D02*
X42312379Y-65560000D01*
X53140000Y-43760000D02*
X53010000Y-42030000D01*
X52430000Y-40870000D02*
X51377502Y-40170001D01*
X53690000Y-46540000D02*
X53140000Y-43760000D01*
X53010000Y-41210000D02*
X52430000Y-40870000D01*
X53010000Y-42030000D02*
X53010000Y-41210000D01*
X53020000Y-48530000D02*
X53240000Y-47480000D01*
X53685004Y-52940002D02*
X53050000Y-49790000D01*
X53050000Y-49790000D02*
X53020000Y-48530000D01*
X53240000Y-47480000D02*
X53690000Y-46540000D01*
X53080000Y-56000000D02*
X53030000Y-54540000D01*
X53685004Y-59350002D02*
X53080000Y-56000000D01*
X53030000Y-54540000D02*
X53685004Y-52940002D01*
X44580000Y-55920000D02*
X44600000Y-53770000D01*
X44980000Y-57730000D02*
X44580000Y-55920000D01*
X44600000Y-53770000D02*
X44595000Y-52980000D01*
X47390000Y-45660000D02*
X45350000Y-45100000D01*
X42716069Y-69560000D02*
X42380000Y-70580000D01*
X42250000Y-67330000D02*
X42486486Y-67843514D01*
X42716069Y-69560000D02*
X42486486Y-67843514D01*
X42380000Y-70580000D02*
X41160000Y-75930000D01*
X43340000Y-61500000D02*
X43581970Y-58903088D01*
X41766423Y-57413577D02*
X43581970Y-58903088D01*
X44650000Y-35200000D02*
X45600000Y-35780000D01*
X45600000Y-35780000D02*
X45720000Y-36930000D01*
X45720000Y-36930000D02*
X45680000Y-38480000D01*
X43760000Y-34660000D02*
X44650000Y-35200000D01*
X43220000Y-34190000D02*
X43760000Y-34660000D01*
X43790000Y-32485003D02*
X43220000Y-34190000D01*
X46755000Y-66350000D02*
X47230000Y-69420000D01*
X47230000Y-69420000D02*
X45460000Y-74260000D01*
X42530000Y-77400000D02*
X40090000Y-76530000D01*
X45460000Y-74260000D02*
X42530000Y-77400000D01*
X46190000Y-70470000D02*
X45660000Y-68650000D01*
X42460000Y-76150000D02*
X45140000Y-72590000D01*
X45140000Y-72590000D02*
X46190000Y-70470000D01*
X45660000Y-68650000D02*
X43620000Y-66350000D01*
X51770000Y-77300000D02*
X54929999Y-75489998D01*
X45650000Y-80510000D02*
X51770000Y-77300000D01*
X51900000Y-78588457D02*
X52890000Y-78238761D01*
X56238616Y-76568616D02*
X57469999Y-75489998D01*
X52890000Y-78238761D02*
X56238616Y-76568616D01*
X45840000Y-81990000D02*
X48657941Y-80347941D01*
X48657941Y-80347941D02*
X51900000Y-78588457D01*
X48870000Y-32484999D02*
X47600001Y-32485000D01*
X50139999Y-32485000D02*
X48870000Y-32484999D01*
X30180000Y-57090000D02*
X27570000Y-59310000D01*
X31820000Y-56160000D02*
X30180000Y-57090000D01*
X48010000Y-39130000D02*
X47600000Y-37434997D01*
X48010000Y-39130000D02*
X48270000Y-45690000D01*
X47600000Y-37434997D02*
X46650000Y-35490000D01*
X46650000Y-35490000D02*
X44250000Y-34130000D01*
X48870001Y-37435000D02*
X48790000Y-42140000D01*
X48870001Y-37435000D02*
X49660000Y-34750000D01*
X49660000Y-34750000D02*
X50900000Y-33970000D01*
X51910000Y-33340000D02*
X51410000Y-35040000D01*
X51410000Y-35040000D02*
X50140000Y-37435001D01*
X50140000Y-37435001D02*
X49535916Y-42330000D01*
X48969508Y-29049508D02*
X51120000Y-28820000D01*
X51120000Y-28820000D02*
X52410000Y-29100000D01*
X48390000Y-29480000D02*
X48969508Y-29049508D01*
X46330001Y-32484999D02*
X47320000Y-30760000D01*
X47320000Y-30760000D02*
X48390000Y-29480000D01*
X53202498Y-40169999D02*
X54240000Y-42300000D01*
X45070000Y-28023241D02*
X44833442Y-28243442D01*
X44580551Y-28630551D02*
X44567494Y-30920000D01*
X55660000Y-42660000D02*
X55514996Y-46539998D01*
X48260000Y-28400000D02*
X50490000Y-28210000D01*
X47308863Y-27891137D02*
X45960000Y-27776367D01*
X47308863Y-27891137D02*
X48260000Y-28400000D01*
X50490000Y-28210000D02*
X52950000Y-28470000D01*
X45059997Y-32484997D02*
X44567494Y-30920000D01*
X54240000Y-48700000D02*
X55514996Y-46539998D01*
X44833442Y-28243442D02*
X44580551Y-28630551D01*
X45960000Y-27776367D02*
X45070000Y-28023241D01*
X52950000Y-28470000D02*
X53760000Y-30690000D01*
X54990000Y-40780000D02*
X55660000Y-42660000D01*
X57970000Y-49700000D02*
X55510000Y-52940000D01*
X46670000Y-27145166D02*
X45190000Y-27360000D01*
X58070000Y-41870000D02*
X57970000Y-49700000D01*
X44257222Y-27887222D02*
X43260617Y-29540000D01*
X54950000Y-27790000D02*
X56530000Y-28170000D01*
X45190000Y-27360000D02*
X44257222Y-27887222D01*
X56530000Y-28170000D02*
X56570000Y-38520000D01*
X47390000Y-27270000D02*
X48430000Y-27750000D01*
X50180000Y-27650000D02*
X54950000Y-27790000D01*
X54240000Y-55100000D02*
X55510000Y-52940000D01*
X48430000Y-27750000D02*
X50180000Y-27650000D01*
X46670000Y-27145166D02*
X47390000Y-27270000D01*
X56570000Y-38520000D02*
X58070000Y-41870000D01*
X42519999Y-32485000D02*
X43260617Y-29540000D01*
X58670000Y-55120000D02*
X57970000Y-57780000D01*
X49520000Y-26900000D02*
X51610000Y-26710000D01*
X46740000Y-26470000D02*
X48140000Y-26760000D01*
X45120000Y-26510000D02*
X46740000Y-26470000D01*
X41250000Y-32484999D02*
X43130000Y-28000000D01*
X54240000Y-61500000D02*
X55510000Y-59350000D01*
X59270000Y-28870000D02*
X58670000Y-55120000D01*
X48140000Y-26760000D02*
X49520000Y-26900000D01*
X43130000Y-28000000D02*
X45120000Y-26510000D01*
X57970000Y-57780000D02*
X55510000Y-59350000D01*
X51610000Y-26710000D02*
X58770000Y-27460000D01*
X58770000Y-27460000D02*
X59270000Y-28870000D01*
X39474919Y-55050000D02*
X39593767Y-56060000D01*
X39474919Y-55050000D02*
X39593354Y-51870000D01*
X39593354Y-51870000D02*
X39370000Y-50760000D01*
X39370000Y-50760000D02*
X39076000Y-49920000D01*
X41766423Y-57413577D02*
X40090000Y-56523072D01*
X40090000Y-56523072D02*
X39593767Y-56060000D01*
X40104206Y-50635794D02*
X39623354Y-49846646D01*
X42503966Y-38850000D02*
X42520000Y-37435001D01*
X39530000Y-42600000D02*
X39546199Y-41270000D01*
X39610000Y-43400000D02*
X39530000Y-42600000D01*
X43660000Y-35549009D02*
X45024180Y-36175820D01*
M02*
