G04 #@! TF.GenerationSoftware,KiCad,Pcbnew,7.0.9*
G04 #@! TF.CreationDate,2023-11-26T15:03:03-05:00*
G04 #@! TF.ProjectId,ESP32_AudioBoard_Rev3,45535033-325f-4417-9564-696f426f6172,rev?*
G04 #@! TF.SameCoordinates,Original*
G04 #@! TF.FileFunction,Paste,Top*
G04 #@! TF.FilePolarity,Positive*
%FSLAX46Y46*%
G04 Gerber Fmt 4.6, Leading zero omitted, Abs format (unit mm)*
G04 Created by KiCad (PCBNEW 7.0.9) date 2023-11-26 15:03:03*
%MOMM*%
%LPD*%
G01*
G04 APERTURE LIST*
G04 Aperture macros list*
%AMRoundRect*
0 Rectangle with rounded corners*
0 $1 Rounding radius*
0 $2 $3 $4 $5 $6 $7 $8 $9 X,Y pos of 4 corners*
0 Add a 4 corners polygon primitive as box body*
4,1,4,$2,$3,$4,$5,$6,$7,$8,$9,$2,$3,0*
0 Add four circle primitives for the rounded corners*
1,1,$1+$1,$2,$3*
1,1,$1+$1,$4,$5*
1,1,$1+$1,$6,$7*
1,1,$1+$1,$8,$9*
0 Add four rect primitives between the rounded corners*
20,1,$1+$1,$2,$3,$4,$5,0*
20,1,$1+$1,$4,$5,$6,$7,0*
20,1,$1+$1,$6,$7,$8,$9,0*
20,1,$1+$1,$8,$9,$2,$3,0*%
G04 Aperture macros list end*
%ADD10RoundRect,0.237500X-0.300000X-0.237500X0.300000X-0.237500X0.300000X0.237500X-0.300000X0.237500X0*%
%ADD11RoundRect,0.237500X-0.237500X0.300000X-0.237500X-0.300000X0.237500X-0.300000X0.237500X0.300000X0*%
%ADD12RoundRect,0.150000X-0.150000X0.825000X-0.150000X-0.825000X0.150000X-0.825000X0.150000X0.825000X0*%
%ADD13RoundRect,0.237500X0.300000X0.237500X-0.300000X0.237500X-0.300000X-0.237500X0.300000X-0.237500X0*%
%ADD14RoundRect,0.237500X0.237500X-0.300000X0.237500X0.300000X-0.237500X0.300000X-0.237500X-0.300000X0*%
%ADD15R,2.000000X1.500000*%
%ADD16R,2.000000X3.800000*%
%ADD17RoundRect,0.237500X-0.250000X-0.237500X0.250000X-0.237500X0.250000X0.237500X-0.250000X0.237500X0*%
%ADD18RoundRect,0.237500X0.237500X-0.250000X0.237500X0.250000X-0.237500X0.250000X-0.237500X-0.250000X0*%
%ADD19RoundRect,0.150000X-0.825000X-0.150000X0.825000X-0.150000X0.825000X0.150000X-0.825000X0.150000X0*%
%ADD20RoundRect,0.237500X0.250000X0.237500X-0.250000X0.237500X-0.250000X-0.237500X0.250000X-0.237500X0*%
%ADD21R,1.500000X0.900000*%
%ADD22R,0.900000X1.500000*%
%ADD23R,0.900000X0.900000*%
%ADD24RoundRect,0.237500X-0.237500X0.250000X-0.237500X-0.250000X0.237500X-0.250000X0.237500X0.250000X0*%
%ADD25R,1.550000X1.300000*%
%ADD26R,1.150000X0.200000*%
%ADD27R,1.700000X1.300000*%
%ADD28RoundRect,0.250000X0.450000X-0.325000X0.450000X0.325000X-0.450000X0.325000X-0.450000X-0.325000X0*%
%ADD29RoundRect,0.112500X0.112500X-0.187500X0.112500X0.187500X-0.112500X0.187500X-0.112500X-0.187500X0*%
G04 APERTURE END LIST*
D10*
X26230393Y-71561839D03*
X27955393Y-71561839D03*
D11*
X37365003Y-95960001D03*
X37365003Y-97685001D03*
D12*
X43295003Y-88660002D03*
X42025003Y-88660002D03*
X40755003Y-88660002D03*
X39485003Y-88660002D03*
X39485003Y-93610002D03*
X40755003Y-93610002D03*
X42025003Y-93610002D03*
X43295003Y-93610002D03*
D13*
X16830000Y-101530000D03*
X15105000Y-101530000D03*
D14*
X16715393Y-69536839D03*
X16715393Y-67811839D03*
D15*
X18680000Y-79420000D03*
X18680000Y-81720000D03*
X18680000Y-84020000D03*
D16*
X24980000Y-81720000D03*
D12*
X51085000Y-32055000D03*
X49815000Y-32055000D03*
X48545000Y-32055000D03*
X47275000Y-32055000D03*
X47275000Y-37005000D03*
X48545000Y-37005000D03*
X49815000Y-37005000D03*
X51085000Y-37005000D03*
D17*
X26212893Y-69561839D03*
X28037893Y-69561839D03*
D18*
X26245393Y-67604339D03*
X26245393Y-65779339D03*
X48400000Y-52242500D03*
X48400000Y-50417500D03*
D11*
X48360000Y-39360000D03*
X48360000Y-41085000D03*
D19*
X19030393Y-65626839D03*
X19030393Y-66896839D03*
X19030393Y-68166839D03*
X19030393Y-69436839D03*
X23980393Y-69436839D03*
X23980393Y-68166839D03*
X23980393Y-66896839D03*
X23980393Y-65626839D03*
X42300000Y-73670000D03*
X42300000Y-74940000D03*
X42300000Y-76210000D03*
X42300000Y-77480000D03*
X47250000Y-77480000D03*
X47250000Y-76210000D03*
X47250000Y-74940000D03*
X47250000Y-73670000D03*
D18*
X47290000Y-85672500D03*
X47290000Y-83847500D03*
D20*
X41172500Y-84320000D03*
X39347500Y-84320000D03*
D10*
X45737500Y-79320000D03*
X47462500Y-79320000D03*
D14*
X47280000Y-89450000D03*
X47280000Y-87725000D03*
D21*
X28650000Y-46170000D03*
X28650000Y-47440000D03*
X28650000Y-48710000D03*
X28650000Y-49980000D03*
X28650000Y-51250000D03*
X28650000Y-52520000D03*
X28650000Y-53790000D03*
X28650000Y-55060000D03*
X28650000Y-56330000D03*
X28650000Y-57600000D03*
X28650000Y-58870000D03*
X28650000Y-60140000D03*
X28650000Y-61410000D03*
X28650000Y-62680000D03*
D22*
X30415000Y-63930000D03*
X31685000Y-63930000D03*
X32955000Y-63930000D03*
X34225000Y-63930000D03*
X35495000Y-63930000D03*
X36765000Y-63930000D03*
X38035000Y-63930000D03*
X39305000Y-63930000D03*
X40575000Y-63930000D03*
X41845000Y-63930000D03*
X43115000Y-63930000D03*
X44385000Y-63930000D03*
D21*
X46150000Y-62680000D03*
X46150000Y-61410000D03*
X46150000Y-60140000D03*
X46150000Y-58870000D03*
X46150000Y-57600000D03*
X46150000Y-56330000D03*
X46150000Y-55060000D03*
X46150000Y-53790000D03*
X46150000Y-52520000D03*
X46150000Y-51250000D03*
X46150000Y-49980000D03*
X46150000Y-48710000D03*
X46150000Y-47440000D03*
X46150000Y-46170000D03*
D23*
X34500000Y-52490000D03*
X34500000Y-53890000D03*
X34500000Y-55290000D03*
X34500000Y-55290000D03*
X35900000Y-52490000D03*
X35900000Y-52490000D03*
X35900000Y-53890000D03*
X35900000Y-55290000D03*
X37300000Y-52490000D03*
X37300000Y-53890000D03*
X37300000Y-55290000D03*
D17*
X41322502Y-95880000D03*
X43147502Y-95880000D03*
D11*
X45260000Y-35360000D03*
X45260000Y-37085000D03*
D24*
X14610000Y-67817500D03*
X14610000Y-69642500D03*
D19*
X41425000Y-100425000D03*
X41425000Y-101695000D03*
X41425000Y-102965000D03*
X41425000Y-104235000D03*
X41425000Y-105505000D03*
X41425000Y-106775000D03*
X41425000Y-108045000D03*
X41425000Y-109315000D03*
X46375000Y-109315000D03*
X46375000Y-108045000D03*
X46375000Y-106775000D03*
X46375000Y-105505000D03*
X46375000Y-104235000D03*
X46375000Y-102965000D03*
X46375000Y-101695000D03*
X46375000Y-100425000D03*
D24*
X39365001Y-95867502D03*
X39365001Y-97692502D03*
D11*
X50620000Y-39347500D03*
X50620000Y-41072500D03*
D10*
X48770000Y-29750000D03*
X50495000Y-29750000D03*
X20410000Y-63770000D03*
X22135000Y-63770000D03*
D18*
X33330000Y-29292500D03*
X33330000Y-27467500D03*
X43155001Y-86382501D03*
X43155001Y-84557501D03*
D25*
X51475000Y-71460000D03*
X43525000Y-71460000D03*
X51475000Y-66960000D03*
X43525000Y-66960000D03*
D26*
X15770000Y-41450000D03*
X15770000Y-42100000D03*
X15770000Y-42750000D03*
X15770000Y-43400000D03*
X15770000Y-44050000D03*
D27*
X13070000Y-41750000D03*
X13070000Y-43750000D03*
D20*
X16777893Y-65771839D03*
X14952893Y-65771839D03*
D28*
X11969998Y-102869999D03*
X11969998Y-100819999D03*
D14*
X45145001Y-93812500D03*
X45145001Y-92087500D03*
D10*
X39360000Y-86340001D03*
X41085000Y-86340001D03*
D24*
X26340000Y-47857500D03*
X26340000Y-49682500D03*
D14*
X37970000Y-77172500D03*
X37970000Y-75447500D03*
D17*
X15577500Y-97110000D03*
X17402500Y-97110000D03*
D29*
X33330000Y-24537500D03*
X33330000Y-22437500D03*
M02*
