<?xml version="1.0" encoding="utf-8"?>
<!-- Generator: Adobe Illustrator 27.5.0, SVG Export Plug-In . SVG Version: 6.00 Build 0)  -->
<svg version="1.1" id="Layer_1" xmlns="http://www.w3.org/2000/svg" xmlns:xlink="http://www.w3.org/1999/xlink" x="0px" y="0px"
	 viewBox="0 0 1000 400" style="enable-background:new 0 0 1000 400;" xml:space="preserve">
<style type="text/css">
	.st0{fill:none;stroke:#231F20;stroke-width:1.000000e-02;stroke-linecap:round;stroke-miterlimit:11.3386;}
	.st1{display:none;}
	.st2{display:inline;fill:none;stroke:#777777;stroke-linecap:round;stroke-miterlimit:11.3386;}
	
		.st3{display:inline;fill-rule:evenodd;clip-rule:evenodd;fill:#777777;stroke:#777777;stroke-width:2.0088;stroke-linecap:round;stroke-miterlimit:11.3386;}
</style>
<path id="front_outsideCutPath" vector-effect="non-scaling-stroke" class="st0" d="M419.4,45.5h-40.5V54h-60.8v-8.5h-40.5v59h8.5
	v60.8h-8.5v60.8h8.5V287h-8.5v59h40.5v-8.5h60.8v8.5h40.5v-59h-8.5v-60.8h8.5v-60.8h-8.5v-60.8h8.5V45.5z"/>
<path id="left_outsideCutPath" vector-effect="non-scaling-stroke" class="st0" d="M431.6,204.2v40.6l0,0v60.8l0,0V346h32v-8.5h60.8
	v8.5h31.9v-40.5h8.5v-60.8h-8.5v-40.5h-31.9v8.5h-60.8v-8.5H431.6L431.6,204.2z"/>
<path id="top_outsideCutPath" vector-effect="non-scaling-stroke" class="st0" d="M576,212.7v32.1h-8.5v60.8h8.5v31.9h50.5v8.5h60.8
	v-8.5h60.8v8.5H809v-8.5h50.5v-31.9h8.5v-60.8h-8.5v-32h-50.4l0,0h-60.9l0,0h-60.8l0,0l-60.8-0.1l0,0L576,212.7L576,212.7z"/>
<path id="right_outsideCutPath" vector-effect="non-scaling-stroke" class="st0" d="M431.6,54v40.5h-8.5v60.8h8.5v40.5h31.9v-8.5
	h60.8v8.5h32v-40.5l0,0V94.5l0,0V54h-32v8.5h-60.8V54H431.6z"/>
<path id="bottom_outsideCutPath" vector-effect="non-scaling-stroke" class="st0" d="M576,62.5v32h-8.5v60.8h8.5v31.9h50.5v8.5h60.8
	v-8.5h60.8v8.5H809v-8.5h50.5v-31.9h8.5V94.5h-8.5v-32H809l0,0h-60.5l0,0h-60.9l0,0h-60.9l0,0H576z"/>
<path class="st0" d="M293.9,287.9V103.6c0-19.6,15.6-35.4,34.7-35.4l0,0c19.2,0,34.7,15.9,34.7,35.4v184.3
	c0,19.6-15.6,35.4-34.7,35.4l0,0C309.4,323.3,293.9,307.4,293.9,287.9z"/>
<circle class="st0" cx="298.9" cy="65.4" r="5.7"/>
<circle class="st0" cx="298.9" cy="326.1" r="5.7"/>
<circle class="st0" cx="358.4" cy="326.1" r="5.7"/>
<circle class="st0" cx="358.4" cy="65.4" r="5.7"/>
<circle class="st0" cx="623.4" cy="273.6" r="13.5"/>
<g id="Guides" class="st1">
	<line class="st2" x1="277.6" y1="326.1" x2="298.9" y2="326.1"/>
	<line class="st2" x1="298.9" y1="326.1" x2="298.9" y2="346"/>
	<line class="st2" x1="298.9" y1="326.1" x2="358.4" y2="326.1"/>
	<line class="st2" x1="277.6" y1="197.3" x2="294.7" y2="197.3"/>
	<line class="st2" x1="331.5" y1="45.5" x2="331.5" y2="68.2"/>
	<line class="st2" x1="277.6" y1="65.4" x2="298.9" y2="65.4"/>
	<line class="st2" x1="298.9" y1="45.5" x2="298.9" y2="65.4"/>
	<line class="st2" x1="298.9" y1="65.4" x2="358.4" y2="65.4"/>
	<path id="right_labelLayer" vector-effect="non-scaling-stroke" class="st3" d="M517.6,126h-2.3v-9.8c0-0.3,0-0.7-0.1-1
		c-0.1-0.7-0.4-1.3-0.8-1.7c-0.3-0.3-0.7-0.5-1.1-0.7c-0.4-0.2-1-0.2-1.6-0.2c-0.4,0-0.9,0-1.3,0.1c-0.5,0.1-0.9,0.2-1.3,0.4
		c-0.4,0.2-0.7,0.4-0.9,0.7c-0.3,0.3-0.5,0.7-0.6,1.1c-0.3,0.7-0.4,1.6-0.4,2.6c0,0.2,0,0.3,0,0.5v7.9h-2.3v-21.5h2.3v6.5
		c0,0.3,0,0.5,0,0.8c0,0.2,0,0.5,0,0.7s0,0.3-0.1,0.5h0.1c0.4-0.6,1-1.2,1.6-1.5c0.1-0.1,0.2-0.1,0.3-0.2c0.6-0.3,1.3-0.5,1.9-0.6
		c0.3,0,0.6-0.1,0.9-0.1c0.5,0,1,0,1.6,0.1c0.6,0.1,1.1,0.2,1.5,0.5c0.4,0.2,0.8,0.4,1.1,0.7c0.4,0.4,0.8,1,1,1.6
		c0.3,0.7,0.4,1.6,0.4,2.7L517.6,126L517.6,126z M496.6,110.9h5.2v1.5l-2.8,0.3c0.3,0.3,0.5,0.7,0.7,1.3c0.2,0.5,0.3,1.1,0.3,1.8
		c0,0.6-0.1,1.1-0.2,1.6c-0.2,0.7-0.7,1.4-1.3,1.9c-0.9,0.8-2.1,1.2-3.7,1.3c-0.2,0-0.3,0-0.5,0c-0.3,0-0.6,0-0.9,0
		c-0.1,0-0.3,0-0.4-0.1c-0.2,0.1-0.5,0.3-0.7,0.4c-0.2,0.2-0.4,0.4-0.5,0.6c-0.2,0.3-0.3,0.6-0.3,0.9c0,0.4,0.2,0.7,0.5,0.9
		c0.3,0.2,0.9,0.3,1.8,0.3h2.7c0.5,0,1,0,1.4,0.1c0.5,0.1,0.9,0.2,1.3,0.4c0.4,0.1,0.7,0.3,1,0.6c0.7,0.5,1.1,1.3,1.3,2.1
		c0,0.3,0.1,0.6,0.1,0.9c0,1.7-0.7,3-2,3.8c-0.9,0.6-2.2,1-3.7,1.2c-0.7,0.1-1.4,0.1-2.2,0.1c-0.6,0-1.2,0-1.7-0.1
		c-1.2-0.2-2.1-0.5-2.9-1c-0.5-0.3-0.9-0.8-1.2-1.3c-0.3-0.5-0.4-1-0.4-1.6c0-0.1,0-0.2,0-0.3c0-0.9,0.3-1.7,0.9-2.4
		c0.6-0.7,1.4-1.1,2.5-1.4c-0.4-0.2-0.7-0.4-0.9-0.7c0,0,0,0-0.1-0.1c-0.2-0.3-0.4-0.7-0.4-1.2v-0.1c0-0.3,0-0.6,0.1-0.8
		c0.1-0.2,0.2-0.4,0.3-0.6c0.1-0.2,0.3-0.3,0.4-0.5c0.2-0.1,0.3-0.3,0.5-0.4c0.1-0.1,0.3-0.2,0.4-0.3c-0.7-0.3-1.3-0.8-1.8-1.4
		c-0.1-0.1-0.1-0.2-0.2-0.2c-0.4-0.7-0.7-1.5-0.7-2.3c0-0.1,0-0.2,0-0.4c0-1.7,0.5-2.9,1.5-3.8c0.5-0.5,1.2-0.8,1.9-1
		c0.5-0.2,1-0.2,1.6-0.3c0.2,0,0.5,0,0.7,0c0.4,0,0.8,0,1.2,0.1C495.9,110.7,496.3,110.8,496.6,110.9z M529.3,124.1v1.8
		c-0.1,0-0.2,0.1-0.3,0.1c-0.2,0.1-0.4,0.1-0.7,0.2h-0.1c-0.5,0.1-0.9,0.1-1.3,0.1c-0.6,0-1.2-0.1-1.8-0.2c-1.8-0.5-2.6-2-2.6-4.4
		v-9h-2.2v-1.1l2.2-1l1-3.2h1.3v3.5h4.4v1.8h-4.4v8.9c0,0.3,0,0.5,0.1,0.8s0.1,0.6,0.3,0.8c0.1,0.2,0.2,0.3,0.3,0.5
		c0.4,0.5,1,0.7,1.8,0.7c0.4,0,0.7,0,1.1-0.1c0,0,0,0,0.1,0C528.8,124.3,529.1,124.2,529.3,124.1z M479.4,110.7l-0.3,2.1
		c-0.5-0.1-1-0.2-1.4-0.2c-0.1,0-0.2,0-0.2,0c-1.2,0-2.3,0.5-3.1,1.5c-0.7,0.8-1.2,1.9-1.3,2.9c0,0.3,0,0.5,0,0.8v8.1h-2.3v-15.2
		h1.9l0.3,2.8h0.1c0.2-0.4,0.5-0.9,0.9-1.2c0.3-0.4,0.7-0.7,1.2-1c0.8-0.5,1.7-0.8,2.6-0.8c0.3,0,0.6,0,0.9,0
		C478.8,110.6,479.1,110.7,479.4,110.7z M484.5,110.9V126h-2.3v-15.2L484.5,110.9L484.5,110.9z M495.8,125.7H493
		c-0.3,0-0.6,0-0.9,0.1c-0.6,0.1-1.1,0.3-1.5,0.7c-0.6,0.5-0.9,1.2-0.9,2.1c0,0.3,0,0.6,0.2,0.9c0.2,0.4,0.5,0.8,0.9,1
		c0.7,0.4,1.7,0.6,3,0.6c0.5,0,1,0,1.5-0.1c1-0.1,1.8-0.3,2.5-0.6c0.1-0.1,0.2-0.1,0.3-0.2c0.9-0.6,1.4-1.4,1.4-2.3
		c0-0.2,0-0.4-0.1-0.6c-0.1-0.5-0.3-0.9-0.7-1.1c-0.2-0.1-0.3-0.2-0.5-0.2C497.6,125.8,496.8,125.7,495.8,125.7z M491,115.7
		c0,0.3,0,0.6,0.1,0.9c0.1,0.6,0.4,1.1,0.8,1.5c0.6,0.5,1.4,0.8,2.5,0.8c1.8,0,2.8-0.7,3.2-2c0.1-0.4,0.2-0.8,0.2-1.2
		c0-1.8-0.7-2.9-2.1-3.3c-0.4-0.1-0.8-0.2-1.3-0.1c-0.8,0-1.5,0.2-2,0.5c-0.2,0.1-0.3,0.2-0.5,0.4c-0.5,0.5-0.8,1.2-0.9,2.1
		C491,115.4,491,115.5,491,115.7z M482.4,105.6c-0.1,0.1-0.2,0.2-0.2,0.3c-0.1,0.2-0.2,0.5-0.2,0.8s0,0.5,0.1,0.7s0.2,0.3,0.3,0.5
		c0.3,0.3,0.6,0.4,1,0.4s0.7-0.1,1-0.4c0.1-0.1,0.2-0.2,0.2-0.3c0.1-0.1,0.1-0.3,0.1-0.4s0-0.3,0-0.4s0-0.2,0-0.2
		c0-0.4-0.2-0.7-0.4-0.9c-0.3-0.2-0.6-0.4-1-0.4h-0.1C483,105.2,482.7,105.4,482.4,105.6z"/>
	<path id="left_labelLayer" vector-effect="non-scaling-stroke" class="st3" d="M501.1,271.2v1.8h-3.9v13.4h-2.3V273h-2.7v-1
		l2.7-0.8v-0.8c0-0.7,0.1-1.4,0.2-2.1c0.5-2.3,2.1-3.5,4.7-3.5c0.4,0,0.7,0,1,0.1c0.3,0,0.7,0.1,1.1,0.2c0.2,0.1,0.5,0.1,0.7,0.2
		L502,267c-0.6-0.2-1.2-0.3-1.7-0.4c-0.2,0-0.4,0-0.6,0c-0.3,0-0.5,0-0.7,0.1c-0.5,0.1-0.9,0.4-1.2,0.8c-0.4,0.6-0.6,1.5-0.6,2.8v1
		L501.1,271.2L501.1,271.2z M490.3,277.8v1.5h-10.4c0,1.2,0.2,2.2,0.7,3.1c0.2,0.4,0.4,0.7,0.7,1c0.6,0.6,1.4,1.1,2.2,1.2
		c0.5,0.1,0.9,0.2,1.4,0.1c1.6,0,3.1-0.3,4.5-0.9c0.1,0,0.2-0.1,0.3-0.1v2c-0.4,0.2-0.8,0.3-1.3,0.5c-0.3,0.1-0.7,0.2-1,0.3
		c-0.7,0.2-1.6,0.2-2.6,0.2c-0.8,0-1.5-0.1-2.2-0.3c-1.2-0.3-2.2-0.9-3.1-1.8c-1.2-1.3-1.9-3-1.9-5.3c0-0.1,0-0.3,0-0.4
		c0-0.8,0.1-1.6,0.2-2.4c0.2-1,0.5-1.8,1-2.6c0.2-0.3,0.4-0.6,0.6-0.9c1.1-1.3,2.6-2.1,4.3-2.1c0.2,0,0.4,0,0.6,0
		c0.7,0,1.3,0.1,2,0.3c1,0.3,1.9,0.8,2.5,1.6c0.7,0.8,1.2,1.8,1.5,2.9C490.2,276.4,490.3,277.1,490.3,277.8z M510.8,284.5v1.8
		c-0.1,0-0.2,0.1-0.3,0.1c-0.2,0.1-0.4,0.1-0.7,0.2h-0.1c-0.5,0.1-0.9,0.1-1.3,0.1c-0.6,0-1.2-0.1-1.8-0.2c-1.8-0.5-2.6-2-2.6-4.4
		v-9h-2.2V272l2.2-1l1-3.2h1.3v3.5h4.4v1.8h-4.4v8.9c0,0.3,0,0.5,0.1,0.8s0.1,0.6,0.3,0.8c0.1,0.2,0.2,0.3,0.3,0.5
		c0.4,0.5,1,0.7,1.8,0.7c0.4,0,0.7,0,1.1-0.1c0,0,0,0,0.1,0C510.3,284.6,510.6,284.6,510.8,284.5z M473.5,264.9v21.5h-2.3v-21.5
		H473.5z M479.9,277.4h7.9c0-1-0.1-1.8-0.4-2.5c-0.1-0.3-0.3-0.6-0.5-0.9c-0.5-0.6-1.2-1-1.9-1.1c-0.3-0.1-0.6-0.1-0.9-0.1
		c-1.2,0-2.2,0.4-2.9,1.2c-0.4,0.4-0.7,1-0.9,1.5C480.1,276.1,480,276.7,479.9,277.4z"/>
	<path id="bottom_labelLayer" vector-effect="non-scaling-stroke" class="st3" d="M776.7,132.3h-2.3v-9.9c0-0.8-0.1-1.4-0.3-1.9
		c-0.1-0.3-0.3-0.6-0.5-0.8c-0.3-0.3-0.7-0.6-1.1-0.7c-0.4-0.1-0.8-0.2-1.3-0.2c-0.4,0-0.8,0-1.2,0.1c-0.8,0.2-1.5,0.5-2,1.1
		c-0.7,0.8-1,2.1-1,3.8l0,0v8.5h-2.3v-9.9c0-0.8-0.1-1.4-0.3-1.9c-0.1-0.3-0.3-0.6-0.5-0.8c-0.3-0.3-0.7-0.6-1.1-0.7
		c-0.3-0.1-0.6-0.1-0.9-0.2c-0.1,0-0.3,0-0.4,0c-0.4,0-0.8,0-1.2,0.1c-0.9,0.2-1.5,0.6-2,1.2c-0.6,0.8-0.9,2-1,3.7
		c0,0.2,0,0.4,0,0.5v8H755v-15.2h1.9l0.4,2.1h0.1c0.4-0.7,1.1-1.3,1.8-1.7c0.7-0.3,1.4-0.6,2.2-0.6c0.2,0,0.3,0,0.5,0
		c0.6,0,1.1,0.1,1.7,0.2c1.4,0.3,2.4,1.1,3,2.4h0.1c0.4-0.8,1.1-1.4,1.8-1.8c0.1,0,0.1-0.1,0.2-0.1c0.7-0.4,1.4-0.6,2.1-0.6
		c0.3,0,0.5,0,0.8,0c1.2,0,2.1,0.2,2.9,0.6c0.4,0.2,0.7,0.4,1,0.7c0.6,0.6,1,1.6,1.2,2.8c0.1,0.5,0.1,1,0.1,1.5L776.7,132.3
		L776.7,132.3z M685.7,130.4h-0.2l-0.5,2h-1.6v-21.5h2.3v5.2c0,1.1,0,2.2-0.1,3.1v0.1h0.1c0.9-1.3,2.3-2.1,3.8-2.2
		c0.3,0,0.6-0.1,0.9-0.1c0.7,0,1.3,0.1,2,0.3c1.1,0.3,2,0.9,2.7,1.8c0.9,1.1,1.4,2.5,1.6,4.4c0,0.5,0.1,0.9,0.1,1.4
		c0,0.8-0.1,1.5-0.2,2.3c-0.1,0.8-0.4,1.5-0.7,2.2c-0.2,0.5-0.5,0.9-0.8,1.4c-0.9,1.2-2.3,1.9-3.9,2c-0.3,0-0.5,0-0.8,0
		c-1,0-1.9-0.2-2.7-0.5C686.9,131.7,686.2,131.1,685.7,130.4z M724.9,130.4v1.8c-0.1,0-0.2,0.1-0.3,0.1c-0.2,0.1-0.4,0.1-0.7,0.2
		h-0.1c-0.5,0.1-0.9,0.1-1.3,0.1c-0.6,0-1.2-0.1-1.8-0.2c-1.8-0.5-2.6-2-2.6-4.4v-9h-2.2v-1.1l2.2-1l1-3.2h1.3v3.5h4.4v1.8h-4.4v8.9
		c0,0.3,0,0.5,0.1,0.8s0.1,0.6,0.3,0.8c0.1,0.2,0.2,0.3,0.3,0.5c0.4,0.5,1,0.7,1.8,0.7c0.4,0,0.7,0,1.1-0.1c0,0,0,0,0.1,0
		C724.4,130.6,724.7,130.5,724.9,130.4z M734.9,130.4v1.8c-0.1,0-0.2,0.1-0.3,0.1c-0.2,0.1-0.4,0.1-0.7,0.2h-0.1
		c-0.5,0.1-0.9,0.1-1.3,0.1c-0.6,0-1.2-0.1-1.8-0.2c-1.8-0.5-2.6-2-2.6-4.4v-9h-2.2v-1.1l2.2-1l1-3.2h1.3v3.5h4.4v1.8h-4.4v8.9
		c0,0.3,0,0.5,0.1,0.8s0.1,0.6,0.3,0.8c0.1,0.2,0.2,0.3,0.3,0.5c0.4,0.5,1,0.7,1.8,0.7c0.4,0,0.7,0,1.1-0.1c0,0,0,0,0.1,0
		C734.4,130.6,734.7,130.5,734.9,130.4z M713.7,127c0.1-0.8,0.2-1.5,0.2-2.3c0-1-0.1-1.9-0.3-2.7c-0.3-1.1-0.8-2.2-1.6-3
		c-0.7-0.9-1.7-1.5-2.8-1.8c-0.7-0.2-1.5-0.3-2.3-0.3c-0.5,0-1.1,0-1.6,0.1c-1.4,0.2-2.6,0.9-3.5,1.9c-0.3,0.3-0.6,0.7-0.8,1.1
		c-0.7,1.2-1.1,2.8-1.1,4.7c0,0.6,0,1.2,0.1,1.9c0.1,0.8,0.4,1.6,0.7,2.3c0.1,0.1,0.1,0.2,0.2,0.3c0.5,1,1.3,1.8,2.3,2.4
		c1.1,0.6,2.3,1,3.6,1c0.5,0,1,0,1.6-0.1c1.4-0.2,2.7-0.9,3.6-2c0.3-0.3,0.5-0.7,0.8-1C713.2,128.8,713.5,128,713.7,127z M750.8,127
		c0.1-0.8,0.2-1.5,0.2-2.3c0-1-0.1-1.9-0.3-2.7c-0.3-1.1-0.8-2.2-1.6-3c-0.7-0.9-1.7-1.5-2.8-1.8c-0.7-0.2-1.5-0.3-2.3-0.3
		c-0.5,0-1.1,0-1.6,0.1c-1.4,0.2-2.6,0.9-3.5,1.9c-0.3,0.3-0.6,0.7-0.8,1.1c-0.7,1.2-1.1,2.8-1.1,4.7c0,0.6,0,1.2,0.1,1.9
		c0.1,0.8,0.4,1.6,0.7,2.3c0.1,0.1,0.1,0.2,0.2,0.3c0.5,1,1.3,1.8,2.3,2.4c1.1,0.6,2.3,1,3.6,1c0.5,0,1,0,1.6-0.1
		c1.4-0.2,2.7-0.9,3.6-2c0.3-0.3,0.5-0.7,0.8-1C750.3,128.8,750.6,128,750.8,127z M702.3,124.7c0,1.9,0.4,3.4,1.2,4.4
		c0.6,0.8,1.5,1.3,2.5,1.4c0.3,0.1,0.6,0.1,1,0.1c0.5,0,0.9-0.1,1.4-0.2c0.8-0.2,1.5-0.7,2-1.3c0.3-0.5,0.6-1,0.8-1.5s0.3-1,0.3-1.5
		c0.1-0.5,0.1-0.9,0.1-1.4s0-1.1-0.1-1.6c-0.1-0.6-0.2-1.1-0.4-1.5c-0.2-0.5-0.4-0.9-0.7-1.3c-0.6-0.7-1.4-1.2-2.3-1.4
		c-0.4-0.1-0.7-0.1-1.1-0.1c-0.5,0-0.9,0-1.4,0.2c-0.8,0.2-1.5,0.7-2,1.3C702.7,121.3,702.3,122.8,702.3,124.7z M739.4,124.7
		c0,1.9,0.4,3.4,1.2,4.4c0.6,0.8,1.5,1.3,2.5,1.4c0.3,0.1,0.6,0.1,1,0.1c0.5,0,0.9-0.1,1.4-0.2c0.8-0.2,1.5-0.7,2-1.3
		c0.3-0.5,0.6-1,0.8-1.5s0.3-1,0.3-1.5c0.1-0.5,0.1-0.9,0.1-1.4s0-1.1-0.1-1.6c-0.1-0.6-0.2-1.1-0.4-1.5c-0.2-0.5-0.4-0.9-0.7-1.3
		c-0.6-0.7-1.4-1.2-2.3-1.4c-0.4-0.1-0.7-0.1-1.1-0.1c-0.5,0-0.9,0-1.4,0.2c-0.8,0.2-1.5,0.7-2,1.3
		C739.8,121.3,739.4,122.8,739.4,124.7z M687.6,119.4c-0.3,0.2-0.6,0.5-0.9,0.8c-0.7,0.9-1,2.4-1,4.5c0,0.5,0,1,0.1,1.6
		c0.1,1.1,0.3,1.9,0.7,2.5c0.1,0.2,0.2,0.3,0.3,0.5c0.4,0.5,1,0.9,1.7,1.1c0.4,0.1,0.8,0.2,1.3,0.2c0.2,0,0.3,0,0.5,0
		c0.4,0,0.9-0.1,1.3-0.2c0.8-0.2,1.4-0.7,1.9-1.4c0.7-1,1-2.5,1-4.4c0-0.5,0-1-0.1-1.5c-0.1-1.2-0.5-2.2-1-2.9
		c-0.7-1-1.8-1.5-3.2-1.5C689.1,118.8,688.3,119,687.6,119.4z"/>
	<path id="top_labelLayer" vector-effect="non-scaling-stroke" class="st3" d="M740.6,279.1h-0.2c0.1,0.5,0.1,1.1,0.1,1.6
		c0,0.3,0,0.6,0,0.9v6.2h-2.3v-22h1.9l0.3,2.1h0.1c0.3-0.4,0.6-0.7,0.9-1c0.3-0.3,0.7-0.6,1.2-0.8c0.5-0.2,1.1-0.4,1.6-0.5
		c0.3,0,0.7-0.1,1-0.1c0.7,0,1.3,0.1,2,0.3c1.1,0.3,2,0.9,2.7,1.8c1.1,1.4,1.6,3.3,1.6,5.8c0,0.8-0.1,1.5-0.2,2.3
		c-0.1,0.8-0.4,1.5-0.7,2.2c-0.2,0.5-0.5,0.9-0.8,1.4c-0.9,1.2-2.3,1.9-3.9,2c-0.3,0-0.5,0-0.8,0c-1,0-1.9-0.2-2.7-0.5
		C741.8,280.4,741.1,279.8,740.6,279.1z M718.1,279.2v1.8c-0.1,0-0.2,0.1-0.3,0.1c-0.2,0.1-0.4,0.1-0.7,0.2H717
		c-0.5,0.1-0.9,0.1-1.3,0.1c-0.6,0-1.2-0.1-1.8-0.2c-1.8-0.5-2.6-2-2.6-4.4v-9h-2.2v-1.1l2.2-1l1-3.2h1.3v3.5h4.4v1.8h-4.4v8.9
		c0,0.3,0,0.5,0.1,0.8s0.1,0.6,0.3,0.8c0.1,0.2,0.2,0.3,0.3,0.5c0.4,0.5,1,0.7,1.8,0.7c0.4,0,0.7,0,1.1-0.1c0,0,0,0,0.1,0
		C717.6,279.3,717.9,279.2,718.1,279.2z M734,275.8c0.1-0.8,0.2-1.5,0.2-2.3c0-1-0.1-1.9-0.3-2.7c-0.3-1.1-0.8-2.2-1.6-3
		c-0.7-0.9-1.7-1.5-2.8-1.8c-0.7-0.2-1.5-0.3-2.3-0.3c-0.5,0-1.1,0-1.6,0.1c-1.4,0.2-2.6,0.9-3.5,1.9c-0.3,0.3-0.6,0.7-0.8,1.1
		c-0.7,1.2-1.1,2.8-1.1,4.7c0,0.6,0,1.2,0.1,1.9c0.1,0.8,0.4,1.6,0.7,2.3c0.1,0.1,0.1,0.2,0.2,0.3c0.5,1,1.3,1.8,2.3,2.4
		c1.1,0.6,2.3,1,3.6,1c0.5,0,1,0,1.6-0.1c1.4-0.2,2.7-0.9,3.6-2c0.3-0.3,0.5-0.7,0.8-1C733.6,277.5,733.9,276.7,734,275.8z
		 M722.7,273.5c0,1.9,0.4,3.4,1.2,4.4c0.6,0.8,1.5,1.3,2.5,1.4c0.3,0.1,0.6,0.1,1,0.1c0.5,0,0.9-0.1,1.4-0.2c0.8-0.2,1.5-0.7,2-1.3
		c0.3-0.5,0.6-1,0.8-1.5c0.1-0.5,0.3-1,0.3-1.5c0.1-0.5,0.1-0.9,0.1-1.4s0-1.1-0.1-1.6c-0.1-0.6-0.2-1.1-0.4-1.5
		c-0.2-0.5-0.4-0.9-0.7-1.3c-0.6-0.7-1.4-1.2-2.3-1.4c-0.4-0.1-0.7-0.1-1.1-0.1c-0.5,0-0.9,0-1.4,0.2c-0.8,0.2-1.5,0.7-2,1.3
		C723.1,270,722.7,271.5,722.7,273.5z M740.6,272.9v0.5c0,0.5,0,1,0.1,1.6c0.1,1.1,0.3,1.9,0.7,2.5c0.1,0.2,0.2,0.3,0.3,0.5
		c0.4,0.5,1,0.9,1.7,1.1c0.4,0.1,0.8,0.2,1.3,0.2c0.2,0,0.3,0,0.5,0c0.5,0,1-0.1,1.5-0.3c0.6-0.3,1.1-0.7,1.6-1.3
		c0.3-0.5,0.6-1,0.8-1.6c0.1-0.5,0.2-1,0.3-1.6c0-0.4,0-0.8,0-1.1c0-1.2-0.2-2.3-0.5-3.2c-0.2-0.4-0.4-0.8-0.6-1.2
		c-0.6-0.9-1.6-1.4-2.6-1.5c-0.2,0-0.3,0-0.5,0c-1.5,0-2.7,0.4-3.4,1.3c-0.6,0.8-1,2.1-1.1,3.7C740.6,272.7,740.6,272.8,740.6,272.9
		z"/>
</g>
<path class="st0" d="M584,212.7"/>
<path class="st0" d="M851.6,212.8"/>
<path class="st0" d="M586.5,62.5"/>
<path class="st0" d="M556.3,66.7"/>
<path class="st0" d="M564.8,66.7"/>
<path class="st0" d="M431.6,234.8"/>
</svg>
