G04 #@! TF.GenerationSoftware,KiCad,Pcbnew,8.0.3*
G04 #@! TF.CreationDate,2025-02-16T14:45:01-05:00*
G04 #@! TF.ProjectId,MEAP_Rev4c,4d454150-5f52-4657-9634-632e6b696361,rev?*
G04 #@! TF.SameCoordinates,Original*
G04 #@! TF.FileFunction,Copper,L2,Bot*
G04 #@! TF.FilePolarity,Positive*
%FSLAX46Y46*%
G04 Gerber Fmt 4.6, Leading zero omitted, Abs format (unit mm)*
G04 Created by KiCad (PCBNEW 8.0.3) date 2025-02-16 14:45:01*
%MOMM*%
%LPD*%
G01*
G04 APERTURE LIST*
G04 Aperture macros list*
%AMRoundRect*
0 Rectangle with rounded corners*
0 $1 Rounding radius*
0 $2 $3 $4 $5 $6 $7 $8 $9 X,Y pos of 4 corners*
0 Add a 4 corners polygon primitive as box body*
4,1,4,$2,$3,$4,$5,$6,$7,$8,$9,$2,$3,0*
0 Add four circle primitives for the rounded corners*
1,1,$1+$1,$2,$3*
1,1,$1+$1,$4,$5*
1,1,$1+$1,$6,$7*
1,1,$1+$1,$8,$9*
0 Add four rect primitives between the rounded corners*
20,1,$1+$1,$2,$3,$4,$5,0*
20,1,$1+$1,$4,$5,$6,$7,0*
20,1,$1+$1,$6,$7,$8,$9,0*
20,1,$1+$1,$8,$9,$2,$3,0*%
G04 Aperture macros list end*
G04 #@! TA.AperFunction,ComponentPad*
%ADD10C,2.000000*%
G04 #@! TD*
G04 #@! TA.AperFunction,ComponentPad*
%ADD11R,1.700000X1.700000*%
G04 #@! TD*
G04 #@! TA.AperFunction,ComponentPad*
%ADD12O,1.700000X1.700000*%
G04 #@! TD*
G04 #@! TA.AperFunction,ComponentPad*
%ADD13O,2.800000X1.800000*%
G04 #@! TD*
G04 #@! TA.AperFunction,ComponentPad*
%ADD14R,1.600000X1.600000*%
G04 #@! TD*
G04 #@! TA.AperFunction,ComponentPad*
%ADD15O,1.600000X1.600000*%
G04 #@! TD*
G04 #@! TA.AperFunction,ComponentPad*
%ADD16O,3.500000X2.200000*%
G04 #@! TD*
G04 #@! TA.AperFunction,ComponentPad*
%ADD17R,2.500000X1.500000*%
G04 #@! TD*
G04 #@! TA.AperFunction,ComponentPad*
%ADD18O,2.500000X1.500000*%
G04 #@! TD*
G04 #@! TA.AperFunction,ComponentPad*
%ADD19O,1.200000X1.900000*%
G04 #@! TD*
G04 #@! TA.AperFunction,ComponentPad*
%ADD20C,1.450000*%
G04 #@! TD*
G04 #@! TA.AperFunction,SMDPad,CuDef*
%ADD21RoundRect,0.250000X0.290580X-0.735230X0.673602X-0.413836X-0.290580X0.735230X-0.673602X0.413836X0*%
G04 #@! TD*
G04 #@! TA.AperFunction,SMDPad,CuDef*
%ADD22RoundRect,0.250000X-0.290580X0.735230X-0.673602X0.413836X0.290580X-0.735230X0.673602X-0.413836X0*%
G04 #@! TD*
G04 #@! TA.AperFunction,SMDPad,CuDef*
%ADD23RoundRect,0.237500X-0.250000X-0.237500X0.250000X-0.237500X0.250000X0.237500X-0.250000X0.237500X0*%
G04 #@! TD*
G04 #@! TA.AperFunction,SMDPad,CuDef*
%ADD24RoundRect,0.150000X-0.825000X-0.150000X0.825000X-0.150000X0.825000X0.150000X-0.825000X0.150000X0*%
G04 #@! TD*
G04 #@! TA.AperFunction,SMDPad,CuDef*
%ADD25RoundRect,0.237500X0.250000X0.237500X-0.250000X0.237500X-0.250000X-0.237500X0.250000X-0.237500X0*%
G04 #@! TD*
G04 #@! TA.AperFunction,SMDPad,CuDef*
%ADD26RoundRect,0.237500X0.204960X0.277304X-0.287443X0.190480X-0.204960X-0.277304X0.287443X-0.190480X0*%
G04 #@! TD*
G04 #@! TA.AperFunction,SMDPad,CuDef*
%ADD27RoundRect,0.237500X0.038849X0.342632X-0.344173X0.021239X-0.038849X-0.342632X0.344173X-0.021239X0*%
G04 #@! TD*
G04 #@! TA.AperFunction,SMDPad,CuDef*
%ADD28RoundRect,0.150000X-0.150000X0.825000X-0.150000X-0.825000X0.150000X-0.825000X0.150000X0.825000X0*%
G04 #@! TD*
G04 #@! TA.AperFunction,SMDPad,CuDef*
%ADD29RoundRect,0.150000X0.645206X-0.535569X-0.415393X0.728405X-0.645206X0.535569X0.415393X-0.728405X0*%
G04 #@! TD*
G04 #@! TA.AperFunction,SMDPad,CuDef*
%ADD30RoundRect,0.237500X0.137672X-0.316153X0.308682X0.153693X-0.137672X0.316153X-0.308682X-0.153693X0*%
G04 #@! TD*
G04 #@! TA.AperFunction,ViaPad*
%ADD31C,0.800000*%
G04 #@! TD*
G04 #@! TA.AperFunction,Conductor*
%ADD32C,0.406400*%
G04 #@! TD*
G04 #@! TA.AperFunction,Conductor*
%ADD33C,0.812800*%
G04 #@! TD*
G04 #@! TA.AperFunction,Conductor*
%ADD34C,0.250000*%
G04 #@! TD*
G04 #@! TA.AperFunction,Conductor*
%ADD35C,0.254000*%
G04 #@! TD*
G04 APERTURE END LIST*
D10*
X40120000Y-97530000D03*
D11*
X51540000Y-48700000D03*
D12*
X54240000Y-48700000D03*
X56940000Y-48700000D03*
D10*
X25520000Y-52540000D03*
D11*
X35470000Y-39930000D03*
D12*
X35470000Y-42470000D03*
D10*
X41260000Y-71250000D03*
X47650000Y-69930000D03*
D11*
X40640000Y-48700000D03*
D12*
X43340000Y-48700000D03*
X46040000Y-48700000D03*
D10*
X53360000Y-73890000D03*
X47080000Y-98380000D03*
D11*
X40640000Y-55100000D03*
D12*
X43340000Y-55100000D03*
X46040000Y-55100000D03*
D13*
X48300000Y-25430000D03*
X46300000Y-23630000D03*
X46300000Y-17530000D03*
X48300000Y-19930000D03*
X46300000Y-29130000D03*
D11*
X51540000Y-55100000D03*
D12*
X54240000Y-55100000D03*
X56940000Y-55100000D03*
D10*
X28700000Y-100360000D03*
D11*
X55220000Y-29660000D03*
D12*
X57760000Y-29660000D03*
X55220000Y-32200000D03*
X57760000Y-32200000D03*
X55220000Y-34740000D03*
X57760000Y-34740000D03*
X55220000Y-37280000D03*
X57760000Y-37280000D03*
D11*
X40640000Y-42300000D03*
D12*
X43340000Y-42300000D03*
X46040000Y-42300000D03*
D10*
X50060000Y-108580000D03*
D13*
X20540001Y-106260001D03*
X22540000Y-108060000D03*
X22540000Y-114160000D03*
X20540001Y-111760001D03*
X22540000Y-102560000D03*
D11*
X22690000Y-68810000D03*
D12*
X22690000Y-66270000D03*
X22689997Y-63730001D03*
D11*
X57750000Y-87040000D03*
D12*
X55210000Y-87040000D03*
X57750000Y-84500000D03*
X55210002Y-84500001D03*
X57749997Y-81960001D03*
X55210001Y-81960002D03*
X57750000Y-79420000D03*
X55209999Y-79420001D03*
D14*
X30900001Y-32460000D03*
D15*
X30900001Y-35000000D03*
X38520000Y-35000000D03*
X38520001Y-32460000D03*
D10*
X26450000Y-49460000D03*
X54290000Y-70350000D03*
D11*
X40640000Y-61500000D03*
D12*
X43340000Y-61500000D03*
X46040000Y-61500000D03*
D10*
X58050000Y-74110000D03*
D11*
X19750000Y-81040000D03*
D12*
X19750000Y-83580000D03*
X19750000Y-86120000D03*
D13*
X24300000Y-25385000D03*
X22300000Y-23585000D03*
X22300000Y-17485000D03*
X24300000Y-19885000D03*
X22300000Y-29085000D03*
D10*
X28380000Y-73080000D03*
X28670000Y-103490000D03*
D11*
X28210000Y-87180000D03*
D12*
X28210000Y-89720000D03*
X28210000Y-92260000D03*
D10*
X50910000Y-71990000D03*
D11*
X51540000Y-61500000D03*
D12*
X54240000Y-61500000D03*
X56940000Y-61500000D03*
D11*
X51540000Y-42300000D03*
D12*
X54240000Y-42300000D03*
X56940000Y-42300000D03*
D10*
X46580000Y-66170000D03*
D16*
X20740000Y-55140000D03*
X20740000Y-46940000D03*
D17*
X20740000Y-53040000D03*
D18*
X20740001Y-51039999D03*
X20740000Y-49040000D03*
D10*
X51580000Y-68800000D03*
D19*
X40529999Y-113332000D03*
D20*
X41529999Y-110632000D03*
X46529999Y-110632000D03*
D19*
X47529999Y-113332000D03*
D13*
X36560000Y-25420000D03*
X34560000Y-23620000D03*
X34560000Y-17520000D03*
X36560000Y-19920000D03*
X34560000Y-29120000D03*
D10*
X24420000Y-85520000D03*
X57510000Y-70580000D03*
D11*
X22540003Y-41299999D03*
D12*
X22540003Y-38759999D03*
X22540003Y-36219999D03*
D10*
X49680000Y-66220000D03*
X40780000Y-107810000D03*
D11*
X22640000Y-95310000D03*
D12*
X22640000Y-92770000D03*
X22640000Y-90230000D03*
D10*
X43540000Y-66140000D03*
X24390000Y-82450000D03*
X34170000Y-71480000D03*
D21*
X52974795Y-95764212D03*
X44890000Y-83920000D03*
D22*
X54947493Y-94148085D03*
D23*
X51377502Y-40170001D03*
X53202498Y-40169999D03*
D22*
X51174592Y-97274764D03*
D24*
X47630003Y-84860000D03*
X47630002Y-83590000D03*
X47630000Y-82320000D03*
X47630003Y-81050000D03*
X47630000Y-79780003D03*
X47630001Y-78509997D03*
X47630003Y-77240000D03*
X52580003Y-77240000D03*
X52580004Y-78510000D03*
X52580006Y-79780000D03*
X52580003Y-81050000D03*
X52580006Y-82319997D03*
X52580005Y-83590003D03*
X52580003Y-84860000D03*
D25*
X44604998Y-50500000D03*
X42780000Y-50500000D03*
D22*
X56709660Y-92747777D03*
D26*
X44670000Y-52180000D03*
X42872728Y-52496908D03*
D23*
X53690000Y-46540000D03*
X55514996Y-46539998D03*
D21*
X39799501Y-88152273D03*
D27*
X44980000Y-57730000D03*
X43581970Y-58903088D03*
D23*
X53685004Y-52940002D03*
X55510000Y-52940000D03*
D22*
X49382047Y-98778886D03*
D28*
X41250000Y-32484999D03*
X42519999Y-32485000D03*
X43790000Y-32485003D03*
X45059997Y-32484997D03*
X46330001Y-32484999D03*
X47600001Y-32485000D03*
X48870000Y-32484999D03*
X50139999Y-32485000D03*
X50140000Y-37435001D03*
X48870001Y-37435000D03*
X47600000Y-37434997D03*
X46330003Y-37435003D03*
X45059999Y-37435001D03*
X43789999Y-37435000D03*
X42520000Y-37435001D03*
X41250001Y-37435000D03*
D23*
X53685004Y-59350002D03*
X55510000Y-59350000D03*
D22*
X41556474Y-86730215D03*
D29*
X51521444Y-91200762D03*
X50548570Y-92017103D03*
X49575694Y-92833442D03*
X48602816Y-93649784D03*
X47629940Y-94466125D03*
X46657063Y-95282463D03*
X45684187Y-96098804D03*
X44711311Y-96915144D03*
X41529514Y-93123224D03*
X42502388Y-92306883D03*
X43475264Y-91490544D03*
X44448142Y-90674202D03*
X45421018Y-89857861D03*
X46393895Y-89041523D03*
X47366771Y-88225182D03*
X48339647Y-87408842D03*
D22*
X43211129Y-85341793D03*
D30*
X46245812Y-46194936D03*
X46870000Y-44480000D03*
D31*
X48790000Y-51860000D03*
X54690000Y-77430000D03*
X45560000Y-93850000D03*
X32886533Y-67015122D03*
X29520000Y-60630000D03*
X23810000Y-62420000D03*
X56630000Y-96010000D03*
X30490000Y-62850000D03*
X38390000Y-44430000D03*
X40470000Y-45220000D03*
X47940000Y-58260000D03*
X41120000Y-35450000D03*
X39530000Y-39490000D03*
X30630000Y-43870000D03*
X53280000Y-60350000D03*
X32640000Y-85420000D03*
X43270000Y-81270000D03*
X43250000Y-108730000D03*
X43170000Y-80200000D03*
X44330000Y-108380000D03*
X47160000Y-91110000D03*
X52840000Y-92680000D03*
X27710000Y-69080000D03*
X20500000Y-60310000D03*
X19374317Y-60800000D03*
X26940000Y-61380000D03*
X28140000Y-56320000D03*
X31820000Y-56160000D03*
X26480000Y-59370000D03*
X29890000Y-80020000D03*
X40170000Y-89680000D03*
X44250000Y-34130000D03*
X42460000Y-76150000D03*
X33910000Y-80520000D03*
X39200000Y-89780000D03*
X35990000Y-75790000D03*
X50990000Y-32350000D03*
X31370000Y-74320000D03*
X38069327Y-94800673D03*
X44400000Y-76530000D03*
X39830000Y-91000000D03*
X51910000Y-33340000D03*
X26210000Y-47430000D03*
X38380000Y-66700000D03*
X34440000Y-81770000D03*
X37070000Y-83670000D03*
X40970000Y-64270000D03*
X40410000Y-66120000D03*
X36230000Y-83130000D03*
X36914997Y-77000000D03*
X38184997Y-76580000D03*
X33630000Y-79253868D03*
X42090000Y-98870000D03*
X45620000Y-81190000D03*
X37900000Y-80890000D03*
X41160000Y-75930000D03*
X49990000Y-77970000D03*
D32*
X36281905Y-94788095D02*
X37960000Y-96030000D01*
X34390000Y-90880000D02*
X36281905Y-94788095D01*
X37960000Y-96030000D02*
X40120000Y-97530000D01*
X48870000Y-32484999D02*
X47600001Y-32485000D01*
D33*
X51982247Y-56590000D02*
X51540000Y-55100000D01*
D32*
X45684187Y-96098804D02*
X46657063Y-95282462D01*
D33*
X35237721Y-65647721D02*
X35870000Y-65280000D01*
X29550000Y-65220000D02*
X32886533Y-67015122D01*
X52130000Y-57370000D02*
X51982247Y-56590000D01*
X51700000Y-48700000D02*
X48790000Y-51860000D01*
D32*
X52018687Y-37938687D02*
X51150365Y-38950365D01*
X51530000Y-30490000D02*
X52240000Y-31750000D01*
X52018687Y-37938687D02*
X52289033Y-37339033D01*
X44711311Y-96915144D02*
X45684187Y-96098804D01*
D33*
X38500000Y-110080000D02*
X39320000Y-111490000D01*
X39380971Y-62730971D02*
X40640000Y-61500000D01*
X24281421Y-67700000D02*
X24320000Y-64890000D01*
X51982247Y-56590000D02*
X51700000Y-55100000D01*
X24797158Y-101880000D02*
X23680000Y-99680000D01*
X22640000Y-95310000D02*
X28210000Y-92260000D01*
X54690000Y-77430000D02*
X52580003Y-77240000D01*
D32*
X52289033Y-37339033D02*
X52537436Y-36050000D01*
X50139999Y-32485000D02*
X48870000Y-32484999D01*
D33*
X24680000Y-64988032D02*
X29550000Y-65220000D01*
X51700000Y-61500000D02*
X51889662Y-60050000D01*
D32*
X51150365Y-38950365D02*
X50800000Y-39200000D01*
X52640000Y-34550000D02*
X52537436Y-36050000D01*
X50802542Y-41387458D02*
X51700000Y-42300000D01*
D33*
X25488007Y-103740000D02*
X24797158Y-101880000D01*
X36299784Y-108040216D02*
X38500000Y-110080000D01*
D32*
X50170000Y-30750000D02*
X51530000Y-30490000D01*
D33*
X26161226Y-110471226D02*
X22540000Y-114160000D01*
X32886533Y-67015122D02*
X35237721Y-65647721D01*
D32*
X50800000Y-39200000D02*
X50510000Y-39910000D01*
X50139999Y-32485000D02*
X50170000Y-30750000D01*
X52660000Y-32930000D02*
X52640000Y-34550000D01*
X46657063Y-95282462D02*
X45560000Y-93850000D01*
D33*
X51889662Y-60050000D02*
X51540000Y-61500000D01*
X22850000Y-97450000D02*
X22640000Y-95310000D01*
D32*
X50510000Y-40660000D02*
X50802542Y-41387458D01*
D33*
X26611903Y-110251903D02*
X26161226Y-110471226D01*
X23680000Y-99680000D02*
X22850000Y-97450000D01*
X22690000Y-68810000D02*
X23740000Y-68625170D01*
X52010000Y-59130000D02*
X52130000Y-57370000D01*
X31390000Y-108206992D02*
X26611903Y-110251903D01*
X36299784Y-108040216D02*
X34760000Y-107618178D01*
X38071174Y-63801174D02*
X35870000Y-65280000D01*
X34760000Y-107618178D02*
X33660000Y-107606645D01*
X23740000Y-68625170D02*
X24281421Y-67700000D01*
X33660000Y-107606645D02*
X31390000Y-108206992D01*
X39380971Y-62730971D02*
X38071174Y-63801174D01*
D32*
X29520000Y-60630000D02*
X35237721Y-65647721D01*
D33*
X25488007Y-103740000D02*
X26161226Y-110471226D01*
X28210000Y-87180000D02*
X28210000Y-89720000D01*
X39320000Y-111490000D02*
X40529999Y-113332000D01*
X24320000Y-64890000D02*
X23810000Y-62420000D01*
D32*
X50510000Y-39910000D02*
X50510000Y-40660000D01*
X52240000Y-31750000D02*
X52660000Y-32930000D01*
D33*
X28210000Y-89720000D02*
X28210000Y-92260000D01*
X24680000Y-64988032D02*
X24320000Y-64890000D01*
X51889662Y-60050000D02*
X52010000Y-59130000D01*
D32*
X40210000Y-39804781D02*
X39530000Y-39490000D01*
X53280000Y-60350000D02*
X53685004Y-59350002D01*
X52430000Y-40870000D02*
X51377502Y-40170001D01*
X41847500Y-45700494D02*
X44140000Y-46850000D01*
D33*
X19470000Y-39310000D02*
X22540003Y-36219999D01*
D32*
X40760000Y-38610000D02*
X41250001Y-37435000D01*
X53730000Y-89480000D02*
X50970000Y-88270000D01*
X53050000Y-49790000D02*
X53020000Y-48530000D01*
X53685004Y-52940002D02*
X53050000Y-49790000D01*
X44140000Y-46850000D02*
X44480000Y-47680000D01*
X41847500Y-45700494D02*
X40470000Y-45220000D01*
X38458793Y-43860000D02*
X38459745Y-41360000D01*
D33*
X18150000Y-43760000D02*
X19470000Y-39310000D01*
D32*
X50970000Y-88270000D02*
X48339647Y-87408842D01*
X44710000Y-49500000D02*
X44604998Y-50500000D01*
X53690000Y-46540000D02*
X53268597Y-44410000D01*
X57208157Y-95488157D02*
X56630000Y-96010000D01*
X40580000Y-39676083D02*
X40654994Y-39649998D01*
X53020000Y-48530000D02*
X53240000Y-47480000D01*
D33*
X18150000Y-50850000D02*
X18150000Y-43760000D01*
D32*
X44980000Y-57730000D02*
X47940000Y-58260000D01*
D34*
X46353125Y-85126875D02*
X46550000Y-85560000D01*
D33*
X18663481Y-56566519D02*
X18237128Y-55720000D01*
X18663481Y-56566519D02*
X19430000Y-56964227D01*
D32*
X53206033Y-54110000D02*
X53685004Y-52940002D01*
X38906093Y-40446093D02*
X39850000Y-39930000D01*
D33*
X26950000Y-62770000D02*
X24850000Y-60910000D01*
D32*
X53685004Y-59350002D02*
X53080000Y-56000000D01*
D33*
X24850000Y-60910000D02*
X24006818Y-58300000D01*
D32*
X57290000Y-91770000D02*
X56060000Y-90830000D01*
X41120000Y-35450000D02*
X41250001Y-37435000D01*
D33*
X22799786Y-62010000D02*
X22689997Y-63730001D01*
D32*
X38459745Y-41360000D02*
X38906093Y-40446093D01*
D34*
X49050000Y-81710000D02*
X46860000Y-81680000D01*
D33*
X20530000Y-56940000D02*
X22870000Y-56940000D01*
D32*
X53080000Y-56000000D02*
X53047466Y-55050000D01*
X56060000Y-90830000D02*
X53730000Y-89480000D01*
X53240000Y-47480000D02*
X53690000Y-46540000D01*
X58090000Y-93610000D02*
X58050000Y-92740000D01*
X57208157Y-95488157D02*
X58090000Y-93610000D01*
X52737866Y-41312134D02*
X52430000Y-40870000D01*
D34*
X48339647Y-87408842D02*
X46550000Y-85560000D01*
D32*
X44980000Y-57730000D02*
X44677674Y-54000000D01*
D33*
X30490000Y-62850000D02*
X26950000Y-62770000D01*
D32*
X39850000Y-39930000D02*
X40210000Y-39804781D01*
X40210000Y-39804781D02*
X40580000Y-39676083D01*
X30630000Y-43870000D02*
X27160000Y-40160000D01*
X44480000Y-47680000D02*
X44710000Y-49500000D01*
X58050000Y-92740000D02*
X57290000Y-91770000D01*
X44677674Y-54000000D02*
X44670000Y-52180000D01*
D34*
X46187989Y-82030000D02*
X46450000Y-81748334D01*
D33*
X23559610Y-61289610D02*
X24850000Y-60910000D01*
D32*
X44670000Y-52180000D02*
X44604998Y-50500000D01*
X44140000Y-46850000D02*
X46245812Y-46194936D01*
D33*
X22870000Y-56940000D02*
X23608706Y-57481294D01*
D34*
X46169429Y-84230000D02*
X46187989Y-82030000D01*
D33*
X22799786Y-62010000D02*
X23559610Y-61289610D01*
D34*
X46353125Y-85126875D02*
X46169429Y-84230000D01*
D32*
X53047466Y-55050000D02*
X53206033Y-54110000D01*
D34*
X47630003Y-77240000D02*
X49080000Y-77920000D01*
D33*
X23608706Y-57481294D02*
X24006818Y-58300000D01*
X19430000Y-56964227D02*
X20530000Y-56940000D01*
D32*
X53268597Y-44410000D02*
X52737866Y-41312134D01*
X40654994Y-39649998D02*
X40760000Y-38610000D01*
D33*
X18237128Y-55720000D02*
X18150000Y-50850000D01*
D32*
X27160000Y-40160000D02*
X22540003Y-36219999D01*
D34*
X46860000Y-81680000D02*
X46450000Y-81748334D01*
D32*
X38390000Y-44430000D02*
X38458793Y-43860000D01*
D34*
X49080000Y-77920000D02*
X49050000Y-81710000D01*
D32*
X33011105Y-85988895D02*
X34390000Y-90880000D01*
X33011105Y-85988895D02*
X32640000Y-85420000D01*
X37150000Y-88180000D02*
X37340000Y-87560000D01*
X43250000Y-108730000D02*
X43270000Y-98580000D01*
X43270000Y-81270000D02*
X43270000Y-81820000D01*
X37334061Y-89635939D02*
X37150000Y-89040000D01*
X42240000Y-96550000D02*
X41962734Y-96097266D01*
X37150000Y-89040000D02*
X37150000Y-88180000D01*
X38521419Y-91378581D02*
X37334061Y-89635939D01*
X43090000Y-82000000D02*
X39400000Y-85020000D01*
X41962734Y-96097266D02*
X38521419Y-91378581D01*
X43270000Y-81820000D02*
X43090000Y-82000000D01*
X37340000Y-87560000D02*
X37880000Y-86810000D01*
X43270000Y-98580000D02*
X42240000Y-96550000D01*
X37989178Y-86619178D02*
X39400000Y-85020000D01*
X37880000Y-86810000D02*
X37989178Y-86619178D01*
X41784166Y-94795834D02*
X39209753Y-91420247D01*
X44120319Y-80950000D02*
X43847260Y-80552740D01*
X39209753Y-91420247D02*
X37825863Y-89164137D01*
X37700000Y-88690000D02*
X37740000Y-88020000D01*
X44070725Y-82230725D02*
X44120319Y-80950000D01*
X37740000Y-88020000D02*
X37890000Y-87770000D01*
X41784166Y-94795834D02*
X43870000Y-97870000D01*
X37890000Y-87770000D02*
X38794794Y-86534794D01*
X43847260Y-80552740D02*
X43170000Y-80200000D01*
X43870000Y-97870000D02*
X44330000Y-108380000D01*
X44070725Y-82230725D02*
X38794794Y-86534794D01*
X37825863Y-89164137D02*
X37700000Y-88690000D01*
X52840000Y-92680000D02*
X53076035Y-91380000D01*
X52780000Y-89940000D02*
X51730000Y-89220000D01*
X49100000Y-89530000D02*
X47160000Y-91110000D01*
X52948917Y-90161083D02*
X52780000Y-89940000D01*
X50460000Y-89310000D02*
X49100000Y-89530000D01*
X53076035Y-91380000D02*
X52948917Y-90161083D01*
X51730000Y-89220000D02*
X50460000Y-89310000D01*
X27710000Y-69080000D02*
X28240000Y-70700000D01*
X28240000Y-70700000D02*
X28380000Y-73080000D01*
X20500000Y-60310000D02*
X20243905Y-63660000D01*
X21713337Y-79080000D02*
X21205659Y-77254341D01*
X21205659Y-77254341D02*
X21005063Y-76914937D01*
X20858610Y-88174122D02*
X21382108Y-87080583D01*
X21382108Y-87080583D02*
X21977941Y-85430000D01*
X20540001Y-106260001D02*
X20745346Y-100360000D01*
X21977941Y-85430000D02*
X21713337Y-79080000D01*
X20710000Y-90220000D02*
X20858610Y-88174122D01*
X21005063Y-76914937D02*
X19873912Y-74050000D01*
X19873912Y-74050000D02*
X19401862Y-70810000D01*
X19401862Y-70810000D02*
X20243905Y-63660000D01*
X20745346Y-100360000D02*
X20110000Y-98050000D01*
X20110000Y-98050000D02*
X20710000Y-90220000D01*
X20540001Y-111760001D02*
X19276825Y-108300000D01*
X18745561Y-106040000D02*
X18755021Y-103620000D01*
X20859492Y-86999492D02*
X21110514Y-86100000D01*
X21000000Y-79330000D02*
X20530000Y-77980000D01*
X20530000Y-77980000D02*
X19843701Y-76636299D01*
X21140000Y-83100000D02*
X21000000Y-79330000D01*
X18690641Y-69630000D02*
X19374317Y-60800000D01*
X20280000Y-88210000D02*
X20859492Y-86999492D01*
X18755021Y-103620000D02*
X18954581Y-100660000D01*
X19037246Y-99840000D02*
X19097042Y-99450000D01*
X18673808Y-70060000D02*
X18690641Y-69630000D01*
X20224953Y-88920000D02*
X20280000Y-88210000D01*
X21110514Y-86100000D02*
X21140000Y-83100000D01*
X19843701Y-76636299D02*
X18870000Y-72140000D01*
X18822544Y-106780000D02*
X18745561Y-106040000D01*
X18870000Y-72140000D02*
X18673808Y-70060000D01*
X18822544Y-106780000D02*
X19276825Y-108300000D01*
X19097042Y-99450000D02*
X20224953Y-88920000D01*
X19037246Y-99840000D02*
X18954581Y-100660000D01*
D35*
X25755420Y-58210000D02*
X26403263Y-57483263D01*
X25517260Y-59430000D02*
X25598931Y-58710000D01*
X26403263Y-57483263D02*
X27854341Y-56644341D01*
X27854341Y-56644341D02*
X28140000Y-56320000D01*
X25570959Y-59920000D02*
X25963474Y-60756526D01*
X25598931Y-58710000D02*
X25755420Y-58210000D01*
X26940000Y-61380000D02*
X25963474Y-60756526D01*
X25570959Y-59920000D02*
X25517260Y-59430000D01*
D32*
X30180000Y-57090000D02*
X29358634Y-57788634D01*
X31820000Y-56160000D02*
X30180000Y-57090000D01*
X26480000Y-59370000D02*
X29358634Y-57788634D01*
D34*
X58960000Y-85720000D02*
X57800000Y-85720000D01*
X56710000Y-85800000D02*
X56200000Y-86370000D01*
X47630003Y-84860000D02*
X51100000Y-86830000D01*
X57800000Y-85720000D02*
X56710000Y-85800000D01*
X59070000Y-88050000D02*
X59020000Y-86500000D01*
X51100000Y-86830000D02*
X54510000Y-89000000D01*
X56200000Y-86370000D02*
X55210000Y-87040000D01*
X56790000Y-89220000D02*
X58500000Y-88650000D01*
X59020000Y-86500000D02*
X58960000Y-85720000D01*
X54510000Y-89000000D02*
X56790000Y-89220000D01*
X58500000Y-88650000D02*
X59070000Y-88050000D01*
X52580006Y-82319997D02*
X54280000Y-83300000D01*
X55810000Y-83380000D02*
X57749997Y-81960001D01*
X54280000Y-83300000D02*
X55810000Y-83380000D01*
X55210002Y-84500001D02*
X52580005Y-83590003D01*
X55960000Y-85780000D02*
X57750000Y-84500000D01*
X52580003Y-84860000D02*
X54430000Y-85820000D01*
X54430000Y-85820000D02*
X55960000Y-85780000D01*
X49720169Y-84919831D02*
X47630002Y-83590000D01*
X53834172Y-87655828D02*
X54110000Y-87910000D01*
X54110000Y-87910000D02*
X54990000Y-88510000D01*
X53834172Y-87655828D02*
X49720169Y-84919831D01*
X54990000Y-88510000D02*
X56910000Y-88510000D01*
X56910000Y-88510000D02*
X57750000Y-87040000D01*
X54620000Y-80700000D02*
X56990000Y-80700000D01*
X56990000Y-80700000D02*
X57750000Y-79420000D01*
X52580006Y-79780000D02*
X54620000Y-80700000D01*
D32*
X46590000Y-64000000D02*
X47710000Y-63060000D01*
D34*
X40830000Y-89680000D02*
X43475264Y-91490544D01*
D32*
X48930000Y-55960000D02*
X47550000Y-54100000D01*
X33910000Y-80520000D02*
X30790000Y-80134451D01*
X43540000Y-66140000D02*
X44801518Y-65271518D01*
X44920000Y-73550000D02*
X44900000Y-70540000D01*
X46524080Y-53052100D02*
X47550000Y-54100000D01*
X47710000Y-63060000D02*
X48460478Y-62080000D01*
X44830000Y-67380000D02*
X43540000Y-66140000D01*
X48020000Y-49280000D02*
X48318669Y-47610000D01*
X44900000Y-68000000D02*
X44830000Y-67380000D01*
X46445058Y-51140624D02*
X46524080Y-53052100D01*
X47600000Y-37434997D02*
X46768135Y-35731865D01*
X48270000Y-45690000D02*
X48318669Y-47610000D01*
X42460000Y-76150000D02*
X44390000Y-74710000D01*
X49659317Y-57980000D02*
X49710000Y-57640000D01*
X48010000Y-39130000D02*
X47600000Y-37434997D01*
X48460478Y-62080000D02*
X49659317Y-57980000D01*
X46768135Y-35731865D02*
X45826596Y-35023404D01*
X44801518Y-65271518D02*
X46590000Y-64000000D01*
X44390000Y-74710000D02*
X44920000Y-73550000D01*
X49710000Y-57640000D02*
X48930000Y-55960000D01*
X48010000Y-39130000D02*
X48270000Y-45690000D01*
X30790000Y-80134451D02*
X29890000Y-80020000D01*
X46600776Y-50870776D02*
X46445058Y-51140624D01*
X44900000Y-70540000D02*
X44900000Y-68000000D01*
X46600776Y-50870776D02*
X48020000Y-49280000D01*
X45826596Y-35023404D02*
X44250000Y-34130000D01*
D34*
X40830000Y-89680000D02*
X40170000Y-89680000D01*
D32*
X43656373Y-76226373D02*
X44738208Y-75348208D01*
X48870001Y-37435000D02*
X48790000Y-42140000D01*
X50569270Y-34069270D02*
X50957778Y-32930000D01*
X45680000Y-72790000D02*
X45570000Y-70350000D01*
X50086457Y-58323584D02*
X50226898Y-57930000D01*
X50203356Y-57120000D02*
X49225273Y-55344727D01*
X42540000Y-76940000D02*
X43370000Y-76590000D01*
X50957778Y-32930000D02*
X50990000Y-32350000D01*
X48586829Y-63810000D02*
X46580000Y-66170000D01*
X45558477Y-69320000D02*
X45842983Y-68090000D01*
X47751460Y-53468540D02*
X47370000Y-53060000D01*
X45470000Y-74340000D02*
X45680000Y-72790000D01*
X50258835Y-57300000D02*
X50203356Y-57120000D01*
X48810000Y-54710000D02*
X47751460Y-53468540D01*
X47020000Y-51310000D02*
X48509840Y-49517841D01*
X49301043Y-35970000D02*
X49974731Y-34894731D01*
X47370000Y-53060000D02*
X47060000Y-52750000D01*
X35990000Y-75790000D02*
X39510000Y-75840000D01*
X40100000Y-76220000D02*
X41110000Y-76940000D01*
X39510000Y-75840000D02*
X40100000Y-76220000D01*
D34*
X40992752Y-90797248D02*
X42502388Y-92306883D01*
D32*
X45842983Y-68090000D02*
X46580000Y-66170000D01*
X48790000Y-42140000D02*
X48893987Y-47400000D01*
X50226898Y-57930000D02*
X50258835Y-57300000D01*
X45010000Y-75190000D02*
X45470000Y-74340000D01*
X49974731Y-34894731D02*
X50569270Y-34069270D01*
X49225273Y-55344727D02*
X48810000Y-54710000D01*
X48870001Y-37435000D02*
X49301043Y-35970000D01*
X47060000Y-52750000D02*
X47020000Y-51310000D01*
X45570000Y-70350000D02*
X45558477Y-69320000D01*
X41110000Y-76940000D02*
X42540000Y-76940000D01*
X43370000Y-76590000D02*
X43656373Y-76226373D01*
X48509840Y-49517841D02*
X48893987Y-47400000D01*
X44738208Y-75348208D02*
X45010000Y-75190000D01*
D34*
X40992752Y-90797248D02*
X40010000Y-90340000D01*
D32*
X48586829Y-63810000D02*
X50086457Y-58323584D01*
D34*
X40010000Y-90340000D02*
X39200000Y-89780000D01*
X52580004Y-78510000D02*
X55209999Y-79420001D01*
X52580003Y-81050000D02*
X55210001Y-81960002D01*
D32*
X36920000Y-93620000D02*
X34670000Y-89710000D01*
X35540000Y-82820000D02*
X35982366Y-81490000D01*
X35770000Y-80700000D02*
X35982366Y-81490000D01*
X34670000Y-89710000D02*
X33920000Y-86420000D01*
X32747681Y-77142319D02*
X34160000Y-78750000D01*
X33920000Y-86420000D02*
X35540000Y-82820000D01*
X34160000Y-78750000D02*
X35770000Y-80700000D01*
X32590000Y-76790000D02*
X31800000Y-75310000D01*
X32747681Y-77142319D02*
X32590000Y-76790000D01*
X31800000Y-75310000D02*
X31370000Y-74320000D01*
X38069327Y-94800673D02*
X36920000Y-93620000D01*
X47728656Y-51268656D02*
X49040000Y-49670000D01*
X51910000Y-33340000D02*
X51618824Y-34330000D01*
X49750000Y-62250000D02*
X50530000Y-58650000D01*
X49680000Y-66220000D02*
X48278769Y-67578769D01*
X50850999Y-57790000D02*
X50845355Y-57250000D01*
X47000000Y-68100000D02*
X48278769Y-67578769D01*
X50949127Y-35909127D02*
X50140000Y-37435001D01*
X49750000Y-62250000D02*
X49310563Y-63780000D01*
X48737006Y-53630000D02*
X47950000Y-52890000D01*
X46310000Y-73040000D02*
X46310000Y-71420000D01*
X46168578Y-70540000D02*
X46178672Y-69600000D01*
X44400000Y-76530000D02*
X45760000Y-75330000D01*
X46370000Y-68810000D02*
X47000000Y-68100000D01*
X49535916Y-42330000D02*
X49635720Y-47060000D01*
X50845355Y-57250000D02*
X50390359Y-56289641D01*
X50390359Y-56289641D02*
X49079647Y-54080353D01*
X50949127Y-35909127D02*
X51618824Y-34330000D01*
X46370000Y-68810000D02*
X46178672Y-69600000D01*
X45760000Y-75330000D02*
X46310000Y-73040000D01*
X49079647Y-54080353D02*
X48737006Y-53630000D01*
X50530000Y-58650000D02*
X50850999Y-57790000D01*
D34*
X41529514Y-93123224D02*
X39830000Y-91000000D01*
D32*
X50140000Y-37435001D02*
X49535916Y-42330000D01*
X49310563Y-63780000D02*
X49680000Y-66220000D01*
X49040000Y-49670000D02*
X49635720Y-47060000D01*
X47620000Y-51450000D02*
X47728656Y-51268656D01*
X47950000Y-52890000D02*
X47600000Y-52250000D01*
X47600000Y-52250000D02*
X47620000Y-51450000D01*
X46310000Y-71420000D02*
X46168578Y-70540000D01*
X48602816Y-93649783D02*
X50350000Y-95900000D01*
X50350000Y-95900000D02*
X51174592Y-97274764D01*
X23450000Y-48700000D02*
X25080000Y-47740000D01*
X22512030Y-50372030D02*
X22080000Y-50642620D01*
X25080000Y-47740000D02*
X26210000Y-47430000D01*
X22080000Y-50642620D02*
X20740001Y-51039999D01*
X22512030Y-50372030D02*
X23450000Y-48700000D01*
X49575694Y-92833442D02*
X50780000Y-94220000D01*
X51340000Y-95030000D02*
X52974795Y-95764212D01*
X50780000Y-94220000D02*
X51120000Y-94840000D01*
X51120000Y-94840000D02*
X51340000Y-95030000D01*
X42141243Y-60350000D02*
X41969195Y-59610805D01*
X39130000Y-56730000D02*
X38690000Y-56030000D01*
X41664153Y-58985847D02*
X40917163Y-58152837D01*
X38350000Y-64930000D02*
X39420000Y-64200000D01*
X37202488Y-50247512D02*
X36115439Y-49194561D01*
X40917163Y-58152837D02*
X39130000Y-56730000D01*
X39420000Y-64200000D02*
X41185189Y-63165189D01*
X42003263Y-62413263D02*
X42160000Y-61370000D01*
X42150000Y-60890000D02*
X42141243Y-60350000D01*
X38690000Y-56030000D02*
X38430000Y-54890000D01*
X37951152Y-51320000D02*
X37202488Y-50247512D01*
X31290000Y-46040000D02*
X28720000Y-43380000D01*
X42160000Y-61370000D02*
X42150000Y-60890000D01*
X41969195Y-59610805D02*
X41664153Y-58985847D01*
X38430000Y-54890000D02*
X38310000Y-52380000D01*
X28720000Y-43380000D02*
X22540003Y-38759999D01*
X38380000Y-66700000D02*
X38350000Y-64930000D01*
X41185189Y-63165189D02*
X41569812Y-62839812D01*
X36115439Y-49194561D02*
X31290000Y-46040000D01*
X41569812Y-62839812D02*
X42003263Y-62413263D01*
X38310000Y-52380000D02*
X37951152Y-51320000D01*
X21390000Y-91420000D02*
X22640000Y-92770000D01*
X22640000Y-81820000D02*
X22770000Y-84870000D01*
X25790000Y-80240000D02*
X23870000Y-80260000D01*
X30870000Y-81342817D02*
X28210000Y-80720000D01*
X34440000Y-81770000D02*
X30870000Y-81342817D01*
X28210000Y-80720000D02*
X25790000Y-80240000D01*
X21410000Y-89140000D02*
X21390000Y-91420000D01*
X23870000Y-80260000D02*
X22640000Y-81820000D01*
X22770000Y-84870000D02*
X22130000Y-87070000D01*
X22130000Y-87070000D02*
X21410000Y-89140000D01*
X34632685Y-75990000D02*
X34735462Y-75075462D01*
X39440000Y-81640000D02*
X39740000Y-80280000D01*
X39740000Y-80280000D02*
X38770000Y-79610000D01*
X34953532Y-74703532D02*
X35986155Y-73426155D01*
X41150000Y-65810000D02*
X40970000Y-64270000D01*
X36931155Y-71850000D02*
X37677865Y-69894792D01*
X36387108Y-77952892D02*
X34632685Y-75990000D01*
X39740000Y-67630000D02*
X40911699Y-66901699D01*
X38770000Y-79610000D02*
X36387108Y-77952892D01*
X38780000Y-68560000D02*
X39740000Y-67630000D01*
X37381136Y-83241136D02*
X39440000Y-81640000D01*
X37070000Y-83670000D02*
X37381136Y-83241136D01*
X41150000Y-66650000D02*
X41150000Y-65810000D01*
X34735462Y-75075462D02*
X34953532Y-74703532D01*
X35986155Y-73426155D02*
X36931155Y-71850000D01*
X37677865Y-69894792D02*
X38780000Y-68560000D01*
X40911699Y-66901699D02*
X41150000Y-66650000D01*
X48969508Y-29049508D02*
X51120000Y-28820000D01*
X51120000Y-28820000D02*
X52410000Y-29100000D01*
X48390000Y-29480000D02*
X48969508Y-29049508D01*
X46330001Y-32484999D02*
X47320000Y-30760000D01*
X53410000Y-35550000D02*
X53354547Y-31319548D01*
X53354547Y-31319548D02*
X52410000Y-29100000D01*
X53202498Y-40169999D02*
X53410000Y-35550000D01*
X47320000Y-30760000D02*
X48390000Y-29480000D01*
X53202498Y-40169999D02*
X54240000Y-42300000D01*
X45070000Y-28023241D02*
X44833442Y-28243442D01*
X44580551Y-28630551D02*
X44567494Y-30920000D01*
X55325258Y-41504742D02*
X54412578Y-39690000D01*
X55660000Y-42660000D02*
X55514996Y-46539998D01*
X48260000Y-28400000D02*
X50490000Y-28210000D01*
X47308863Y-27891137D02*
X45960000Y-27776367D01*
X47308863Y-27891137D02*
X48260000Y-28400000D01*
X54020000Y-38110000D02*
X54412578Y-39690000D01*
X55660000Y-42660000D02*
X55325258Y-41504742D01*
X50490000Y-28210000D02*
X52950000Y-28470000D01*
X53760000Y-30690000D02*
X54020000Y-32200000D01*
X45059997Y-32484997D02*
X44567494Y-30920000D01*
X54240000Y-48700000D02*
X55514996Y-46539998D01*
X44833442Y-28243442D02*
X44580551Y-28630551D01*
X45960000Y-27776367D02*
X45070000Y-28023241D01*
X54020000Y-32200000D02*
X54020000Y-38110000D01*
X52950000Y-28470000D02*
X53760000Y-30690000D01*
X57520000Y-39570000D02*
X57030750Y-39029250D01*
X56530000Y-28170000D02*
X56566251Y-37550000D01*
X46670000Y-27145166D02*
X45190000Y-27360000D01*
X57030750Y-39029250D02*
X56566251Y-37550000D01*
X44257222Y-27887222D02*
X43260617Y-29540000D01*
X54950000Y-27790000D02*
X56530000Y-28170000D01*
X58324667Y-47270000D02*
X58420000Y-41440000D01*
X45190000Y-27360000D02*
X44257222Y-27887222D01*
X57093895Y-50853895D02*
X55510000Y-52940000D01*
X47390000Y-27270000D02*
X48430000Y-27750000D01*
X50180000Y-27650000D02*
X54950000Y-27790000D01*
X54240000Y-55100000D02*
X55510000Y-52940000D01*
X48430000Y-27750000D02*
X50180000Y-27650000D01*
X58270000Y-40690000D02*
X57520000Y-39570000D01*
X58014040Y-49450000D02*
X57093895Y-50853895D01*
X58193728Y-48880000D02*
X58324667Y-47270000D01*
X46670000Y-27145166D02*
X47390000Y-27270000D01*
X58014040Y-49450000D02*
X58193728Y-48880000D01*
X58420000Y-41440000D02*
X58270000Y-40690000D01*
X42519999Y-32485000D02*
X43260617Y-29540000D01*
X59270000Y-28870000D02*
X58700629Y-53780000D01*
X49520000Y-26900000D02*
X51610000Y-26710000D01*
X46740000Y-26470000D02*
X48140000Y-26760000D01*
X57987405Y-56877405D02*
X58527895Y-55660000D01*
X54934415Y-60324415D02*
X54240000Y-61500000D01*
X58527895Y-55660000D02*
X58700629Y-53780000D01*
X57280293Y-57940293D02*
X56480571Y-58730571D01*
X45120000Y-26510000D02*
X46740000Y-26470000D01*
X41250000Y-32484999D02*
X43130000Y-28000000D01*
X56480571Y-58730571D02*
X55510000Y-59350000D01*
X48140000Y-26760000D02*
X49520000Y-26900000D01*
X43130000Y-28000000D02*
X45120000Y-26510000D01*
X57280293Y-57940293D02*
X57987405Y-56877405D01*
X54934415Y-60324415D02*
X55510000Y-59350000D01*
X51610000Y-26710000D02*
X58770000Y-27460000D01*
X58770000Y-27460000D02*
X59270000Y-28870000D01*
X47441812Y-42310000D02*
X47375638Y-41730000D01*
X46870000Y-44480000D02*
X47219157Y-43560000D01*
X46401511Y-38830000D02*
X46541227Y-39718773D01*
X46886315Y-40423685D02*
X46541227Y-39718773D01*
X46401511Y-38830000D02*
X46330003Y-37435003D01*
X46886315Y-40423685D02*
X45220000Y-40942521D01*
X47375638Y-41730000D02*
X47106514Y-40873486D01*
X45220000Y-40942521D02*
X44329076Y-41409076D01*
X44329076Y-41409076D02*
X43340000Y-42300000D01*
X47441812Y-42310000D02*
X47219157Y-43560000D01*
X47106514Y-40873486D02*
X46886315Y-40423685D01*
X44277338Y-35832662D02*
X45024180Y-36175820D01*
X38935140Y-53400000D02*
X38974179Y-54380000D01*
X37364054Y-34424054D02*
X37131137Y-35610000D01*
X38552976Y-50190000D02*
X38400000Y-49810000D01*
X42041085Y-57638915D02*
X41114664Y-57035336D01*
X38663557Y-50580000D02*
X38935140Y-53400000D01*
X43340000Y-61500000D02*
X43581970Y-58903088D01*
X43016656Y-34973344D02*
X42370000Y-34547018D01*
X37041538Y-38840000D02*
X37131137Y-35610000D01*
X38400000Y-49810000D02*
X37236122Y-45880000D01*
X39812558Y-56387442D02*
X40390000Y-56650000D01*
X37480000Y-34150000D02*
X37668125Y-33988125D01*
X36946422Y-43420000D02*
X37013186Y-40130000D01*
X37236122Y-45880000D02*
X36946422Y-43420000D01*
X38663557Y-50580000D02*
X38552976Y-50190000D01*
X44277338Y-35832662D02*
X43016656Y-34973344D01*
X40660000Y-33960000D02*
X39200000Y-33780000D01*
X39200000Y-33780000D02*
X38370000Y-33780000D01*
X45059999Y-37435001D02*
X45024180Y-36175820D01*
X38370000Y-33780000D02*
X37668125Y-33988125D01*
X39154388Y-55450000D02*
X38974179Y-54380000D01*
X42041085Y-57638915D02*
X43581970Y-58903088D01*
X41114664Y-57035336D02*
X40390000Y-56650000D01*
X37013186Y-40130000D02*
X37041538Y-38840000D01*
X37364054Y-34424054D02*
X37480000Y-34150000D01*
X39812558Y-56387442D02*
X39519864Y-56130136D01*
X42370000Y-34547018D02*
X40660000Y-33960000D01*
X39519864Y-56130136D02*
X39154388Y-55450000D01*
X42973457Y-52439016D02*
X40386681Y-50813319D01*
X42520089Y-35279911D02*
X41300000Y-34720000D01*
X38578604Y-36398604D02*
X38122638Y-37382638D01*
X40108484Y-35188484D02*
X38578604Y-36398604D01*
X38122638Y-37382638D02*
X37631198Y-39950000D01*
X41300000Y-34720000D02*
X40700000Y-34720000D01*
X43774133Y-36360000D02*
X42520089Y-35279911D01*
X37533469Y-43660000D02*
X37631198Y-39950000D01*
X39030000Y-49730000D02*
X37832737Y-45740000D01*
X37832737Y-45740000D02*
X37533469Y-43660000D01*
X43774133Y-36360000D02*
X43789999Y-37435000D01*
X43340000Y-55100000D02*
X42973457Y-52439016D01*
X40386681Y-50813319D02*
X39030000Y-49730000D01*
X40700000Y-34720000D02*
X40108484Y-35188484D01*
X39399926Y-43500000D02*
X39552823Y-44200000D01*
X42503966Y-38850000D02*
X42520000Y-37435001D01*
X40199458Y-46050542D02*
X39757778Y-45490000D01*
X41220000Y-40147546D02*
X42149696Y-39379696D01*
X42149696Y-39379696D02*
X42503966Y-38850000D01*
X39471335Y-41291335D02*
X39696570Y-40996570D01*
X42497833Y-47992167D02*
X41121571Y-46858429D01*
X39696570Y-40996570D02*
X40950000Y-40249622D01*
X42780000Y-50500000D02*
X43340000Y-48700000D01*
X39327728Y-41830000D02*
X39324669Y-42780000D01*
X39552823Y-44200000D02*
X39757778Y-45490000D01*
X39471335Y-41291335D02*
X39327728Y-41830000D01*
X40950000Y-40249622D02*
X41220000Y-40147546D01*
X41121571Y-46858429D02*
X40199458Y-46050542D01*
X39324669Y-42780000D02*
X39399926Y-43500000D01*
X43340000Y-48700000D02*
X42497833Y-47992167D01*
X34010000Y-75700000D02*
X34010000Y-74660000D01*
X37830000Y-68500000D02*
X39600000Y-66780000D01*
X37372770Y-69382770D02*
X37830000Y-68500000D01*
X34730000Y-73670000D02*
X35443097Y-73003097D01*
X35443097Y-73003097D02*
X37372770Y-69382770D01*
X36230000Y-83130000D02*
X36550000Y-82810000D01*
X37950000Y-81910000D02*
X38650000Y-81190000D01*
X39600000Y-66780000D02*
X40410000Y-66120000D01*
X34116678Y-76490000D02*
X34060384Y-76290000D01*
X38940000Y-80580000D02*
X37520000Y-79650000D01*
X34060384Y-76290000D02*
X34010000Y-75700000D01*
X36550000Y-82810000D02*
X37950000Y-81910000D01*
X34010000Y-74660000D02*
X34390000Y-73890000D01*
X37520000Y-79650000D02*
X35300000Y-77750000D01*
X35300000Y-77750000D02*
X34116678Y-76490000D01*
X34390000Y-73890000D02*
X34730000Y-73670000D01*
X38650000Y-81190000D02*
X38940000Y-80580000D01*
X45790000Y-80370000D02*
X47630003Y-81050000D01*
X43810000Y-78830000D02*
X45030000Y-79660000D01*
X41880000Y-78550000D02*
X43810000Y-78830000D01*
X36914997Y-77000000D02*
X38934997Y-79020000D01*
X38934997Y-79020000D02*
X39160000Y-79020000D01*
X39160000Y-79020000D02*
X41880000Y-78550000D01*
X45030000Y-79660000D02*
X45790000Y-80370000D01*
X45760000Y-79170000D02*
X47630000Y-79780003D01*
X44000000Y-78270000D02*
X45760000Y-79170000D01*
X38184997Y-76580000D02*
X39554997Y-77950000D01*
X42970000Y-78050000D02*
X44000000Y-78270000D01*
X41990000Y-77950000D02*
X42970000Y-78050000D01*
X39554997Y-77950000D02*
X41990000Y-77950000D01*
D34*
X35009125Y-81060875D02*
X34460000Y-80020000D01*
X30960000Y-87740000D02*
X30960000Y-91770000D01*
X35099032Y-81770000D02*
X35050484Y-82200000D01*
X35050484Y-82200000D02*
X34417397Y-83367397D01*
X35009125Y-81060875D02*
X35099032Y-81770000D01*
X34460000Y-80020000D02*
X33630000Y-79253868D01*
X31587633Y-85600000D02*
X30960000Y-87740000D01*
X32550000Y-84340000D02*
X32241429Y-84571429D01*
X30550000Y-97540000D02*
X30180000Y-98700000D01*
X30180000Y-98700000D02*
X28700000Y-100360000D01*
X34417397Y-83367397D02*
X32550000Y-84340000D01*
X32241429Y-84571429D02*
X31587633Y-85600000D01*
X30960000Y-91770000D02*
X30550000Y-97540000D01*
X42240000Y-79700000D02*
X41060000Y-82320000D01*
X45620000Y-81190000D02*
X43460000Y-79430000D01*
X37398067Y-90961933D02*
X36800212Y-89910000D01*
X36800212Y-89910000D02*
X36690000Y-89600000D01*
X40916817Y-95830000D02*
X39183141Y-93456859D01*
X40916817Y-95830000D02*
X42090000Y-98870000D01*
X39640000Y-84040000D02*
X40829105Y-82539105D01*
X37750000Y-86100000D02*
X39640000Y-84040000D01*
X36740000Y-87820000D02*
X37100000Y-87000000D01*
X41060000Y-82320000D02*
X40829105Y-82539105D01*
X36690000Y-89600000D02*
X36650000Y-88700000D01*
X36650000Y-88700000D02*
X36740000Y-87820000D01*
X37100000Y-87000000D02*
X37750000Y-86100000D01*
X37398067Y-90961933D02*
X39183141Y-93456859D01*
X43460000Y-79430000D02*
X42240000Y-79700000D01*
D32*
X25500000Y-67340000D02*
X25270000Y-68260000D01*
X32110000Y-73160000D02*
X32110000Y-69030000D01*
X32850000Y-76180000D02*
X32370000Y-75100000D01*
X32370000Y-75100000D02*
X32110000Y-73160000D01*
X31970000Y-68420000D02*
X31785804Y-67564196D01*
X20930000Y-69670000D02*
X20930000Y-69290000D01*
X32110000Y-69030000D02*
X31970000Y-68420000D01*
X24650052Y-69610052D02*
X24130000Y-70138000D01*
X27060000Y-66052954D02*
X26292664Y-66352664D01*
X21184253Y-67954253D02*
X21490000Y-67310000D01*
X21490000Y-67310000D02*
X22690000Y-66270000D01*
X25192963Y-68540000D02*
X24650052Y-69610052D01*
X24130000Y-70138000D02*
X22970000Y-70431867D01*
X37900000Y-80890000D02*
X37570000Y-80890000D01*
X32984130Y-76405870D02*
X32850000Y-76180000D01*
X20930000Y-69290000D02*
X21184253Y-67954253D01*
X26292664Y-66352664D02*
X25936332Y-66686332D01*
X29340000Y-66040000D02*
X27060000Y-66052954D01*
X37570000Y-80890000D02*
X35010000Y-78330000D01*
X25270000Y-68260000D02*
X25192963Y-68540000D01*
X31785804Y-67564196D02*
X29340000Y-66040000D01*
X21753271Y-70546729D02*
X21524969Y-70445031D01*
X22970000Y-70431867D02*
X21753271Y-70546729D01*
X25936332Y-66686332D02*
X25500000Y-67340000D01*
X21524969Y-70445031D02*
X20930000Y-69670000D01*
X35010000Y-78330000D02*
X32984130Y-76405870D01*
X44650000Y-35200000D02*
X45003922Y-35416078D01*
X48970000Y-57900000D02*
X48150000Y-55780000D01*
X42860000Y-64270000D02*
X46700000Y-63130000D01*
X43760000Y-34660000D02*
X44650000Y-35200000D01*
X45628174Y-36050000D02*
X45003922Y-35416078D01*
X43003066Y-40933066D02*
X44170000Y-40370000D01*
X47540000Y-49040000D02*
X47770000Y-46790000D01*
X41850000Y-65720000D02*
X41980000Y-64770000D01*
X42147437Y-42800000D02*
X42068321Y-42330000D01*
X42704560Y-43485440D02*
X45010000Y-44717293D01*
X45680000Y-38480000D02*
X45527273Y-39040000D01*
X39080000Y-69830000D02*
X39559394Y-68510019D01*
X39559394Y-68510019D02*
X40650000Y-67800000D01*
X40650000Y-67800000D02*
X41580000Y-67100000D01*
X43594257Y-34515743D02*
X43493789Y-33850000D01*
X45628174Y-36050000D02*
X45720000Y-36930000D01*
X42377273Y-41397273D02*
X43003066Y-40933066D01*
X48150000Y-55780000D02*
X46922257Y-54210000D01*
X42116412Y-41980000D02*
X42377273Y-41397273D01*
X43493789Y-33850000D02*
X43790000Y-32485003D01*
X47770000Y-46790000D02*
X47578319Y-46220000D01*
X43760000Y-34660000D02*
X43594257Y-34515743D01*
X48270000Y-60320000D02*
X48970000Y-57900000D01*
X47975947Y-61510000D02*
X48270000Y-60320000D01*
X42068321Y-42330000D02*
X42116412Y-41980000D01*
X46922257Y-54210000D02*
X46030000Y-53350000D01*
X41860000Y-66740000D02*
X41850000Y-65720000D01*
X45720000Y-36930000D02*
X45680000Y-38480000D01*
X39460000Y-71420000D02*
X39080000Y-69830000D01*
X41980000Y-64770000D02*
X42860000Y-64270000D01*
X42704560Y-43485440D02*
X42147437Y-42800000D01*
X47578319Y-46220000D02*
X47140000Y-45591373D01*
X44170000Y-40370000D02*
X45527273Y-39040000D01*
X45640000Y-44940000D02*
X45010000Y-44717293D01*
X46273952Y-50423952D02*
X47540000Y-49040000D01*
X46030000Y-53350000D02*
X45930000Y-51020000D01*
X47140000Y-45591373D02*
X45640000Y-44940000D01*
X41160000Y-75930000D02*
X39460000Y-71420000D01*
X46700000Y-63130000D02*
X47975947Y-61510000D01*
X41580000Y-67100000D02*
X41860000Y-66740000D01*
X45930000Y-51020000D02*
X46273952Y-50423952D01*
X45421018Y-89857862D02*
X44020000Y-88300000D01*
X44020000Y-88300000D02*
X43350000Y-88250000D01*
X42750000Y-87790000D02*
X41556474Y-86730215D01*
X43350000Y-88250000D02*
X42750000Y-87790000D01*
X46393895Y-89041524D02*
X44990000Y-87380000D01*
X44350000Y-86610000D02*
X43211129Y-85341793D01*
X44990000Y-87380000D02*
X44350000Y-86610000D01*
X47366771Y-88225182D02*
X46240000Y-86600000D01*
X45720000Y-84980000D02*
X44890000Y-83920000D01*
X46240000Y-86600000D02*
X45930000Y-85950000D01*
X45850000Y-85440000D02*
X45720000Y-84980000D01*
X45930000Y-85950000D02*
X45850000Y-85440000D01*
X44448142Y-90674203D02*
X42890000Y-89390000D01*
X42890000Y-89390000D02*
X42210000Y-89140000D01*
X42210000Y-89140000D02*
X41520000Y-89030000D01*
X41520000Y-89030000D02*
X41130000Y-88930000D01*
X41130000Y-88930000D02*
X39799501Y-88152273D01*
X51521445Y-91200762D02*
X51880000Y-92820000D01*
X53130000Y-93440000D02*
X53800000Y-92790000D01*
X51880000Y-92820000D02*
X52060000Y-93470000D01*
X52460000Y-93700000D02*
X53130000Y-93440000D01*
X54270000Y-92380000D02*
X54693529Y-91903529D01*
X55250000Y-91675000D02*
X55510000Y-91780000D01*
X55510000Y-91780000D02*
X56709660Y-92747777D01*
X54693529Y-91903529D02*
X55250000Y-91675000D01*
X52060000Y-93470000D02*
X52460000Y-93700000D01*
X53800000Y-92790000D02*
X54270000Y-92380000D01*
X48950000Y-96960000D02*
X49382047Y-98778886D01*
X47629940Y-94466124D02*
X48750000Y-96370000D01*
X48750000Y-96370000D02*
X48950000Y-96960000D01*
X53350000Y-94230000D02*
X54947493Y-94148085D01*
X51380000Y-93730000D02*
X51970000Y-94260000D01*
X51970000Y-94260000D02*
X52590000Y-94260000D01*
X50548570Y-92017103D02*
X51380000Y-93730000D01*
X52590000Y-94260000D02*
X53350000Y-94230000D01*
D34*
X49610000Y-82330000D02*
X49990000Y-77970000D01*
X47630000Y-82320000D02*
X49610000Y-82330000D01*
M02*
