G04 #@! TF.GenerationSoftware,KiCad,Pcbnew,8.0.3*
G04 #@! TF.CreationDate,2025-02-16T14:45:01-05:00*
G04 #@! TF.ProjectId,MEAP_Rev4c,4d454150-5f52-4657-9634-632e6b696361,rev?*
G04 #@! TF.SameCoordinates,Original*
G04 #@! TF.FileFunction,Paste,Top*
G04 #@! TF.FilePolarity,Positive*
%FSLAX46Y46*%
G04 Gerber Fmt 4.6, Leading zero omitted, Abs format (unit mm)*
G04 Created by KiCad (PCBNEW 8.0.3) date 2025-02-16 14:45:01*
%MOMM*%
%LPD*%
G01*
G04 APERTURE LIST*
G04 Aperture macros list*
%AMRoundRect*
0 Rectangle with rounded corners*
0 $1 Rounding radius*
0 $2 $3 $4 $5 $6 $7 $8 $9 X,Y pos of 4 corners*
0 Add a 4 corners polygon primitive as box body*
4,1,4,$2,$3,$4,$5,$6,$7,$8,$9,$2,$3,0*
0 Add four circle primitives for the rounded corners*
1,1,$1+$1,$2,$3*
1,1,$1+$1,$4,$5*
1,1,$1+$1,$6,$7*
1,1,$1+$1,$8,$9*
0 Add four rect primitives between the rounded corners*
20,1,$1+$1,$2,$3,$4,$5,0*
20,1,$1+$1,$4,$5,$6,$7,0*
20,1,$1+$1,$6,$7,$8,$9,0*
20,1,$1+$1,$8,$9,$2,$3,0*%
G04 Aperture macros list end*
%ADD10RoundRect,0.218750X-0.002858X-0.336909X0.332287X-0.055689X0.002858X0.336909X-0.332287X0.055689X0*%
%ADD11RoundRect,0.237500X-0.077151X-0.374772X0.382475X0.010901X0.077151X0.374772X-0.382475X-0.010901X0*%
%ADD12RoundRect,0.237500X0.300000X0.237500X-0.300000X0.237500X-0.300000X-0.237500X0.300000X-0.237500X0*%
%ADD13RoundRect,0.237500X-0.325783X0.200678X-0.120571X-0.363138X0.325783X-0.200678X0.120571X0.363138X0*%
%ADD14RoundRect,0.150000X-0.587500X-0.150000X0.587500X-0.150000X0.587500X0.150000X-0.587500X0.150000X0*%
%ADD15RoundRect,0.237500X-0.300000X-0.237500X0.300000X-0.237500X0.300000X0.237500X-0.300000X0.237500X0*%
%ADD16RoundRect,0.237500X-0.237500X0.300000X-0.237500X-0.300000X0.237500X-0.300000X0.237500X0.300000X0*%
%ADD17RoundRect,0.150000X0.150000X-0.587500X0.150000X0.587500X-0.150000X0.587500X-0.150000X-0.587500X0*%
%ADD18RoundRect,0.237500X0.237500X-0.250000X0.237500X0.250000X-0.237500X0.250000X-0.237500X-0.250000X0*%
%ADD19RoundRect,0.160000X-0.160000X0.245000X-0.160000X-0.245000X0.160000X-0.245000X0.160000X0.245000X0*%
%ADD20RoundRect,0.093750X-0.106250X0.093750X-0.106250X-0.093750X0.106250X-0.093750X0.106250X0.093750X0*%
%ADD21RoundRect,0.237500X-0.237500X0.250000X-0.237500X-0.250000X0.237500X-0.250000X0.237500X0.250000X0*%
%ADD22RoundRect,0.237500X-0.250000X-0.237500X0.250000X-0.237500X0.250000X0.237500X-0.250000X0.237500X0*%
%ADD23RoundRect,0.218750X-0.256250X0.218750X-0.256250X-0.218750X0.256250X-0.218750X0.256250X0.218750X0*%
%ADD24RoundRect,0.237500X-0.038849X-0.342632X0.344173X-0.021239X0.038849X0.342632X-0.344173X0.021239X0*%
%ADD25RoundRect,0.150000X0.150000X-0.825000X0.150000X0.825000X-0.150000X0.825000X-0.150000X-0.825000X0*%
%ADD26RoundRect,0.237500X0.237500X-0.300000X0.237500X0.300000X-0.237500X0.300000X-0.237500X-0.300000X0*%
%ADD27RoundRect,0.237500X0.250000X0.237500X-0.250000X0.237500X-0.250000X-0.237500X0.250000X-0.237500X0*%
%ADD28RoundRect,0.218750X0.256250X-0.218750X0.256250X0.218750X-0.256250X0.218750X-0.256250X-0.218750X0*%
%ADD29R,1.500000X0.900000*%
%ADD30R,0.900000X1.500000*%
%ADD31R,0.900000X0.900000*%
%ADD32RoundRect,0.167500X0.020646X0.235979X-0.235979X0.020646X-0.020646X-0.235979X0.235979X-0.020646X0*%
%ADD33RoundRect,0.050000X0.255127X0.279348X-0.319406X-0.202743X-0.255127X-0.279348X0.319406X0.202743X0*%
%ADD34RoundRect,0.050000X-0.202743X0.319406X-0.279348X0.255127X0.202743X-0.319406X0.279348X-0.255127X0*%
%ADD35RoundRect,0.250000X-0.275000X-0.350000X0.275000X-0.350000X0.275000X0.350000X-0.275000X0.350000X0*%
%ADD36R,1.250000X1.000000*%
%ADD37RoundRect,0.237500X-0.200678X-0.325783X0.363138X-0.120571X0.200678X0.325783X-0.363138X0.120571X0*%
%ADD38RoundRect,0.237500X0.336684X0.181797X-0.254201X0.285986X-0.336684X-0.181797X0.254201X-0.285986X0*%
%ADD39RoundRect,0.112500X0.112500X-0.187500X0.112500X0.187500X-0.112500X0.187500X-0.112500X-0.187500X0*%
%ADD40RoundRect,0.150000X-0.825000X-0.150000X0.825000X-0.150000X0.825000X0.150000X-0.825000X0.150000X0*%
%ADD41R,0.200000X1.150000*%
%ADD42R,1.300000X1.700000*%
%ADD43RoundRect,0.100000X0.100000X-0.712500X0.100000X0.712500X-0.100000X0.712500X-0.100000X-0.712500X0*%
%ADD44RoundRect,0.250000X-0.325000X-1.100000X0.325000X-1.100000X0.325000X1.100000X-0.325000X1.100000X0*%
G04 APERTURE END LIST*
D10*
X31633480Y-61922390D03*
X32840000Y-60910000D03*
D11*
X29768572Y-59478810D03*
X31090000Y-58370000D03*
D12*
X40642501Y-99889998D03*
X38917499Y-99890002D03*
D13*
X28055007Y-60489514D03*
X28644993Y-62110486D03*
D14*
X34882503Y-59960000D03*
X34882502Y-61859999D03*
X36757496Y-60910001D03*
D15*
X37124994Y-37350002D03*
X38850000Y-37350000D03*
D16*
X35830000Y-45160000D03*
X35830004Y-46885004D03*
D17*
X46417498Y-102787501D03*
X48317500Y-102787499D03*
X47367501Y-100912500D03*
D18*
X40730002Y-21787502D03*
X40730000Y-19962504D03*
D19*
X52240000Y-103707501D03*
X51440000Y-103707501D03*
D20*
X52490000Y-102820000D03*
X51840000Y-102820001D03*
X51190001Y-102820002D03*
X51190000Y-104595002D03*
X51840000Y-104595001D03*
X52489999Y-104595000D03*
D21*
X32630000Y-96280000D03*
X32630000Y-98104994D03*
D18*
X50710001Y-98132499D03*
X50709999Y-96307501D03*
D22*
X30937502Y-104660000D03*
X32762500Y-104660000D03*
D23*
X32869998Y-37975002D03*
X32869998Y-39550002D03*
D18*
X28830000Y-48360000D03*
X28829998Y-46535002D03*
D21*
X43290000Y-102455000D03*
X43290000Y-104279994D03*
D16*
X31340000Y-37720000D03*
X31339998Y-39445002D03*
D15*
X30997500Y-106200000D03*
X32722500Y-106200000D03*
X35224994Y-56870002D03*
X36950000Y-56870000D03*
D24*
X29070000Y-70000000D03*
X30468030Y-68826912D03*
D25*
X40500000Y-37434998D03*
X41769999Y-37434999D03*
X43039998Y-37434998D03*
X44309999Y-37434998D03*
X45580000Y-37434999D03*
X46849999Y-37434996D03*
X48120000Y-37434998D03*
X49389999Y-37434999D03*
X49389998Y-32484998D03*
X48119999Y-32484997D03*
X46850000Y-32484998D03*
X45579999Y-32484998D03*
X44309998Y-32484997D03*
X43039999Y-32485000D03*
X41769998Y-32484998D03*
X40499999Y-32484997D03*
D16*
X37380000Y-45167502D03*
X37380004Y-46892506D03*
D26*
X26930000Y-65610000D03*
X26929998Y-63884998D03*
D16*
X44799995Y-102499997D03*
X44799999Y-104225001D03*
D18*
X40670000Y-26180000D03*
X40669998Y-24355002D03*
D24*
X36201970Y-70373088D03*
X37600000Y-69200000D03*
D27*
X53692498Y-25739999D03*
X51867502Y-25740001D03*
D26*
X50740002Y-89575002D03*
X50740000Y-87850000D03*
D28*
X32889998Y-42582502D03*
X32889998Y-41007502D03*
D15*
X35222495Y-58400003D03*
X36947501Y-58400001D03*
D12*
X52722502Y-105854998D03*
X50997500Y-105854998D03*
D18*
X30485001Y-53407500D03*
X30484999Y-51582502D03*
D29*
X48839997Y-92260002D03*
X48839997Y-90990002D03*
X48839997Y-89720002D03*
X48839997Y-88450002D03*
X48839997Y-87180002D03*
X48839997Y-85910002D03*
X48839997Y-84640002D03*
X48839997Y-83370002D03*
X48839997Y-82100002D03*
X48839997Y-80830002D03*
X48839997Y-79560002D03*
X48839997Y-78290002D03*
X48839997Y-77020002D03*
X48839997Y-75750002D03*
D30*
X47074997Y-74500002D03*
X45804997Y-74500002D03*
X44534997Y-74500002D03*
X43264997Y-74500002D03*
X41994997Y-74500002D03*
X40724997Y-74500002D03*
X39454997Y-74500002D03*
X38184997Y-74500002D03*
X36914997Y-74500002D03*
X35644997Y-74500002D03*
X34374997Y-74500002D03*
X33104997Y-74500002D03*
D29*
X31339997Y-75750002D03*
X31339997Y-77020002D03*
X31339997Y-78290002D03*
X31339997Y-79560002D03*
X31339997Y-80830002D03*
X31339997Y-82100002D03*
X31339997Y-83370002D03*
X31339997Y-84640002D03*
X31339997Y-85910002D03*
X31339997Y-87180002D03*
X31339997Y-88450002D03*
X31339997Y-89720002D03*
X31339997Y-90990002D03*
X31339997Y-92260002D03*
D31*
X42989997Y-85940002D03*
X42989997Y-84540002D03*
X42989997Y-83140002D03*
X41589997Y-85940002D03*
X41589997Y-84540002D03*
X41589997Y-83140002D03*
X40189997Y-85940002D03*
X40189997Y-84540002D03*
X40189997Y-83140002D03*
D32*
X32937069Y-66437500D03*
X33464155Y-67065658D03*
X32308911Y-66964586D03*
X32835997Y-67592744D03*
D33*
X34511529Y-66695916D03*
X34254413Y-66389499D03*
X33997297Y-66083080D03*
X33740180Y-65776662D03*
X33483066Y-65470244D03*
D34*
X32567327Y-65390126D03*
X32260910Y-65647242D03*
X31954491Y-65904358D03*
X31648073Y-66161475D03*
X31341655Y-66418589D03*
D33*
X31261537Y-67334328D03*
X31518653Y-67640745D03*
X31775769Y-67947164D03*
X32032886Y-68253582D03*
X32290000Y-68560000D03*
D34*
X33205739Y-68640118D03*
X33512156Y-68383002D03*
X33818575Y-68125886D03*
X34124993Y-67868769D03*
X34431411Y-67611655D03*
D12*
X32250000Y-54960000D03*
X30524998Y-54960004D03*
D35*
X34890000Y-96550000D03*
X37190000Y-96550000D03*
D22*
X28835002Y-49969998D03*
X30660000Y-49970000D03*
D15*
X30977500Y-101580000D03*
X32702500Y-101580000D03*
D36*
X58684999Y-94670000D03*
X50935001Y-94670000D03*
D26*
X25350002Y-61722502D03*
X25349998Y-59997498D03*
D21*
X29060000Y-75480000D03*
X29060000Y-77304994D03*
D37*
X27369514Y-68064993D03*
X28990486Y-67475007D03*
D24*
X37251970Y-71603088D03*
X38650000Y-70430000D03*
D15*
X35427498Y-63460002D03*
X37152502Y-63459998D03*
D16*
X50750000Y-91280000D03*
X50749998Y-93005002D03*
D22*
X30927502Y-103120000D03*
X32752500Y-103120000D03*
D26*
X32015001Y-53357502D03*
X32014999Y-51632500D03*
D38*
X28659398Y-55289770D03*
X26960602Y-54990230D03*
D39*
X40360002Y-18587502D03*
X40359998Y-16487500D03*
D26*
X41769999Y-104240000D03*
X41769997Y-102514998D03*
D40*
X34775000Y-101510000D03*
X34775000Y-102780000D03*
X34775000Y-104050000D03*
X34775000Y-105320000D03*
X39725000Y-105320000D03*
X39725000Y-104050000D03*
X39725000Y-102780000D03*
X39725000Y-101510000D03*
D21*
X30660000Y-45950000D03*
X30660000Y-47774994D03*
D41*
X42729999Y-110632000D03*
X43379999Y-110632000D03*
X44029999Y-110632000D03*
X44679999Y-110632000D03*
X45329999Y-110632000D03*
D42*
X43029999Y-113332000D03*
X45029999Y-113332000D03*
D11*
X30270000Y-61080000D03*
X31591428Y-59971190D03*
D43*
X32299999Y-49664999D03*
X32949999Y-49664999D03*
X33599998Y-49665001D03*
X34249998Y-49665000D03*
X34249999Y-45440001D03*
X33599999Y-45440001D03*
X32950000Y-45439999D03*
X32300000Y-45440000D03*
D26*
X25390000Y-69090000D03*
X25389998Y-67364994D03*
D12*
X36922501Y-51959998D03*
X35197499Y-51960002D03*
D18*
X35840002Y-50394998D03*
X35840000Y-48570000D03*
D21*
X40630001Y-27717501D03*
X40629999Y-29542499D03*
D22*
X34345000Y-54900000D03*
X36170000Y-54900000D03*
D18*
X33565000Y-53382499D03*
X33564998Y-51557501D03*
D36*
X50940002Y-99810000D03*
X58690000Y-99810000D03*
D26*
X31340000Y-42810004D03*
X31339998Y-41085002D03*
D23*
X49090000Y-104725000D03*
X49090000Y-106300000D03*
D21*
X25390000Y-63865006D03*
X25390000Y-65690000D03*
D27*
X44772496Y-100914999D03*
X42947500Y-100915001D03*
D44*
X54405000Y-103700000D03*
X57355000Y-103700000D03*
M02*
