G04 #@! TF.GenerationSoftware,KiCad,Pcbnew,8.0.3*
G04 #@! TF.CreationDate,2025-02-16T14:45:01-05:00*
G04 #@! TF.ProjectId,MEAP_Rev4c,4d454150-5f52-4657-9634-632e6b696361,rev?*
G04 #@! TF.SameCoordinates,Original*
G04 #@! TF.FileFunction,Legend,Bot*
G04 #@! TF.FilePolarity,Positive*
%FSLAX46Y46*%
G04 Gerber Fmt 4.6, Leading zero omitted, Abs format (unit mm)*
G04 Created by KiCad (PCBNEW 8.0.3) date 2025-02-16 14:45:01*
%MOMM*%
%LPD*%
G01*
G04 APERTURE LIST*
%ADD10C,0.150000*%
%ADD11C,0.120000*%
G04 APERTURE END LIST*
D10*
X41456548Y-83777072D02*
X41823855Y-84214811D01*
X41640202Y-83995941D02*
X42406246Y-83353154D01*
X42406246Y-83353154D02*
X42358029Y-83517937D01*
X42358029Y-83517937D02*
X42346290Y-83652112D01*
X42346290Y-83652112D02*
X42371030Y-83755677D01*
X44206943Y-82343241D02*
X44212813Y-82276154D01*
X44212813Y-82276154D02*
X44188073Y-82172589D01*
X44188073Y-82172589D02*
X44035028Y-81990197D01*
X44035028Y-81990197D02*
X43937332Y-81947849D01*
X43937332Y-81947849D02*
X43870245Y-81941980D01*
X43870245Y-81941980D02*
X43766679Y-81966720D01*
X43766679Y-81966720D02*
X43693723Y-82027938D01*
X43693723Y-82027938D02*
X43614897Y-82156243D01*
X43614897Y-82156243D02*
X43544464Y-82961290D01*
X43544464Y-82961290D02*
X43146548Y-82487072D01*
X52930509Y-98768502D02*
X52501984Y-98257806D01*
X52501984Y-98257806D02*
X52011420Y-99228898D01*
X54988896Y-98739375D02*
X54983026Y-98806463D01*
X54983026Y-98806463D02*
X55038375Y-98946506D01*
X55038375Y-98946506D02*
X55099593Y-99019463D01*
X55099593Y-99019463D02*
X55227898Y-99098289D01*
X55227898Y-99098289D02*
X55362072Y-99110028D01*
X55362072Y-99110028D02*
X55465638Y-99085288D01*
X55465638Y-99085288D02*
X55642160Y-98999331D01*
X55642160Y-98999331D02*
X55751595Y-98907504D01*
X55751595Y-98907504D02*
X55866899Y-98748590D01*
X55866899Y-98748590D02*
X55909247Y-98650894D01*
X55909247Y-98650894D02*
X55920986Y-98516719D01*
X55920986Y-98516719D02*
X55865637Y-98376675D01*
X55865637Y-98376675D02*
X55804419Y-98303719D01*
X55804419Y-98303719D02*
X55676114Y-98224893D01*
X55676114Y-98224893D02*
X55609027Y-98219024D01*
X55284067Y-97683588D02*
X55161632Y-97537674D01*
X55161632Y-97537674D02*
X55063936Y-97495327D01*
X55063936Y-97495327D02*
X54929761Y-97483588D01*
X54929761Y-97483588D02*
X54753239Y-97569545D01*
X54753239Y-97569545D02*
X54497891Y-97783808D01*
X54497891Y-97783808D02*
X54382586Y-97942722D01*
X54382586Y-97942722D02*
X54370848Y-98076896D01*
X54370848Y-98076896D02*
X54395587Y-98180462D01*
X54395587Y-98180462D02*
X54518023Y-98326375D01*
X54518023Y-98326375D02*
X54615719Y-98368723D01*
X54615719Y-98368723D02*
X54749894Y-98380462D01*
X54749894Y-98380462D02*
X54926416Y-98294504D01*
X54926416Y-98294504D02*
X55181764Y-98080242D01*
X55181764Y-98080242D02*
X55297068Y-97921328D01*
X55297068Y-97921328D02*
X55308807Y-97787153D01*
X55308807Y-97787153D02*
X55284067Y-97683588D01*
X53967062Y-97669766D02*
X54733107Y-97026978D01*
X54733107Y-97026978D02*
X53971670Y-97230764D01*
X53971670Y-97230764D02*
X54304582Y-96516282D01*
X54304582Y-96516282D02*
X53538537Y-97159069D01*
X57858462Y-93901503D02*
X57347766Y-94330028D01*
X58303333Y-93839023D02*
X57909203Y-94480549D01*
X57909203Y-94480549D02*
X57511287Y-94006331D01*
X39240509Y-86778502D02*
X38842593Y-86304284D01*
X38842593Y-86304284D02*
X38765029Y-86804504D01*
X38765029Y-86804504D02*
X38673202Y-86695069D01*
X38673202Y-86695069D02*
X38575506Y-86652721D01*
X38575506Y-86652721D02*
X38508418Y-86646852D01*
X38508418Y-86646852D02*
X38404853Y-86671591D01*
X38404853Y-86671591D02*
X38222461Y-86824636D01*
X38222461Y-86824636D02*
X38180114Y-86922332D01*
X38180114Y-86922332D02*
X38174244Y-86989419D01*
X38174244Y-86989419D02*
X38198984Y-87092985D01*
X38198984Y-87092985D02*
X38382637Y-87311855D01*
X38382637Y-87311855D02*
X38480334Y-87354202D01*
X38480334Y-87354202D02*
X38547421Y-87360072D01*
X56243810Y-94927241D02*
X56366246Y-95073154D01*
X56366246Y-95073154D02*
X56390986Y-95176719D01*
X56390986Y-95176719D02*
X56385116Y-95243807D01*
X56385116Y-95243807D02*
X56336899Y-95408590D01*
X56336899Y-95408590D02*
X56221595Y-95567504D01*
X56221595Y-95567504D02*
X55929769Y-95812376D01*
X55929769Y-95812376D02*
X55826203Y-95837115D01*
X55826203Y-95837115D02*
X55759116Y-95831246D01*
X55759116Y-95831246D02*
X55661420Y-95788898D01*
X55661420Y-95788898D02*
X55538984Y-95642985D01*
X55538984Y-95642985D02*
X55514244Y-95539419D01*
X55514244Y-95539419D02*
X55520114Y-95472332D01*
X55520114Y-95472332D02*
X55562461Y-95374636D01*
X55562461Y-95374636D02*
X55744853Y-95221591D01*
X55744853Y-95221591D02*
X55848418Y-95196852D01*
X55848418Y-95196852D02*
X55915506Y-95202721D01*
X55915506Y-95202721D02*
X56013202Y-95245069D01*
X56013202Y-95245069D02*
X56135638Y-95390982D01*
X56135638Y-95390982D02*
X56160377Y-95494547D01*
X56160377Y-95494547D02*
X56154508Y-95561635D01*
X56154508Y-95561635D02*
X56112160Y-95659331D01*
X40876855Y-85029632D02*
X40815637Y-84956675D01*
X40815637Y-84956675D02*
X40717941Y-84914328D01*
X40717941Y-84914328D02*
X40650854Y-84908458D01*
X40650854Y-84908458D02*
X40547288Y-84933198D01*
X40547288Y-84933198D02*
X40370766Y-85019155D01*
X40370766Y-85019155D02*
X40188375Y-85172200D01*
X40188375Y-85172200D02*
X40073070Y-85331114D01*
X40073070Y-85331114D02*
X40030723Y-85428810D01*
X40030723Y-85428810D02*
X40024853Y-85495898D01*
X40024853Y-85495898D02*
X40049593Y-85599463D01*
X40049593Y-85599463D02*
X40110811Y-85672420D01*
X40110811Y-85672420D02*
X40208507Y-85714767D01*
X40208507Y-85714767D02*
X40275594Y-85720637D01*
X40275594Y-85720637D02*
X40379160Y-85695897D01*
X40379160Y-85695897D02*
X40555682Y-85609940D01*
X40555682Y-85609940D02*
X40738073Y-85456895D01*
X40738073Y-85456895D02*
X40853378Y-85297981D01*
X40853378Y-85297981D02*
X40895725Y-85200285D01*
X40895725Y-85200285D02*
X40901595Y-85133198D01*
X40901595Y-85133198D02*
X40876855Y-85029632D01*
X50763201Y-99640762D02*
X51069291Y-100005545D01*
X51069291Y-100005545D02*
X50735117Y-100348113D01*
X50735117Y-100348113D02*
X50740986Y-100281026D01*
X50740986Y-100281026D02*
X50716246Y-100177460D01*
X50716246Y-100177460D02*
X50563202Y-99995069D01*
X50563202Y-99995069D02*
X50465506Y-99952721D01*
X50465506Y-99952721D02*
X50398418Y-99946852D01*
X50398418Y-99946852D02*
X50294853Y-99971591D01*
X50294853Y-99971591D02*
X50112461Y-100124636D01*
X50112461Y-100124636D02*
X50070114Y-100222332D01*
X50070114Y-100222332D02*
X50064244Y-100289419D01*
X50064244Y-100289419D02*
X50088984Y-100392985D01*
X50088984Y-100392985D02*
X50242029Y-100575376D01*
X50242029Y-100575376D02*
X50339725Y-100617724D01*
X50339725Y-100617724D02*
X50406812Y-100623593D01*
X50866908Y-85784822D02*
X50866908Y-86594345D01*
X50866908Y-86594345D02*
X50819289Y-86689583D01*
X50819289Y-86689583D02*
X50771670Y-86737203D01*
X50771670Y-86737203D02*
X50676432Y-86784822D01*
X50676432Y-86784822D02*
X50485956Y-86784822D01*
X50485956Y-86784822D02*
X50390718Y-86737203D01*
X50390718Y-86737203D02*
X50343099Y-86689583D01*
X50343099Y-86689583D02*
X50295480Y-86594345D01*
X50295480Y-86594345D02*
X50295480Y-85784822D01*
X49295480Y-86784822D02*
X49866908Y-86784822D01*
X49581194Y-86784822D02*
X49581194Y-85784822D01*
X49581194Y-85784822D02*
X49676432Y-85927679D01*
X49676432Y-85927679D02*
X49771670Y-86022917D01*
X49771670Y-86022917D02*
X49866908Y-86070536D01*
X52258605Y-88967546D02*
X51638474Y-89487897D01*
X51638474Y-89487897D02*
X51534909Y-89512637D01*
X51534909Y-89512637D02*
X51467821Y-89506768D01*
X51467821Y-89506768D02*
X51370125Y-89464420D01*
X51370125Y-89464420D02*
X51247689Y-89318507D01*
X51247689Y-89318507D02*
X51222950Y-89214941D01*
X51222950Y-89214941D02*
X51228819Y-89147854D01*
X51228819Y-89147854D02*
X51271167Y-89050158D01*
X51271167Y-89050158D02*
X51891298Y-88529806D01*
X50482466Y-88406549D02*
X50849773Y-88844289D01*
X50666120Y-88625419D02*
X51432164Y-87982631D01*
X51432164Y-87982631D02*
X51383947Y-88147415D01*
X51383947Y-88147415D02*
X51372208Y-88281589D01*
X51372208Y-88281589D02*
X51396948Y-88385155D01*
X49870287Y-87676983D02*
X50237595Y-88114723D01*
X50053941Y-87895853D02*
X50819985Y-87253065D01*
X50819985Y-87253065D02*
X50771768Y-87417849D01*
X50771768Y-87417849D02*
X50760030Y-87552023D01*
X50760030Y-87552023D02*
X50784769Y-87655589D01*
D11*
X52544722Y-40692502D02*
X52035275Y-40692497D01*
X52544725Y-39647503D02*
X52035278Y-39647498D01*
X48155002Y-76614999D02*
X50105002Y-76615002D01*
X48155006Y-85485000D02*
X50105004Y-85484998D01*
X52055000Y-76615000D02*
X50105002Y-76615002D01*
X52055004Y-85485001D02*
X50105004Y-85484998D01*
X47645002Y-85749998D02*
X47165004Y-85750002D01*
X47405000Y-85419999D01*
X47645002Y-85749998D01*
G36*
X47645002Y-85749998D02*
G01*
X47165004Y-85750002D01*
X47405000Y-85419999D01*
X47645002Y-85749998D01*
G37*
X43437775Y-49977500D02*
X43947223Y-49977500D01*
X43437775Y-51022500D02*
X43947223Y-51022500D01*
X43429779Y-51868124D02*
X43931487Y-51779660D01*
X43611241Y-52897248D02*
X44112949Y-52808784D01*
X54857220Y-47062501D02*
X54347772Y-47062496D01*
X54857224Y-46017502D02*
X54347776Y-46017497D01*
X43749998Y-58080018D02*
X44140259Y-57752553D01*
X44421711Y-58880535D02*
X44811972Y-58553070D01*
X54852224Y-53462503D02*
X54342776Y-53462498D01*
X54852228Y-52417504D02*
X54342780Y-52417499D01*
X40634997Y-33009998D02*
X40635002Y-34960000D01*
X40634998Y-36909998D02*
X40635002Y-34960000D01*
X50755002Y-33010002D02*
X50754998Y-34960000D01*
X50755003Y-36910002D02*
X50754998Y-34960000D01*
X40690000Y-32260001D02*
X40360000Y-32499999D01*
X40360001Y-32020001D01*
X40690000Y-32260001D01*
G36*
X40690000Y-32260001D02*
G01*
X40360000Y-32499999D01*
X40360001Y-32020001D01*
X40690000Y-32260001D01*
G37*
X54852224Y-59872503D02*
X54342777Y-59872498D01*
X54852227Y-58827504D02*
X54342780Y-58827499D01*
X41395858Y-93920711D02*
X42649296Y-95414497D01*
X43902730Y-96908284D02*
X42649296Y-95414497D01*
X49148228Y-87415702D02*
X50401662Y-88909489D01*
X51655100Y-90403275D02*
X50401662Y-88909489D01*
X52502122Y-90984891D02*
X52095058Y-91013161D01*
X52193583Y-90617190D01*
X52502122Y-90984891D01*
G36*
X52502122Y-90984891D02*
G01*
X52095058Y-91013161D01*
X52193583Y-90617190D01*
X52502122Y-90984891D01*
G37*
X46154036Y-44919400D02*
X45979796Y-45398126D01*
X47136016Y-45276810D02*
X46961776Y-45755536D01*
M02*
