M48
; DRILL file {KiCad 8.0.3} date 2025-02-16T14:44:59-0500
; FORMAT={-:-/ absolute / inch / decimal}
; #@! TF.CreationDate,2025-02-16T14:44:59-05:00
; #@! TF.GenerationSoftware,Kicad,Pcbnew,8.0.3
; #@! TF.FileFunction,MixedPlating,1,2
FMAT,2
INCH
; #@! TA.AperFunction,Plated,PTH,ViaDrill
T1C0.0157
; #@! TA.AperFunction,Plated,PTH,ComponentDrill
T2C0.0236
; #@! TA.AperFunction,Plated,PTH,ComponentDrill
T3C0.0315
; #@! TA.AperFunction,Plated,PTH,ComponentDrill
T4C0.0335
; #@! TA.AperFunction,Plated,PTH,ComponentDrill
T5C0.0394
; #@! TA.AperFunction,Plated,PTH,ComponentDrill
T6C0.0591
; #@! TA.AperFunction,NonPlated,NPTH,ComponentDrill
T7C0.1378
%
G90
G05
T1
X0.7628Y-2.3937
X0.8071Y-2.3744
X0.9374Y-2.4575
X1.0319Y-1.8673
X1.0425Y-2.3374
X1.0606Y-2.4165
X1.0909Y-2.7197
X1.1079Y-2.2173
X1.1622Y-2.387
X1.1768Y-3.1504
X1.2004Y-2.4744
X1.2059Y-1.7272
X1.235Y-2.926
X1.2528Y-2.211
X1.285Y-3.363
X1.2947Y-2.6384
X1.324Y-3.1202
X1.335Y-3.1701
X1.3559Y-3.2193
X1.4169Y-2.9839
X1.4264Y-3.2728
X1.4533Y-3.0315
X1.4594Y-3.2941
X1.4921Y-3.1846
X1.4988Y-3.7323
X1.5033Y-3.015
X1.511Y-2.626
X1.5114Y-1.7492
X1.5433Y-3.5346
X1.5563Y-1.5547
X1.5681Y-3.5827
X1.5815Y-3.5307
X1.5909Y-2.6031
X1.5933Y-1.7803
X1.613Y-2.5303
X1.6189Y-1.3957
X1.6205Y-2.9894
X1.6571Y-3.8925
X1.6717Y-2.998
X1.6996Y-3.1575
X1.7028Y-4.2807
X1.7035Y-3.1996
X1.7421Y-1.3437
X1.7453Y-4.2669
X1.748Y-3.013
X1.7937Y-3.6949
X1.7961Y-3.1965
X1.8567Y-3.587
X1.8874Y-2.2937
X1.9209Y-2.0417
X1.9681Y-3.0697
X2.0075Y-1.2736
X2.0437Y-1.3126
X2.0803Y-3.6488
X2.0976Y-2.376
X2.1531Y-3.0484
X2.2295Y-3.7799
T3
X0.8165Y-1.9307
X0.8165Y-2.0882
X0.8165Y-2.0094
X1.2165Y-1.278
X1.2165Y-1.378
X1.5165Y-1.378
X1.5165Y-1.278
T4
X1.635Y-4.3556
X1.8319Y-4.3556
T5
X0.7776Y-3.1906
X0.7776Y-3.2906
X0.7776Y-3.3906
X0.8874Y-1.426
X0.8874Y-1.526
X0.8874Y-1.626
X0.8913Y-3.5524
X0.8913Y-3.6524
X0.8913Y-3.7524
X0.8933Y-2.5091
X0.8933Y-2.6091
X0.8933Y-2.7091
X0.9602Y-3.2461
X0.9614Y-3.3669
X1.0047Y-2.0685
X1.0413Y-1.9472
X1.1106Y-3.4323
X1.1106Y-3.5323
X1.1106Y-3.6323
X1.1173Y-2.8772
X1.1287Y-4.0744
X1.1299Y-3.9512
X1.3453Y-2.8142
X1.3965Y-1.572
X1.3965Y-1.672
X1.5795Y-3.8398
X1.6Y-1.6654
X1.6Y-1.9173
X1.6Y-2.1693
X1.6Y-2.4213
X1.6055Y-4.2445
X1.6244Y-2.8051
X1.7063Y-1.6654
X1.7063Y-1.9173
X1.7063Y-2.1693
X1.7063Y-2.4213
X1.7142Y-2.6039
X1.8126Y-1.6654
X1.8126Y-1.9173
X1.8126Y-2.1693
X1.8126Y-2.4213
X1.8339Y-2.6051
X1.8535Y-3.8732
X1.876Y-2.7531
X1.9559Y-2.6071
X1.9709Y-4.2748
X2.0043Y-2.8343
X2.0291Y-1.6654
X2.0291Y-1.9173
X2.0291Y-2.1693
X2.0291Y-2.4213
X2.0307Y-2.7087
X2.1008Y-2.9091
X2.1354Y-1.6654
X2.1354Y-1.9173
X2.1354Y-2.1693
X2.1354Y-2.4213
X2.1374Y-2.7697
X2.1736Y-3.1268
X2.1736Y-3.4268
X2.1736Y-3.2268
X2.1736Y-3.3268
X2.174Y-1.1677
X2.174Y-1.2677
X2.174Y-1.3677
X2.174Y-1.4677
X2.2417Y-1.6654
X2.2417Y-1.9173
X2.2417Y-2.1693
X2.2417Y-2.4213
X2.2642Y-2.7787
X2.2736Y-3.2268
X2.2736Y-3.1268
X2.2736Y-3.3268
X2.2736Y-3.4268
X2.274Y-1.1677
X2.274Y-1.2677
X2.274Y-1.3677
X2.274Y-1.4677
X2.2854Y-2.9177
T6
X0.8165Y-1.848
X0.8165Y-2.1709
T7
X1.3449Y-4.4031
X2.1717Y-0.7811
X2.1717Y-4.4031
T2
G00X1.5957Y-4.4757
M15
G01X1.5957Y-4.4481
M16
G05
G00X1.8713Y-4.4481
M15
G01X1.8713Y-4.4757
M16
G05
T5
G00X0.8283Y-4.1835
M15
G01X0.789Y-4.1835
M16
G05
G00X0.8283Y-4.4
M15
G01X0.789Y-4.4
M16
G05
G00X0.8583Y-0.6884
M15
G01X0.8976Y-0.6884
M16
G05
G00X0.8583Y-0.9285
M15
G01X0.8976Y-0.9285
M16
G05
G00X0.8583Y-1.1451
M15
G01X0.8976Y-1.1451
M16
G05
G00X0.9071Y-4.0378
M15
G01X0.8677Y-4.0378
M16
G05
G00X0.9071Y-4.2543
M15
G01X0.8677Y-4.2543
M16
G05
G00X0.9071Y-4.4945
M15
G01X0.8677Y-4.4945
M16
G05
G00X0.937Y-0.7829
M15
G01X0.9764Y-0.7829
M16
G05
G00X0.937Y-0.9994
M15
G01X0.9764Y-0.9994
M16
G05
G00X1.3409Y-0.6898
M15
G01X1.3803Y-0.6898
M16
G05
G00X1.3409Y-0.9299
M15
G01X1.3803Y-0.9299
M16
G05
G00X1.3409Y-1.1465
M15
G01X1.3803Y-1.1465
M16
G05
G00X1.4197Y-0.7843
M15
G01X1.4591Y-0.7843
M16
G05
G00X1.4197Y-1.0008
M15
G01X1.4591Y-1.0008
M16
G05
G00X1.8031Y-0.6902
M15
G01X1.8425Y-0.6902
M16
G05
G00X1.8031Y-0.9303
M15
G01X1.8425Y-0.9303
M16
G05
G00X1.8031Y-1.1469
M15
G01X1.8425Y-1.1469
M16
G05
G00X1.8819Y-0.7846
M15
G01X1.9213Y-0.7846
M16
G05
G00X1.8819Y-1.0012
M15
G01X1.9213Y-1.0012
M16
G05
M30
