G04 #@! TF.GenerationSoftware,KiCad,Pcbnew,8.0.3*
G04 #@! TF.CreationDate,2024-08-04T14:16:49-04:00*
G04 #@! TF.ProjectId,MEAP_Rev4b,4d454150-5f52-4657-9634-622e6b696361,rev?*
G04 #@! TF.SameCoordinates,Original*
G04 #@! TF.FileFunction,Copper,L2,Bot*
G04 #@! TF.FilePolarity,Positive*
%FSLAX46Y46*%
G04 Gerber Fmt 4.6, Leading zero omitted, Abs format (unit mm)*
G04 Created by KiCad (PCBNEW 8.0.3) date 2024-08-04 14:16:49*
%MOMM*%
%LPD*%
G01*
G04 APERTURE LIST*
G04 Aperture macros list*
%AMRoundRect*
0 Rectangle with rounded corners*
0 $1 Rounding radius*
0 $2 $3 $4 $5 $6 $7 $8 $9 X,Y pos of 4 corners*
0 Add a 4 corners polygon primitive as box body*
4,1,4,$2,$3,$4,$5,$6,$7,$8,$9,$2,$3,0*
0 Add four circle primitives for the rounded corners*
1,1,$1+$1,$2,$3*
1,1,$1+$1,$4,$5*
1,1,$1+$1,$6,$7*
1,1,$1+$1,$8,$9*
0 Add four rect primitives between the rounded corners*
20,1,$1+$1,$2,$3,$4,$5,0*
20,1,$1+$1,$4,$5,$6,$7,0*
20,1,$1+$1,$6,$7,$8,$9,0*
20,1,$1+$1,$8,$9,$2,$3,0*%
%AMHorizOval*
0 Thick line with rounded ends*
0 $1 width*
0 $2 $3 position (X,Y) of the first rounded end (center of the circle)*
0 $4 $5 position (X,Y) of the second rounded end (center of the circle)*
0 Add line between two ends*
20,1,$1,$2,$3,$4,$5,0*
0 Add two circle primitives to create the rounded ends*
1,1,$1,$2,$3*
1,1,$1,$4,$5*%
%AMRotRect*
0 Rectangle, with rotation*
0 The origin of the aperture is its center*
0 $1 length*
0 $2 width*
0 $3 Rotation angle, in degrees counterclockwise*
0 Add horizontal line*
21,1,$1,$2,0,0,$3*%
G04 Aperture macros list end*
G04 #@! TA.AperFunction,ComponentPad*
%ADD10C,2.000000*%
G04 #@! TD*
G04 #@! TA.AperFunction,SMDPad,CuDef*
%ADD11RoundRect,0.250000X-1.100000X0.325000X-1.100000X-0.325000X1.100000X-0.325000X1.100000X0.325000X0*%
G04 #@! TD*
G04 #@! TA.AperFunction,ComponentPad*
%ADD12R,1.700000X1.700000*%
G04 #@! TD*
G04 #@! TA.AperFunction,ComponentPad*
%ADD13O,1.700000X1.700000*%
G04 #@! TD*
G04 #@! TA.AperFunction,ComponentPad*
%ADD14O,2.800000X1.800000*%
G04 #@! TD*
G04 #@! TA.AperFunction,ComponentPad*
%ADD15R,1.600000X1.600000*%
G04 #@! TD*
G04 #@! TA.AperFunction,ComponentPad*
%ADD16O,1.600000X1.600000*%
G04 #@! TD*
G04 #@! TA.AperFunction,ComponentPad*
%ADD17O,3.500000X2.200000*%
G04 #@! TD*
G04 #@! TA.AperFunction,ComponentPad*
%ADD18R,2.500000X1.500000*%
G04 #@! TD*
G04 #@! TA.AperFunction,ComponentPad*
%ADD19O,2.500000X1.500000*%
G04 #@! TD*
G04 #@! TA.AperFunction,ComponentPad*
%ADD20RotRect,2.200000X2.200000X330.000000*%
G04 #@! TD*
G04 #@! TA.AperFunction,ComponentPad*
%ADD21HorizOval,2.200000X0.000000X0.000000X0.000000X0.000000X0*%
G04 #@! TD*
G04 #@! TA.AperFunction,ComponentPad*
%ADD22O,1.200000X1.900000*%
G04 #@! TD*
G04 #@! TA.AperFunction,ComponentPad*
%ADD23C,1.450000*%
G04 #@! TD*
G04 #@! TA.AperFunction,ComponentPad*
%ADD24R,2.200000X2.200000*%
G04 #@! TD*
G04 #@! TA.AperFunction,ComponentPad*
%ADD25O,2.200000X2.200000*%
G04 #@! TD*
G04 #@! TA.AperFunction,ComponentPad*
%ADD26R,1.800000X1.800000*%
G04 #@! TD*
G04 #@! TA.AperFunction,ComponentPad*
%ADD27C,1.800000*%
G04 #@! TD*
G04 #@! TA.AperFunction,SMDPad,CuDef*
%ADD28RoundRect,0.375000X0.237732X0.689009X-0.719823X-0.114476X-0.237732X-0.689009X0.719823X0.114476X0*%
G04 #@! TD*
G04 #@! TA.AperFunction,SMDPad,CuDef*
%ADD29RoundRect,0.500000X-0.516880X1.393856X-1.282925X0.751068X0.516880X-1.393856X1.282925X-0.751068X0*%
G04 #@! TD*
G04 #@! TA.AperFunction,SMDPad,CuDef*
%ADD30RoundRect,0.250000X-0.458102X1.051555X-0.956031X0.633743X0.458102X-1.051555X0.956031X-0.633743X0*%
G04 #@! TD*
G04 #@! TA.AperFunction,SMDPad,CuDef*
%ADD31RoundRect,0.250000X0.290580X-0.735230X0.673602X-0.413836X-0.290580X0.735230X-0.673602X0.413836X0*%
G04 #@! TD*
G04 #@! TA.AperFunction,SMDPad,CuDef*
%ADD32RoundRect,0.250000X-0.290580X0.735230X-0.673602X0.413836X0.290580X-0.735230X0.673602X-0.413836X0*%
G04 #@! TD*
G04 #@! TA.AperFunction,SMDPad,CuDef*
%ADD33RoundRect,0.237500X-0.250000X-0.237500X0.250000X-0.237500X0.250000X0.237500X-0.250000X0.237500X0*%
G04 #@! TD*
G04 #@! TA.AperFunction,SMDPad,CuDef*
%ADD34RoundRect,0.237500X0.250000X0.237500X-0.250000X0.237500X-0.250000X-0.237500X0.250000X-0.237500X0*%
G04 #@! TD*
G04 #@! TA.AperFunction,SMDPad,CuDef*
%ADD35RoundRect,0.237500X0.204960X0.277304X-0.287443X0.190480X-0.204960X-0.277304X0.287443X-0.190480X0*%
G04 #@! TD*
G04 #@! TA.AperFunction,SMDPad,CuDef*
%ADD36RoundRect,0.237500X0.038849X0.342632X-0.344173X0.021239X-0.038849X-0.342632X0.344173X-0.021239X0*%
G04 #@! TD*
G04 #@! TA.AperFunction,SMDPad,CuDef*
%ADD37RoundRect,0.150000X-0.150000X0.825000X-0.150000X-0.825000X0.150000X-0.825000X0.150000X0.825000X0*%
G04 #@! TD*
G04 #@! TA.AperFunction,SMDPad,CuDef*
%ADD38RoundRect,0.150000X0.645206X-0.535569X-0.415393X0.728405X-0.645206X0.535569X0.415393X-0.728405X0*%
G04 #@! TD*
G04 #@! TA.AperFunction,SMDPad,CuDef*
%ADD39RoundRect,0.237500X0.137672X-0.316153X0.308682X0.153693X-0.137672X0.316153X-0.308682X-0.153693X0*%
G04 #@! TD*
G04 #@! TA.AperFunction,ViaPad*
%ADD40C,0.800000*%
G04 #@! TD*
G04 #@! TA.AperFunction,Conductor*
%ADD41C,0.406400*%
G04 #@! TD*
G04 #@! TA.AperFunction,Conductor*
%ADD42C,0.812800*%
G04 #@! TD*
G04 #@! TA.AperFunction,Conductor*
%ADD43C,0.254000*%
G04 #@! TD*
G04 APERTURE END LIST*
D10*
X28640000Y-106400000D03*
D11*
X31900000Y-92160000D03*
X31899998Y-89210000D03*
D10*
X43620000Y-66350000D03*
D12*
X51540000Y-48700000D03*
D13*
X54240000Y-48700000D03*
X56940000Y-48700000D03*
D10*
X25520000Y-52540000D03*
X40480000Y-70060000D03*
D12*
X35470000Y-39930000D03*
D13*
X35470000Y-42470000D03*
D12*
X40640000Y-48700000D03*
D13*
X43340000Y-48700000D03*
X46040000Y-48700000D03*
D12*
X40640000Y-55100000D03*
D13*
X43340000Y-55100000D03*
X46040000Y-55100000D03*
D14*
X48300000Y-25430000D03*
X46300000Y-23630000D03*
X46300000Y-17530000D03*
X48300000Y-19930000D03*
X46300000Y-29130000D03*
D12*
X51540000Y-55100000D03*
D13*
X54240000Y-55100000D03*
X56940000Y-55100000D03*
D12*
X55220000Y-29660000D03*
D13*
X57760000Y-29660000D03*
X55220000Y-32200000D03*
X57760000Y-32200000D03*
X55220000Y-34740000D03*
X57760000Y-34740000D03*
X55220000Y-37280000D03*
X57760000Y-37280000D03*
D10*
X51860000Y-71960000D03*
D12*
X40640000Y-42300000D03*
D13*
X43340000Y-42300000D03*
X46040000Y-42300000D03*
D10*
X44100000Y-70290000D03*
D14*
X20540001Y-106260001D03*
X22540000Y-108060000D03*
X22540000Y-114160000D03*
X20540001Y-111760001D03*
X22540000Y-102560000D03*
D10*
X55970000Y-87280000D03*
D12*
X22690000Y-68810000D03*
D13*
X22690000Y-66270000D03*
X22689997Y-63730001D03*
D10*
X28670000Y-103300000D03*
X46755000Y-66350000D03*
D12*
X57640000Y-82390000D03*
D13*
X55100000Y-82390000D03*
X57640000Y-79850000D03*
X55100002Y-79850001D03*
X57639997Y-77310001D03*
X55100001Y-77310002D03*
X57640000Y-74770000D03*
X55099999Y-74770001D03*
D15*
X30900001Y-32460000D03*
D16*
X30900001Y-35000000D03*
X38520000Y-35000000D03*
X38520001Y-32460000D03*
D10*
X26450000Y-49460000D03*
X20180000Y-73670000D03*
X20130000Y-77480000D03*
D12*
X40640000Y-61500000D03*
D13*
X43340000Y-61500000D03*
X46040000Y-61500000D03*
D12*
X19750000Y-81040000D03*
D13*
X19750000Y-83580000D03*
X19750000Y-86120000D03*
D14*
X24300000Y-25385000D03*
X22300000Y-23585000D03*
X22300000Y-17485000D03*
X24300000Y-19885000D03*
X22300000Y-29085000D03*
D10*
X28380000Y-73080000D03*
X51710000Y-85690000D03*
X49890000Y-66350000D03*
D12*
X28210000Y-87180000D03*
D13*
X28210000Y-89720000D03*
X28210000Y-92260000D03*
D12*
X51540000Y-61500000D03*
D13*
X54240000Y-61500000D03*
X56940000Y-61500000D03*
D12*
X51540000Y-42300000D03*
D13*
X54240000Y-42300000D03*
X56940000Y-42300000D03*
D17*
X20740000Y-55140000D03*
X20740000Y-46940000D03*
D18*
X20740000Y-53040000D03*
D19*
X20740001Y-51039999D03*
X20740000Y-49040000D03*
D20*
X38350295Y-106170000D03*
D21*
X40550000Y-107440000D03*
D10*
X41260000Y-104220000D03*
D22*
X40529999Y-113332000D03*
D23*
X41529999Y-110632000D03*
X46529999Y-110632000D03*
D22*
X47529999Y-113332000D03*
D14*
X36560000Y-25420000D03*
X34560000Y-23620000D03*
X34560000Y-17520000D03*
X36560000Y-19920000D03*
X34560000Y-29120000D03*
D24*
X34430000Y-105110000D03*
D25*
X31890000Y-105110000D03*
D12*
X19820000Y-58520000D03*
D13*
X22360000Y-58520000D03*
D12*
X22540003Y-41299999D03*
D13*
X22540003Y-38759999D03*
X22540003Y-36219999D03*
D26*
X24390000Y-81600000D03*
D27*
X24390000Y-79060000D03*
D12*
X22640000Y-95310000D03*
D13*
X22640000Y-92770000D03*
X22640000Y-90230000D03*
D28*
X37936824Y-97113806D03*
D29*
X31632333Y-99401466D03*
D28*
X36458411Y-95351902D03*
X34980000Y-93590000D03*
D30*
X37590000Y-101400000D03*
X39849830Y-99503776D03*
D10*
X37380000Y-70630000D03*
X26130000Y-98750000D03*
D26*
X25440000Y-75220000D03*
D27*
X22900000Y-75220000D03*
D31*
X52974795Y-95764212D03*
X44890000Y-83920000D03*
D32*
X54947493Y-94148085D03*
D33*
X51377502Y-40170001D03*
X53202498Y-40169999D03*
D32*
X51174592Y-97274764D03*
D34*
X44604998Y-50500000D03*
X42780000Y-50500000D03*
D32*
X56709660Y-92747777D03*
D35*
X44670000Y-52180000D03*
X42872728Y-52496908D03*
D33*
X53690000Y-46540000D03*
X55514996Y-46539998D03*
D31*
X39799501Y-88152273D03*
D36*
X44980000Y-57730000D03*
X43581970Y-58903088D03*
D33*
X53685004Y-52940002D03*
X55510000Y-52940000D03*
D32*
X49382047Y-98778886D03*
D37*
X41250000Y-32484999D03*
X42519999Y-32485000D03*
X43790000Y-32485003D03*
X45059997Y-32484997D03*
X46330001Y-32484999D03*
X47600001Y-32485000D03*
X48870000Y-32484999D03*
X50139999Y-32485000D03*
X50140000Y-37435001D03*
X48870001Y-37435000D03*
X47600000Y-37434997D03*
X46330003Y-37435003D03*
X45059999Y-37435001D03*
X43789999Y-37435000D03*
X42520000Y-37435001D03*
X41250001Y-37435000D03*
D33*
X53685004Y-59350002D03*
X55510000Y-59350000D03*
D32*
X41556474Y-86730215D03*
D38*
X51521444Y-91200762D03*
X50548570Y-92017103D03*
X49575694Y-92833442D03*
X48602816Y-93649784D03*
X47629940Y-94466125D03*
X46657063Y-95282463D03*
X45684187Y-96098804D03*
X44711311Y-96915144D03*
X41529514Y-93123224D03*
X42502388Y-92306883D03*
X43475264Y-91490544D03*
X44448142Y-90674202D03*
X45421018Y-89857861D03*
X46393895Y-89041523D03*
X47366771Y-88225182D03*
X48339647Y-87408842D03*
D32*
X43211129Y-85341793D03*
D39*
X46245812Y-46194936D03*
X46870000Y-44480000D03*
D40*
X39490000Y-94460000D03*
X24540000Y-93080000D03*
X48790000Y-51860000D03*
X45560000Y-93850000D03*
X32886533Y-67015122D03*
X29520000Y-60630000D03*
X23810000Y-62420000D03*
X56630000Y-96010000D03*
X30490000Y-62850000D03*
X38390000Y-44430000D03*
X40470000Y-45220000D03*
X47940000Y-58260000D03*
X41120000Y-35450000D03*
X39530000Y-39490000D03*
X30630000Y-43870000D03*
X53280000Y-60350000D03*
X32790000Y-78370000D03*
X41100000Y-95550000D03*
X46070000Y-75980000D03*
X42160000Y-96320000D03*
X50270000Y-74370000D03*
X47160000Y-91110000D03*
X52840000Y-92680000D03*
X26940000Y-61380000D03*
X28140000Y-56320000D03*
X31820000Y-56160000D03*
X26480000Y-59370000D03*
X47410000Y-81200000D03*
X32860000Y-79470000D03*
X44250000Y-34130000D03*
X42460000Y-76150000D03*
X53410000Y-67690000D03*
X51980000Y-67910000D03*
X40090000Y-76530000D03*
X50990000Y-32350000D03*
X47520000Y-82300000D03*
X31370000Y-74320000D03*
X54170000Y-99580000D03*
X51910000Y-33340000D03*
X26210000Y-47430000D03*
X44990000Y-75970000D03*
X32970000Y-81520000D03*
X38340000Y-79840000D03*
X40970000Y-64270000D03*
X39420000Y-80050000D03*
X41940000Y-64680000D03*
X29540000Y-84560000D03*
X32640000Y-85420000D03*
X35750000Y-78560000D03*
X41160000Y-75930000D03*
X27710000Y-69080000D03*
D41*
X27920000Y-84240000D02*
X29526176Y-83146176D01*
X31090000Y-82293964D02*
X32970000Y-81520000D01*
X29526176Y-83146176D02*
X31090000Y-82293964D01*
X26630000Y-85220000D02*
X27920000Y-84240000D01*
X24146696Y-90060000D02*
X25780000Y-86510000D01*
X24073399Y-90380000D02*
X24146696Y-90060000D01*
X25780000Y-86510000D02*
X26630000Y-85220000D01*
X22640000Y-92770000D02*
X23381613Y-92301613D01*
X23381613Y-92301613D02*
X24073399Y-90380000D01*
X25848069Y-88040000D02*
X25367057Y-89310000D01*
X28620000Y-84666604D02*
X26924919Y-86124919D01*
X25848069Y-88040000D02*
X26924919Y-86124919D01*
X24540000Y-93080000D02*
X25367057Y-89310000D01*
X28620000Y-84666604D02*
X28820000Y-84610000D01*
X24263592Y-77146408D02*
X23610000Y-76590000D01*
X24263592Y-77146408D02*
X25120000Y-77568612D01*
X26420000Y-77950000D02*
X25120000Y-77568612D01*
X23610000Y-76590000D02*
X22900000Y-75220000D01*
X42497833Y-47992167D02*
X41121571Y-46858429D01*
X40199458Y-46050542D02*
X39757778Y-45490000D01*
X41121571Y-46858429D02*
X40199458Y-46050542D01*
X42704560Y-43485440D02*
X42147437Y-42800000D01*
X45640000Y-44940000D02*
X45010000Y-44717293D01*
X42704560Y-43485440D02*
X45010000Y-44717293D01*
X42147437Y-42800000D02*
X42068321Y-42330000D01*
X43003066Y-40933066D02*
X44170000Y-40370000D01*
X42377273Y-41397273D02*
X43003066Y-40933066D01*
X42068321Y-42330000D02*
X42116412Y-41980000D01*
X42116412Y-41980000D02*
X42377273Y-41397273D01*
X39399926Y-43500000D02*
X39552823Y-44200000D01*
X39324669Y-42780000D02*
X39399926Y-43500000D01*
X39327728Y-41830000D02*
X39324669Y-42780000D01*
X39552823Y-44200000D02*
X39757778Y-45490000D01*
X37236122Y-45880000D02*
X36946422Y-43420000D01*
X36946422Y-43420000D02*
X37013186Y-40130000D01*
X37013186Y-40130000D02*
X37041538Y-38840000D01*
X37832737Y-45740000D02*
X37533469Y-43660000D01*
X37533469Y-43660000D02*
X37631198Y-39950000D01*
X38400000Y-49810000D02*
X37236122Y-45880000D01*
X39030000Y-49730000D02*
X37832737Y-45740000D01*
X39471335Y-41291335D02*
X39327728Y-41830000D01*
X39471335Y-41291335D02*
X39696570Y-40996570D01*
X42149696Y-39379696D02*
X42503966Y-38850000D01*
X40950000Y-40249622D02*
X41220000Y-40147546D01*
X41220000Y-40147546D02*
X42149696Y-39379696D01*
X39696570Y-40996570D02*
X40950000Y-40249622D01*
X38906093Y-40446093D02*
X39850000Y-39930000D01*
X38458793Y-43860000D02*
X38459745Y-41360000D01*
X38459745Y-41360000D02*
X38906093Y-40446093D01*
X37364054Y-34424054D02*
X37480000Y-34150000D01*
X37041538Y-38840000D02*
X37131137Y-35610000D01*
X37364054Y-34424054D02*
X37131137Y-35610000D01*
X39200000Y-33780000D02*
X38370000Y-33780000D01*
X37480000Y-34150000D02*
X37668125Y-33988125D01*
X38370000Y-33780000D02*
X37668125Y-33988125D01*
X38578604Y-36398604D02*
X38122638Y-37382638D01*
X38122638Y-37382638D02*
X37631198Y-39950000D01*
X40700000Y-34720000D02*
X40108484Y-35188484D01*
X40108484Y-35188484D02*
X38578604Y-36398604D01*
X44277338Y-35832662D02*
X45024180Y-36175820D01*
X44277338Y-35832662D02*
X43016656Y-34973344D01*
X43016656Y-34973344D02*
X42370000Y-34547018D01*
X42370000Y-34547018D02*
X40660000Y-33960000D01*
X41300000Y-34720000D02*
X40700000Y-34720000D01*
X43774133Y-36360000D02*
X42520089Y-35279911D01*
X42520089Y-35279911D02*
X41300000Y-34720000D01*
X43594257Y-34515743D02*
X43493789Y-33850000D01*
X43493789Y-33850000D02*
X43790000Y-32485003D01*
X43760000Y-34660000D02*
X43594257Y-34515743D01*
X45628174Y-36050000D02*
X45720000Y-36930000D01*
X45628174Y-36050000D02*
X45003922Y-35416078D01*
X44650000Y-35200000D02*
X45003922Y-35416078D01*
X47600000Y-37434997D02*
X46768135Y-35731865D01*
X45826596Y-35023404D02*
X44250000Y-34130000D01*
X46768135Y-35731865D02*
X45826596Y-35023404D01*
X50949127Y-35909127D02*
X50140000Y-37435001D01*
X50949127Y-35909127D02*
X51618824Y-34330000D01*
X51910000Y-33340000D02*
X51618824Y-34330000D01*
X49974731Y-34894731D02*
X50569270Y-34069270D01*
X50957778Y-32930000D02*
X50990000Y-32350000D01*
X50569270Y-34069270D02*
X50957778Y-32930000D01*
X49301043Y-35970000D02*
X49974731Y-34894731D01*
X48870001Y-37435000D02*
X49301043Y-35970000D01*
X50510000Y-39910000D02*
X50510000Y-40660000D01*
X50510000Y-40660000D02*
X50802542Y-41387458D01*
X50802542Y-41387458D02*
X51700000Y-42300000D01*
X52018687Y-37938687D02*
X52289033Y-37339033D01*
X51150365Y-38950365D02*
X50800000Y-39200000D01*
X52018687Y-37938687D02*
X51150365Y-38950365D01*
X52640000Y-34550000D02*
X52537436Y-36050000D01*
X52289033Y-37339033D02*
X52537436Y-36050000D01*
X57520000Y-39570000D02*
X57030750Y-39029250D01*
X57030750Y-39029250D02*
X56566251Y-37550000D01*
X56530000Y-28170000D02*
X56566251Y-37550000D01*
X55325258Y-41504742D02*
X54412578Y-39690000D01*
X55660000Y-42660000D02*
X55325258Y-41504742D01*
X54020000Y-38110000D02*
X54412578Y-39690000D01*
X47441812Y-42310000D02*
X47375638Y-41730000D01*
X46870000Y-44480000D02*
X47219157Y-43560000D01*
X47441812Y-42310000D02*
X47219157Y-43560000D01*
X47106514Y-40873486D02*
X46886315Y-40423685D01*
X47375638Y-41730000D02*
X47106514Y-40873486D01*
X44329076Y-41409076D02*
X43340000Y-42300000D01*
X46886315Y-40423685D02*
X45220000Y-40942521D01*
X45220000Y-40942521D02*
X44329076Y-41409076D01*
X46401511Y-38830000D02*
X46330003Y-37435003D01*
X46886315Y-40423685D02*
X46541227Y-39718773D01*
X46401511Y-38830000D02*
X46541227Y-39718773D01*
X47770000Y-46790000D02*
X47578319Y-46220000D01*
X47578319Y-46220000D02*
X47140000Y-45591373D01*
X53268597Y-44410000D02*
X52737866Y-41312134D01*
X52737866Y-41312134D02*
X52430000Y-40870000D01*
X59270000Y-28870000D02*
X58700629Y-53780000D01*
X58527895Y-55660000D02*
X58700629Y-53780000D01*
X57280293Y-57940293D02*
X57987405Y-56877405D01*
X56480571Y-58730571D02*
X55510000Y-59350000D01*
X57280293Y-57940293D02*
X56480571Y-58730571D01*
X57987405Y-56877405D02*
X58527895Y-55660000D01*
X58014040Y-49450000D02*
X58193728Y-48880000D01*
X57093895Y-50853895D02*
X55510000Y-52940000D01*
X58014040Y-49450000D02*
X57093895Y-50853895D01*
X58324667Y-47270000D02*
X58420000Y-41440000D01*
X58193728Y-48880000D02*
X58324667Y-47270000D01*
X53080000Y-56000000D02*
X53047466Y-55050000D01*
X53206033Y-54110000D02*
X53685004Y-52940002D01*
X53047466Y-55050000D02*
X53206033Y-54110000D01*
X44980000Y-57730000D02*
X44677674Y-54000000D01*
X44677674Y-54000000D02*
X44670000Y-52180000D01*
X39160000Y-69600000D02*
X38610000Y-74130000D01*
X40970000Y-64270000D02*
X40328547Y-65528547D01*
X39160000Y-69600000D02*
X40328547Y-65528547D01*
X41300640Y-66770000D02*
X41355749Y-66020000D01*
X41863529Y-69390000D02*
X41716470Y-68640000D01*
X41300640Y-66770000D02*
X41716470Y-68640000D01*
X41355749Y-66020000D02*
X41940000Y-64680000D01*
X42571617Y-68480000D02*
X41990309Y-66930000D01*
X42048377Y-66028377D02*
X42312379Y-65560000D01*
X41990309Y-66930000D02*
X42048377Y-66028377D01*
X42645181Y-69030000D02*
X42571617Y-68480000D01*
X41720000Y-70760000D02*
X41850204Y-70180000D01*
X41850204Y-70180000D02*
X41863529Y-69390000D01*
X42557919Y-70040000D02*
X42380000Y-70580000D01*
X42557919Y-70040000D02*
X42645181Y-69030000D01*
X45980330Y-69750000D02*
X45823077Y-69210000D01*
X45321567Y-68268433D02*
X43620000Y-66350000D01*
X45823077Y-69210000D02*
X45321567Y-68268433D01*
X45140000Y-72590000D02*
X45872019Y-71112019D01*
X45872019Y-71112019D02*
X45980330Y-69750000D01*
X46944752Y-70200000D02*
X45460000Y-74260000D01*
X46755000Y-66350000D02*
X47035049Y-68160000D01*
X46944752Y-70200000D02*
X47035049Y-68160000D01*
X50486538Y-73303462D02*
X50055273Y-71550000D01*
X49920000Y-70240000D02*
X49920000Y-69130000D01*
X50055273Y-71550000D02*
X49920000Y-70240000D01*
X50486538Y-73303462D02*
X50850000Y-73780000D01*
X49920000Y-69130000D02*
X49890000Y-66350000D01*
X53924175Y-74064175D02*
X53780000Y-74250000D01*
X54300263Y-73150000D02*
X54380000Y-72340000D01*
X53924175Y-74064175D02*
X54300263Y-73150000D01*
X53780000Y-74250000D02*
X52917665Y-75287665D01*
X43401905Y-82891905D02*
X42590000Y-83630000D01*
X52917665Y-75287665D02*
X43401905Y-82891905D01*
X53940000Y-69770000D02*
X53410000Y-67690000D01*
X54280000Y-71090000D02*
X53940000Y-69770000D01*
X54380000Y-72340000D02*
X54280000Y-71090000D01*
X53472228Y-73492228D02*
X53266571Y-73876571D01*
X52496194Y-74726194D02*
X48370000Y-77960000D01*
X53266571Y-73876571D02*
X52496194Y-74726194D01*
X53740209Y-72480000D02*
X53767053Y-71760000D01*
X53740209Y-72480000D02*
X53472228Y-73492228D01*
X51980000Y-67910000D02*
X53578498Y-70791502D01*
X53767053Y-71760000D02*
X53578498Y-70791502D01*
X50834731Y-75004731D02*
X51017377Y-74577377D01*
X50850000Y-73780000D02*
X51011221Y-74098779D01*
X51017377Y-74577377D02*
X51011221Y-74098779D01*
X50834731Y-75004731D02*
X48890000Y-76520000D01*
X43883437Y-78143437D02*
X46070000Y-75980000D01*
X43883437Y-78143437D02*
X40550000Y-81730000D01*
X47574539Y-75944539D02*
X48030000Y-75550000D01*
X42520684Y-80490684D02*
X44427908Y-78597908D01*
X44427908Y-78597908D02*
X47574539Y-75944539D01*
X42650000Y-78200000D02*
X42993134Y-77973134D01*
X42993134Y-77973134D02*
X44990000Y-75970000D01*
X38330000Y-80740000D02*
X37931190Y-80468810D01*
X37490849Y-79880000D02*
X37310000Y-79170000D01*
X37931190Y-80468810D02*
X37490849Y-79880000D01*
X35224245Y-83510000D02*
X34867117Y-79510000D01*
X34867117Y-79510000D02*
X34631230Y-77920000D01*
X35096975Y-86736719D02*
X35224245Y-83510000D01*
X53730000Y-89480000D02*
X50970000Y-88270000D01*
X58090000Y-93610000D02*
X58050000Y-92740000D01*
X58050000Y-92740000D02*
X57290000Y-91770000D01*
X50970000Y-88270000D02*
X48339647Y-87408842D01*
X57290000Y-91770000D02*
X56060000Y-90830000D01*
X57208157Y-95488157D02*
X56630000Y-96010000D01*
X57208157Y-95488157D02*
X58090000Y-93610000D01*
X56060000Y-90830000D02*
X53730000Y-89480000D01*
X49340000Y-100475992D02*
X47510000Y-100057742D01*
X42169073Y-97450927D02*
X41253782Y-96916218D01*
X47510000Y-100057742D02*
X42169073Y-97450927D01*
X49340000Y-100475992D02*
X51590000Y-100355668D01*
X51590000Y-100355668D02*
X53150000Y-100140000D01*
D42*
X41529999Y-110632000D02*
X41894630Y-109764630D01*
X41894630Y-109764630D02*
X42908323Y-105160000D01*
X42908323Y-105160000D02*
X42972089Y-103410000D01*
X42972089Y-103410000D02*
X42860000Y-102170000D01*
X30027368Y-108567368D02*
X29114172Y-109034172D01*
X29114172Y-109034172D02*
X26161226Y-110471226D01*
X31088762Y-107719972D02*
X30027368Y-108567368D01*
X31088762Y-107719972D02*
X33550000Y-107745620D01*
X33550000Y-107745620D02*
X36930000Y-107650000D01*
X31260000Y-106808761D02*
X30340000Y-106800000D01*
X35660000Y-106740921D02*
X35230000Y-106763188D01*
X35230000Y-106763188D02*
X31260000Y-106808761D01*
X36930000Y-107650000D02*
X39690000Y-109160000D01*
X39690000Y-109160000D02*
X41529999Y-110632000D01*
X27040703Y-106380000D02*
X27024270Y-105890000D01*
X27024270Y-105890000D02*
X28670000Y-103300000D01*
X27196960Y-107133040D02*
X27040703Y-106380000D01*
X27670000Y-107771713D02*
X27196960Y-107133040D01*
X28310000Y-107960909D02*
X27670000Y-107771713D01*
X29070000Y-107935000D02*
X28310000Y-107960909D01*
X30340000Y-106800000D02*
X29880308Y-107420308D01*
X29070000Y-107935000D02*
X29880308Y-107420308D01*
X35660000Y-106740921D02*
X36270000Y-106540000D01*
X25488007Y-103740000D02*
X24797158Y-101880000D01*
X24797158Y-101880000D02*
X23680000Y-99680000D01*
X25488007Y-103740000D02*
X26161226Y-110471226D01*
D41*
X19037246Y-99840000D02*
X18954581Y-100660000D01*
X18745561Y-106040000D02*
X18755021Y-103620000D01*
X18755021Y-103620000D02*
X18954581Y-100660000D01*
X18822544Y-106780000D02*
X18745561Y-106040000D01*
X18822544Y-106780000D02*
X19276825Y-108300000D01*
X20540001Y-111760001D02*
X19276825Y-108300000D01*
X19037246Y-99840000D02*
X20259240Y-91870000D01*
X21227861Y-86230000D02*
X21395780Y-85530000D01*
X21227861Y-86230000D02*
X20259240Y-91870000D01*
X20540001Y-106260001D02*
X21063456Y-91220000D01*
X22396848Y-83740000D02*
X21333957Y-89010000D01*
X21333957Y-89010000D02*
X21063456Y-91220000D01*
X22396848Y-83740000D02*
X22572534Y-80110000D01*
X21777941Y-83070000D02*
X21800000Y-80570000D01*
X21777941Y-83070000D02*
X21395780Y-85530000D01*
X22237840Y-76852160D02*
X22463135Y-78230000D01*
X22572534Y-80110000D02*
X22463135Y-78230000D01*
X22237840Y-76852160D02*
X21930000Y-76340000D01*
X21800000Y-80570000D02*
X21904186Y-78650000D01*
X21718025Y-77410000D02*
X21320000Y-76370000D01*
X21904186Y-78650000D02*
X21718025Y-77410000D01*
X20638835Y-70931165D02*
X20153323Y-69220000D01*
X20044632Y-67470000D02*
X20130000Y-65150000D01*
X20153323Y-69220000D02*
X20044632Y-67470000D01*
X21100000Y-71720000D02*
X20638835Y-70931165D01*
D42*
X22690000Y-68810000D02*
X23740000Y-68625170D01*
X24281421Y-67700000D02*
X24320000Y-64890000D01*
X23740000Y-68625170D02*
X24281421Y-67700000D01*
D41*
X24130000Y-70138000D02*
X24650052Y-69610052D01*
X25192963Y-68540000D02*
X25270000Y-68260000D01*
X24650052Y-69610052D02*
X25192963Y-68540000D01*
X24130000Y-70138000D02*
X22970000Y-70431867D01*
X21753271Y-70546729D02*
X21524969Y-70445031D01*
X21753271Y-70546729D02*
X22970000Y-70431867D01*
X20930000Y-69670000D02*
X20930000Y-69290000D01*
X20930000Y-69670000D02*
X21524969Y-70445031D01*
X21490000Y-67310000D02*
X21184253Y-67954253D01*
X21184253Y-67954253D02*
X20930000Y-69290000D01*
X22690000Y-66270000D02*
X21490000Y-67310000D01*
X27060000Y-66052954D02*
X29340000Y-66040000D01*
X26292664Y-66352664D02*
X25936332Y-66686332D01*
X27060000Y-66052954D02*
X26292664Y-66352664D01*
X25270000Y-68260000D02*
X25500000Y-67340000D01*
X25500000Y-67340000D02*
X25936332Y-66686332D01*
D42*
X39380971Y-62730971D02*
X40640000Y-61500000D01*
X38071174Y-63801174D02*
X35870000Y-65280000D01*
X39380971Y-62730971D02*
X38071174Y-63801174D01*
D41*
X39832796Y-64612796D02*
X39600993Y-65050993D01*
X41569812Y-62839812D02*
X40453865Y-63783865D01*
X39832796Y-64612796D02*
X40453865Y-63783865D01*
X36962652Y-68562652D02*
X37526677Y-68156677D01*
X38532486Y-67032486D02*
X38760000Y-66680000D01*
X37526677Y-68156677D02*
X38532486Y-67032486D01*
X36214058Y-69484058D02*
X36454634Y-69104634D01*
X36454634Y-69104634D02*
X36962652Y-68562652D01*
X36214058Y-69484058D02*
X35959890Y-70330000D01*
X35959890Y-70330000D02*
X35900000Y-71190000D01*
X41669130Y-78859130D02*
X41870000Y-78730000D01*
X40070000Y-80540000D02*
X40513408Y-79953408D01*
X41669130Y-78859130D02*
X40513408Y-79953408D01*
X36919434Y-77100000D02*
X37310000Y-79170000D01*
X35900000Y-71190000D02*
X36027358Y-72690000D01*
X36919434Y-77100000D02*
X36027358Y-72690000D01*
X38760000Y-66680000D02*
X39600993Y-65050993D01*
X42003263Y-62413263D02*
X41569812Y-62839812D01*
X42150000Y-60890000D02*
X42160000Y-61370000D01*
X42003263Y-62413263D02*
X42160000Y-61370000D01*
X42141243Y-60350000D02*
X42150000Y-60890000D01*
X41969195Y-59610805D02*
X41664153Y-58985847D01*
X42141243Y-60350000D02*
X41969195Y-59610805D01*
X41664153Y-58985847D02*
X40917163Y-58152837D01*
X40917163Y-58152837D02*
X39130000Y-56730000D01*
X41114664Y-57035336D02*
X40390000Y-56650000D01*
X42041085Y-57638915D02*
X41114664Y-57035336D01*
X38935140Y-53400000D02*
X38974179Y-54380000D01*
X39154388Y-55450000D02*
X38974179Y-54380000D01*
X39812558Y-56387442D02*
X39519864Y-56130136D01*
X39519864Y-56130136D02*
X39154388Y-55450000D01*
X39812558Y-56387442D02*
X40390000Y-56650000D01*
X31290000Y-46040000D02*
X36115439Y-49194561D01*
X37202488Y-50247512D02*
X36115439Y-49194561D01*
X38310000Y-52380000D02*
X37951152Y-51320000D01*
X37951152Y-51320000D02*
X37202488Y-50247512D01*
X38430000Y-54890000D02*
X38310000Y-52380000D01*
X38690000Y-56030000D02*
X38430000Y-54890000D01*
X39130000Y-56730000D02*
X38690000Y-56030000D01*
X42041085Y-57638915D02*
X43581970Y-58903088D01*
X38663557Y-50580000D02*
X38935140Y-53400000D01*
X38663557Y-50580000D02*
X38552976Y-50190000D01*
X38552976Y-50190000D02*
X38400000Y-49810000D01*
D43*
X25570959Y-59920000D02*
X25517260Y-59430000D01*
X26940000Y-61380000D02*
X25963474Y-60756526D01*
X25570959Y-59920000D02*
X25963474Y-60756526D01*
X25517260Y-59430000D02*
X25598931Y-58710000D01*
X25598931Y-58710000D02*
X25755420Y-58210000D01*
X26403263Y-57483263D02*
X27854341Y-56644341D01*
X25755420Y-58210000D02*
X26403263Y-57483263D01*
D41*
X30180000Y-57090000D02*
X29358634Y-57788634D01*
X26480000Y-59370000D02*
X29358634Y-57788634D01*
D42*
X22799786Y-62010000D02*
X23559610Y-61289610D01*
X23559610Y-61289610D02*
X24850000Y-60910000D01*
X24850000Y-60910000D02*
X24006818Y-58300000D01*
X22799786Y-62010000D02*
X22689997Y-63730001D01*
X23608706Y-57481294D02*
X24006818Y-58300000D01*
X22870000Y-56940000D02*
X23608706Y-57481294D01*
X18663481Y-56566519D02*
X18237128Y-55720000D01*
X19430000Y-56964227D02*
X20530000Y-56940000D01*
X18663481Y-56566519D02*
X19430000Y-56964227D01*
X18237128Y-55720000D02*
X18150000Y-50850000D01*
D41*
X36960000Y-91450000D02*
X34815308Y-88754692D01*
X34815308Y-88754692D02*
X32640000Y-85420000D01*
X38240000Y-92860000D02*
X36960000Y-91450000D01*
X39490000Y-94460000D02*
X38240000Y-92860000D01*
D42*
X40800000Y-98020000D02*
X42250000Y-99770000D01*
X37700000Y-93500000D02*
X39610000Y-96230000D01*
X39610000Y-96230000D02*
X40800000Y-98020000D01*
X34980000Y-93590000D02*
X37700000Y-93500000D01*
X42250000Y-99770000D02*
X42860000Y-102170000D01*
D41*
X40704404Y-96425596D02*
X40591926Y-96308074D01*
X40365356Y-95600000D02*
X40310000Y-94310000D01*
X40591926Y-96308074D02*
X40365356Y-95600000D01*
X40310000Y-94310000D02*
X36354587Y-89603050D01*
X35020000Y-87590000D02*
X35096975Y-86736719D01*
X36354587Y-89603050D02*
X35200000Y-88210000D01*
X35200000Y-88210000D02*
X35020000Y-87590000D01*
X35600000Y-86870000D02*
X36030000Y-85850000D01*
X35708858Y-87992416D02*
X35580000Y-87620000D01*
X40768669Y-94032781D02*
X36770000Y-89310000D01*
X41100000Y-95550000D02*
X40768669Y-94032781D01*
X36770000Y-89310000D02*
X35708858Y-87992416D01*
X35580000Y-87620000D02*
X35600000Y-86870000D01*
X38720000Y-83450000D02*
X40550000Y-81730000D01*
X36030000Y-85850000D02*
X38720000Y-83450000D01*
X41940000Y-95150000D02*
X41180672Y-93729327D01*
X36090000Y-87540000D02*
X36220000Y-86720000D01*
X38701319Y-90807252D02*
X36169087Y-87754074D01*
X37770000Y-85070000D02*
X40600000Y-82710000D01*
X36169087Y-87754074D02*
X36090000Y-87540000D01*
X40600000Y-82710000D02*
X42520684Y-80490684D01*
X36220000Y-86720000D02*
X37770000Y-85070000D01*
X41180672Y-93729327D02*
X38701319Y-90807252D01*
X36627184Y-87512816D02*
X36686340Y-87130000D01*
X37921212Y-85731212D02*
X40780000Y-83250000D01*
X36686340Y-87130000D02*
X37921212Y-85731212D01*
X39190000Y-90590000D02*
X36627184Y-87512816D01*
X37399309Y-87640691D02*
X37176490Y-87366490D01*
X40260000Y-90984264D02*
X37399309Y-87640691D01*
X41529514Y-93123224D02*
X39190000Y-90590000D01*
X37176490Y-87366490D02*
X40680000Y-84290000D01*
X41290000Y-91120000D02*
X40260000Y-90984264D01*
D42*
X41080000Y-101880000D02*
X42860000Y-102170000D01*
X37590000Y-101400000D02*
X41080000Y-101880000D01*
X35980000Y-102650000D02*
X36510000Y-104940000D01*
X37936824Y-97113806D02*
X35820000Y-99200000D01*
X35440000Y-100820000D02*
X35980000Y-102650000D01*
X35820000Y-99200000D02*
X35440000Y-100820000D01*
X36510000Y-104940000D02*
X36270000Y-106540000D01*
X31890000Y-105110000D02*
X31632333Y-99401466D01*
X26161226Y-110471226D02*
X22540000Y-114160000D01*
X37936824Y-97113806D02*
X39849830Y-99503776D01*
X36458411Y-95351902D02*
X31632333Y-99401466D01*
X29800000Y-93550000D02*
X30430000Y-95770000D01*
X30130000Y-90310000D02*
X29800000Y-91580000D01*
X29800000Y-91580000D02*
X29800000Y-93550000D01*
X31899998Y-89210000D02*
X30130000Y-90310000D01*
X30430000Y-95770000D02*
X31632333Y-99401466D01*
D41*
X28820000Y-84610000D02*
X29540000Y-84560000D01*
D42*
X34980000Y-93590000D02*
X31900000Y-92160000D01*
D41*
X48870000Y-32484999D02*
X47600001Y-32485000D01*
D42*
X51982247Y-56590000D02*
X51540000Y-55100000D01*
D41*
X45684187Y-96098804D02*
X46657063Y-95282462D01*
D42*
X35237721Y-65647721D02*
X35870000Y-65280000D01*
X29550000Y-65220000D02*
X32886533Y-67015122D01*
X52130000Y-57370000D02*
X51982247Y-56590000D01*
X51700000Y-48700000D02*
X48790000Y-51860000D01*
D41*
X51530000Y-30490000D02*
X52240000Y-31750000D01*
X44711311Y-96915144D02*
X45684187Y-96098804D01*
D42*
X51982247Y-56590000D02*
X51700000Y-55100000D01*
X22640000Y-95310000D02*
X28210000Y-92260000D01*
D41*
X50139999Y-32485000D02*
X48870000Y-32484999D01*
D42*
X24680000Y-64988032D02*
X29550000Y-65220000D01*
X51700000Y-61500000D02*
X51889662Y-60050000D01*
D41*
X50170000Y-30750000D02*
X51530000Y-30490000D01*
X50800000Y-39200000D02*
X50510000Y-39910000D01*
X50139999Y-32485000D02*
X50170000Y-30750000D01*
X52660000Y-32930000D02*
X52640000Y-34550000D01*
X46657063Y-95282462D02*
X45560000Y-93850000D01*
D42*
X51889662Y-60050000D02*
X51540000Y-61500000D01*
X22850000Y-97450000D02*
X22640000Y-95310000D01*
X23680000Y-99680000D02*
X22850000Y-97450000D01*
X52010000Y-59130000D02*
X52130000Y-57370000D01*
D41*
X29520000Y-60630000D02*
X35237721Y-65647721D01*
D42*
X24320000Y-64890000D02*
X23810000Y-62420000D01*
D41*
X52240000Y-31750000D02*
X52660000Y-32930000D01*
D42*
X24680000Y-64988032D02*
X24320000Y-64890000D01*
X51889662Y-60050000D02*
X52010000Y-59130000D01*
D41*
X40210000Y-39804781D02*
X39530000Y-39490000D01*
X53280000Y-60350000D02*
X53685004Y-59350002D01*
X52430000Y-40870000D02*
X51377502Y-40170001D01*
X41847500Y-45700494D02*
X44140000Y-46850000D01*
D42*
X19470000Y-39310000D02*
X22540003Y-36219999D01*
D41*
X40760000Y-38610000D02*
X41250001Y-37435000D01*
X53050000Y-49790000D02*
X53020000Y-48530000D01*
X53685004Y-52940002D02*
X53050000Y-49790000D01*
X44140000Y-46850000D02*
X44480000Y-47680000D01*
X41847500Y-45700494D02*
X40470000Y-45220000D01*
D42*
X18150000Y-43760000D02*
X19470000Y-39310000D01*
D41*
X44710000Y-49500000D02*
X44604998Y-50500000D01*
X53690000Y-46540000D02*
X53268597Y-44410000D01*
X40580000Y-39676083D02*
X40654994Y-39649998D01*
X53020000Y-48530000D02*
X53240000Y-47480000D01*
D42*
X18150000Y-50850000D02*
X18150000Y-43760000D01*
D41*
X44980000Y-57730000D02*
X47940000Y-58260000D01*
D42*
X26950000Y-62770000D02*
X24850000Y-60910000D01*
D41*
X53685004Y-59350002D02*
X53080000Y-56000000D01*
X41120000Y-35450000D02*
X41250001Y-37435000D01*
D42*
X20530000Y-56940000D02*
X22870000Y-56940000D01*
D41*
X53240000Y-47480000D02*
X53690000Y-46540000D01*
D42*
X30490000Y-62850000D02*
X26950000Y-62770000D01*
D41*
X39850000Y-39930000D02*
X40210000Y-39804781D01*
X40210000Y-39804781D02*
X40580000Y-39676083D01*
X30630000Y-43870000D02*
X27160000Y-40160000D01*
X44480000Y-47680000D02*
X44710000Y-49500000D01*
X44670000Y-52180000D02*
X44604998Y-50500000D01*
X44140000Y-46850000D02*
X46245812Y-46194936D01*
X40654994Y-39649998D02*
X40760000Y-38610000D01*
X27160000Y-40160000D02*
X22540003Y-36219999D01*
X38390000Y-44430000D02*
X38458793Y-43860000D01*
X32790000Y-78370000D02*
X26420000Y-77950000D01*
X41940000Y-95150000D02*
X42080000Y-95540000D01*
X42080000Y-95540000D02*
X42160000Y-96320000D01*
X48030000Y-75550000D02*
X50270000Y-74370000D01*
X52840000Y-92680000D02*
X53076035Y-91380000D01*
X52780000Y-89940000D02*
X51730000Y-89220000D01*
X49100000Y-89530000D02*
X47160000Y-91110000D01*
X52948917Y-90161083D02*
X52780000Y-89940000D01*
X50460000Y-89310000D02*
X49100000Y-89530000D01*
X53076035Y-91380000D02*
X52948917Y-90161083D01*
X51730000Y-89220000D02*
X50460000Y-89310000D01*
X21540000Y-75680000D02*
X21630000Y-74710000D01*
X20950000Y-61280000D02*
X21140000Y-60920000D01*
X21140000Y-60920000D02*
X22360000Y-58520000D01*
X21930000Y-76340000D02*
X21540000Y-75680000D01*
X21907167Y-73062833D02*
X21100000Y-71720000D01*
X21630000Y-74710000D02*
X21956185Y-74046185D01*
X20130000Y-65150000D02*
X20950000Y-61280000D01*
X21956185Y-74046185D02*
X21907167Y-73062833D01*
D43*
X27854341Y-56644341D02*
X28140000Y-56320000D01*
D41*
X31820000Y-56160000D02*
X30180000Y-57090000D01*
X51020000Y-81130108D02*
X48140000Y-80612680D01*
X55100000Y-82390000D02*
X51020000Y-81130108D01*
X48140000Y-80612680D02*
X47410000Y-81200000D01*
X26810000Y-79430000D02*
X24390000Y-79060000D01*
X32860000Y-79470000D02*
X26810000Y-79430000D01*
X42460000Y-76150000D02*
X45140000Y-72590000D01*
X46530000Y-64686143D02*
X45540000Y-64870000D01*
X48930000Y-55960000D02*
X47550000Y-54100000D01*
X38020000Y-87580000D02*
X42590000Y-83630000D01*
X46524080Y-53052100D02*
X47550000Y-54100000D01*
X48020000Y-49280000D02*
X48318669Y-47610000D01*
X46445058Y-51140624D02*
X46524080Y-53052100D01*
X48270000Y-45690000D02*
X48318669Y-47610000D01*
X47713759Y-64633759D02*
X49659317Y-57980000D01*
X46530000Y-64686143D02*
X47240000Y-64960000D01*
X40260000Y-90190000D02*
X38020000Y-87580000D01*
X49659317Y-57980000D02*
X49710000Y-57640000D01*
X48010000Y-39130000D02*
X47600000Y-37434997D01*
X45540000Y-64870000D02*
X43620000Y-66350000D01*
X43475264Y-91490544D02*
X42360000Y-90470000D01*
X49710000Y-57640000D02*
X48930000Y-55960000D01*
X48010000Y-39130000D02*
X48270000Y-45690000D01*
X46600776Y-50870776D02*
X46445058Y-51140624D01*
X47240000Y-64960000D02*
X47713759Y-64633759D01*
X46600776Y-50870776D02*
X48020000Y-49280000D01*
X42360000Y-90470000D02*
X40260000Y-90190000D01*
X48265519Y-64985519D02*
X50086457Y-58323584D01*
X48870001Y-37435000D02*
X48790000Y-42140000D01*
X48370000Y-77960000D02*
X44270000Y-81130000D01*
X50086457Y-58323584D02*
X50226898Y-57930000D01*
X50203356Y-57120000D02*
X49225273Y-55344727D01*
X44270000Y-81130000D02*
X41650000Y-83380000D01*
X45460000Y-74260000D02*
X43239572Y-76639572D01*
X41970000Y-76986043D02*
X40790000Y-76779590D01*
X47751460Y-53468540D02*
X47370000Y-53060000D01*
X46755000Y-66350000D02*
X47760011Y-65290011D01*
X42502388Y-92306883D02*
X41290000Y-91120000D01*
X41650000Y-83380000D02*
X40680000Y-84290000D01*
X50258835Y-57300000D02*
X50203356Y-57120000D01*
X41970000Y-76986043D02*
X42460000Y-76946471D01*
X48810000Y-54710000D02*
X47751460Y-53468540D01*
X47020000Y-51310000D02*
X48509840Y-49517841D01*
X47370000Y-53060000D02*
X47060000Y-52750000D01*
X48790000Y-42140000D02*
X48893987Y-47400000D01*
X40790000Y-76779590D02*
X40090000Y-76530000D01*
X50226898Y-57930000D02*
X50258835Y-57300000D01*
X49225273Y-55344727D02*
X48810000Y-54710000D01*
X47060000Y-52750000D02*
X47020000Y-51310000D01*
X42460000Y-76946471D02*
X43239572Y-76639572D01*
X48509840Y-49517841D02*
X48893987Y-47400000D01*
X47760011Y-65290011D02*
X48265519Y-64985519D01*
X53870000Y-83753992D02*
X55350000Y-83906703D01*
X56552783Y-83642783D02*
X57640000Y-82390000D01*
X50100000Y-82518934D02*
X47520000Y-82300000D01*
X55350000Y-83906703D02*
X56552783Y-83642783D01*
X50100000Y-82518934D02*
X53870000Y-83753992D01*
X53150000Y-100140000D02*
X54170000Y-99580000D01*
X40704404Y-96425596D02*
X41253782Y-96916218D01*
X34631230Y-77920000D02*
X34290000Y-76110000D01*
X34290000Y-76110000D02*
X31370000Y-74320000D01*
X18720000Y-68880000D02*
X18810000Y-65060000D01*
X18810000Y-65060000D02*
X18880000Y-63090000D01*
X18880000Y-63090000D02*
X19235918Y-62000000D01*
X18694800Y-74530000D02*
X18510000Y-73760000D01*
X19220000Y-75165868D02*
X18694800Y-74530000D01*
X18510000Y-73760000D02*
X18610000Y-71690000D01*
X18610000Y-71690000D02*
X18720000Y-68880000D01*
X20020000Y-75470000D02*
X19220000Y-75165868D01*
X19235918Y-62000000D02*
X19820000Y-58520000D01*
X21320000Y-76370000D02*
X20020000Y-75470000D01*
X47728656Y-51268656D02*
X49040000Y-49670000D01*
X49750000Y-62250000D02*
X50530000Y-58650000D01*
X50850999Y-57790000D02*
X50845355Y-57250000D01*
X46470000Y-78100000D02*
X43020000Y-81300000D01*
X48737006Y-53630000D02*
X47950000Y-52890000D01*
X43020000Y-81300000D02*
X40780000Y-83250000D01*
X49890000Y-66350000D02*
X49750000Y-62250000D01*
X49535916Y-42330000D02*
X49635720Y-47060000D01*
X50845355Y-57250000D02*
X50390359Y-56289641D01*
X50390359Y-56289641D02*
X49079647Y-54080353D01*
X49079647Y-54080353D02*
X48737006Y-53630000D01*
X50530000Y-58650000D02*
X50850999Y-57790000D01*
X50140000Y-37435001D02*
X49535916Y-42330000D01*
X49040000Y-49670000D02*
X49635720Y-47060000D01*
X47620000Y-51450000D02*
X47728656Y-51268656D01*
X47950000Y-52890000D02*
X47600000Y-52250000D01*
X47600000Y-52250000D02*
X47620000Y-51450000D01*
X48890000Y-76520000D02*
X46470000Y-78100000D01*
X23450000Y-48700000D02*
X25080000Y-47740000D01*
X22512030Y-50372030D02*
X22080000Y-50642620D01*
X25080000Y-47740000D02*
X26210000Y-47430000D01*
X22080000Y-50642620D02*
X20740001Y-51039999D01*
X22512030Y-50372030D02*
X23450000Y-48700000D01*
X39420000Y-80824303D02*
X40070000Y-80540000D01*
X41870000Y-78730000D02*
X42650000Y-78200000D01*
X39420000Y-80824303D02*
X38330000Y-80740000D01*
X22540003Y-38759999D02*
X28720000Y-43380000D01*
X28720000Y-43380000D02*
X31290000Y-46040000D01*
X38610000Y-74130000D02*
X38580000Y-78970000D01*
X38340000Y-79840000D02*
X38580000Y-78970000D01*
X48969508Y-29049508D02*
X51120000Y-28820000D01*
X51120000Y-28820000D02*
X52410000Y-29100000D01*
X48390000Y-29480000D02*
X48969508Y-29049508D01*
X46330001Y-32484999D02*
X47320000Y-30760000D01*
X53410000Y-35550000D02*
X53354547Y-31319548D01*
X53354547Y-31319548D02*
X52410000Y-29100000D01*
X53202498Y-40169999D02*
X53410000Y-35550000D01*
X47320000Y-30760000D02*
X48390000Y-29480000D01*
X53202498Y-40169999D02*
X54240000Y-42300000D01*
X45070000Y-28023241D02*
X44833442Y-28243442D01*
X44580551Y-28630551D02*
X44567494Y-30920000D01*
X55660000Y-42660000D02*
X55514996Y-46539998D01*
X48260000Y-28400000D02*
X50490000Y-28210000D01*
X47308863Y-27891137D02*
X45960000Y-27776367D01*
X47308863Y-27891137D02*
X48260000Y-28400000D01*
X50490000Y-28210000D02*
X52950000Y-28470000D01*
X53760000Y-30690000D02*
X54020000Y-32200000D01*
X45059997Y-32484997D02*
X44567494Y-30920000D01*
X54240000Y-48700000D02*
X55514996Y-46539998D01*
X44833442Y-28243442D02*
X44580551Y-28630551D01*
X45960000Y-27776367D02*
X45070000Y-28023241D01*
X54020000Y-32200000D02*
X54020000Y-38110000D01*
X52950000Y-28470000D02*
X53760000Y-30690000D01*
X46670000Y-27145166D02*
X45190000Y-27360000D01*
X44257222Y-27887222D02*
X43260617Y-29540000D01*
X54950000Y-27790000D02*
X56530000Y-28170000D01*
X45190000Y-27360000D02*
X44257222Y-27887222D01*
X47390000Y-27270000D02*
X48430000Y-27750000D01*
X50180000Y-27650000D02*
X54950000Y-27790000D01*
X54240000Y-55100000D02*
X55510000Y-52940000D01*
X48430000Y-27750000D02*
X50180000Y-27650000D01*
X58270000Y-40690000D02*
X57520000Y-39570000D01*
X46670000Y-27145166D02*
X47390000Y-27270000D01*
X58420000Y-41440000D02*
X58270000Y-40690000D01*
X42519999Y-32485000D02*
X43260617Y-29540000D01*
X49520000Y-26900000D02*
X51610000Y-26710000D01*
X46740000Y-26470000D02*
X48140000Y-26760000D01*
X54934415Y-60324415D02*
X54240000Y-61500000D01*
X45120000Y-26510000D02*
X46740000Y-26470000D01*
X41250000Y-32484999D02*
X43130000Y-28000000D01*
X48140000Y-26760000D02*
X49520000Y-26900000D01*
X43130000Y-28000000D02*
X45120000Y-26510000D01*
X54934415Y-60324415D02*
X55510000Y-59350000D01*
X51610000Y-26710000D02*
X58770000Y-27460000D01*
X58770000Y-27460000D02*
X59270000Y-28870000D01*
X43340000Y-61500000D02*
X43581970Y-58903088D01*
X40660000Y-33960000D02*
X39200000Y-33780000D01*
X45059999Y-37435001D02*
X45024180Y-36175820D01*
X42973457Y-52439016D02*
X40386681Y-50813319D01*
X43774133Y-36360000D02*
X43789999Y-37435000D01*
X43340000Y-55100000D02*
X42973457Y-52439016D01*
X40386681Y-50813319D02*
X39030000Y-49730000D01*
X42503966Y-38850000D02*
X42520000Y-37435001D01*
X42780000Y-50500000D02*
X43340000Y-48700000D01*
X43340000Y-48700000D02*
X42497833Y-47992167D01*
X39420000Y-80050000D02*
X39540000Y-79010000D01*
X39350000Y-77510000D02*
X39210000Y-76390000D01*
X39210000Y-76390000D02*
X41720000Y-70760000D01*
X39540000Y-79010000D02*
X39350000Y-77510000D01*
X34730000Y-73000000D02*
X33925512Y-69930000D01*
X29340000Y-66040000D02*
X32790000Y-68190000D01*
X32790000Y-68190000D02*
X33925512Y-69930000D01*
X35750000Y-78560000D02*
X34730000Y-73000000D01*
X45350000Y-64059237D02*
X46950000Y-64006288D01*
X48970000Y-57900000D02*
X48150000Y-55780000D01*
X43760000Y-34660000D02*
X44650000Y-35200000D01*
X47540000Y-49040000D02*
X47770000Y-46790000D01*
X43190000Y-64615709D02*
X42549330Y-65189330D01*
X45680000Y-38480000D02*
X45527273Y-39040000D01*
X48150000Y-55780000D02*
X46922257Y-54210000D01*
X46950000Y-64006288D02*
X47406101Y-63816101D01*
X48270000Y-60320000D02*
X48970000Y-57900000D01*
X46922257Y-54210000D02*
X46030000Y-53350000D01*
X42312379Y-65560000D02*
X42549330Y-65189330D01*
X45720000Y-36930000D02*
X45680000Y-38480000D01*
X42380000Y-70580000D02*
X41160000Y-75930000D01*
X45350000Y-64059237D02*
X44940000Y-64160000D01*
X44170000Y-40370000D02*
X45527273Y-39040000D01*
X47406101Y-63816101D02*
X48270000Y-60320000D01*
X46273952Y-50423952D02*
X47540000Y-49040000D01*
X44940000Y-64160000D02*
X43190000Y-64615709D01*
X46030000Y-53350000D02*
X45930000Y-51020000D01*
X47140000Y-45591373D02*
X45640000Y-44940000D01*
X45930000Y-51020000D02*
X46273952Y-50423952D01*
X27710000Y-69080000D02*
X28240000Y-70700000D01*
X28240000Y-70700000D02*
X28380000Y-73080000D01*
X49575694Y-92833442D02*
X50780000Y-94220000D01*
X51340000Y-95030000D02*
X52974795Y-95764212D01*
X50780000Y-94220000D02*
X51120000Y-94840000D01*
X51120000Y-94840000D02*
X51340000Y-95030000D01*
X45421018Y-89857862D02*
X44020000Y-88300000D01*
X44020000Y-88300000D02*
X43350000Y-88250000D01*
X42750000Y-87790000D02*
X41556474Y-86730215D01*
X43350000Y-88250000D02*
X42750000Y-87790000D01*
X46393895Y-89041524D02*
X44990000Y-87380000D01*
X44350000Y-86610000D02*
X43211129Y-85341793D01*
X44990000Y-87380000D02*
X44350000Y-86610000D01*
X47366771Y-88225182D02*
X46240000Y-86600000D01*
X45720000Y-84980000D02*
X44890000Y-83920000D01*
X46240000Y-86600000D02*
X45930000Y-85950000D01*
X45850000Y-85440000D02*
X45720000Y-84980000D01*
X45930000Y-85950000D02*
X45850000Y-85440000D01*
X44448142Y-90674203D02*
X42890000Y-89390000D01*
X42890000Y-89390000D02*
X42210000Y-89140000D01*
X42210000Y-89140000D02*
X41520000Y-89030000D01*
X41520000Y-89030000D02*
X41130000Y-88930000D01*
X41130000Y-88930000D02*
X39799501Y-88152273D01*
X51521445Y-91200762D02*
X51880000Y-92820000D01*
X53130000Y-93440000D02*
X53800000Y-92790000D01*
X51880000Y-92820000D02*
X52060000Y-93470000D01*
X52460000Y-93700000D02*
X53130000Y-93440000D01*
X54270000Y-92380000D02*
X54693529Y-91903529D01*
X55250000Y-91675000D02*
X55510000Y-91780000D01*
X55510000Y-91780000D02*
X56709660Y-92747777D01*
X54693529Y-91903529D02*
X55250000Y-91675000D01*
X52060000Y-93470000D02*
X52460000Y-93700000D01*
X53800000Y-92790000D02*
X54270000Y-92380000D01*
X48950000Y-96960000D02*
X49382047Y-98778886D01*
X47629940Y-94466124D02*
X48750000Y-96370000D01*
X48750000Y-96370000D02*
X48950000Y-96960000D01*
X53350000Y-94230000D02*
X54947493Y-94148085D01*
X51380000Y-93730000D02*
X51970000Y-94260000D01*
X51970000Y-94260000D02*
X52590000Y-94260000D01*
X50548570Y-92017103D02*
X51380000Y-93730000D01*
X52590000Y-94260000D02*
X53350000Y-94230000D01*
X48602816Y-93649783D02*
X50350000Y-95900000D01*
X50350000Y-95900000D02*
X51174592Y-97274764D01*
D42*
X32886533Y-67015122D02*
X35237721Y-65647721D01*
M02*
