G04 #@! TF.GenerationSoftware,KiCad,Pcbnew,8.0.3*
G04 #@! TF.CreationDate,2024-08-04T14:16:49-04:00*
G04 #@! TF.ProjectId,MEAP_Rev4b,4d454150-5f52-4657-9634-622e6b696361,rev?*
G04 #@! TF.SameCoordinates,Original*
G04 #@! TF.FileFunction,Legend,Bot*
G04 #@! TF.FilePolarity,Positive*
%FSLAX46Y46*%
G04 Gerber Fmt 4.6, Leading zero omitted, Abs format (unit mm)*
G04 Created by KiCad (PCBNEW 8.0.3) date 2024-08-04 14:16:49*
%MOMM*%
%LPD*%
G01*
G04 APERTURE LIST*
%ADD10C,0.150000*%
%ADD11C,0.120000*%
G04 APERTURE END LIST*
D10*
X57858462Y-93901503D02*
X57347766Y-94330028D01*
X58303333Y-93839023D02*
X57909203Y-94480549D01*
X57909203Y-94480549D02*
X57511287Y-94006331D01*
X56243810Y-94927241D02*
X56366246Y-95073154D01*
X56366246Y-95073154D02*
X56390986Y-95176719D01*
X56390986Y-95176719D02*
X56385116Y-95243807D01*
X56385116Y-95243807D02*
X56336899Y-95408590D01*
X56336899Y-95408590D02*
X56221595Y-95567504D01*
X56221595Y-95567504D02*
X55929769Y-95812376D01*
X55929769Y-95812376D02*
X55826203Y-95837115D01*
X55826203Y-95837115D02*
X55759116Y-95831246D01*
X55759116Y-95831246D02*
X55661420Y-95788898D01*
X55661420Y-95788898D02*
X55538984Y-95642985D01*
X55538984Y-95642985D02*
X55514244Y-95539419D01*
X55514244Y-95539419D02*
X55520114Y-95472332D01*
X55520114Y-95472332D02*
X55562461Y-95374636D01*
X55562461Y-95374636D02*
X55744853Y-95221591D01*
X55744853Y-95221591D02*
X55848418Y-95196852D01*
X55848418Y-95196852D02*
X55915506Y-95202721D01*
X55915506Y-95202721D02*
X56013202Y-95245069D01*
X56013202Y-95245069D02*
X56135638Y-95390982D01*
X56135638Y-95390982D02*
X56160377Y-95494547D01*
X56160377Y-95494547D02*
X56154508Y-95561635D01*
X56154508Y-95561635D02*
X56112160Y-95659331D01*
X54988896Y-98739375D02*
X54983026Y-98806463D01*
X54983026Y-98806463D02*
X55038375Y-98946506D01*
X55038375Y-98946506D02*
X55099593Y-99019463D01*
X55099593Y-99019463D02*
X55227898Y-99098289D01*
X55227898Y-99098289D02*
X55362072Y-99110028D01*
X55362072Y-99110028D02*
X55465638Y-99085288D01*
X55465638Y-99085288D02*
X55642160Y-98999331D01*
X55642160Y-98999331D02*
X55751595Y-98907504D01*
X55751595Y-98907504D02*
X55866899Y-98748590D01*
X55866899Y-98748590D02*
X55909247Y-98650894D01*
X55909247Y-98650894D02*
X55920986Y-98516719D01*
X55920986Y-98516719D02*
X55865637Y-98376675D01*
X55865637Y-98376675D02*
X55804419Y-98303719D01*
X55804419Y-98303719D02*
X55676114Y-98224893D01*
X55676114Y-98224893D02*
X55609027Y-98219024D01*
X55284067Y-97683588D02*
X55161632Y-97537674D01*
X55161632Y-97537674D02*
X55063936Y-97495327D01*
X55063936Y-97495327D02*
X54929761Y-97483588D01*
X54929761Y-97483588D02*
X54753239Y-97569545D01*
X54753239Y-97569545D02*
X54497891Y-97783808D01*
X54497891Y-97783808D02*
X54382586Y-97942722D01*
X54382586Y-97942722D02*
X54370848Y-98076896D01*
X54370848Y-98076896D02*
X54395587Y-98180462D01*
X54395587Y-98180462D02*
X54518023Y-98326375D01*
X54518023Y-98326375D02*
X54615719Y-98368723D01*
X54615719Y-98368723D02*
X54749894Y-98380462D01*
X54749894Y-98380462D02*
X54926416Y-98294504D01*
X54926416Y-98294504D02*
X55181764Y-98080242D01*
X55181764Y-98080242D02*
X55297068Y-97921328D01*
X55297068Y-97921328D02*
X55308807Y-97787153D01*
X55308807Y-97787153D02*
X55284067Y-97683588D01*
X53967062Y-97669766D02*
X54733107Y-97026978D01*
X54733107Y-97026978D02*
X53971670Y-97230764D01*
X53971670Y-97230764D02*
X54304582Y-96516282D01*
X54304582Y-96516282D02*
X53538537Y-97159069D01*
X52930509Y-98768502D02*
X52501984Y-98257806D01*
X52501984Y-98257806D02*
X52011420Y-99228898D01*
X50763201Y-99640762D02*
X51069291Y-100005545D01*
X51069291Y-100005545D02*
X50735117Y-100348113D01*
X50735117Y-100348113D02*
X50740986Y-100281026D01*
X50740986Y-100281026D02*
X50716246Y-100177460D01*
X50716246Y-100177460D02*
X50563202Y-99995069D01*
X50563202Y-99995069D02*
X50465506Y-99952721D01*
X50465506Y-99952721D02*
X50398418Y-99946852D01*
X50398418Y-99946852D02*
X50294853Y-99971591D01*
X50294853Y-99971591D02*
X50112461Y-100124636D01*
X50112461Y-100124636D02*
X50070114Y-100222332D01*
X50070114Y-100222332D02*
X50064244Y-100289419D01*
X50064244Y-100289419D02*
X50088984Y-100392985D01*
X50088984Y-100392985D02*
X50242029Y-100575376D01*
X50242029Y-100575376D02*
X50339725Y-100617724D01*
X50339725Y-100617724D02*
X50406812Y-100623593D01*
X39240509Y-86778502D02*
X38842593Y-86304284D01*
X38842593Y-86304284D02*
X38765029Y-86804504D01*
X38765029Y-86804504D02*
X38673202Y-86695069D01*
X38673202Y-86695069D02*
X38575506Y-86652721D01*
X38575506Y-86652721D02*
X38508418Y-86646852D01*
X38508418Y-86646852D02*
X38404853Y-86671591D01*
X38404853Y-86671591D02*
X38222461Y-86824636D01*
X38222461Y-86824636D02*
X38180114Y-86922332D01*
X38180114Y-86922332D02*
X38174244Y-86989419D01*
X38174244Y-86989419D02*
X38198984Y-87092985D01*
X38198984Y-87092985D02*
X38382637Y-87311855D01*
X38382637Y-87311855D02*
X38480334Y-87354202D01*
X38480334Y-87354202D02*
X38547421Y-87360072D01*
X44206943Y-82343241D02*
X44212813Y-82276154D01*
X44212813Y-82276154D02*
X44188073Y-82172589D01*
X44188073Y-82172589D02*
X44035028Y-81990197D01*
X44035028Y-81990197D02*
X43937332Y-81947849D01*
X43937332Y-81947849D02*
X43870245Y-81941980D01*
X43870245Y-81941980D02*
X43766679Y-81966720D01*
X43766679Y-81966720D02*
X43693723Y-82027938D01*
X43693723Y-82027938D02*
X43614897Y-82156243D01*
X43614897Y-82156243D02*
X43544464Y-82961290D01*
X43544464Y-82961290D02*
X43146548Y-82487072D01*
X41456548Y-83777072D02*
X41823855Y-84214811D01*
X41640202Y-83995941D02*
X42406246Y-83353154D01*
X42406246Y-83353154D02*
X42358029Y-83517937D01*
X42358029Y-83517937D02*
X42346290Y-83652112D01*
X42346290Y-83652112D02*
X42371030Y-83755677D01*
X40876855Y-85029632D02*
X40815637Y-84956675D01*
X40815637Y-84956675D02*
X40717941Y-84914328D01*
X40717941Y-84914328D02*
X40650854Y-84908458D01*
X40650854Y-84908458D02*
X40547288Y-84933198D01*
X40547288Y-84933198D02*
X40370766Y-85019155D01*
X40370766Y-85019155D02*
X40188375Y-85172200D01*
X40188375Y-85172200D02*
X40073070Y-85331114D01*
X40073070Y-85331114D02*
X40030723Y-85428810D01*
X40030723Y-85428810D02*
X40024853Y-85495898D01*
X40024853Y-85495898D02*
X40049593Y-85599463D01*
X40049593Y-85599463D02*
X40110811Y-85672420D01*
X40110811Y-85672420D02*
X40208507Y-85714767D01*
X40208507Y-85714767D02*
X40275594Y-85720637D01*
X40275594Y-85720637D02*
X40379160Y-85695897D01*
X40379160Y-85695897D02*
X40555682Y-85609940D01*
X40555682Y-85609940D02*
X40738073Y-85456895D01*
X40738073Y-85456895D02*
X40853378Y-85297981D01*
X40853378Y-85297981D02*
X40895725Y-85200285D01*
X40895725Y-85200285D02*
X40901595Y-85133198D01*
X40901595Y-85133198D02*
X40876855Y-85029632D01*
X34449580Y-89697142D02*
X34497200Y-89649523D01*
X34497200Y-89649523D02*
X34544819Y-89506666D01*
X34544819Y-89506666D02*
X34544819Y-89411428D01*
X34544819Y-89411428D02*
X34497200Y-89268571D01*
X34497200Y-89268571D02*
X34401961Y-89173333D01*
X34401961Y-89173333D02*
X34306723Y-89125714D01*
X34306723Y-89125714D02*
X34116247Y-89078095D01*
X34116247Y-89078095D02*
X33973390Y-89078095D01*
X33973390Y-89078095D02*
X33782914Y-89125714D01*
X33782914Y-89125714D02*
X33687676Y-89173333D01*
X33687676Y-89173333D02*
X33592438Y-89268571D01*
X33592438Y-89268571D02*
X33544819Y-89411428D01*
X33544819Y-89411428D02*
X33544819Y-89506666D01*
X33544819Y-89506666D02*
X33592438Y-89649523D01*
X33592438Y-89649523D02*
X33640057Y-89697142D01*
X33640057Y-90078095D02*
X33592438Y-90125714D01*
X33592438Y-90125714D02*
X33544819Y-90220952D01*
X33544819Y-90220952D02*
X33544819Y-90459047D01*
X33544819Y-90459047D02*
X33592438Y-90554285D01*
X33592438Y-90554285D02*
X33640057Y-90601904D01*
X33640057Y-90601904D02*
X33735295Y-90649523D01*
X33735295Y-90649523D02*
X33830533Y-90649523D01*
X33830533Y-90649523D02*
X33973390Y-90601904D01*
X33973390Y-90601904D02*
X34544819Y-90030476D01*
X34544819Y-90030476D02*
X34544819Y-90649523D01*
X34544819Y-91125714D02*
X34544819Y-91316190D01*
X34544819Y-91316190D02*
X34497200Y-91411428D01*
X34497200Y-91411428D02*
X34449580Y-91459047D01*
X34449580Y-91459047D02*
X34306723Y-91554285D01*
X34306723Y-91554285D02*
X34116247Y-91601904D01*
X34116247Y-91601904D02*
X33735295Y-91601904D01*
X33735295Y-91601904D02*
X33640057Y-91554285D01*
X33640057Y-91554285D02*
X33592438Y-91506666D01*
X33592438Y-91506666D02*
X33544819Y-91411428D01*
X33544819Y-91411428D02*
X33544819Y-91220952D01*
X33544819Y-91220952D02*
X33592438Y-91125714D01*
X33592438Y-91125714D02*
X33640057Y-91078095D01*
X33640057Y-91078095D02*
X33735295Y-91030476D01*
X33735295Y-91030476D02*
X33973390Y-91030476D01*
X33973390Y-91030476D02*
X34068628Y-91078095D01*
X34068628Y-91078095D02*
X34116247Y-91125714D01*
X34116247Y-91125714D02*
X34163866Y-91220952D01*
X34163866Y-91220952D02*
X34163866Y-91411428D01*
X34163866Y-91411428D02*
X34116247Y-91506666D01*
X34116247Y-91506666D02*
X34068628Y-91554285D01*
X34068628Y-91554285D02*
X33973390Y-91601904D01*
X31628000Y-92986535D02*
X32148351Y-93606666D01*
X32148351Y-93606666D02*
X32173091Y-93710231D01*
X32173091Y-93710231D02*
X32167222Y-93777319D01*
X32167222Y-93777319D02*
X32124874Y-93875015D01*
X32124874Y-93875015D02*
X31978961Y-93997451D01*
X31978961Y-93997451D02*
X31875395Y-94022190D01*
X31875395Y-94022190D02*
X31808308Y-94016321D01*
X31808308Y-94016321D02*
X31710612Y-93973973D01*
X31710612Y-93973973D02*
X31190260Y-93353842D01*
X31067003Y-94762674D02*
X31504743Y-94395367D01*
X31285873Y-94579020D02*
X30643085Y-93812976D01*
X30643085Y-93812976D02*
X30807869Y-93861193D01*
X30807869Y-93861193D02*
X30942043Y-93872932D01*
X30942043Y-93872932D02*
X31045609Y-93848192D01*
X30337437Y-95374853D02*
X30775177Y-95007545D01*
X30556307Y-95191199D02*
X29913519Y-94425155D01*
X29913519Y-94425155D02*
X30078303Y-94473372D01*
X30078303Y-94473372D02*
X30212477Y-94485110D01*
X30212477Y-94485110D02*
X30316043Y-94460371D01*
X40883591Y-102112234D02*
X40950678Y-102118103D01*
X40950678Y-102118103D02*
X41090722Y-102062755D01*
X41090722Y-102062755D02*
X41163679Y-102001537D01*
X41163679Y-102001537D02*
X41242505Y-101873232D01*
X41242505Y-101873232D02*
X41254243Y-101739057D01*
X41254243Y-101739057D02*
X41229504Y-101635492D01*
X41229504Y-101635492D02*
X41143546Y-101458970D01*
X41143546Y-101458970D02*
X41051720Y-101349535D01*
X41051720Y-101349535D02*
X40892805Y-101234230D01*
X40892805Y-101234230D02*
X40795109Y-101191883D01*
X40795109Y-101191883D02*
X40660935Y-101180144D01*
X40660935Y-101180144D02*
X40520891Y-101235492D01*
X40520891Y-101235492D02*
X40447934Y-101296710D01*
X40447934Y-101296710D02*
X40369108Y-101425015D01*
X40369108Y-101425015D02*
X40363239Y-101492103D01*
X40071413Y-101736974D02*
X40004325Y-101731105D01*
X40004325Y-101731105D02*
X39900760Y-101755844D01*
X39900760Y-101755844D02*
X39718368Y-101908889D01*
X39718368Y-101908889D02*
X39676021Y-102006585D01*
X39676021Y-102006585D02*
X39670151Y-102073672D01*
X39670151Y-102073672D02*
X39694891Y-102177238D01*
X39694891Y-102177238D02*
X39756109Y-102250195D01*
X39756109Y-102250195D02*
X39884414Y-102329021D01*
X39884414Y-102329021D02*
X40689461Y-102399453D01*
X40689461Y-102399453D02*
X40215243Y-102797369D01*
X39410196Y-102726937D02*
X39452543Y-102629241D01*
X39452543Y-102629241D02*
X39458413Y-102562153D01*
X39458413Y-102562153D02*
X39433673Y-102458588D01*
X39433673Y-102458588D02*
X39403064Y-102422109D01*
X39403064Y-102422109D02*
X39305368Y-102379762D01*
X39305368Y-102379762D02*
X39238281Y-102373892D01*
X39238281Y-102373892D02*
X39134715Y-102398632D01*
X39134715Y-102398632D02*
X38988802Y-102521068D01*
X38988802Y-102521068D02*
X38946454Y-102618764D01*
X38946454Y-102618764D02*
X38940585Y-102685851D01*
X38940585Y-102685851D02*
X38965325Y-102789417D01*
X38965325Y-102789417D02*
X38995933Y-102825895D01*
X38995933Y-102825895D02*
X39093630Y-102868243D01*
X39093630Y-102868243D02*
X39160717Y-102874112D01*
X39160717Y-102874112D02*
X39264282Y-102849372D01*
X39264282Y-102849372D02*
X39410196Y-102726937D01*
X39410196Y-102726937D02*
X39513761Y-102702197D01*
X39513761Y-102702197D02*
X39580848Y-102708067D01*
X39580848Y-102708067D02*
X39678545Y-102750414D01*
X39678545Y-102750414D02*
X39800980Y-102896327D01*
X39800980Y-102896327D02*
X39825720Y-102999893D01*
X39825720Y-102999893D02*
X39819851Y-103066980D01*
X39819851Y-103066980D02*
X39777503Y-103164676D01*
X39777503Y-103164676D02*
X39631590Y-103287112D01*
X39631590Y-103287112D02*
X39528024Y-103311852D01*
X39528024Y-103311852D02*
X39460937Y-103305982D01*
X39460937Y-103305982D02*
X39363241Y-103263635D01*
X39363241Y-103263635D02*
X39240805Y-103117721D01*
X39240805Y-103117721D02*
X39216065Y-103014156D01*
X39216065Y-103014156D02*
X39221935Y-102947069D01*
X39221935Y-102947069D02*
X39264282Y-102849372D01*
X52258605Y-88967546D02*
X51638474Y-89487897D01*
X51638474Y-89487897D02*
X51534909Y-89512637D01*
X51534909Y-89512637D02*
X51467821Y-89506768D01*
X51467821Y-89506768D02*
X51370125Y-89464420D01*
X51370125Y-89464420D02*
X51247689Y-89318507D01*
X51247689Y-89318507D02*
X51222950Y-89214941D01*
X51222950Y-89214941D02*
X51228819Y-89147854D01*
X51228819Y-89147854D02*
X51271167Y-89050158D01*
X51271167Y-89050158D02*
X51891298Y-88529806D01*
X50482466Y-88406549D02*
X50849773Y-88844289D01*
X50666120Y-88625419D02*
X51432164Y-87982631D01*
X51432164Y-87982631D02*
X51383947Y-88147415D01*
X51383947Y-88147415D02*
X51372208Y-88281589D01*
X51372208Y-88281589D02*
X51396948Y-88385155D01*
X50850594Y-87289543D02*
X50789376Y-87216587D01*
X50789376Y-87216587D02*
X50691680Y-87174239D01*
X50691680Y-87174239D02*
X50624593Y-87168370D01*
X50624593Y-87168370D02*
X50521028Y-87193109D01*
X50521028Y-87193109D02*
X50344505Y-87279067D01*
X50344505Y-87279067D02*
X50162114Y-87432111D01*
X50162114Y-87432111D02*
X50046810Y-87591025D01*
X50046810Y-87591025D02*
X50004462Y-87688722D01*
X50004462Y-87688722D02*
X49998592Y-87755809D01*
X49998592Y-87755809D02*
X50023332Y-87859374D01*
X50023332Y-87859374D02*
X50084550Y-87932331D01*
X50084550Y-87932331D02*
X50182246Y-87974679D01*
X50182246Y-87974679D02*
X50249333Y-87980548D01*
X50249333Y-87980548D02*
X50352899Y-87955809D01*
X50352899Y-87955809D02*
X50529421Y-87869851D01*
X50529421Y-87869851D02*
X50711813Y-87716806D01*
X50711813Y-87716806D02*
X50827117Y-87557892D01*
X50827117Y-87557892D02*
X50869465Y-87460196D01*
X50869465Y-87460196D02*
X50875334Y-87393109D01*
X50875334Y-87393109D02*
X50850594Y-87289543D01*
D11*
X33259998Y-91396250D02*
X33260001Y-89973748D01*
X30539997Y-91396252D02*
X30540000Y-89973750D01*
X34315465Y-92829152D02*
X33919493Y-92730627D01*
X34287195Y-92422088D01*
X34315465Y-92829152D01*
G36*
X34315465Y-92829152D02*
G01*
X33919493Y-92730627D01*
X34287195Y-92422088D01*
X34315465Y-92829152D01*
G37*
X33964221Y-100251404D02*
X34774132Y-101216619D01*
X31200234Y-96957412D02*
X30390322Y-95992197D01*
X34774132Y-101216619D02*
X37654460Y-98799738D01*
X30390322Y-95992197D02*
X33270649Y-93575313D01*
X39049255Y-101950891D02*
X40138958Y-101036525D01*
X37300872Y-99867251D02*
X38390575Y-98952885D01*
X52544722Y-40692502D02*
X52035275Y-40692497D01*
X52544725Y-39647503D02*
X52035278Y-39647498D01*
X43437775Y-49977500D02*
X43947223Y-49977500D01*
X43437775Y-51022500D02*
X43947223Y-51022500D01*
X43429779Y-51868124D02*
X43931487Y-51779660D01*
X43611241Y-52897248D02*
X44112949Y-52808784D01*
X54857220Y-47062501D02*
X54347772Y-47062496D01*
X54857224Y-46017502D02*
X54347776Y-46017497D01*
X43749998Y-58080018D02*
X44140259Y-57752553D01*
X44421711Y-58880535D02*
X44811972Y-58553070D01*
X54852224Y-53462503D02*
X54342776Y-53462498D01*
X54852228Y-52417504D02*
X54342780Y-52417499D01*
X40634997Y-33009998D02*
X40635002Y-34960000D01*
X40634998Y-36909998D02*
X40635002Y-34960000D01*
X50755002Y-33010002D02*
X50754998Y-34960000D01*
X50755003Y-36910002D02*
X50754998Y-34960000D01*
X40690000Y-32260001D02*
X40360000Y-32499999D01*
X40360001Y-32020001D01*
X40690000Y-32260001D01*
G36*
X40690000Y-32260001D02*
G01*
X40360000Y-32499999D01*
X40360001Y-32020001D01*
X40690000Y-32260001D01*
G37*
X54852224Y-59872503D02*
X54342777Y-59872498D01*
X54852227Y-58827504D02*
X54342780Y-58827499D01*
X41395858Y-93920711D02*
X42649296Y-95414497D01*
X43902730Y-96908284D02*
X42649296Y-95414497D01*
X49148228Y-87415702D02*
X50401662Y-88909489D01*
X51655100Y-90403275D02*
X50401662Y-88909489D01*
X52502122Y-90984891D02*
X52095058Y-91013161D01*
X52193583Y-90617190D01*
X52502122Y-90984891D01*
G36*
X52502122Y-90984891D02*
G01*
X52095058Y-91013161D01*
X52193583Y-90617190D01*
X52502122Y-90984891D01*
G37*
X46154036Y-44919400D02*
X45979796Y-45398126D01*
X47136016Y-45276810D02*
X46961776Y-45755536D01*
M02*
