G04 #@! TF.GenerationSoftware,KiCad,Pcbnew,8.0.3*
G04 #@! TF.CreationDate,2024-08-04T14:16:49-04:00*
G04 #@! TF.ProjectId,MEAP_Rev4b,4d454150-5f52-4657-9634-622e6b696361,rev?*
G04 #@! TF.SameCoordinates,Original*
G04 #@! TF.FileFunction,Copper,L1,Top*
G04 #@! TF.FilePolarity,Positive*
%FSLAX46Y46*%
G04 Gerber Fmt 4.6, Leading zero omitted, Abs format (unit mm)*
G04 Created by KiCad (PCBNEW 8.0.3) date 2024-08-04 14:16:49*
%MOMM*%
%LPD*%
G01*
G04 APERTURE LIST*
G04 Aperture macros list*
%AMRoundRect*
0 Rectangle with rounded corners*
0 $1 Rounding radius*
0 $2 $3 $4 $5 $6 $7 $8 $9 X,Y pos of 4 corners*
0 Add a 4 corners polygon primitive as box body*
4,1,4,$2,$3,$4,$5,$6,$7,$8,$9,$2,$3,0*
0 Add four circle primitives for the rounded corners*
1,1,$1+$1,$2,$3*
1,1,$1+$1,$4,$5*
1,1,$1+$1,$6,$7*
1,1,$1+$1,$8,$9*
0 Add four rect primitives between the rounded corners*
20,1,$1+$1,$2,$3,$4,$5,0*
20,1,$1+$1,$4,$5,$6,$7,0*
20,1,$1+$1,$6,$7,$8,$9,0*
20,1,$1+$1,$8,$9,$2,$3,0*%
%AMHorizOval*
0 Thick line with rounded ends*
0 $1 width*
0 $2 $3 position (X,Y) of the first rounded end (center of the circle)*
0 $4 $5 position (X,Y) of the second rounded end (center of the circle)*
0 Add line between two ends*
20,1,$1,$2,$3,$4,$5,0*
0 Add two circle primitives to create the rounded ends*
1,1,$1,$2,$3*
1,1,$1,$4,$5*%
%AMRotRect*
0 Rectangle, with rotation*
0 The origin of the aperture is its center*
0 $1 length*
0 $2 width*
0 $3 Rotation angle, in degrees counterclockwise*
0 Add horizontal line*
21,1,$1,$2,0,0,$3*%
%AMFreePoly0*
4,1,19,0.500000,-0.750000,0.000000,-0.750000,0.000000,-0.744911,-0.071157,-0.744911,-0.207708,-0.704816,-0.327430,-0.627875,-0.420627,-0.520320,-0.479746,-0.390866,-0.500000,-0.250000,-0.500000,0.250000,-0.479746,0.390866,-0.420627,0.520320,-0.327430,0.627875,-0.207708,0.704816,-0.071157,0.744911,0.000000,0.744911,0.000000,0.750000,0.500000,0.750000,0.500000,-0.750000,0.500000,-0.750000,
$1*%
%AMFreePoly1*
4,1,19,0.000000,0.744911,0.071157,0.744911,0.207708,0.704816,0.327430,0.627875,0.420627,0.520320,0.479746,0.390866,0.500000,0.250000,0.500000,-0.250000,0.479746,-0.390866,0.420627,-0.520320,0.327430,-0.627875,0.207708,-0.704816,0.071157,-0.744911,0.000000,-0.744911,0.000000,-0.750000,-0.500000,-0.750000,-0.500000,0.750000,0.000000,0.750000,0.000000,0.744911,0.000000,0.744911,
$1*%
G04 Aperture macros list end*
G04 #@! TA.AperFunction,SMDPad,CuDef*
%ADD10RoundRect,0.237500X0.237500X-0.250000X0.237500X0.250000X-0.237500X0.250000X-0.237500X-0.250000X0*%
G04 #@! TD*
G04 #@! TA.AperFunction,SMDPad,CuDef*
%ADD11RoundRect,0.237500X0.300000X0.237500X-0.300000X0.237500X-0.300000X-0.237500X0.300000X-0.237500X0*%
G04 #@! TD*
G04 #@! TA.AperFunction,ComponentPad*
%ADD12C,2.000000*%
G04 #@! TD*
G04 #@! TA.AperFunction,SMDPad,CuDef*
%ADD13RoundRect,0.218750X-0.002858X-0.336909X0.332287X-0.055689X0.002858X0.336909X-0.332287X0.055689X0*%
G04 #@! TD*
G04 #@! TA.AperFunction,SMDPad,CuDef*
%ADD14RoundRect,0.237500X-0.077151X-0.374772X0.382475X0.010901X0.077151X0.374772X-0.382475X-0.010901X0*%
G04 #@! TD*
G04 #@! TA.AperFunction,SMDPad,CuDef*
%ADD15RoundRect,0.250000X1.100000X-0.325000X1.100000X0.325000X-1.100000X0.325000X-1.100000X-0.325000X0*%
G04 #@! TD*
G04 #@! TA.AperFunction,SMDPad,CuDef*
%ADD16RoundRect,0.237500X-0.325783X0.200678X-0.120571X-0.363138X0.325783X-0.200678X0.120571X0.363138X0*%
G04 #@! TD*
G04 #@! TA.AperFunction,SMDPad,CuDef*
%ADD17RoundRect,0.150000X-0.587500X-0.150000X0.587500X-0.150000X0.587500X0.150000X-0.587500X0.150000X0*%
G04 #@! TD*
G04 #@! TA.AperFunction,ComponentPad*
%ADD18R,1.700000X1.700000*%
G04 #@! TD*
G04 #@! TA.AperFunction,ComponentPad*
%ADD19O,1.700000X1.700000*%
G04 #@! TD*
G04 #@! TA.AperFunction,SMDPad,CuDef*
%ADD20RoundRect,0.237500X-0.300000X-0.237500X0.300000X-0.237500X0.300000X0.237500X-0.300000X0.237500X0*%
G04 #@! TD*
G04 #@! TA.AperFunction,SMDPad,CuDef*
%ADD21RoundRect,0.237500X-0.237500X0.300000X-0.237500X-0.300000X0.237500X-0.300000X0.237500X0.300000X0*%
G04 #@! TD*
G04 #@! TA.AperFunction,SMDPad,CuDef*
%ADD22RoundRect,0.237500X-0.250000X-0.237500X0.250000X-0.237500X0.250000X0.237500X-0.250000X0.237500X0*%
G04 #@! TD*
G04 #@! TA.AperFunction,SMDPad,CuDef*
%ADD23RoundRect,0.150000X-0.583790X0.163846X0.433790X-0.423654X0.583790X-0.163846X-0.433790X0.423654X0*%
G04 #@! TD*
G04 #@! TA.AperFunction,SMDPad,CuDef*
%ADD24RoundRect,0.150000X-0.825000X-0.150000X0.825000X-0.150000X0.825000X0.150000X-0.825000X0.150000X0*%
G04 #@! TD*
G04 #@! TA.AperFunction,SMDPad,CuDef*
%ADD25RoundRect,0.218750X-0.256250X0.218750X-0.256250X-0.218750X0.256250X-0.218750X0.256250X0.218750X0*%
G04 #@! TD*
G04 #@! TA.AperFunction,ComponentPad*
%ADD26O,2.800000X1.800000*%
G04 #@! TD*
G04 #@! TA.AperFunction,SMDPad,CuDef*
%ADD27RoundRect,0.237500X0.237500X-0.300000X0.237500X0.300000X-0.237500X0.300000X-0.237500X-0.300000X0*%
G04 #@! TD*
G04 #@! TA.AperFunction,SMDPad,CuDef*
%ADD28RoundRect,0.237500X-0.038849X-0.342632X0.344173X-0.021239X0.038849X0.342632X-0.344173X0.021239X0*%
G04 #@! TD*
G04 #@! TA.AperFunction,SMDPad,CuDef*
%ADD29RoundRect,0.150000X0.150000X-0.825000X0.150000X0.825000X-0.150000X0.825000X-0.150000X-0.825000X0*%
G04 #@! TD*
G04 #@! TA.AperFunction,ComponentPad*
%ADD30R,1.600000X1.600000*%
G04 #@! TD*
G04 #@! TA.AperFunction,ComponentPad*
%ADD31O,1.600000X1.600000*%
G04 #@! TD*
G04 #@! TA.AperFunction,SMDPad,CuDef*
%ADD32RoundRect,0.237500X0.250000X0.237500X-0.250000X0.237500X-0.250000X-0.237500X0.250000X-0.237500X0*%
G04 #@! TD*
G04 #@! TA.AperFunction,SMDPad,CuDef*
%ADD33RoundRect,0.218750X0.256250X-0.218750X0.256250X0.218750X-0.256250X0.218750X-0.256250X-0.218750X0*%
G04 #@! TD*
G04 #@! TA.AperFunction,SMDPad,CuDef*
%ADD34R,1.500000X0.900000*%
G04 #@! TD*
G04 #@! TA.AperFunction,SMDPad,CuDef*
%ADD35R,0.900000X1.500000*%
G04 #@! TD*
G04 #@! TA.AperFunction,SMDPad,CuDef*
%ADD36R,0.900000X0.900000*%
G04 #@! TD*
G04 #@! TA.AperFunction,SMDPad,CuDef*
%ADD37RoundRect,0.093750X-0.093750X-0.106250X0.093750X-0.106250X0.093750X0.106250X-0.093750X0.106250X0*%
G04 #@! TD*
G04 #@! TA.AperFunction,HeatsinkPad*
%ADD38R,1.000000X1.600000*%
G04 #@! TD*
G04 #@! TA.AperFunction,SMDPad,CuDef*
%ADD39RoundRect,0.050000X0.255127X0.279348X-0.319406X-0.202743X-0.255127X-0.279348X0.319406X0.202743X0*%
G04 #@! TD*
G04 #@! TA.AperFunction,SMDPad,CuDef*
%ADD40RoundRect,0.050000X-0.202743X0.319406X-0.279348X0.255127X0.202743X-0.319406X0.279348X-0.255127X0*%
G04 #@! TD*
G04 #@! TA.AperFunction,HeatsinkPad*
%ADD41RotRect,1.650000X1.650000X220.000000*%
G04 #@! TD*
G04 #@! TA.AperFunction,SMDPad,CuDef*
%ADD42R,1.500000X1.000000*%
G04 #@! TD*
G04 #@! TA.AperFunction,SMDPad,CuDef*
%ADD43RoundRect,0.218750X-0.317568X-0.112544X0.061318X-0.331294X0.317568X0.112544X-0.061318X0.331294X0*%
G04 #@! TD*
G04 #@! TA.AperFunction,SMDPad,CuDef*
%ADD44R,1.250000X1.000000*%
G04 #@! TD*
G04 #@! TA.AperFunction,SMDPad,CuDef*
%ADD45FreePoly0,90.000000*%
G04 #@! TD*
G04 #@! TA.AperFunction,SMDPad,CuDef*
%ADD46FreePoly1,90.000000*%
G04 #@! TD*
G04 #@! TA.AperFunction,SMDPad,CuDef*
%ADD47RoundRect,0.237500X-0.237500X0.250000X-0.237500X-0.250000X0.237500X-0.250000X0.237500X0.250000X0*%
G04 #@! TD*
G04 #@! TA.AperFunction,SMDPad,CuDef*
%ADD48RoundRect,0.237500X-0.200678X-0.325783X0.363138X-0.120571X0.200678X0.325783X-0.363138X0.120571X0*%
G04 #@! TD*
G04 #@! TA.AperFunction,SMDPad,CuDef*
%ADD49RoundRect,0.237500X0.336684X0.181797X-0.254201X0.285986X-0.336684X-0.181797X0.254201X-0.285986X0*%
G04 #@! TD*
G04 #@! TA.AperFunction,SMDPad,CuDef*
%ADD50RoundRect,0.112500X0.112500X-0.187500X0.112500X0.187500X-0.112500X0.187500X-0.112500X-0.187500X0*%
G04 #@! TD*
G04 #@! TA.AperFunction,ComponentPad*
%ADD51O,3.500000X2.200000*%
G04 #@! TD*
G04 #@! TA.AperFunction,ComponentPad*
%ADD52R,2.500000X1.500000*%
G04 #@! TD*
G04 #@! TA.AperFunction,ComponentPad*
%ADD53O,2.500000X1.500000*%
G04 #@! TD*
G04 #@! TA.AperFunction,SMDPad,CuDef*
%ADD54RoundRect,0.237500X0.055681X-0.378558X0.355681X0.141058X-0.055681X0.378558X-0.355681X-0.141058X0*%
G04 #@! TD*
G04 #@! TA.AperFunction,ComponentPad*
%ADD55RotRect,2.200000X2.200000X330.000000*%
G04 #@! TD*
G04 #@! TA.AperFunction,ComponentPad*
%ADD56HorizOval,2.200000X0.000000X0.000000X0.000000X0.000000X0*%
G04 #@! TD*
G04 #@! TA.AperFunction,SMDPad,CuDef*
%ADD57R,0.400000X1.350000*%
G04 #@! TD*
G04 #@! TA.AperFunction,ComponentPad*
%ADD58O,1.200000X1.900000*%
G04 #@! TD*
G04 #@! TA.AperFunction,SMDPad,CuDef*
%ADD59R,1.200000X1.900000*%
G04 #@! TD*
G04 #@! TA.AperFunction,ComponentPad*
%ADD60C,1.450000*%
G04 #@! TD*
G04 #@! TA.AperFunction,SMDPad,CuDef*
%ADD61R,1.500000X1.900000*%
G04 #@! TD*
G04 #@! TA.AperFunction,ComponentPad*
%ADD62R,2.200000X2.200000*%
G04 #@! TD*
G04 #@! TA.AperFunction,ComponentPad*
%ADD63O,2.200000X2.200000*%
G04 #@! TD*
G04 #@! TA.AperFunction,ComponentPad*
%ADD64R,1.800000X1.800000*%
G04 #@! TD*
G04 #@! TA.AperFunction,ComponentPad*
%ADD65C,1.800000*%
G04 #@! TD*
G04 #@! TA.AperFunction,SMDPad,CuDef*
%ADD66RoundRect,0.100000X0.100000X-0.712500X0.100000X0.712500X-0.100000X0.712500X-0.100000X-0.712500X0*%
G04 #@! TD*
G04 #@! TA.AperFunction,ViaPad*
%ADD67C,0.800000*%
G04 #@! TD*
G04 #@! TA.AperFunction,Conductor*
%ADD68C,0.406400*%
G04 #@! TD*
G04 #@! TA.AperFunction,Conductor*
%ADD69C,0.812800*%
G04 #@! TD*
G04 #@! TA.AperFunction,Conductor*
%ADD70C,0.254000*%
G04 #@! TD*
G04 APERTURE END LIST*
D10*
X35840002Y-50394998D03*
X35840000Y-48570000D03*
D11*
X36922501Y-51959998D03*
X35197499Y-51960002D03*
D12*
X28640000Y-106400000D03*
D13*
X31633480Y-61922390D03*
X32840000Y-60910000D03*
D10*
X36990001Y-68042499D03*
X36989999Y-66217501D03*
D14*
X29768572Y-59478810D03*
X31090000Y-58370000D03*
D15*
X48250000Y-97995000D03*
X48250000Y-95045000D03*
D12*
X43620000Y-66350000D03*
D16*
X28055007Y-60489514D03*
X28644993Y-62110486D03*
D17*
X34882503Y-59960000D03*
X34882502Y-61859999D03*
X36757496Y-60910001D03*
D18*
X51540000Y-48700000D03*
D19*
X54240000Y-48700000D03*
X56940000Y-48700000D03*
D20*
X37124994Y-37350002D03*
X38850000Y-37350000D03*
D21*
X35830000Y-45160000D03*
X35830004Y-46885004D03*
D12*
X25520000Y-52540000D03*
D22*
X23707500Y-83860000D03*
X25532500Y-83860000D03*
D12*
X40480000Y-70060000D03*
D18*
X35470000Y-39930000D03*
D19*
X35470000Y-42470000D03*
D10*
X40730002Y-21787502D03*
X40730000Y-19962504D03*
D23*
X46662457Y-100012823D03*
X45712459Y-101658277D03*
X47811252Y-101773052D03*
D24*
X32165000Y-97215000D03*
X32165000Y-98485000D03*
X32165000Y-99755000D03*
X32165000Y-101025000D03*
X37115000Y-101025000D03*
X37115000Y-99755000D03*
X37115000Y-98485000D03*
X37115000Y-97215000D03*
D21*
X30079999Y-99302497D03*
X30079997Y-101027499D03*
D18*
X40640000Y-48700000D03*
D19*
X43340000Y-48700000D03*
X46040000Y-48700000D03*
D10*
X50710001Y-98132499D03*
X50709999Y-96307501D03*
D25*
X32869998Y-37975002D03*
X32869998Y-39550002D03*
D18*
X40640000Y-55100000D03*
D19*
X43340000Y-55100000D03*
X46040000Y-55100000D03*
D26*
X48300000Y-25430000D03*
X46300000Y-23630000D03*
X46300000Y-17530000D03*
X48300000Y-19930000D03*
X46300000Y-29130000D03*
D27*
X39270000Y-101040000D03*
X39269998Y-99314998D03*
D18*
X51540000Y-55100000D03*
D19*
X54240000Y-55100000D03*
X56940000Y-55100000D03*
D18*
X55220000Y-29660000D03*
D19*
X57760000Y-29660000D03*
X55220000Y-32200000D03*
X57760000Y-32200000D03*
X55220000Y-34740000D03*
X57760000Y-34740000D03*
X55220000Y-37280000D03*
X57760000Y-37280000D03*
D10*
X28830000Y-48360000D03*
X28829998Y-46535002D03*
D12*
X51860000Y-71960000D03*
D18*
X40640000Y-42300000D03*
D19*
X43340000Y-42300000D03*
X46040000Y-42300000D03*
D12*
X44100000Y-70290000D03*
D26*
X20540001Y-106260001D03*
X22540000Y-108060000D03*
X22540000Y-114160000D03*
X20540001Y-111760001D03*
X22540000Y-102560000D03*
D12*
X55970000Y-87280000D03*
D18*
X22690000Y-68810000D03*
D19*
X22690000Y-66270000D03*
X22689997Y-63730001D03*
D21*
X31340000Y-37720000D03*
X31339998Y-39445002D03*
D12*
X28670000Y-103300000D03*
D20*
X35224994Y-56870002D03*
X36950000Y-56870000D03*
D12*
X46755000Y-66350000D03*
D18*
X57640000Y-82390000D03*
D19*
X55100000Y-82390000D03*
X57640000Y-79850000D03*
X55100002Y-79850001D03*
X57639997Y-77310001D03*
X55100001Y-77310002D03*
X57640000Y-74770000D03*
X55099999Y-74770001D03*
D28*
X29070000Y-70000000D03*
X30468030Y-68826912D03*
D29*
X40500000Y-37434998D03*
X41769999Y-37434999D03*
X43039998Y-37434998D03*
X44309999Y-37434998D03*
X45580000Y-37434999D03*
X46849999Y-37434996D03*
X48120000Y-37434998D03*
X49389999Y-37434999D03*
X49389998Y-32484998D03*
X48119999Y-32484997D03*
X46850000Y-32484998D03*
X45579999Y-32484998D03*
X44309998Y-32484997D03*
X43039999Y-32485000D03*
X41769998Y-32484998D03*
X40499999Y-32484997D03*
D21*
X37380000Y-45167502D03*
X37380004Y-46892506D03*
D30*
X30900001Y-32460000D03*
D31*
X30900001Y-35000000D03*
X38520000Y-35000000D03*
X38520001Y-32460000D03*
D27*
X26930000Y-65610000D03*
X26929998Y-63884998D03*
D10*
X40670000Y-26180000D03*
X40669998Y-24355002D03*
D12*
X26450000Y-49460000D03*
X20180000Y-73670000D03*
D32*
X53692498Y-25739999D03*
X51867502Y-25740001D03*
D12*
X20130000Y-77480000D03*
D20*
X50835000Y-89630000D03*
X52560000Y-89630000D03*
D33*
X32889998Y-42582502D03*
X32889998Y-41007502D03*
D20*
X35222495Y-58400003D03*
X36947501Y-58400001D03*
D22*
X25440000Y-70720000D03*
X27265000Y-70720000D03*
D18*
X40640000Y-61500000D03*
D19*
X43340000Y-61500000D03*
X46040000Y-61500000D03*
D18*
X19750000Y-81040000D03*
D19*
X19750000Y-83580000D03*
X19750000Y-86120000D03*
D10*
X30485001Y-53407500D03*
X30484999Y-51582502D03*
D26*
X24300000Y-25385000D03*
X22300000Y-23585000D03*
X22300000Y-17485000D03*
X24300000Y-19885000D03*
X22300000Y-29085000D03*
D12*
X28380000Y-73080000D03*
D34*
X48839997Y-92260002D03*
X48839997Y-90990002D03*
X48839997Y-89720002D03*
X48839997Y-88450002D03*
X48839997Y-87180002D03*
X48839997Y-85910002D03*
X48839997Y-84640002D03*
X48839997Y-83370002D03*
X48839997Y-82100002D03*
X48839997Y-80830002D03*
X48839997Y-79560002D03*
X48839997Y-78290002D03*
X48839997Y-77020002D03*
X48839997Y-75750002D03*
D35*
X47074997Y-74500002D03*
X45804997Y-74500002D03*
X44534997Y-74500002D03*
X43264997Y-74500002D03*
X41994997Y-74500002D03*
X40724997Y-74500002D03*
X39454997Y-74500002D03*
X38184997Y-74500002D03*
X36914997Y-74500002D03*
X35644997Y-74500002D03*
X34374997Y-74500002D03*
X33104997Y-74500002D03*
D34*
X31339997Y-75750002D03*
X31339997Y-77020002D03*
X31339997Y-78290002D03*
X31339997Y-79560002D03*
X31339997Y-80830002D03*
X31339997Y-82100002D03*
X31339997Y-83370002D03*
X31339997Y-84640002D03*
X31339997Y-85910002D03*
X31339997Y-87180002D03*
X31339997Y-88450002D03*
X31339997Y-89720002D03*
X31339997Y-90990002D03*
X31339997Y-92260002D03*
D36*
X42989997Y-85940002D03*
X42989997Y-84540002D03*
X42989997Y-83140002D03*
X41589997Y-85940002D03*
X41589997Y-84540002D03*
X41589997Y-83140002D03*
X40189997Y-85940002D03*
X40189997Y-84540002D03*
X40189997Y-83140002D03*
D37*
X46750002Y-107580002D03*
X46750003Y-108229997D03*
X46750000Y-108880000D03*
X48525004Y-108879994D03*
X48525003Y-108229999D03*
X48525006Y-107579996D03*
D38*
X47637503Y-108229998D03*
D39*
X34511529Y-66695916D03*
X34254413Y-66389499D03*
X33997297Y-66083080D03*
X33740180Y-65776662D03*
X33483066Y-65470244D03*
D40*
X32567327Y-65390126D03*
X32260910Y-65647242D03*
X31954491Y-65904358D03*
X31648073Y-66161475D03*
X31341655Y-66418589D03*
D39*
X31261537Y-67334328D03*
X31518653Y-67640745D03*
X31775769Y-67947164D03*
X32032886Y-68253582D03*
X32290000Y-68560000D03*
D40*
X33205739Y-68640118D03*
X33512156Y-68383002D03*
X33818575Y-68125886D03*
X34124993Y-67868769D03*
X34431411Y-67611655D03*
D41*
X32886533Y-67015122D03*
D12*
X51710000Y-85690000D03*
X49890000Y-66350000D03*
D11*
X32250000Y-54960000D03*
X30524998Y-54960004D03*
D42*
X28339998Y-51849996D03*
X28340000Y-53150000D03*
D43*
X49330000Y-102720000D03*
X50693990Y-103507500D03*
D22*
X28835002Y-49969998D03*
X30660000Y-49970000D03*
D44*
X58684999Y-94670000D03*
X50935001Y-94670000D03*
D18*
X28210000Y-87180000D03*
D19*
X28210000Y-89720000D03*
X28210000Y-92260000D03*
D27*
X25350002Y-61722502D03*
X25349998Y-59997498D03*
D45*
X19170000Y-33200001D03*
D46*
X19170000Y-31899999D03*
D47*
X29060000Y-75480000D03*
X29060000Y-77304994D03*
D11*
X37562499Y-95584996D03*
X35837497Y-95585000D03*
D45*
X25820000Y-33330000D03*
D46*
X25820002Y-32029996D03*
D18*
X51540000Y-61500000D03*
D19*
X54240000Y-61500000D03*
X56940000Y-61500000D03*
D18*
X51540000Y-42300000D03*
D19*
X54240000Y-42300000D03*
X56940000Y-42300000D03*
D10*
X28329998Y-97254998D03*
X28330000Y-95430000D03*
D48*
X27369514Y-68064993D03*
X28990486Y-67475007D03*
D20*
X35427498Y-63460002D03*
X37152502Y-63459998D03*
D21*
X50750000Y-91280000D03*
X50749998Y-93005002D03*
D27*
X32015001Y-53357502D03*
X32014999Y-51632500D03*
D49*
X28659398Y-55289770D03*
X26960602Y-54990230D03*
D50*
X40360002Y-18587502D03*
X40359998Y-16487500D03*
D51*
X20740000Y-55140000D03*
X20740000Y-46940000D03*
D52*
X20740000Y-53040000D03*
D53*
X20740001Y-51039999D03*
X20740000Y-49040000D03*
D54*
X44208749Y-100656948D03*
X45071251Y-99163052D03*
D55*
X38350295Y-106170000D03*
D56*
X40550000Y-107440000D03*
D12*
X41260000Y-104220000D03*
D47*
X30660000Y-45950000D03*
X30660000Y-47774994D03*
D57*
X42729999Y-110632000D03*
X43379999Y-110632000D03*
X44029999Y-110632000D03*
X44679999Y-110632000D03*
X45329999Y-110632000D03*
D58*
X40529999Y-113332000D03*
D59*
X41129999Y-113332000D03*
D60*
X41529999Y-110632000D03*
D61*
X43029999Y-113332000D03*
X45029999Y-113332000D03*
D60*
X46529999Y-110632000D03*
D59*
X46929999Y-113332000D03*
D58*
X47529999Y-113332000D03*
D26*
X36560000Y-25420000D03*
X34560000Y-23620000D03*
X34560000Y-17520000D03*
X36560000Y-19920000D03*
X34560000Y-29120000D03*
D62*
X34430000Y-105110000D03*
D63*
X31890000Y-105110000D03*
D18*
X19820000Y-58520000D03*
D19*
X22360000Y-58520000D03*
D20*
X31724998Y-95594998D03*
X33449998Y-95594998D03*
D32*
X39149995Y-102614999D03*
X37324999Y-102615001D03*
D47*
X39270000Y-95780000D03*
X39269998Y-97604998D03*
D14*
X30270000Y-61080000D03*
X31591428Y-59971190D03*
D18*
X22540003Y-41299999D03*
D19*
X22540003Y-38759999D03*
X22540003Y-36219999D03*
D27*
X25390000Y-69090000D03*
X25389998Y-67364994D03*
D64*
X24390000Y-81600000D03*
D65*
X24390000Y-79060000D03*
D47*
X40630001Y-27717501D03*
X40629999Y-29542499D03*
D22*
X36170000Y-54900000D03*
X34345000Y-54900000D03*
D18*
X22640000Y-95310000D03*
D19*
X22640000Y-92770000D03*
X22640000Y-90230000D03*
D12*
X37380000Y-70630000D03*
X26130000Y-98750000D03*
D10*
X33565000Y-53382499D03*
X33564998Y-51557501D03*
D44*
X50940002Y-99810000D03*
X58690000Y-99810000D03*
D10*
X38570000Y-68350000D03*
X38569998Y-66525002D03*
D27*
X31340000Y-42810004D03*
X31339998Y-41085002D03*
D47*
X30040000Y-95790000D03*
X30039998Y-97614998D03*
D64*
X25440000Y-75220000D03*
D65*
X22900000Y-75220000D03*
D11*
X35692499Y-102614996D03*
X33967497Y-102615000D03*
D47*
X25390000Y-63865006D03*
X25390000Y-65690000D03*
D66*
X32299999Y-49664999D03*
X32949999Y-49664999D03*
X33599998Y-49665001D03*
X34249998Y-49665000D03*
X34249999Y-45440001D03*
X33599999Y-45440001D03*
X32950000Y-45439999D03*
X32300000Y-45440000D03*
D67*
X39490000Y-94460000D03*
X24540000Y-93080000D03*
X48790000Y-51860000D03*
X45560000Y-93850000D03*
X32886533Y-67015122D03*
X29520000Y-60630000D03*
X23810000Y-62420000D03*
X56630000Y-96010000D03*
X30490000Y-62850000D03*
X38390000Y-44430000D03*
X40470000Y-45220000D03*
X47940000Y-58260000D03*
X41120000Y-35450000D03*
X39530000Y-39490000D03*
X30630000Y-43870000D03*
X53280000Y-60350000D03*
X32790000Y-78370000D03*
X41100000Y-95550000D03*
X46070000Y-75980000D03*
X42160000Y-96320000D03*
X50270000Y-74370000D03*
X47160000Y-91110000D03*
X52840000Y-92680000D03*
X26940000Y-61380000D03*
X28140000Y-56320000D03*
X31820000Y-56160000D03*
X26480000Y-59370000D03*
X47410000Y-81200000D03*
X32860000Y-79470000D03*
X44250000Y-34130000D03*
X42460000Y-76150000D03*
X53410000Y-67690000D03*
X51980000Y-67910000D03*
X40090000Y-76530000D03*
X50990000Y-32350000D03*
X47520000Y-82300000D03*
X31370000Y-74320000D03*
X54170000Y-99580000D03*
X51910000Y-33340000D03*
X26210000Y-47430000D03*
X44990000Y-75970000D03*
X32970000Y-81520000D03*
X38340000Y-79840000D03*
X40970000Y-64270000D03*
X39420000Y-80050000D03*
X41940000Y-64680000D03*
X29540000Y-84560000D03*
X32640000Y-85420000D03*
X35750000Y-78560000D03*
X41160000Y-75930000D03*
X27710000Y-69080000D03*
D68*
X36563744Y-54053744D02*
X36170000Y-54900000D01*
X36922501Y-51959998D02*
X36868600Y-52940000D01*
X36563744Y-54053744D02*
X36868600Y-52940000D01*
X35197499Y-51960002D02*
X35290000Y-51210000D01*
X35290000Y-51210000D02*
X35840002Y-50394998D01*
X36360000Y-51160000D02*
X36630000Y-50920000D01*
X36053407Y-52590000D02*
X36050000Y-51360000D01*
X36630000Y-50920000D02*
X36696496Y-50676496D01*
X36050000Y-51360000D02*
X36360000Y-51160000D01*
D69*
X41562904Y-43877096D02*
X41846026Y-44880000D01*
X41687778Y-46767778D02*
X41864968Y-45960000D01*
X41864968Y-45960000D02*
X41846026Y-44880000D01*
X41269074Y-47679074D02*
X41687778Y-46767778D01*
X38970000Y-41870000D02*
X38290000Y-41220000D01*
X40640000Y-42300000D02*
X38970000Y-41870000D01*
X38290000Y-41220000D02*
X37830000Y-40090000D01*
D68*
X35540000Y-44202754D02*
X36220473Y-43740473D01*
X36560739Y-43140000D02*
X36724379Y-42520000D01*
X36220473Y-43740473D02*
X36560739Y-43140000D01*
X35028872Y-44348872D02*
X35540000Y-44202754D01*
X34646405Y-44576405D02*
X35028872Y-44348872D01*
X34249999Y-45440001D02*
X34646405Y-44576405D01*
X36866574Y-48650000D02*
X36823774Y-48260000D01*
X36514300Y-47895700D02*
X36190000Y-47753329D01*
X36823774Y-48260000D02*
X36514300Y-47895700D01*
X31090000Y-46830000D02*
X30110000Y-46830000D01*
X32658006Y-46858006D02*
X31090000Y-46830000D01*
X32950000Y-45439999D02*
X32997904Y-46440000D01*
X32658006Y-46858006D02*
X32997904Y-46440000D01*
X34449187Y-47270813D02*
X35000000Y-46160000D01*
X35000000Y-46160000D02*
X35830000Y-45160000D01*
X34030491Y-46999509D02*
X34449187Y-47270813D01*
X33599999Y-45440001D02*
X33625615Y-46550000D01*
X34030491Y-46999509D02*
X33625615Y-46550000D01*
X36190000Y-47753329D02*
X35420000Y-47769563D01*
X35420000Y-47769563D02*
X34449187Y-47270813D01*
X36850000Y-48940000D02*
X36866574Y-48650000D01*
X36850000Y-49700000D02*
X36850000Y-48940000D01*
X36696496Y-50676496D02*
X36850000Y-49700000D01*
X35630097Y-53560097D02*
X36010000Y-53100000D01*
X36010000Y-53100000D02*
X36053407Y-52590000D01*
X35290000Y-54730000D02*
X35630097Y-53560097D01*
X34249998Y-49665000D02*
X35840000Y-48570000D01*
X55630000Y-33511810D02*
X54760000Y-33503524D01*
X54760000Y-33503524D02*
X53976167Y-33696167D01*
X57760000Y-34740000D02*
X56755221Y-33774779D01*
X56755221Y-33774779D02*
X55630000Y-33511810D01*
X55420000Y-36000000D02*
X54430000Y-36000000D01*
X56320952Y-36149048D02*
X57084813Y-36515187D01*
X55420000Y-36000000D02*
X56320952Y-36149048D01*
X57760000Y-37280000D02*
X57084813Y-36515187D01*
X52260000Y-34983366D02*
X53470000Y-34993710D01*
X53470000Y-34993710D02*
X55220000Y-34740000D01*
X49900000Y-34813702D02*
X52260000Y-34983366D01*
X49900000Y-34813702D02*
X48480000Y-34940000D01*
X52910000Y-34017425D02*
X53976167Y-33696167D01*
X50690000Y-34170698D02*
X51480000Y-34217529D01*
X52910000Y-34017425D02*
X51480000Y-34217529D01*
X48890000Y-34360000D02*
X50690000Y-34170698D01*
X50544638Y-31305362D02*
X50009295Y-30970705D01*
X50990000Y-32350000D02*
X50890581Y-31780000D01*
X50544638Y-31305362D02*
X50890581Y-31780000D01*
X49020000Y-30883101D02*
X48690000Y-30989620D01*
X48360462Y-31320000D02*
X48119999Y-32484997D01*
X48690000Y-30989620D02*
X48360462Y-31320000D01*
X50009295Y-30970705D02*
X49020000Y-30883101D01*
X52395431Y-29314569D02*
X51610051Y-28979949D01*
X53920000Y-30820000D02*
X53189823Y-29960177D01*
X52395431Y-29314569D02*
X53189823Y-29960177D01*
X50840000Y-28840165D02*
X51610051Y-28979949D01*
X49131676Y-29131676D02*
X49870000Y-28908339D01*
X49870000Y-28908339D02*
X50840000Y-28840165D01*
X47410000Y-30320000D02*
X49131676Y-29131676D01*
X45991417Y-31521417D02*
X45579999Y-32484998D01*
X45991417Y-31521417D02*
X46600000Y-30860000D01*
X47410000Y-30320000D02*
X46600000Y-30860000D01*
X55220000Y-29660000D02*
X54557248Y-28602752D01*
X53790000Y-28287223D02*
X48190000Y-27976122D01*
X54557248Y-28602752D02*
X53790000Y-28287223D01*
X57760000Y-29660000D02*
X56785972Y-28784028D01*
X56099346Y-28310654D02*
X54680000Y-27500000D01*
X56785972Y-28784028D02*
X56099346Y-28310654D01*
X43280000Y-28420000D02*
X42760000Y-30130000D01*
X45110000Y-26720000D02*
X44170000Y-27130000D01*
X44170000Y-27130000D02*
X43720000Y-27530000D01*
X43720000Y-27530000D02*
X43280000Y-28420000D01*
X47308543Y-26661457D02*
X45110000Y-26720000D01*
X42760000Y-30130000D02*
X41769998Y-32484998D01*
X45450000Y-27293067D02*
X45990000Y-27221676D01*
X49210000Y-27250000D02*
X48840000Y-27233830D01*
X45990000Y-27221676D02*
X48840000Y-27233830D01*
X44510000Y-27590000D02*
X45450000Y-27293067D01*
X43920000Y-28410000D02*
X44510000Y-27590000D01*
X43087321Y-30950000D02*
X43039999Y-32485000D01*
X43087321Y-30950000D02*
X43920000Y-28410000D01*
X44727904Y-28307904D02*
X44487356Y-28847356D01*
X44487356Y-28847356D02*
X44300000Y-30050000D01*
X44869820Y-28149820D02*
X44727904Y-28307904D01*
X46660000Y-27820000D02*
X45370000Y-27853725D01*
X44869820Y-28149820D02*
X45370000Y-27853725D01*
X45830000Y-22064836D02*
X45360000Y-22199672D01*
X44687004Y-22897004D02*
X44080000Y-23850000D01*
X45360000Y-22199672D02*
X44687004Y-22897004D01*
X46620000Y-22024592D02*
X45830000Y-22064836D01*
X48659771Y-22760229D02*
X47390147Y-22189853D01*
X46620000Y-22024592D02*
X47390147Y-22189853D01*
X49416532Y-23273468D02*
X48659771Y-22760229D01*
X53692498Y-25739999D02*
X52541313Y-24908687D01*
X49416532Y-23273468D02*
X52541313Y-24908687D01*
X25481556Y-23828444D02*
X25129270Y-23370730D01*
X23252130Y-21807870D02*
X22690000Y-21420000D01*
X25129270Y-23370730D02*
X23252130Y-21807870D01*
X25990000Y-26570000D02*
X26049447Y-24880000D01*
X26049447Y-24880000D02*
X25481556Y-23828444D01*
X26395621Y-22964379D02*
X25993804Y-22036196D01*
X26707111Y-28020000D02*
X26661769Y-24250000D01*
X26395621Y-22964379D02*
X26661769Y-24250000D01*
X25291930Y-20968070D02*
X24300000Y-19885000D01*
X25993804Y-22036196D02*
X25291930Y-20968070D01*
X27029440Y-33670000D02*
X26210000Y-36990000D01*
X27029440Y-33670000D02*
X27082420Y-32020000D01*
X26707111Y-28020000D02*
X27082420Y-32020000D01*
X30129442Y-34450558D02*
X29887493Y-33912507D01*
X29683767Y-33160000D02*
X29600000Y-31870000D01*
X29887493Y-33912507D02*
X29683767Y-33160000D01*
X30900001Y-35000000D02*
X30129442Y-34450558D01*
X32966634Y-22856634D02*
X33135385Y-22665385D01*
X32966634Y-22856634D02*
X32679273Y-23600000D01*
X32679273Y-23600000D02*
X32215618Y-25920000D01*
X33135385Y-22665385D02*
X33640000Y-22344418D01*
X33640000Y-22344418D02*
X34130000Y-22198931D01*
X31610000Y-29420000D02*
X32215618Y-25920000D01*
X36280000Y-21834497D02*
X37470000Y-21602793D01*
X34130000Y-22198931D02*
X36280000Y-21834497D01*
X32664737Y-21784737D02*
X32258845Y-22278845D01*
X33741396Y-21141396D02*
X36560000Y-19920000D01*
X32664737Y-21784737D02*
X33741396Y-21141396D01*
X30420000Y-28400000D02*
X30737647Y-26780000D01*
X32258845Y-22278845D02*
X30737647Y-26780000D01*
X37338402Y-24288402D02*
X39260000Y-22550000D01*
X39260000Y-22550000D02*
X40730002Y-21787502D01*
X37338402Y-24288402D02*
X36560000Y-25420000D01*
D69*
X36855429Y-34124571D02*
X36595888Y-33594112D01*
X36442997Y-32490000D02*
X36697811Y-30460000D01*
X36595888Y-33594112D02*
X36442997Y-32490000D01*
X37340000Y-34599161D02*
X36855429Y-34124571D01*
X38520000Y-35000000D02*
X37340000Y-34599161D01*
X33070000Y-36530000D02*
X30880000Y-36530000D01*
X34780000Y-36724668D02*
X37124994Y-37350002D01*
X33070000Y-36530000D02*
X34780000Y-36724668D01*
X30475181Y-36825181D02*
X30270392Y-37260392D01*
X30204422Y-38280000D02*
X30360000Y-39570000D01*
X30270392Y-37260392D02*
X30204422Y-38280000D01*
X30475181Y-36825181D02*
X30880000Y-36530000D01*
X19750000Y-81040000D02*
X18926772Y-79793228D01*
X18411708Y-77910000D02*
X18635084Y-72340000D01*
X18926772Y-79793228D02*
X18411708Y-77910000D01*
D68*
X24360000Y-44900000D02*
X24930614Y-43410000D01*
X26210000Y-36990000D02*
X25535650Y-40880000D01*
X24930614Y-43410000D02*
X25535650Y-40880000D01*
X23960000Y-43810000D02*
X24513341Y-42240000D01*
X25820000Y-33330000D02*
X24905893Y-40280000D01*
X24513341Y-42240000D02*
X24905893Y-40280000D01*
X24200000Y-35240000D02*
X23902198Y-41540000D01*
X23438209Y-43460000D02*
X23677015Y-42760000D01*
X23677015Y-42760000D02*
X23902198Y-41540000D01*
X22892990Y-47120000D02*
X23438209Y-43460000D01*
X22460723Y-52100000D02*
X22409157Y-49960000D01*
X22409157Y-49960000D02*
X22892990Y-47120000D01*
X22963173Y-51930000D02*
X22930884Y-50590000D01*
X22930884Y-50590000D02*
X23419563Y-47520000D01*
X23895331Y-47880000D02*
X24360000Y-44900000D01*
X23464264Y-51470000D02*
X23449566Y-50920000D01*
X23449566Y-50920000D02*
X23895331Y-47880000D01*
X22684862Y-53430000D02*
X22593483Y-53030000D01*
X22593483Y-53030000D02*
X22460723Y-52100000D01*
X22820981Y-53880000D02*
X22684862Y-53430000D01*
X23685319Y-55814681D02*
X23638298Y-55731702D01*
X23638298Y-55731702D02*
X22820981Y-53880000D01*
X25270000Y-57500000D02*
X24286585Y-56523415D01*
X23685319Y-55814681D02*
X24286585Y-56523415D01*
X26862943Y-58727057D02*
X25270000Y-57500000D01*
X31360000Y-56794023D02*
X31600000Y-56832048D01*
X30064643Y-57024643D02*
X30338074Y-56908074D01*
X31360000Y-56794023D02*
X30338074Y-56908074D01*
X31600000Y-56832048D02*
X31920000Y-56940000D01*
X30064643Y-57024643D02*
X29520000Y-57460000D01*
X29770000Y-57950000D02*
X30398800Y-57498800D01*
X31682996Y-57407004D02*
X30890000Y-57373550D01*
X30398800Y-57498800D02*
X30890000Y-57373550D01*
X28640000Y-58207336D02*
X26920000Y-57891859D01*
X26920000Y-57891859D02*
X26089305Y-57450695D01*
X23308974Y-53671026D02*
X23098382Y-52940000D01*
X23098382Y-52940000D02*
X22963173Y-51930000D01*
X23524715Y-54155285D02*
X23308974Y-53671026D01*
X23805178Y-54784822D02*
X23524715Y-54155285D01*
X24559513Y-56020487D02*
X23805178Y-54784822D01*
X26089305Y-57450695D02*
X24559513Y-56020487D01*
X28970000Y-58176341D02*
X28640000Y-58207336D01*
X28970000Y-58176341D02*
X29770000Y-57950000D01*
X25159337Y-55850663D02*
X24307992Y-54592008D01*
X23789717Y-53490000D02*
X23591737Y-52790000D01*
X24307992Y-54592008D02*
X23789717Y-53490000D01*
X23591737Y-52790000D02*
X23464264Y-51470000D01*
X26160837Y-56789163D02*
X25159337Y-55850663D01*
X27070000Y-57382648D02*
X26160837Y-56789163D01*
X28560000Y-57658979D02*
X27070000Y-57382648D01*
X28900000Y-57617818D02*
X28560000Y-57658979D01*
X29520000Y-57460000D02*
X28900000Y-57617818D01*
X29577373Y-56737373D02*
X30220000Y-56180000D01*
X28540000Y-57126895D02*
X28840000Y-57075036D01*
X28840000Y-57075036D02*
X29577373Y-56737373D01*
X26270861Y-56129139D02*
X27291188Y-56898812D01*
X27291188Y-56898812D02*
X28540000Y-57126895D01*
X24135271Y-52090000D02*
X24111240Y-52710000D01*
X26450000Y-49460000D02*
X24508901Y-51358901D01*
X24135271Y-52090000D02*
X24508901Y-51358901D01*
X24273588Y-53316412D02*
X24475516Y-53684484D01*
X24273588Y-53316412D02*
X24111240Y-52710000D01*
X26270861Y-56129139D02*
X25390434Y-55159566D01*
X24475516Y-53684484D02*
X25390434Y-55159566D01*
X32690000Y-58070000D02*
X33183182Y-58506818D01*
D70*
X33401749Y-59580000D02*
X33395941Y-59140000D01*
D68*
X33183182Y-58506818D02*
X33395941Y-59140000D01*
X33300000Y-57790000D02*
X33563133Y-57916867D01*
X33879485Y-58390000D02*
X33892295Y-58606940D01*
X33563133Y-57916867D02*
X33879485Y-58390000D01*
X36270000Y-62960000D02*
X36174390Y-62120000D01*
X35922963Y-61507037D02*
X35610000Y-61170000D01*
X36174390Y-62120000D02*
X35922963Y-61507037D01*
X43470000Y-62775580D02*
X43970000Y-62643308D01*
X42080000Y-63270000D02*
X43470000Y-62775580D01*
X41324261Y-63784261D02*
X42080000Y-63270000D01*
X40970000Y-64270000D02*
X41324261Y-63784261D01*
X47156816Y-62936816D02*
X43850000Y-64380000D01*
X46666924Y-62566924D02*
X46942546Y-62402546D01*
X46666924Y-62566924D02*
X45510000Y-62970000D01*
X47418886Y-62668886D02*
X47156816Y-62936816D01*
X47715986Y-62335986D02*
X47418886Y-62668886D01*
X47907708Y-61720000D02*
X47889779Y-61170000D01*
X47715986Y-62335986D02*
X47907708Y-61720000D01*
X47722949Y-60537051D02*
X47630000Y-60340000D01*
X47889779Y-61170000D02*
X47722949Y-60537051D01*
X47630000Y-60340000D02*
X47540078Y-60120000D01*
X47540078Y-60120000D02*
X46750000Y-59110000D01*
X46874804Y-60145196D02*
X46486140Y-59643860D01*
X47216870Y-60760000D02*
X46874804Y-60145196D01*
X47367486Y-61340000D02*
X47216870Y-60760000D01*
X47148698Y-62188698D02*
X47309909Y-61879909D01*
X47309909Y-61879909D02*
X47367486Y-61340000D01*
X46942546Y-62402546D02*
X47148698Y-62188698D01*
X30444546Y-72720000D02*
X30497728Y-72330000D01*
X30425607Y-71340000D02*
X30180000Y-69880000D01*
X30497728Y-72330000D02*
X30425607Y-71340000D01*
X29979456Y-74219456D02*
X30240226Y-73550000D01*
X30240226Y-73550000D02*
X30444546Y-72720000D01*
X29060000Y-75480000D02*
X29979456Y-74219456D01*
D70*
X29639931Y-73829931D02*
X29795219Y-73430000D01*
X29885160Y-72820000D02*
X29837925Y-71990000D01*
X29795219Y-73430000D02*
X29885160Y-72820000D01*
X27971102Y-75420000D02*
X28656732Y-74676732D01*
X28656732Y-74676732D02*
X29412522Y-74112522D01*
X27810000Y-76040000D02*
X27971102Y-75420000D01*
X28212327Y-77870000D02*
X28215497Y-76930000D01*
X28405983Y-76635983D02*
X28660000Y-76456762D01*
X28215497Y-76930000D02*
X28405983Y-76635983D01*
X31339997Y-83370002D02*
X30550000Y-83232258D01*
X27940000Y-78930000D02*
X27754924Y-77590000D01*
X28280000Y-79850000D02*
X27940000Y-78930000D01*
X30550000Y-83232258D02*
X28990000Y-81130000D01*
X28990000Y-81130000D02*
X28280000Y-79850000D01*
X27754924Y-77590000D02*
X27810000Y-76040000D01*
X30440000Y-81992001D02*
X31339997Y-82100002D01*
X29780000Y-81310000D02*
X28780000Y-79800000D01*
X30440000Y-81992001D02*
X29780000Y-81310000D01*
X28780000Y-79800000D02*
X28212327Y-77870000D01*
D69*
X39470000Y-93455000D02*
X37850000Y-93593068D01*
X41310000Y-93435866D02*
X40900000Y-93412007D01*
X39470000Y-93455000D02*
X40900000Y-93412007D01*
X42585878Y-93644122D02*
X41310000Y-93435866D01*
X43598042Y-94170000D02*
X42585878Y-93644122D01*
X43800000Y-94930000D02*
X43598042Y-94170000D01*
X27082955Y-93407045D02*
X26501418Y-93108582D01*
X30290000Y-94018067D02*
X28330000Y-93807613D01*
X27082955Y-93407045D02*
X28330000Y-93807613D01*
X26501418Y-93108582D02*
X24770000Y-91920000D01*
X30290000Y-94018067D02*
X34940000Y-93877021D01*
D68*
X24210000Y-100680000D02*
X23540000Y-99860000D01*
X26350000Y-101180000D02*
X25290000Y-101110000D01*
X25290000Y-101110000D02*
X24210000Y-100680000D01*
X30079997Y-101027499D02*
X29380000Y-101132239D01*
X29380000Y-101132239D02*
X26350000Y-101180000D01*
X23050000Y-98510000D02*
X22790000Y-96990000D01*
X23540000Y-99860000D02*
X23050000Y-98510000D01*
X22790000Y-96990000D02*
X22640000Y-95310000D01*
X24306951Y-98920000D02*
X24290444Y-97350000D01*
X24533529Y-99746471D02*
X24306951Y-98920000D01*
X25363416Y-100506584D02*
X25066283Y-100313717D01*
X25066283Y-100313717D02*
X24533529Y-99746471D01*
X26740000Y-100568155D02*
X26230000Y-100637976D01*
X26230000Y-100637976D02*
X25363416Y-100506584D01*
X27830578Y-99960578D02*
X27448948Y-100258948D01*
X27448948Y-100258948D02*
X26740000Y-100568155D01*
X27962081Y-99742081D02*
X27830578Y-99960578D01*
X27962081Y-99742081D02*
X28229411Y-98680000D01*
X28329998Y-97254998D02*
X28229411Y-98680000D01*
X24290444Y-97350000D02*
X24540000Y-93080000D01*
D69*
X39135856Y-111030000D02*
X38958996Y-109420000D01*
X39310000Y-113570000D02*
X39135856Y-111030000D01*
X38958996Y-109420000D02*
X38350295Y-106170000D01*
X39310000Y-113570000D02*
X39310000Y-113950000D01*
X39310000Y-113950000D02*
X39690721Y-114619279D01*
X40030000Y-114859246D02*
X39690721Y-114619279D01*
X47920000Y-115179729D02*
X48683986Y-114353986D01*
X49613799Y-112973799D02*
X50728934Y-110328934D01*
X48683986Y-114353986D02*
X49613799Y-112973799D01*
X51436036Y-107760000D02*
X51478335Y-106530000D01*
X51436036Y-107760000D02*
X50728934Y-110328934D01*
X51478335Y-106530000D02*
X51392190Y-105580000D01*
X51087642Y-104322358D02*
X50693990Y-103507500D01*
X51392190Y-105580000D02*
X51087642Y-104322358D01*
X51430000Y-101310000D02*
X55420000Y-101066912D01*
X57032318Y-100612318D02*
X58690000Y-99810000D01*
X55420000Y-101066912D02*
X57032318Y-100612318D01*
X54980000Y-96140000D02*
X55105714Y-95300000D01*
X54735232Y-93924768D02*
X53460000Y-91880000D01*
X55105714Y-95300000D02*
X54735232Y-93924768D01*
D68*
X50935001Y-94670000D02*
X51959815Y-94039815D01*
X51959815Y-94039815D02*
X52686667Y-93320000D01*
X52686667Y-93320000D02*
X52840000Y-92680000D01*
X54768110Y-90371890D02*
X57110000Y-90790000D01*
X58800000Y-89460000D02*
X58950000Y-88940000D01*
X57110000Y-90790000D02*
X58040000Y-90270000D01*
X53110000Y-88880080D02*
X54768110Y-90371890D01*
X58040000Y-90270000D02*
X58800000Y-89460000D01*
X58950000Y-88940000D02*
X59184960Y-87800000D01*
X57970000Y-89430000D02*
X58230000Y-88980000D01*
X57100000Y-90050000D02*
X57660000Y-89720000D01*
X56430000Y-90060000D02*
X57100000Y-90050000D01*
X57660000Y-89720000D02*
X57970000Y-89430000D01*
X55810000Y-89970000D02*
X56430000Y-90060000D01*
X53430000Y-88350000D02*
X54907316Y-89682684D01*
X54907316Y-89682684D02*
X55810000Y-89970000D01*
X58512513Y-88210000D02*
X58490000Y-87650000D01*
X58230000Y-88980000D02*
X58512513Y-88210000D01*
X54356019Y-87593981D02*
X55329843Y-88520157D01*
X54356019Y-87593981D02*
X53670000Y-87301887D01*
X50930000Y-86940000D02*
X53670000Y-87301887D01*
X56090000Y-89480000D02*
X56360000Y-89500000D01*
X53646318Y-87861373D02*
X54904935Y-88935065D01*
X56090000Y-89480000D02*
X54904935Y-88935065D01*
X56090000Y-88809804D02*
X56700000Y-88860000D01*
X56090000Y-88809804D02*
X55329843Y-88520157D01*
X57170000Y-89230000D02*
X57420000Y-88950000D01*
X57932031Y-88220000D02*
X57932107Y-86420000D01*
X56360000Y-89500000D02*
X56830000Y-89430000D01*
X56830000Y-89430000D02*
X57170000Y-89230000D01*
X57420000Y-88950000D02*
X57932031Y-88220000D01*
X56700000Y-88860000D02*
X56980000Y-88640000D01*
X56980000Y-88640000D02*
X57354336Y-88130000D01*
X57354336Y-88130000D02*
X57305207Y-86790000D01*
X57032168Y-86120000D02*
X56225737Y-85654263D01*
X56225737Y-85654263D02*
X54950000Y-85289110D01*
X57305207Y-86790000D02*
X57032168Y-86120000D01*
X57808919Y-85741081D02*
X57665842Y-85484158D01*
X57932107Y-86420000D02*
X57808919Y-85741081D01*
X55900000Y-84711293D02*
X54950000Y-84593134D01*
X57665842Y-85484158D02*
X57095379Y-85104621D01*
X57095379Y-85104621D02*
X55900000Y-84711293D01*
X58490000Y-87650000D02*
X58517372Y-84630000D01*
X58170000Y-84298553D02*
X55130000Y-83938553D01*
X58517372Y-84630000D02*
X58170000Y-84298553D01*
X58921432Y-78790000D02*
X58990722Y-78580000D01*
X59020000Y-73080000D02*
X59070067Y-78020000D01*
X58990722Y-78580000D02*
X59070067Y-78020000D01*
X58520350Y-79330350D02*
X57640000Y-79850000D01*
X58921432Y-78790000D02*
X58520350Y-79330350D01*
X58180000Y-81035437D02*
X57380000Y-81082039D01*
X58808861Y-81291139D02*
X58180000Y-81035437D01*
X59184960Y-87800000D02*
X58996337Y-82090000D01*
X58996337Y-82090000D02*
X58808861Y-81291139D01*
X56482376Y-80787624D02*
X56330000Y-80670000D01*
X57380000Y-81082039D02*
X56482376Y-80787624D01*
X53893512Y-84414125D02*
X53212291Y-83897709D01*
X52705490Y-83170000D02*
X52400000Y-81530000D01*
X53212291Y-83897709D02*
X52705490Y-83170000D01*
X54950000Y-84593134D02*
X53833506Y-83726494D01*
X53282903Y-82950000D02*
X53070000Y-82150000D01*
X53833506Y-83726494D02*
X53282903Y-82950000D01*
X55130000Y-83938553D02*
X54199911Y-83280089D01*
X53760308Y-82450000D02*
X53634673Y-81510000D01*
X54199911Y-83280089D02*
X53760308Y-82450000D01*
X53630000Y-80500000D02*
X53780798Y-79450000D01*
X53634673Y-81510000D02*
X53630000Y-80500000D01*
X53070000Y-82150000D02*
X52949321Y-80950000D01*
X52985946Y-79960000D02*
X53300000Y-78300000D01*
X52949321Y-80950000D02*
X52985946Y-79960000D01*
X52400000Y-81530000D02*
X52341729Y-81190000D01*
X52317049Y-79870000D02*
X52630000Y-78210000D01*
X52341729Y-81190000D02*
X52317049Y-79870000D01*
X55950000Y-78650000D02*
X56460000Y-78533253D01*
X56959701Y-78219701D02*
X57639997Y-77310001D01*
X56460000Y-78533253D02*
X56959701Y-78219701D01*
X54281188Y-78791188D02*
X54590000Y-78630098D01*
X54281188Y-78791188D02*
X53780798Y-79450000D01*
X54590000Y-78630098D02*
X55950000Y-78650000D01*
X52630000Y-78210000D02*
X53737288Y-76497288D01*
X54520000Y-76072987D02*
X56330000Y-76120000D01*
X53737288Y-76497288D02*
X54520000Y-76072987D01*
X51389752Y-78439752D02*
X50717332Y-79087332D01*
X48839997Y-79560002D02*
X50080000Y-79413775D01*
X50717332Y-79087332D02*
X50080000Y-79413775D01*
X51389752Y-78439752D02*
X51912066Y-77382066D01*
X52160000Y-75950000D02*
X52160000Y-75490000D01*
X51912066Y-77382066D02*
X52160000Y-75950000D01*
X50915107Y-76855107D02*
X49819444Y-78039444D01*
X51308793Y-75260000D02*
X51287963Y-75030000D01*
X50915107Y-76855107D02*
X51308793Y-75260000D01*
X50991867Y-74058133D02*
X50290000Y-73080000D01*
X50991867Y-74058133D02*
X51287963Y-75030000D01*
X50149159Y-71230000D02*
X50237944Y-70980000D01*
X50650000Y-70498884D02*
X52250000Y-70018197D01*
X50237944Y-70980000D02*
X50650000Y-70498884D01*
X50290000Y-73080000D02*
X50077063Y-72030000D01*
X50077063Y-72030000D02*
X50149159Y-71230000D01*
X53245751Y-70454249D02*
X53955260Y-71214740D01*
X54547226Y-72390000D02*
X55099999Y-74770001D01*
X53955260Y-71214740D02*
X54547226Y-72390000D01*
X52250000Y-70018197D02*
X53245751Y-70454249D01*
X50360000Y-69391716D02*
X52580000Y-68826300D01*
X47074997Y-74500002D02*
X49137152Y-70567152D01*
X50360000Y-69391716D02*
X49137152Y-70567152D01*
X54770000Y-69113995D02*
X56410000Y-69701062D01*
X54770000Y-69113995D02*
X52580000Y-68826300D01*
X58087458Y-70992542D02*
X59020000Y-73080000D01*
X58087458Y-70992542D02*
X56410000Y-69701062D01*
X47940000Y-58260000D02*
X49220000Y-58471525D01*
X49220000Y-58471525D02*
X51185085Y-59154915D01*
X51185085Y-59154915D02*
X53280000Y-60350000D01*
X46486140Y-59643860D02*
X46369617Y-59460383D01*
X43970000Y-62643308D02*
X44379851Y-62289851D01*
X44663377Y-61750000D02*
X44770000Y-61050000D01*
X44379851Y-62289851D02*
X44663377Y-61750000D01*
X51445356Y-65044644D02*
X51681765Y-65440000D01*
X51445356Y-65044644D02*
X50660000Y-64500526D01*
X49890000Y-64351930D02*
X50660000Y-64500526D01*
X52401077Y-64730000D02*
X51705665Y-64024335D01*
X50260000Y-63554976D02*
X50690000Y-63597089D01*
X51705665Y-64024335D02*
X50690000Y-63597089D01*
X52401077Y-64730000D02*
X53170000Y-66690000D01*
X51681765Y-65440000D02*
X51980000Y-67910000D01*
X46755000Y-66350000D02*
X48959475Y-64529475D01*
X48959475Y-64529475D02*
X49890000Y-64351930D01*
X48730000Y-63700000D02*
X50260000Y-63554976D01*
X43620000Y-66350000D02*
X45230206Y-64940206D01*
X47360000Y-64000612D02*
X48730000Y-63700000D01*
X45230206Y-64940206D02*
X47360000Y-64000612D01*
X42380000Y-68050000D02*
X42170000Y-67720000D01*
X43940000Y-68588266D02*
X42650000Y-68330000D01*
X42170000Y-67720000D02*
X41905089Y-67030000D01*
X43940000Y-68588266D02*
X44280000Y-68560978D01*
X42650000Y-68330000D02*
X42380000Y-68050000D01*
X41880000Y-65970000D02*
X41905089Y-67030000D01*
X45990000Y-70190000D02*
X45990000Y-70530000D01*
X45156737Y-68823263D02*
X45733611Y-69416389D01*
X45733611Y-69416389D02*
X45990000Y-70190000D01*
X45156737Y-68823263D02*
X44280000Y-68560978D01*
X38397897Y-72567897D02*
X39250000Y-71450000D01*
X38184997Y-74500002D02*
X38164783Y-73190000D01*
X38397897Y-72567897D02*
X38164783Y-73190000D01*
X39454997Y-74500002D02*
X39829719Y-72880000D01*
X40536207Y-72096207D02*
X42350000Y-71280000D01*
X39829719Y-72880000D02*
X40536207Y-72096207D01*
X45510000Y-71790000D02*
X42440000Y-72810376D01*
X41994997Y-74500002D02*
X42036249Y-73330000D01*
X42036249Y-73330000D02*
X42440000Y-72810376D01*
X45990000Y-70530000D02*
X45830000Y-71360000D01*
X45830000Y-71360000D02*
X45510000Y-71790000D01*
D70*
X35900940Y-67930940D02*
X35681931Y-68261931D01*
X35280000Y-68514153D02*
X35000000Y-68490856D01*
X35681931Y-68261931D02*
X35280000Y-68514153D01*
X35900940Y-67930940D02*
X36140000Y-67450000D01*
X35000000Y-68490856D02*
X34569904Y-68320096D01*
X27790000Y-69711520D02*
X27964971Y-69664971D01*
X27370000Y-69700712D02*
X27510000Y-69727008D01*
X27790000Y-69711520D02*
X27510000Y-69727008D01*
X27964971Y-69664971D02*
X28125314Y-69595314D01*
X26598846Y-69241154D02*
X27031538Y-69558462D01*
X27370000Y-69700712D02*
X27031538Y-69558462D01*
X26220367Y-68629633D02*
X26337798Y-68912202D01*
X26337798Y-68912202D02*
X26598846Y-69241154D01*
X25870000Y-68314240D02*
X24850000Y-68200000D01*
X25870000Y-68314240D02*
X26220367Y-68629633D01*
X24244500Y-67050000D02*
X24160000Y-66270000D01*
X24850000Y-68200000D02*
X24498372Y-67741628D01*
X24498372Y-67741628D02*
X24244500Y-67050000D01*
X23552135Y-64467865D02*
X22689997Y-63730001D01*
X24160000Y-66270000D02*
X23917736Y-65200000D01*
X23917736Y-65200000D02*
X23552135Y-64467865D01*
D69*
X19080221Y-70210000D02*
X20669218Y-66200000D01*
X19080221Y-70210000D02*
X18635084Y-72340000D01*
X21433830Y-64933830D02*
X22689997Y-63730001D01*
X21433830Y-64933830D02*
X20669218Y-66200000D01*
X19179836Y-62390164D02*
X18812733Y-61947267D01*
X19179836Y-62390164D02*
X20360000Y-62770000D01*
X18363688Y-60910000D02*
X18265149Y-59710000D01*
X18812733Y-61947267D02*
X18363688Y-60910000D01*
D68*
X19323948Y-60550000D02*
X19820000Y-58520000D01*
X19680000Y-61532133D02*
X19455762Y-61204238D01*
X19323948Y-60550000D02*
X19455762Y-61204238D01*
X20220000Y-61693719D02*
X19680000Y-61532133D01*
X21080000Y-61700000D02*
X20220000Y-61693719D01*
X23160000Y-61200000D02*
X21080000Y-61700000D01*
D70*
X33925417Y-61515417D02*
X34093048Y-61253048D01*
X34079381Y-60460619D02*
X33978763Y-60341237D01*
X34093048Y-61253048D02*
X34079381Y-60460619D01*
D68*
X39270000Y-95780000D02*
X39490000Y-94460000D01*
D69*
X28640000Y-106400000D02*
X31890000Y-105110000D01*
X38350295Y-106170000D02*
X34430000Y-105110000D01*
D68*
X28829998Y-46535002D02*
X29830000Y-46350000D01*
X49010000Y-109458111D02*
X49380000Y-109306764D01*
X49630000Y-103720000D02*
X50560000Y-102240000D01*
D69*
X27010000Y-74290000D02*
X26520000Y-73400000D01*
X26780000Y-79900000D02*
X27010000Y-75200000D01*
X42640000Y-92088240D02*
X31339997Y-92260002D01*
X18250000Y-52880000D02*
X18230000Y-59260000D01*
D68*
X32165000Y-101025000D02*
X33967497Y-102615000D01*
D69*
X40800000Y-56380000D02*
X40640000Y-55100000D01*
X40780000Y-23100000D02*
X41796160Y-22646160D01*
X28210000Y-89720000D02*
X28210000Y-87180000D01*
X48840000Y-92260000D02*
X46910000Y-92200000D01*
D68*
X30110000Y-46830000D02*
X29830000Y-46350000D01*
D69*
X37450000Y-36260000D02*
X38520000Y-35000000D01*
X48790000Y-51860000D02*
X45810000Y-53230000D01*
X41589997Y-84540002D02*
X40189994Y-84540001D01*
D68*
X46529999Y-110632000D02*
X46668379Y-109530000D01*
D69*
X40800000Y-50570000D02*
X40800000Y-53260000D01*
X48120000Y-37434998D02*
X46849999Y-37434996D01*
X30360000Y-39570000D02*
X31339998Y-39445002D01*
X51030000Y-101242847D02*
X51430000Y-101310000D01*
X40800000Y-61500000D02*
X39500000Y-61310266D01*
X40800000Y-48700000D02*
X41269074Y-47679074D01*
D68*
X29830000Y-46350000D02*
X29010000Y-43950000D01*
X32165000Y-101025000D02*
X30079997Y-101027499D01*
X29768572Y-59478810D02*
X29520000Y-60630000D01*
D69*
X18250000Y-44640000D02*
X20490000Y-40490000D01*
X44780000Y-18930000D02*
X46300000Y-17530000D01*
D68*
X35830004Y-46885004D02*
X37380004Y-46892506D01*
D69*
X20490000Y-40490000D02*
X22540003Y-41299999D01*
X40800000Y-55100000D02*
X40800000Y-56380000D01*
X42500000Y-89430000D02*
X41589997Y-85940005D01*
X51540000Y-41240000D02*
X51540000Y-42300000D01*
X40189997Y-83140005D02*
X40189994Y-84540001D01*
D68*
X49846986Y-108776986D02*
X50054087Y-108140000D01*
X36757496Y-60910001D02*
X37152502Y-63459998D01*
D69*
X39491534Y-48008466D02*
X40640000Y-48700000D01*
X46929999Y-113332000D02*
X46529999Y-110632000D01*
X18250000Y-52880000D02*
X20740000Y-53040000D01*
X42640000Y-92088240D02*
X43840000Y-92070000D01*
X40189999Y-85940001D02*
X41589997Y-85940005D01*
X51220000Y-39120000D02*
X50460000Y-37570000D01*
X51700000Y-48700000D02*
X51700000Y-43600000D01*
X37124994Y-37350002D02*
X37450000Y-36260000D01*
X51700000Y-42300000D02*
X51540000Y-41240000D01*
X39500000Y-61310266D02*
X40640000Y-61500000D01*
D68*
X29940000Y-41060000D02*
X31339998Y-41085002D01*
D69*
X40780000Y-23100000D02*
X40050000Y-23341753D01*
X49389999Y-37434999D02*
X48120000Y-37434998D01*
X24170000Y-68963481D02*
X25390000Y-69090000D01*
X20490000Y-36040000D02*
X19170000Y-33200001D01*
X25390000Y-69090000D02*
X27265000Y-70720000D01*
X26590000Y-71720000D02*
X27265000Y-70720000D01*
X51700000Y-43600000D02*
X51700000Y-42300000D01*
X39491534Y-48008466D02*
X37380004Y-46892506D01*
X25532500Y-83860000D02*
X28210000Y-87180000D01*
X18250000Y-52880000D02*
X18250000Y-44640000D01*
X41589997Y-83139999D02*
X41589997Y-84540002D01*
X40800000Y-48700000D02*
X40800000Y-49840000D01*
X41796160Y-22646160D02*
X44479218Y-19439218D01*
X36950000Y-56870000D02*
X36947501Y-58400000D01*
X43029999Y-113332000D02*
X41129999Y-113332000D01*
X40189994Y-84540001D02*
X40189999Y-85940001D01*
D68*
X45560000Y-93850000D02*
X45230000Y-92128860D01*
D69*
X50749998Y-93005002D02*
X48840000Y-92260000D01*
X51700000Y-53820000D02*
X51700000Y-48700000D01*
X51700000Y-43600000D02*
X51540000Y-42300000D01*
X51540000Y-41240000D02*
X51220000Y-39120000D01*
X41562904Y-43877096D02*
X40640000Y-42300000D01*
D68*
X46750000Y-108880000D02*
X46668379Y-109530000D01*
D69*
X23214765Y-62005235D02*
X21550000Y-62570000D01*
X37395565Y-28555565D02*
X38370056Y-26710056D01*
X40800000Y-53660000D02*
X40800000Y-55100000D01*
X40800000Y-48700000D02*
X39491534Y-48008466D01*
X46910000Y-92200000D02*
X45230000Y-92128860D01*
X28210000Y-92260000D02*
X28210000Y-89720000D01*
X41129999Y-113332000D02*
X41529999Y-110632000D01*
D68*
X49994800Y-105160000D02*
X50200000Y-106400000D01*
D69*
X37395565Y-28555565D02*
X36697811Y-30460000D01*
X43840000Y-92070000D02*
X42500000Y-89430000D01*
X22690000Y-68810000D02*
X24170000Y-68963481D01*
X44780000Y-18930000D02*
X44479218Y-19439218D01*
X40800000Y-56380000D02*
X40800000Y-60240000D01*
X40800000Y-53660000D02*
X40640000Y-55100000D01*
X25532500Y-83860000D02*
X26780000Y-79900000D01*
D68*
X49994800Y-105160000D02*
X49630000Y-103720000D01*
D69*
X45810000Y-53230000D02*
X45260000Y-53249928D01*
D68*
X49380000Y-109306764D02*
X49630821Y-109130821D01*
D69*
X41589997Y-85940005D02*
X42989997Y-85940002D01*
D68*
X35837497Y-95585000D02*
X34660000Y-97750000D01*
D69*
X40800000Y-60240000D02*
X40800000Y-61500000D01*
D68*
X49630821Y-109130821D02*
X49846986Y-108776986D01*
D69*
X41269074Y-47679074D02*
X40640000Y-48700000D01*
X42989997Y-84540000D02*
X42989996Y-83140000D01*
X53459686Y-90370314D02*
X52560000Y-89630000D01*
X20490000Y-36040000D02*
X20490000Y-40490000D01*
X45230000Y-92128860D02*
X43840000Y-92070000D01*
D68*
X36757496Y-60910001D02*
X36947501Y-58400001D01*
D69*
X51700000Y-53820000D02*
X51540000Y-55100000D01*
X45029999Y-113332000D02*
X43029999Y-113332000D01*
X31339997Y-92260002D02*
X28210000Y-92260000D01*
X21550000Y-62570000D02*
X20360000Y-62770000D01*
X40800000Y-53260000D02*
X40800000Y-53660000D01*
X27010000Y-75200000D02*
X27010000Y-74290000D01*
X40050000Y-23341753D02*
X39732962Y-23732962D01*
X40189997Y-83140005D02*
X41589997Y-83139999D01*
D68*
X46529999Y-110632000D02*
X47650000Y-109490000D01*
D69*
X42989997Y-85940002D02*
X42989997Y-84540000D01*
X28055007Y-60489514D02*
X29768572Y-59478810D01*
X58690000Y-99810000D02*
X58684999Y-94670000D01*
X40800000Y-49840000D02*
X40640000Y-48700000D01*
D68*
X50560000Y-102240000D02*
X51030000Y-101242847D01*
D69*
X46929999Y-113332000D02*
X45029999Y-113332000D01*
D68*
X34660000Y-97750000D02*
X33870000Y-100590000D01*
X36170000Y-54900000D02*
X36950000Y-56870000D01*
D69*
X38370056Y-26710056D02*
X39732962Y-23732962D01*
D68*
X30270000Y-61080000D02*
X29768572Y-59478810D01*
D69*
X46662457Y-100012823D02*
X48690000Y-100850000D01*
D68*
X50200000Y-106710000D02*
X50200000Y-106400000D01*
D69*
X45260000Y-53249928D02*
X40800000Y-53260000D01*
D68*
X47650000Y-109490000D02*
X47637503Y-108229998D01*
D69*
X42989997Y-84540000D02*
X41589997Y-84540002D01*
X50460000Y-37570000D02*
X49389999Y-37434999D01*
X40800000Y-49840000D02*
X40800000Y-50570000D01*
X42989996Y-83140000D02*
X41589997Y-83139999D01*
X40800000Y-60240000D02*
X40640000Y-61500000D01*
D68*
X50054087Y-108140000D02*
X50134931Y-107730000D01*
X29010000Y-43950000D02*
X29940000Y-41060000D01*
D69*
X48690000Y-100850000D02*
X51030000Y-101242847D01*
X37830000Y-40090000D02*
X37450000Y-38420000D01*
X37450000Y-38420000D02*
X37124994Y-37350002D01*
X26520000Y-73400000D02*
X26590000Y-71720000D01*
X18230000Y-59260000D02*
X18265149Y-59710000D01*
D68*
X33870000Y-100590000D02*
X33967497Y-102615000D01*
D69*
X23810000Y-62420000D02*
X23214765Y-62005235D01*
X48250000Y-95045000D02*
X48839997Y-92260002D01*
X39500000Y-61310266D02*
X36757496Y-60910001D01*
X58684999Y-94670000D02*
X53459686Y-90370314D01*
D68*
X47650000Y-109490000D02*
X49010000Y-109458111D01*
X45329999Y-110632000D02*
X46529999Y-110632000D01*
D69*
X31339998Y-39445002D02*
X31339998Y-41085002D01*
X51700000Y-55100000D02*
X51700000Y-53820000D01*
X45071251Y-99163052D02*
X46662457Y-100012823D01*
D68*
X50134931Y-107730000D02*
X50200000Y-106710000D01*
X40499999Y-32484997D02*
X41270000Y-34300000D01*
X37115000Y-97215000D02*
X37562499Y-95584996D01*
X30630000Y-43870000D02*
X30280000Y-42780000D01*
D69*
X24770000Y-91920000D02*
X22640000Y-90230000D01*
D68*
X34882503Y-59960000D02*
X35222495Y-58400003D01*
X40499999Y-32484997D02*
X41640000Y-30430000D01*
D70*
X29261321Y-68871321D02*
X28125314Y-69595314D01*
D69*
X42918024Y-101071976D02*
X45020000Y-102680000D01*
X42730000Y-100650000D02*
X42918024Y-101071976D01*
D68*
X29740000Y-69350000D02*
X29261321Y-68871321D01*
D69*
X43380000Y-96750000D02*
X43479231Y-96320000D01*
D68*
X31050000Y-44780000D02*
X30660000Y-45950000D01*
D69*
X43560000Y-98060000D02*
X42730000Y-100650000D01*
D68*
X36320000Y-64050000D02*
X36270000Y-62960000D01*
X41542885Y-28080000D02*
X41490000Y-27860000D01*
D70*
X29261321Y-68871321D02*
X30175435Y-68105435D01*
D68*
X35280000Y-60800000D02*
X34882503Y-59960000D01*
D69*
X19750000Y-83580000D02*
X19750000Y-81040000D01*
X53460000Y-91880000D02*
X52420000Y-91530000D01*
D68*
X39530000Y-39490000D02*
X39140000Y-38640000D01*
X41490000Y-27860000D02*
X40630001Y-27717501D01*
X36989999Y-66217501D02*
X36320000Y-64050000D01*
X46750002Y-107580002D02*
X46700000Y-106800000D01*
X42320000Y-26780000D02*
X41542885Y-28080000D01*
X41740000Y-28900000D02*
X41542885Y-28080000D01*
D70*
X31518653Y-67640745D02*
X30940000Y-68050000D01*
D69*
X45470000Y-97050000D02*
X43479231Y-96320000D01*
X19750000Y-86120000D02*
X19750000Y-83580000D01*
D68*
X31050000Y-44780000D02*
X30630000Y-43870000D01*
D69*
X43479231Y-96320000D02*
X43800000Y-94930000D01*
X22640000Y-90230000D02*
X19750000Y-86120000D01*
D68*
X40470000Y-45220000D02*
X38330000Y-45183642D01*
X31260000Y-41925702D02*
X32080000Y-41940000D01*
D69*
X50750000Y-91280000D02*
X48840001Y-90990002D01*
D68*
X30180000Y-69880000D02*
X29740000Y-69350000D01*
D69*
X31633480Y-61922390D02*
X30490000Y-62850000D01*
X43560000Y-98060000D02*
X43380000Y-96750000D01*
D68*
X38330000Y-45183642D02*
X38390000Y-44430000D01*
D69*
X48250000Y-97995000D02*
X45470000Y-97050000D01*
D68*
X36989999Y-66217501D02*
X38569998Y-66525002D01*
D69*
X50710001Y-98132499D02*
X52600000Y-97530000D01*
D68*
X56630000Y-96010000D02*
X54980000Y-96140000D01*
X32470000Y-41860000D02*
X32670000Y-41780000D01*
D70*
X30560000Y-67910000D02*
X30175435Y-68105435D01*
D68*
X44080000Y-23850000D02*
X42320000Y-26780000D01*
D69*
X35224999Y-56869999D02*
X35222494Y-58400004D01*
X34940000Y-93877021D02*
X36320000Y-93723466D01*
X52600000Y-97530000D02*
X54980000Y-96140000D01*
D68*
X35610000Y-61170000D02*
X35280000Y-60800000D01*
X41640000Y-30430000D02*
X41740000Y-28900000D01*
D69*
X37380000Y-45167502D02*
X35830000Y-45160000D01*
X45020000Y-102680000D02*
X46270000Y-104510000D01*
D68*
X39140000Y-38640000D02*
X38850000Y-37350000D01*
D69*
X37850000Y-93593068D02*
X36320000Y-93723466D01*
D68*
X33640000Y-43930000D02*
X33940000Y-42200000D01*
X38330000Y-45183642D02*
X37380000Y-45167502D01*
X35290000Y-54730000D02*
X35224994Y-56870002D01*
D69*
X46270000Y-104510000D02*
X46444286Y-105730000D01*
D70*
X30940000Y-68050000D02*
X30560000Y-67910000D01*
D68*
X30280000Y-42780000D02*
X30440000Y-42020000D01*
X33599999Y-45440001D02*
X33640000Y-43930000D01*
D69*
X50710001Y-98132499D02*
X48250000Y-97995000D01*
X52420000Y-91530000D02*
X50750000Y-91280000D01*
D68*
X32080000Y-41940000D02*
X32470000Y-41860000D01*
X30440000Y-42020000D02*
X31260000Y-41925702D01*
X32670000Y-41780000D02*
X33470000Y-41790000D01*
X41270000Y-34300000D02*
X41120000Y-35450000D01*
X46700000Y-106800000D02*
X46444286Y-105730000D01*
X33470000Y-41790000D02*
X33940000Y-42200000D01*
X37562499Y-95584996D02*
X37850000Y-93593068D01*
X31339997Y-78290002D02*
X32790000Y-78370000D01*
X20180000Y-73670000D02*
X22900000Y-75220000D01*
X44220000Y-105640000D02*
X43260000Y-103350000D01*
X41695143Y-101974857D02*
X41283518Y-101170000D01*
X47470000Y-76530000D02*
X48839997Y-77020002D01*
X41100000Y-100340000D02*
X41100000Y-95550000D01*
X41283518Y-101170000D02*
X41100000Y-100340000D01*
X43260000Y-103350000D02*
X41695143Y-101974857D01*
X46070000Y-75980000D02*
X47470000Y-76530000D01*
X43379999Y-110632000D02*
X43363979Y-109670000D01*
X43363979Y-109670000D02*
X44220000Y-105640000D01*
X50270000Y-74370000D02*
X48839997Y-75750002D01*
X41988790Y-100901210D02*
X41896919Y-99180000D01*
X44208327Y-109640000D02*
X45690000Y-106990000D01*
X44029999Y-110632000D02*
X44208327Y-109640000D01*
X45690000Y-106990000D02*
X44505108Y-103228471D01*
X44505108Y-103228471D02*
X42544316Y-101855684D01*
X41896919Y-99180000D02*
X42160000Y-96320000D01*
X42544316Y-101855684D02*
X41988790Y-100901210D01*
X47780000Y-90130000D02*
X47160000Y-91110000D01*
X48839997Y-89720002D02*
X50835000Y-89630000D01*
X50709999Y-96307501D02*
X50935001Y-94670000D01*
X48839997Y-89720002D02*
X47780000Y-90130000D01*
X28330000Y-95430000D02*
X30040000Y-95790000D01*
X31724998Y-95594998D02*
X30040000Y-95790000D01*
X32165000Y-97215000D02*
X32070000Y-97200000D01*
X27240000Y-96330000D02*
X28470000Y-96330000D01*
X32165000Y-97215000D02*
X33449998Y-95594998D01*
X26130000Y-98750000D02*
X27240000Y-96330000D01*
X29400000Y-96590000D02*
X30060000Y-96740000D01*
X32165000Y-97215000D02*
X32165000Y-98485000D01*
X32070000Y-97200000D02*
X30060000Y-96740000D01*
X28470000Y-96330000D02*
X29400000Y-96590000D01*
X40370000Y-99730000D02*
X40048198Y-98850000D01*
X40048198Y-98850000D02*
X39840000Y-98240000D01*
X39270000Y-101040000D02*
X40370000Y-99730000D01*
X39840000Y-98240000D02*
X39269998Y-97604998D01*
X39149995Y-102614999D02*
X39270000Y-101040000D01*
X30079999Y-99302497D02*
X30039998Y-97614998D01*
X32165000Y-99755000D02*
X30079999Y-99302497D01*
X35692499Y-102614996D02*
X37324999Y-102615001D01*
X37115000Y-101025000D02*
X37324999Y-102615001D01*
X22690000Y-21420000D02*
X20738187Y-19368187D01*
D69*
X20738187Y-19368187D02*
X22300000Y-17485000D01*
D68*
X25820002Y-32029996D02*
X25990000Y-26570000D01*
D69*
X19700000Y-20620000D02*
X19170000Y-31899999D01*
X19700000Y-20620000D02*
X20738187Y-19368187D01*
D70*
X31341655Y-66418589D02*
X28990486Y-67475007D01*
D68*
X22360000Y-58520000D02*
X25349998Y-59997498D01*
D70*
X26900000Y-62780000D02*
X25350002Y-61722502D01*
X27974704Y-64195296D02*
X27594240Y-63325760D01*
X28780000Y-65180000D02*
X28030000Y-64320000D01*
X31580199Y-65469801D02*
X31120000Y-65318493D01*
X27226573Y-62983427D02*
X26900000Y-62780000D01*
X31120000Y-65318493D02*
X29560000Y-65340000D01*
X29560000Y-65340000D02*
X28780000Y-65180000D01*
X31954491Y-65904357D02*
X31580199Y-65469801D01*
X27226573Y-62983427D02*
X27594240Y-63325760D01*
X28030000Y-64320000D02*
X27974704Y-64195296D01*
D68*
X41690000Y-108880000D02*
X39635102Y-107324898D01*
X42729999Y-110632000D02*
X42650000Y-109620000D01*
X42650000Y-109620000D02*
X41690000Y-108880000D01*
X39509705Y-107230000D02*
X39635102Y-107324898D01*
D70*
X30320000Y-65721275D02*
X29560000Y-65910000D01*
X31236354Y-65733646D02*
X30320000Y-65721275D01*
X31648073Y-66161476D02*
X31236354Y-65733646D01*
X27710000Y-65910000D02*
X26930000Y-65610000D01*
X29560000Y-65910000D02*
X27710000Y-65910000D01*
X29630000Y-63820000D02*
X28644993Y-62110486D01*
X30440000Y-64050000D02*
X29630000Y-63820000D01*
X30680000Y-64070741D02*
X30440000Y-64050000D01*
X32890000Y-64870000D02*
X33483066Y-65470244D01*
X32468798Y-64471202D02*
X32890000Y-64870000D01*
X32468798Y-64471202D02*
X30680000Y-64070741D01*
D68*
X26960602Y-54990230D02*
X28340000Y-53150000D01*
X25520000Y-52540000D02*
X26960602Y-54990230D01*
D70*
X35810000Y-64370000D02*
X35427498Y-63460002D01*
X34431411Y-67611655D02*
X35360000Y-66930000D01*
X35850000Y-65870000D02*
X35810000Y-64370000D01*
X35427498Y-63460002D02*
X34882502Y-61859999D01*
X35360000Y-66930000D02*
X35850000Y-65870000D01*
D68*
X30220000Y-56180000D02*
X30400000Y-55840000D01*
X30485001Y-53407500D02*
X30524998Y-54960004D01*
X30400000Y-55840000D02*
X30524998Y-54960004D01*
X32014999Y-51632500D02*
X33565000Y-53382499D01*
X34345000Y-54900000D02*
X33565000Y-53382499D01*
D70*
X34376807Y-64830000D02*
X33839253Y-64360747D01*
X33627165Y-64232835D02*
X33000000Y-62140000D01*
X34473750Y-65110000D02*
X34376807Y-64830000D01*
X33997298Y-66083080D02*
X34390295Y-65730295D01*
X34390295Y-65730295D02*
X34452432Y-65582432D01*
X33000000Y-62140000D02*
X32840000Y-60910000D01*
X34452432Y-65582432D02*
X34473750Y-65110000D01*
D68*
X31090000Y-58370000D02*
X31591428Y-59971190D01*
X31591428Y-59971190D02*
X32840000Y-60910000D01*
D70*
X33839253Y-64360747D02*
X33627165Y-64232835D01*
X32567326Y-65390126D02*
X32066062Y-64773938D01*
X31030000Y-64520000D02*
X29420000Y-64260000D01*
X29420000Y-64260000D02*
X28423087Y-63257734D01*
X32066062Y-64773938D02*
X31030000Y-64520000D01*
X27790000Y-62300000D02*
X26940000Y-61380000D01*
X28050000Y-62710000D02*
X27790000Y-62300000D01*
X28140000Y-56320000D02*
X28659398Y-55289770D01*
X28423087Y-63257734D02*
X28050000Y-62710000D01*
D68*
X32250000Y-54960000D02*
X31820000Y-56160000D01*
D70*
X31845680Y-65164320D02*
X31180000Y-64947951D01*
X26380000Y-61760000D02*
X26150000Y-60830000D01*
X32260909Y-65647242D02*
X31845680Y-65164320D01*
D68*
X26480000Y-59370000D02*
X26150000Y-60110000D01*
D70*
X30450000Y-64930000D02*
X29510000Y-64870000D01*
X28570000Y-64290000D02*
X28318269Y-63771731D01*
X27665785Y-62824215D02*
X26380000Y-61760000D01*
X29240000Y-64850000D02*
X28570000Y-64290000D01*
X29510000Y-64870000D02*
X29240000Y-64850000D01*
X26150000Y-60830000D02*
X26150000Y-60110000D01*
X28122933Y-63447067D02*
X27665785Y-62824215D01*
X28318269Y-63771731D02*
X28122933Y-63447067D01*
X31180000Y-64947951D02*
X30450000Y-64930000D01*
D68*
X47150000Y-103880000D02*
X45712459Y-101658277D01*
X49210000Y-108410000D02*
X49180000Y-107900000D01*
X48525004Y-108879994D02*
X49080000Y-108800000D01*
X47730000Y-105550000D02*
X47150000Y-103880000D01*
X48410000Y-107070000D02*
X47730000Y-105550000D01*
X48525006Y-107579996D02*
X48410000Y-107070000D01*
X49080000Y-108800000D02*
X49210000Y-108410000D01*
X48990000Y-107670000D02*
X48525006Y-107579996D01*
X49180000Y-107900000D02*
X48990000Y-107670000D01*
D69*
X44208749Y-100656948D02*
X45712459Y-101658277D01*
D68*
X36724379Y-42520000D02*
X36930000Y-41130000D01*
X36930000Y-41130000D02*
X36941272Y-39830000D01*
X36654257Y-38905743D02*
X36210000Y-38520000D01*
X33970000Y-37620000D02*
X32869998Y-37975002D01*
X36210000Y-38520000D02*
X35460000Y-38170000D01*
X34200000Y-37620000D02*
X33970000Y-37620000D01*
X35460000Y-38170000D02*
X34200000Y-37620000D01*
X36941272Y-39830000D02*
X36654257Y-38905743D01*
X32869998Y-37975002D02*
X31340000Y-37720000D01*
X32300000Y-45440000D02*
X31750000Y-43690000D01*
X32889998Y-42582502D02*
X31340000Y-42810004D01*
X31750000Y-43690000D02*
X31340000Y-42810004D01*
X32869998Y-39550002D02*
X35470000Y-39930000D01*
X34100000Y-41210000D02*
X32889998Y-41007502D01*
X35470000Y-42470000D02*
X34100000Y-41210000D01*
X41310000Y-24319446D02*
X45220000Y-21120000D01*
X45220000Y-21120000D02*
X48300000Y-19930000D01*
X40669998Y-24355002D02*
X41310000Y-24319446D01*
X30484999Y-51582502D02*
X30660000Y-49970000D01*
X30484999Y-51582502D02*
X32015001Y-53357502D01*
X28830000Y-48360000D02*
X30660000Y-49970000D01*
X37115000Y-98485000D02*
X37115000Y-99755000D01*
X41260000Y-104220000D02*
X39540000Y-104550000D01*
X38460000Y-101260000D02*
X38450000Y-100610000D01*
X38300588Y-102710000D02*
X38360000Y-101690000D01*
X38450000Y-100610000D02*
X38280000Y-99502914D01*
X38360000Y-101690000D02*
X38460000Y-101260000D01*
X37115000Y-99755000D02*
X38280000Y-99502914D01*
X39540000Y-104550000D02*
X38330000Y-103510000D01*
X38280000Y-99502914D02*
X39159997Y-99312497D01*
X38330000Y-103510000D02*
X38300588Y-102710000D01*
X51867502Y-25740001D02*
X48300000Y-25430000D01*
X51710000Y-85690000D02*
X50210000Y-83940000D01*
X50210000Y-83940000D02*
X48839997Y-83370002D01*
X50580000Y-82360000D02*
X48839997Y-82100002D01*
X55970000Y-87280000D02*
X54230000Y-85900000D01*
X51760000Y-83410000D02*
X50580000Y-82360000D01*
X54230000Y-85900000D02*
X53070000Y-84570000D01*
X53070000Y-84570000D02*
X51760000Y-83410000D01*
X47410000Y-81200000D02*
X46280000Y-80850000D01*
X31339997Y-89720002D02*
X32780000Y-89197143D01*
X43540000Y-80820000D02*
X44510000Y-80677488D01*
X40080000Y-81190921D02*
X43540000Y-80820000D01*
X38813075Y-81803075D02*
X40080000Y-81190921D01*
X32780000Y-89197143D02*
X33875986Y-87515986D01*
X46280000Y-80850000D02*
X44510000Y-80677488D01*
X33875986Y-87515986D02*
X38813075Y-81803075D01*
X50280000Y-88060000D02*
X49830000Y-87750000D01*
X49830000Y-87750000D02*
X48839997Y-87180002D01*
X50280000Y-88060000D02*
X53430000Y-88350000D01*
D69*
X25470000Y-73850000D02*
X25440000Y-75220000D01*
X25470000Y-73850000D02*
X25440000Y-70720000D01*
D68*
X31339997Y-79560002D02*
X32860000Y-79470000D01*
X24390000Y-79060000D02*
X20130000Y-77480000D01*
X23707500Y-83860000D02*
X24390000Y-81600000D01*
X40359998Y-16487500D02*
X36560000Y-19920000D01*
X29600000Y-31870000D02*
X30420000Y-28400000D01*
X37470000Y-21602793D02*
X38200000Y-21321278D01*
X39683403Y-20593403D02*
X40730000Y-19962504D01*
X40360002Y-18587502D02*
X40730000Y-19962504D01*
X30900001Y-32460000D02*
X31610000Y-29420000D01*
X38200000Y-21321278D02*
X39683403Y-20593403D01*
X52930000Y-88819189D02*
X53110000Y-88880080D01*
X56330000Y-80670000D02*
X55100002Y-79850001D01*
X48839997Y-88450002D02*
X52930000Y-88819189D01*
D69*
X47811251Y-101773052D02*
X49330000Y-102720000D01*
D68*
X55220000Y-32200000D02*
X53920000Y-30820000D01*
X51270000Y-36180000D02*
X49540000Y-36070000D01*
X55220000Y-37280000D02*
X51270000Y-36180000D01*
X49540000Y-36070000D02*
X48130000Y-36070000D01*
X46320000Y-36147773D02*
X48130000Y-36070000D01*
X45597070Y-36270000D02*
X45580000Y-37434999D01*
X45597070Y-36270000D02*
X46320000Y-36147773D01*
X41769999Y-37434999D02*
X42463109Y-36283109D01*
X42463109Y-36283109D02*
X43159634Y-35899634D01*
X46230000Y-35041810D02*
X44766832Y-35360622D01*
X44766832Y-35360622D02*
X44530000Y-35391951D01*
X48080000Y-34958100D02*
X46230000Y-35041810D01*
X43159634Y-35899634D02*
X44530000Y-35391951D01*
X48480000Y-34940000D02*
X48080000Y-34958100D01*
X50570000Y-35437401D02*
X48130000Y-35512140D01*
X44381085Y-36270000D02*
X44695738Y-35885738D01*
X44381085Y-36270000D02*
X44309999Y-37434998D01*
X45810000Y-35700885D02*
X46520000Y-35604535D01*
X45810000Y-35700885D02*
X44695738Y-35885738D01*
X51310000Y-35470000D02*
X50570000Y-35437401D01*
X54430000Y-36000000D02*
X51310000Y-35470000D01*
X46520000Y-35604535D02*
X48130000Y-35512140D01*
X57760000Y-32200000D02*
X58745738Y-30835738D01*
X58745738Y-30835738D02*
X58948900Y-30080000D01*
X47308543Y-26661457D02*
X49230000Y-26730000D01*
X54350000Y-26740000D02*
X55915169Y-27224831D01*
X58948900Y-30080000D02*
X58907358Y-29012642D01*
X49230000Y-26730000D02*
X54350000Y-26740000D01*
X58907358Y-29012642D02*
X58367641Y-28422359D01*
X58367641Y-28422359D02*
X55915169Y-27224831D01*
X44300000Y-30050000D02*
X44309998Y-32484997D01*
X48190000Y-27976122D02*
X46660000Y-27820000D01*
X43527985Y-35137985D02*
X43950000Y-34950000D01*
X48890000Y-34360000D02*
X45810000Y-34539640D01*
X41178190Y-36208190D02*
X43527985Y-35137985D01*
X43950000Y-34950000D02*
X44700000Y-34770000D01*
X40500000Y-37434998D02*
X41178190Y-36208190D01*
X44700000Y-34770000D02*
X45810000Y-34539640D01*
X54680000Y-27500000D02*
X49210000Y-27250000D01*
X44250000Y-34130000D02*
X45460000Y-33930000D01*
X41333753Y-76953753D02*
X40290000Y-77268555D01*
X33380000Y-80383557D02*
X34960000Y-76790000D01*
X31339997Y-80830002D02*
X33380000Y-80383557D01*
X45460000Y-33930000D02*
X46450000Y-33850000D01*
X53170000Y-66690000D02*
X53410000Y-67690000D01*
X41333753Y-76953753D02*
X42460000Y-76150000D01*
X38630000Y-77080000D02*
X36100000Y-76730000D01*
X46450000Y-33850000D02*
X46850000Y-32484998D01*
X36100000Y-76730000D02*
X34960000Y-76790000D01*
X40290000Y-77268555D02*
X38630000Y-77080000D01*
X40090000Y-76530000D02*
X33500000Y-75730000D01*
X33500000Y-75730000D02*
X33104997Y-74500002D01*
X33499128Y-89849128D02*
X38772279Y-82942279D01*
X31339997Y-90990002D02*
X33499128Y-89849128D01*
X39830000Y-82100980D02*
X45840000Y-81990000D01*
X38772279Y-82942279D02*
X39830000Y-82100980D01*
X47520000Y-82300000D02*
X45840000Y-81990000D01*
X56330000Y-76120000D02*
X57280000Y-75710000D01*
X50160000Y-85740000D02*
X50930000Y-86940000D01*
X49730000Y-84914339D02*
X50160000Y-85740000D01*
X57280000Y-75710000D02*
X57640000Y-74770000D01*
X54950000Y-85289110D02*
X53893512Y-84414125D01*
X48839997Y-84640002D02*
X49730000Y-84914339D01*
X49630000Y-78306668D02*
X49819444Y-78039444D01*
X48839997Y-78290002D02*
X49630000Y-78306668D01*
X53610000Y-77860000D02*
X55100001Y-77310002D01*
X50643827Y-87525204D02*
X50000000Y-86580000D01*
X50000000Y-86580000D02*
X48839997Y-85910002D01*
X53300000Y-78300000D02*
X53610000Y-77860000D01*
X50643827Y-87525204D02*
X53646318Y-87861373D01*
X42350000Y-71280000D02*
X44100000Y-70290000D01*
X52160000Y-75490000D02*
X51860000Y-71960000D01*
D70*
X33900000Y-62230000D02*
X33899105Y-62090000D01*
D68*
X31920000Y-56940000D02*
X33300000Y-57790000D01*
D70*
X33978763Y-60341237D02*
X33867001Y-60140000D01*
X34330000Y-63330000D02*
X33900000Y-62230000D01*
X35100000Y-66080000D02*
X35410000Y-64680000D01*
X34690000Y-63930000D02*
X34330000Y-63330000D01*
X33899105Y-62090000D02*
X33894495Y-61810000D01*
X35410000Y-64680000D02*
X34690000Y-63930000D01*
X34511529Y-66695915D02*
X35100000Y-66080000D01*
X33855147Y-59420000D02*
X33892295Y-58606940D01*
X33894495Y-61810000D02*
X33925417Y-61515417D01*
X33867001Y-60140000D02*
X33855147Y-59420000D01*
X29550000Y-62820000D02*
X29543866Y-62036134D01*
X34033263Y-65026737D02*
X33570000Y-64660000D01*
X32864891Y-64215109D02*
X32490000Y-64062811D01*
X29543866Y-62036134D02*
X29071757Y-61328243D01*
X33740179Y-65776662D02*
X34063098Y-65433098D01*
X29071757Y-61328243D02*
X28840000Y-61212662D01*
X31443256Y-63806744D02*
X30010000Y-63530000D01*
X31620000Y-63894043D02*
X31443256Y-63806744D01*
X28840000Y-61212662D02*
X28330000Y-61310000D01*
X34112842Y-65217158D02*
X34033263Y-65026737D01*
X27170000Y-59130000D02*
X27092917Y-58930000D01*
X33570000Y-64660000D02*
X32864891Y-64215109D01*
X32490000Y-64062811D02*
X31620000Y-63894043D01*
X27200000Y-59860000D02*
X27170000Y-59130000D01*
X28330000Y-61310000D02*
X27850000Y-61390000D01*
X34063098Y-65433098D02*
X34112842Y-65217158D01*
X30010000Y-63530000D02*
X29550000Y-62820000D01*
D68*
X26862943Y-58727057D02*
X27092917Y-58930000D01*
D70*
X27567000Y-61160000D02*
X27240000Y-60610000D01*
X27850000Y-61390000D02*
X27567000Y-61160000D01*
D68*
X24300000Y-25385000D02*
X24200000Y-35240000D01*
D70*
X27240000Y-60610000D02*
X27200000Y-59860000D01*
D68*
X28835002Y-49969998D02*
X28339998Y-51849996D01*
X30390000Y-76200000D02*
X31339997Y-75750002D01*
X30140000Y-77250000D02*
X29060000Y-77304994D01*
X54170000Y-99580000D02*
X50940002Y-99810000D01*
X30180000Y-76510000D02*
X30390000Y-76200000D01*
X30180000Y-76510000D02*
X30140000Y-77250000D01*
X31370000Y-74320000D02*
X31339997Y-75750002D01*
X24770000Y-62797679D02*
X24450000Y-61820000D01*
X25100000Y-62804177D02*
X24770000Y-62797679D01*
X26929998Y-63884998D02*
X26359363Y-63240637D01*
X24450000Y-61820000D02*
X24282335Y-61487665D01*
X26359363Y-63240637D02*
X25100000Y-62804177D01*
X24282335Y-61487665D02*
X23160000Y-61200000D01*
X50250000Y-33070000D02*
X51910000Y-33340000D01*
X45804997Y-74500002D02*
X46570000Y-72240000D01*
X49389998Y-32484998D02*
X50250000Y-33070000D01*
X46570000Y-72240000D02*
X49890000Y-66350000D01*
D70*
X34310000Y-64130000D02*
X34125722Y-64004278D01*
X34125722Y-64004278D02*
X33590000Y-62540000D01*
X33463171Y-61890000D02*
X33680000Y-61030000D01*
D68*
X31682996Y-57407004D02*
X32690000Y-58070000D01*
D70*
X34770000Y-65880000D02*
X34936624Y-65180395D01*
X34920000Y-64730000D02*
X34310000Y-64130000D01*
D68*
X23419563Y-47520000D02*
X23960000Y-43810000D01*
D70*
X34254413Y-66389499D02*
X34770000Y-65880000D01*
X33531668Y-60328332D02*
X33401749Y-59580000D01*
X34936624Y-65180395D02*
X34920000Y-64730000D01*
X33590000Y-62540000D02*
X33463171Y-61890000D01*
X28485249Y-68224751D02*
X28303064Y-68060000D01*
X26900000Y-66940000D02*
X26120000Y-66450000D01*
X29586785Y-68026785D02*
X28830000Y-68292216D01*
X29586785Y-68026785D02*
X30360000Y-67480000D01*
X30360000Y-67480000D02*
X31261537Y-67334328D01*
X28830000Y-68292216D02*
X28485249Y-68224751D01*
X28056929Y-67270000D02*
X27947099Y-67122901D01*
X26120000Y-66450000D02*
X25390000Y-65690000D01*
X28240000Y-67830000D02*
X28303064Y-68060000D01*
X28056929Y-67270000D02*
X28240000Y-67830000D01*
X27947099Y-67122901D02*
X26900000Y-66940000D01*
X30468030Y-68826912D02*
X31775768Y-67947164D01*
D68*
X29620000Y-47460000D02*
X26210000Y-47430000D01*
X32299999Y-49664999D02*
X30660000Y-47774994D01*
X30660000Y-47774994D02*
X29620000Y-47460000D01*
D70*
X29837925Y-71990000D02*
X29070000Y-70000000D01*
X29412522Y-74112522D02*
X29639931Y-73829931D01*
D68*
X33564998Y-51557501D02*
X33599998Y-49665001D01*
X44990000Y-75970000D02*
X44534997Y-74500002D01*
X43500000Y-76400000D02*
X42611250Y-77091250D01*
X37500000Y-77510000D02*
X40200000Y-77883333D01*
X34384710Y-79764710D02*
X35400000Y-77430000D01*
X43264997Y-74500002D02*
X43500000Y-76400000D01*
X35400000Y-77430000D02*
X37500000Y-77510000D01*
X40780000Y-77690000D02*
X42611250Y-77091250D01*
X33880012Y-80620012D02*
X34384710Y-79764710D01*
X33880012Y-80620012D02*
X32970000Y-81520000D01*
X40200000Y-77883333D02*
X40780000Y-77690000D01*
X39150000Y-33800000D02*
X37860000Y-33690000D01*
X37965694Y-37390000D02*
X38034164Y-36784223D01*
X48540000Y-46690000D02*
X48426405Y-43290000D01*
X48380000Y-40600000D02*
X48426405Y-43290000D01*
X37980000Y-80770000D02*
X38340000Y-79840000D01*
X39820000Y-34950000D02*
X39680000Y-34290000D01*
X36390000Y-82350000D02*
X37980000Y-80770000D01*
X37462985Y-33387015D02*
X37331933Y-33020000D01*
X48625517Y-49170000D02*
X48540000Y-46690000D01*
X39570000Y-40740000D02*
X39210000Y-40720000D01*
X32690000Y-86780000D02*
X36390000Y-82350000D01*
X39680000Y-34290000D02*
X39150000Y-33800000D01*
X31339997Y-87180002D02*
X32690000Y-86780000D01*
X38400000Y-36370000D02*
X39310400Y-36150000D01*
X49714458Y-51764458D02*
X49850000Y-51540000D01*
X37331933Y-33020000D02*
X37269901Y-32230000D01*
X49850000Y-51540000D02*
X49850000Y-51100000D01*
X38034164Y-36784223D02*
X38400000Y-36370000D01*
X37269901Y-32230000D02*
X37490000Y-31090000D01*
X41310000Y-40688008D02*
X48380000Y-40600000D01*
X39690000Y-27290000D02*
X40020000Y-26470000D01*
X39710000Y-35430000D02*
X39820000Y-34950000D01*
X49850000Y-51100000D02*
X48600000Y-50020000D01*
X37490000Y-31090000D02*
X39070000Y-29250000D01*
X39310400Y-36150000D02*
X39360000Y-35990000D01*
X39360000Y-35990000D02*
X39710000Y-35430000D01*
X48600000Y-50020000D02*
X48625517Y-49170000D01*
X40020000Y-26470000D02*
X40670000Y-26180000D01*
X37860000Y-33690000D02*
X37462985Y-33387015D01*
X38081228Y-38056589D02*
X37965694Y-37390000D01*
X41310000Y-40688008D02*
X39570000Y-40740000D01*
X45560000Y-58110000D02*
X48020000Y-55150000D01*
X39070000Y-29250000D02*
X39690000Y-27290000D01*
X44770000Y-61050000D02*
X45560000Y-58110000D01*
X48020000Y-55150000D02*
X49714458Y-51764458D01*
X39210000Y-40720000D02*
X38081228Y-38056589D01*
X39815433Y-36940000D02*
X39913146Y-36433146D01*
X38870000Y-80740000D02*
X39420000Y-80050000D01*
X39913146Y-36433146D02*
X40340000Y-35560000D01*
X41940000Y-64680000D02*
X42480000Y-63760000D01*
X40000000Y-38880000D02*
X39772120Y-38210000D01*
X46112026Y-59150000D02*
X46168150Y-58170000D01*
X41170922Y-39039078D02*
X40000000Y-38880000D01*
X46168150Y-58170000D02*
X48957439Y-54945933D01*
X49141322Y-49818469D02*
X49123934Y-47540000D01*
X42480000Y-63760000D02*
X45510000Y-62970000D01*
X50370000Y-50770000D02*
X49141322Y-49818469D01*
X50370000Y-50770000D02*
X50401837Y-51720000D01*
X39849122Y-33470000D02*
X38520001Y-32460000D01*
X32880000Y-87560000D02*
X36290000Y-83510000D01*
X38520001Y-32460000D02*
X40629999Y-29542499D01*
X31339997Y-88450002D02*
X32880000Y-87560000D01*
X41480000Y-39760985D02*
X49433600Y-39790000D01*
X40340000Y-35560000D02*
X40329599Y-34240401D01*
X48927010Y-42949707D02*
X49123934Y-47540000D01*
X39772120Y-38210000D02*
X39815433Y-36940000D01*
X40329599Y-34240401D02*
X39849122Y-33470000D01*
X46112026Y-59150000D02*
X46369617Y-59460383D01*
X48927010Y-42949707D02*
X49433600Y-39790000D01*
X36290000Y-83510000D02*
X38870000Y-80740000D01*
X48957439Y-54945933D02*
X49887612Y-52981970D01*
X49887612Y-52981970D02*
X50401837Y-51720000D01*
X41480000Y-39760985D02*
X41170922Y-39039078D01*
X36914997Y-74500002D02*
X37380000Y-70630000D01*
X36990001Y-68042499D02*
X37380000Y-70630000D01*
D70*
X33818575Y-68125887D02*
X35460000Y-69900000D01*
X35460000Y-69900000D02*
X37380000Y-70630000D01*
D68*
X38570000Y-68350000D02*
X37390000Y-67090000D01*
X38570000Y-68350000D02*
X40480000Y-70060000D01*
D70*
X34124993Y-67868768D02*
X34569904Y-68320096D01*
D68*
X39250000Y-71450000D02*
X40480000Y-70060000D01*
D70*
X36520000Y-67090000D02*
X37390000Y-67090000D01*
X36140000Y-67450000D02*
X36520000Y-67090000D01*
D68*
X31339997Y-84640002D02*
X29540000Y-84560000D01*
X31339997Y-85910002D02*
X32640000Y-85420000D01*
X46840000Y-80280000D02*
X43430000Y-79938371D01*
X48839997Y-80830002D02*
X46840000Y-80280000D01*
X43430000Y-79938371D02*
X35750000Y-78560000D01*
D70*
X34500000Y-69680000D02*
X35470000Y-71210000D01*
X35470000Y-71210000D02*
X35470000Y-71320000D01*
X35644997Y-74500002D02*
X35470000Y-71320000D01*
X33512157Y-68383002D02*
X34500000Y-69680000D01*
X32330000Y-74790000D02*
X32350000Y-76890000D01*
X32290000Y-68560000D02*
X32330000Y-74790000D01*
X32350000Y-76890000D02*
X31339997Y-77020002D01*
X31590000Y-68620000D02*
X32032887Y-68253582D01*
X29490000Y-76376129D02*
X29150000Y-76420000D01*
X29803000Y-76160000D02*
X30560000Y-74750000D01*
X29490000Y-76376129D02*
X29803000Y-76160000D01*
X29150000Y-76420000D02*
X28660000Y-76456762D01*
X31130000Y-72870000D02*
X31590000Y-68620000D01*
X30560000Y-74750000D02*
X31130000Y-72870000D01*
X34374997Y-74500002D02*
X34299187Y-70920000D01*
X33205740Y-68640118D02*
X33588124Y-69121876D01*
X34299187Y-70920000D02*
X33588124Y-69121876D01*
D68*
X50930000Y-50780000D02*
X50944785Y-51900000D01*
X43505352Y-38910000D02*
X49940000Y-39140000D01*
X43505352Y-38910000D02*
X43039998Y-37434998D01*
X49940000Y-39140000D02*
X49940000Y-40560000D01*
X49720000Y-49470000D02*
X49570000Y-43180000D01*
X43850000Y-64380000D02*
X42530000Y-65150000D01*
X42530000Y-65150000D02*
X41880000Y-65970000D01*
X49440000Y-55160000D02*
X50944785Y-51900000D01*
X46750000Y-59110000D02*
X46773824Y-58300000D01*
X49570000Y-43180000D02*
X49940000Y-40560000D01*
X50718108Y-50220000D02*
X50930000Y-50780000D01*
X46773824Y-58300000D02*
X49440000Y-55160000D01*
X50718108Y-50220000D02*
X49720000Y-49470000D01*
X41160000Y-75930000D02*
X40724997Y-74500002D01*
X27369514Y-68064993D02*
X25389998Y-67364994D01*
D70*
X24930000Y-66850000D02*
X25389998Y-67364994D01*
X24690000Y-65130000D02*
X24670000Y-66030000D01*
X25390000Y-63865006D02*
X24690000Y-65130000D01*
X24670000Y-66030000D02*
X24930000Y-66850000D01*
D68*
X27369514Y-68064993D02*
X27710000Y-69080000D01*
D69*
X40030000Y-114859246D02*
X47920000Y-115179729D01*
D70*
X33680000Y-60580000D02*
X33531668Y-60328332D01*
X33680000Y-61030000D02*
X33680000Y-60580000D01*
M02*
