G04 #@! TF.GenerationSoftware,KiCad,Pcbnew,(5.1.2-1)-1*
G04 #@! TF.CreationDate,2023-08-23T15:21:49-04:00*
G04 #@! TF.ProjectId,ESP32_AudioBoard_TouchPanel_Rev2,45535033-325f-4417-9564-696f426f6172,rev?*
G04 #@! TF.SameCoordinates,Original*
G04 #@! TF.FileFunction,Paste,Top*
G04 #@! TF.FilePolarity,Positive*
%FSLAX46Y46*%
G04 Gerber Fmt 4.6, Leading zero omitted, Abs format (unit mm)*
G04 Created by KiCad (PCBNEW (5.1.2-1)-1) date 2023-08-23 15:21:49*
%MOMM*%
%LPD*%
G04 APERTURE LIST*
%ADD10C,0.020000*%
%ADD11C,20.000000*%
G04 APERTURE END LIST*
D10*
G36*
X113357068Y-53944260D02*
G01*
X113745360Y-54001858D01*
X114126138Y-54097238D01*
X114495733Y-54229481D01*
X114850586Y-54397314D01*
X115187280Y-54599121D01*
X115502572Y-54832957D01*
X115793426Y-55096572D01*
X116057041Y-55387426D01*
X116290877Y-55702718D01*
X116492684Y-56039412D01*
X116660517Y-56394265D01*
X116792760Y-56763860D01*
X116888140Y-57144638D01*
X116945738Y-57532930D01*
X116964999Y-57924999D01*
X116964999Y-69924999D01*
X116945738Y-70317068D01*
X116888140Y-70705360D01*
X116792760Y-71086138D01*
X116660517Y-71455733D01*
X116492684Y-71810586D01*
X116290877Y-72147280D01*
X116057041Y-72462572D01*
X115793426Y-72753426D01*
X115502572Y-73017041D01*
X115187280Y-73250877D01*
X114850586Y-73452684D01*
X114495733Y-73620517D01*
X114126138Y-73752760D01*
X113745360Y-73848140D01*
X113357068Y-73905738D01*
X112964999Y-73924999D01*
X100964999Y-73924999D01*
X100572930Y-73905738D01*
X100184638Y-73848140D01*
X99803860Y-73752760D01*
X99434265Y-73620517D01*
X99079412Y-73452684D01*
X98742718Y-73250877D01*
X98427426Y-73017041D01*
X98136572Y-72753426D01*
X97872957Y-72462572D01*
X97639121Y-72147280D01*
X97437314Y-71810586D01*
X97269481Y-71455733D01*
X97137238Y-71086138D01*
X97041858Y-70705360D01*
X96984260Y-70317068D01*
X96964999Y-69924999D01*
X96964999Y-57924999D01*
X96984260Y-57532930D01*
X97041858Y-57144638D01*
X97137238Y-56763860D01*
X97269481Y-56394265D01*
X97437314Y-56039412D01*
X97639121Y-55702718D01*
X97872957Y-55387426D01*
X98136572Y-55096572D01*
X98427426Y-54832957D01*
X98742718Y-54599121D01*
X99079412Y-54397314D01*
X99434265Y-54229481D01*
X99803860Y-54097238D01*
X100184638Y-54001858D01*
X100572930Y-53944260D01*
X100964999Y-53924999D01*
X112964999Y-53924999D01*
X113357068Y-53944260D01*
X113357068Y-53944260D01*
G37*
D11*
X106964999Y-63924999D03*
D10*
G36*
X113357068Y-30944260D02*
G01*
X113745360Y-31001858D01*
X114126138Y-31097238D01*
X114495733Y-31229481D01*
X114850586Y-31397314D01*
X115187280Y-31599121D01*
X115502572Y-31832957D01*
X115793426Y-32096572D01*
X116057041Y-32387426D01*
X116290877Y-32702718D01*
X116492684Y-33039412D01*
X116660517Y-33394265D01*
X116792760Y-33763860D01*
X116888140Y-34144638D01*
X116945738Y-34532930D01*
X116964999Y-34924999D01*
X116964999Y-46924999D01*
X116945738Y-47317068D01*
X116888140Y-47705360D01*
X116792760Y-48086138D01*
X116660517Y-48455733D01*
X116492684Y-48810586D01*
X116290877Y-49147280D01*
X116057041Y-49462572D01*
X115793426Y-49753426D01*
X115502572Y-50017041D01*
X115187280Y-50250877D01*
X114850586Y-50452684D01*
X114495733Y-50620517D01*
X114126138Y-50752760D01*
X113745360Y-50848140D01*
X113357068Y-50905738D01*
X112964999Y-50924999D01*
X100964999Y-50924999D01*
X100572930Y-50905738D01*
X100184638Y-50848140D01*
X99803860Y-50752760D01*
X99434265Y-50620517D01*
X99079412Y-50452684D01*
X98742718Y-50250877D01*
X98427426Y-50017041D01*
X98136572Y-49753426D01*
X97872957Y-49462572D01*
X97639121Y-49147280D01*
X97437314Y-48810586D01*
X97269481Y-48455733D01*
X97137238Y-48086138D01*
X97041858Y-47705360D01*
X96984260Y-47317068D01*
X96964999Y-46924999D01*
X96964999Y-34924999D01*
X96984260Y-34532930D01*
X97041858Y-34144638D01*
X97137238Y-33763860D01*
X97269481Y-33394265D01*
X97437314Y-33039412D01*
X97639121Y-32702718D01*
X97872957Y-32387426D01*
X98136572Y-32096572D01*
X98427426Y-31832957D01*
X98742718Y-31599121D01*
X99079412Y-31397314D01*
X99434265Y-31229481D01*
X99803860Y-31097238D01*
X100184638Y-31001858D01*
X100572930Y-30944260D01*
X100964999Y-30924999D01*
X112964999Y-30924999D01*
X113357068Y-30944260D01*
X113357068Y-30944260D01*
G37*
D11*
X106964999Y-40924999D03*
D10*
G36*
X90357068Y-53944260D02*
G01*
X90745360Y-54001858D01*
X91126138Y-54097238D01*
X91495733Y-54229481D01*
X91850586Y-54397314D01*
X92187280Y-54599121D01*
X92502572Y-54832957D01*
X92793426Y-55096572D01*
X93057041Y-55387426D01*
X93290877Y-55702718D01*
X93492684Y-56039412D01*
X93660517Y-56394265D01*
X93792760Y-56763860D01*
X93888140Y-57144638D01*
X93945738Y-57532930D01*
X93964999Y-57924999D01*
X93964999Y-69924999D01*
X93945738Y-70317068D01*
X93888140Y-70705360D01*
X93792760Y-71086138D01*
X93660517Y-71455733D01*
X93492684Y-71810586D01*
X93290877Y-72147280D01*
X93057041Y-72462572D01*
X92793426Y-72753426D01*
X92502572Y-73017041D01*
X92187280Y-73250877D01*
X91850586Y-73452684D01*
X91495733Y-73620517D01*
X91126138Y-73752760D01*
X90745360Y-73848140D01*
X90357068Y-73905738D01*
X89964999Y-73924999D01*
X77964999Y-73924999D01*
X77572930Y-73905738D01*
X77184638Y-73848140D01*
X76803860Y-73752760D01*
X76434265Y-73620517D01*
X76079412Y-73452684D01*
X75742718Y-73250877D01*
X75427426Y-73017041D01*
X75136572Y-72753426D01*
X74872957Y-72462572D01*
X74639121Y-72147280D01*
X74437314Y-71810586D01*
X74269481Y-71455733D01*
X74137238Y-71086138D01*
X74041858Y-70705360D01*
X73984260Y-70317068D01*
X73964999Y-69924999D01*
X73964999Y-57924999D01*
X73984260Y-57532930D01*
X74041858Y-57144638D01*
X74137238Y-56763860D01*
X74269481Y-56394265D01*
X74437314Y-56039412D01*
X74639121Y-55702718D01*
X74872957Y-55387426D01*
X75136572Y-55096572D01*
X75427426Y-54832957D01*
X75742718Y-54599121D01*
X76079412Y-54397314D01*
X76434265Y-54229481D01*
X76803860Y-54097238D01*
X77184638Y-54001858D01*
X77572930Y-53944260D01*
X77964999Y-53924999D01*
X89964999Y-53924999D01*
X90357068Y-53944260D01*
X90357068Y-53944260D01*
G37*
D11*
X83964999Y-63924999D03*
D10*
G36*
X90357068Y-30944260D02*
G01*
X90745360Y-31001858D01*
X91126138Y-31097238D01*
X91495733Y-31229481D01*
X91850586Y-31397314D01*
X92187280Y-31599121D01*
X92502572Y-31832957D01*
X92793426Y-32096572D01*
X93057041Y-32387426D01*
X93290877Y-32702718D01*
X93492684Y-33039412D01*
X93660517Y-33394265D01*
X93792760Y-33763860D01*
X93888140Y-34144638D01*
X93945738Y-34532930D01*
X93964999Y-34924999D01*
X93964999Y-46924999D01*
X93945738Y-47317068D01*
X93888140Y-47705360D01*
X93792760Y-48086138D01*
X93660517Y-48455733D01*
X93492684Y-48810586D01*
X93290877Y-49147280D01*
X93057041Y-49462572D01*
X92793426Y-49753426D01*
X92502572Y-50017041D01*
X92187280Y-50250877D01*
X91850586Y-50452684D01*
X91495733Y-50620517D01*
X91126138Y-50752760D01*
X90745360Y-50848140D01*
X90357068Y-50905738D01*
X89964999Y-50924999D01*
X77964999Y-50924999D01*
X77572930Y-50905738D01*
X77184638Y-50848140D01*
X76803860Y-50752760D01*
X76434265Y-50620517D01*
X76079412Y-50452684D01*
X75742718Y-50250877D01*
X75427426Y-50017041D01*
X75136572Y-49753426D01*
X74872957Y-49462572D01*
X74639121Y-49147280D01*
X74437314Y-48810586D01*
X74269481Y-48455733D01*
X74137238Y-48086138D01*
X74041858Y-47705360D01*
X73984260Y-47317068D01*
X73964999Y-46924999D01*
X73964999Y-34924999D01*
X73984260Y-34532930D01*
X74041858Y-34144638D01*
X74137238Y-33763860D01*
X74269481Y-33394265D01*
X74437314Y-33039412D01*
X74639121Y-32702718D01*
X74872957Y-32387426D01*
X75136572Y-32096572D01*
X75427426Y-31832957D01*
X75742718Y-31599121D01*
X76079412Y-31397314D01*
X76434265Y-31229481D01*
X76803860Y-31097238D01*
X77184638Y-31001858D01*
X77572930Y-30944260D01*
X77964999Y-30924999D01*
X89964999Y-30924999D01*
X90357068Y-30944260D01*
X90357068Y-30944260D01*
G37*
D11*
X83964999Y-40924999D03*
D10*
G36*
X67357068Y-53944260D02*
G01*
X67745360Y-54001858D01*
X68126138Y-54097238D01*
X68495733Y-54229481D01*
X68850586Y-54397314D01*
X69187280Y-54599121D01*
X69502572Y-54832957D01*
X69793426Y-55096572D01*
X70057041Y-55387426D01*
X70290877Y-55702718D01*
X70492684Y-56039412D01*
X70660517Y-56394265D01*
X70792760Y-56763860D01*
X70888140Y-57144638D01*
X70945738Y-57532930D01*
X70964999Y-57924999D01*
X70964999Y-69924999D01*
X70945738Y-70317068D01*
X70888140Y-70705360D01*
X70792760Y-71086138D01*
X70660517Y-71455733D01*
X70492684Y-71810586D01*
X70290877Y-72147280D01*
X70057041Y-72462572D01*
X69793426Y-72753426D01*
X69502572Y-73017041D01*
X69187280Y-73250877D01*
X68850586Y-73452684D01*
X68495733Y-73620517D01*
X68126138Y-73752760D01*
X67745360Y-73848140D01*
X67357068Y-73905738D01*
X66964999Y-73924999D01*
X54964999Y-73924999D01*
X54572930Y-73905738D01*
X54184638Y-73848140D01*
X53803860Y-73752760D01*
X53434265Y-73620517D01*
X53079412Y-73452684D01*
X52742718Y-73250877D01*
X52427426Y-73017041D01*
X52136572Y-72753426D01*
X51872957Y-72462572D01*
X51639121Y-72147280D01*
X51437314Y-71810586D01*
X51269481Y-71455733D01*
X51137238Y-71086138D01*
X51041858Y-70705360D01*
X50984260Y-70317068D01*
X50964999Y-69924999D01*
X50964999Y-57924999D01*
X50984260Y-57532930D01*
X51041858Y-57144638D01*
X51137238Y-56763860D01*
X51269481Y-56394265D01*
X51437314Y-56039412D01*
X51639121Y-55702718D01*
X51872957Y-55387426D01*
X52136572Y-55096572D01*
X52427426Y-54832957D01*
X52742718Y-54599121D01*
X53079412Y-54397314D01*
X53434265Y-54229481D01*
X53803860Y-54097238D01*
X54184638Y-54001858D01*
X54572930Y-53944260D01*
X54964999Y-53924999D01*
X66964999Y-53924999D01*
X67357068Y-53944260D01*
X67357068Y-53944260D01*
G37*
D11*
X60964999Y-63924999D03*
D10*
G36*
X67357068Y-30944260D02*
G01*
X67745360Y-31001858D01*
X68126138Y-31097238D01*
X68495733Y-31229481D01*
X68850586Y-31397314D01*
X69187280Y-31599121D01*
X69502572Y-31832957D01*
X69793426Y-32096572D01*
X70057041Y-32387426D01*
X70290877Y-32702718D01*
X70492684Y-33039412D01*
X70660517Y-33394265D01*
X70792760Y-33763860D01*
X70888140Y-34144638D01*
X70945738Y-34532930D01*
X70964999Y-34924999D01*
X70964999Y-46924999D01*
X70945738Y-47317068D01*
X70888140Y-47705360D01*
X70792760Y-48086138D01*
X70660517Y-48455733D01*
X70492684Y-48810586D01*
X70290877Y-49147280D01*
X70057041Y-49462572D01*
X69793426Y-49753426D01*
X69502572Y-50017041D01*
X69187280Y-50250877D01*
X68850586Y-50452684D01*
X68495733Y-50620517D01*
X68126138Y-50752760D01*
X67745360Y-50848140D01*
X67357068Y-50905738D01*
X66964999Y-50924999D01*
X54964999Y-50924999D01*
X54572930Y-50905738D01*
X54184638Y-50848140D01*
X53803860Y-50752760D01*
X53434265Y-50620517D01*
X53079412Y-50452684D01*
X52742718Y-50250877D01*
X52427426Y-50017041D01*
X52136572Y-49753426D01*
X51872957Y-49462572D01*
X51639121Y-49147280D01*
X51437314Y-48810586D01*
X51269481Y-48455733D01*
X51137238Y-48086138D01*
X51041858Y-47705360D01*
X50984260Y-47317068D01*
X50964999Y-46924999D01*
X50964999Y-34924999D01*
X50984260Y-34532930D01*
X51041858Y-34144638D01*
X51137238Y-33763860D01*
X51269481Y-33394265D01*
X51437314Y-33039412D01*
X51639121Y-32702718D01*
X51872957Y-32387426D01*
X52136572Y-32096572D01*
X52427426Y-31832957D01*
X52742718Y-31599121D01*
X53079412Y-31397314D01*
X53434265Y-31229481D01*
X53803860Y-31097238D01*
X54184638Y-31001858D01*
X54572930Y-30944260D01*
X54964999Y-30924999D01*
X66964999Y-30924999D01*
X67357068Y-30944260D01*
X67357068Y-30944260D01*
G37*
D11*
X60964999Y-40924999D03*
D10*
G36*
X44357068Y-53944260D02*
G01*
X44745360Y-54001858D01*
X45126138Y-54097238D01*
X45495733Y-54229481D01*
X45850586Y-54397314D01*
X46187280Y-54599121D01*
X46502572Y-54832957D01*
X46793426Y-55096572D01*
X47057041Y-55387426D01*
X47290877Y-55702718D01*
X47492684Y-56039412D01*
X47660517Y-56394265D01*
X47792760Y-56763860D01*
X47888140Y-57144638D01*
X47945738Y-57532930D01*
X47964999Y-57924999D01*
X47964999Y-69924999D01*
X47945738Y-70317068D01*
X47888140Y-70705360D01*
X47792760Y-71086138D01*
X47660517Y-71455733D01*
X47492684Y-71810586D01*
X47290877Y-72147280D01*
X47057041Y-72462572D01*
X46793426Y-72753426D01*
X46502572Y-73017041D01*
X46187280Y-73250877D01*
X45850586Y-73452684D01*
X45495733Y-73620517D01*
X45126138Y-73752760D01*
X44745360Y-73848140D01*
X44357068Y-73905738D01*
X43964999Y-73924999D01*
X31964999Y-73924999D01*
X31572930Y-73905738D01*
X31184638Y-73848140D01*
X30803860Y-73752760D01*
X30434265Y-73620517D01*
X30079412Y-73452684D01*
X29742718Y-73250877D01*
X29427426Y-73017041D01*
X29136572Y-72753426D01*
X28872957Y-72462572D01*
X28639121Y-72147280D01*
X28437314Y-71810586D01*
X28269481Y-71455733D01*
X28137238Y-71086138D01*
X28041858Y-70705360D01*
X27984260Y-70317068D01*
X27964999Y-69924999D01*
X27964999Y-57924999D01*
X27984260Y-57532930D01*
X28041858Y-57144638D01*
X28137238Y-56763860D01*
X28269481Y-56394265D01*
X28437314Y-56039412D01*
X28639121Y-55702718D01*
X28872957Y-55387426D01*
X29136572Y-55096572D01*
X29427426Y-54832957D01*
X29742718Y-54599121D01*
X30079412Y-54397314D01*
X30434265Y-54229481D01*
X30803860Y-54097238D01*
X31184638Y-54001858D01*
X31572930Y-53944260D01*
X31964999Y-53924999D01*
X43964999Y-53924999D01*
X44357068Y-53944260D01*
X44357068Y-53944260D01*
G37*
D11*
X37964999Y-63924999D03*
D10*
G36*
X44357068Y-30944260D02*
G01*
X44745360Y-31001858D01*
X45126138Y-31097238D01*
X45495733Y-31229481D01*
X45850586Y-31397314D01*
X46187280Y-31599121D01*
X46502572Y-31832957D01*
X46793426Y-32096572D01*
X47057041Y-32387426D01*
X47290877Y-32702718D01*
X47492684Y-33039412D01*
X47660517Y-33394265D01*
X47792760Y-33763860D01*
X47888140Y-34144638D01*
X47945738Y-34532930D01*
X47964999Y-34924999D01*
X47964999Y-46924999D01*
X47945738Y-47317068D01*
X47888140Y-47705360D01*
X47792760Y-48086138D01*
X47660517Y-48455733D01*
X47492684Y-48810586D01*
X47290877Y-49147280D01*
X47057041Y-49462572D01*
X46793426Y-49753426D01*
X46502572Y-50017041D01*
X46187280Y-50250877D01*
X45850586Y-50452684D01*
X45495733Y-50620517D01*
X45126138Y-50752760D01*
X44745360Y-50848140D01*
X44357068Y-50905738D01*
X43964999Y-50924999D01*
X31964999Y-50924999D01*
X31572930Y-50905738D01*
X31184638Y-50848140D01*
X30803860Y-50752760D01*
X30434265Y-50620517D01*
X30079412Y-50452684D01*
X29742718Y-50250877D01*
X29427426Y-50017041D01*
X29136572Y-49753426D01*
X28872957Y-49462572D01*
X28639121Y-49147280D01*
X28437314Y-48810586D01*
X28269481Y-48455733D01*
X28137238Y-48086138D01*
X28041858Y-47705360D01*
X27984260Y-47317068D01*
X27964999Y-46924999D01*
X27964999Y-34924999D01*
X27984260Y-34532930D01*
X28041858Y-34144638D01*
X28137238Y-33763860D01*
X28269481Y-33394265D01*
X28437314Y-33039412D01*
X28639121Y-32702718D01*
X28872957Y-32387426D01*
X29136572Y-32096572D01*
X29427426Y-31832957D01*
X29742718Y-31599121D01*
X30079412Y-31397314D01*
X30434265Y-31229481D01*
X30803860Y-31097238D01*
X31184638Y-31001858D01*
X31572930Y-30944260D01*
X31964999Y-30924999D01*
X43964999Y-30924999D01*
X44357068Y-30944260D01*
X44357068Y-30944260D01*
G37*
D11*
X37964999Y-40924999D03*
M02*
