G04 #@! TF.GenerationSoftware,KiCad,Pcbnew,(5.1.2-1)-1*
G04 #@! TF.CreationDate,2023-08-23T15:21:49-04:00*
G04 #@! TF.ProjectId,ESP32_AudioBoard_TouchPanel_Rev2,45535033-325f-4417-9564-696f426f6172,rev?*
G04 #@! TF.SameCoordinates,Original*
G04 #@! TF.FileFunction,Soldermask,Bot*
G04 #@! TF.FilePolarity,Negative*
%FSLAX46Y46*%
G04 Gerber Fmt 4.6, Leading zero omitted, Abs format (unit mm)*
G04 Created by KiCad (PCBNEW (5.1.2-1)-1) date 2023-08-23 15:21:49*
%MOMM*%
%LPD*%
G04 APERTURE LIST*
%ADD10C,0.020000*%
G04 APERTURE END LIST*
D10*
G36*
X76390442Y-25115518D02*
G01*
X76456627Y-25122037D01*
X76626466Y-25173557D01*
X76782991Y-25257222D01*
X76818729Y-25286552D01*
X76920186Y-25369814D01*
X77003448Y-25471271D01*
X77032778Y-25507009D01*
X77116443Y-25663534D01*
X77167963Y-25833373D01*
X77185359Y-26010000D01*
X77167963Y-26186627D01*
X77116443Y-26356466D01*
X77032778Y-26512991D01*
X77003448Y-26548729D01*
X76920186Y-26650186D01*
X76820752Y-26731788D01*
X76782991Y-26762778D01*
X76626466Y-26846443D01*
X76456627Y-26897963D01*
X76390443Y-26904481D01*
X76324260Y-26911000D01*
X76235740Y-26911000D01*
X76169557Y-26904481D01*
X76103373Y-26897963D01*
X75933534Y-26846443D01*
X75777009Y-26762778D01*
X75739248Y-26731788D01*
X75639814Y-26650186D01*
X75556552Y-26548729D01*
X75527222Y-26512991D01*
X75443557Y-26356466D01*
X75392037Y-26186627D01*
X75374641Y-26010000D01*
X75392037Y-25833373D01*
X75443557Y-25663534D01*
X75527222Y-25507009D01*
X75556552Y-25471271D01*
X75639814Y-25369814D01*
X75741271Y-25286552D01*
X75777009Y-25257222D01*
X75933534Y-25173557D01*
X76103373Y-25122037D01*
X76169558Y-25115518D01*
X76235740Y-25109000D01*
X76324260Y-25109000D01*
X76390442Y-25115518D01*
X76390442Y-25115518D01*
G37*
G36*
X73850442Y-25115518D02*
G01*
X73916627Y-25122037D01*
X74086466Y-25173557D01*
X74242991Y-25257222D01*
X74278729Y-25286552D01*
X74380186Y-25369814D01*
X74463448Y-25471271D01*
X74492778Y-25507009D01*
X74576443Y-25663534D01*
X74627963Y-25833373D01*
X74645359Y-26010000D01*
X74627963Y-26186627D01*
X74576443Y-26356466D01*
X74492778Y-26512991D01*
X74463448Y-26548729D01*
X74380186Y-26650186D01*
X74280752Y-26731788D01*
X74242991Y-26762778D01*
X74086466Y-26846443D01*
X73916627Y-26897963D01*
X73850443Y-26904481D01*
X73784260Y-26911000D01*
X73695740Y-26911000D01*
X73629557Y-26904481D01*
X73563373Y-26897963D01*
X73393534Y-26846443D01*
X73237009Y-26762778D01*
X73199248Y-26731788D01*
X73099814Y-26650186D01*
X73016552Y-26548729D01*
X72987222Y-26512991D01*
X72903557Y-26356466D01*
X72852037Y-26186627D01*
X72834641Y-26010000D01*
X72852037Y-25833373D01*
X72903557Y-25663534D01*
X72987222Y-25507009D01*
X73016552Y-25471271D01*
X73099814Y-25369814D01*
X73201271Y-25286552D01*
X73237009Y-25257222D01*
X73393534Y-25173557D01*
X73563373Y-25122037D01*
X73629558Y-25115518D01*
X73695740Y-25109000D01*
X73784260Y-25109000D01*
X73850442Y-25115518D01*
X73850442Y-25115518D01*
G37*
G36*
X71310442Y-25115518D02*
G01*
X71376627Y-25122037D01*
X71546466Y-25173557D01*
X71702991Y-25257222D01*
X71738729Y-25286552D01*
X71840186Y-25369814D01*
X71923448Y-25471271D01*
X71952778Y-25507009D01*
X72036443Y-25663534D01*
X72087963Y-25833373D01*
X72105359Y-26010000D01*
X72087963Y-26186627D01*
X72036443Y-26356466D01*
X71952778Y-26512991D01*
X71923448Y-26548729D01*
X71840186Y-26650186D01*
X71740752Y-26731788D01*
X71702991Y-26762778D01*
X71546466Y-26846443D01*
X71376627Y-26897963D01*
X71310443Y-26904481D01*
X71244260Y-26911000D01*
X71155740Y-26911000D01*
X71089557Y-26904481D01*
X71023373Y-26897963D01*
X70853534Y-26846443D01*
X70697009Y-26762778D01*
X70659248Y-26731788D01*
X70559814Y-26650186D01*
X70476552Y-26548729D01*
X70447222Y-26512991D01*
X70363557Y-26356466D01*
X70312037Y-26186627D01*
X70294641Y-26010000D01*
X70312037Y-25833373D01*
X70363557Y-25663534D01*
X70447222Y-25507009D01*
X70476552Y-25471271D01*
X70559814Y-25369814D01*
X70661271Y-25286552D01*
X70697009Y-25257222D01*
X70853534Y-25173557D01*
X71023373Y-25122037D01*
X71089558Y-25115518D01*
X71155740Y-25109000D01*
X71244260Y-25109000D01*
X71310442Y-25115518D01*
X71310442Y-25115518D01*
G37*
G36*
X68770442Y-25115518D02*
G01*
X68836627Y-25122037D01*
X69006466Y-25173557D01*
X69162991Y-25257222D01*
X69198729Y-25286552D01*
X69300186Y-25369814D01*
X69383448Y-25471271D01*
X69412778Y-25507009D01*
X69496443Y-25663534D01*
X69547963Y-25833373D01*
X69565359Y-26010000D01*
X69547963Y-26186627D01*
X69496443Y-26356466D01*
X69412778Y-26512991D01*
X69383448Y-26548729D01*
X69300186Y-26650186D01*
X69200752Y-26731788D01*
X69162991Y-26762778D01*
X69006466Y-26846443D01*
X68836627Y-26897963D01*
X68770443Y-26904481D01*
X68704260Y-26911000D01*
X68615740Y-26911000D01*
X68549557Y-26904481D01*
X68483373Y-26897963D01*
X68313534Y-26846443D01*
X68157009Y-26762778D01*
X68119248Y-26731788D01*
X68019814Y-26650186D01*
X67936552Y-26548729D01*
X67907222Y-26512991D01*
X67823557Y-26356466D01*
X67772037Y-26186627D01*
X67754641Y-26010000D01*
X67772037Y-25833373D01*
X67823557Y-25663534D01*
X67907222Y-25507009D01*
X67936552Y-25471271D01*
X68019814Y-25369814D01*
X68121271Y-25286552D01*
X68157009Y-25257222D01*
X68313534Y-25173557D01*
X68483373Y-25122037D01*
X68549558Y-25115518D01*
X68615740Y-25109000D01*
X68704260Y-25109000D01*
X68770442Y-25115518D01*
X68770442Y-25115518D01*
G37*
G36*
X98525331Y-23268211D02*
G01*
X98853092Y-23403974D01*
X99148070Y-23601072D01*
X99398928Y-23851930D01*
X99596026Y-24146908D01*
X99731789Y-24474669D01*
X99801000Y-24822616D01*
X99801000Y-25177384D01*
X99731789Y-25525331D01*
X99596026Y-25853092D01*
X99398928Y-26148070D01*
X99148070Y-26398928D01*
X98853092Y-26596026D01*
X98525331Y-26731789D01*
X98177384Y-26801000D01*
X97822616Y-26801000D01*
X97474669Y-26731789D01*
X97146908Y-26596026D01*
X96851930Y-26398928D01*
X96601072Y-26148070D01*
X96403974Y-25853092D01*
X96268211Y-25525331D01*
X96199000Y-25177384D01*
X96199000Y-24822616D01*
X96268211Y-24474669D01*
X96403974Y-24146908D01*
X96601072Y-23851930D01*
X96851930Y-23601072D01*
X97146908Y-23403974D01*
X97474669Y-23268211D01*
X97822616Y-23199000D01*
X98177384Y-23199000D01*
X98525331Y-23268211D01*
X98525331Y-23268211D01*
G37*
G36*
X47525331Y-23268211D02*
G01*
X47853092Y-23403974D01*
X48148070Y-23601072D01*
X48398928Y-23851930D01*
X48596026Y-24146908D01*
X48731789Y-24474669D01*
X48801000Y-24822616D01*
X48801000Y-25177384D01*
X48731789Y-25525331D01*
X48596026Y-25853092D01*
X48398928Y-26148070D01*
X48148070Y-26398928D01*
X47853092Y-26596026D01*
X47525331Y-26731789D01*
X47177384Y-26801000D01*
X46822616Y-26801000D01*
X46474669Y-26731789D01*
X46146908Y-26596026D01*
X45851930Y-26398928D01*
X45601072Y-26148070D01*
X45403974Y-25853092D01*
X45268211Y-25525331D01*
X45199000Y-25177384D01*
X45199000Y-24822616D01*
X45268211Y-24474669D01*
X45403974Y-24146908D01*
X45601072Y-23851930D01*
X45851930Y-23601072D01*
X46146908Y-23403974D01*
X46474669Y-23268211D01*
X46822616Y-23199000D01*
X47177384Y-23199000D01*
X47525331Y-23268211D01*
X47525331Y-23268211D01*
G37*
G36*
X77181000Y-24371000D02*
G01*
X75379000Y-24371000D01*
X75379000Y-22569000D01*
X77181000Y-22569000D01*
X77181000Y-24371000D01*
X77181000Y-24371000D01*
G37*
G36*
X73850442Y-22575518D02*
G01*
X73916627Y-22582037D01*
X74086466Y-22633557D01*
X74242991Y-22717222D01*
X74278729Y-22746552D01*
X74380186Y-22829814D01*
X74463448Y-22931271D01*
X74492778Y-22967009D01*
X74576443Y-23123534D01*
X74627963Y-23293373D01*
X74645359Y-23470000D01*
X74627963Y-23646627D01*
X74576443Y-23816466D01*
X74492778Y-23972991D01*
X74463448Y-24008729D01*
X74380186Y-24110186D01*
X74278729Y-24193448D01*
X74242991Y-24222778D01*
X74086466Y-24306443D01*
X73916627Y-24357963D01*
X73850442Y-24364482D01*
X73784260Y-24371000D01*
X73695740Y-24371000D01*
X73629557Y-24364481D01*
X73563373Y-24357963D01*
X73393534Y-24306443D01*
X73237009Y-24222778D01*
X73201271Y-24193448D01*
X73099814Y-24110186D01*
X73016552Y-24008729D01*
X72987222Y-23972991D01*
X72903557Y-23816466D01*
X72852037Y-23646627D01*
X72834641Y-23470000D01*
X72852037Y-23293373D01*
X72903557Y-23123534D01*
X72987222Y-22967009D01*
X73016552Y-22931271D01*
X73099814Y-22829814D01*
X73201271Y-22746552D01*
X73237009Y-22717222D01*
X73393534Y-22633557D01*
X73563373Y-22582037D01*
X73629557Y-22575519D01*
X73695740Y-22569000D01*
X73784260Y-22569000D01*
X73850442Y-22575518D01*
X73850442Y-22575518D01*
G37*
G36*
X71310442Y-22575518D02*
G01*
X71376627Y-22582037D01*
X71546466Y-22633557D01*
X71702991Y-22717222D01*
X71738729Y-22746552D01*
X71840186Y-22829814D01*
X71923448Y-22931271D01*
X71952778Y-22967009D01*
X72036443Y-23123534D01*
X72087963Y-23293373D01*
X72105359Y-23470000D01*
X72087963Y-23646627D01*
X72036443Y-23816466D01*
X71952778Y-23972991D01*
X71923448Y-24008729D01*
X71840186Y-24110186D01*
X71738729Y-24193448D01*
X71702991Y-24222778D01*
X71546466Y-24306443D01*
X71376627Y-24357963D01*
X71310442Y-24364482D01*
X71244260Y-24371000D01*
X71155740Y-24371000D01*
X71089557Y-24364481D01*
X71023373Y-24357963D01*
X70853534Y-24306443D01*
X70697009Y-24222778D01*
X70661271Y-24193448D01*
X70559814Y-24110186D01*
X70476552Y-24008729D01*
X70447222Y-23972991D01*
X70363557Y-23816466D01*
X70312037Y-23646627D01*
X70294641Y-23470000D01*
X70312037Y-23293373D01*
X70363557Y-23123534D01*
X70447222Y-22967009D01*
X70476552Y-22931271D01*
X70559814Y-22829814D01*
X70661271Y-22746552D01*
X70697009Y-22717222D01*
X70853534Y-22633557D01*
X71023373Y-22582037D01*
X71089557Y-22575519D01*
X71155740Y-22569000D01*
X71244260Y-22569000D01*
X71310442Y-22575518D01*
X71310442Y-22575518D01*
G37*
G36*
X68770442Y-22575518D02*
G01*
X68836627Y-22582037D01*
X69006466Y-22633557D01*
X69162991Y-22717222D01*
X69198729Y-22746552D01*
X69300186Y-22829814D01*
X69383448Y-22931271D01*
X69412778Y-22967009D01*
X69496443Y-23123534D01*
X69547963Y-23293373D01*
X69565359Y-23470000D01*
X69547963Y-23646627D01*
X69496443Y-23816466D01*
X69412778Y-23972991D01*
X69383448Y-24008729D01*
X69300186Y-24110186D01*
X69198729Y-24193448D01*
X69162991Y-24222778D01*
X69006466Y-24306443D01*
X68836627Y-24357963D01*
X68770442Y-24364482D01*
X68704260Y-24371000D01*
X68615740Y-24371000D01*
X68549557Y-24364481D01*
X68483373Y-24357963D01*
X68313534Y-24306443D01*
X68157009Y-24222778D01*
X68121271Y-24193448D01*
X68019814Y-24110186D01*
X67936552Y-24008729D01*
X67907222Y-23972991D01*
X67823557Y-23816466D01*
X67772037Y-23646627D01*
X67754641Y-23470000D01*
X67772037Y-23293373D01*
X67823557Y-23123534D01*
X67907222Y-22967009D01*
X67936552Y-22931271D01*
X68019814Y-22829814D01*
X68121271Y-22746552D01*
X68157009Y-22717222D01*
X68313534Y-22633557D01*
X68483373Y-22582037D01*
X68549557Y-22575519D01*
X68615740Y-22569000D01*
X68704260Y-22569000D01*
X68770442Y-22575518D01*
X68770442Y-22575518D01*
G37*
M02*
