G04 #@! TF.GenerationSoftware,KiCad,Pcbnew,(5.1.2-1)-1*
G04 #@! TF.CreationDate,2023-08-23T14:56:14-04:00*
G04 #@! TF.ProjectId,ESP32_AudioBoard_Rev2,45535033-325f-4417-9564-696f426f6172,rev?*
G04 #@! TF.SameCoordinates,Original*
G04 #@! TF.FileFunction,Copper,L1,Top*
G04 #@! TF.FilePolarity,Positive*
%FSLAX46Y46*%
G04 Gerber Fmt 4.6, Leading zero omitted, Abs format (unit mm)*
G04 Created by KiCad (PCBNEW (5.1.2-1)-1) date 2023-08-23 14:56:14*
%MOMM*%
%LPD*%
G04 APERTURE LIST*
%ADD10O,1.700000X1.700000*%
%ADD11R,1.700000X1.700000*%
%ADD12C,0.150000*%
%ADD13C,0.600000*%
%ADD14C,1.150000*%
%ADD15C,0.500000*%
%ADD16C,2.400000*%
%ADD17R,2.400000X2.400000*%
%ADD18R,1.800000X1.800000*%
%ADD19C,1.800000*%
%ADD20O,2.720000X3.240000*%
%ADD21C,4.000000*%
%ADD22R,4.000000X4.000000*%
%ADD23C,1.450000*%
%ADD24R,1.450000X1.450000*%
%ADD25R,1.550000X1.300000*%
%ADD26O,2.000000X1.700000*%
%ADD27C,1.700000*%
%ADD28O,1.600000X1.600000*%
%ADD29R,1.600000X1.600000*%
%ADD30R,5.000000X5.000000*%
%ADD31R,2.000000X0.900000*%
%ADD32R,0.900000X2.000000*%
%ADD33C,1.600000*%
%ADD34C,0.800000*%
%ADD35C,0.812800*%
%ADD36C,0.406400*%
G04 APERTURE END LIST*
D10*
X19830000Y-54010000D03*
X22370000Y-54010000D03*
X19830000Y-56550000D03*
X22370000Y-56550000D03*
X19830000Y-59090000D03*
X22370000Y-59090000D03*
X19830000Y-61630000D03*
D11*
X22370000Y-61630000D03*
D10*
X16540000Y-96690000D03*
D11*
X14000000Y-96690000D03*
D12*
G36*
X18789703Y-34800722D02*
G01*
X18804264Y-34802882D01*
X18818543Y-34806459D01*
X18832403Y-34811418D01*
X18845710Y-34817712D01*
X18858336Y-34825280D01*
X18870159Y-34834048D01*
X18881066Y-34843934D01*
X18890952Y-34854841D01*
X18899720Y-34866664D01*
X18907288Y-34879290D01*
X18913582Y-34892597D01*
X18918541Y-34906457D01*
X18922118Y-34920736D01*
X18924278Y-34935297D01*
X18925000Y-34950000D01*
X18925000Y-36600000D01*
X18924278Y-36614703D01*
X18922118Y-36629264D01*
X18918541Y-36643543D01*
X18913582Y-36657403D01*
X18907288Y-36670710D01*
X18899720Y-36683336D01*
X18890952Y-36695159D01*
X18881066Y-36706066D01*
X18870159Y-36715952D01*
X18858336Y-36724720D01*
X18845710Y-36732288D01*
X18832403Y-36738582D01*
X18818543Y-36743541D01*
X18804264Y-36747118D01*
X18789703Y-36749278D01*
X18775000Y-36750000D01*
X18475000Y-36750000D01*
X18460297Y-36749278D01*
X18445736Y-36747118D01*
X18431457Y-36743541D01*
X18417597Y-36738582D01*
X18404290Y-36732288D01*
X18391664Y-36724720D01*
X18379841Y-36715952D01*
X18368934Y-36706066D01*
X18359048Y-36695159D01*
X18350280Y-36683336D01*
X18342712Y-36670710D01*
X18336418Y-36657403D01*
X18331459Y-36643543D01*
X18327882Y-36629264D01*
X18325722Y-36614703D01*
X18325000Y-36600000D01*
X18325000Y-34950000D01*
X18325722Y-34935297D01*
X18327882Y-34920736D01*
X18331459Y-34906457D01*
X18336418Y-34892597D01*
X18342712Y-34879290D01*
X18350280Y-34866664D01*
X18359048Y-34854841D01*
X18368934Y-34843934D01*
X18379841Y-34834048D01*
X18391664Y-34825280D01*
X18404290Y-34817712D01*
X18417597Y-34811418D01*
X18431457Y-34806459D01*
X18445736Y-34802882D01*
X18460297Y-34800722D01*
X18475000Y-34800000D01*
X18775000Y-34800000D01*
X18789703Y-34800722D01*
X18789703Y-34800722D01*
G37*
D13*
X18625000Y-35775000D03*
D12*
G36*
X20059703Y-34800722D02*
G01*
X20074264Y-34802882D01*
X20088543Y-34806459D01*
X20102403Y-34811418D01*
X20115710Y-34817712D01*
X20128336Y-34825280D01*
X20140159Y-34834048D01*
X20151066Y-34843934D01*
X20160952Y-34854841D01*
X20169720Y-34866664D01*
X20177288Y-34879290D01*
X20183582Y-34892597D01*
X20188541Y-34906457D01*
X20192118Y-34920736D01*
X20194278Y-34935297D01*
X20195000Y-34950000D01*
X20195000Y-36600000D01*
X20194278Y-36614703D01*
X20192118Y-36629264D01*
X20188541Y-36643543D01*
X20183582Y-36657403D01*
X20177288Y-36670710D01*
X20169720Y-36683336D01*
X20160952Y-36695159D01*
X20151066Y-36706066D01*
X20140159Y-36715952D01*
X20128336Y-36724720D01*
X20115710Y-36732288D01*
X20102403Y-36738582D01*
X20088543Y-36743541D01*
X20074264Y-36747118D01*
X20059703Y-36749278D01*
X20045000Y-36750000D01*
X19745000Y-36750000D01*
X19730297Y-36749278D01*
X19715736Y-36747118D01*
X19701457Y-36743541D01*
X19687597Y-36738582D01*
X19674290Y-36732288D01*
X19661664Y-36724720D01*
X19649841Y-36715952D01*
X19638934Y-36706066D01*
X19629048Y-36695159D01*
X19620280Y-36683336D01*
X19612712Y-36670710D01*
X19606418Y-36657403D01*
X19601459Y-36643543D01*
X19597882Y-36629264D01*
X19595722Y-36614703D01*
X19595000Y-36600000D01*
X19595000Y-34950000D01*
X19595722Y-34935297D01*
X19597882Y-34920736D01*
X19601459Y-34906457D01*
X19606418Y-34892597D01*
X19612712Y-34879290D01*
X19620280Y-34866664D01*
X19629048Y-34854841D01*
X19638934Y-34843934D01*
X19649841Y-34834048D01*
X19661664Y-34825280D01*
X19674290Y-34817712D01*
X19687597Y-34811418D01*
X19701457Y-34806459D01*
X19715736Y-34802882D01*
X19730297Y-34800722D01*
X19745000Y-34800000D01*
X20045000Y-34800000D01*
X20059703Y-34800722D01*
X20059703Y-34800722D01*
G37*
D13*
X19895000Y-35775000D03*
D12*
G36*
X21329703Y-34800722D02*
G01*
X21344264Y-34802882D01*
X21358543Y-34806459D01*
X21372403Y-34811418D01*
X21385710Y-34817712D01*
X21398336Y-34825280D01*
X21410159Y-34834048D01*
X21421066Y-34843934D01*
X21430952Y-34854841D01*
X21439720Y-34866664D01*
X21447288Y-34879290D01*
X21453582Y-34892597D01*
X21458541Y-34906457D01*
X21462118Y-34920736D01*
X21464278Y-34935297D01*
X21465000Y-34950000D01*
X21465000Y-36600000D01*
X21464278Y-36614703D01*
X21462118Y-36629264D01*
X21458541Y-36643543D01*
X21453582Y-36657403D01*
X21447288Y-36670710D01*
X21439720Y-36683336D01*
X21430952Y-36695159D01*
X21421066Y-36706066D01*
X21410159Y-36715952D01*
X21398336Y-36724720D01*
X21385710Y-36732288D01*
X21372403Y-36738582D01*
X21358543Y-36743541D01*
X21344264Y-36747118D01*
X21329703Y-36749278D01*
X21315000Y-36750000D01*
X21015000Y-36750000D01*
X21000297Y-36749278D01*
X20985736Y-36747118D01*
X20971457Y-36743541D01*
X20957597Y-36738582D01*
X20944290Y-36732288D01*
X20931664Y-36724720D01*
X20919841Y-36715952D01*
X20908934Y-36706066D01*
X20899048Y-36695159D01*
X20890280Y-36683336D01*
X20882712Y-36670710D01*
X20876418Y-36657403D01*
X20871459Y-36643543D01*
X20867882Y-36629264D01*
X20865722Y-36614703D01*
X20865000Y-36600000D01*
X20865000Y-34950000D01*
X20865722Y-34935297D01*
X20867882Y-34920736D01*
X20871459Y-34906457D01*
X20876418Y-34892597D01*
X20882712Y-34879290D01*
X20890280Y-34866664D01*
X20899048Y-34854841D01*
X20908934Y-34843934D01*
X20919841Y-34834048D01*
X20931664Y-34825280D01*
X20944290Y-34817712D01*
X20957597Y-34811418D01*
X20971457Y-34806459D01*
X20985736Y-34802882D01*
X21000297Y-34800722D01*
X21015000Y-34800000D01*
X21315000Y-34800000D01*
X21329703Y-34800722D01*
X21329703Y-34800722D01*
G37*
D13*
X21165000Y-35775000D03*
D12*
G36*
X22599703Y-34800722D02*
G01*
X22614264Y-34802882D01*
X22628543Y-34806459D01*
X22642403Y-34811418D01*
X22655710Y-34817712D01*
X22668336Y-34825280D01*
X22680159Y-34834048D01*
X22691066Y-34843934D01*
X22700952Y-34854841D01*
X22709720Y-34866664D01*
X22717288Y-34879290D01*
X22723582Y-34892597D01*
X22728541Y-34906457D01*
X22732118Y-34920736D01*
X22734278Y-34935297D01*
X22735000Y-34950000D01*
X22735000Y-36600000D01*
X22734278Y-36614703D01*
X22732118Y-36629264D01*
X22728541Y-36643543D01*
X22723582Y-36657403D01*
X22717288Y-36670710D01*
X22709720Y-36683336D01*
X22700952Y-36695159D01*
X22691066Y-36706066D01*
X22680159Y-36715952D01*
X22668336Y-36724720D01*
X22655710Y-36732288D01*
X22642403Y-36738582D01*
X22628543Y-36743541D01*
X22614264Y-36747118D01*
X22599703Y-36749278D01*
X22585000Y-36750000D01*
X22285000Y-36750000D01*
X22270297Y-36749278D01*
X22255736Y-36747118D01*
X22241457Y-36743541D01*
X22227597Y-36738582D01*
X22214290Y-36732288D01*
X22201664Y-36724720D01*
X22189841Y-36715952D01*
X22178934Y-36706066D01*
X22169048Y-36695159D01*
X22160280Y-36683336D01*
X22152712Y-36670710D01*
X22146418Y-36657403D01*
X22141459Y-36643543D01*
X22137882Y-36629264D01*
X22135722Y-36614703D01*
X22135000Y-36600000D01*
X22135000Y-34950000D01*
X22135722Y-34935297D01*
X22137882Y-34920736D01*
X22141459Y-34906457D01*
X22146418Y-34892597D01*
X22152712Y-34879290D01*
X22160280Y-34866664D01*
X22169048Y-34854841D01*
X22178934Y-34843934D01*
X22189841Y-34834048D01*
X22201664Y-34825280D01*
X22214290Y-34817712D01*
X22227597Y-34811418D01*
X22241457Y-34806459D01*
X22255736Y-34802882D01*
X22270297Y-34800722D01*
X22285000Y-34800000D01*
X22585000Y-34800000D01*
X22599703Y-34800722D01*
X22599703Y-34800722D01*
G37*
D13*
X22435000Y-35775000D03*
D12*
G36*
X22599703Y-39750722D02*
G01*
X22614264Y-39752882D01*
X22628543Y-39756459D01*
X22642403Y-39761418D01*
X22655710Y-39767712D01*
X22668336Y-39775280D01*
X22680159Y-39784048D01*
X22691066Y-39793934D01*
X22700952Y-39804841D01*
X22709720Y-39816664D01*
X22717288Y-39829290D01*
X22723582Y-39842597D01*
X22728541Y-39856457D01*
X22732118Y-39870736D01*
X22734278Y-39885297D01*
X22735000Y-39900000D01*
X22735000Y-41550000D01*
X22734278Y-41564703D01*
X22732118Y-41579264D01*
X22728541Y-41593543D01*
X22723582Y-41607403D01*
X22717288Y-41620710D01*
X22709720Y-41633336D01*
X22700952Y-41645159D01*
X22691066Y-41656066D01*
X22680159Y-41665952D01*
X22668336Y-41674720D01*
X22655710Y-41682288D01*
X22642403Y-41688582D01*
X22628543Y-41693541D01*
X22614264Y-41697118D01*
X22599703Y-41699278D01*
X22585000Y-41700000D01*
X22285000Y-41700000D01*
X22270297Y-41699278D01*
X22255736Y-41697118D01*
X22241457Y-41693541D01*
X22227597Y-41688582D01*
X22214290Y-41682288D01*
X22201664Y-41674720D01*
X22189841Y-41665952D01*
X22178934Y-41656066D01*
X22169048Y-41645159D01*
X22160280Y-41633336D01*
X22152712Y-41620710D01*
X22146418Y-41607403D01*
X22141459Y-41593543D01*
X22137882Y-41579264D01*
X22135722Y-41564703D01*
X22135000Y-41550000D01*
X22135000Y-39900000D01*
X22135722Y-39885297D01*
X22137882Y-39870736D01*
X22141459Y-39856457D01*
X22146418Y-39842597D01*
X22152712Y-39829290D01*
X22160280Y-39816664D01*
X22169048Y-39804841D01*
X22178934Y-39793934D01*
X22189841Y-39784048D01*
X22201664Y-39775280D01*
X22214290Y-39767712D01*
X22227597Y-39761418D01*
X22241457Y-39756459D01*
X22255736Y-39752882D01*
X22270297Y-39750722D01*
X22285000Y-39750000D01*
X22585000Y-39750000D01*
X22599703Y-39750722D01*
X22599703Y-39750722D01*
G37*
D13*
X22435000Y-40725000D03*
D12*
G36*
X21329703Y-39750722D02*
G01*
X21344264Y-39752882D01*
X21358543Y-39756459D01*
X21372403Y-39761418D01*
X21385710Y-39767712D01*
X21398336Y-39775280D01*
X21410159Y-39784048D01*
X21421066Y-39793934D01*
X21430952Y-39804841D01*
X21439720Y-39816664D01*
X21447288Y-39829290D01*
X21453582Y-39842597D01*
X21458541Y-39856457D01*
X21462118Y-39870736D01*
X21464278Y-39885297D01*
X21465000Y-39900000D01*
X21465000Y-41550000D01*
X21464278Y-41564703D01*
X21462118Y-41579264D01*
X21458541Y-41593543D01*
X21453582Y-41607403D01*
X21447288Y-41620710D01*
X21439720Y-41633336D01*
X21430952Y-41645159D01*
X21421066Y-41656066D01*
X21410159Y-41665952D01*
X21398336Y-41674720D01*
X21385710Y-41682288D01*
X21372403Y-41688582D01*
X21358543Y-41693541D01*
X21344264Y-41697118D01*
X21329703Y-41699278D01*
X21315000Y-41700000D01*
X21015000Y-41700000D01*
X21000297Y-41699278D01*
X20985736Y-41697118D01*
X20971457Y-41693541D01*
X20957597Y-41688582D01*
X20944290Y-41682288D01*
X20931664Y-41674720D01*
X20919841Y-41665952D01*
X20908934Y-41656066D01*
X20899048Y-41645159D01*
X20890280Y-41633336D01*
X20882712Y-41620710D01*
X20876418Y-41607403D01*
X20871459Y-41593543D01*
X20867882Y-41579264D01*
X20865722Y-41564703D01*
X20865000Y-41550000D01*
X20865000Y-39900000D01*
X20865722Y-39885297D01*
X20867882Y-39870736D01*
X20871459Y-39856457D01*
X20876418Y-39842597D01*
X20882712Y-39829290D01*
X20890280Y-39816664D01*
X20899048Y-39804841D01*
X20908934Y-39793934D01*
X20919841Y-39784048D01*
X20931664Y-39775280D01*
X20944290Y-39767712D01*
X20957597Y-39761418D01*
X20971457Y-39756459D01*
X20985736Y-39752882D01*
X21000297Y-39750722D01*
X21015000Y-39750000D01*
X21315000Y-39750000D01*
X21329703Y-39750722D01*
X21329703Y-39750722D01*
G37*
D13*
X21165000Y-40725000D03*
D12*
G36*
X20059703Y-39750722D02*
G01*
X20074264Y-39752882D01*
X20088543Y-39756459D01*
X20102403Y-39761418D01*
X20115710Y-39767712D01*
X20128336Y-39775280D01*
X20140159Y-39784048D01*
X20151066Y-39793934D01*
X20160952Y-39804841D01*
X20169720Y-39816664D01*
X20177288Y-39829290D01*
X20183582Y-39842597D01*
X20188541Y-39856457D01*
X20192118Y-39870736D01*
X20194278Y-39885297D01*
X20195000Y-39900000D01*
X20195000Y-41550000D01*
X20194278Y-41564703D01*
X20192118Y-41579264D01*
X20188541Y-41593543D01*
X20183582Y-41607403D01*
X20177288Y-41620710D01*
X20169720Y-41633336D01*
X20160952Y-41645159D01*
X20151066Y-41656066D01*
X20140159Y-41665952D01*
X20128336Y-41674720D01*
X20115710Y-41682288D01*
X20102403Y-41688582D01*
X20088543Y-41693541D01*
X20074264Y-41697118D01*
X20059703Y-41699278D01*
X20045000Y-41700000D01*
X19745000Y-41700000D01*
X19730297Y-41699278D01*
X19715736Y-41697118D01*
X19701457Y-41693541D01*
X19687597Y-41688582D01*
X19674290Y-41682288D01*
X19661664Y-41674720D01*
X19649841Y-41665952D01*
X19638934Y-41656066D01*
X19629048Y-41645159D01*
X19620280Y-41633336D01*
X19612712Y-41620710D01*
X19606418Y-41607403D01*
X19601459Y-41593543D01*
X19597882Y-41579264D01*
X19595722Y-41564703D01*
X19595000Y-41550000D01*
X19595000Y-39900000D01*
X19595722Y-39885297D01*
X19597882Y-39870736D01*
X19601459Y-39856457D01*
X19606418Y-39842597D01*
X19612712Y-39829290D01*
X19620280Y-39816664D01*
X19629048Y-39804841D01*
X19638934Y-39793934D01*
X19649841Y-39784048D01*
X19661664Y-39775280D01*
X19674290Y-39767712D01*
X19687597Y-39761418D01*
X19701457Y-39756459D01*
X19715736Y-39752882D01*
X19730297Y-39750722D01*
X19745000Y-39750000D01*
X20045000Y-39750000D01*
X20059703Y-39750722D01*
X20059703Y-39750722D01*
G37*
D13*
X19895000Y-40725000D03*
D12*
G36*
X18789703Y-39750722D02*
G01*
X18804264Y-39752882D01*
X18818543Y-39756459D01*
X18832403Y-39761418D01*
X18845710Y-39767712D01*
X18858336Y-39775280D01*
X18870159Y-39784048D01*
X18881066Y-39793934D01*
X18890952Y-39804841D01*
X18899720Y-39816664D01*
X18907288Y-39829290D01*
X18913582Y-39842597D01*
X18918541Y-39856457D01*
X18922118Y-39870736D01*
X18924278Y-39885297D01*
X18925000Y-39900000D01*
X18925000Y-41550000D01*
X18924278Y-41564703D01*
X18922118Y-41579264D01*
X18918541Y-41593543D01*
X18913582Y-41607403D01*
X18907288Y-41620710D01*
X18899720Y-41633336D01*
X18890952Y-41645159D01*
X18881066Y-41656066D01*
X18870159Y-41665952D01*
X18858336Y-41674720D01*
X18845710Y-41682288D01*
X18832403Y-41688582D01*
X18818543Y-41693541D01*
X18804264Y-41697118D01*
X18789703Y-41699278D01*
X18775000Y-41700000D01*
X18475000Y-41700000D01*
X18460297Y-41699278D01*
X18445736Y-41697118D01*
X18431457Y-41693541D01*
X18417597Y-41688582D01*
X18404290Y-41682288D01*
X18391664Y-41674720D01*
X18379841Y-41665952D01*
X18368934Y-41656066D01*
X18359048Y-41645159D01*
X18350280Y-41633336D01*
X18342712Y-41620710D01*
X18336418Y-41607403D01*
X18331459Y-41593543D01*
X18327882Y-41579264D01*
X18325722Y-41564703D01*
X18325000Y-41550000D01*
X18325000Y-39900000D01*
X18325722Y-39885297D01*
X18327882Y-39870736D01*
X18331459Y-39856457D01*
X18336418Y-39842597D01*
X18342712Y-39829290D01*
X18350280Y-39816664D01*
X18359048Y-39804841D01*
X18368934Y-39793934D01*
X18379841Y-39784048D01*
X18391664Y-39775280D01*
X18404290Y-39767712D01*
X18417597Y-39761418D01*
X18431457Y-39756459D01*
X18445736Y-39752882D01*
X18460297Y-39750722D01*
X18475000Y-39750000D01*
X18775000Y-39750000D01*
X18789703Y-39750722D01*
X18789703Y-39750722D01*
G37*
D13*
X18625000Y-40725000D03*
D10*
X32850000Y-22090000D03*
D11*
X32850000Y-24630000D03*
D12*
G36*
X16974505Y-34151204D02*
G01*
X16998773Y-34154804D01*
X17022572Y-34160765D01*
X17045671Y-34169030D01*
X17067850Y-34179520D01*
X17088893Y-34192132D01*
X17108599Y-34206747D01*
X17126777Y-34223223D01*
X17143253Y-34241401D01*
X17157868Y-34261107D01*
X17170480Y-34282150D01*
X17180970Y-34304329D01*
X17189235Y-34327428D01*
X17195196Y-34351227D01*
X17198796Y-34375495D01*
X17200000Y-34399999D01*
X17200000Y-35050001D01*
X17198796Y-35074505D01*
X17195196Y-35098773D01*
X17189235Y-35122572D01*
X17180970Y-35145671D01*
X17170480Y-35167850D01*
X17157868Y-35188893D01*
X17143253Y-35208599D01*
X17126777Y-35226777D01*
X17108599Y-35243253D01*
X17088893Y-35257868D01*
X17067850Y-35270480D01*
X17045671Y-35280970D01*
X17022572Y-35289235D01*
X16998773Y-35295196D01*
X16974505Y-35298796D01*
X16950001Y-35300000D01*
X16049999Y-35300000D01*
X16025495Y-35298796D01*
X16001227Y-35295196D01*
X15977428Y-35289235D01*
X15954329Y-35280970D01*
X15932150Y-35270480D01*
X15911107Y-35257868D01*
X15891401Y-35243253D01*
X15873223Y-35226777D01*
X15856747Y-35208599D01*
X15842132Y-35188893D01*
X15829520Y-35167850D01*
X15819030Y-35145671D01*
X15810765Y-35122572D01*
X15804804Y-35098773D01*
X15801204Y-35074505D01*
X15800000Y-35050001D01*
X15800000Y-34399999D01*
X15801204Y-34375495D01*
X15804804Y-34351227D01*
X15810765Y-34327428D01*
X15819030Y-34304329D01*
X15829520Y-34282150D01*
X15842132Y-34261107D01*
X15856747Y-34241401D01*
X15873223Y-34223223D01*
X15891401Y-34206747D01*
X15911107Y-34192132D01*
X15932150Y-34179520D01*
X15954329Y-34169030D01*
X15977428Y-34160765D01*
X16001227Y-34154804D01*
X16025495Y-34151204D01*
X16049999Y-34150000D01*
X16950001Y-34150000D01*
X16974505Y-34151204D01*
X16974505Y-34151204D01*
G37*
D14*
X16500000Y-34725000D03*
D12*
G36*
X16974505Y-36201204D02*
G01*
X16998773Y-36204804D01*
X17022572Y-36210765D01*
X17045671Y-36219030D01*
X17067850Y-36229520D01*
X17088893Y-36242132D01*
X17108599Y-36256747D01*
X17126777Y-36273223D01*
X17143253Y-36291401D01*
X17157868Y-36311107D01*
X17170480Y-36332150D01*
X17180970Y-36354329D01*
X17189235Y-36377428D01*
X17195196Y-36401227D01*
X17198796Y-36425495D01*
X17200000Y-36449999D01*
X17200000Y-37100001D01*
X17198796Y-37124505D01*
X17195196Y-37148773D01*
X17189235Y-37172572D01*
X17180970Y-37195671D01*
X17170480Y-37217850D01*
X17157868Y-37238893D01*
X17143253Y-37258599D01*
X17126777Y-37276777D01*
X17108599Y-37293253D01*
X17088893Y-37307868D01*
X17067850Y-37320480D01*
X17045671Y-37330970D01*
X17022572Y-37339235D01*
X16998773Y-37345196D01*
X16974505Y-37348796D01*
X16950001Y-37350000D01*
X16049999Y-37350000D01*
X16025495Y-37348796D01*
X16001227Y-37345196D01*
X15977428Y-37339235D01*
X15954329Y-37330970D01*
X15932150Y-37320480D01*
X15911107Y-37307868D01*
X15891401Y-37293253D01*
X15873223Y-37276777D01*
X15856747Y-37258599D01*
X15842132Y-37238893D01*
X15829520Y-37217850D01*
X15819030Y-37195671D01*
X15810765Y-37172572D01*
X15804804Y-37148773D01*
X15801204Y-37124505D01*
X15800000Y-37100001D01*
X15800000Y-36449999D01*
X15801204Y-36425495D01*
X15804804Y-36401227D01*
X15810765Y-36377428D01*
X15819030Y-36354329D01*
X15829520Y-36332150D01*
X15842132Y-36311107D01*
X15856747Y-36291401D01*
X15873223Y-36273223D01*
X15891401Y-36256747D01*
X15911107Y-36242132D01*
X15932150Y-36229520D01*
X15954329Y-36219030D01*
X15977428Y-36210765D01*
X16001227Y-36204804D01*
X16025495Y-36201204D01*
X16049999Y-36200000D01*
X16950001Y-36200000D01*
X16974505Y-36201204D01*
X16974505Y-36201204D01*
G37*
D14*
X16500000Y-36775000D03*
D12*
G36*
X23164505Y-32281204D02*
G01*
X23188773Y-32284804D01*
X23212572Y-32290765D01*
X23235671Y-32299030D01*
X23257850Y-32309520D01*
X23278893Y-32322132D01*
X23298599Y-32336747D01*
X23316777Y-32353223D01*
X23333253Y-32371401D01*
X23347868Y-32391107D01*
X23360480Y-32412150D01*
X23370970Y-32434329D01*
X23379235Y-32457428D01*
X23385196Y-32481227D01*
X23388796Y-32505495D01*
X23390000Y-32529999D01*
X23390000Y-33430001D01*
X23388796Y-33454505D01*
X23385196Y-33478773D01*
X23379235Y-33502572D01*
X23370970Y-33525671D01*
X23360480Y-33547850D01*
X23347868Y-33568893D01*
X23333253Y-33588599D01*
X23316777Y-33606777D01*
X23298599Y-33623253D01*
X23278893Y-33637868D01*
X23257850Y-33650480D01*
X23235671Y-33660970D01*
X23212572Y-33669235D01*
X23188773Y-33675196D01*
X23164505Y-33678796D01*
X23140001Y-33680000D01*
X22489999Y-33680000D01*
X22465495Y-33678796D01*
X22441227Y-33675196D01*
X22417428Y-33669235D01*
X22394329Y-33660970D01*
X22372150Y-33650480D01*
X22351107Y-33637868D01*
X22331401Y-33623253D01*
X22313223Y-33606777D01*
X22296747Y-33588599D01*
X22282132Y-33568893D01*
X22269520Y-33547850D01*
X22259030Y-33525671D01*
X22250765Y-33502572D01*
X22244804Y-33478773D01*
X22241204Y-33454505D01*
X22240000Y-33430001D01*
X22240000Y-32529999D01*
X22241204Y-32505495D01*
X22244804Y-32481227D01*
X22250765Y-32457428D01*
X22259030Y-32434329D01*
X22269520Y-32412150D01*
X22282132Y-32391107D01*
X22296747Y-32371401D01*
X22313223Y-32353223D01*
X22331401Y-32336747D01*
X22351107Y-32322132D01*
X22372150Y-32309520D01*
X22394329Y-32299030D01*
X22417428Y-32290765D01*
X22441227Y-32284804D01*
X22465495Y-32281204D01*
X22489999Y-32280000D01*
X23140001Y-32280000D01*
X23164505Y-32281204D01*
X23164505Y-32281204D01*
G37*
D14*
X22815000Y-32980000D03*
D12*
G36*
X21114505Y-32281204D02*
G01*
X21138773Y-32284804D01*
X21162572Y-32290765D01*
X21185671Y-32299030D01*
X21207850Y-32309520D01*
X21228893Y-32322132D01*
X21248599Y-32336747D01*
X21266777Y-32353223D01*
X21283253Y-32371401D01*
X21297868Y-32391107D01*
X21310480Y-32412150D01*
X21320970Y-32434329D01*
X21329235Y-32457428D01*
X21335196Y-32481227D01*
X21338796Y-32505495D01*
X21340000Y-32529999D01*
X21340000Y-33430001D01*
X21338796Y-33454505D01*
X21335196Y-33478773D01*
X21329235Y-33502572D01*
X21320970Y-33525671D01*
X21310480Y-33547850D01*
X21297868Y-33568893D01*
X21283253Y-33588599D01*
X21266777Y-33606777D01*
X21248599Y-33623253D01*
X21228893Y-33637868D01*
X21207850Y-33650480D01*
X21185671Y-33660970D01*
X21162572Y-33669235D01*
X21138773Y-33675196D01*
X21114505Y-33678796D01*
X21090001Y-33680000D01*
X20439999Y-33680000D01*
X20415495Y-33678796D01*
X20391227Y-33675196D01*
X20367428Y-33669235D01*
X20344329Y-33660970D01*
X20322150Y-33650480D01*
X20301107Y-33637868D01*
X20281401Y-33623253D01*
X20263223Y-33606777D01*
X20246747Y-33588599D01*
X20232132Y-33568893D01*
X20219520Y-33547850D01*
X20209030Y-33525671D01*
X20200765Y-33502572D01*
X20194804Y-33478773D01*
X20191204Y-33454505D01*
X20190000Y-33430001D01*
X20190000Y-32529999D01*
X20191204Y-32505495D01*
X20194804Y-32481227D01*
X20200765Y-32457428D01*
X20209030Y-32434329D01*
X20219520Y-32412150D01*
X20232132Y-32391107D01*
X20246747Y-32371401D01*
X20263223Y-32353223D01*
X20281401Y-32336747D01*
X20301107Y-32322132D01*
X20322150Y-32309520D01*
X20344329Y-32299030D01*
X20367428Y-32290765D01*
X20391227Y-32284804D01*
X20415495Y-32281204D01*
X20439999Y-32280000D01*
X21090001Y-32280000D01*
X21114505Y-32281204D01*
X21114505Y-32281204D01*
G37*
D14*
X20765000Y-32980000D03*
D12*
G36*
X18814505Y-31931204D02*
G01*
X18838773Y-31934804D01*
X18862572Y-31940765D01*
X18885671Y-31949030D01*
X18907850Y-31959520D01*
X18928893Y-31972132D01*
X18948599Y-31986747D01*
X18966777Y-32003223D01*
X18983253Y-32021401D01*
X18997868Y-32041107D01*
X19010480Y-32062150D01*
X19020970Y-32084329D01*
X19029235Y-32107428D01*
X19035196Y-32131227D01*
X19038796Y-32155495D01*
X19040000Y-32179999D01*
X19040000Y-33080001D01*
X19038796Y-33104505D01*
X19035196Y-33128773D01*
X19029235Y-33152572D01*
X19020970Y-33175671D01*
X19010480Y-33197850D01*
X18997868Y-33218893D01*
X18983253Y-33238599D01*
X18966777Y-33256777D01*
X18948599Y-33273253D01*
X18928893Y-33287868D01*
X18907850Y-33300480D01*
X18885671Y-33310970D01*
X18862572Y-33319235D01*
X18838773Y-33325196D01*
X18814505Y-33328796D01*
X18790001Y-33330000D01*
X18139999Y-33330000D01*
X18115495Y-33328796D01*
X18091227Y-33325196D01*
X18067428Y-33319235D01*
X18044329Y-33310970D01*
X18022150Y-33300480D01*
X18001107Y-33287868D01*
X17981401Y-33273253D01*
X17963223Y-33256777D01*
X17946747Y-33238599D01*
X17932132Y-33218893D01*
X17919520Y-33197850D01*
X17909030Y-33175671D01*
X17900765Y-33152572D01*
X17894804Y-33128773D01*
X17891204Y-33104505D01*
X17890000Y-33080001D01*
X17890000Y-32179999D01*
X17891204Y-32155495D01*
X17894804Y-32131227D01*
X17900765Y-32107428D01*
X17909030Y-32084329D01*
X17919520Y-32062150D01*
X17932132Y-32041107D01*
X17946747Y-32021401D01*
X17963223Y-32003223D01*
X17981401Y-31986747D01*
X18001107Y-31972132D01*
X18022150Y-31959520D01*
X18044329Y-31949030D01*
X18067428Y-31940765D01*
X18091227Y-31934804D01*
X18115495Y-31931204D01*
X18139999Y-31930000D01*
X18790001Y-31930000D01*
X18814505Y-31931204D01*
X18814505Y-31931204D01*
G37*
D14*
X18465000Y-32630000D03*
D12*
G36*
X16764505Y-31931204D02*
G01*
X16788773Y-31934804D01*
X16812572Y-31940765D01*
X16835671Y-31949030D01*
X16857850Y-31959520D01*
X16878893Y-31972132D01*
X16898599Y-31986747D01*
X16916777Y-32003223D01*
X16933253Y-32021401D01*
X16947868Y-32041107D01*
X16960480Y-32062150D01*
X16970970Y-32084329D01*
X16979235Y-32107428D01*
X16985196Y-32131227D01*
X16988796Y-32155495D01*
X16990000Y-32179999D01*
X16990000Y-33080001D01*
X16988796Y-33104505D01*
X16985196Y-33128773D01*
X16979235Y-33152572D01*
X16970970Y-33175671D01*
X16960480Y-33197850D01*
X16947868Y-33218893D01*
X16933253Y-33238599D01*
X16916777Y-33256777D01*
X16898599Y-33273253D01*
X16878893Y-33287868D01*
X16857850Y-33300480D01*
X16835671Y-33310970D01*
X16812572Y-33319235D01*
X16788773Y-33325196D01*
X16764505Y-33328796D01*
X16740001Y-33330000D01*
X16089999Y-33330000D01*
X16065495Y-33328796D01*
X16041227Y-33325196D01*
X16017428Y-33319235D01*
X15994329Y-33310970D01*
X15972150Y-33300480D01*
X15951107Y-33287868D01*
X15931401Y-33273253D01*
X15913223Y-33256777D01*
X15896747Y-33238599D01*
X15882132Y-33218893D01*
X15869520Y-33197850D01*
X15859030Y-33175671D01*
X15850765Y-33152572D01*
X15844804Y-33128773D01*
X15841204Y-33104505D01*
X15840000Y-33080001D01*
X15840000Y-32179999D01*
X15841204Y-32155495D01*
X15844804Y-32131227D01*
X15850765Y-32107428D01*
X15859030Y-32084329D01*
X15869520Y-32062150D01*
X15882132Y-32041107D01*
X15896747Y-32021401D01*
X15913223Y-32003223D01*
X15931401Y-31986747D01*
X15951107Y-31972132D01*
X15972150Y-31959520D01*
X15994329Y-31949030D01*
X16017428Y-31940765D01*
X16041227Y-31934804D01*
X16065495Y-31931204D01*
X16089999Y-31930000D01*
X16740001Y-31930000D01*
X16764505Y-31931204D01*
X16764505Y-31931204D01*
G37*
D14*
X16415000Y-32630000D03*
D15*
X24200000Y-49450000D03*
D12*
G36*
X24200000Y-50199398D02*
G01*
X24175466Y-50199398D01*
X24126635Y-50194588D01*
X24078510Y-50185016D01*
X24031555Y-50170772D01*
X23986222Y-50151995D01*
X23942949Y-50128864D01*
X23902150Y-50101604D01*
X23864221Y-50070476D01*
X23829524Y-50035779D01*
X23798396Y-49997850D01*
X23771136Y-49957051D01*
X23748005Y-49913778D01*
X23729228Y-49868445D01*
X23714984Y-49821490D01*
X23705412Y-49773365D01*
X23700602Y-49724534D01*
X23700602Y-49700000D01*
X23700000Y-49700000D01*
X23700000Y-49200000D01*
X23700602Y-49200000D01*
X23700602Y-49175466D01*
X23705412Y-49126635D01*
X23714984Y-49078510D01*
X23729228Y-49031555D01*
X23748005Y-48986222D01*
X23771136Y-48942949D01*
X23798396Y-48902150D01*
X23829524Y-48864221D01*
X23864221Y-48829524D01*
X23902150Y-48798396D01*
X23942949Y-48771136D01*
X23986222Y-48748005D01*
X24031555Y-48729228D01*
X24078510Y-48714984D01*
X24126635Y-48705412D01*
X24175466Y-48700602D01*
X24200000Y-48700602D01*
X24200000Y-48700000D01*
X24700000Y-48700000D01*
X24700000Y-50200000D01*
X24200000Y-50200000D01*
X24200000Y-50199398D01*
X24200000Y-50199398D01*
G37*
D15*
X25500000Y-49450000D03*
D12*
G36*
X25000000Y-48700000D02*
G01*
X25500000Y-48700000D01*
X25500000Y-48700602D01*
X25524534Y-48700602D01*
X25573365Y-48705412D01*
X25621490Y-48714984D01*
X25668445Y-48729228D01*
X25713778Y-48748005D01*
X25757051Y-48771136D01*
X25797850Y-48798396D01*
X25835779Y-48829524D01*
X25870476Y-48864221D01*
X25901604Y-48902150D01*
X25928864Y-48942949D01*
X25951995Y-48986222D01*
X25970772Y-49031555D01*
X25985016Y-49078510D01*
X25994588Y-49126635D01*
X25999398Y-49175466D01*
X25999398Y-49200000D01*
X26000000Y-49200000D01*
X26000000Y-49700000D01*
X25999398Y-49700000D01*
X25999398Y-49724534D01*
X25994588Y-49773365D01*
X25985016Y-49821490D01*
X25970772Y-49868445D01*
X25951995Y-49913778D01*
X25928864Y-49957051D01*
X25901604Y-49997850D01*
X25870476Y-50035779D01*
X25835779Y-50070476D01*
X25797850Y-50101604D01*
X25757051Y-50128864D01*
X25713778Y-50151995D01*
X25668445Y-50170772D01*
X25621490Y-50185016D01*
X25573365Y-50194588D01*
X25524534Y-50199398D01*
X25500000Y-50199398D01*
X25500000Y-50200000D01*
X25000000Y-50200000D01*
X25000000Y-48700000D01*
X25000000Y-48700000D01*
G37*
D15*
X24190000Y-46950000D03*
D12*
G36*
X24190000Y-47699398D02*
G01*
X24165466Y-47699398D01*
X24116635Y-47694588D01*
X24068510Y-47685016D01*
X24021555Y-47670772D01*
X23976222Y-47651995D01*
X23932949Y-47628864D01*
X23892150Y-47601604D01*
X23854221Y-47570476D01*
X23819524Y-47535779D01*
X23788396Y-47497850D01*
X23761136Y-47457051D01*
X23738005Y-47413778D01*
X23719228Y-47368445D01*
X23704984Y-47321490D01*
X23695412Y-47273365D01*
X23690602Y-47224534D01*
X23690602Y-47200000D01*
X23690000Y-47200000D01*
X23690000Y-46700000D01*
X23690602Y-46700000D01*
X23690602Y-46675466D01*
X23695412Y-46626635D01*
X23704984Y-46578510D01*
X23719228Y-46531555D01*
X23738005Y-46486222D01*
X23761136Y-46442949D01*
X23788396Y-46402150D01*
X23819524Y-46364221D01*
X23854221Y-46329524D01*
X23892150Y-46298396D01*
X23932949Y-46271136D01*
X23976222Y-46248005D01*
X24021555Y-46229228D01*
X24068510Y-46214984D01*
X24116635Y-46205412D01*
X24165466Y-46200602D01*
X24190000Y-46200602D01*
X24190000Y-46200000D01*
X24690000Y-46200000D01*
X24690000Y-47700000D01*
X24190000Y-47700000D01*
X24190000Y-47699398D01*
X24190000Y-47699398D01*
G37*
D15*
X25490000Y-46950000D03*
D12*
G36*
X24990000Y-46200000D02*
G01*
X25490000Y-46200000D01*
X25490000Y-46200602D01*
X25514534Y-46200602D01*
X25563365Y-46205412D01*
X25611490Y-46214984D01*
X25658445Y-46229228D01*
X25703778Y-46248005D01*
X25747051Y-46271136D01*
X25787850Y-46298396D01*
X25825779Y-46329524D01*
X25860476Y-46364221D01*
X25891604Y-46402150D01*
X25918864Y-46442949D01*
X25941995Y-46486222D01*
X25960772Y-46531555D01*
X25975016Y-46578510D01*
X25984588Y-46626635D01*
X25989398Y-46675466D01*
X25989398Y-46700000D01*
X25990000Y-46700000D01*
X25990000Y-47200000D01*
X25989398Y-47200000D01*
X25989398Y-47224534D01*
X25984588Y-47273365D01*
X25975016Y-47321490D01*
X25960772Y-47368445D01*
X25941995Y-47413778D01*
X25918864Y-47457051D01*
X25891604Y-47497850D01*
X25860476Y-47535779D01*
X25825779Y-47570476D01*
X25787850Y-47601604D01*
X25747051Y-47628864D01*
X25703778Y-47651995D01*
X25658445Y-47670772D01*
X25611490Y-47685016D01*
X25563365Y-47694588D01*
X25514534Y-47699398D01*
X25490000Y-47699398D01*
X25490000Y-47700000D01*
X24990000Y-47700000D01*
X24990000Y-46200000D01*
X24990000Y-46200000D01*
G37*
D10*
X41120000Y-22700000D03*
D11*
X41120000Y-25240000D03*
D10*
X36820000Y-22160000D03*
D11*
X36820000Y-24700000D03*
D16*
X32732800Y-77973000D03*
D17*
X32732800Y-75052000D03*
D18*
X29340000Y-71920000D03*
D19*
X31840000Y-71920000D03*
X34340000Y-71920000D03*
D20*
X36640000Y-64420000D03*
X27040000Y-64420000D03*
D10*
X12650000Y-21110000D03*
X12650000Y-23650000D03*
X12650000Y-26190000D03*
X12650000Y-28730000D03*
X12650000Y-31270000D03*
D11*
X12650000Y-33810000D03*
D10*
X16590000Y-100440000D03*
D11*
X14050000Y-100440000D03*
D19*
X13128100Y-61101900D03*
X13128100Y-58601900D03*
X13128100Y-63601900D03*
X13368100Y-88651900D03*
X13368100Y-86151900D03*
X13368100Y-91151900D03*
D12*
G36*
X21238017Y-105764815D02*
G01*
X21335090Y-105779215D01*
X21430285Y-105803060D01*
X21522683Y-105836120D01*
X21611397Y-105878079D01*
X21695570Y-105928530D01*
X21774393Y-105986990D01*
X21847107Y-106052893D01*
X21913010Y-106125607D01*
X21971470Y-106204430D01*
X22021921Y-106288603D01*
X22063880Y-106377317D01*
X22096940Y-106469715D01*
X22120785Y-106564910D01*
X22135185Y-106661983D01*
X22140000Y-106760000D01*
X22140000Y-108760000D01*
X22135185Y-108858017D01*
X22120785Y-108955090D01*
X22096940Y-109050285D01*
X22063880Y-109142683D01*
X22021921Y-109231397D01*
X21971470Y-109315570D01*
X21913010Y-109394393D01*
X21847107Y-109467107D01*
X21774393Y-109533010D01*
X21695570Y-109591470D01*
X21611397Y-109641921D01*
X21522683Y-109683880D01*
X21430285Y-109716940D01*
X21335090Y-109740785D01*
X21238017Y-109755185D01*
X21140000Y-109760000D01*
X19140000Y-109760000D01*
X19041983Y-109755185D01*
X18944910Y-109740785D01*
X18849715Y-109716940D01*
X18757317Y-109683880D01*
X18668603Y-109641921D01*
X18584430Y-109591470D01*
X18505607Y-109533010D01*
X18432893Y-109467107D01*
X18366990Y-109394393D01*
X18308530Y-109315570D01*
X18258079Y-109231397D01*
X18216120Y-109142683D01*
X18183060Y-109050285D01*
X18159215Y-108955090D01*
X18144815Y-108858017D01*
X18140000Y-108760000D01*
X18140000Y-106760000D01*
X18144815Y-106661983D01*
X18159215Y-106564910D01*
X18183060Y-106469715D01*
X18216120Y-106377317D01*
X18258079Y-106288603D01*
X18308530Y-106204430D01*
X18366990Y-106125607D01*
X18432893Y-106052893D01*
X18505607Y-105986990D01*
X18584430Y-105928530D01*
X18668603Y-105878079D01*
X18757317Y-105836120D01*
X18849715Y-105803060D01*
X18944910Y-105779215D01*
X19041983Y-105764815D01*
X19140000Y-105760000D01*
X21140000Y-105760000D01*
X21238017Y-105764815D01*
X21238017Y-105764815D01*
G37*
D21*
X20140000Y-107760000D03*
D12*
G36*
X16538017Y-108764815D02*
G01*
X16635090Y-108779215D01*
X16730285Y-108803060D01*
X16822683Y-108836120D01*
X16911397Y-108878079D01*
X16995570Y-108928530D01*
X17074393Y-108986990D01*
X17147107Y-109052893D01*
X17213010Y-109125607D01*
X17271470Y-109204430D01*
X17321921Y-109288603D01*
X17363880Y-109377317D01*
X17396940Y-109469715D01*
X17420785Y-109564910D01*
X17435185Y-109661983D01*
X17440000Y-109760000D01*
X17440000Y-111760000D01*
X17435185Y-111858017D01*
X17420785Y-111955090D01*
X17396940Y-112050285D01*
X17363880Y-112142683D01*
X17321921Y-112231397D01*
X17271470Y-112315570D01*
X17213010Y-112394393D01*
X17147107Y-112467107D01*
X17074393Y-112533010D01*
X16995570Y-112591470D01*
X16911397Y-112641921D01*
X16822683Y-112683880D01*
X16730285Y-112716940D01*
X16635090Y-112740785D01*
X16538017Y-112755185D01*
X16440000Y-112760000D01*
X14440000Y-112760000D01*
X14341983Y-112755185D01*
X14244910Y-112740785D01*
X14149715Y-112716940D01*
X14057317Y-112683880D01*
X13968603Y-112641921D01*
X13884430Y-112591470D01*
X13805607Y-112533010D01*
X13732893Y-112467107D01*
X13666990Y-112394393D01*
X13608530Y-112315570D01*
X13558079Y-112231397D01*
X13516120Y-112142683D01*
X13483060Y-112050285D01*
X13459215Y-111955090D01*
X13444815Y-111858017D01*
X13440000Y-111760000D01*
X13440000Y-109760000D01*
X13444815Y-109661983D01*
X13459215Y-109564910D01*
X13483060Y-109469715D01*
X13516120Y-109377317D01*
X13558079Y-109288603D01*
X13608530Y-109204430D01*
X13666990Y-109125607D01*
X13732893Y-109052893D01*
X13805607Y-108986990D01*
X13884430Y-108928530D01*
X13968603Y-108878079D01*
X14057317Y-108836120D01*
X14149715Y-108803060D01*
X14244910Y-108779215D01*
X14341983Y-108764815D01*
X14440000Y-108760000D01*
X16440000Y-108760000D01*
X16538017Y-108764815D01*
X16538017Y-108764815D01*
G37*
D21*
X15440000Y-110760000D03*
D22*
X15440000Y-104760000D03*
D12*
G36*
X42234703Y-106575722D02*
G01*
X42249264Y-106577882D01*
X42263543Y-106581459D01*
X42277403Y-106586418D01*
X42290710Y-106592712D01*
X42303336Y-106600280D01*
X42315159Y-106609048D01*
X42326066Y-106618934D01*
X42335952Y-106629841D01*
X42344720Y-106641664D01*
X42352288Y-106654290D01*
X42358582Y-106667597D01*
X42363541Y-106681457D01*
X42367118Y-106695736D01*
X42369278Y-106710297D01*
X42370000Y-106725000D01*
X42370000Y-107025000D01*
X42369278Y-107039703D01*
X42367118Y-107054264D01*
X42363541Y-107068543D01*
X42358582Y-107082403D01*
X42352288Y-107095710D01*
X42344720Y-107108336D01*
X42335952Y-107120159D01*
X42326066Y-107131066D01*
X42315159Y-107140952D01*
X42303336Y-107149720D01*
X42290710Y-107157288D01*
X42277403Y-107163582D01*
X42263543Y-107168541D01*
X42249264Y-107172118D01*
X42234703Y-107174278D01*
X42220000Y-107175000D01*
X40570000Y-107175000D01*
X40555297Y-107174278D01*
X40540736Y-107172118D01*
X40526457Y-107168541D01*
X40512597Y-107163582D01*
X40499290Y-107157288D01*
X40486664Y-107149720D01*
X40474841Y-107140952D01*
X40463934Y-107131066D01*
X40454048Y-107120159D01*
X40445280Y-107108336D01*
X40437712Y-107095710D01*
X40431418Y-107082403D01*
X40426459Y-107068543D01*
X40422882Y-107054264D01*
X40420722Y-107039703D01*
X40420000Y-107025000D01*
X40420000Y-106725000D01*
X40420722Y-106710297D01*
X40422882Y-106695736D01*
X40426459Y-106681457D01*
X40431418Y-106667597D01*
X40437712Y-106654290D01*
X40445280Y-106641664D01*
X40454048Y-106629841D01*
X40463934Y-106618934D01*
X40474841Y-106609048D01*
X40486664Y-106600280D01*
X40499290Y-106592712D01*
X40512597Y-106586418D01*
X40526457Y-106581459D01*
X40540736Y-106577882D01*
X40555297Y-106575722D01*
X40570000Y-106575000D01*
X42220000Y-106575000D01*
X42234703Y-106575722D01*
X42234703Y-106575722D01*
G37*
D13*
X41395000Y-106875000D03*
D12*
G36*
X42234703Y-105305722D02*
G01*
X42249264Y-105307882D01*
X42263543Y-105311459D01*
X42277403Y-105316418D01*
X42290710Y-105322712D01*
X42303336Y-105330280D01*
X42315159Y-105339048D01*
X42326066Y-105348934D01*
X42335952Y-105359841D01*
X42344720Y-105371664D01*
X42352288Y-105384290D01*
X42358582Y-105397597D01*
X42363541Y-105411457D01*
X42367118Y-105425736D01*
X42369278Y-105440297D01*
X42370000Y-105455000D01*
X42370000Y-105755000D01*
X42369278Y-105769703D01*
X42367118Y-105784264D01*
X42363541Y-105798543D01*
X42358582Y-105812403D01*
X42352288Y-105825710D01*
X42344720Y-105838336D01*
X42335952Y-105850159D01*
X42326066Y-105861066D01*
X42315159Y-105870952D01*
X42303336Y-105879720D01*
X42290710Y-105887288D01*
X42277403Y-105893582D01*
X42263543Y-105898541D01*
X42249264Y-105902118D01*
X42234703Y-105904278D01*
X42220000Y-105905000D01*
X40570000Y-105905000D01*
X40555297Y-105904278D01*
X40540736Y-105902118D01*
X40526457Y-105898541D01*
X40512597Y-105893582D01*
X40499290Y-105887288D01*
X40486664Y-105879720D01*
X40474841Y-105870952D01*
X40463934Y-105861066D01*
X40454048Y-105850159D01*
X40445280Y-105838336D01*
X40437712Y-105825710D01*
X40431418Y-105812403D01*
X40426459Y-105798543D01*
X40422882Y-105784264D01*
X40420722Y-105769703D01*
X40420000Y-105755000D01*
X40420000Y-105455000D01*
X40420722Y-105440297D01*
X40422882Y-105425736D01*
X40426459Y-105411457D01*
X40431418Y-105397597D01*
X40437712Y-105384290D01*
X40445280Y-105371664D01*
X40454048Y-105359841D01*
X40463934Y-105348934D01*
X40474841Y-105339048D01*
X40486664Y-105330280D01*
X40499290Y-105322712D01*
X40512597Y-105316418D01*
X40526457Y-105311459D01*
X40540736Y-105307882D01*
X40555297Y-105305722D01*
X40570000Y-105305000D01*
X42220000Y-105305000D01*
X42234703Y-105305722D01*
X42234703Y-105305722D01*
G37*
D13*
X41395000Y-105605000D03*
D12*
G36*
X42234703Y-104035722D02*
G01*
X42249264Y-104037882D01*
X42263543Y-104041459D01*
X42277403Y-104046418D01*
X42290710Y-104052712D01*
X42303336Y-104060280D01*
X42315159Y-104069048D01*
X42326066Y-104078934D01*
X42335952Y-104089841D01*
X42344720Y-104101664D01*
X42352288Y-104114290D01*
X42358582Y-104127597D01*
X42363541Y-104141457D01*
X42367118Y-104155736D01*
X42369278Y-104170297D01*
X42370000Y-104185000D01*
X42370000Y-104485000D01*
X42369278Y-104499703D01*
X42367118Y-104514264D01*
X42363541Y-104528543D01*
X42358582Y-104542403D01*
X42352288Y-104555710D01*
X42344720Y-104568336D01*
X42335952Y-104580159D01*
X42326066Y-104591066D01*
X42315159Y-104600952D01*
X42303336Y-104609720D01*
X42290710Y-104617288D01*
X42277403Y-104623582D01*
X42263543Y-104628541D01*
X42249264Y-104632118D01*
X42234703Y-104634278D01*
X42220000Y-104635000D01*
X40570000Y-104635000D01*
X40555297Y-104634278D01*
X40540736Y-104632118D01*
X40526457Y-104628541D01*
X40512597Y-104623582D01*
X40499290Y-104617288D01*
X40486664Y-104609720D01*
X40474841Y-104600952D01*
X40463934Y-104591066D01*
X40454048Y-104580159D01*
X40445280Y-104568336D01*
X40437712Y-104555710D01*
X40431418Y-104542403D01*
X40426459Y-104528543D01*
X40422882Y-104514264D01*
X40420722Y-104499703D01*
X40420000Y-104485000D01*
X40420000Y-104185000D01*
X40420722Y-104170297D01*
X40422882Y-104155736D01*
X40426459Y-104141457D01*
X40431418Y-104127597D01*
X40437712Y-104114290D01*
X40445280Y-104101664D01*
X40454048Y-104089841D01*
X40463934Y-104078934D01*
X40474841Y-104069048D01*
X40486664Y-104060280D01*
X40499290Y-104052712D01*
X40512597Y-104046418D01*
X40526457Y-104041459D01*
X40540736Y-104037882D01*
X40555297Y-104035722D01*
X40570000Y-104035000D01*
X42220000Y-104035000D01*
X42234703Y-104035722D01*
X42234703Y-104035722D01*
G37*
D13*
X41395000Y-104335000D03*
D12*
G36*
X42234703Y-102765722D02*
G01*
X42249264Y-102767882D01*
X42263543Y-102771459D01*
X42277403Y-102776418D01*
X42290710Y-102782712D01*
X42303336Y-102790280D01*
X42315159Y-102799048D01*
X42326066Y-102808934D01*
X42335952Y-102819841D01*
X42344720Y-102831664D01*
X42352288Y-102844290D01*
X42358582Y-102857597D01*
X42363541Y-102871457D01*
X42367118Y-102885736D01*
X42369278Y-102900297D01*
X42370000Y-102915000D01*
X42370000Y-103215000D01*
X42369278Y-103229703D01*
X42367118Y-103244264D01*
X42363541Y-103258543D01*
X42358582Y-103272403D01*
X42352288Y-103285710D01*
X42344720Y-103298336D01*
X42335952Y-103310159D01*
X42326066Y-103321066D01*
X42315159Y-103330952D01*
X42303336Y-103339720D01*
X42290710Y-103347288D01*
X42277403Y-103353582D01*
X42263543Y-103358541D01*
X42249264Y-103362118D01*
X42234703Y-103364278D01*
X42220000Y-103365000D01*
X40570000Y-103365000D01*
X40555297Y-103364278D01*
X40540736Y-103362118D01*
X40526457Y-103358541D01*
X40512597Y-103353582D01*
X40499290Y-103347288D01*
X40486664Y-103339720D01*
X40474841Y-103330952D01*
X40463934Y-103321066D01*
X40454048Y-103310159D01*
X40445280Y-103298336D01*
X40437712Y-103285710D01*
X40431418Y-103272403D01*
X40426459Y-103258543D01*
X40422882Y-103244264D01*
X40420722Y-103229703D01*
X40420000Y-103215000D01*
X40420000Y-102915000D01*
X40420722Y-102900297D01*
X40422882Y-102885736D01*
X40426459Y-102871457D01*
X40431418Y-102857597D01*
X40437712Y-102844290D01*
X40445280Y-102831664D01*
X40454048Y-102819841D01*
X40463934Y-102808934D01*
X40474841Y-102799048D01*
X40486664Y-102790280D01*
X40499290Y-102782712D01*
X40512597Y-102776418D01*
X40526457Y-102771459D01*
X40540736Y-102767882D01*
X40555297Y-102765722D01*
X40570000Y-102765000D01*
X42220000Y-102765000D01*
X42234703Y-102765722D01*
X42234703Y-102765722D01*
G37*
D13*
X41395000Y-103065000D03*
D12*
G36*
X42234703Y-101495722D02*
G01*
X42249264Y-101497882D01*
X42263543Y-101501459D01*
X42277403Y-101506418D01*
X42290710Y-101512712D01*
X42303336Y-101520280D01*
X42315159Y-101529048D01*
X42326066Y-101538934D01*
X42335952Y-101549841D01*
X42344720Y-101561664D01*
X42352288Y-101574290D01*
X42358582Y-101587597D01*
X42363541Y-101601457D01*
X42367118Y-101615736D01*
X42369278Y-101630297D01*
X42370000Y-101645000D01*
X42370000Y-101945000D01*
X42369278Y-101959703D01*
X42367118Y-101974264D01*
X42363541Y-101988543D01*
X42358582Y-102002403D01*
X42352288Y-102015710D01*
X42344720Y-102028336D01*
X42335952Y-102040159D01*
X42326066Y-102051066D01*
X42315159Y-102060952D01*
X42303336Y-102069720D01*
X42290710Y-102077288D01*
X42277403Y-102083582D01*
X42263543Y-102088541D01*
X42249264Y-102092118D01*
X42234703Y-102094278D01*
X42220000Y-102095000D01*
X40570000Y-102095000D01*
X40555297Y-102094278D01*
X40540736Y-102092118D01*
X40526457Y-102088541D01*
X40512597Y-102083582D01*
X40499290Y-102077288D01*
X40486664Y-102069720D01*
X40474841Y-102060952D01*
X40463934Y-102051066D01*
X40454048Y-102040159D01*
X40445280Y-102028336D01*
X40437712Y-102015710D01*
X40431418Y-102002403D01*
X40426459Y-101988543D01*
X40422882Y-101974264D01*
X40420722Y-101959703D01*
X40420000Y-101945000D01*
X40420000Y-101645000D01*
X40420722Y-101630297D01*
X40422882Y-101615736D01*
X40426459Y-101601457D01*
X40431418Y-101587597D01*
X40437712Y-101574290D01*
X40445280Y-101561664D01*
X40454048Y-101549841D01*
X40463934Y-101538934D01*
X40474841Y-101529048D01*
X40486664Y-101520280D01*
X40499290Y-101512712D01*
X40512597Y-101506418D01*
X40526457Y-101501459D01*
X40540736Y-101497882D01*
X40555297Y-101495722D01*
X40570000Y-101495000D01*
X42220000Y-101495000D01*
X42234703Y-101495722D01*
X42234703Y-101495722D01*
G37*
D13*
X41395000Y-101795000D03*
D12*
G36*
X42234703Y-100225722D02*
G01*
X42249264Y-100227882D01*
X42263543Y-100231459D01*
X42277403Y-100236418D01*
X42290710Y-100242712D01*
X42303336Y-100250280D01*
X42315159Y-100259048D01*
X42326066Y-100268934D01*
X42335952Y-100279841D01*
X42344720Y-100291664D01*
X42352288Y-100304290D01*
X42358582Y-100317597D01*
X42363541Y-100331457D01*
X42367118Y-100345736D01*
X42369278Y-100360297D01*
X42370000Y-100375000D01*
X42370000Y-100675000D01*
X42369278Y-100689703D01*
X42367118Y-100704264D01*
X42363541Y-100718543D01*
X42358582Y-100732403D01*
X42352288Y-100745710D01*
X42344720Y-100758336D01*
X42335952Y-100770159D01*
X42326066Y-100781066D01*
X42315159Y-100790952D01*
X42303336Y-100799720D01*
X42290710Y-100807288D01*
X42277403Y-100813582D01*
X42263543Y-100818541D01*
X42249264Y-100822118D01*
X42234703Y-100824278D01*
X42220000Y-100825000D01*
X40570000Y-100825000D01*
X40555297Y-100824278D01*
X40540736Y-100822118D01*
X40526457Y-100818541D01*
X40512597Y-100813582D01*
X40499290Y-100807288D01*
X40486664Y-100799720D01*
X40474841Y-100790952D01*
X40463934Y-100781066D01*
X40454048Y-100770159D01*
X40445280Y-100758336D01*
X40437712Y-100745710D01*
X40431418Y-100732403D01*
X40426459Y-100718543D01*
X40422882Y-100704264D01*
X40420722Y-100689703D01*
X40420000Y-100675000D01*
X40420000Y-100375000D01*
X40420722Y-100360297D01*
X40422882Y-100345736D01*
X40426459Y-100331457D01*
X40431418Y-100317597D01*
X40437712Y-100304290D01*
X40445280Y-100291664D01*
X40454048Y-100279841D01*
X40463934Y-100268934D01*
X40474841Y-100259048D01*
X40486664Y-100250280D01*
X40499290Y-100242712D01*
X40512597Y-100236418D01*
X40526457Y-100231459D01*
X40540736Y-100227882D01*
X40555297Y-100225722D01*
X40570000Y-100225000D01*
X42220000Y-100225000D01*
X42234703Y-100225722D01*
X42234703Y-100225722D01*
G37*
D13*
X41395000Y-100525000D03*
D12*
G36*
X42234703Y-98955722D02*
G01*
X42249264Y-98957882D01*
X42263543Y-98961459D01*
X42277403Y-98966418D01*
X42290710Y-98972712D01*
X42303336Y-98980280D01*
X42315159Y-98989048D01*
X42326066Y-98998934D01*
X42335952Y-99009841D01*
X42344720Y-99021664D01*
X42352288Y-99034290D01*
X42358582Y-99047597D01*
X42363541Y-99061457D01*
X42367118Y-99075736D01*
X42369278Y-99090297D01*
X42370000Y-99105000D01*
X42370000Y-99405000D01*
X42369278Y-99419703D01*
X42367118Y-99434264D01*
X42363541Y-99448543D01*
X42358582Y-99462403D01*
X42352288Y-99475710D01*
X42344720Y-99488336D01*
X42335952Y-99500159D01*
X42326066Y-99511066D01*
X42315159Y-99520952D01*
X42303336Y-99529720D01*
X42290710Y-99537288D01*
X42277403Y-99543582D01*
X42263543Y-99548541D01*
X42249264Y-99552118D01*
X42234703Y-99554278D01*
X42220000Y-99555000D01*
X40570000Y-99555000D01*
X40555297Y-99554278D01*
X40540736Y-99552118D01*
X40526457Y-99548541D01*
X40512597Y-99543582D01*
X40499290Y-99537288D01*
X40486664Y-99529720D01*
X40474841Y-99520952D01*
X40463934Y-99511066D01*
X40454048Y-99500159D01*
X40445280Y-99488336D01*
X40437712Y-99475710D01*
X40431418Y-99462403D01*
X40426459Y-99448543D01*
X40422882Y-99434264D01*
X40420722Y-99419703D01*
X40420000Y-99405000D01*
X40420000Y-99105000D01*
X40420722Y-99090297D01*
X40422882Y-99075736D01*
X40426459Y-99061457D01*
X40431418Y-99047597D01*
X40437712Y-99034290D01*
X40445280Y-99021664D01*
X40454048Y-99009841D01*
X40463934Y-98998934D01*
X40474841Y-98989048D01*
X40486664Y-98980280D01*
X40499290Y-98972712D01*
X40512597Y-98966418D01*
X40526457Y-98961459D01*
X40540736Y-98957882D01*
X40555297Y-98955722D01*
X40570000Y-98955000D01*
X42220000Y-98955000D01*
X42234703Y-98955722D01*
X42234703Y-98955722D01*
G37*
D13*
X41395000Y-99255000D03*
D12*
G36*
X42234703Y-97685722D02*
G01*
X42249264Y-97687882D01*
X42263543Y-97691459D01*
X42277403Y-97696418D01*
X42290710Y-97702712D01*
X42303336Y-97710280D01*
X42315159Y-97719048D01*
X42326066Y-97728934D01*
X42335952Y-97739841D01*
X42344720Y-97751664D01*
X42352288Y-97764290D01*
X42358582Y-97777597D01*
X42363541Y-97791457D01*
X42367118Y-97805736D01*
X42369278Y-97820297D01*
X42370000Y-97835000D01*
X42370000Y-98135000D01*
X42369278Y-98149703D01*
X42367118Y-98164264D01*
X42363541Y-98178543D01*
X42358582Y-98192403D01*
X42352288Y-98205710D01*
X42344720Y-98218336D01*
X42335952Y-98230159D01*
X42326066Y-98241066D01*
X42315159Y-98250952D01*
X42303336Y-98259720D01*
X42290710Y-98267288D01*
X42277403Y-98273582D01*
X42263543Y-98278541D01*
X42249264Y-98282118D01*
X42234703Y-98284278D01*
X42220000Y-98285000D01*
X40570000Y-98285000D01*
X40555297Y-98284278D01*
X40540736Y-98282118D01*
X40526457Y-98278541D01*
X40512597Y-98273582D01*
X40499290Y-98267288D01*
X40486664Y-98259720D01*
X40474841Y-98250952D01*
X40463934Y-98241066D01*
X40454048Y-98230159D01*
X40445280Y-98218336D01*
X40437712Y-98205710D01*
X40431418Y-98192403D01*
X40426459Y-98178543D01*
X40422882Y-98164264D01*
X40420722Y-98149703D01*
X40420000Y-98135000D01*
X40420000Y-97835000D01*
X40420722Y-97820297D01*
X40422882Y-97805736D01*
X40426459Y-97791457D01*
X40431418Y-97777597D01*
X40437712Y-97764290D01*
X40445280Y-97751664D01*
X40454048Y-97739841D01*
X40463934Y-97728934D01*
X40474841Y-97719048D01*
X40486664Y-97710280D01*
X40499290Y-97702712D01*
X40512597Y-97696418D01*
X40526457Y-97691459D01*
X40540736Y-97687882D01*
X40555297Y-97685722D01*
X40570000Y-97685000D01*
X42220000Y-97685000D01*
X42234703Y-97685722D01*
X42234703Y-97685722D01*
G37*
D13*
X41395000Y-97985000D03*
D12*
G36*
X47184703Y-97685722D02*
G01*
X47199264Y-97687882D01*
X47213543Y-97691459D01*
X47227403Y-97696418D01*
X47240710Y-97702712D01*
X47253336Y-97710280D01*
X47265159Y-97719048D01*
X47276066Y-97728934D01*
X47285952Y-97739841D01*
X47294720Y-97751664D01*
X47302288Y-97764290D01*
X47308582Y-97777597D01*
X47313541Y-97791457D01*
X47317118Y-97805736D01*
X47319278Y-97820297D01*
X47320000Y-97835000D01*
X47320000Y-98135000D01*
X47319278Y-98149703D01*
X47317118Y-98164264D01*
X47313541Y-98178543D01*
X47308582Y-98192403D01*
X47302288Y-98205710D01*
X47294720Y-98218336D01*
X47285952Y-98230159D01*
X47276066Y-98241066D01*
X47265159Y-98250952D01*
X47253336Y-98259720D01*
X47240710Y-98267288D01*
X47227403Y-98273582D01*
X47213543Y-98278541D01*
X47199264Y-98282118D01*
X47184703Y-98284278D01*
X47170000Y-98285000D01*
X45520000Y-98285000D01*
X45505297Y-98284278D01*
X45490736Y-98282118D01*
X45476457Y-98278541D01*
X45462597Y-98273582D01*
X45449290Y-98267288D01*
X45436664Y-98259720D01*
X45424841Y-98250952D01*
X45413934Y-98241066D01*
X45404048Y-98230159D01*
X45395280Y-98218336D01*
X45387712Y-98205710D01*
X45381418Y-98192403D01*
X45376459Y-98178543D01*
X45372882Y-98164264D01*
X45370722Y-98149703D01*
X45370000Y-98135000D01*
X45370000Y-97835000D01*
X45370722Y-97820297D01*
X45372882Y-97805736D01*
X45376459Y-97791457D01*
X45381418Y-97777597D01*
X45387712Y-97764290D01*
X45395280Y-97751664D01*
X45404048Y-97739841D01*
X45413934Y-97728934D01*
X45424841Y-97719048D01*
X45436664Y-97710280D01*
X45449290Y-97702712D01*
X45462597Y-97696418D01*
X45476457Y-97691459D01*
X45490736Y-97687882D01*
X45505297Y-97685722D01*
X45520000Y-97685000D01*
X47170000Y-97685000D01*
X47184703Y-97685722D01*
X47184703Y-97685722D01*
G37*
D13*
X46345000Y-97985000D03*
D12*
G36*
X47184703Y-98955722D02*
G01*
X47199264Y-98957882D01*
X47213543Y-98961459D01*
X47227403Y-98966418D01*
X47240710Y-98972712D01*
X47253336Y-98980280D01*
X47265159Y-98989048D01*
X47276066Y-98998934D01*
X47285952Y-99009841D01*
X47294720Y-99021664D01*
X47302288Y-99034290D01*
X47308582Y-99047597D01*
X47313541Y-99061457D01*
X47317118Y-99075736D01*
X47319278Y-99090297D01*
X47320000Y-99105000D01*
X47320000Y-99405000D01*
X47319278Y-99419703D01*
X47317118Y-99434264D01*
X47313541Y-99448543D01*
X47308582Y-99462403D01*
X47302288Y-99475710D01*
X47294720Y-99488336D01*
X47285952Y-99500159D01*
X47276066Y-99511066D01*
X47265159Y-99520952D01*
X47253336Y-99529720D01*
X47240710Y-99537288D01*
X47227403Y-99543582D01*
X47213543Y-99548541D01*
X47199264Y-99552118D01*
X47184703Y-99554278D01*
X47170000Y-99555000D01*
X45520000Y-99555000D01*
X45505297Y-99554278D01*
X45490736Y-99552118D01*
X45476457Y-99548541D01*
X45462597Y-99543582D01*
X45449290Y-99537288D01*
X45436664Y-99529720D01*
X45424841Y-99520952D01*
X45413934Y-99511066D01*
X45404048Y-99500159D01*
X45395280Y-99488336D01*
X45387712Y-99475710D01*
X45381418Y-99462403D01*
X45376459Y-99448543D01*
X45372882Y-99434264D01*
X45370722Y-99419703D01*
X45370000Y-99405000D01*
X45370000Y-99105000D01*
X45370722Y-99090297D01*
X45372882Y-99075736D01*
X45376459Y-99061457D01*
X45381418Y-99047597D01*
X45387712Y-99034290D01*
X45395280Y-99021664D01*
X45404048Y-99009841D01*
X45413934Y-98998934D01*
X45424841Y-98989048D01*
X45436664Y-98980280D01*
X45449290Y-98972712D01*
X45462597Y-98966418D01*
X45476457Y-98961459D01*
X45490736Y-98957882D01*
X45505297Y-98955722D01*
X45520000Y-98955000D01*
X47170000Y-98955000D01*
X47184703Y-98955722D01*
X47184703Y-98955722D01*
G37*
D13*
X46345000Y-99255000D03*
D12*
G36*
X47184703Y-100225722D02*
G01*
X47199264Y-100227882D01*
X47213543Y-100231459D01*
X47227403Y-100236418D01*
X47240710Y-100242712D01*
X47253336Y-100250280D01*
X47265159Y-100259048D01*
X47276066Y-100268934D01*
X47285952Y-100279841D01*
X47294720Y-100291664D01*
X47302288Y-100304290D01*
X47308582Y-100317597D01*
X47313541Y-100331457D01*
X47317118Y-100345736D01*
X47319278Y-100360297D01*
X47320000Y-100375000D01*
X47320000Y-100675000D01*
X47319278Y-100689703D01*
X47317118Y-100704264D01*
X47313541Y-100718543D01*
X47308582Y-100732403D01*
X47302288Y-100745710D01*
X47294720Y-100758336D01*
X47285952Y-100770159D01*
X47276066Y-100781066D01*
X47265159Y-100790952D01*
X47253336Y-100799720D01*
X47240710Y-100807288D01*
X47227403Y-100813582D01*
X47213543Y-100818541D01*
X47199264Y-100822118D01*
X47184703Y-100824278D01*
X47170000Y-100825000D01*
X45520000Y-100825000D01*
X45505297Y-100824278D01*
X45490736Y-100822118D01*
X45476457Y-100818541D01*
X45462597Y-100813582D01*
X45449290Y-100807288D01*
X45436664Y-100799720D01*
X45424841Y-100790952D01*
X45413934Y-100781066D01*
X45404048Y-100770159D01*
X45395280Y-100758336D01*
X45387712Y-100745710D01*
X45381418Y-100732403D01*
X45376459Y-100718543D01*
X45372882Y-100704264D01*
X45370722Y-100689703D01*
X45370000Y-100675000D01*
X45370000Y-100375000D01*
X45370722Y-100360297D01*
X45372882Y-100345736D01*
X45376459Y-100331457D01*
X45381418Y-100317597D01*
X45387712Y-100304290D01*
X45395280Y-100291664D01*
X45404048Y-100279841D01*
X45413934Y-100268934D01*
X45424841Y-100259048D01*
X45436664Y-100250280D01*
X45449290Y-100242712D01*
X45462597Y-100236418D01*
X45476457Y-100231459D01*
X45490736Y-100227882D01*
X45505297Y-100225722D01*
X45520000Y-100225000D01*
X47170000Y-100225000D01*
X47184703Y-100225722D01*
X47184703Y-100225722D01*
G37*
D13*
X46345000Y-100525000D03*
D12*
G36*
X47184703Y-101495722D02*
G01*
X47199264Y-101497882D01*
X47213543Y-101501459D01*
X47227403Y-101506418D01*
X47240710Y-101512712D01*
X47253336Y-101520280D01*
X47265159Y-101529048D01*
X47276066Y-101538934D01*
X47285952Y-101549841D01*
X47294720Y-101561664D01*
X47302288Y-101574290D01*
X47308582Y-101587597D01*
X47313541Y-101601457D01*
X47317118Y-101615736D01*
X47319278Y-101630297D01*
X47320000Y-101645000D01*
X47320000Y-101945000D01*
X47319278Y-101959703D01*
X47317118Y-101974264D01*
X47313541Y-101988543D01*
X47308582Y-102002403D01*
X47302288Y-102015710D01*
X47294720Y-102028336D01*
X47285952Y-102040159D01*
X47276066Y-102051066D01*
X47265159Y-102060952D01*
X47253336Y-102069720D01*
X47240710Y-102077288D01*
X47227403Y-102083582D01*
X47213543Y-102088541D01*
X47199264Y-102092118D01*
X47184703Y-102094278D01*
X47170000Y-102095000D01*
X45520000Y-102095000D01*
X45505297Y-102094278D01*
X45490736Y-102092118D01*
X45476457Y-102088541D01*
X45462597Y-102083582D01*
X45449290Y-102077288D01*
X45436664Y-102069720D01*
X45424841Y-102060952D01*
X45413934Y-102051066D01*
X45404048Y-102040159D01*
X45395280Y-102028336D01*
X45387712Y-102015710D01*
X45381418Y-102002403D01*
X45376459Y-101988543D01*
X45372882Y-101974264D01*
X45370722Y-101959703D01*
X45370000Y-101945000D01*
X45370000Y-101645000D01*
X45370722Y-101630297D01*
X45372882Y-101615736D01*
X45376459Y-101601457D01*
X45381418Y-101587597D01*
X45387712Y-101574290D01*
X45395280Y-101561664D01*
X45404048Y-101549841D01*
X45413934Y-101538934D01*
X45424841Y-101529048D01*
X45436664Y-101520280D01*
X45449290Y-101512712D01*
X45462597Y-101506418D01*
X45476457Y-101501459D01*
X45490736Y-101497882D01*
X45505297Y-101495722D01*
X45520000Y-101495000D01*
X47170000Y-101495000D01*
X47184703Y-101495722D01*
X47184703Y-101495722D01*
G37*
D13*
X46345000Y-101795000D03*
D12*
G36*
X47184703Y-102765722D02*
G01*
X47199264Y-102767882D01*
X47213543Y-102771459D01*
X47227403Y-102776418D01*
X47240710Y-102782712D01*
X47253336Y-102790280D01*
X47265159Y-102799048D01*
X47276066Y-102808934D01*
X47285952Y-102819841D01*
X47294720Y-102831664D01*
X47302288Y-102844290D01*
X47308582Y-102857597D01*
X47313541Y-102871457D01*
X47317118Y-102885736D01*
X47319278Y-102900297D01*
X47320000Y-102915000D01*
X47320000Y-103215000D01*
X47319278Y-103229703D01*
X47317118Y-103244264D01*
X47313541Y-103258543D01*
X47308582Y-103272403D01*
X47302288Y-103285710D01*
X47294720Y-103298336D01*
X47285952Y-103310159D01*
X47276066Y-103321066D01*
X47265159Y-103330952D01*
X47253336Y-103339720D01*
X47240710Y-103347288D01*
X47227403Y-103353582D01*
X47213543Y-103358541D01*
X47199264Y-103362118D01*
X47184703Y-103364278D01*
X47170000Y-103365000D01*
X45520000Y-103365000D01*
X45505297Y-103364278D01*
X45490736Y-103362118D01*
X45476457Y-103358541D01*
X45462597Y-103353582D01*
X45449290Y-103347288D01*
X45436664Y-103339720D01*
X45424841Y-103330952D01*
X45413934Y-103321066D01*
X45404048Y-103310159D01*
X45395280Y-103298336D01*
X45387712Y-103285710D01*
X45381418Y-103272403D01*
X45376459Y-103258543D01*
X45372882Y-103244264D01*
X45370722Y-103229703D01*
X45370000Y-103215000D01*
X45370000Y-102915000D01*
X45370722Y-102900297D01*
X45372882Y-102885736D01*
X45376459Y-102871457D01*
X45381418Y-102857597D01*
X45387712Y-102844290D01*
X45395280Y-102831664D01*
X45404048Y-102819841D01*
X45413934Y-102808934D01*
X45424841Y-102799048D01*
X45436664Y-102790280D01*
X45449290Y-102782712D01*
X45462597Y-102776418D01*
X45476457Y-102771459D01*
X45490736Y-102767882D01*
X45505297Y-102765722D01*
X45520000Y-102765000D01*
X47170000Y-102765000D01*
X47184703Y-102765722D01*
X47184703Y-102765722D01*
G37*
D13*
X46345000Y-103065000D03*
D12*
G36*
X47184703Y-104035722D02*
G01*
X47199264Y-104037882D01*
X47213543Y-104041459D01*
X47227403Y-104046418D01*
X47240710Y-104052712D01*
X47253336Y-104060280D01*
X47265159Y-104069048D01*
X47276066Y-104078934D01*
X47285952Y-104089841D01*
X47294720Y-104101664D01*
X47302288Y-104114290D01*
X47308582Y-104127597D01*
X47313541Y-104141457D01*
X47317118Y-104155736D01*
X47319278Y-104170297D01*
X47320000Y-104185000D01*
X47320000Y-104485000D01*
X47319278Y-104499703D01*
X47317118Y-104514264D01*
X47313541Y-104528543D01*
X47308582Y-104542403D01*
X47302288Y-104555710D01*
X47294720Y-104568336D01*
X47285952Y-104580159D01*
X47276066Y-104591066D01*
X47265159Y-104600952D01*
X47253336Y-104609720D01*
X47240710Y-104617288D01*
X47227403Y-104623582D01*
X47213543Y-104628541D01*
X47199264Y-104632118D01*
X47184703Y-104634278D01*
X47170000Y-104635000D01*
X45520000Y-104635000D01*
X45505297Y-104634278D01*
X45490736Y-104632118D01*
X45476457Y-104628541D01*
X45462597Y-104623582D01*
X45449290Y-104617288D01*
X45436664Y-104609720D01*
X45424841Y-104600952D01*
X45413934Y-104591066D01*
X45404048Y-104580159D01*
X45395280Y-104568336D01*
X45387712Y-104555710D01*
X45381418Y-104542403D01*
X45376459Y-104528543D01*
X45372882Y-104514264D01*
X45370722Y-104499703D01*
X45370000Y-104485000D01*
X45370000Y-104185000D01*
X45370722Y-104170297D01*
X45372882Y-104155736D01*
X45376459Y-104141457D01*
X45381418Y-104127597D01*
X45387712Y-104114290D01*
X45395280Y-104101664D01*
X45404048Y-104089841D01*
X45413934Y-104078934D01*
X45424841Y-104069048D01*
X45436664Y-104060280D01*
X45449290Y-104052712D01*
X45462597Y-104046418D01*
X45476457Y-104041459D01*
X45490736Y-104037882D01*
X45505297Y-104035722D01*
X45520000Y-104035000D01*
X47170000Y-104035000D01*
X47184703Y-104035722D01*
X47184703Y-104035722D01*
G37*
D13*
X46345000Y-104335000D03*
D12*
G36*
X47184703Y-105305722D02*
G01*
X47199264Y-105307882D01*
X47213543Y-105311459D01*
X47227403Y-105316418D01*
X47240710Y-105322712D01*
X47253336Y-105330280D01*
X47265159Y-105339048D01*
X47276066Y-105348934D01*
X47285952Y-105359841D01*
X47294720Y-105371664D01*
X47302288Y-105384290D01*
X47308582Y-105397597D01*
X47313541Y-105411457D01*
X47317118Y-105425736D01*
X47319278Y-105440297D01*
X47320000Y-105455000D01*
X47320000Y-105755000D01*
X47319278Y-105769703D01*
X47317118Y-105784264D01*
X47313541Y-105798543D01*
X47308582Y-105812403D01*
X47302288Y-105825710D01*
X47294720Y-105838336D01*
X47285952Y-105850159D01*
X47276066Y-105861066D01*
X47265159Y-105870952D01*
X47253336Y-105879720D01*
X47240710Y-105887288D01*
X47227403Y-105893582D01*
X47213543Y-105898541D01*
X47199264Y-105902118D01*
X47184703Y-105904278D01*
X47170000Y-105905000D01*
X45520000Y-105905000D01*
X45505297Y-105904278D01*
X45490736Y-105902118D01*
X45476457Y-105898541D01*
X45462597Y-105893582D01*
X45449290Y-105887288D01*
X45436664Y-105879720D01*
X45424841Y-105870952D01*
X45413934Y-105861066D01*
X45404048Y-105850159D01*
X45395280Y-105838336D01*
X45387712Y-105825710D01*
X45381418Y-105812403D01*
X45376459Y-105798543D01*
X45372882Y-105784264D01*
X45370722Y-105769703D01*
X45370000Y-105755000D01*
X45370000Y-105455000D01*
X45370722Y-105440297D01*
X45372882Y-105425736D01*
X45376459Y-105411457D01*
X45381418Y-105397597D01*
X45387712Y-105384290D01*
X45395280Y-105371664D01*
X45404048Y-105359841D01*
X45413934Y-105348934D01*
X45424841Y-105339048D01*
X45436664Y-105330280D01*
X45449290Y-105322712D01*
X45462597Y-105316418D01*
X45476457Y-105311459D01*
X45490736Y-105307882D01*
X45505297Y-105305722D01*
X45520000Y-105305000D01*
X47170000Y-105305000D01*
X47184703Y-105305722D01*
X47184703Y-105305722D01*
G37*
D13*
X46345000Y-105605000D03*
D12*
G36*
X47184703Y-106575722D02*
G01*
X47199264Y-106577882D01*
X47213543Y-106581459D01*
X47227403Y-106586418D01*
X47240710Y-106592712D01*
X47253336Y-106600280D01*
X47265159Y-106609048D01*
X47276066Y-106618934D01*
X47285952Y-106629841D01*
X47294720Y-106641664D01*
X47302288Y-106654290D01*
X47308582Y-106667597D01*
X47313541Y-106681457D01*
X47317118Y-106695736D01*
X47319278Y-106710297D01*
X47320000Y-106725000D01*
X47320000Y-107025000D01*
X47319278Y-107039703D01*
X47317118Y-107054264D01*
X47313541Y-107068543D01*
X47308582Y-107082403D01*
X47302288Y-107095710D01*
X47294720Y-107108336D01*
X47285952Y-107120159D01*
X47276066Y-107131066D01*
X47265159Y-107140952D01*
X47253336Y-107149720D01*
X47240710Y-107157288D01*
X47227403Y-107163582D01*
X47213543Y-107168541D01*
X47199264Y-107172118D01*
X47184703Y-107174278D01*
X47170000Y-107175000D01*
X45520000Y-107175000D01*
X45505297Y-107174278D01*
X45490736Y-107172118D01*
X45476457Y-107168541D01*
X45462597Y-107163582D01*
X45449290Y-107157288D01*
X45436664Y-107149720D01*
X45424841Y-107140952D01*
X45413934Y-107131066D01*
X45404048Y-107120159D01*
X45395280Y-107108336D01*
X45387712Y-107095710D01*
X45381418Y-107082403D01*
X45376459Y-107068543D01*
X45372882Y-107054264D01*
X45370722Y-107039703D01*
X45370000Y-107025000D01*
X45370000Y-106725000D01*
X45370722Y-106710297D01*
X45372882Y-106695736D01*
X45376459Y-106681457D01*
X45381418Y-106667597D01*
X45387712Y-106654290D01*
X45395280Y-106641664D01*
X45404048Y-106629841D01*
X45413934Y-106618934D01*
X45424841Y-106609048D01*
X45436664Y-106600280D01*
X45449290Y-106592712D01*
X45462597Y-106586418D01*
X45476457Y-106581459D01*
X45490736Y-106577882D01*
X45505297Y-106575722D01*
X45520000Y-106575000D01*
X47170000Y-106575000D01*
X47184703Y-106575722D01*
X47184703Y-106575722D01*
G37*
D13*
X46345000Y-106875000D03*
D23*
X40260000Y-69470000D03*
X40260000Y-72010000D03*
X40260000Y-74550000D03*
X40260000Y-77090000D03*
X40260000Y-79630000D03*
X40260000Y-82170000D03*
X40260000Y-84710000D03*
X40260000Y-87250000D03*
D24*
X40260000Y-89790000D03*
D25*
X51295000Y-76590000D03*
X51295000Y-72090000D03*
X43345000Y-72090000D03*
X43345000Y-76590000D03*
X43245000Y-60640000D03*
X43245000Y-65140000D03*
X51195000Y-65140000D03*
X51195000Y-60640000D03*
D12*
G36*
X50554506Y-80726204D02*
G01*
X50578774Y-80729804D01*
X50602573Y-80735765D01*
X50625672Y-80744030D01*
X50647851Y-80754520D01*
X50668894Y-80767132D01*
X50688600Y-80781747D01*
X50706778Y-80798223D01*
X50723254Y-80816401D01*
X50737869Y-80836107D01*
X50750481Y-80857150D01*
X50760971Y-80879329D01*
X50769236Y-80902428D01*
X50775197Y-80926227D01*
X50778797Y-80950495D01*
X50780001Y-80974999D01*
X50780001Y-81625001D01*
X50778797Y-81649505D01*
X50775197Y-81673773D01*
X50769236Y-81697572D01*
X50760971Y-81720671D01*
X50750481Y-81742850D01*
X50737869Y-81763893D01*
X50723254Y-81783599D01*
X50706778Y-81801777D01*
X50688600Y-81818253D01*
X50668894Y-81832868D01*
X50647851Y-81845480D01*
X50625672Y-81855970D01*
X50602573Y-81864235D01*
X50578774Y-81870196D01*
X50554506Y-81873796D01*
X50530002Y-81875000D01*
X49630000Y-81875000D01*
X49605496Y-81873796D01*
X49581228Y-81870196D01*
X49557429Y-81864235D01*
X49534330Y-81855970D01*
X49512151Y-81845480D01*
X49491108Y-81832868D01*
X49471402Y-81818253D01*
X49453224Y-81801777D01*
X49436748Y-81783599D01*
X49422133Y-81763893D01*
X49409521Y-81742850D01*
X49399031Y-81720671D01*
X49390766Y-81697572D01*
X49384805Y-81673773D01*
X49381205Y-81649505D01*
X49380001Y-81625001D01*
X49380001Y-80974999D01*
X49381205Y-80950495D01*
X49384805Y-80926227D01*
X49390766Y-80902428D01*
X49399031Y-80879329D01*
X49409521Y-80857150D01*
X49422133Y-80836107D01*
X49436748Y-80816401D01*
X49453224Y-80798223D01*
X49471402Y-80781747D01*
X49491108Y-80767132D01*
X49512151Y-80754520D01*
X49534330Y-80744030D01*
X49557429Y-80735765D01*
X49581228Y-80729804D01*
X49605496Y-80726204D01*
X49630000Y-80725000D01*
X50530002Y-80725000D01*
X50554506Y-80726204D01*
X50554506Y-80726204D01*
G37*
D14*
X50080001Y-81300000D03*
D12*
G36*
X50554506Y-82776204D02*
G01*
X50578774Y-82779804D01*
X50602573Y-82785765D01*
X50625672Y-82794030D01*
X50647851Y-82804520D01*
X50668894Y-82817132D01*
X50688600Y-82831747D01*
X50706778Y-82848223D01*
X50723254Y-82866401D01*
X50737869Y-82886107D01*
X50750481Y-82907150D01*
X50760971Y-82929329D01*
X50769236Y-82952428D01*
X50775197Y-82976227D01*
X50778797Y-83000495D01*
X50780001Y-83024999D01*
X50780001Y-83675001D01*
X50778797Y-83699505D01*
X50775197Y-83723773D01*
X50769236Y-83747572D01*
X50760971Y-83770671D01*
X50750481Y-83792850D01*
X50737869Y-83813893D01*
X50723254Y-83833599D01*
X50706778Y-83851777D01*
X50688600Y-83868253D01*
X50668894Y-83882868D01*
X50647851Y-83895480D01*
X50625672Y-83905970D01*
X50602573Y-83914235D01*
X50578774Y-83920196D01*
X50554506Y-83923796D01*
X50530002Y-83925000D01*
X49630000Y-83925000D01*
X49605496Y-83923796D01*
X49581228Y-83920196D01*
X49557429Y-83914235D01*
X49534330Y-83905970D01*
X49512151Y-83895480D01*
X49491108Y-83882868D01*
X49471402Y-83868253D01*
X49453224Y-83851777D01*
X49436748Y-83833599D01*
X49422133Y-83813893D01*
X49409521Y-83792850D01*
X49399031Y-83770671D01*
X49390766Y-83747572D01*
X49384805Y-83723773D01*
X49381205Y-83699505D01*
X49380001Y-83675001D01*
X49380001Y-83024999D01*
X49381205Y-83000495D01*
X49384805Y-82976227D01*
X49390766Y-82952428D01*
X49399031Y-82929329D01*
X49409521Y-82907150D01*
X49422133Y-82886107D01*
X49436748Y-82866401D01*
X49453224Y-82848223D01*
X49471402Y-82831747D01*
X49491108Y-82817132D01*
X49512151Y-82804520D01*
X49534330Y-82794030D01*
X49557429Y-82785765D01*
X49581228Y-82779804D01*
X49605496Y-82776204D01*
X49630000Y-82775000D01*
X50530002Y-82775000D01*
X50554506Y-82776204D01*
X50554506Y-82776204D01*
G37*
D14*
X50080001Y-83350000D03*
D12*
G36*
X27579505Y-41961203D02*
G01*
X27603773Y-41964803D01*
X27627572Y-41970764D01*
X27650671Y-41979029D01*
X27672850Y-41989519D01*
X27693893Y-42002131D01*
X27713599Y-42016746D01*
X27731777Y-42033222D01*
X27748253Y-42051400D01*
X27762868Y-42071106D01*
X27775480Y-42092149D01*
X27785970Y-42114328D01*
X27794235Y-42137427D01*
X27800196Y-42161226D01*
X27803796Y-42185494D01*
X27805000Y-42209998D01*
X27805000Y-43110000D01*
X27803796Y-43134504D01*
X27800196Y-43158772D01*
X27794235Y-43182571D01*
X27785970Y-43205670D01*
X27775480Y-43227849D01*
X27762868Y-43248892D01*
X27748253Y-43268598D01*
X27731777Y-43286776D01*
X27713599Y-43303252D01*
X27693893Y-43317867D01*
X27672850Y-43330479D01*
X27650671Y-43340969D01*
X27627572Y-43349234D01*
X27603773Y-43355195D01*
X27579505Y-43358795D01*
X27555001Y-43359999D01*
X26904999Y-43359999D01*
X26880495Y-43358795D01*
X26856227Y-43355195D01*
X26832428Y-43349234D01*
X26809329Y-43340969D01*
X26787150Y-43330479D01*
X26766107Y-43317867D01*
X26746401Y-43303252D01*
X26728223Y-43286776D01*
X26711747Y-43268598D01*
X26697132Y-43248892D01*
X26684520Y-43227849D01*
X26674030Y-43205670D01*
X26665765Y-43182571D01*
X26659804Y-43158772D01*
X26656204Y-43134504D01*
X26655000Y-43110000D01*
X26655000Y-42209998D01*
X26656204Y-42185494D01*
X26659804Y-42161226D01*
X26665765Y-42137427D01*
X26674030Y-42114328D01*
X26684520Y-42092149D01*
X26697132Y-42071106D01*
X26711747Y-42051400D01*
X26728223Y-42033222D01*
X26746401Y-42016746D01*
X26766107Y-42002131D01*
X26787150Y-41989519D01*
X26809329Y-41979029D01*
X26832428Y-41970764D01*
X26856227Y-41964803D01*
X26880495Y-41961203D01*
X26904999Y-41959999D01*
X27555001Y-41959999D01*
X27579505Y-41961203D01*
X27579505Y-41961203D01*
G37*
D14*
X27230000Y-42659999D03*
D12*
G36*
X25529505Y-41961203D02*
G01*
X25553773Y-41964803D01*
X25577572Y-41970764D01*
X25600671Y-41979029D01*
X25622850Y-41989519D01*
X25643893Y-42002131D01*
X25663599Y-42016746D01*
X25681777Y-42033222D01*
X25698253Y-42051400D01*
X25712868Y-42071106D01*
X25725480Y-42092149D01*
X25735970Y-42114328D01*
X25744235Y-42137427D01*
X25750196Y-42161226D01*
X25753796Y-42185494D01*
X25755000Y-42209998D01*
X25755000Y-43110000D01*
X25753796Y-43134504D01*
X25750196Y-43158772D01*
X25744235Y-43182571D01*
X25735970Y-43205670D01*
X25725480Y-43227849D01*
X25712868Y-43248892D01*
X25698253Y-43268598D01*
X25681777Y-43286776D01*
X25663599Y-43303252D01*
X25643893Y-43317867D01*
X25622850Y-43330479D01*
X25600671Y-43340969D01*
X25577572Y-43349234D01*
X25553773Y-43355195D01*
X25529505Y-43358795D01*
X25505001Y-43359999D01*
X24854999Y-43359999D01*
X24830495Y-43358795D01*
X24806227Y-43355195D01*
X24782428Y-43349234D01*
X24759329Y-43340969D01*
X24737150Y-43330479D01*
X24716107Y-43317867D01*
X24696401Y-43303252D01*
X24678223Y-43286776D01*
X24661747Y-43268598D01*
X24647132Y-43248892D01*
X24634520Y-43227849D01*
X24624030Y-43205670D01*
X24615765Y-43182571D01*
X24609804Y-43158772D01*
X24606204Y-43134504D01*
X24605000Y-43110000D01*
X24605000Y-42209998D01*
X24606204Y-42185494D01*
X24609804Y-42161226D01*
X24615765Y-42137427D01*
X24624030Y-42114328D01*
X24634520Y-42092149D01*
X24647132Y-42071106D01*
X24661747Y-42051400D01*
X24678223Y-42033222D01*
X24696401Y-42016746D01*
X24716107Y-42002131D01*
X24737150Y-41989519D01*
X24759329Y-41979029D01*
X24782428Y-41970764D01*
X24806227Y-41964803D01*
X24830495Y-41961203D01*
X24854999Y-41959999D01*
X25505001Y-41959999D01*
X25529505Y-41961203D01*
X25529505Y-41961203D01*
G37*
D14*
X25180000Y-42659999D03*
D15*
X36060000Y-81930000D03*
D12*
G36*
X36060000Y-82679398D02*
G01*
X36035466Y-82679398D01*
X35986635Y-82674588D01*
X35938510Y-82665016D01*
X35891555Y-82650772D01*
X35846222Y-82631995D01*
X35802949Y-82608864D01*
X35762150Y-82581604D01*
X35724221Y-82550476D01*
X35689524Y-82515779D01*
X35658396Y-82477850D01*
X35631136Y-82437051D01*
X35608005Y-82393778D01*
X35589228Y-82348445D01*
X35574984Y-82301490D01*
X35565412Y-82253365D01*
X35560602Y-82204534D01*
X35560602Y-82180000D01*
X35560000Y-82180000D01*
X35560000Y-81680000D01*
X35560602Y-81680000D01*
X35560602Y-81655466D01*
X35565412Y-81606635D01*
X35574984Y-81558510D01*
X35589228Y-81511555D01*
X35608005Y-81466222D01*
X35631136Y-81422949D01*
X35658396Y-81382150D01*
X35689524Y-81344221D01*
X35724221Y-81309524D01*
X35762150Y-81278396D01*
X35802949Y-81251136D01*
X35846222Y-81228005D01*
X35891555Y-81209228D01*
X35938510Y-81194984D01*
X35986635Y-81185412D01*
X36035466Y-81180602D01*
X36060000Y-81180602D01*
X36060000Y-81180000D01*
X36560000Y-81180000D01*
X36560000Y-82680000D01*
X36060000Y-82680000D01*
X36060000Y-82679398D01*
X36060000Y-82679398D01*
G37*
D15*
X37360000Y-81930000D03*
D12*
G36*
X36860000Y-81180000D02*
G01*
X37360000Y-81180000D01*
X37360000Y-81180602D01*
X37384534Y-81180602D01*
X37433365Y-81185412D01*
X37481490Y-81194984D01*
X37528445Y-81209228D01*
X37573778Y-81228005D01*
X37617051Y-81251136D01*
X37657850Y-81278396D01*
X37695779Y-81309524D01*
X37730476Y-81344221D01*
X37761604Y-81382150D01*
X37788864Y-81422949D01*
X37811995Y-81466222D01*
X37830772Y-81511555D01*
X37845016Y-81558510D01*
X37854588Y-81606635D01*
X37859398Y-81655466D01*
X37859398Y-81680000D01*
X37860000Y-81680000D01*
X37860000Y-82180000D01*
X37859398Y-82180000D01*
X37859398Y-82204534D01*
X37854588Y-82253365D01*
X37845016Y-82301490D01*
X37830772Y-82348445D01*
X37811995Y-82393778D01*
X37788864Y-82437051D01*
X37761604Y-82477850D01*
X37730476Y-82515779D01*
X37695779Y-82550476D01*
X37657850Y-82581604D01*
X37617051Y-82608864D01*
X37573778Y-82631995D01*
X37528445Y-82650772D01*
X37481490Y-82665016D01*
X37433365Y-82674588D01*
X37384534Y-82679398D01*
X37360000Y-82679398D01*
X37360000Y-82680000D01*
X36860000Y-82680000D01*
X36860000Y-81180000D01*
X36860000Y-81180000D01*
G37*
D15*
X37050000Y-79550000D03*
D12*
G36*
X37799398Y-79550000D02*
G01*
X37799398Y-79574534D01*
X37794588Y-79623365D01*
X37785016Y-79671490D01*
X37770772Y-79718445D01*
X37751995Y-79763778D01*
X37728864Y-79807051D01*
X37701604Y-79847850D01*
X37670476Y-79885779D01*
X37635779Y-79920476D01*
X37597850Y-79951604D01*
X37557051Y-79978864D01*
X37513778Y-80001995D01*
X37468445Y-80020772D01*
X37421490Y-80035016D01*
X37373365Y-80044588D01*
X37324534Y-80049398D01*
X37300000Y-80049398D01*
X37300000Y-80050000D01*
X36800000Y-80050000D01*
X36800000Y-80049398D01*
X36775466Y-80049398D01*
X36726635Y-80044588D01*
X36678510Y-80035016D01*
X36631555Y-80020772D01*
X36586222Y-80001995D01*
X36542949Y-79978864D01*
X36502150Y-79951604D01*
X36464221Y-79920476D01*
X36429524Y-79885779D01*
X36398396Y-79847850D01*
X36371136Y-79807051D01*
X36348005Y-79763778D01*
X36329228Y-79718445D01*
X36314984Y-79671490D01*
X36305412Y-79623365D01*
X36300602Y-79574534D01*
X36300602Y-79550000D01*
X36300000Y-79550000D01*
X36300000Y-79050000D01*
X37800000Y-79050000D01*
X37800000Y-79550000D01*
X37799398Y-79550000D01*
X37799398Y-79550000D01*
G37*
D15*
X37050000Y-78250000D03*
D12*
G36*
X36300000Y-78750000D02*
G01*
X36300000Y-78250000D01*
X36300602Y-78250000D01*
X36300602Y-78225466D01*
X36305412Y-78176635D01*
X36314984Y-78128510D01*
X36329228Y-78081555D01*
X36348005Y-78036222D01*
X36371136Y-77992949D01*
X36398396Y-77952150D01*
X36429524Y-77914221D01*
X36464221Y-77879524D01*
X36502150Y-77848396D01*
X36542949Y-77821136D01*
X36586222Y-77798005D01*
X36631555Y-77779228D01*
X36678510Y-77764984D01*
X36726635Y-77755412D01*
X36775466Y-77750602D01*
X36800000Y-77750602D01*
X36800000Y-77750000D01*
X37300000Y-77750000D01*
X37300000Y-77750602D01*
X37324534Y-77750602D01*
X37373365Y-77755412D01*
X37421490Y-77764984D01*
X37468445Y-77779228D01*
X37513778Y-77798005D01*
X37557051Y-77821136D01*
X37597850Y-77848396D01*
X37635779Y-77879524D01*
X37670476Y-77914221D01*
X37701604Y-77952150D01*
X37728864Y-77992949D01*
X37751995Y-78036222D01*
X37770772Y-78081555D01*
X37785016Y-78128510D01*
X37794588Y-78176635D01*
X37799398Y-78225466D01*
X37799398Y-78250000D01*
X37800000Y-78250000D01*
X37800000Y-78750000D01*
X36300000Y-78750000D01*
X36300000Y-78750000D01*
G37*
D10*
X50550000Y-108500000D03*
X50550000Y-105960000D03*
X50550000Y-103420000D03*
X50550000Y-100880000D03*
X50550000Y-98340000D03*
X50550000Y-95800000D03*
X50550000Y-93260000D03*
D11*
X50550000Y-90720000D03*
D26*
X45050000Y-83270000D03*
D12*
G36*
X45824504Y-84921204D02*
G01*
X45848773Y-84924804D01*
X45872571Y-84930765D01*
X45895671Y-84939030D01*
X45917849Y-84949520D01*
X45938893Y-84962133D01*
X45958598Y-84976747D01*
X45976777Y-84993223D01*
X45993253Y-85011402D01*
X46007867Y-85031107D01*
X46020480Y-85052151D01*
X46030970Y-85074329D01*
X46039235Y-85097429D01*
X46045196Y-85121227D01*
X46048796Y-85145496D01*
X46050000Y-85170000D01*
X46050000Y-86370000D01*
X46048796Y-86394504D01*
X46045196Y-86418773D01*
X46039235Y-86442571D01*
X46030970Y-86465671D01*
X46020480Y-86487849D01*
X46007867Y-86508893D01*
X45993253Y-86528598D01*
X45976777Y-86546777D01*
X45958598Y-86563253D01*
X45938893Y-86577867D01*
X45917849Y-86590480D01*
X45895671Y-86600970D01*
X45872571Y-86609235D01*
X45848773Y-86615196D01*
X45824504Y-86618796D01*
X45800000Y-86620000D01*
X44300000Y-86620000D01*
X44275496Y-86618796D01*
X44251227Y-86615196D01*
X44227429Y-86609235D01*
X44204329Y-86600970D01*
X44182151Y-86590480D01*
X44161107Y-86577867D01*
X44141402Y-86563253D01*
X44123223Y-86546777D01*
X44106747Y-86528598D01*
X44092133Y-86508893D01*
X44079520Y-86487849D01*
X44069030Y-86465671D01*
X44060765Y-86442571D01*
X44054804Y-86418773D01*
X44051204Y-86394504D01*
X44050000Y-86370000D01*
X44050000Y-85170000D01*
X44051204Y-85145496D01*
X44054804Y-85121227D01*
X44060765Y-85097429D01*
X44069030Y-85074329D01*
X44079520Y-85052151D01*
X44092133Y-85031107D01*
X44106747Y-85011402D01*
X44123223Y-84993223D01*
X44141402Y-84976747D01*
X44161107Y-84962133D01*
X44182151Y-84949520D01*
X44204329Y-84939030D01*
X44227429Y-84930765D01*
X44251227Y-84924804D01*
X44275496Y-84921204D01*
X44300000Y-84920000D01*
X45800000Y-84920000D01*
X45824504Y-84921204D01*
X45824504Y-84921204D01*
G37*
D27*
X45050000Y-85770000D03*
D10*
X50040000Y-53350000D03*
X50040000Y-50810000D03*
X50040000Y-48270000D03*
X50040000Y-45730000D03*
X50040000Y-43190000D03*
D11*
X50040000Y-40650000D03*
D12*
G36*
X50564505Y-84781203D02*
G01*
X50588773Y-84784803D01*
X50612572Y-84790764D01*
X50635671Y-84799029D01*
X50657850Y-84809519D01*
X50678893Y-84822131D01*
X50698599Y-84836746D01*
X50716777Y-84853222D01*
X50733253Y-84871400D01*
X50747868Y-84891106D01*
X50760480Y-84912149D01*
X50770970Y-84934328D01*
X50779235Y-84957427D01*
X50785196Y-84981226D01*
X50788796Y-85005494D01*
X50790000Y-85029998D01*
X50790000Y-85680000D01*
X50788796Y-85704504D01*
X50785196Y-85728772D01*
X50779235Y-85752571D01*
X50770970Y-85775670D01*
X50760480Y-85797849D01*
X50747868Y-85818892D01*
X50733253Y-85838598D01*
X50716777Y-85856776D01*
X50698599Y-85873252D01*
X50678893Y-85887867D01*
X50657850Y-85900479D01*
X50635671Y-85910969D01*
X50612572Y-85919234D01*
X50588773Y-85925195D01*
X50564505Y-85928795D01*
X50540001Y-85929999D01*
X49639999Y-85929999D01*
X49615495Y-85928795D01*
X49591227Y-85925195D01*
X49567428Y-85919234D01*
X49544329Y-85910969D01*
X49522150Y-85900479D01*
X49501107Y-85887867D01*
X49481401Y-85873252D01*
X49463223Y-85856776D01*
X49446747Y-85838598D01*
X49432132Y-85818892D01*
X49419520Y-85797849D01*
X49409030Y-85775670D01*
X49400765Y-85752571D01*
X49394804Y-85728772D01*
X49391204Y-85704504D01*
X49390000Y-85680000D01*
X49390000Y-85029998D01*
X49391204Y-85005494D01*
X49394804Y-84981226D01*
X49400765Y-84957427D01*
X49409030Y-84934328D01*
X49419520Y-84912149D01*
X49432132Y-84891106D01*
X49446747Y-84871400D01*
X49463223Y-84853222D01*
X49481401Y-84836746D01*
X49501107Y-84822131D01*
X49522150Y-84809519D01*
X49544329Y-84799029D01*
X49567428Y-84790764D01*
X49591227Y-84784803D01*
X49615495Y-84781203D01*
X49639999Y-84779999D01*
X50540001Y-84779999D01*
X50564505Y-84781203D01*
X50564505Y-84781203D01*
G37*
D14*
X50090000Y-85354999D03*
D12*
G36*
X50564505Y-86831203D02*
G01*
X50588773Y-86834803D01*
X50612572Y-86840764D01*
X50635671Y-86849029D01*
X50657850Y-86859519D01*
X50678893Y-86872131D01*
X50698599Y-86886746D01*
X50716777Y-86903222D01*
X50733253Y-86921400D01*
X50747868Y-86941106D01*
X50760480Y-86962149D01*
X50770970Y-86984328D01*
X50779235Y-87007427D01*
X50785196Y-87031226D01*
X50788796Y-87055494D01*
X50790000Y-87079998D01*
X50790000Y-87730000D01*
X50788796Y-87754504D01*
X50785196Y-87778772D01*
X50779235Y-87802571D01*
X50770970Y-87825670D01*
X50760480Y-87847849D01*
X50747868Y-87868892D01*
X50733253Y-87888598D01*
X50716777Y-87906776D01*
X50698599Y-87923252D01*
X50678893Y-87937867D01*
X50657850Y-87950479D01*
X50635671Y-87960969D01*
X50612572Y-87969234D01*
X50588773Y-87975195D01*
X50564505Y-87978795D01*
X50540001Y-87979999D01*
X49639999Y-87979999D01*
X49615495Y-87978795D01*
X49591227Y-87975195D01*
X49567428Y-87969234D01*
X49544329Y-87960969D01*
X49522150Y-87950479D01*
X49501107Y-87937867D01*
X49481401Y-87923252D01*
X49463223Y-87906776D01*
X49446747Y-87888598D01*
X49432132Y-87868892D01*
X49419520Y-87847849D01*
X49409030Y-87825670D01*
X49400765Y-87802571D01*
X49394804Y-87778772D01*
X49391204Y-87754504D01*
X49390000Y-87730000D01*
X49390000Y-87079998D01*
X49391204Y-87055494D01*
X49394804Y-87031226D01*
X49400765Y-87007427D01*
X49409030Y-86984328D01*
X49419520Y-86962149D01*
X49432132Y-86941106D01*
X49446747Y-86921400D01*
X49463223Y-86903222D01*
X49481401Y-86886746D01*
X49501107Y-86872131D01*
X49522150Y-86859519D01*
X49544329Y-86849029D01*
X49567428Y-86840764D01*
X49591227Y-86834803D01*
X49615495Y-86831203D01*
X49639999Y-86829999D01*
X50540001Y-86829999D01*
X50564505Y-86831203D01*
X50564505Y-86831203D01*
G37*
D14*
X50090000Y-87404999D03*
D16*
X31347000Y-85402800D03*
D17*
X34268000Y-85402800D03*
D16*
X27503000Y-85377200D03*
D17*
X24582000Y-85377200D03*
D28*
X31970000Y-91280000D03*
X24350000Y-109060000D03*
X31970000Y-93820000D03*
X24350000Y-106520000D03*
X31970000Y-96360000D03*
X24350000Y-103980000D03*
X31970000Y-98900000D03*
X24350000Y-101440000D03*
X31970000Y-101440000D03*
X24350000Y-98900000D03*
X31970000Y-103980000D03*
X24350000Y-96360000D03*
X31970000Y-106520000D03*
X24350000Y-93820000D03*
X31970000Y-109060000D03*
D29*
X24350000Y-91280000D03*
D30*
X37150000Y-47375000D03*
D31*
X29650000Y-39875000D03*
X29650000Y-41145000D03*
X29650000Y-42415000D03*
X29650000Y-43685000D03*
X29650000Y-44955000D03*
X29650000Y-46225000D03*
X29650000Y-47495000D03*
X29650000Y-48765000D03*
X29650000Y-50035000D03*
X29650000Y-51305000D03*
X29650000Y-52575000D03*
X29650000Y-53845000D03*
X29650000Y-55115000D03*
X29650000Y-56385000D03*
D32*
X32435000Y-57385000D03*
X33705000Y-57385000D03*
X34975000Y-57385000D03*
X36245000Y-57385000D03*
X37515000Y-57385000D03*
X38785000Y-57385000D03*
X40055000Y-57385000D03*
X41325000Y-57385000D03*
X42595000Y-57385000D03*
X43865000Y-57385000D03*
D31*
X46650000Y-56385000D03*
X46650000Y-55115000D03*
X46650000Y-53845000D03*
X46650000Y-52575000D03*
X46650000Y-51305000D03*
X46650000Y-50035000D03*
X46650000Y-48765000D03*
X46650000Y-47495000D03*
X46650000Y-46225000D03*
X46650000Y-44955000D03*
X46650000Y-43685000D03*
X46650000Y-42415000D03*
X46650000Y-41145000D03*
X46650000Y-39875000D03*
D33*
X46440000Y-89280000D03*
X35210000Y-52710000D03*
X31400000Y-38050000D03*
X35230000Y-89420000D03*
X40710000Y-108550000D03*
X29410000Y-79390000D03*
X16030000Y-43620000D03*
D34*
X47450000Y-62020000D03*
X31730000Y-44720000D03*
X51360000Y-59010000D03*
X44610000Y-60730000D03*
X48350000Y-56430000D03*
X48280000Y-74680000D03*
X42840000Y-52200000D03*
X45020000Y-90900000D03*
X22790000Y-47620000D03*
X44910000Y-53840000D03*
X37890000Y-100210000D03*
X47130000Y-79170000D03*
X44960000Y-52630000D03*
X38730000Y-99430000D03*
X41810000Y-63650000D03*
X31810000Y-51760000D03*
X38280000Y-101360000D03*
X28480000Y-62300000D03*
X27790000Y-56500000D03*
X38900000Y-106250000D03*
X38190000Y-105230000D03*
X38740000Y-104130000D03*
X38640000Y-102910000D03*
X39030000Y-97510000D03*
X39040000Y-96240000D03*
X39040000Y-94900000D03*
X39060000Y-93650000D03*
X47900000Y-106870000D03*
X44810000Y-107620000D03*
X44960000Y-51340000D03*
X46010000Y-34180000D03*
X40430000Y-32870000D03*
X16590000Y-59100000D03*
X27530000Y-52590000D03*
X18460000Y-42830000D03*
X36260000Y-37810000D03*
X34370000Y-38330000D03*
X27550000Y-51330000D03*
X20110000Y-42820000D03*
X27520000Y-47370000D03*
X21690000Y-42790000D03*
D35*
X51195000Y-65140000D02*
X51195000Y-67400000D01*
X43245000Y-67400000D02*
X43245000Y-65140000D01*
X49430000Y-56010000D02*
X49340000Y-63860000D01*
X49340000Y-63860000D02*
X51195000Y-65140000D01*
X46345000Y-97985000D02*
X46345000Y-99255000D01*
X46345000Y-99255000D02*
X46345000Y-100525000D01*
X49430000Y-56010000D02*
X50040000Y-53350000D01*
X50040000Y-53350000D02*
X51700000Y-51290000D01*
X51700000Y-51290000D02*
X51640000Y-38800000D01*
X51640000Y-38800000D02*
X50290000Y-38870000D01*
X50290000Y-38870000D02*
X46740000Y-39110000D01*
X46740000Y-39110000D02*
X46650000Y-39875000D01*
X27503000Y-85377200D02*
X31347000Y-85402800D01*
X32413095Y-56036905D02*
X32435000Y-57385000D01*
X46345000Y-97985000D02*
X46440000Y-89280000D01*
X11400000Y-58760000D02*
X13128100Y-58601900D01*
X13368100Y-86151900D02*
X11450000Y-74770000D01*
X11450000Y-74770000D02*
X11400000Y-62320000D01*
X11400000Y-62320000D02*
X11400000Y-58760000D01*
X43345000Y-72090000D02*
X51295000Y-72090000D01*
X51295000Y-72090000D02*
X51195000Y-67400000D01*
X43245000Y-67400000D02*
X43345000Y-72090000D01*
X32413095Y-56036905D02*
X32984084Y-51125916D01*
X29650000Y-39875000D02*
X26990000Y-39930000D01*
X24740000Y-20360000D02*
X12650000Y-21110000D01*
X36820000Y-22160000D02*
X32850000Y-22090000D01*
X51640000Y-38800000D02*
X51536427Y-33963573D01*
X47689975Y-27170025D02*
X45330000Y-24910000D01*
X49376395Y-29346395D02*
X47689975Y-27170025D01*
X51536427Y-33963573D02*
X49376395Y-29346395D01*
X43158280Y-21551720D02*
X41376611Y-20416611D01*
X43158280Y-21551720D02*
X45330000Y-24910000D01*
X40293636Y-20453636D02*
X38349878Y-21099878D01*
X36820000Y-22160000D02*
X38349878Y-21099878D01*
X41376611Y-20416611D02*
X40293636Y-20453636D01*
X23047086Y-40732914D02*
X26990000Y-39930000D01*
X23047086Y-40732914D02*
X22435000Y-40725000D01*
X13128100Y-58601900D02*
X11220000Y-36930000D01*
X11220000Y-36930000D02*
X11170000Y-33730000D01*
X11170000Y-33730000D02*
X11150000Y-21800000D01*
X11150000Y-21800000D02*
X12650000Y-21110000D01*
X32984084Y-51125916D02*
X32968438Y-50151562D01*
X32968438Y-50151562D02*
X35210000Y-52710000D01*
X32968438Y-50151562D02*
X32892426Y-45417574D01*
X31720858Y-39879142D02*
X31400000Y-38050000D01*
X31720858Y-39879142D02*
X29650000Y-39875000D01*
X32405357Y-41784643D02*
X31720858Y-39879142D01*
X32892426Y-45417574D02*
X32405357Y-41784643D01*
X30834142Y-21045858D02*
X27120000Y-20360000D01*
X27120000Y-20360000D02*
X24740000Y-20360000D01*
X30834142Y-21045858D02*
X32850000Y-22090000D01*
X17200045Y-93879955D02*
X19784066Y-93075934D01*
X19784066Y-93075934D02*
X24350000Y-91280000D01*
X17200045Y-93879955D02*
X14160575Y-93980575D01*
X12474876Y-93645124D02*
X11469951Y-92190049D01*
X14160575Y-93980575D02*
X12474876Y-93645124D01*
X11376899Y-88443101D02*
X11862938Y-87052938D01*
X13368100Y-86151900D02*
X11862938Y-87052938D01*
X11376899Y-88443101D02*
X11469951Y-92190049D01*
X34650000Y-82370000D02*
X34268000Y-85402800D01*
X41395000Y-106875000D02*
X40710000Y-108550000D01*
X35230000Y-89420000D02*
X34268000Y-85402800D01*
X19930000Y-44150000D02*
X22390000Y-44280000D01*
X34268000Y-85402800D02*
X32660000Y-82780000D01*
X32660000Y-82780000D02*
X29410000Y-79390000D01*
X34650000Y-82370000D02*
X36060000Y-81930000D01*
X19930000Y-44150000D02*
X16030000Y-43620000D01*
X14556445Y-42623555D02*
X13097324Y-40332676D01*
X16030000Y-43620000D02*
X14556445Y-42623555D01*
X12614934Y-36184934D02*
X12650000Y-33810000D01*
X12719949Y-39189949D02*
X12614934Y-36184934D01*
X13097324Y-40332676D02*
X12719949Y-39189949D01*
X16030000Y-43620000D02*
X16372975Y-41272975D01*
X16940954Y-39619046D02*
X18051964Y-38441964D01*
X18051964Y-38441964D02*
X19460746Y-38000746D01*
X16372975Y-41272975D02*
X16940954Y-39619046D01*
X22417987Y-37227987D02*
X22435000Y-35775000D01*
X28377079Y-41252921D02*
X29650000Y-41145000D01*
X19460746Y-38000746D02*
X21633880Y-37933880D01*
X21633880Y-37933880D02*
X22417987Y-37227987D01*
X28377079Y-41252921D02*
X26260000Y-41320000D01*
X26260000Y-41320000D02*
X25180000Y-42659999D01*
X25180000Y-42659999D02*
X22390000Y-44280000D01*
D36*
X43245000Y-60640000D02*
X44610000Y-60730000D01*
X31730000Y-44720000D02*
X31570000Y-42580000D01*
X31570000Y-42580000D02*
X29650000Y-42415000D01*
X51360000Y-59010000D02*
X51195000Y-60640000D01*
X47450000Y-62020000D02*
X44610000Y-60730000D01*
D35*
X29650000Y-42415000D02*
X27230000Y-42659999D01*
D36*
X46650000Y-43685000D02*
X48750000Y-43680000D01*
X48750000Y-43680000D02*
X50390000Y-43090000D01*
X46650000Y-56385000D02*
X48350000Y-56430000D01*
X48170000Y-76590000D02*
X48280000Y-74680000D01*
X43345000Y-76590000D02*
X48170000Y-76590000D01*
X48170000Y-76590000D02*
X51295000Y-76590000D01*
X46650000Y-44955000D02*
X48740000Y-44940000D01*
X48740000Y-44940000D02*
X50390000Y-45630000D01*
D35*
X37050000Y-78250000D02*
X35290000Y-78620000D01*
X30780000Y-78730000D02*
X30049860Y-77840140D01*
X24582000Y-85377200D02*
X26575206Y-79565206D01*
X27949706Y-78049706D02*
X29457756Y-77702244D01*
X30049860Y-77840140D02*
X29457756Y-77702244D01*
X26575206Y-79565206D02*
X27949706Y-78049706D01*
X31735000Y-79685000D02*
X30780000Y-78730000D01*
X35290000Y-78620000D02*
X34300577Y-79730577D01*
X33389982Y-80099982D02*
X32413286Y-80046714D01*
X32413286Y-80046714D02*
X31735000Y-79685000D01*
X33389982Y-80099982D02*
X34300577Y-79730577D01*
X40260000Y-77090000D02*
X38020000Y-76880000D01*
X32732800Y-77973000D02*
X35700000Y-77110000D01*
X35700000Y-77110000D02*
X38020000Y-76880000D01*
X40260000Y-69470000D02*
X36370000Y-68740000D01*
X36370000Y-68740000D02*
X31300000Y-68740000D01*
X31300000Y-68740000D02*
X28640000Y-69650000D01*
X28640000Y-69650000D02*
X27250000Y-70520000D01*
X27250000Y-70520000D02*
X27090000Y-71810000D01*
X27090000Y-71810000D02*
X27220000Y-73670000D01*
X27220000Y-73670000D02*
X29090000Y-74830000D01*
X29090000Y-74830000D02*
X32732800Y-75052000D01*
X50090000Y-85354999D02*
X50080001Y-83350000D01*
X50090000Y-87404999D02*
X45050000Y-85770000D01*
D36*
X33680000Y-39270000D02*
X37680000Y-39480000D01*
X37680000Y-39480000D02*
X41280000Y-44250000D01*
X41280000Y-44250000D02*
X42690000Y-49990000D01*
X42690000Y-49990000D02*
X42840000Y-52200000D01*
X27140000Y-33140000D02*
X22815000Y-32980000D01*
X32915647Y-37364353D02*
X32166704Y-36093296D01*
X32915647Y-37364353D02*
X33680000Y-39270000D01*
X31000616Y-34679384D02*
X29437584Y-33857584D01*
X29437584Y-33857584D02*
X27140000Y-33140000D01*
X32166704Y-36093296D02*
X31000616Y-34679384D01*
D35*
X50080001Y-81300000D02*
X45050000Y-83270000D01*
D36*
X44030000Y-38080000D02*
X44080000Y-31980000D01*
X46650000Y-42415000D02*
X44917811Y-42372189D01*
X44917811Y-42372189D02*
X44030000Y-38080000D01*
X44080000Y-31980000D02*
X43520000Y-27120000D01*
X43520000Y-27120000D02*
X42780000Y-24160000D01*
X42780000Y-24160000D02*
X41120000Y-22700000D01*
X45040000Y-46200000D02*
X46650000Y-46225000D01*
X44899239Y-45950761D02*
X43990000Y-41430000D01*
X45040000Y-46200000D02*
X44899239Y-45950761D01*
X43990000Y-41430000D02*
X43180000Y-37330000D01*
X43180000Y-37330000D02*
X42820000Y-29540000D01*
X42820000Y-29540000D02*
X41120000Y-25240000D01*
X24200000Y-49450000D02*
X21670000Y-49560000D01*
X21670000Y-49560000D02*
X20150000Y-51540000D01*
X20150000Y-51540000D02*
X19830000Y-54010000D01*
X27914971Y-50044971D02*
X24610000Y-51200000D01*
X29650000Y-50035000D02*
X27914971Y-50044971D01*
X24365000Y-51275000D02*
X23280000Y-52460000D01*
X24365000Y-51275000D02*
X24610000Y-51200000D01*
X23280000Y-52460000D02*
X22370000Y-54010000D01*
X29650000Y-53845000D02*
X28018980Y-53811020D01*
X28018980Y-53811020D02*
X23550000Y-55230000D01*
X23550000Y-55230000D02*
X21880000Y-55290000D01*
X21880000Y-55290000D02*
X20540000Y-55290000D01*
X20540000Y-55290000D02*
X19830000Y-56550000D01*
X29650000Y-55115000D02*
X28247487Y-55112513D01*
X22370000Y-56550000D02*
X26320000Y-55350000D01*
X26320000Y-55350000D02*
X28247487Y-55112513D01*
X21050000Y-57870000D02*
X20510000Y-58050000D01*
X20510000Y-58050000D02*
X19830000Y-59090000D01*
X23056520Y-57793480D02*
X21050000Y-57870000D01*
X25425109Y-58404891D02*
X23056520Y-57793480D01*
X28280995Y-58859005D02*
X26604143Y-58634143D01*
X26604143Y-58634143D02*
X25425109Y-58404891D01*
X33195148Y-59124852D02*
X33665718Y-58925718D01*
X33705000Y-57385000D02*
X33665718Y-58925718D01*
X33195148Y-59124852D02*
X28280995Y-58859005D01*
X42595000Y-57385000D02*
X42410000Y-58840000D01*
X32020000Y-59720000D02*
X28200000Y-59640000D01*
X28200000Y-59640000D02*
X23919552Y-59330448D01*
X23919552Y-59330448D02*
X22370000Y-59090000D01*
X42410000Y-58840000D02*
X41474462Y-59125538D01*
X40667293Y-59427293D02*
X39382942Y-59652942D01*
X41474462Y-59125538D02*
X40667293Y-59427293D01*
X37562203Y-59782203D02*
X35221303Y-59838697D01*
X35221303Y-59838697D02*
X32020000Y-59720000D01*
X39382942Y-59652942D02*
X37562203Y-59782203D01*
X43865000Y-57385000D02*
X43710000Y-59520000D01*
X22269231Y-63690769D02*
X20996138Y-63503862D01*
X22269231Y-63690769D02*
X23311567Y-63491567D01*
X20996138Y-63503862D02*
X20277032Y-62962968D01*
X19830000Y-61630000D02*
X20277032Y-62962968D01*
X24307667Y-62667667D02*
X26207879Y-61007879D01*
X23311567Y-63491567D02*
X24307667Y-62667667D01*
X26883068Y-60663068D02*
X26207879Y-61007879D01*
X28117019Y-60372981D02*
X29010748Y-60309252D01*
X28117019Y-60372981D02*
X26883068Y-60663068D01*
X41404210Y-60315790D02*
X40405096Y-60714904D01*
X40405096Y-60714904D02*
X29010748Y-60309252D01*
X41773428Y-59783428D02*
X42526395Y-59506395D01*
X43710000Y-59520000D02*
X42526395Y-59506395D01*
X41773428Y-59783428D02*
X41404210Y-60315790D01*
X41716892Y-62066892D02*
X40520000Y-61340000D01*
X20180000Y-60340000D02*
X21520000Y-60370000D01*
X21520000Y-60370000D02*
X22370000Y-61630000D01*
X25605556Y-62615556D02*
X24720000Y-64200000D01*
X26180000Y-62250000D02*
X25605556Y-62615556D01*
X46080000Y-63470000D02*
X43628718Y-62791282D01*
X43628718Y-62791282D02*
X41716892Y-62066892D01*
X47060000Y-63470000D02*
X46080000Y-63470000D01*
X48388595Y-62331405D02*
X48537601Y-61357601D01*
X48276399Y-62596399D02*
X47766745Y-63146745D01*
X47766745Y-63146745D02*
X47060000Y-63470000D01*
X48276399Y-62596399D02*
X48388595Y-62331405D01*
X45600000Y-57820000D02*
X45150927Y-57210927D01*
X48540787Y-60530787D02*
X48117417Y-59622583D01*
X48537601Y-61357601D02*
X48540787Y-60530787D01*
X48117417Y-59622583D02*
X47642465Y-59097535D01*
X47642465Y-59097535D02*
X46813969Y-58466031D01*
X46813969Y-58466031D02*
X45600000Y-57820000D01*
X28281583Y-61401583D02*
X29529949Y-61170051D01*
X40520000Y-61340000D02*
X29529949Y-61170051D01*
X28281583Y-61401583D02*
X26180000Y-62250000D01*
X18060000Y-61940000D02*
X18060000Y-61130000D01*
X18060000Y-61130000D02*
X18225313Y-60605313D01*
X18225313Y-60605313D02*
X18765082Y-60384918D01*
X18765082Y-60384918D02*
X20180000Y-60340000D01*
X18798428Y-63621572D02*
X18249566Y-62840434D01*
X18249566Y-62840434D02*
X18060000Y-61940000D01*
X19087067Y-63842933D02*
X18798428Y-63621572D01*
X21397287Y-64697287D02*
X20553576Y-64606424D01*
X20119669Y-64480331D02*
X19419067Y-64110933D01*
X19419067Y-64110933D02*
X19087067Y-63842933D01*
X20553576Y-64606424D02*
X20119669Y-64480331D01*
X23132027Y-64652027D02*
X24322866Y-64382866D01*
X24720000Y-64200000D02*
X24322866Y-64382866D01*
X23132027Y-64652027D02*
X21397287Y-64697287D01*
X44983776Y-55736224D02*
X45299390Y-55300610D01*
X46650000Y-55115000D02*
X45299390Y-55300610D01*
X44983776Y-55736224D02*
X45150927Y-57210927D01*
X40260000Y-84710000D02*
X37360000Y-81930000D01*
X37050000Y-79550000D02*
X37360000Y-81930000D01*
X40260000Y-72010000D02*
X36160000Y-73600000D01*
X34439181Y-73410819D02*
X33230135Y-72959865D01*
X36160000Y-73600000D02*
X34439181Y-73410819D01*
X33230135Y-72959865D02*
X31840000Y-71920000D01*
X24190000Y-46950000D02*
X22790000Y-47620000D01*
X44710000Y-95100000D02*
X45020000Y-90900000D01*
X44575077Y-103144923D02*
X44432000Y-101772000D01*
X44432000Y-101772000D02*
X44710000Y-95100000D01*
X45266622Y-104013378D02*
X44752199Y-103537801D01*
X46345000Y-104335000D02*
X45266622Y-104013378D01*
X44752199Y-103537801D02*
X44575077Y-103144923D01*
X37890000Y-100210000D02*
X39910000Y-100430000D01*
X39910000Y-100430000D02*
X41395000Y-100525000D01*
X46650000Y-53845000D02*
X44910000Y-53840000D01*
X43810000Y-98120000D02*
X43710000Y-94930000D01*
X43710000Y-94930000D02*
X42904919Y-86734919D01*
X43123417Y-100463417D02*
X43558316Y-100011684D01*
X43558316Y-100011684D02*
X43810000Y-98120000D01*
X41395000Y-100525000D02*
X43123417Y-100463417D01*
X42875854Y-84505854D02*
X43150596Y-82500596D01*
X42904919Y-86734919D02*
X42875854Y-84505854D01*
X43338946Y-81988946D02*
X44302983Y-80822983D01*
X47130000Y-79170000D02*
X44302983Y-80822983D01*
X43338946Y-81988946D02*
X43150596Y-82500596D01*
X41395000Y-99255000D02*
X38730000Y-99430000D01*
X46650000Y-52575000D02*
X44960000Y-52630000D01*
X42040000Y-67470000D02*
X41810000Y-63650000D01*
X42735218Y-99225218D02*
X42998439Y-98838439D01*
X41395000Y-99255000D02*
X42735218Y-99225218D01*
X42998439Y-98838439D02*
X43090000Y-97610000D01*
X42127193Y-85082807D02*
X42040000Y-67470000D01*
X42441760Y-92148240D02*
X42127193Y-85082807D01*
X43090000Y-97610000D02*
X42441760Y-92148240D01*
X29650000Y-46225000D02*
X31510000Y-46320000D01*
X31510000Y-46320000D02*
X31590000Y-49950000D01*
X31590000Y-49950000D02*
X31810000Y-51760000D01*
X41395000Y-97985000D02*
X39901531Y-98391531D01*
X41395000Y-97985000D02*
X41460000Y-90180000D01*
X41460000Y-90180000D02*
X41480000Y-81040000D01*
X41480000Y-81040000D02*
X41430000Y-69470000D01*
X34240000Y-62010000D02*
X28480000Y-62300000D01*
X27790000Y-56500000D02*
X29650000Y-56385000D01*
X37798185Y-98878185D02*
X38511328Y-98578672D01*
X38511328Y-98578672D02*
X39901531Y-98391531D01*
X37645092Y-101225092D02*
X37021286Y-100641286D01*
X37021286Y-100641286D02*
X36989473Y-100579473D01*
X38280000Y-101360000D02*
X37645092Y-101225092D01*
X37025264Y-99935264D02*
X37467000Y-99157000D01*
X37467000Y-99157000D02*
X37798185Y-98878185D01*
X36989473Y-100579473D02*
X37025264Y-99935264D01*
X39762273Y-64257727D02*
X38997365Y-63292635D01*
X38453400Y-62786600D02*
X37211561Y-62278439D01*
X38997365Y-63292635D02*
X38453400Y-62786600D01*
X37211561Y-62278439D02*
X34240000Y-62010000D01*
X41398442Y-68961558D02*
X40769772Y-66660228D01*
X40769772Y-66660228D02*
X39762273Y-64257727D01*
X41430000Y-69470000D02*
X41398442Y-68961558D01*
X38900000Y-106250000D02*
X31970000Y-109060000D01*
X38190000Y-105230000D02*
X34260000Y-106240000D01*
X34260000Y-106240000D02*
X31970000Y-106520000D01*
X38740000Y-104130000D02*
X31970000Y-103980000D01*
X38640000Y-102910000D02*
X31970000Y-101440000D01*
X39030000Y-97510000D02*
X35600000Y-98250000D01*
X35600000Y-98250000D02*
X31970000Y-98900000D01*
X31970000Y-96360000D02*
X39040000Y-96240000D01*
X31970000Y-93820000D02*
X36444885Y-94345115D01*
X38520316Y-94729684D02*
X36444885Y-94345115D01*
X38520316Y-94729684D02*
X39040000Y-94900000D01*
X38367398Y-93062602D02*
X39060000Y-93650000D01*
X37122465Y-92557535D02*
X34421696Y-91738304D01*
X31970000Y-91280000D02*
X34421696Y-91738304D01*
X38367398Y-93062602D02*
X37122465Y-92557535D01*
X50550000Y-93260000D02*
X48430000Y-94140000D01*
X48036791Y-102986791D02*
X48404363Y-101685637D01*
X48430000Y-94140000D02*
X48404363Y-101685637D01*
X48036791Y-102986791D02*
X46345000Y-103065000D01*
X50550000Y-95800000D02*
X49140000Y-96900000D01*
X49140000Y-96900000D02*
X49180000Y-102320000D01*
X49180000Y-102320000D02*
X47940000Y-104960000D01*
X47940000Y-104960000D02*
X46345000Y-105605000D01*
X47780000Y-101460000D02*
X46345000Y-101795000D01*
X47780000Y-92860000D02*
X47780000Y-101460000D01*
X50550000Y-90720000D02*
X47780000Y-92860000D01*
X46345000Y-106875000D02*
X47900000Y-106870000D01*
X50550000Y-108500000D02*
X48540000Y-110350000D01*
X48540000Y-110350000D02*
X45140000Y-110780000D01*
X39850000Y-102470000D02*
X41395000Y-101795000D01*
X39444576Y-107974576D02*
X39872445Y-105582445D01*
X39872445Y-105582445D02*
X39850000Y-102470000D01*
X41368717Y-111161283D02*
X42946489Y-111196489D01*
X45140000Y-110780000D02*
X42946489Y-111196489D01*
X41044662Y-111045338D02*
X40135125Y-110474875D01*
X41368717Y-111161283D02*
X41044662Y-111045338D01*
X39807419Y-110062581D02*
X39414308Y-109044308D01*
X39444576Y-107974576D02*
X39414308Y-109044308D01*
X39807419Y-110062581D02*
X40135125Y-110474875D01*
X44703333Y-109686667D02*
X45370000Y-109740000D01*
X41395000Y-105605000D02*
X42930000Y-106270000D01*
X42909808Y-107299808D02*
X43306775Y-108563225D01*
X42930000Y-106270000D02*
X42909808Y-107299808D01*
X49390000Y-107500000D02*
X50550000Y-105960000D01*
X44012698Y-109237302D02*
X44703333Y-109686667D01*
X43306775Y-108563225D02*
X44012698Y-109237302D01*
X48399227Y-108769227D02*
X47041986Y-109551986D01*
X45370000Y-109740000D02*
X47041986Y-109551986D01*
X48399227Y-108769227D02*
X49390000Y-107500000D01*
X50550000Y-103420000D02*
X48940000Y-105280000D01*
X46721482Y-108871482D02*
X45560000Y-108990000D01*
X48206011Y-107856011D02*
X48793091Y-107056909D01*
X48940000Y-105280000D02*
X48793091Y-107056909D01*
X48206011Y-107856011D02*
X46721482Y-108871482D01*
X45560000Y-108990000D02*
X44430000Y-108550000D01*
X42730000Y-104590000D02*
X41395000Y-104335000D01*
X44430000Y-108550000D02*
X43746357Y-107533643D01*
X43746357Y-107533643D02*
X43540000Y-106010000D01*
X43540000Y-106010000D02*
X42730000Y-104590000D01*
X44810000Y-107620000D02*
X43120000Y-103160000D01*
X43120000Y-103160000D02*
X41395000Y-103065000D01*
X46650000Y-51305000D02*
X44960000Y-51340000D01*
X44960000Y-51340000D02*
X44210000Y-50710000D01*
X43487394Y-49532606D02*
X40880000Y-38450000D01*
X44210000Y-50710000D02*
X43487394Y-49532606D01*
X40880000Y-38450000D02*
X40420000Y-34280000D01*
X39297088Y-33102912D02*
X38178284Y-32341716D01*
X40420000Y-34280000D02*
X39297088Y-33102912D01*
X37505483Y-32024517D02*
X35410402Y-31459598D01*
X35410402Y-31459598D02*
X25900000Y-29960000D01*
X38178284Y-32341716D02*
X37505483Y-32024517D01*
X15767056Y-29982944D02*
X14456468Y-30406468D01*
X14456468Y-30406468D02*
X12650000Y-31270000D01*
X18530239Y-29630239D02*
X16682355Y-29807645D01*
X16682355Y-29807645D02*
X15767056Y-29982944D01*
X25900000Y-29960000D02*
X18530239Y-29630239D01*
X46650000Y-50035000D02*
X44880000Y-50100000D01*
X44880000Y-50100000D02*
X43930000Y-48750000D01*
X43930000Y-48750000D02*
X41890000Y-38320000D01*
X41271093Y-32518907D02*
X40818566Y-31641434D01*
X41890000Y-38320000D02*
X41271093Y-32518907D01*
X40818566Y-31641434D02*
X40361935Y-31188065D01*
X37022470Y-30197530D02*
X28320000Y-28790000D01*
X38559079Y-30580921D02*
X37022470Y-30197530D01*
X40361935Y-31188065D02*
X38559079Y-30580921D01*
X28320000Y-28790000D02*
X25336602Y-27883398D01*
X22067569Y-27117569D02*
X19014611Y-26545389D01*
X25336602Y-27883398D02*
X22067569Y-27117569D01*
X18494161Y-26485839D02*
X16058857Y-26278857D01*
X19014611Y-26545389D02*
X18494161Y-26485839D01*
X16058857Y-26278857D02*
X12650000Y-26190000D01*
X46650000Y-48765000D02*
X44800000Y-48590000D01*
X15967838Y-24292162D02*
X30590000Y-28410000D01*
X15967838Y-24292162D02*
X12650000Y-23650000D01*
X42660000Y-38560000D02*
X44503497Y-47963497D01*
X44800000Y-48590000D02*
X44503497Y-47963497D01*
X42003451Y-31766549D02*
X41336350Y-30633650D01*
X42003451Y-31766549D02*
X42660000Y-38560000D01*
X40989810Y-30360190D02*
X39830287Y-29850287D01*
X30590000Y-28410000D02*
X39830287Y-29850287D01*
X40989810Y-30360190D02*
X41336350Y-30633650D01*
X46010000Y-34180000D02*
X46010000Y-34180000D01*
X46010000Y-34180000D02*
X46010000Y-34180000D01*
X46650000Y-41145000D02*
X45285530Y-41034470D01*
X45285530Y-41034470D02*
X45030000Y-39530000D01*
X45030000Y-39530000D02*
X46010000Y-34180000D01*
X32330000Y-30210000D02*
X26650000Y-29280000D01*
X40430000Y-32870000D02*
X39830930Y-32089070D01*
X38833932Y-31606068D02*
X37082886Y-31027114D01*
X37082886Y-31027114D02*
X32330000Y-30210000D01*
X39830930Y-32089070D02*
X38833932Y-31606068D01*
X26650000Y-29280000D02*
X20620000Y-28710000D01*
X20620000Y-28710000D02*
X16590000Y-28550000D01*
X16590000Y-28550000D02*
X12650000Y-28730000D01*
X13368100Y-88651900D02*
X15560000Y-88220000D01*
X15560000Y-88220000D02*
X14760000Y-77960000D01*
X14760000Y-77960000D02*
X13970000Y-72090000D01*
X20620000Y-45630000D02*
X19310000Y-47240000D01*
X19310000Y-47240000D02*
X17240000Y-51200000D01*
X13970000Y-72090000D02*
X14064227Y-71904227D01*
X14064227Y-71904227D02*
X15080000Y-67540000D01*
X15080000Y-67540000D02*
X15080000Y-61780000D01*
X15080000Y-61780000D02*
X14870012Y-56530012D01*
X14870012Y-56530012D02*
X14830000Y-56620000D01*
X17240000Y-51200000D02*
X14870012Y-56530012D01*
X20620000Y-45630000D02*
X23000000Y-45150000D01*
X23000000Y-45150000D02*
X25750000Y-44230000D01*
X25750000Y-44230000D02*
X29650000Y-43685000D01*
X21230000Y-46570000D02*
X19660259Y-47930259D01*
X16590000Y-59100000D02*
X17866145Y-52026145D01*
X17866145Y-52026145D02*
X19660259Y-47930259D01*
X29650000Y-44955000D02*
X26310000Y-45200000D01*
X26310000Y-45200000D02*
X23190000Y-45750000D01*
X23190000Y-45750000D02*
X21230000Y-46570000D01*
X27530000Y-52590000D02*
X29650000Y-52575000D01*
X18460000Y-42830000D02*
X18625000Y-40725000D01*
X16500000Y-34725000D02*
X16415000Y-32630000D01*
X34308868Y-32521132D02*
X33333419Y-31966581D01*
X35324888Y-33495112D02*
X35720472Y-34359528D01*
X36260000Y-37810000D02*
X35720472Y-34359528D01*
X35324888Y-33495112D02*
X34308868Y-32521132D01*
X17360713Y-31340713D02*
X18944231Y-30624231D01*
X17360713Y-31340713D02*
X16415000Y-32630000D01*
X19472115Y-30542115D02*
X21205037Y-30494963D01*
X19472115Y-30542115D02*
X18944231Y-30624231D01*
X26233302Y-30786698D02*
X23692856Y-30567144D01*
X23692856Y-30567144D02*
X21205037Y-30494963D01*
X33333419Y-31966581D02*
X26233302Y-30786698D01*
X34000000Y-37200000D02*
X34370000Y-38330000D01*
X29230000Y-32510000D02*
X30992715Y-33477285D01*
X33348701Y-35698701D02*
X31883810Y-34196190D01*
X31883810Y-34196190D02*
X30992715Y-33477285D01*
X33348701Y-35698701D02*
X34000000Y-37200000D01*
X27211524Y-31888476D02*
X24146831Y-31496831D01*
X22640000Y-31530000D02*
X24146831Y-31496831D01*
X27211524Y-31888476D02*
X29230000Y-32510000D01*
X20569894Y-31559894D02*
X19379817Y-31939817D01*
X19379817Y-31939817D02*
X18465000Y-32630000D01*
X22640000Y-31530000D02*
X20569894Y-31559894D01*
X29650000Y-48765000D02*
X27340000Y-49040000D01*
X27340000Y-49040000D02*
X25500000Y-49450000D01*
X25500000Y-49450000D02*
X25490000Y-46950000D01*
X27550000Y-51330000D02*
X29650000Y-51305000D01*
X20110000Y-42820000D02*
X19895000Y-40725000D01*
X21165000Y-35775000D02*
X20765000Y-32980000D01*
X16500000Y-36775000D02*
X18625000Y-35775000D01*
X29650000Y-47495000D02*
X27790000Y-47380000D01*
X27790000Y-47380000D02*
X27520000Y-47370000D01*
X21690000Y-42790000D02*
X21165000Y-40725000D01*
M02*
