G04 #@! TF.GenerationSoftware,KiCad,Pcbnew,(5.1.2-1)-1*
G04 #@! TF.CreationDate,2023-08-23T14:56:14-04:00*
G04 #@! TF.ProjectId,ESP32_AudioBoard_Rev2,45535033-325f-4417-9564-696f426f6172,rev?*
G04 #@! TF.SameCoordinates,Original*
G04 #@! TF.FileFunction,Legend,Top*
G04 #@! TF.FilePolarity,Positive*
%FSLAX46Y46*%
G04 Gerber Fmt 4.6, Leading zero omitted, Abs format (unit mm)*
G04 Created by KiCad (PCBNEW (5.1.2-1)-1) date 2023-08-23 14:56:14*
%MOMM*%
%LPD*%
G04 APERTURE LIST*
%ADD10C,0.120000*%
%ADD11C,0.150000*%
%ADD12C,0.100000*%
G04 APERTURE END LIST*
D10*
X11740000Y-39460000D02*
X12690000Y-39640000D01*
X12510000Y-39990000D02*
X11740000Y-39460000D01*
X12280000Y-40810000D02*
X12510000Y-39990000D01*
X12920000Y-40070000D02*
X12280000Y-40810000D01*
X13530000Y-40990000D02*
X12920000Y-40070000D01*
X13180000Y-39940000D02*
X13530000Y-40990000D01*
X14120000Y-39790000D02*
X13180000Y-39940000D01*
X13100000Y-39580000D02*
X14120000Y-39790000D01*
X12920000Y-38100000D02*
X13100000Y-39580000D01*
X12590000Y-39690000D02*
X12920000Y-38100000D01*
X14830000Y-22970000D02*
X15140000Y-22430000D01*
X15320000Y-22680000D02*
X14830000Y-22970000D01*
X15610000Y-23240000D02*
X15320000Y-22680000D01*
X15660000Y-22520000D02*
X15610000Y-23240000D01*
X15860000Y-22790000D02*
X15660000Y-22520000D01*
X15770000Y-21900000D02*
X15860000Y-22790000D01*
X16170000Y-21270000D02*
X15770000Y-21900000D01*
X15390000Y-21920000D02*
X16170000Y-21270000D01*
X14960000Y-21290000D02*
X15390000Y-21920000D01*
X15190000Y-22410000D02*
X14960000Y-21290000D01*
X19230000Y-23000000D02*
X19910000Y-23830000D01*
X19610000Y-24230000D02*
X19230000Y-23000000D01*
X19250000Y-25450000D02*
X19610000Y-24230000D01*
X20200000Y-24520000D02*
X19250000Y-25450000D01*
X20920000Y-25270000D02*
X20200000Y-24520000D01*
X20670000Y-24350000D02*
X20920000Y-25270000D01*
X21100000Y-23630000D02*
X20670000Y-24350000D01*
X20510000Y-23870000D02*
X21100000Y-23630000D01*
X20440000Y-22910000D02*
X20510000Y-23870000D01*
X19860000Y-23990000D02*
X20440000Y-22910000D01*
X20690000Y-22190000D02*
X21780000Y-22480000D01*
X19690000Y-21930000D02*
X20690000Y-22190000D01*
X18590000Y-22230000D02*
X19690000Y-21930000D01*
X17540000Y-23800000D02*
X18590000Y-22230000D01*
X17560000Y-25290000D02*
X17540000Y-23800000D01*
X18120000Y-27310000D02*
X17560000Y-25290000D01*
X19950000Y-27690000D02*
X18120000Y-27310000D01*
X21350000Y-27140000D02*
X19950000Y-27690000D01*
X21010000Y-28080000D02*
X21350000Y-27140000D01*
X19440000Y-29250000D02*
X21010000Y-28080000D01*
X17590000Y-29310000D02*
X19440000Y-29250000D01*
X16480000Y-27990000D02*
X17590000Y-29310000D01*
X15930000Y-25250000D02*
X16480000Y-27990000D01*
X16120000Y-22970000D02*
X15930000Y-25250000D01*
X16880000Y-21740000D02*
X16100000Y-22950000D01*
X18310000Y-20870000D02*
X16880000Y-21740000D01*
X20520000Y-20850000D02*
X18310000Y-20870000D01*
X21820000Y-22480000D02*
X20520000Y-20850000D01*
X13820000Y-53080000D02*
X14380000Y-52450000D01*
X13110000Y-52840000D02*
X13820000Y-53080000D01*
X12680000Y-51140000D02*
X13110000Y-52840000D01*
X12780000Y-49580000D02*
X12680000Y-51140000D01*
X13420000Y-48120000D02*
X12780000Y-49580000D01*
X11880000Y-47810000D02*
X13420000Y-48120000D01*
X11300000Y-47250000D02*
X11880000Y-47810000D01*
X11310000Y-45980000D02*
X11300000Y-47250000D01*
X11990000Y-45310000D02*
X11310000Y-45980000D01*
X13700000Y-46300000D02*
X11990000Y-45310000D01*
X15440000Y-51620000D02*
X13740000Y-44730000D01*
X16510000Y-51250000D02*
X15520000Y-50390000D01*
X17860000Y-51490000D02*
X16510000Y-51250000D01*
X18590000Y-51320000D02*
X17860000Y-51490000D01*
X18690000Y-49940000D02*
X18590000Y-51320000D01*
X17960000Y-48630000D02*
X18690000Y-49940000D01*
X16240000Y-47960000D02*
X17960000Y-48630000D01*
X16850000Y-46990000D02*
X16240000Y-47960000D01*
X17040000Y-45920000D02*
X16850000Y-46990000D01*
X16730000Y-44860000D02*
X17040000Y-45920000D01*
X15770000Y-44780000D02*
X16730000Y-44860000D01*
X14840000Y-46160000D02*
X15770000Y-44780000D01*
X12390000Y-45480000D02*
X13700000Y-46410000D01*
X11630000Y-45480000D02*
X12390000Y-45480000D01*
X11220000Y-46790000D02*
X11630000Y-45480000D01*
X11910000Y-47820000D02*
X11220000Y-46790000D01*
X13350000Y-48260000D02*
X11910000Y-47820000D01*
X15310000Y-45140000D02*
X14690000Y-46130000D01*
X15790000Y-44860000D02*
X15310000Y-45140000D01*
X16450000Y-44860000D02*
X15790000Y-44860000D01*
X16860000Y-45200000D02*
X16450000Y-44860000D01*
X16790000Y-46720000D02*
X16860000Y-45200000D01*
X16100000Y-47750000D02*
X16790000Y-46720000D01*
X17380000Y-48130000D02*
X16100000Y-47750000D01*
X18610000Y-49780000D02*
X17380000Y-48130000D01*
X18650000Y-51220000D02*
X18610000Y-49780000D01*
X17100000Y-51530000D02*
X18650000Y-51220000D01*
X15490000Y-50500000D02*
X17100000Y-51530000D01*
X13970000Y-52940000D02*
X14560000Y-51120000D01*
X13250000Y-52980000D02*
X13970000Y-52940000D01*
X12840000Y-51810000D02*
X13250000Y-52980000D01*
X12840000Y-49610000D02*
X12840000Y-51810000D01*
X13280000Y-48260000D02*
X12840000Y-49610000D01*
X15280000Y-51700000D02*
X13800000Y-44590000D01*
D11*
X18254282Y-87554622D02*
X17889460Y-86552283D01*
X17993695Y-86838665D02*
X17986325Y-86679187D01*
X18005013Y-86591305D01*
X18068449Y-86487136D01*
X18157944Y-86454563D01*
X19167916Y-87141006D02*
X19104480Y-87245175D01*
X18925491Y-87310321D01*
X18809937Y-87271299D01*
X18713073Y-87144395D01*
X18504603Y-86571630D01*
X18497233Y-86412152D01*
X18560669Y-86307983D01*
X18739658Y-86242836D01*
X18855211Y-86281858D01*
X18952076Y-86408763D01*
X19004193Y-86551954D01*
X18608838Y-86858012D01*
X19187131Y-86079969D02*
X19775689Y-87000875D01*
X19634604Y-85917102D01*
X20533497Y-85184531D02*
X20552186Y-85096649D01*
X20615622Y-84992480D01*
X20839358Y-84911046D01*
X20954911Y-84950068D01*
X21025717Y-85005377D01*
X21122582Y-85132282D01*
X21174699Y-85275473D01*
X21208128Y-85506547D01*
X20983865Y-86561134D01*
X21565579Y-86349408D01*
X20958095Y-49092380D02*
X21529523Y-49092380D01*
X21243809Y-50092380D02*
X21243809Y-49092380D01*
X21910476Y-50092380D02*
X22100952Y-50092380D01*
X22196190Y-50044761D01*
X22243809Y-49997142D01*
X22339047Y-49854285D01*
X22386666Y-49663809D01*
X22386666Y-49282857D01*
X22339047Y-49187619D01*
X22291428Y-49140000D01*
X22196190Y-49092380D01*
X22005714Y-49092380D01*
X21910476Y-49140000D01*
X21862857Y-49187619D01*
X21815238Y-49282857D01*
X21815238Y-49520952D01*
X21862857Y-49616190D01*
X21910476Y-49663809D01*
X22005714Y-49711428D01*
X22196190Y-49711428D01*
X22291428Y-49663809D01*
X22339047Y-49616190D01*
X22386666Y-49520952D01*
X18157142Y-46946666D02*
X18633333Y-46946666D01*
X18061904Y-47232380D02*
X18395238Y-46232380D01*
X18728571Y-47232380D01*
X18823809Y-47327619D02*
X19585714Y-47327619D01*
X19823809Y-47232380D02*
X19823809Y-46565714D01*
X19823809Y-46660952D02*
X19871428Y-46613333D01*
X19966666Y-46565714D01*
X20109523Y-46565714D01*
X20204761Y-46613333D01*
X20252380Y-46708571D01*
X20252380Y-47232380D01*
X20252380Y-46708571D02*
X20300000Y-46613333D01*
X20395238Y-46565714D01*
X20538095Y-46565714D01*
X20633333Y-46613333D01*
X20680952Y-46708571D01*
X20680952Y-47232380D01*
X21585714Y-46565714D02*
X21585714Y-47232380D01*
X21157142Y-46565714D02*
X21157142Y-47089523D01*
X21204761Y-47184761D01*
X21300000Y-47232380D01*
X21442857Y-47232380D01*
X21538095Y-47184761D01*
X21585714Y-47137142D01*
X21966666Y-47232380D02*
X22490476Y-46565714D01*
X21966666Y-46565714D02*
X22490476Y-47232380D01*
X17077504Y-82198778D02*
X17419524Y-81259085D01*
X17289231Y-81617063D02*
X17421860Y-81614661D01*
X17654546Y-81699352D01*
X17754602Y-81786445D01*
X17796487Y-81852365D01*
X17822085Y-81963032D01*
X17724365Y-82231516D01*
X17633620Y-82299837D01*
X17559162Y-82323412D01*
X17426533Y-82325814D01*
X17193847Y-82241123D01*
X17093791Y-82154031D01*
X18357276Y-82664577D02*
X18257220Y-82577484D01*
X18215335Y-82511564D01*
X18189737Y-82400897D01*
X18287457Y-82132413D01*
X18378202Y-82064091D01*
X18452660Y-82040517D01*
X18585289Y-82038115D01*
X18759804Y-82101633D01*
X18859860Y-82188726D01*
X18901745Y-82254646D01*
X18927343Y-82365313D01*
X18829623Y-82633796D01*
X18738878Y-82702118D01*
X18664420Y-82725693D01*
X18531790Y-82728095D01*
X18357276Y-82664577D01*
X19811562Y-83193894D02*
X19990715Y-82701674D01*
X19965117Y-82591006D01*
X19865061Y-82503914D01*
X19632375Y-82419223D01*
X19499746Y-82421625D01*
X19827849Y-83149146D02*
X19695219Y-83151548D01*
X19404362Y-83045685D01*
X19304306Y-82958592D01*
X19278708Y-82847925D01*
X19311281Y-82758431D01*
X19402026Y-82690109D01*
X19534655Y-82687707D01*
X19825512Y-82793570D01*
X19958142Y-82791168D01*
X20393276Y-83405620D02*
X20621290Y-82779159D01*
X20556143Y-82958148D02*
X20646888Y-82889826D01*
X20721346Y-82866251D01*
X20853976Y-82863849D01*
X20970319Y-82906195D01*
X21673048Y-83871419D02*
X22015068Y-82931727D01*
X21689335Y-83826672D02*
X21556705Y-83829074D01*
X21324020Y-83744383D01*
X21223963Y-83657291D01*
X21182079Y-83591371D01*
X21156481Y-83480703D01*
X21254201Y-83212220D01*
X21344945Y-83143898D01*
X21419403Y-83120323D01*
X21552033Y-83117921D01*
X21784719Y-83202612D01*
X21884775Y-83289705D01*
X16359523Y-79648095D02*
X16359523Y-78348095D01*
X16854761Y-78348095D01*
X16978571Y-78410000D01*
X17040476Y-78471904D01*
X17102380Y-78595714D01*
X17102380Y-78781428D01*
X17040476Y-78905238D01*
X16978571Y-78967142D01*
X16854761Y-79029047D01*
X16359523Y-79029047D01*
X17659523Y-79524285D02*
X17721428Y-79586190D01*
X17659523Y-79648095D01*
X17597619Y-79586190D01*
X17659523Y-79524285D01*
X17659523Y-79648095D01*
X18278571Y-79648095D02*
X18278571Y-78781428D01*
X18278571Y-79029047D02*
X18340476Y-78905238D01*
X18402380Y-78843333D01*
X18526190Y-78781428D01*
X18650000Y-78781428D01*
X19269047Y-79648095D02*
X19145238Y-79586190D01*
X19083333Y-79524285D01*
X19021428Y-79400476D01*
X19021428Y-79029047D01*
X19083333Y-78905238D01*
X19145238Y-78843333D01*
X19269047Y-78781428D01*
X19454761Y-78781428D01*
X19578571Y-78843333D01*
X19640476Y-78905238D01*
X19702380Y-79029047D01*
X19702380Y-79400476D01*
X19640476Y-79524285D01*
X19578571Y-79586190D01*
X19454761Y-79648095D01*
X19269047Y-79648095D01*
X20073809Y-78781428D02*
X20569047Y-78781428D01*
X20259523Y-78348095D02*
X20259523Y-79462380D01*
X20321428Y-79586190D01*
X20445238Y-79648095D01*
X20569047Y-79648095D01*
X21188095Y-79648095D02*
X21064285Y-79586190D01*
X21002380Y-79524285D01*
X20940476Y-79400476D01*
X20940476Y-79029047D01*
X21002380Y-78905238D01*
X21064285Y-78843333D01*
X21188095Y-78781428D01*
X21373809Y-78781428D01*
X21497619Y-78843333D01*
X21559523Y-78905238D01*
X21621428Y-79029047D01*
X21621428Y-79400476D01*
X21559523Y-79524285D01*
X21497619Y-79586190D01*
X21373809Y-79648095D01*
X21188095Y-79648095D01*
X21992857Y-78781428D02*
X22488095Y-78781428D01*
X22178571Y-78348095D02*
X22178571Y-79462380D01*
X22240476Y-79586190D01*
X22364285Y-79648095D01*
X22488095Y-79648095D01*
X22797619Y-78781428D02*
X23107142Y-79648095D01*
X23416666Y-78781428D02*
X23107142Y-79648095D01*
X22983333Y-79957619D01*
X22921428Y-80019523D01*
X22797619Y-80081428D01*
X23911904Y-78781428D02*
X23911904Y-80081428D01*
X23911904Y-78843333D02*
X24035714Y-78781428D01*
X24283333Y-78781428D01*
X24407142Y-78843333D01*
X24469047Y-78905238D01*
X24530952Y-79029047D01*
X24530952Y-79400476D01*
X24469047Y-79524285D01*
X24407142Y-79586190D01*
X24283333Y-79648095D01*
X24035714Y-79648095D01*
X23911904Y-79586190D01*
X25088095Y-79648095D02*
X25088095Y-78781428D01*
X25088095Y-78348095D02*
X25026190Y-78410000D01*
X25088095Y-78471904D01*
X25150000Y-78410000D01*
X25088095Y-78348095D01*
X25088095Y-78471904D01*
X25707142Y-78781428D02*
X25707142Y-79648095D01*
X25707142Y-78905238D02*
X25769047Y-78843333D01*
X25892857Y-78781428D01*
X26078571Y-78781428D01*
X26202380Y-78843333D01*
X26264285Y-78967142D01*
X26264285Y-79648095D01*
X27440476Y-78781428D02*
X27440476Y-79833809D01*
X27378571Y-79957619D01*
X27316666Y-80019523D01*
X27192857Y-80081428D01*
X27007142Y-80081428D01*
X26883333Y-80019523D01*
X27440476Y-79586190D02*
X27316666Y-79648095D01*
X27069047Y-79648095D01*
X26945238Y-79586190D01*
X26883333Y-79524285D01*
X26821428Y-79400476D01*
X26821428Y-79029047D01*
X26883333Y-78905238D01*
X26945238Y-78843333D01*
X27069047Y-78781428D01*
X27316666Y-78781428D01*
X27440476Y-78843333D01*
X15947142Y-77286666D02*
X16566190Y-77286666D01*
X15823333Y-77658095D02*
X16256666Y-76358095D01*
X16690000Y-77658095D01*
X17123333Y-77534285D02*
X17185238Y-77596190D01*
X17123333Y-77658095D01*
X17061428Y-77596190D01*
X17123333Y-77534285D01*
X17123333Y-77658095D01*
X18299523Y-76791428D02*
X18299523Y-77658095D01*
X17742380Y-76791428D02*
X17742380Y-77472380D01*
X17804285Y-77596190D01*
X17928095Y-77658095D01*
X18113809Y-77658095D01*
X18237619Y-77596190D01*
X18299523Y-77534285D01*
X19475714Y-77658095D02*
X19475714Y-76358095D01*
X19475714Y-77596190D02*
X19351904Y-77658095D01*
X19104285Y-77658095D01*
X18980476Y-77596190D01*
X18918571Y-77534285D01*
X18856666Y-77410476D01*
X18856666Y-77039047D01*
X18918571Y-76915238D01*
X18980476Y-76853333D01*
X19104285Y-76791428D01*
X19351904Y-76791428D01*
X19475714Y-76853333D01*
X20094761Y-77658095D02*
X20094761Y-76791428D01*
X20094761Y-76358095D02*
X20032857Y-76420000D01*
X20094761Y-76481904D01*
X20156666Y-76420000D01*
X20094761Y-76358095D01*
X20094761Y-76481904D01*
X20899523Y-77658095D02*
X20775714Y-77596190D01*
X20713809Y-77534285D01*
X20651904Y-77410476D01*
X20651904Y-77039047D01*
X20713809Y-76915238D01*
X20775714Y-76853333D01*
X20899523Y-76791428D01*
X21085238Y-76791428D01*
X21209047Y-76853333D01*
X21270952Y-76915238D01*
X21332857Y-77039047D01*
X21332857Y-77410476D01*
X21270952Y-77534285D01*
X21209047Y-77596190D01*
X21085238Y-77658095D01*
X20899523Y-77658095D01*
X15479523Y-74977142D02*
X15912857Y-74977142D01*
X16098571Y-75658095D02*
X15479523Y-75658095D01*
X15479523Y-74358095D01*
X16098571Y-74358095D01*
X16655714Y-75534285D02*
X16717619Y-75596190D01*
X16655714Y-75658095D01*
X16593809Y-75596190D01*
X16655714Y-75534285D01*
X16655714Y-75658095D01*
X17212857Y-75596190D02*
X17336666Y-75658095D01*
X17584285Y-75658095D01*
X17708095Y-75596190D01*
X17770000Y-75472380D01*
X17770000Y-75410476D01*
X17708095Y-75286666D01*
X17584285Y-75224761D01*
X17398571Y-75224761D01*
X17274761Y-75162857D01*
X17212857Y-75039047D01*
X17212857Y-74977142D01*
X17274761Y-74853333D01*
X17398571Y-74791428D01*
X17584285Y-74791428D01*
X17708095Y-74853333D01*
X18327142Y-74791428D02*
X18327142Y-76091428D01*
X18327142Y-74853333D02*
X18450952Y-74791428D01*
X18698571Y-74791428D01*
X18822380Y-74853333D01*
X18884285Y-74915238D01*
X18946190Y-75039047D01*
X18946190Y-75410476D01*
X18884285Y-75534285D01*
X18822380Y-75596190D01*
X18698571Y-75658095D01*
X18450952Y-75658095D01*
X18327142Y-75596190D01*
X19379523Y-74358095D02*
X20184285Y-74358095D01*
X19750952Y-74853333D01*
X19936666Y-74853333D01*
X20060476Y-74915238D01*
X20122380Y-74977142D01*
X20184285Y-75100952D01*
X20184285Y-75410476D01*
X20122380Y-75534285D01*
X20060476Y-75596190D01*
X19936666Y-75658095D01*
X19565238Y-75658095D01*
X19441428Y-75596190D01*
X19379523Y-75534285D01*
X20679523Y-74481904D02*
X20741428Y-74420000D01*
X20865238Y-74358095D01*
X21174761Y-74358095D01*
X21298571Y-74420000D01*
X21360476Y-74481904D01*
X21422380Y-74605714D01*
X21422380Y-74729523D01*
X21360476Y-74915238D01*
X20617619Y-75658095D01*
X21422380Y-75658095D01*
X14650952Y-73658095D02*
X14650952Y-72358095D01*
X15084285Y-73286666D01*
X15517619Y-72358095D01*
X15517619Y-73658095D01*
X16136666Y-73534285D02*
X16198571Y-73596190D01*
X16136666Y-73658095D01*
X16074761Y-73596190D01*
X16136666Y-73534285D01*
X16136666Y-73658095D01*
X17312857Y-73658095D02*
X17312857Y-72977142D01*
X17250952Y-72853333D01*
X17127142Y-72791428D01*
X16879523Y-72791428D01*
X16755714Y-72853333D01*
X17312857Y-73596190D02*
X17189047Y-73658095D01*
X16879523Y-73658095D01*
X16755714Y-73596190D01*
X16693809Y-73472380D01*
X16693809Y-73348571D01*
X16755714Y-73224761D01*
X16879523Y-73162857D01*
X17189047Y-73162857D01*
X17312857Y-73100952D01*
X17870000Y-73596190D02*
X17993809Y-73658095D01*
X18241428Y-73658095D01*
X18365238Y-73596190D01*
X18427142Y-73472380D01*
X18427142Y-73410476D01*
X18365238Y-73286666D01*
X18241428Y-73224761D01*
X18055714Y-73224761D01*
X17931904Y-73162857D01*
X17870000Y-73039047D01*
X17870000Y-72977142D01*
X17931904Y-72853333D01*
X18055714Y-72791428D01*
X18241428Y-72791428D01*
X18365238Y-72853333D01*
X19170000Y-73658095D02*
X19046190Y-73596190D01*
X18984285Y-73534285D01*
X18922380Y-73410476D01*
X18922380Y-73039047D01*
X18984285Y-72915238D01*
X19046190Y-72853333D01*
X19170000Y-72791428D01*
X19355714Y-72791428D01*
X19479523Y-72853333D01*
X19541428Y-72915238D01*
X19603333Y-73039047D01*
X19603333Y-73410476D01*
X19541428Y-73534285D01*
X19479523Y-73596190D01*
X19355714Y-73658095D01*
X19170000Y-73658095D01*
X20160476Y-72791428D02*
X20160476Y-73658095D01*
X20160476Y-72915238D02*
X20222380Y-72853333D01*
X20346190Y-72791428D01*
X20531904Y-72791428D01*
X20655714Y-72853333D01*
X20717619Y-72977142D01*
X20717619Y-73658095D01*
X21398571Y-72358095D02*
X21274761Y-72605714D01*
X21893809Y-73596190D02*
X22017619Y-73658095D01*
X22265238Y-73658095D01*
X22389047Y-73596190D01*
X22450952Y-73472380D01*
X22450952Y-73410476D01*
X22389047Y-73286666D01*
X22265238Y-73224761D01*
X22079523Y-73224761D01*
X21955714Y-73162857D01*
X21893809Y-73039047D01*
X21893809Y-72977142D01*
X21955714Y-72853333D01*
X22079523Y-72791428D01*
X22265238Y-72791428D01*
X22389047Y-72853333D01*
X24165714Y-72220000D02*
X24832380Y-71981904D01*
X24165714Y-71743809D01*
X24832380Y-71220000D02*
X24784761Y-71315238D01*
X24737142Y-71362857D01*
X24641904Y-71410476D01*
X24356190Y-71410476D01*
X24260952Y-71362857D01*
X24213333Y-71315238D01*
X24165714Y-71220000D01*
X24165714Y-71077142D01*
X24213333Y-70981904D01*
X24260952Y-70934285D01*
X24356190Y-70886666D01*
X24641904Y-70886666D01*
X24737142Y-70934285D01*
X24784761Y-70981904D01*
X24832380Y-71077142D01*
X24832380Y-71220000D01*
X24832380Y-70315238D02*
X24784761Y-70410476D01*
X24689523Y-70458095D01*
X23832380Y-70458095D01*
X24165714Y-69505714D02*
X24832380Y-69505714D01*
X24165714Y-69934285D02*
X24689523Y-69934285D01*
X24784761Y-69886666D01*
X24832380Y-69791428D01*
X24832380Y-69648571D01*
X24784761Y-69553333D01*
X24737142Y-69505714D01*
X24832380Y-69029523D02*
X24165714Y-69029523D01*
X24260952Y-69029523D02*
X24213333Y-68981904D01*
X24165714Y-68886666D01*
X24165714Y-68743809D01*
X24213333Y-68648571D01*
X24308571Y-68600952D01*
X24832380Y-68600952D01*
X24308571Y-68600952D02*
X24213333Y-68553333D01*
X24165714Y-68458095D01*
X24165714Y-68315238D01*
X24213333Y-68220000D01*
X24308571Y-68172380D01*
X24832380Y-68172380D01*
X24784761Y-67315238D02*
X24832380Y-67410476D01*
X24832380Y-67600952D01*
X24784761Y-67696190D01*
X24689523Y-67743809D01*
X24308571Y-67743809D01*
X24213333Y-67696190D01*
X24165714Y-67600952D01*
X24165714Y-67410476D01*
X24213333Y-67315238D01*
X24308571Y-67267619D01*
X24403809Y-67267619D01*
X24499047Y-67743809D01*
X11481428Y-98684285D02*
X11481428Y-97922380D01*
X11862380Y-98303333D02*
X11100476Y-98303333D01*
X10862380Y-97541428D02*
X10862380Y-96922380D01*
X11243333Y-97255714D01*
X11243333Y-97112857D01*
X11290952Y-97017619D01*
X11338571Y-96970000D01*
X11433809Y-96922380D01*
X11671904Y-96922380D01*
X11767142Y-96970000D01*
X11814761Y-97017619D01*
X11862380Y-97112857D01*
X11862380Y-97398571D01*
X11814761Y-97493809D01*
X11767142Y-97541428D01*
X11195714Y-96589047D02*
X11862380Y-96350952D01*
X11195714Y-96112857D01*
X10862380Y-95827142D02*
X10862380Y-95208095D01*
X11243333Y-95541428D01*
X11243333Y-95398571D01*
X11290952Y-95303333D01*
X11338571Y-95255714D01*
X11433809Y-95208095D01*
X11671904Y-95208095D01*
X11767142Y-95255714D01*
X11814761Y-95303333D01*
X11862380Y-95398571D01*
X11862380Y-95684285D01*
X11814761Y-95779523D01*
X11767142Y-95827142D01*
D10*
X17546232Y-41350000D02*
G75*
G03X17546232Y-41350000I-396232J0D01*
G01*
D11*
X15024285Y-20674761D02*
X15167142Y-20722380D01*
X15405238Y-20722380D01*
X15500476Y-20674761D01*
X15548095Y-20627142D01*
X15595714Y-20531904D01*
X15595714Y-20436666D01*
X15548095Y-20341428D01*
X15500476Y-20293809D01*
X15405238Y-20246190D01*
X15214761Y-20198571D01*
X15119523Y-20150952D01*
X15071904Y-20103333D01*
X15024285Y-20008095D01*
X15024285Y-19912857D01*
X15071904Y-19817619D01*
X15119523Y-19770000D01*
X15214761Y-19722380D01*
X15452857Y-19722380D01*
X15595714Y-19770000D01*
X16024285Y-20722380D02*
X16024285Y-19722380D01*
X16262380Y-19722380D01*
X16405238Y-19770000D01*
X16500476Y-19865238D01*
X16548095Y-19960476D01*
X16595714Y-20150952D01*
X16595714Y-20293809D01*
X16548095Y-20484285D01*
X16500476Y-20579523D01*
X16405238Y-20674761D01*
X16262380Y-20722380D01*
X16024285Y-20722380D01*
X33119523Y-20242380D02*
X32786190Y-19766190D01*
X32548095Y-20242380D02*
X32548095Y-19242380D01*
X32929047Y-19242380D01*
X33024285Y-19290000D01*
X33071904Y-19337619D01*
X33119523Y-19432857D01*
X33119523Y-19575714D01*
X33071904Y-19670952D01*
X33024285Y-19718571D01*
X32929047Y-19766190D01*
X32548095Y-19766190D01*
X37279523Y-20132380D02*
X36803333Y-20132380D01*
X36803333Y-19132380D01*
X40153809Y-20412380D02*
X40153809Y-19412380D01*
X40582380Y-19507619D02*
X40630000Y-19460000D01*
X40725238Y-19412380D01*
X40963333Y-19412380D01*
X41058571Y-19460000D01*
X41106190Y-19507619D01*
X41153809Y-19602857D01*
X41153809Y-19698095D01*
X41106190Y-19840952D01*
X40534761Y-20412380D01*
X41153809Y-20412380D01*
X42153809Y-20317142D02*
X42106190Y-20364761D01*
X41963333Y-20412380D01*
X41868095Y-20412380D01*
X41725238Y-20364761D01*
X41630000Y-20269523D01*
X41582380Y-20174285D01*
X41534761Y-19983809D01*
X41534761Y-19840952D01*
X41582380Y-19650476D01*
X41630000Y-19555238D01*
X41725238Y-19460000D01*
X41868095Y-19412380D01*
X41963333Y-19412380D01*
X42106190Y-19460000D01*
X42153809Y-19507619D01*
X46018095Y-79052380D02*
X46018095Y-78052380D01*
X46399047Y-78052380D01*
X46494285Y-78100000D01*
X46541904Y-78147619D01*
X46589523Y-78242857D01*
X46589523Y-78385714D01*
X46541904Y-78480952D01*
X46494285Y-78528571D01*
X46399047Y-78576190D01*
X46018095Y-78576190D01*
X47589523Y-79052380D02*
X47256190Y-78576190D01*
X47018095Y-79052380D02*
X47018095Y-78052380D01*
X47399047Y-78052380D01*
X47494285Y-78100000D01*
X47541904Y-78147619D01*
X47589523Y-78242857D01*
X47589523Y-78385714D01*
X47541904Y-78480952D01*
X47494285Y-78528571D01*
X47399047Y-78576190D01*
X47018095Y-78576190D01*
X48541904Y-78100000D02*
X48446666Y-78052380D01*
X48303809Y-78052380D01*
X48160952Y-78100000D01*
X48065714Y-78195238D01*
X48018095Y-78290476D01*
X47970476Y-78480952D01*
X47970476Y-78623809D01*
X48018095Y-78814285D01*
X48065714Y-78909523D01*
X48160952Y-79004761D01*
X48303809Y-79052380D01*
X48399047Y-79052380D01*
X48541904Y-79004761D01*
X48589523Y-78957142D01*
X48589523Y-78623809D01*
X48399047Y-78623809D01*
X46382380Y-67632380D02*
X46049047Y-67156190D01*
X45810952Y-67632380D02*
X45810952Y-66632380D01*
X46191904Y-66632380D01*
X46287142Y-66680000D01*
X46334761Y-66727619D01*
X46382380Y-66822857D01*
X46382380Y-66965714D01*
X46334761Y-67060952D01*
X46287142Y-67108571D01*
X46191904Y-67156190D01*
X45810952Y-67156190D01*
X46763333Y-67584761D02*
X46906190Y-67632380D01*
X47144285Y-67632380D01*
X47239523Y-67584761D01*
X47287142Y-67537142D01*
X47334761Y-67441904D01*
X47334761Y-67346666D01*
X47287142Y-67251428D01*
X47239523Y-67203809D01*
X47144285Y-67156190D01*
X46953809Y-67108571D01*
X46858571Y-67060952D01*
X46810952Y-67013333D01*
X46763333Y-66918095D01*
X46763333Y-66822857D01*
X46810952Y-66727619D01*
X46858571Y-66680000D01*
X46953809Y-66632380D01*
X47191904Y-66632380D01*
X47334761Y-66680000D01*
X47620476Y-66632380D02*
X48191904Y-66632380D01*
X47906190Y-67632380D02*
X47906190Y-66632380D01*
D10*
X26130000Y-30130000D02*
X25130000Y-29730000D01*
X25350000Y-31350000D02*
X26310000Y-30780000D01*
X26650000Y-31090000D02*
X26330000Y-31860000D01*
X27330000Y-31230000D02*
X27330000Y-31880000D01*
X27880000Y-30820000D02*
X28510000Y-31370000D01*
X27880000Y-30030000D02*
X28550000Y-30190000D01*
X27470000Y-29440000D02*
X28160000Y-29200000D01*
X26680000Y-29030000D02*
X26680000Y-28380000D01*
X26230000Y-29320000D02*
X25520000Y-28730000D01*
X27940000Y-30150000D02*
X27350000Y-29110000D01*
X27940000Y-30680000D02*
X27940000Y-30150000D01*
X27570000Y-31210000D02*
X27940000Y-30680000D01*
X26760000Y-31210000D02*
X27570000Y-31210000D01*
X26020000Y-30660000D02*
X26760000Y-31210000D01*
X26020000Y-29890000D02*
X26020000Y-30660000D01*
X26470000Y-29050000D02*
X26020000Y-29890000D01*
X27370000Y-29050000D02*
X26470000Y-29050000D01*
X24160000Y-21230000D02*
X24280000Y-21030000D01*
X23820000Y-21070000D02*
X24160000Y-21230000D01*
X23860000Y-20630000D02*
X23820000Y-21070000D01*
X24180000Y-20410000D02*
X23860000Y-20630000D01*
X23460000Y-20410000D02*
X24180000Y-20410000D01*
X23190000Y-20250000D02*
X23460000Y-20410000D01*
X23420000Y-19750000D02*
X23190000Y-20250000D01*
X23940000Y-19830000D02*
X23420000Y-19750000D01*
X25160000Y-20710000D02*
X24680000Y-20670000D01*
X25160000Y-20290000D02*
X25160000Y-20710000D01*
X25060000Y-20190000D02*
X25160000Y-20290000D01*
X24680000Y-20050000D02*
X25060000Y-20190000D01*
X25020000Y-19950000D02*
X24680000Y-20050000D01*
X25020000Y-19570000D02*
X25020000Y-19950000D01*
X24640000Y-19390000D02*
X25020000Y-19570000D01*
X24300000Y-19690000D02*
X24640000Y-19390000D01*
X24680000Y-21090000D02*
X23940000Y-19510000D01*
D11*
X31274761Y-113212380D02*
X31274761Y-112212380D01*
X31274761Y-112593333D02*
X31370000Y-112545714D01*
X31560476Y-112545714D01*
X31655714Y-112593333D01*
X31703333Y-112640952D01*
X31750952Y-112736190D01*
X31750952Y-113021904D01*
X31703333Y-113117142D01*
X31655714Y-113164761D01*
X31560476Y-113212380D01*
X31370000Y-113212380D01*
X31274761Y-113164761D01*
X32084285Y-112545714D02*
X32322380Y-113212380D01*
X32560476Y-112545714D02*
X32322380Y-113212380D01*
X32227142Y-113450476D01*
X32179523Y-113498095D01*
X32084285Y-113545714D01*
X22765238Y-111732380D02*
X22765238Y-110732380D01*
X22765238Y-111684761D02*
X22670000Y-111732380D01*
X22479523Y-111732380D01*
X22384285Y-111684761D01*
X22336666Y-111637142D01*
X22289047Y-111541904D01*
X22289047Y-111256190D01*
X22336666Y-111160952D01*
X22384285Y-111113333D01*
X22479523Y-111065714D01*
X22670000Y-111065714D01*
X22765238Y-111113333D01*
X23622380Y-111684761D02*
X23527142Y-111732380D01*
X23336666Y-111732380D01*
X23241428Y-111684761D01*
X23193809Y-111589523D01*
X23193809Y-111208571D01*
X23241428Y-111113333D01*
X23336666Y-111065714D01*
X23527142Y-111065714D01*
X23622380Y-111113333D01*
X23670000Y-111208571D01*
X23670000Y-111303809D01*
X23193809Y-111399047D01*
X24050952Y-111684761D02*
X24146190Y-111732380D01*
X24336666Y-111732380D01*
X24431904Y-111684761D01*
X24479523Y-111589523D01*
X24479523Y-111541904D01*
X24431904Y-111446666D01*
X24336666Y-111399047D01*
X24193809Y-111399047D01*
X24098571Y-111351428D01*
X24050952Y-111256190D01*
X24050952Y-111208571D01*
X24098571Y-111113333D01*
X24193809Y-111065714D01*
X24336666Y-111065714D01*
X24431904Y-111113333D01*
X24908095Y-111732380D02*
X24908095Y-111065714D01*
X24908095Y-110732380D02*
X24860476Y-110780000D01*
X24908095Y-110827619D01*
X24955714Y-110780000D01*
X24908095Y-110732380D01*
X24908095Y-110827619D01*
X25812857Y-111065714D02*
X25812857Y-111875238D01*
X25765238Y-111970476D01*
X25717619Y-112018095D01*
X25622380Y-112065714D01*
X25479523Y-112065714D01*
X25384285Y-112018095D01*
X25812857Y-111684761D02*
X25717619Y-111732380D01*
X25527142Y-111732380D01*
X25431904Y-111684761D01*
X25384285Y-111637142D01*
X25336666Y-111541904D01*
X25336666Y-111256190D01*
X25384285Y-111160952D01*
X25431904Y-111113333D01*
X25527142Y-111065714D01*
X25717619Y-111065714D01*
X25812857Y-111113333D01*
X26289047Y-111065714D02*
X26289047Y-111732380D01*
X26289047Y-111160952D02*
X26336666Y-111113333D01*
X26431904Y-111065714D01*
X26574761Y-111065714D01*
X26670000Y-111113333D01*
X26717619Y-111208571D01*
X26717619Y-111732380D01*
X27574761Y-111684761D02*
X27479523Y-111732380D01*
X27289047Y-111732380D01*
X27193809Y-111684761D01*
X27146190Y-111589523D01*
X27146190Y-111208571D01*
X27193809Y-111113333D01*
X27289047Y-111065714D01*
X27479523Y-111065714D01*
X27574761Y-111113333D01*
X27622380Y-111208571D01*
X27622380Y-111303809D01*
X27146190Y-111399047D01*
X28479523Y-111732380D02*
X28479523Y-110732380D01*
X28479523Y-111684761D02*
X28384285Y-111732380D01*
X28193809Y-111732380D01*
X28098571Y-111684761D01*
X28050952Y-111637142D01*
X28003333Y-111541904D01*
X28003333Y-111256190D01*
X28050952Y-111160952D01*
X28098571Y-111113333D01*
X28193809Y-111065714D01*
X28384285Y-111065714D01*
X28479523Y-111113333D01*
X29717619Y-111732380D02*
X29717619Y-111065714D01*
X29717619Y-110732380D02*
X29670000Y-110780000D01*
X29717619Y-110827619D01*
X29765238Y-110780000D01*
X29717619Y-110732380D01*
X29717619Y-110827619D01*
X30193809Y-111065714D02*
X30193809Y-111732380D01*
X30193809Y-111160952D02*
X30241428Y-111113333D01*
X30336666Y-111065714D01*
X30479523Y-111065714D01*
X30574761Y-111113333D01*
X30622380Y-111208571D01*
X30622380Y-111732380D01*
X31860476Y-111732380D02*
X31860476Y-110732380D01*
X31860476Y-111113333D02*
X31955714Y-111065714D01*
X32146190Y-111065714D01*
X32241428Y-111113333D01*
X32289047Y-111160952D01*
X32336666Y-111256190D01*
X32336666Y-111541904D01*
X32289047Y-111637142D01*
X32241428Y-111684761D01*
X32146190Y-111732380D01*
X31955714Y-111732380D01*
X31860476Y-111684761D01*
X33193809Y-111065714D02*
X33193809Y-111732380D01*
X32765238Y-111065714D02*
X32765238Y-111589523D01*
X32812857Y-111684761D01*
X32908095Y-111732380D01*
X33050952Y-111732380D01*
X33146190Y-111684761D01*
X33193809Y-111637142D01*
X33622380Y-111684761D02*
X33717619Y-111732380D01*
X33908095Y-111732380D01*
X34003333Y-111684761D01*
X34050952Y-111589523D01*
X34050952Y-111541904D01*
X34003333Y-111446666D01*
X33908095Y-111399047D01*
X33765238Y-111399047D01*
X33670000Y-111351428D01*
X33622380Y-111256190D01*
X33622380Y-111208571D01*
X33670000Y-111113333D01*
X33765238Y-111065714D01*
X33908095Y-111065714D01*
X34003333Y-111113333D01*
X34479523Y-111732380D02*
X34479523Y-110732380D01*
X34908095Y-111732380D02*
X34908095Y-111208571D01*
X34860476Y-111113333D01*
X34765238Y-111065714D01*
X34622380Y-111065714D01*
X34527142Y-111113333D01*
X34479523Y-111160952D01*
X35289047Y-111065714D02*
X35479523Y-111732380D01*
X35670000Y-111256190D01*
X35860476Y-111732380D01*
X36050952Y-111065714D01*
X36431904Y-111732380D02*
X36431904Y-111065714D01*
X36431904Y-110732380D02*
X36384285Y-110780000D01*
X36431904Y-110827619D01*
X36479523Y-110780000D01*
X36431904Y-110732380D01*
X36431904Y-110827619D01*
X37336666Y-111684761D02*
X37241428Y-111732380D01*
X37050952Y-111732380D01*
X36955714Y-111684761D01*
X36908095Y-111637142D01*
X36860476Y-111541904D01*
X36860476Y-111256190D01*
X36908095Y-111160952D01*
X36955714Y-111113333D01*
X37050952Y-111065714D01*
X37241428Y-111065714D01*
X37336666Y-111113333D01*
X37765238Y-111732380D02*
X37765238Y-110732380D01*
X37860476Y-111351428D02*
X38146190Y-111732380D01*
X38146190Y-111065714D02*
X37765238Y-111446666D01*
X38622380Y-111684761D02*
X38622380Y-111732380D01*
X38574761Y-111827619D01*
X38527142Y-111875238D01*
X39812857Y-111065714D02*
X39812857Y-111732380D01*
X39812857Y-111160952D02*
X39860476Y-111113333D01*
X39955714Y-111065714D01*
X40098571Y-111065714D01*
X40193809Y-111113333D01*
X40241428Y-111208571D01*
X40241428Y-111732380D01*
X40622380Y-111065714D02*
X40860476Y-111732380D01*
X41098571Y-111065714D02*
X40860476Y-111732380D01*
X40765238Y-111970476D01*
X40717619Y-112018095D01*
X40622380Y-112065714D01*
D10*
X36600000Y-104940000D02*
X36870000Y-104940000D01*
X36140000Y-104990000D02*
X36320000Y-105160000D01*
X36310000Y-104870000D02*
X36310000Y-104720000D01*
X35930000Y-104920000D02*
X35930000Y-104770000D01*
X36390000Y-104970000D02*
X36870000Y-104690000D01*
X35520000Y-105030000D02*
X36390000Y-104970000D01*
X34400000Y-104060000D02*
X34300000Y-104230000D01*
X34150000Y-103850000D02*
X34030000Y-103870000D01*
X34350000Y-103850000D02*
X34350000Y-103720000D01*
X34090000Y-103580000D02*
X34090000Y-103430000D01*
X34260000Y-103900000D02*
X33940000Y-103550000D01*
X35000000Y-104310000D02*
X34260000Y-103900000D01*
X34860000Y-103900000D02*
X34980000Y-104210000D01*
X34180000Y-103310000D02*
X34860000Y-103900000D01*
X33630000Y-103220000D02*
X34180000Y-103310000D01*
X33890000Y-104040000D02*
X33630000Y-103220000D01*
X34250000Y-104500000D02*
X33890000Y-104040000D01*
X34960000Y-104310000D02*
X34250000Y-104500000D01*
X35930000Y-105320000D02*
X35400000Y-105130000D01*
X36730000Y-105320000D02*
X35930000Y-105320000D01*
X37160000Y-104630000D02*
X36730000Y-105320000D01*
X36660000Y-104400000D02*
X37160000Y-104630000D01*
X35830000Y-104600000D02*
X36660000Y-104400000D01*
X35420000Y-104960000D02*
X35830000Y-104600000D01*
X34890000Y-108170000D02*
X35290000Y-108450000D01*
X35220000Y-108160000D02*
X34890000Y-108170000D01*
X34640000Y-106170000D02*
X35010000Y-106590000D01*
X35010000Y-106300000D02*
X34640000Y-106170000D01*
X35810000Y-103620000D02*
X35430000Y-103920000D01*
X35450000Y-103620000D02*
X35810000Y-103620000D01*
X34860000Y-102390000D02*
X35140000Y-102650000D01*
X35210000Y-102410000D02*
X34860000Y-102390000D01*
X34680000Y-101040000D02*
X34680000Y-101160000D01*
X34360000Y-101000000D02*
X34360000Y-101080000D01*
X34480000Y-100910000D02*
X34480000Y-100750000D01*
X34150000Y-100750000D02*
X34300000Y-100910000D01*
X34320000Y-100930000D02*
X33910000Y-100980000D01*
X34990000Y-100930000D02*
X34320000Y-100930000D01*
X34640000Y-101240000D02*
X35080000Y-100930000D01*
X34270000Y-101240000D02*
X34640000Y-101240000D01*
X33660000Y-101040000D02*
X34270000Y-101240000D01*
X34150000Y-100630000D02*
X33660000Y-101040000D01*
X34660000Y-100630000D02*
X34150000Y-100630000D01*
X35030000Y-100870000D02*
X34660000Y-100630000D01*
X36270000Y-96670000D02*
X36310000Y-96580000D01*
X35960000Y-96960000D02*
X36180000Y-96990000D01*
X35910000Y-96740000D02*
X35970000Y-96610000D01*
X35270000Y-97090000D02*
X36380000Y-96710000D01*
X35590000Y-97180000D02*
X35200000Y-97210000D01*
X36160000Y-97080000D02*
X35590000Y-97180000D01*
X36600000Y-96830000D02*
X36160000Y-97080000D01*
X36440000Y-96450000D02*
X36600000Y-96830000D01*
X35960000Y-96450000D02*
X36440000Y-96450000D01*
X35530000Y-96770000D02*
X35960000Y-96450000D01*
X35110000Y-97250000D02*
X35530000Y-96770000D01*
X34280000Y-98630000D02*
X34700000Y-99080000D01*
X34730000Y-98800000D02*
X34280000Y-98630000D01*
X34480000Y-100230000D02*
X34860000Y-100470000D01*
X34830000Y-100200000D02*
X34480000Y-100230000D01*
X35770000Y-100500000D02*
X35480000Y-100920000D01*
X35300000Y-100750000D02*
X35770000Y-100500000D01*
X35460000Y-99180000D02*
X35110000Y-99650000D01*
X35050000Y-99410000D02*
X35460000Y-99180000D01*
X35460000Y-98510000D02*
X34990000Y-98650000D01*
X35010000Y-98410000D02*
X35460000Y-98510000D01*
X35450000Y-97720000D02*
X35080000Y-97840000D01*
X35110000Y-97630000D02*
X35450000Y-97720000D01*
X34320000Y-97310000D02*
X34770000Y-97670000D01*
X34850000Y-97410000D02*
X34320000Y-97310000D01*
X35410000Y-96240000D02*
X35150000Y-96900000D01*
X35090000Y-96560000D02*
X35410000Y-96240000D01*
X34400000Y-96200000D02*
X34810000Y-96720000D01*
X34860000Y-96600000D02*
X34400000Y-96200000D01*
X35600000Y-95650000D02*
X35190000Y-95990000D01*
X35210000Y-95740000D02*
X35600000Y-95650000D01*
X35550000Y-108450000D02*
X36020000Y-109770000D01*
X35420000Y-107220000D02*
X35550000Y-108450000D01*
X35270000Y-105680000D02*
X35420000Y-107220000D01*
X35360000Y-105080000D02*
X35270000Y-105680000D01*
X35360000Y-103690000D02*
X35360000Y-105080000D01*
X35450000Y-102090000D02*
X35360000Y-103690000D01*
X35450000Y-101110000D02*
X35450000Y-102090000D01*
X35010000Y-100200000D02*
X35450000Y-101110000D01*
X34980000Y-99290000D02*
X35010000Y-100200000D01*
X35050000Y-97240000D02*
X34980000Y-99290000D01*
X35200000Y-94790000D02*
X35050000Y-97240000D01*
X35360000Y-108820000D02*
X35900000Y-110180000D01*
X35010000Y-106120000D02*
X35360000Y-108820000D01*
X35010000Y-103720000D02*
X35010000Y-106120000D01*
X35270000Y-102530000D02*
X35010000Y-103720000D01*
X35250000Y-101490000D02*
X35270000Y-102530000D01*
X34810000Y-99920000D02*
X35250000Y-101490000D01*
X34810000Y-98280000D02*
X34810000Y-99920000D01*
X35030000Y-94820000D02*
X34810000Y-98280000D01*
X34490000Y-91990000D02*
X34490000Y-92210000D01*
X34840000Y-91990000D02*
X34490000Y-91990000D01*
X35220000Y-91990000D02*
X34840000Y-91990000D01*
X35530000Y-91610000D02*
X35220000Y-91990000D01*
X36010000Y-91800000D02*
X35530000Y-91610000D01*
X36480000Y-91800000D02*
X36010000Y-91800000D01*
X36380000Y-93150000D02*
X36480000Y-91800000D01*
X36190000Y-94320000D02*
X36380000Y-93150000D01*
X35160000Y-94630000D02*
X36190000Y-94320000D01*
X35970000Y-93000000D02*
X35660000Y-93880000D01*
X36040000Y-92330000D02*
X35970000Y-93000000D01*
X35660000Y-92210000D02*
X36040000Y-92330000D01*
X34810000Y-92300000D02*
X35660000Y-92210000D01*
X34150000Y-93120000D02*
X34020000Y-92240000D01*
X34150000Y-94250000D02*
X34150000Y-93120000D01*
X34970000Y-94760000D02*
X34150000Y-94250000D01*
X35560000Y-94290000D02*
X34970000Y-94760000D01*
X35560000Y-93880000D02*
X35560000Y-94290000D01*
X35220000Y-92740000D02*
X35560000Y-93880000D01*
X35030000Y-92430000D02*
X35220000Y-92740000D01*
X34590000Y-92300000D02*
X35030000Y-92430000D01*
X34020000Y-92210000D02*
X34590000Y-92300000D01*
X20450000Y-111990000D02*
X21300000Y-111430000D01*
X20640000Y-112810000D02*
X21690000Y-112100000D01*
X21110000Y-113660000D02*
X21820000Y-113040000D01*
X21300000Y-114690000D02*
X22230000Y-113880000D01*
X21710000Y-115720000D02*
X22420000Y-115040000D01*
X21820000Y-116690000D02*
X22570000Y-115740000D01*
X22250000Y-117520000D02*
X22870000Y-116690000D01*
X22700000Y-117910000D02*
X23080000Y-117650000D01*
X22630000Y-118210000D02*
X22700000Y-117910000D01*
X21990000Y-113410000D02*
X23250000Y-118420000D01*
X21130000Y-110750000D02*
X21990000Y-113410000D01*
X20700000Y-110000000D02*
X21130000Y-110750000D01*
X21020000Y-110530000D02*
X20700000Y-110000000D01*
X20340000Y-111180000D02*
X21020000Y-110530000D01*
X22530000Y-118080000D02*
X22680000Y-118810000D01*
X20150000Y-110850000D02*
X22530000Y-118080000D01*
D11*
X30047484Y-117970393D02*
X30558181Y-118398918D01*
X30120441Y-118031610D02*
X30114572Y-117964523D01*
X30139311Y-117860958D01*
X30231138Y-117751523D01*
X30328834Y-117709175D01*
X30432400Y-117733915D01*
X30833661Y-118070613D01*
X31231577Y-117596395D02*
X31133881Y-117638743D01*
X31066794Y-117644612D01*
X30963228Y-117619872D01*
X30744358Y-117436219D01*
X30702011Y-117338523D01*
X30696141Y-117271435D01*
X30720881Y-117167870D01*
X30812708Y-117058435D01*
X30910404Y-117016087D01*
X30977491Y-117010218D01*
X31081057Y-117034957D01*
X31299926Y-117218611D01*
X31342274Y-117316307D01*
X31348143Y-117383394D01*
X31323404Y-117486960D01*
X31231577Y-117596395D01*
X31149406Y-116657174D02*
X31813147Y-116903307D01*
X31455495Y-116292391D01*
X31977109Y-115300345D02*
X31971240Y-115233258D01*
X31995979Y-115129692D01*
X32149024Y-114947300D01*
X32246720Y-114904953D01*
X32313807Y-114899083D01*
X32417373Y-114923823D01*
X32490330Y-114985041D01*
X32569156Y-115113346D01*
X32639588Y-115918393D01*
X33037504Y-115444175D01*
X32589288Y-114570779D02*
X32583418Y-114503691D01*
X32608158Y-114400126D01*
X32761203Y-114217734D01*
X32858899Y-114175387D01*
X32925986Y-114169517D01*
X33029552Y-114194257D01*
X33102508Y-114255475D01*
X33181334Y-114383780D01*
X33251767Y-115188827D01*
X33649683Y-114714609D01*
X33919294Y-114319217D02*
X33955772Y-114349826D01*
X33998120Y-114447522D01*
X34003989Y-114514609D01*
D10*
X43570000Y-115110000D02*
X42810000Y-114850000D01*
X43930000Y-115630000D02*
X43570000Y-115110000D01*
X43930000Y-116480000D02*
X43930000Y-115630000D01*
X43930000Y-117170000D02*
X43930000Y-116480000D01*
X43430000Y-117810000D02*
X43930000Y-117170000D01*
X44900000Y-117710000D02*
X43430000Y-117810000D01*
X45230000Y-118330000D02*
X44900000Y-117710000D01*
X42200000Y-118560000D02*
X45230000Y-118330000D01*
X42200000Y-117480000D02*
X42200000Y-118560000D01*
X43240000Y-117240000D02*
X42200000Y-117480000D01*
X43360000Y-116320000D02*
X43240000Y-117240000D01*
X43380000Y-115840000D02*
X43360000Y-116320000D01*
X42930000Y-115580000D02*
X43380000Y-115840000D01*
X42440000Y-115560000D02*
X42930000Y-115580000D01*
X42180000Y-116030000D02*
X42440000Y-115560000D01*
X41920000Y-115730000D02*
X42180000Y-116030000D01*
X42060000Y-115060000D02*
X41920000Y-115730000D01*
X42860000Y-114800000D02*
X42060000Y-115060000D01*
X38700000Y-115610000D02*
X39290000Y-115110000D01*
X39150000Y-115840000D02*
X38700000Y-115610000D01*
X40120000Y-115420000D02*
X39150000Y-115840000D01*
X40120000Y-116100000D02*
X40120000Y-115420000D01*
X40020000Y-116670000D02*
X40120000Y-116100000D01*
X39100000Y-117190000D02*
X40020000Y-116670000D01*
X38910000Y-118280000D02*
X39100000Y-117190000D01*
X41560000Y-118350000D02*
X38910000Y-118280000D01*
X41610000Y-117690000D02*
X41560000Y-118350000D01*
X40000000Y-117520000D02*
X41610000Y-117690000D01*
X40970000Y-116410000D02*
X40000000Y-117520000D01*
X40990000Y-115460000D02*
X40970000Y-116410000D01*
X40450000Y-114780000D02*
X40990000Y-115460000D01*
X39240000Y-115060000D02*
X40450000Y-114780000D01*
X38300000Y-117100000D02*
X38040000Y-115440000D01*
X37820000Y-117930000D02*
X38300000Y-117100000D01*
X37230000Y-117930000D02*
X37820000Y-117930000D01*
X37230000Y-116810000D02*
X37230000Y-117930000D01*
X37440000Y-115440000D02*
X37230000Y-116810000D01*
X37990000Y-115440000D02*
X37440000Y-115440000D01*
X38670000Y-117120000D02*
X38230000Y-115040000D01*
X38300000Y-118330000D02*
X38670000Y-117120000D01*
X36920000Y-118490000D02*
X38300000Y-118330000D01*
X36850000Y-116980000D02*
X36920000Y-118490000D01*
X37140000Y-115130000D02*
X36850000Y-116980000D01*
X38200000Y-115020000D02*
X37140000Y-115130000D01*
X33640000Y-115510000D02*
X33640000Y-115870000D01*
X34300000Y-114730000D02*
X33640000Y-115510000D01*
X34980000Y-114730000D02*
X34300000Y-114730000D01*
X35930000Y-115130000D02*
X34980000Y-114730000D01*
X36140000Y-115940000D02*
X35930000Y-115130000D01*
X36140000Y-117170000D02*
X36140000Y-115940000D01*
X35340000Y-117740000D02*
X36140000Y-117170000D01*
X35980000Y-117930000D02*
X35340000Y-117740000D01*
X35950000Y-118400000D02*
X35980000Y-117930000D01*
X33710000Y-117950000D02*
X35950000Y-118400000D01*
X35580000Y-117100000D02*
X33710000Y-117950000D01*
X35580000Y-115770000D02*
X35580000Y-117100000D01*
X34630000Y-115250000D02*
X35580000Y-115770000D01*
X33710000Y-115750000D02*
X34630000Y-115250000D01*
X20110000Y-101780000D02*
X19940000Y-100740000D01*
X20770000Y-101780000D02*
X20110000Y-101780000D01*
X20770000Y-100810000D02*
X20770000Y-101780000D01*
X20660000Y-99750000D02*
X20770000Y-100810000D01*
X21700000Y-100020000D02*
X20660000Y-99750000D01*
X22220000Y-99780000D02*
X21700000Y-100020000D01*
X22590000Y-98370000D02*
X22220000Y-99780000D01*
X21180000Y-98510000D02*
X22590000Y-98370000D01*
X17530000Y-100160000D02*
X18800000Y-100020000D01*
X17430000Y-99750000D02*
X17530000Y-100160000D01*
X17770000Y-98880000D02*
X17430000Y-99750000D01*
X19290000Y-98750000D02*
X17770000Y-98880000D01*
X18630000Y-97710000D02*
X19290000Y-98750000D01*
X19150000Y-96820000D02*
X18630000Y-97710000D01*
X19600000Y-96780000D02*
X19150000Y-96820000D01*
X20290000Y-96960000D02*
X19600000Y-96780000D01*
X20490000Y-97920000D02*
X20290000Y-96960000D01*
X12040000Y-87310000D02*
X12280000Y-86650000D01*
X11380000Y-87210000D02*
X12040000Y-87310000D01*
X11790000Y-86030000D02*
X11380000Y-87210000D01*
X10970000Y-86410000D02*
X11790000Y-86030000D01*
X10970000Y-85860000D02*
X10970000Y-86410000D01*
X11140000Y-84930000D02*
X10970000Y-85860000D01*
X11970000Y-85030000D02*
X11140000Y-84930000D01*
X13720000Y-86450000D02*
X13140000Y-86280000D01*
X14140000Y-86450000D02*
X13720000Y-86450000D01*
X14140000Y-85760000D02*
X14140000Y-86450000D01*
X13210000Y-85410000D02*
X14140000Y-85760000D01*
X13760000Y-85070000D02*
X13210000Y-85410000D01*
X13760000Y-84310000D02*
X13760000Y-85070000D01*
X13170000Y-84280000D02*
X13760000Y-84310000D01*
X12550000Y-84860000D02*
X13170000Y-84280000D01*
X12860000Y-86790000D02*
X12170000Y-84760000D01*
X19080000Y-101230000D02*
X20910000Y-97750000D01*
X27450000Y-71960000D02*
X27370000Y-71110000D01*
X27020000Y-71960000D02*
X27450000Y-71960000D01*
X26750000Y-71770000D02*
X27020000Y-71960000D01*
X26900000Y-70880000D02*
X26750000Y-71770000D01*
X25940000Y-71150000D02*
X26830000Y-70800000D01*
X25740000Y-70410000D02*
X25940000Y-71150000D01*
X25980000Y-69990000D02*
X25740000Y-70410000D01*
X26830000Y-70110000D02*
X25980000Y-69990000D01*
X28570000Y-71380000D02*
X28030000Y-71300000D01*
X28800000Y-71190000D02*
X28570000Y-71380000D01*
X28640000Y-70690000D02*
X28800000Y-71190000D01*
X27830000Y-70450000D02*
X28640000Y-70690000D01*
X28300000Y-70300000D02*
X27830000Y-70450000D01*
X28410000Y-69490000D02*
X28300000Y-70300000D01*
X27370000Y-69250000D02*
X28410000Y-69490000D01*
X27290000Y-69800000D02*
X27370000Y-69250000D01*
X28260000Y-68910000D02*
X28990000Y-68400000D01*
X28140000Y-68910000D02*
X28260000Y-68910000D01*
X27990000Y-68520000D02*
X28140000Y-68910000D01*
X28880000Y-67590000D02*
X27990000Y-68520000D01*
X28610000Y-67590000D02*
X28880000Y-67590000D01*
X28300000Y-66900000D02*
X28610000Y-67590000D01*
X28610000Y-66470000D02*
X28300000Y-66900000D01*
X28880000Y-66280000D02*
X28610000Y-66470000D01*
X29190000Y-66660000D02*
X28880000Y-66280000D01*
X29730000Y-69060000D02*
X29610000Y-68520000D01*
X29960000Y-69290000D02*
X29730000Y-69060000D01*
X30080000Y-68560000D02*
X29960000Y-69290000D01*
X29770000Y-67820000D02*
X30080000Y-68560000D01*
X29920000Y-67820000D02*
X29770000Y-67820000D01*
X30190000Y-67090000D02*
X29920000Y-67820000D01*
X30040000Y-66590000D02*
X30190000Y-67090000D01*
X29610000Y-66700000D02*
X30040000Y-66590000D01*
X29150000Y-68670000D02*
X29380000Y-66430000D01*
X27950000Y-71730000D02*
X26790000Y-69640000D01*
X24630000Y-35790000D02*
X25580000Y-35600000D01*
X24630000Y-34810000D02*
X24630000Y-35790000D01*
X25360000Y-34500000D02*
X24630000Y-34810000D01*
X26270000Y-34720000D02*
X25360000Y-34500000D01*
X26080000Y-33830000D02*
X26270000Y-34720000D01*
X26590000Y-33110000D02*
X26080000Y-33830000D01*
X26940000Y-33110000D02*
X26590000Y-33110000D01*
X27030000Y-34020000D02*
X26940000Y-33110000D01*
X26020000Y-36990000D02*
X25990000Y-36300000D01*
X26240000Y-37090000D02*
X26020000Y-36990000D01*
X26900000Y-36680000D02*
X26240000Y-37090000D01*
X26810000Y-35570000D02*
X26900000Y-36680000D01*
X26870000Y-35850000D02*
X26810000Y-35570000D01*
X27730000Y-36110000D02*
X26870000Y-35850000D01*
X28330000Y-35730000D02*
X27730000Y-36110000D01*
X28330000Y-35100000D02*
X28330000Y-35730000D01*
X27310000Y-34810000D02*
X28330000Y-35100000D01*
X25390000Y-36640000D02*
X27500000Y-34120000D01*
X49470000Y-32940000D02*
X49160000Y-32920000D01*
X49180000Y-32260000D02*
X49530000Y-32300000D01*
X50440000Y-32350000D02*
X50820000Y-32390000D01*
X50390000Y-33050000D02*
X50440000Y-32350000D01*
X50660000Y-33070000D02*
X50390000Y-33050000D01*
X50650000Y-32840000D02*
X50660000Y-33070000D01*
X50740000Y-32520000D02*
X50650000Y-32840000D01*
X50380000Y-32730000D02*
X50390000Y-32940000D01*
X50440000Y-32520000D02*
X50380000Y-32730000D01*
X49480000Y-32610000D02*
X49480000Y-32800000D01*
X49520000Y-32480000D02*
X49480000Y-32610000D01*
X49130000Y-32600000D02*
X49130000Y-32790000D01*
X49190000Y-32460000D02*
X49130000Y-32600000D01*
D12*
X49714285Y-35058571D02*
X50114285Y-35058571D01*
X49733333Y-35058571D02*
X49714285Y-35020476D01*
X49714285Y-34944285D01*
X49733333Y-34906190D01*
X49752380Y-34887142D01*
X49790476Y-34868095D01*
X49904761Y-34868095D01*
X49942857Y-34887142D01*
X49961904Y-34906190D01*
X49980952Y-34944285D01*
X49980952Y-35020476D01*
X49961904Y-35058571D01*
X49980952Y-34639523D02*
X49961904Y-34677619D01*
X49942857Y-34696666D01*
X49904761Y-34715714D01*
X49790476Y-34715714D01*
X49752380Y-34696666D01*
X49733333Y-34677619D01*
X49714285Y-34639523D01*
X49714285Y-34582380D01*
X49733333Y-34544285D01*
X49752380Y-34525238D01*
X49790476Y-34506190D01*
X49904761Y-34506190D01*
X49942857Y-34525238D01*
X49961904Y-34544285D01*
X49980952Y-34582380D01*
X49980952Y-34639523D01*
X49714285Y-34163333D02*
X50038095Y-34163333D01*
X50076190Y-34182380D01*
X50095238Y-34201428D01*
X50114285Y-34239523D01*
X50114285Y-34296666D01*
X50095238Y-34334761D01*
X49961904Y-34163333D02*
X49980952Y-34201428D01*
X49980952Y-34277619D01*
X49961904Y-34315714D01*
X49942857Y-34334761D01*
X49904761Y-34353809D01*
X49790476Y-34353809D01*
X49752380Y-34334761D01*
X49733333Y-34315714D01*
X49714285Y-34277619D01*
X49714285Y-34201428D01*
X49733333Y-34163333D01*
X49980952Y-33915714D02*
X49961904Y-33953809D01*
X49942857Y-33972857D01*
X49904761Y-33991904D01*
X49790476Y-33991904D01*
X49752380Y-33972857D01*
X49733333Y-33953809D01*
X49714285Y-33915714D01*
X49714285Y-33858571D01*
X49733333Y-33820476D01*
X49752380Y-33801428D01*
X49790476Y-33782380D01*
X49904761Y-33782380D01*
X49942857Y-33801428D01*
X49961904Y-33820476D01*
X49980952Y-33858571D01*
X49980952Y-33915714D01*
D10*
X49700000Y-37310000D02*
X49530000Y-37310000D01*
X49820000Y-37290000D02*
X49700000Y-37310000D01*
X49440000Y-37210000D02*
X49820000Y-37290000D01*
X49740000Y-37180000D02*
X49440000Y-37210000D01*
X49470000Y-37120000D02*
X49740000Y-37180000D01*
X49740000Y-37120000D02*
X49470000Y-37120000D01*
X49510000Y-37010000D02*
X49740000Y-37120000D01*
X49830000Y-37020000D02*
X49510000Y-37010000D01*
X49570000Y-36910000D02*
X49830000Y-37020000D01*
X49820000Y-36910000D02*
X49570000Y-36910000D01*
X49850000Y-37230000D02*
X49820000Y-36910000D01*
X49950000Y-37400000D02*
X49850000Y-37230000D01*
X49760000Y-37460000D02*
X49950000Y-37400000D01*
X49490000Y-37460000D02*
X49760000Y-37460000D01*
X49340000Y-37310000D02*
X49490000Y-37460000D01*
X49470000Y-36990000D02*
X49340000Y-37310000D01*
X49530000Y-36850000D02*
X49470000Y-36990000D01*
X49820000Y-36850000D02*
X49820000Y-36130000D01*
X49300000Y-36700000D02*
X49720000Y-36870000D01*
X49970000Y-36700000D02*
X49300000Y-36700000D01*
X49970000Y-36610000D02*
X49970000Y-36700000D01*
X49280000Y-36610000D02*
X49970000Y-36610000D01*
X49340000Y-36360000D02*
X49280000Y-36610000D01*
X49850000Y-36420000D02*
X49340000Y-36360000D01*
X49850000Y-36320000D02*
X49850000Y-36420000D01*
X49420000Y-36210000D02*
X49850000Y-36320000D01*
X49510000Y-36150000D02*
X49420000Y-36210000D01*
X51220000Y-36120000D02*
X51220000Y-35870000D01*
X50880000Y-36530000D02*
X51220000Y-36120000D01*
X50140000Y-36420000D02*
X50880000Y-36530000D01*
X49820000Y-36060000D02*
X50140000Y-36420000D01*
X49460000Y-36040000D02*
X49820000Y-36060000D01*
X49320000Y-36020000D02*
X49460000Y-36040000D01*
X48870000Y-36150000D02*
X49320000Y-36020000D01*
X48280000Y-35930000D02*
X48870000Y-36150000D01*
X48280000Y-35760000D02*
X48280000Y-35930000D01*
X50190000Y-36130000D02*
X50700000Y-36190000D01*
X50820000Y-36080000D02*
X50230000Y-36000000D01*
X50250000Y-35850000D02*
X50820000Y-35930000D01*
X48790000Y-35340000D02*
X49250000Y-35570000D01*
X48580000Y-35470000D02*
X49040000Y-35720000D01*
X48720000Y-35720000D02*
X48910000Y-35830000D01*
X48530000Y-35660000D02*
X48720000Y-35720000D01*
X49590000Y-35960000D02*
X49590000Y-35700000D01*
X49850000Y-36100000D02*
X49990000Y-35640000D01*
X49720000Y-36100000D02*
X49850000Y-36100000D01*
X49570000Y-36060000D02*
X49720000Y-36100000D01*
X49530000Y-35930000D02*
X49570000Y-36060000D01*
X50480000Y-35720000D02*
X50080000Y-35760000D01*
X51120000Y-35810000D02*
X50480000Y-35720000D01*
X50880000Y-36380000D02*
X51120000Y-35810000D01*
X50250000Y-36340000D02*
X50880000Y-36380000D01*
X49950000Y-36020000D02*
X50250000Y-36340000D01*
X49170000Y-35870000D02*
X49950000Y-36020000D01*
X48930000Y-36020000D02*
X49170000Y-35870000D01*
X48300000Y-35740000D02*
X48930000Y-36020000D01*
X48620000Y-35110000D02*
X48300000Y-35740000D01*
X49380000Y-35420000D02*
X48620000Y-35110000D01*
X49340000Y-35660000D02*
X49380000Y-35420000D01*
X49550000Y-35740000D02*
X49340000Y-35660000D01*
X50100000Y-32950000D02*
X50000000Y-35720000D01*
X49700000Y-32920000D02*
X49590000Y-35740000D01*
X50210000Y-32460000D02*
X50910000Y-32480000D01*
X50140000Y-32010000D02*
X50140000Y-32630000D01*
X50060000Y-31760000D02*
X49760000Y-31760000D01*
X50100000Y-31800000D02*
X50060000Y-31760000D01*
X50100000Y-31870000D02*
X50100000Y-31800000D01*
X50100000Y-31950000D02*
X50100000Y-31870000D01*
X49890000Y-31950000D02*
X50100000Y-31950000D01*
X49680000Y-31820000D02*
X49890000Y-31950000D01*
X49700000Y-32610000D02*
X49680000Y-31820000D01*
X48940000Y-32370000D02*
X49630000Y-32400000D01*
X51060000Y-32950000D02*
X50950000Y-32930000D01*
X51120000Y-32780000D02*
X51060000Y-32950000D01*
X51120000Y-32670000D02*
X51120000Y-32780000D01*
X51060000Y-32540000D02*
X51120000Y-32670000D01*
X50990000Y-32540000D02*
X51060000Y-32540000D01*
X50880000Y-32630000D02*
X50990000Y-32540000D01*
X50890000Y-32990000D02*
X50880000Y-32630000D01*
X48830000Y-32820000D02*
X50890000Y-32990000D01*
X48750000Y-32750000D02*
X48830000Y-32820000D01*
X48750000Y-32520000D02*
X48750000Y-32750000D01*
X48910000Y-32440000D02*
X48750000Y-32520000D01*
X24870000Y-26770000D02*
X22540000Y-26210000D01*
X27230000Y-28190000D02*
X24870000Y-26770000D01*
X28800000Y-29760000D02*
X27230000Y-28190000D01*
X29370000Y-32180000D02*
X28800000Y-29760000D01*
X23360000Y-22020000D02*
X22480000Y-22020000D01*
X25060000Y-22530000D02*
X23360000Y-22020000D01*
X30090000Y-25860000D02*
X28610000Y-24600000D01*
X31700000Y-27620000D02*
X30090000Y-25860000D01*
X32670000Y-28980000D02*
X31700000Y-27620000D01*
X33110000Y-32220000D02*
X32670000Y-28980000D01*
X24370000Y-25920000D02*
X22640000Y-25480000D01*
X27040000Y-27180000D02*
X24370000Y-25920000D01*
X28740000Y-28600000D02*
X27040000Y-27180000D01*
X29710000Y-30330000D02*
X28740000Y-28600000D01*
X29970000Y-32280000D02*
X29710000Y-30330000D01*
X24430000Y-25170000D02*
X22480000Y-24670000D01*
X26130000Y-25960000D02*
X24430000Y-25170000D01*
X28080000Y-27120000D02*
X26130000Y-25960000D01*
X29530000Y-28500000D02*
X28080000Y-27120000D01*
X30470000Y-30110000D02*
X29530000Y-28500000D01*
X30750000Y-32220000D02*
X30470000Y-30110000D01*
X23860000Y-24070000D02*
X22390000Y-23790000D01*
X25410000Y-24670000D02*
X23860000Y-24070000D01*
X26820000Y-25360000D02*
X25410000Y-24670000D01*
X28300000Y-26430000D02*
X26820000Y-25360000D01*
X30060000Y-28030000D02*
X28300000Y-26430000D01*
X31190000Y-29860000D02*
X30060000Y-28030000D01*
X31660000Y-32150000D02*
X31190000Y-29860000D01*
X23520000Y-23030000D02*
X22320000Y-22870000D01*
X25000000Y-23630000D02*
X23520000Y-23030000D01*
X28830000Y-25770000D02*
X27700000Y-24920000D01*
X30850000Y-27590000D02*
X28830000Y-25770000D01*
X32170000Y-29890000D02*
X30850000Y-27590000D01*
X32480000Y-32180000D02*
X32170000Y-29890000D01*
X32520000Y-27910000D02*
X33180000Y-28040000D01*
X33020000Y-28200000D02*
X32520000Y-27910000D01*
X32880000Y-28660000D02*
X33020000Y-28200000D01*
X33270000Y-28300000D02*
X32880000Y-28660000D01*
X33880000Y-28570000D02*
X33270000Y-28300000D01*
X33600000Y-28130000D02*
X33880000Y-28570000D01*
X34040000Y-27910000D02*
X33600000Y-28130000D01*
X33430000Y-27950000D02*
X34040000Y-27910000D01*
X33270000Y-26980000D02*
X33430000Y-27950000D01*
X33170000Y-28000000D02*
X33270000Y-26980000D01*
X49790000Y-25180000D02*
X49970000Y-25530000D01*
X49790000Y-25600000D02*
X49790000Y-25180000D01*
X49610000Y-25890000D02*
X49790000Y-25600000D01*
X49970000Y-25750000D02*
X49610000Y-25890000D01*
X50250000Y-26110000D02*
X49970000Y-25750000D01*
X50170000Y-25770000D02*
X50250000Y-26110000D01*
X50820000Y-25770000D02*
X50170000Y-25770000D01*
X50300000Y-25580000D02*
X50820000Y-25770000D01*
X50380000Y-24760000D02*
X50300000Y-25580000D01*
X49950000Y-25530000D02*
X50380000Y-24760000D01*
X43280000Y-20260000D02*
X43940000Y-20070000D01*
X44030000Y-20290000D02*
X43280000Y-20260000D01*
X44030000Y-20690000D02*
X44030000Y-20290000D01*
X44220000Y-20330000D02*
X44030000Y-20690000D01*
X44770000Y-20520000D02*
X44220000Y-20330000D01*
X44450000Y-20200000D02*
X44770000Y-20520000D01*
X44750000Y-19860000D02*
X44450000Y-20200000D01*
X44200000Y-20030000D02*
X44750000Y-19860000D01*
X43880000Y-19460000D02*
X44200000Y-20030000D01*
X43880000Y-20090000D02*
X43880000Y-19460000D01*
X49580000Y-20590000D02*
X50400000Y-20590000D01*
X50250000Y-21100000D02*
X49580000Y-20590000D01*
X50220000Y-21380000D02*
X50250000Y-21100000D01*
X50600000Y-21330000D02*
X50220000Y-21380000D01*
X51290000Y-22020000D02*
X50600000Y-21330000D01*
X50910000Y-21250000D02*
X51290000Y-22020000D01*
X51400000Y-20740000D02*
X50910000Y-21250000D01*
X50830000Y-20740000D02*
X51400000Y-20740000D01*
X50660000Y-19870000D02*
X50830000Y-20740000D01*
X50370000Y-20690000D02*
X50660000Y-19870000D01*
X43920000Y-24800000D02*
X44450000Y-24900000D01*
X44380000Y-25410000D02*
X43920000Y-24800000D01*
X44660000Y-25100000D02*
X44380000Y-25410000D01*
X45040000Y-25640000D02*
X44660000Y-25100000D01*
X44940000Y-25080000D02*
X45040000Y-25640000D01*
X45420000Y-24850000D02*
X44940000Y-25080000D01*
X44840000Y-24850000D02*
X45420000Y-24850000D01*
X44840000Y-24080000D02*
X44840000Y-24850000D01*
X44430000Y-24930000D02*
X44840000Y-24080000D01*
X49860000Y-28510000D02*
X50110000Y-29560000D01*
X49860000Y-30090000D02*
X49860000Y-28510000D01*
X48760000Y-30110000D02*
X49860000Y-30090000D01*
X49910000Y-30430000D02*
X48760000Y-30110000D01*
X50270000Y-31370000D02*
X49910000Y-30430000D01*
X50390000Y-30390000D02*
X50270000Y-31370000D01*
X51190000Y-30390000D02*
X50390000Y-30390000D01*
X50710000Y-30040000D02*
X51190000Y-30390000D01*
X51210000Y-28650000D02*
X50710000Y-30040000D01*
X50110000Y-29560000D02*
X51210000Y-28650000D01*
X35480000Y-30210000D02*
X36020000Y-30720000D01*
X36030000Y-30910000D02*
X35480000Y-30210000D01*
X36740000Y-30380000D02*
X36030000Y-30910000D01*
X36240000Y-30900000D02*
X36740000Y-30380000D01*
X36510000Y-30320000D02*
X36240000Y-30900000D01*
X36130000Y-30640000D02*
X36510000Y-30320000D01*
X36630000Y-29740000D02*
X36130000Y-30640000D01*
X36070000Y-30810000D02*
X36630000Y-29740000D01*
X36060000Y-29530000D02*
X36070000Y-30810000D01*
X36060000Y-30510000D02*
X36060000Y-29530000D01*
X36250000Y-29310000D02*
X36060000Y-30510000D01*
X36140000Y-30720000D02*
X36250000Y-29310000D01*
X35570000Y-29250000D02*
X36140000Y-30720000D01*
X35980000Y-30280000D02*
X35570000Y-29250000D01*
X35210000Y-29490000D02*
X35980000Y-30280000D01*
X35900000Y-30280000D02*
X35210000Y-29490000D01*
X36110000Y-30750000D02*
X35900000Y-30280000D01*
X38880000Y-30070000D02*
X38470000Y-30460000D01*
X38590000Y-30180000D02*
X38880000Y-30070000D01*
X38430000Y-30410000D02*
X38590000Y-30180000D01*
X38170000Y-30630000D02*
X38430000Y-30410000D01*
X38730000Y-29670000D02*
X38170000Y-30630000D01*
X38110000Y-30580000D02*
X38730000Y-29670000D01*
X38470000Y-30530000D02*
X38110000Y-30580000D01*
X37510000Y-29820000D02*
X38470000Y-30530000D01*
X38080000Y-30620000D02*
X37510000Y-29820000D01*
X37340000Y-29960000D02*
X38080000Y-30620000D01*
X37990000Y-30180000D02*
X37340000Y-29960000D01*
X36620000Y-29600000D02*
X37990000Y-30180000D01*
X38070000Y-30130000D02*
X36620000Y-29600000D01*
X37800000Y-29250000D02*
X38070000Y-30130000D01*
X38120000Y-30110000D02*
X37800000Y-29250000D01*
X38120000Y-28700000D02*
X38120000Y-30110000D01*
X38120000Y-29950000D02*
X38120000Y-28700000D01*
X38510000Y-28680000D02*
X38120000Y-29950000D01*
X38060000Y-30350000D02*
X38510000Y-28680000D01*
X38640000Y-29250000D02*
X38060000Y-30350000D01*
X38090000Y-30410000D02*
X38640000Y-29250000D01*
X38090000Y-29990000D02*
X38090000Y-30410000D01*
X37990000Y-30760000D02*
X38090000Y-29990000D01*
X38400000Y-29840000D02*
X37990000Y-30760000D01*
X37990000Y-30780000D02*
X38400000Y-29840000D01*
X38040000Y-30390000D02*
X37990000Y-30780000D01*
X38010000Y-30780000D02*
X38040000Y-30390000D01*
X39730000Y-29630000D02*
X39830000Y-29900000D01*
X39510000Y-29060000D02*
X39730000Y-29630000D01*
X39880000Y-29700000D02*
X39510000Y-29060000D01*
X39880000Y-29180000D02*
X39880000Y-29700000D01*
X39960000Y-29620000D02*
X39880000Y-29180000D01*
X40290000Y-28940000D02*
X39960000Y-29620000D01*
X39840000Y-30760000D02*
X40290000Y-28940000D01*
X39820000Y-30450000D02*
X39840000Y-30760000D01*
X39800000Y-30110000D02*
X39820000Y-30450000D01*
X39980000Y-30070000D02*
X39800000Y-30110000D01*
X39490000Y-30000000D02*
X39980000Y-30070000D01*
X39750000Y-29910000D02*
X39490000Y-30000000D01*
X39410000Y-29900000D02*
X39750000Y-29910000D01*
X39560000Y-29830000D02*
X39410000Y-29900000D01*
X38970000Y-29810000D02*
X39560000Y-29830000D01*
X39630000Y-29810000D02*
X38970000Y-29810000D01*
X39200000Y-29350000D02*
X39630000Y-29810000D01*
X39830000Y-29890000D02*
X39200000Y-29350000D01*
X39360000Y-29660000D02*
X39830000Y-29890000D01*
X40000000Y-30030000D02*
X39360000Y-29660000D01*
X39520000Y-29620000D02*
X40000000Y-30030000D01*
X39940000Y-30270000D02*
X39520000Y-29620000D01*
X39940000Y-29590000D02*
X39940000Y-30270000D01*
X39780000Y-30220000D02*
X39940000Y-29590000D01*
X40460000Y-29670000D02*
X39780000Y-30220000D01*
X40120000Y-29950000D02*
X40460000Y-29670000D01*
X40670000Y-29950000D02*
X40120000Y-29950000D01*
X40360000Y-29990000D02*
X40670000Y-29950000D01*
X40840000Y-29760000D02*
X40360000Y-29990000D01*
X40370000Y-29730000D02*
X40840000Y-29760000D01*
X40860000Y-29410000D02*
X40370000Y-29730000D01*
X40440000Y-29740000D02*
X40860000Y-29410000D01*
X40800000Y-29500000D02*
X40440000Y-29740000D01*
X40350000Y-29800000D02*
X40800000Y-29500000D01*
X40000000Y-30320000D02*
X40350000Y-29800000D01*
X39930000Y-30730000D02*
X40000000Y-30320000D01*
X40060000Y-32090000D02*
X39830000Y-32040000D01*
X40260000Y-32010000D02*
X40060000Y-32090000D01*
X39980000Y-31360000D02*
X40340000Y-31190000D01*
X39640000Y-31250000D02*
X39980000Y-31360000D01*
X40010000Y-31610000D02*
X39720000Y-31530000D01*
X40290000Y-31560000D02*
X40010000Y-31610000D01*
X40280000Y-31850000D02*
X40290000Y-31560000D01*
X40000000Y-31870000D02*
X40280000Y-31850000D01*
X39800000Y-31760000D02*
X40000000Y-31870000D01*
X37900000Y-32010000D02*
X37640000Y-31900000D01*
X38250000Y-31920000D02*
X37900000Y-32010000D01*
X37940000Y-31700000D02*
X38280000Y-31610000D01*
X37630000Y-31570000D02*
X37940000Y-31700000D01*
X37970000Y-31370000D02*
X38390000Y-31340000D01*
X37550000Y-31260000D02*
X37970000Y-31370000D01*
X36170000Y-32060000D02*
X36490000Y-31990000D01*
X35870000Y-31990000D02*
X36170000Y-32060000D01*
X36170000Y-31750000D02*
X35810000Y-31710000D01*
X36490000Y-31700000D02*
X36170000Y-31750000D01*
X36200000Y-31470000D02*
X36570000Y-31470000D01*
X35760000Y-31360000D02*
X36200000Y-31470000D01*
X35800000Y-32090000D02*
X35830000Y-32270000D01*
X35650000Y-31050000D02*
X35800000Y-32090000D01*
X36090000Y-30750000D02*
X35650000Y-31050000D01*
X36660000Y-31140000D02*
X36090000Y-30750000D01*
X36510000Y-32150000D02*
X36660000Y-31140000D01*
X37610000Y-32210000D02*
X36510000Y-32150000D01*
X37490000Y-31050000D02*
X37610000Y-32210000D01*
X38020000Y-30780000D02*
X37490000Y-31050000D01*
X38500000Y-31050000D02*
X38020000Y-30780000D01*
X38200000Y-32210000D02*
X38500000Y-31050000D01*
X40390000Y-30900000D02*
X39890000Y-30750000D01*
X40280000Y-32210000D02*
X40390000Y-30900000D01*
X39590000Y-30960000D02*
X39800000Y-32210000D01*
X39860000Y-30810000D02*
X39590000Y-30960000D01*
X48310000Y-26530000D02*
X47250000Y-29160000D01*
X48610000Y-26090000D02*
X48310000Y-26530000D01*
X48490000Y-25930000D02*
X48610000Y-26090000D01*
X48150000Y-26420000D02*
X48490000Y-25930000D01*
X47250000Y-28720000D02*
X48120000Y-26420000D01*
X45980000Y-29050000D02*
X47250000Y-28720000D01*
X45980000Y-30060000D02*
X46000000Y-29950000D01*
X45910000Y-30320000D02*
X45980000Y-30060000D01*
X45700000Y-30410000D02*
X45910000Y-30320000D01*
X45700000Y-30620000D02*
X45700000Y-30410000D01*
X46000000Y-30620000D02*
X45700000Y-30620000D01*
X46090000Y-30450000D02*
X46000000Y-30620000D01*
X46230000Y-29920000D02*
X46090000Y-30450000D01*
X47520000Y-30430000D02*
X47200000Y-29070000D01*
X47520000Y-30800000D02*
X47520000Y-30430000D01*
X46990000Y-30920000D02*
X47520000Y-30800000D01*
X46990000Y-30660000D02*
X46990000Y-30920000D01*
X47200000Y-30520000D02*
X46990000Y-30660000D01*
X47020000Y-29600000D02*
X47200000Y-30520000D01*
X44570000Y-30450000D02*
X47020000Y-29600000D01*
X44570000Y-31930000D02*
X44570000Y-30450000D01*
X43970000Y-31930000D02*
X44570000Y-31930000D01*
X43970000Y-31860000D02*
X43970000Y-31930000D01*
X44110000Y-31610000D02*
X43970000Y-31860000D01*
X44150000Y-30500000D02*
X44110000Y-31610000D01*
X43950000Y-30410000D02*
X44150000Y-30500000D01*
X43760000Y-31630000D02*
X43950000Y-30410000D01*
X43550000Y-32050000D02*
X43760000Y-31630000D01*
X43160000Y-32050000D02*
X43550000Y-32050000D01*
X42980000Y-31860000D02*
X43160000Y-32050000D01*
X43320000Y-31610000D02*
X42980000Y-31860000D01*
X43440000Y-30850000D02*
X43320000Y-31610000D01*
X43580000Y-30250000D02*
X43440000Y-30850000D01*
X43620000Y-30040000D02*
X43580000Y-30250000D01*
X43970000Y-29900000D02*
X43620000Y-30040000D01*
X44020000Y-29670000D02*
X43970000Y-29880000D01*
X44220000Y-29600000D02*
X44220000Y-29810000D01*
X43370000Y-29160000D02*
X42790000Y-29300000D01*
X43180000Y-28980000D02*
X42150000Y-28790000D01*
X43230000Y-28770000D02*
X41640000Y-28030000D01*
X44980000Y-29000000D02*
X45950000Y-29280000D01*
X45010000Y-28820000D02*
X46550000Y-28820000D01*
X44850000Y-28650000D02*
X46920000Y-27890000D01*
X44270000Y-28220000D02*
X44360000Y-28490000D01*
X44340000Y-27820000D02*
X44270000Y-28220000D01*
X43460000Y-28220000D02*
X43510000Y-28470000D01*
X43550000Y-27800000D02*
X43460000Y-28220000D01*
X44450000Y-29140000D02*
X44680000Y-28750000D01*
X44290000Y-29160000D02*
X44450000Y-29140000D01*
X44180000Y-29070000D02*
X44290000Y-29160000D01*
X44110000Y-28750000D02*
X44180000Y-29070000D01*
X43920000Y-29210000D02*
X44110000Y-28750000D01*
X43720000Y-29190000D02*
X43920000Y-29210000D01*
X43420000Y-28790000D02*
X43720000Y-29190000D01*
X42650000Y-28890000D02*
X42560000Y-28080000D01*
X43990000Y-29600000D02*
X42650000Y-28890000D01*
X45930000Y-29120000D02*
X43990000Y-29600000D01*
X46090000Y-27990000D02*
X45930000Y-29120000D01*
X45820000Y-26760000D02*
X46090000Y-27990000D01*
X44870000Y-27480000D02*
X45820000Y-26760000D01*
X43620000Y-27480000D02*
X44870000Y-27480000D01*
X42890000Y-26260000D02*
X43620000Y-27480000D01*
X42540000Y-27960000D02*
X42890000Y-26260000D01*
X19580000Y-94540000D02*
X19870000Y-94280000D01*
X19320000Y-93950000D02*
X19580000Y-94540000D01*
X19360000Y-93620000D02*
X19320000Y-93950000D01*
X19830000Y-93550000D02*
X19360000Y-93620000D01*
X19580000Y-93440000D02*
X20010000Y-93480000D01*
X19580000Y-92780000D02*
X19580000Y-93440000D01*
X19800000Y-92420000D02*
X19580000Y-92780000D01*
X20200000Y-92600000D02*
X19800000Y-92420000D01*
X20890000Y-95450000D02*
X20420000Y-94900000D01*
X21180000Y-94460000D02*
X20890000Y-95450000D01*
X20670000Y-93950000D02*
X21180000Y-94460000D01*
X21220000Y-93950000D02*
X20670000Y-93950000D01*
X21480000Y-93480000D02*
X21220000Y-93950000D01*
X21000000Y-92820000D02*
X21480000Y-93480000D01*
X19940000Y-95120000D02*
X20530000Y-92380000D01*
X21220000Y-70230000D02*
X20800000Y-69110000D01*
X21830000Y-70390000D02*
X21220000Y-70230000D01*
X22200000Y-70050000D02*
X21830000Y-70390000D01*
X22260000Y-69500000D02*
X22200000Y-70050000D01*
X21870000Y-68190000D02*
X22260000Y-69500000D01*
X22960000Y-68280000D02*
X21870000Y-68190000D01*
X23360000Y-67670000D02*
X22960000Y-68280000D01*
X23030000Y-66940000D02*
X23360000Y-67670000D01*
X22720000Y-66660000D02*
X23030000Y-66940000D01*
X21960000Y-66850000D02*
X22720000Y-66660000D01*
X19000000Y-69470000D02*
X20190000Y-68980000D01*
X18690000Y-69380000D02*
X19000000Y-69470000D01*
X18840000Y-68400000D02*
X18690000Y-69380000D01*
X19030000Y-67700000D02*
X18840000Y-68400000D01*
X20030000Y-67370000D02*
X19030000Y-67700000D01*
X19730000Y-66390000D02*
X20030000Y-67370000D01*
X19760000Y-65660000D02*
X19730000Y-66390000D01*
X20980000Y-65660000D02*
X19760000Y-65660000D01*
X21470000Y-66330000D02*
X20980000Y-65660000D01*
X18110000Y-66150000D02*
X18230000Y-65380000D01*
X17410000Y-65750000D02*
X18110000Y-66150000D01*
X17470000Y-64860000D02*
X17410000Y-65750000D01*
X16860000Y-65350000D02*
X17470000Y-64860000D01*
X16430000Y-65350000D02*
X16860000Y-65350000D01*
X16220000Y-64530000D02*
X16430000Y-65350000D01*
X17170000Y-64160000D02*
X16220000Y-64530000D01*
X19180000Y-64960000D02*
X18810000Y-64960000D01*
X19550000Y-64960000D02*
X19180000Y-64960000D01*
X19360000Y-64500000D02*
X19550000Y-64960000D01*
X18450000Y-64190000D02*
X19360000Y-64500000D01*
X18720000Y-63890000D02*
X18450000Y-64190000D01*
X18720000Y-63030000D02*
X18720000Y-63890000D01*
X18170000Y-62850000D02*
X18720000Y-63030000D01*
X17870000Y-63860000D02*
X18170000Y-62850000D01*
X16100000Y-70110000D02*
X16280000Y-69470000D01*
X15730000Y-70110000D02*
X16100000Y-70110000D01*
X15400000Y-69320000D02*
X15730000Y-70110000D01*
X15120000Y-69650000D02*
X15400000Y-69320000D01*
X14390000Y-69590000D02*
X15120000Y-69650000D01*
X14390000Y-69110000D02*
X14390000Y-69590000D01*
X14970000Y-68800000D02*
X14390000Y-69110000D01*
X17120000Y-68770000D02*
X16510000Y-68770000D01*
X17120000Y-68440000D02*
X17120000Y-68770000D01*
X17070000Y-68160000D02*
X17120000Y-68440000D01*
X16370000Y-68160000D02*
X17070000Y-68160000D01*
X16370000Y-67790000D02*
X16370000Y-68160000D01*
X16370000Y-67510000D02*
X16370000Y-67790000D01*
X15860000Y-67510000D02*
X16370000Y-67510000D01*
X15670000Y-67510000D02*
X15860000Y-67510000D01*
X15580000Y-68110000D02*
X15670000Y-67510000D01*
X16790000Y-69370000D02*
X14970000Y-68300000D01*
X19870000Y-70490000D02*
X22010000Y-65830000D01*
X17310000Y-63830000D02*
X18940000Y-65500000D01*
X12630000Y-101140000D02*
X12910000Y-101310000D01*
X11850000Y-100590000D02*
X12630000Y-101140000D01*
X11610000Y-100520000D02*
X11850000Y-100590000D01*
X11370000Y-100450000D02*
X11610000Y-100520000D01*
X11370000Y-99840000D02*
X11370000Y-100450000D01*
X11540000Y-99770000D02*
X11370000Y-99840000D01*
X12090000Y-99970000D02*
X11540000Y-99770000D01*
X13110000Y-100860000D02*
X13010000Y-101340000D01*
X13280000Y-100310000D02*
X13110000Y-100860000D01*
X13080000Y-99660000D02*
X13280000Y-100310000D01*
X12810000Y-99600000D02*
X13080000Y-99660000D01*
X12160000Y-100040000D02*
X12810000Y-99600000D01*
X13470000Y-77450000D02*
X13910000Y-76900000D01*
X11900000Y-77380000D02*
X13470000Y-77450000D01*
X13810000Y-78780000D02*
X11900000Y-77380000D01*
X14770000Y-79290000D02*
X13810000Y-78780000D01*
X14940000Y-77410000D02*
X14770000Y-79290000D01*
X14740000Y-76450000D02*
X14940000Y-77410000D01*
X13810000Y-76930000D02*
X14740000Y-76450000D01*
D11*
X33374761Y-113472380D02*
X33374761Y-112805714D01*
X33374761Y-112900952D02*
X33422380Y-112853333D01*
X33517619Y-112805714D01*
X33660476Y-112805714D01*
X33755714Y-112853333D01*
X33803333Y-112948571D01*
X33803333Y-113472380D01*
X33803333Y-112948571D02*
X33850952Y-112853333D01*
X33946190Y-112805714D01*
X34089047Y-112805714D01*
X34184285Y-112853333D01*
X34231904Y-112948571D01*
X34231904Y-113472380D01*
X35136666Y-113472380D02*
X35136666Y-112948571D01*
X35089047Y-112853333D01*
X34993809Y-112805714D01*
X34803333Y-112805714D01*
X34708095Y-112853333D01*
X35136666Y-113424761D02*
X35041428Y-113472380D01*
X34803333Y-113472380D01*
X34708095Y-113424761D01*
X34660476Y-113329523D01*
X34660476Y-113234285D01*
X34708095Y-113139047D01*
X34803333Y-113091428D01*
X35041428Y-113091428D01*
X35136666Y-113043809D01*
X35565238Y-113424761D02*
X35660476Y-113472380D01*
X35850952Y-113472380D01*
X35946190Y-113424761D01*
X35993809Y-113329523D01*
X35993809Y-113281904D01*
X35946190Y-113186666D01*
X35850952Y-113139047D01*
X35708095Y-113139047D01*
X35612857Y-113091428D01*
X35565238Y-112996190D01*
X35565238Y-112948571D01*
X35612857Y-112853333D01*
X35708095Y-112805714D01*
X35850952Y-112805714D01*
X35946190Y-112853333D01*
X36565238Y-113472380D02*
X36470000Y-113424761D01*
X36422380Y-113377142D01*
X36374761Y-113281904D01*
X36374761Y-112996190D01*
X36422380Y-112900952D01*
X36470000Y-112853333D01*
X36565238Y-112805714D01*
X36708095Y-112805714D01*
X36803333Y-112853333D01*
X36850952Y-112900952D01*
X36898571Y-112996190D01*
X36898571Y-113281904D01*
X36850952Y-113377142D01*
X36803333Y-113424761D01*
X36708095Y-113472380D01*
X36565238Y-113472380D01*
X37327142Y-112805714D02*
X37327142Y-113472380D01*
X37327142Y-112900952D02*
X37374761Y-112853333D01*
X37470000Y-112805714D01*
X37612857Y-112805714D01*
X37708095Y-112853333D01*
X37755714Y-112948571D01*
X37755714Y-113472380D01*
X38993809Y-113472380D02*
X38993809Y-112805714D01*
X38993809Y-112900952D02*
X39041428Y-112853333D01*
X39136666Y-112805714D01*
X39279523Y-112805714D01*
X39374761Y-112853333D01*
X39422380Y-112948571D01*
X39422380Y-113472380D01*
X39422380Y-112948571D02*
X39470000Y-112853333D01*
X39565238Y-112805714D01*
X39708095Y-112805714D01*
X39803333Y-112853333D01*
X39850952Y-112948571D01*
X39850952Y-113472380D01*
X40755714Y-113472380D02*
X40755714Y-112948571D01*
X40708095Y-112853333D01*
X40612857Y-112805714D01*
X40422380Y-112805714D01*
X40327142Y-112853333D01*
X40755714Y-113424761D02*
X40660476Y-113472380D01*
X40422380Y-113472380D01*
X40327142Y-113424761D01*
X40279523Y-113329523D01*
X40279523Y-113234285D01*
X40327142Y-113139047D01*
X40422380Y-113091428D01*
X40660476Y-113091428D01*
X40755714Y-113043809D01*
X41231904Y-112805714D02*
X41231904Y-113472380D01*
X41231904Y-112900952D02*
X41279523Y-112853333D01*
X41374761Y-112805714D01*
X41517619Y-112805714D01*
X41612857Y-112853333D01*
X41660476Y-112948571D01*
X41660476Y-113472380D01*
X42136666Y-112805714D02*
X42136666Y-113472380D01*
X42136666Y-112900952D02*
X42184285Y-112853333D01*
X42279523Y-112805714D01*
X42422380Y-112805714D01*
X42517619Y-112853333D01*
X42565238Y-112948571D01*
X42565238Y-113472380D01*
X10910000Y-102811904D02*
X10862380Y-102907142D01*
X10862380Y-103050000D01*
X10910000Y-103192857D01*
X11005238Y-103288095D01*
X11100476Y-103335714D01*
X11290952Y-103383333D01*
X11433809Y-103383333D01*
X11624285Y-103335714D01*
X11719523Y-103288095D01*
X11814761Y-103192857D01*
X11862380Y-103050000D01*
X11862380Y-102954761D01*
X11814761Y-102811904D01*
X11767142Y-102764285D01*
X11433809Y-102764285D01*
X11433809Y-102954761D01*
X11862380Y-102335714D02*
X10862380Y-102335714D01*
X11862380Y-101764285D01*
X10862380Y-101764285D01*
X11862380Y-101288095D02*
X10862380Y-101288095D01*
X10862380Y-101050000D01*
X10910000Y-100907142D01*
X11005238Y-100811904D01*
X11100476Y-100764285D01*
X11290952Y-100716666D01*
X11433809Y-100716666D01*
X11624285Y-100764285D01*
X11719523Y-100811904D01*
X11814761Y-100907142D01*
X11862380Y-101050000D01*
X11862380Y-101288095D01*
D10*
X16190000Y-113400000D02*
X16190000Y-115090000D01*
X15010000Y-113950000D02*
X17290000Y-113950000D01*
X101264005Y-23700000D02*
G75*
G03X101264005Y-23700000I-364005J0D01*
G01*
D11*
X49378095Y-55130000D02*
X49282857Y-55082380D01*
X49140000Y-55082380D01*
X48997142Y-55130000D01*
X48901904Y-55225238D01*
X48854285Y-55320476D01*
X48806666Y-55510952D01*
X48806666Y-55653809D01*
X48854285Y-55844285D01*
X48901904Y-55939523D01*
X48997142Y-56034761D01*
X49140000Y-56082380D01*
X49235238Y-56082380D01*
X49378095Y-56034761D01*
X49425714Y-55987142D01*
X49425714Y-55653809D01*
X49235238Y-55653809D01*
X49854285Y-56082380D02*
X49854285Y-55082380D01*
X50425714Y-56082380D01*
X50425714Y-55082380D01*
X50901904Y-56082380D02*
X50901904Y-55082380D01*
X51140000Y-55082380D01*
X51282857Y-55130000D01*
X51378095Y-55225238D01*
X51425714Y-55320476D01*
X51473333Y-55510952D01*
X51473333Y-55653809D01*
X51425714Y-55844285D01*
X51378095Y-55939523D01*
X51282857Y-56034761D01*
X51140000Y-56082380D01*
X50901904Y-56082380D01*
X49043809Y-38338571D02*
X48710476Y-38338571D01*
X48710476Y-38862380D02*
X48710476Y-37862380D01*
X49186666Y-37862380D01*
X49424761Y-37862380D02*
X49996190Y-37862380D01*
X49710476Y-38862380D02*
X49710476Y-37862380D01*
X50329523Y-38862380D02*
X50329523Y-37862380D01*
X50567619Y-37862380D01*
X50710476Y-37910000D01*
X50805714Y-38005238D01*
X50853333Y-38100476D01*
X50900952Y-38290952D01*
X50900952Y-38433809D01*
X50853333Y-38624285D01*
X50805714Y-38719523D01*
X50710476Y-38814761D01*
X50567619Y-38862380D01*
X50329523Y-38862380D01*
X51329523Y-38862380D02*
X51329523Y-37862380D01*
X44294285Y-90154761D02*
X44437142Y-90202380D01*
X44675238Y-90202380D01*
X44770476Y-90154761D01*
X44818095Y-90107142D01*
X44865714Y-90011904D01*
X44865714Y-89916666D01*
X44818095Y-89821428D01*
X44770476Y-89773809D01*
X44675238Y-89726190D01*
X44484761Y-89678571D01*
X44389523Y-89630952D01*
X44341904Y-89583333D01*
X44294285Y-89488095D01*
X44294285Y-89392857D01*
X44341904Y-89297619D01*
X44389523Y-89250000D01*
X44484761Y-89202380D01*
X44722857Y-89202380D01*
X44865714Y-89250000D01*
X45294285Y-90202380D02*
X45294285Y-89202380D01*
X45675238Y-89202380D01*
X45770476Y-89250000D01*
X45818095Y-89297619D01*
X45865714Y-89392857D01*
X45865714Y-89535714D01*
X45818095Y-89630952D01*
X45770476Y-89678571D01*
X45675238Y-89726190D01*
X45294285Y-89726190D01*
X46294285Y-90202380D02*
X46294285Y-89202380D01*
X46865714Y-90202380D02*
X46437142Y-89630952D01*
X46865714Y-89202380D02*
X46294285Y-89773809D01*
D10*
X39018904Y-91090000D02*
G75*
G03X39018904Y-91090000I-318904J0D01*
G01*
D11*
X36812380Y-87336666D02*
X36812380Y-86903333D01*
X37193333Y-87136666D01*
X37193333Y-87036666D01*
X37240952Y-86970000D01*
X37288571Y-86936666D01*
X37383809Y-86903333D01*
X37621904Y-86903333D01*
X37717142Y-86936666D01*
X37764761Y-86970000D01*
X37812380Y-87036666D01*
X37812380Y-87236666D01*
X37764761Y-87303333D01*
X37717142Y-87336666D01*
X37717142Y-86603333D02*
X37764761Y-86570000D01*
X37812380Y-86603333D01*
X37764761Y-86636666D01*
X37717142Y-86603333D01*
X37812380Y-86603333D01*
X36812380Y-86336666D02*
X36812380Y-85903333D01*
X37193333Y-86136666D01*
X37193333Y-86036666D01*
X37240952Y-85970000D01*
X37288571Y-85936666D01*
X37383809Y-85903333D01*
X37621904Y-85903333D01*
X37717142Y-85936666D01*
X37764761Y-85970000D01*
X37812380Y-86036666D01*
X37812380Y-86236666D01*
X37764761Y-86303333D01*
X37717142Y-86336666D01*
X36812380Y-85703333D02*
X37812380Y-85470000D01*
X36812380Y-85236666D01*
X37907619Y-85170000D02*
X37907619Y-84636666D01*
X36812380Y-84270000D02*
X37526666Y-84270000D01*
X37669523Y-84303333D01*
X37764761Y-84370000D01*
X37812380Y-84470000D01*
X37812380Y-84536666D01*
X37812380Y-83936666D02*
X36812380Y-83936666D01*
X36812380Y-83670000D01*
X36860000Y-83603333D01*
X36907619Y-83570000D01*
X37002857Y-83536666D01*
X37145714Y-83536666D01*
X37240952Y-83570000D01*
X37288571Y-83603333D01*
X37336190Y-83670000D01*
X37336190Y-83936666D01*
X36852380Y-77016666D02*
X37852380Y-76783333D01*
X36852380Y-76550000D01*
X37757142Y-75916666D02*
X37804761Y-75950000D01*
X37852380Y-76050000D01*
X37852380Y-76116666D01*
X37804761Y-76216666D01*
X37709523Y-76283333D01*
X37614285Y-76316666D01*
X37423809Y-76350000D01*
X37280952Y-76350000D01*
X37090476Y-76316666D01*
X36995238Y-76283333D01*
X36900000Y-76216666D01*
X36852380Y-76116666D01*
X36852380Y-76050000D01*
X36900000Y-75950000D01*
X36947619Y-75916666D01*
X37757142Y-75216666D02*
X37804761Y-75250000D01*
X37852380Y-75350000D01*
X37852380Y-75416666D01*
X37804761Y-75516666D01*
X37709523Y-75583333D01*
X37614285Y-75616666D01*
X37423809Y-75650000D01*
X37280952Y-75650000D01*
X37090476Y-75616666D01*
X36995238Y-75583333D01*
X36900000Y-75516666D01*
X36852380Y-75416666D01*
X36852380Y-75350000D01*
X36900000Y-75250000D01*
X36947619Y-75216666D01*
X37947619Y-75083333D02*
X37947619Y-74550000D01*
X36852380Y-74183333D02*
X37566666Y-74183333D01*
X37709523Y-74216666D01*
X37804761Y-74283333D01*
X37852380Y-74383333D01*
X37852380Y-74450000D01*
X37852380Y-73850000D02*
X36852380Y-73850000D01*
X36852380Y-73583333D01*
X36900000Y-73516666D01*
X36947619Y-73483333D01*
X37042857Y-73450000D01*
X37185714Y-73450000D01*
X37280952Y-73483333D01*
X37328571Y-73516666D01*
X37376190Y-73583333D01*
X37376190Y-73850000D01*
X11747142Y-83352380D02*
X11747142Y-82352380D01*
X12128095Y-82352380D01*
X12223333Y-82400000D01*
X12270952Y-82447619D01*
X12318571Y-82542857D01*
X12318571Y-82685714D01*
X12270952Y-82780952D01*
X12223333Y-82828571D01*
X12128095Y-82876190D01*
X11747142Y-82876190D01*
X12937619Y-82352380D02*
X13128095Y-82352380D01*
X13223333Y-82400000D01*
X13318571Y-82495238D01*
X13366190Y-82685714D01*
X13366190Y-83019047D01*
X13318571Y-83209523D01*
X13223333Y-83304761D01*
X13128095Y-83352380D01*
X12937619Y-83352380D01*
X12842380Y-83304761D01*
X12747142Y-83209523D01*
X12699523Y-83019047D01*
X12699523Y-82685714D01*
X12747142Y-82495238D01*
X12842380Y-82400000D01*
X12937619Y-82352380D01*
X13651904Y-82352380D02*
X14223333Y-82352380D01*
X13937619Y-83352380D02*
X13937619Y-82352380D01*
X14509047Y-82447619D02*
X14556666Y-82400000D01*
X14651904Y-82352380D01*
X14890000Y-82352380D01*
X14985238Y-82400000D01*
X15032857Y-82447619D01*
X15080476Y-82542857D01*
X15080476Y-82638095D01*
X15032857Y-82780952D01*
X14461428Y-83352380D01*
X15080476Y-83352380D01*
X11597142Y-67472380D02*
X11597142Y-66472380D01*
X11978095Y-66472380D01*
X12073333Y-66520000D01*
X12120952Y-66567619D01*
X12168571Y-66662857D01*
X12168571Y-66805714D01*
X12120952Y-66900952D01*
X12073333Y-66948571D01*
X11978095Y-66996190D01*
X11597142Y-66996190D01*
X12787619Y-66472380D02*
X12978095Y-66472380D01*
X13073333Y-66520000D01*
X13168571Y-66615238D01*
X13216190Y-66805714D01*
X13216190Y-67139047D01*
X13168571Y-67329523D01*
X13073333Y-67424761D01*
X12978095Y-67472380D01*
X12787619Y-67472380D01*
X12692380Y-67424761D01*
X12597142Y-67329523D01*
X12549523Y-67139047D01*
X12549523Y-66805714D01*
X12597142Y-66615238D01*
X12692380Y-66520000D01*
X12787619Y-66472380D01*
X13501904Y-66472380D02*
X14073333Y-66472380D01*
X13787619Y-67472380D02*
X13787619Y-66472380D01*
X14930476Y-67472380D02*
X14359047Y-67472380D01*
X14644761Y-67472380D02*
X14644761Y-66472380D01*
X14549523Y-66615238D01*
X14454285Y-66710476D01*
X14359047Y-66758095D01*
D10*
X47020599Y-108000000D02*
G75*
G03X47020599Y-108000000I-250599J0D01*
G01*
D11*
X48386666Y-107962380D02*
X49005714Y-107962380D01*
X48672380Y-108343333D01*
X48815238Y-108343333D01*
X48910476Y-108390952D01*
X48958095Y-108438571D01*
X49005714Y-108533809D01*
X49005714Y-108771904D01*
X48958095Y-108867142D01*
X48910476Y-108914761D01*
X48815238Y-108962380D01*
X48529523Y-108962380D01*
X48434285Y-108914761D01*
X48386666Y-108867142D01*
X48374285Y-105517619D02*
X48421904Y-105470000D01*
X48517142Y-105422380D01*
X48755238Y-105422380D01*
X48850476Y-105470000D01*
X48898095Y-105517619D01*
X48945714Y-105612857D01*
X48945714Y-105708095D01*
X48898095Y-105850952D01*
X48326666Y-106422380D01*
X48945714Y-106422380D01*
X48945714Y-103942380D02*
X48374285Y-103942380D01*
X48660000Y-103942380D02*
X48660000Y-102942380D01*
X48564761Y-103085238D01*
X48469523Y-103180476D01*
X48374285Y-103228095D01*
X48582380Y-100342380D02*
X48677619Y-100342380D01*
X48772857Y-100390000D01*
X48820476Y-100437619D01*
X48868095Y-100532857D01*
X48915714Y-100723333D01*
X48915714Y-100961428D01*
X48868095Y-101151904D01*
X48820476Y-101247142D01*
X48772857Y-101294761D01*
X48677619Y-101342380D01*
X48582380Y-101342380D01*
X48487142Y-101294761D01*
X48439523Y-101247142D01*
X48391904Y-101151904D01*
X48344285Y-100961428D01*
X48344285Y-100723333D01*
X48391904Y-100532857D01*
X48439523Y-100437619D01*
X48487142Y-100390000D01*
X48582380Y-100342380D01*
X48750476Y-98205714D02*
X48750476Y-98872380D01*
X48512380Y-97824761D02*
X48274285Y-98539047D01*
X48893333Y-98539047D01*
X48750476Y-95432380D02*
X48560000Y-95432380D01*
X48464761Y-95480000D01*
X48417142Y-95527619D01*
X48321904Y-95670476D01*
X48274285Y-95860952D01*
X48274285Y-96241904D01*
X48321904Y-96337142D01*
X48369523Y-96384761D01*
X48464761Y-96432380D01*
X48655238Y-96432380D01*
X48750476Y-96384761D01*
X48798095Y-96337142D01*
X48845714Y-96241904D01*
X48845714Y-96003809D01*
X48798095Y-95908571D01*
X48750476Y-95860952D01*
X48655238Y-95813333D01*
X48464761Y-95813333D01*
X48369523Y-95860952D01*
X48321904Y-95908571D01*
X48274285Y-96003809D01*
X48266666Y-92932380D02*
X48933333Y-92932380D01*
X48504761Y-93932380D01*
X48898095Y-90172380D02*
X48421904Y-90172380D01*
X48374285Y-90648571D01*
X48421904Y-90600952D01*
X48517142Y-90553333D01*
X48755238Y-90553333D01*
X48850476Y-90600952D01*
X48898095Y-90648571D01*
X48945714Y-90743809D01*
X48945714Y-90981904D01*
X48898095Y-91077142D01*
X48850476Y-91124761D01*
X48755238Y-91172380D01*
X48517142Y-91172380D01*
X48421904Y-91124761D01*
X48374285Y-91077142D01*
D10*
X23700000Y-62960000D02*
X22370000Y-62960000D01*
X23700000Y-61630000D02*
X23700000Y-62960000D01*
X21100000Y-62960000D02*
X18500000Y-62960000D01*
X21100000Y-60360000D02*
X21100000Y-62960000D01*
X23700000Y-60360000D02*
X21100000Y-60360000D01*
X18500000Y-62960000D02*
X18500000Y-52680000D01*
X23700000Y-60360000D02*
X23700000Y-52680000D01*
X23700000Y-52680000D02*
X18500000Y-52680000D01*
X12670000Y-98020000D02*
X12670000Y-96690000D01*
X14000000Y-98020000D02*
X12670000Y-98020000D01*
X15270000Y-98020000D02*
X15270000Y-95360000D01*
X15270000Y-95360000D02*
X17870000Y-95360000D01*
X15270000Y-98020000D02*
X17870000Y-98020000D01*
X17870000Y-98020000D02*
X17870000Y-95360000D01*
X17970000Y-38250000D02*
X17970000Y-41700000D01*
X17970000Y-38250000D02*
X17970000Y-36300000D01*
X23090000Y-38250000D02*
X23090000Y-40200000D01*
X23090000Y-38250000D02*
X23090000Y-36300000D01*
X34180000Y-25960000D02*
X32850000Y-25960000D01*
X34180000Y-24630000D02*
X34180000Y-25960000D01*
X34180000Y-23360000D02*
X31520000Y-23360000D01*
X31520000Y-23360000D02*
X31520000Y-20760000D01*
X34180000Y-23360000D02*
X34180000Y-20760000D01*
X34180000Y-20760000D02*
X31520000Y-20760000D01*
X17210000Y-36011252D02*
X17210000Y-35488748D01*
X15790000Y-36011252D02*
X15790000Y-35488748D01*
X21528748Y-33690000D02*
X22051252Y-33690000D01*
X21528748Y-32270000D02*
X22051252Y-32270000D01*
X17178748Y-33340000D02*
X17701252Y-33340000D01*
X17178748Y-31920000D02*
X17701252Y-31920000D01*
X25550000Y-50450000D02*
X24150000Y-50450000D01*
X23450000Y-49750000D02*
X23450000Y-49150000D01*
X24150000Y-48450000D02*
X25550000Y-48450000D01*
X26250000Y-49150000D02*
X26250000Y-49750000D01*
X26250000Y-49750000D02*
G75*
G02X25550000Y-50450000I-700000J0D01*
G01*
X25550000Y-48450000D02*
G75*
G02X26250000Y-49150000I0J-700000D01*
G01*
X23450000Y-49150000D02*
G75*
G02X24150000Y-48450000I700000J0D01*
G01*
X24150000Y-50450000D02*
G75*
G02X23450000Y-49750000I0J700000D01*
G01*
X25540000Y-47950000D02*
X24140000Y-47950000D01*
X23440000Y-47250000D02*
X23440000Y-46650000D01*
X24140000Y-45950000D02*
X25540000Y-45950000D01*
X26240000Y-46650000D02*
X26240000Y-47250000D01*
X26240000Y-47250000D02*
G75*
G02X25540000Y-47950000I-700000J0D01*
G01*
X25540000Y-45950000D02*
G75*
G02X26240000Y-46650000I0J-700000D01*
G01*
X23440000Y-46650000D02*
G75*
G02X24140000Y-45950000I700000J0D01*
G01*
X24140000Y-47950000D02*
G75*
G02X23440000Y-47250000I0J700000D01*
G01*
X42450000Y-26570000D02*
X41120000Y-26570000D01*
X42450000Y-25240000D02*
X42450000Y-26570000D01*
X42450000Y-23970000D02*
X39790000Y-23970000D01*
X39790000Y-23970000D02*
X39790000Y-21370000D01*
X42450000Y-23970000D02*
X42450000Y-21370000D01*
X42450000Y-21370000D02*
X39790000Y-21370000D01*
X38150000Y-26030000D02*
X36820000Y-26030000D01*
X38150000Y-24700000D02*
X38150000Y-26030000D01*
X38150000Y-23430000D02*
X35490000Y-23430000D01*
X35490000Y-23430000D02*
X35490000Y-20830000D01*
X38150000Y-23430000D02*
X38150000Y-20830000D01*
X38150000Y-20830000D02*
X35490000Y-20830000D01*
X35310800Y-76616500D02*
X33772800Y-76616500D01*
X31692800Y-76616500D02*
X30154800Y-76616500D01*
X35308800Y-76656500D02*
X33772800Y-76656500D01*
X31692800Y-76656500D02*
X30156800Y-76656500D01*
X35305800Y-76696500D02*
X33772800Y-76696500D01*
X31692800Y-76696500D02*
X30159800Y-76696500D01*
X35301800Y-76736500D02*
X33772800Y-76736500D01*
X31692800Y-76736500D02*
X30163800Y-76736500D01*
X35297800Y-76776500D02*
X33772800Y-76776500D01*
X31692800Y-76776500D02*
X30167800Y-76776500D01*
X35293800Y-76816500D02*
X33772800Y-76816500D01*
X31692800Y-76816500D02*
X30171800Y-76816500D01*
X35288800Y-76856500D02*
X33772800Y-76856500D01*
X31692800Y-76856500D02*
X30176800Y-76856500D01*
X35282800Y-76896500D02*
X33772800Y-76896500D01*
X31692800Y-76896500D02*
X30182800Y-76896500D01*
X35275800Y-76936500D02*
X33772800Y-76936500D01*
X31692800Y-76936500D02*
X30189800Y-76936500D01*
X35268800Y-76976500D02*
X33772800Y-76976500D01*
X31692800Y-76976500D02*
X30196800Y-76976500D01*
X35260800Y-77016500D02*
X33772800Y-77016500D01*
X31692800Y-77617500D02*
X30403800Y-77617500D01*
X35042800Y-77657500D02*
X33772800Y-77657500D01*
X31692800Y-77657500D02*
X30422800Y-77657500D01*
X35022800Y-77697500D02*
X33772800Y-77697500D01*
X31692800Y-77697500D02*
X30442800Y-77697500D01*
X35000800Y-77737500D02*
X33772800Y-77737500D01*
X31692800Y-77737500D02*
X30464800Y-77737500D01*
X34979800Y-77777500D02*
X33772800Y-77777500D01*
X31692800Y-77777500D02*
X30485800Y-77777500D01*
X34956800Y-77817500D02*
X33772800Y-77817500D01*
X31692800Y-77817500D02*
X30508800Y-77817500D01*
X34932800Y-77857500D02*
X33772800Y-77857500D01*
X31692800Y-77857500D02*
X30532800Y-77857500D01*
X34907800Y-77897500D02*
X33772800Y-77897500D01*
X31692800Y-77897500D02*
X30557800Y-77897500D01*
X34881800Y-77937500D02*
X33772800Y-77937500D01*
X35312800Y-76536500D02*
X33772800Y-76536500D01*
X35311800Y-76576500D02*
X33772800Y-76576500D01*
X31692800Y-76576500D02*
X30153800Y-76576500D01*
X31692800Y-77937500D02*
X30583800Y-77937500D01*
X34854800Y-77977500D02*
X33772800Y-77977500D01*
X31692800Y-77977500D02*
X30610800Y-77977500D01*
X34827800Y-78017500D02*
X33772800Y-78017500D01*
X31692800Y-78017500D02*
X30637800Y-78017500D01*
X34797800Y-78057500D02*
X33772800Y-78057500D01*
X31692800Y-78057500D02*
X30667800Y-78057500D01*
X34767800Y-78097500D02*
X33772800Y-78097500D01*
X31692800Y-78097500D02*
X30697800Y-78097500D01*
X31692800Y-76496500D02*
X30152800Y-76496500D01*
X31692800Y-77016500D02*
X30204800Y-77016500D01*
X35252800Y-77056500D02*
X33772800Y-77056500D01*
X31692800Y-77056500D02*
X30212800Y-77056500D01*
X35243800Y-77096500D02*
X33772800Y-77096500D01*
X31692800Y-77096500D02*
X30221800Y-77096500D01*
X35233800Y-77136500D02*
X33772800Y-77136500D01*
X31692800Y-77136500D02*
X30231800Y-77136500D01*
X35223800Y-77176500D02*
X33772800Y-77176500D01*
X34736800Y-78137500D02*
X33772800Y-78137500D01*
X31692800Y-78137500D02*
X30728800Y-78137500D01*
X34703800Y-78177500D02*
X33772800Y-78177500D01*
X31692800Y-78177500D02*
X30761800Y-78177500D01*
X34669800Y-78217500D02*
X33772800Y-78217500D01*
X31692800Y-78217500D02*
X30795800Y-78217500D01*
X34633800Y-78257500D02*
X33772800Y-78257500D01*
X31692800Y-78257500D02*
X30831800Y-78257500D01*
X34596800Y-78297500D02*
X33772800Y-78297500D01*
X31692800Y-78297500D02*
X30868800Y-78297500D01*
X34558800Y-78337500D02*
X33772800Y-78337500D01*
X31692800Y-78337500D02*
X30906800Y-78337500D01*
X34517800Y-78377500D02*
X33772800Y-78377500D01*
X31692800Y-78377500D02*
X30947800Y-78377500D01*
X34475800Y-78417500D02*
X33772800Y-78417500D01*
X31692800Y-78417500D02*
X30989800Y-78417500D01*
X34431800Y-78457500D02*
X33772800Y-78457500D01*
X31692800Y-78457500D02*
X31033800Y-78457500D01*
X34385800Y-78497500D02*
X33772800Y-78497500D01*
X31692800Y-78497500D02*
X31079800Y-78497500D01*
X34337800Y-78537500D02*
X31127800Y-78537500D01*
X34286800Y-78577500D02*
X31178800Y-78577500D01*
X34232800Y-78617500D02*
X31232800Y-78617500D01*
X34175800Y-78657500D02*
X31289800Y-78657500D01*
X34115800Y-78697500D02*
X31349800Y-78697500D01*
X34051800Y-78737500D02*
X31413800Y-78737500D01*
X33983800Y-78777500D02*
X31481800Y-78777500D01*
X33910800Y-78817500D02*
X31554800Y-78817500D01*
X33830800Y-78857500D02*
X31634800Y-78857500D01*
X33743800Y-78897500D02*
X31721800Y-78897500D01*
X33647800Y-78937500D02*
X31817800Y-78937500D01*
X33537800Y-78977500D02*
X31927800Y-78977500D01*
X33409800Y-79017500D02*
X32055800Y-79017500D01*
X33250800Y-79057500D02*
X32214800Y-79057500D01*
X33016800Y-79097500D02*
X32448800Y-79097500D01*
X34334800Y-73310725D02*
X34334800Y-73810725D01*
X34584800Y-73560725D02*
X34084800Y-73560725D01*
X31692800Y-76536500D02*
X30152800Y-76536500D01*
X35312800Y-76496500D02*
X33772800Y-76496500D01*
X31692800Y-77176500D02*
X30241800Y-77176500D01*
X35212800Y-77217500D02*
X33772800Y-77217500D01*
X31692800Y-77217500D02*
X30252800Y-77217500D01*
X35200800Y-77257500D02*
X33772800Y-77257500D01*
X31692800Y-77257500D02*
X30264800Y-77257500D01*
X35187800Y-77297500D02*
X33772800Y-77297500D01*
X31692800Y-77297500D02*
X30277800Y-77297500D01*
X35174800Y-77337500D02*
X33772800Y-77337500D01*
X31692800Y-77337500D02*
X30290800Y-77337500D01*
X35160800Y-77377500D02*
X33772800Y-77377500D01*
X31692800Y-77377500D02*
X30304800Y-77377500D01*
X35146800Y-77417500D02*
X33772800Y-77417500D01*
X31692800Y-77417500D02*
X30318800Y-77417500D01*
X35130800Y-77457500D02*
X33772800Y-77457500D01*
X31692800Y-77457500D02*
X30334800Y-77457500D01*
X35114800Y-77497500D02*
X33772800Y-77497500D01*
X31692800Y-77497500D02*
X30350800Y-77497500D01*
X35097800Y-77537500D02*
X33772800Y-77537500D01*
X31692800Y-77537500D02*
X30367800Y-77537500D01*
X35080800Y-77577500D02*
X33772800Y-77577500D01*
X31692800Y-77577500D02*
X30384800Y-77577500D01*
X35061800Y-77617500D02*
X33772800Y-77617500D01*
X35632800Y-76496500D02*
G75*
G03X35632800Y-76496500I-2900000J0D01*
G01*
X36710000Y-59450000D02*
X26970000Y-59450000D01*
X36710000Y-71040000D02*
X35220000Y-71040000D01*
X36710000Y-62510000D02*
X36710000Y-59450000D01*
X26960000Y-71040000D02*
X26960000Y-66320000D01*
X26970000Y-62510000D02*
X26970000Y-59450000D01*
X36710000Y-71040000D02*
X36710000Y-66320000D01*
X28150000Y-71040000D02*
X26970000Y-71040000D01*
X31050000Y-71040000D02*
X30520000Y-71040000D01*
X33500000Y-71040000D02*
X32670000Y-71040000D01*
X13980000Y-35140000D02*
X12650000Y-35140000D01*
X13980000Y-33810000D02*
X13980000Y-35140000D01*
X13980000Y-32540000D02*
X11320000Y-32540000D01*
X11320000Y-32540000D02*
X11320000Y-19780000D01*
X13980000Y-32540000D02*
X13980000Y-19780000D01*
X13980000Y-19780000D02*
X11320000Y-19780000D01*
X12720000Y-101770000D02*
X12720000Y-100440000D01*
X14050000Y-101770000D02*
X12720000Y-101770000D01*
X15320000Y-101770000D02*
X15320000Y-99110000D01*
X15320000Y-99110000D02*
X17920000Y-99110000D01*
X15320000Y-101770000D02*
X17920000Y-101770000D01*
X17920000Y-101770000D02*
X17920000Y-99110000D01*
X10715100Y-63339000D02*
X10715100Y-59021000D01*
X11008100Y-65971900D02*
X11008100Y-56231900D01*
X15298100Y-65971900D02*
X11008100Y-65971900D01*
X15298100Y-56231900D02*
X11008100Y-56231900D01*
X15298100Y-65971900D02*
X15298100Y-56231900D01*
X10955100Y-90889000D02*
X10955100Y-86571000D01*
X11248100Y-93521900D02*
X11248100Y-83781900D01*
X15538100Y-93521900D02*
X11248100Y-93521900D01*
X15538100Y-83781900D02*
X11248100Y-83781900D01*
X15538100Y-93521900D02*
X15538100Y-83781900D01*
X10840000Y-103860000D02*
X13440000Y-103860000D01*
X10840000Y-118560000D02*
X10840000Y-103860000D01*
X20040000Y-103860000D02*
X20040000Y-105760000D01*
X17340000Y-103860000D02*
X20040000Y-103860000D01*
X20040000Y-118560000D02*
X10840000Y-118560000D01*
X20040000Y-109760000D02*
X20040000Y-118560000D01*
X10640000Y-104710000D02*
X10640000Y-103660000D01*
X11690000Y-103660000D02*
X10640000Y-103660000D01*
X43870000Y-107490000D02*
X47320000Y-107490000D01*
X43870000Y-107490000D02*
X41920000Y-107490000D01*
X43870000Y-97370000D02*
X45820000Y-97370000D01*
X43870000Y-97370000D02*
X41920000Y-97370000D01*
X38610000Y-68740000D02*
X39560000Y-68740000D01*
X38610000Y-90520000D02*
X39260000Y-90520000D01*
X38610000Y-68740000D02*
X38610000Y-90520000D01*
X41850000Y-68740000D02*
X40960000Y-68740000D01*
X41850000Y-90520000D02*
X41260000Y-90520000D01*
X41850000Y-68740000D02*
X41850000Y-90520000D01*
X41850000Y-88520000D02*
X38610000Y-88520000D01*
X44090000Y-77570000D02*
X50550000Y-77570000D01*
X44090000Y-73040000D02*
X44090000Y-75640000D01*
X44090000Y-71110000D02*
X50550000Y-71110000D01*
X50550000Y-73040000D02*
X50550000Y-75640000D01*
X44090000Y-71140000D02*
X44090000Y-71110000D01*
X44090000Y-77570000D02*
X44090000Y-77540000D01*
X50550000Y-77570000D02*
X50550000Y-77540000D01*
X50550000Y-71110000D02*
X50550000Y-71140000D01*
X50450000Y-59660000D02*
X43990000Y-59660000D01*
X50450000Y-64190000D02*
X50450000Y-61590000D01*
X50450000Y-66120000D02*
X43990000Y-66120000D01*
X43990000Y-64190000D02*
X43990000Y-61590000D01*
X50450000Y-66090000D02*
X50450000Y-66120000D01*
X50450000Y-59660000D02*
X50450000Y-59690000D01*
X43990000Y-59660000D02*
X43990000Y-59690000D01*
X43990000Y-66120000D02*
X43990000Y-66090000D01*
X50790001Y-82586252D02*
X50790001Y-82063748D01*
X49370001Y-82586252D02*
X49370001Y-82063748D01*
X25943748Y-43369999D02*
X26466252Y-43369999D01*
X25943748Y-41949999D02*
X26466252Y-41949999D01*
X37410000Y-82930000D02*
X36010000Y-82930000D01*
X35310000Y-82230000D02*
X35310000Y-81630000D01*
X36010000Y-80930000D02*
X37410000Y-80930000D01*
X38110000Y-81630000D02*
X38110000Y-82230000D01*
X38110000Y-82230000D02*
G75*
G02X37410000Y-82930000I-700000J0D01*
G01*
X37410000Y-80930000D02*
G75*
G02X38110000Y-81630000I0J-700000D01*
G01*
X35310000Y-81630000D02*
G75*
G02X36010000Y-80930000I700000J0D01*
G01*
X36010000Y-82930000D02*
G75*
G02X35310000Y-82230000I0J700000D01*
G01*
X38050000Y-78200000D02*
X38050000Y-79600000D01*
X37350000Y-80300000D02*
X36750000Y-80300000D01*
X36050000Y-79600000D02*
X36050000Y-78200000D01*
X36750000Y-77500000D02*
X37350000Y-77500000D01*
X37350000Y-77500000D02*
G75*
G02X38050000Y-78200000I0J-700000D01*
G01*
X36050000Y-78200000D02*
G75*
G02X36750000Y-77500000I700000J0D01*
G01*
X36750000Y-80300000D02*
G75*
G02X36050000Y-79600000I0J700000D01*
G01*
X38050000Y-79600000D02*
G75*
G02X37350000Y-80300000I-700000J0D01*
G01*
X49220000Y-89390000D02*
X50550000Y-89390000D01*
X49220000Y-90720000D02*
X49220000Y-89390000D01*
X49220000Y-91990000D02*
X51880000Y-91990000D01*
X51880000Y-91990000D02*
X51880000Y-109830000D01*
X49220000Y-91990000D02*
X49220000Y-109830000D01*
X49220000Y-109830000D02*
X51880000Y-109830000D01*
X42300000Y-88620000D02*
X43550000Y-88620000D01*
X42300000Y-87370000D02*
X42300000Y-88620000D01*
X47800000Y-81470000D02*
X47800000Y-84520000D01*
X44850000Y-81470000D02*
X47800000Y-81470000D01*
X44850000Y-80720000D02*
X44850000Y-81470000D01*
X47800000Y-87570000D02*
X47800000Y-84520000D01*
X44850000Y-87570000D02*
X47800000Y-87570000D01*
X44850000Y-88320000D02*
X44850000Y-87570000D01*
X42600000Y-80720000D02*
X42600000Y-82520000D01*
X43350000Y-80720000D02*
X42600000Y-80720000D01*
X43350000Y-82520000D02*
X43350000Y-80720000D01*
X42600000Y-82520000D02*
X43350000Y-82520000D01*
X42600000Y-86520000D02*
X42600000Y-88320000D01*
X43350000Y-86520000D02*
X42600000Y-86520000D01*
X43350000Y-88320000D02*
X43350000Y-86520000D01*
X42600000Y-88320000D02*
X43350000Y-88320000D01*
X42600000Y-84020000D02*
X42600000Y-85020000D01*
X43350000Y-84020000D02*
X42600000Y-84020000D01*
X43350000Y-85020000D02*
X43350000Y-84020000D01*
X42600000Y-85020000D02*
X43350000Y-85020000D01*
X42590000Y-80710000D02*
X42590000Y-88330000D01*
X48560000Y-80710000D02*
X42590000Y-80710000D01*
X48560000Y-88330000D02*
X48560000Y-80710000D01*
X42590000Y-88330000D02*
X48560000Y-88330000D01*
X48710000Y-39320000D02*
X50040000Y-39320000D01*
X48710000Y-40650000D02*
X48710000Y-39320000D01*
X48710000Y-41920000D02*
X51370000Y-41920000D01*
X51370000Y-41920000D02*
X51370000Y-54680000D01*
X48710000Y-41920000D02*
X48710000Y-54680000D01*
X48710000Y-54680000D02*
X51370000Y-54680000D01*
X50800000Y-86641251D02*
X50800000Y-86118747D01*
X49380000Y-86641251D02*
X49380000Y-86118747D01*
X32703500Y-87980800D02*
X32703500Y-86442800D01*
X32703500Y-84362800D02*
X32703500Y-82824800D01*
X32663500Y-87978800D02*
X32663500Y-86442800D01*
X32663500Y-84362800D02*
X32663500Y-82826800D01*
X32623500Y-87975800D02*
X32623500Y-86442800D01*
X32623500Y-84362800D02*
X32623500Y-82829800D01*
X32583500Y-87971800D02*
X32583500Y-86442800D01*
X32583500Y-84362800D02*
X32583500Y-82833800D01*
X32543500Y-87967800D02*
X32543500Y-86442800D01*
X32543500Y-84362800D02*
X32543500Y-82837800D01*
X32503500Y-87963800D02*
X32503500Y-86442800D01*
X32503500Y-84362800D02*
X32503500Y-82841800D01*
X32463500Y-87958800D02*
X32463500Y-86442800D01*
X32463500Y-84362800D02*
X32463500Y-82846800D01*
X32423500Y-87952800D02*
X32423500Y-86442800D01*
X32423500Y-84362800D02*
X32423500Y-82852800D01*
X32383500Y-87945800D02*
X32383500Y-86442800D01*
X32383500Y-84362800D02*
X32383500Y-82859800D01*
X32343500Y-87938800D02*
X32343500Y-86442800D01*
X32343500Y-84362800D02*
X32343500Y-82866800D01*
X32303500Y-87930800D02*
X32303500Y-86442800D01*
X31702500Y-84362800D02*
X31702500Y-83073800D01*
X31662500Y-87712800D02*
X31662500Y-86442800D01*
X31662500Y-84362800D02*
X31662500Y-83092800D01*
X31622500Y-87692800D02*
X31622500Y-86442800D01*
X31622500Y-84362800D02*
X31622500Y-83112800D01*
X31582500Y-87670800D02*
X31582500Y-86442800D01*
X31582500Y-84362800D02*
X31582500Y-83134800D01*
X31542500Y-87649800D02*
X31542500Y-86442800D01*
X31542500Y-84362800D02*
X31542500Y-83155800D01*
X31502500Y-87626800D02*
X31502500Y-86442800D01*
X31502500Y-84362800D02*
X31502500Y-83178800D01*
X31462500Y-87602800D02*
X31462500Y-86442800D01*
X31462500Y-84362800D02*
X31462500Y-83202800D01*
X31422500Y-87577800D02*
X31422500Y-86442800D01*
X31422500Y-84362800D02*
X31422500Y-83227800D01*
X31382500Y-87551800D02*
X31382500Y-86442800D01*
X32783500Y-87982800D02*
X32783500Y-86442800D01*
X32743500Y-87981800D02*
X32743500Y-86442800D01*
X32743500Y-84362800D02*
X32743500Y-82823800D01*
X31382500Y-84362800D02*
X31382500Y-83253800D01*
X31342500Y-87524800D02*
X31342500Y-86442800D01*
X31342500Y-84362800D02*
X31342500Y-83280800D01*
X31302500Y-87497800D02*
X31302500Y-86442800D01*
X31302500Y-84362800D02*
X31302500Y-83307800D01*
X31262500Y-87467800D02*
X31262500Y-86442800D01*
X31262500Y-84362800D02*
X31262500Y-83337800D01*
X31222500Y-87437800D02*
X31222500Y-86442800D01*
X31222500Y-84362800D02*
X31222500Y-83367800D01*
X32823500Y-84362800D02*
X32823500Y-82822800D01*
X32303500Y-84362800D02*
X32303500Y-82874800D01*
X32263500Y-87922800D02*
X32263500Y-86442800D01*
X32263500Y-84362800D02*
X32263500Y-82882800D01*
X32223500Y-87913800D02*
X32223500Y-86442800D01*
X32223500Y-84362800D02*
X32223500Y-82891800D01*
X32183500Y-87903800D02*
X32183500Y-86442800D01*
X32183500Y-84362800D02*
X32183500Y-82901800D01*
X32143500Y-87893800D02*
X32143500Y-86442800D01*
X31182500Y-87406800D02*
X31182500Y-86442800D01*
X31182500Y-84362800D02*
X31182500Y-83398800D01*
X31142500Y-87373800D02*
X31142500Y-86442800D01*
X31142500Y-84362800D02*
X31142500Y-83431800D01*
X31102500Y-87339800D02*
X31102500Y-86442800D01*
X31102500Y-84362800D02*
X31102500Y-83465800D01*
X31062500Y-87303800D02*
X31062500Y-86442800D01*
X31062500Y-84362800D02*
X31062500Y-83501800D01*
X31022500Y-87266800D02*
X31022500Y-86442800D01*
X31022500Y-84362800D02*
X31022500Y-83538800D01*
X30982500Y-87228800D02*
X30982500Y-86442800D01*
X30982500Y-84362800D02*
X30982500Y-83576800D01*
X30942500Y-87187800D02*
X30942500Y-86442800D01*
X30942500Y-84362800D02*
X30942500Y-83617800D01*
X30902500Y-87145800D02*
X30902500Y-86442800D01*
X30902500Y-84362800D02*
X30902500Y-83659800D01*
X30862500Y-87101800D02*
X30862500Y-86442800D01*
X30862500Y-84362800D02*
X30862500Y-83703800D01*
X30822500Y-87055800D02*
X30822500Y-86442800D01*
X30822500Y-84362800D02*
X30822500Y-83749800D01*
X30782500Y-87007800D02*
X30782500Y-83797800D01*
X30742500Y-86956800D02*
X30742500Y-83848800D01*
X30702500Y-86902800D02*
X30702500Y-83902800D01*
X30662500Y-86845800D02*
X30662500Y-83959800D01*
X30622500Y-86785800D02*
X30622500Y-84019800D01*
X30582500Y-86721800D02*
X30582500Y-84083800D01*
X30542500Y-86653800D02*
X30542500Y-84151800D01*
X30502500Y-86580800D02*
X30502500Y-84224800D01*
X30462500Y-86500800D02*
X30462500Y-84304800D01*
X30422500Y-86413800D02*
X30422500Y-84391800D01*
X30382500Y-86317800D02*
X30382500Y-84487800D01*
X30342500Y-86207800D02*
X30342500Y-84597800D01*
X30302500Y-86079800D02*
X30302500Y-84725800D01*
X30262500Y-85920800D02*
X30262500Y-84884800D01*
X30222500Y-85686800D02*
X30222500Y-85118800D01*
X36009275Y-87004800D02*
X35509275Y-87004800D01*
X35759275Y-87254800D02*
X35759275Y-86754800D01*
X32783500Y-84362800D02*
X32783500Y-82822800D01*
X32823500Y-87982800D02*
X32823500Y-86442800D01*
X32143500Y-84362800D02*
X32143500Y-82911800D01*
X32102500Y-87882800D02*
X32102500Y-86442800D01*
X32102500Y-84362800D02*
X32102500Y-82922800D01*
X32062500Y-87870800D02*
X32062500Y-86442800D01*
X32062500Y-84362800D02*
X32062500Y-82934800D01*
X32022500Y-87857800D02*
X32022500Y-86442800D01*
X32022500Y-84362800D02*
X32022500Y-82947800D01*
X31982500Y-87844800D02*
X31982500Y-86442800D01*
X31982500Y-84362800D02*
X31982500Y-82960800D01*
X31942500Y-87830800D02*
X31942500Y-86442800D01*
X31942500Y-84362800D02*
X31942500Y-82974800D01*
X31902500Y-87816800D02*
X31902500Y-86442800D01*
X31902500Y-84362800D02*
X31902500Y-82988800D01*
X31862500Y-87800800D02*
X31862500Y-86442800D01*
X31862500Y-84362800D02*
X31862500Y-83004800D01*
X31822500Y-87784800D02*
X31822500Y-86442800D01*
X31822500Y-84362800D02*
X31822500Y-83020800D01*
X31782500Y-87767800D02*
X31782500Y-86442800D01*
X31782500Y-84362800D02*
X31782500Y-83037800D01*
X31742500Y-87750800D02*
X31742500Y-86442800D01*
X31742500Y-84362800D02*
X31742500Y-83054800D01*
X31702500Y-87731800D02*
X31702500Y-86442800D01*
X35723500Y-85402800D02*
G75*
G03X35723500Y-85402800I-2900000J0D01*
G01*
X26146500Y-82799200D02*
X26146500Y-84337200D01*
X26146500Y-86417200D02*
X26146500Y-87955200D01*
X26186500Y-82801200D02*
X26186500Y-84337200D01*
X26186500Y-86417200D02*
X26186500Y-87953200D01*
X26226500Y-82804200D02*
X26226500Y-84337200D01*
X26226500Y-86417200D02*
X26226500Y-87950200D01*
X26266500Y-82808200D02*
X26266500Y-84337200D01*
X26266500Y-86417200D02*
X26266500Y-87946200D01*
X26306500Y-82812200D02*
X26306500Y-84337200D01*
X26306500Y-86417200D02*
X26306500Y-87942200D01*
X26346500Y-82816200D02*
X26346500Y-84337200D01*
X26346500Y-86417200D02*
X26346500Y-87938200D01*
X26386500Y-82821200D02*
X26386500Y-84337200D01*
X26386500Y-86417200D02*
X26386500Y-87933200D01*
X26426500Y-82827200D02*
X26426500Y-84337200D01*
X26426500Y-86417200D02*
X26426500Y-87927200D01*
X26466500Y-82834200D02*
X26466500Y-84337200D01*
X26466500Y-86417200D02*
X26466500Y-87920200D01*
X26506500Y-82841200D02*
X26506500Y-84337200D01*
X26506500Y-86417200D02*
X26506500Y-87913200D01*
X26546500Y-82849200D02*
X26546500Y-84337200D01*
X27147500Y-86417200D02*
X27147500Y-87706200D01*
X27187500Y-83067200D02*
X27187500Y-84337200D01*
X27187500Y-86417200D02*
X27187500Y-87687200D01*
X27227500Y-83087200D02*
X27227500Y-84337200D01*
X27227500Y-86417200D02*
X27227500Y-87667200D01*
X27267500Y-83109200D02*
X27267500Y-84337200D01*
X27267500Y-86417200D02*
X27267500Y-87645200D01*
X27307500Y-83130200D02*
X27307500Y-84337200D01*
X27307500Y-86417200D02*
X27307500Y-87624200D01*
X27347500Y-83153200D02*
X27347500Y-84337200D01*
X27347500Y-86417200D02*
X27347500Y-87601200D01*
X27387500Y-83177200D02*
X27387500Y-84337200D01*
X27387500Y-86417200D02*
X27387500Y-87577200D01*
X27427500Y-83202200D02*
X27427500Y-84337200D01*
X27427500Y-86417200D02*
X27427500Y-87552200D01*
X27467500Y-83228200D02*
X27467500Y-84337200D01*
X26066500Y-82797200D02*
X26066500Y-84337200D01*
X26106500Y-82798200D02*
X26106500Y-84337200D01*
X26106500Y-86417200D02*
X26106500Y-87956200D01*
X27467500Y-86417200D02*
X27467500Y-87526200D01*
X27507500Y-83255200D02*
X27507500Y-84337200D01*
X27507500Y-86417200D02*
X27507500Y-87499200D01*
X27547500Y-83282200D02*
X27547500Y-84337200D01*
X27547500Y-86417200D02*
X27547500Y-87472200D01*
X27587500Y-83312200D02*
X27587500Y-84337200D01*
X27587500Y-86417200D02*
X27587500Y-87442200D01*
X27627500Y-83342200D02*
X27627500Y-84337200D01*
X27627500Y-86417200D02*
X27627500Y-87412200D01*
X26026500Y-86417200D02*
X26026500Y-87957200D01*
X26546500Y-86417200D02*
X26546500Y-87905200D01*
X26586500Y-82857200D02*
X26586500Y-84337200D01*
X26586500Y-86417200D02*
X26586500Y-87897200D01*
X26626500Y-82866200D02*
X26626500Y-84337200D01*
X26626500Y-86417200D02*
X26626500Y-87888200D01*
X26666500Y-82876200D02*
X26666500Y-84337200D01*
X26666500Y-86417200D02*
X26666500Y-87878200D01*
X26706500Y-82886200D02*
X26706500Y-84337200D01*
X27667500Y-83373200D02*
X27667500Y-84337200D01*
X27667500Y-86417200D02*
X27667500Y-87381200D01*
X27707500Y-83406200D02*
X27707500Y-84337200D01*
X27707500Y-86417200D02*
X27707500Y-87348200D01*
X27747500Y-83440200D02*
X27747500Y-84337200D01*
X27747500Y-86417200D02*
X27747500Y-87314200D01*
X27787500Y-83476200D02*
X27787500Y-84337200D01*
X27787500Y-86417200D02*
X27787500Y-87278200D01*
X27827500Y-83513200D02*
X27827500Y-84337200D01*
X27827500Y-86417200D02*
X27827500Y-87241200D01*
X27867500Y-83551200D02*
X27867500Y-84337200D01*
X27867500Y-86417200D02*
X27867500Y-87203200D01*
X27907500Y-83592200D02*
X27907500Y-84337200D01*
X27907500Y-86417200D02*
X27907500Y-87162200D01*
X27947500Y-83634200D02*
X27947500Y-84337200D01*
X27947500Y-86417200D02*
X27947500Y-87120200D01*
X27987500Y-83678200D02*
X27987500Y-84337200D01*
X27987500Y-86417200D02*
X27987500Y-87076200D01*
X28027500Y-83724200D02*
X28027500Y-84337200D01*
X28027500Y-86417200D02*
X28027500Y-87030200D01*
X28067500Y-83772200D02*
X28067500Y-86982200D01*
X28107500Y-83823200D02*
X28107500Y-86931200D01*
X28147500Y-83877200D02*
X28147500Y-86877200D01*
X28187500Y-83934200D02*
X28187500Y-86820200D01*
X28227500Y-83994200D02*
X28227500Y-86760200D01*
X28267500Y-84058200D02*
X28267500Y-86696200D01*
X28307500Y-84126200D02*
X28307500Y-86628200D01*
X28347500Y-84199200D02*
X28347500Y-86555200D01*
X28387500Y-84279200D02*
X28387500Y-86475200D01*
X28427500Y-84366200D02*
X28427500Y-86388200D01*
X28467500Y-84462200D02*
X28467500Y-86292200D01*
X28507500Y-84572200D02*
X28507500Y-86182200D01*
X28547500Y-84700200D02*
X28547500Y-86054200D01*
X28587500Y-84859200D02*
X28587500Y-85895200D01*
X28627500Y-85093200D02*
X28627500Y-85661200D01*
X22840725Y-83775200D02*
X23340725Y-83775200D01*
X23090725Y-83525200D02*
X23090725Y-84025200D01*
X26066500Y-86417200D02*
X26066500Y-87957200D01*
X26026500Y-82797200D02*
X26026500Y-84337200D01*
X26706500Y-86417200D02*
X26706500Y-87868200D01*
X26747500Y-82897200D02*
X26747500Y-84337200D01*
X26747500Y-86417200D02*
X26747500Y-87857200D01*
X26787500Y-82909200D02*
X26787500Y-84337200D01*
X26787500Y-86417200D02*
X26787500Y-87845200D01*
X26827500Y-82922200D02*
X26827500Y-84337200D01*
X26827500Y-86417200D02*
X26827500Y-87832200D01*
X26867500Y-82935200D02*
X26867500Y-84337200D01*
X26867500Y-86417200D02*
X26867500Y-87819200D01*
X26907500Y-82949200D02*
X26907500Y-84337200D01*
X26907500Y-86417200D02*
X26907500Y-87805200D01*
X26947500Y-82963200D02*
X26947500Y-84337200D01*
X26947500Y-86417200D02*
X26947500Y-87791200D01*
X26987500Y-82979200D02*
X26987500Y-84337200D01*
X26987500Y-86417200D02*
X26987500Y-87775200D01*
X27027500Y-82995200D02*
X27027500Y-84337200D01*
X27027500Y-86417200D02*
X27027500Y-87759200D01*
X27067500Y-83012200D02*
X27067500Y-84337200D01*
X27067500Y-86417200D02*
X27067500Y-87742200D01*
X27107500Y-83029200D02*
X27107500Y-84337200D01*
X27107500Y-86417200D02*
X27107500Y-87725200D01*
X27147500Y-83048200D02*
X27147500Y-84337200D01*
X28926500Y-85377200D02*
G75*
G03X28926500Y-85377200I-2900000J0D01*
G01*
X33300000Y-89890000D02*
X23020000Y-89890000D01*
X33300000Y-110450000D02*
X33300000Y-89890000D01*
X23020000Y-110450000D02*
X33300000Y-110450000D01*
X23020000Y-89890000D02*
X23020000Y-110450000D01*
X30810000Y-89950000D02*
X29160000Y-89950000D01*
X30810000Y-110390000D02*
X30810000Y-89950000D01*
X25510000Y-110390000D02*
X30810000Y-110390000D01*
X25510000Y-89950000D02*
X25510000Y-110390000D01*
X27160000Y-89950000D02*
X25510000Y-89950000D01*
X29160000Y-89950000D02*
G75*
G02X27160000Y-89950000I-1000000J0D01*
G01*
X29030000Y-57230000D02*
X29030000Y-58010000D01*
X29030000Y-58010000D02*
X30030000Y-58010000D01*
X47270000Y-57230000D02*
X47270000Y-58010000D01*
X47270000Y-58010000D02*
X46270000Y-58010000D01*
X29030000Y-32265000D02*
X47270000Y-32265000D01*
X47270000Y-32265000D02*
X47270000Y-38685000D01*
X29030000Y-32265000D02*
X29030000Y-38685000D01*
X29030000Y-38685000D02*
X28650000Y-38685000D01*
D11*
X20766666Y-63412380D02*
X20766666Y-64126666D01*
X20719047Y-64269523D01*
X20623809Y-64364761D01*
X20480952Y-64412380D01*
X20385714Y-64412380D01*
X21385714Y-63840952D02*
X21290476Y-63793333D01*
X21242857Y-63745714D01*
X21195238Y-63650476D01*
X21195238Y-63602857D01*
X21242857Y-63507619D01*
X21290476Y-63460000D01*
X21385714Y-63412380D01*
X21576190Y-63412380D01*
X21671428Y-63460000D01*
X21719047Y-63507619D01*
X21766666Y-63602857D01*
X21766666Y-63650476D01*
X21719047Y-63745714D01*
X21671428Y-63793333D01*
X21576190Y-63840952D01*
X21385714Y-63840952D01*
X21290476Y-63888571D01*
X21242857Y-63936190D01*
X21195238Y-64031428D01*
X21195238Y-64221904D01*
X21242857Y-64317142D01*
X21290476Y-64364761D01*
X21385714Y-64412380D01*
X21576190Y-64412380D01*
X21671428Y-64364761D01*
X21719047Y-64317142D01*
X21766666Y-64221904D01*
X21766666Y-64031428D01*
X21719047Y-63936190D01*
X21671428Y-63888571D01*
X21576190Y-63840952D01*
X19972380Y-44091904D02*
X20781904Y-44091904D01*
X20877142Y-44044285D01*
X20924761Y-43996666D01*
X20972380Y-43901428D01*
X20972380Y-43710952D01*
X20924761Y-43615714D01*
X20877142Y-43568095D01*
X20781904Y-43520476D01*
X19972380Y-43520476D01*
X19972380Y-42568095D02*
X19972380Y-43044285D01*
X20448571Y-43091904D01*
X20400952Y-43044285D01*
X20353333Y-42949047D01*
X20353333Y-42710952D01*
X20400952Y-42615714D01*
X20448571Y-42568095D01*
X20543809Y-42520476D01*
X20781904Y-42520476D01*
X20877142Y-42568095D01*
X20924761Y-42615714D01*
X20972380Y-42710952D01*
X20972380Y-42949047D01*
X20924761Y-43044285D01*
X20877142Y-43091904D01*
X15832380Y-38756666D02*
X15356190Y-39090000D01*
X15832380Y-39328095D02*
X14832380Y-39328095D01*
X14832380Y-38947142D01*
X14880000Y-38851904D01*
X14927619Y-38804285D01*
X15022857Y-38756666D01*
X15165714Y-38756666D01*
X15260952Y-38804285D01*
X15308571Y-38851904D01*
X15356190Y-38947142D01*
X15356190Y-39328095D01*
X15832380Y-38280476D02*
X15832380Y-38090000D01*
X15784761Y-37994761D01*
X15737142Y-37947142D01*
X15594285Y-37851904D01*
X15403809Y-37804285D01*
X15022857Y-37804285D01*
X14927619Y-37851904D01*
X14880000Y-37899523D01*
X14832380Y-37994761D01*
X14832380Y-38185238D01*
X14880000Y-38280476D01*
X14927619Y-38328095D01*
X15022857Y-38375714D01*
X15260952Y-38375714D01*
X15356190Y-38328095D01*
X15403809Y-38280476D01*
X15451428Y-38185238D01*
X15451428Y-37994761D01*
X15403809Y-37899523D01*
X15356190Y-37851904D01*
X15260952Y-37804285D01*
X21623333Y-31782380D02*
X21290000Y-31306190D01*
X21051904Y-31782380D02*
X21051904Y-30782380D01*
X21432857Y-30782380D01*
X21528095Y-30830000D01*
X21575714Y-30877619D01*
X21623333Y-30972857D01*
X21623333Y-31115714D01*
X21575714Y-31210952D01*
X21528095Y-31258571D01*
X21432857Y-31306190D01*
X21051904Y-31306190D01*
X21956666Y-30782380D02*
X22623333Y-30782380D01*
X22194761Y-31782380D01*
X16797142Y-31432380D02*
X16463809Y-30956190D01*
X16225714Y-31432380D02*
X16225714Y-30432380D01*
X16606666Y-30432380D01*
X16701904Y-30480000D01*
X16749523Y-30527619D01*
X16797142Y-30622857D01*
X16797142Y-30765714D01*
X16749523Y-30860952D01*
X16701904Y-30908571D01*
X16606666Y-30956190D01*
X16225714Y-30956190D01*
X17749523Y-31432380D02*
X17178095Y-31432380D01*
X17463809Y-31432380D02*
X17463809Y-30432380D01*
X17368571Y-30575238D01*
X17273333Y-30670476D01*
X17178095Y-30718095D01*
X18368571Y-30432380D02*
X18463809Y-30432380D01*
X18559047Y-30480000D01*
X18606666Y-30527619D01*
X18654285Y-30622857D01*
X18701904Y-30813333D01*
X18701904Y-31051428D01*
X18654285Y-31241904D01*
X18606666Y-31337142D01*
X18559047Y-31384761D01*
X18463809Y-31432380D01*
X18368571Y-31432380D01*
X18273333Y-31384761D01*
X18225714Y-31337142D01*
X18178095Y-31241904D01*
X18130476Y-31051428D01*
X18130476Y-30813333D01*
X18178095Y-30622857D01*
X18225714Y-30527619D01*
X18273333Y-30480000D01*
X18368571Y-30432380D01*
X40786666Y-27022380D02*
X40786666Y-27736666D01*
X40739047Y-27879523D01*
X40643809Y-27974761D01*
X40500952Y-28022380D01*
X40405714Y-28022380D01*
X41167619Y-27022380D02*
X41834285Y-27022380D01*
X41405714Y-28022380D01*
X29635542Y-77149066D02*
X29683161Y-77196685D01*
X29730780Y-77339542D01*
X29730780Y-77434780D01*
X29683161Y-77577638D01*
X29587923Y-77672876D01*
X29492685Y-77720495D01*
X29302209Y-77768114D01*
X29159352Y-77768114D01*
X28968876Y-77720495D01*
X28873638Y-77672876D01*
X28778400Y-77577638D01*
X28730780Y-77434780D01*
X28730780Y-77339542D01*
X28778400Y-77196685D01*
X28826019Y-77149066D01*
X29064114Y-76291923D02*
X29730780Y-76291923D01*
X28683161Y-76530019D02*
X29397447Y-76768114D01*
X29397447Y-76149066D01*
X43108095Y-107782380D02*
X43108095Y-108591904D01*
X43155714Y-108687142D01*
X43203333Y-108734761D01*
X43298571Y-108782380D01*
X43489047Y-108782380D01*
X43584285Y-108734761D01*
X43631904Y-108687142D01*
X43679523Y-108591904D01*
X43679523Y-107782380D01*
X44584285Y-107782380D02*
X44393809Y-107782380D01*
X44298571Y-107830000D01*
X44250952Y-107877619D01*
X44155714Y-108020476D01*
X44108095Y-108210952D01*
X44108095Y-108591904D01*
X44155714Y-108687142D01*
X44203333Y-108734761D01*
X44298571Y-108782380D01*
X44489047Y-108782380D01*
X44584285Y-108734761D01*
X44631904Y-108687142D01*
X44679523Y-108591904D01*
X44679523Y-108353809D01*
X44631904Y-108258571D01*
X44584285Y-108210952D01*
X44489047Y-108163333D01*
X44298571Y-108163333D01*
X44203333Y-108210952D01*
X44155714Y-108258571D01*
X44108095Y-108353809D01*
X37382380Y-90461904D02*
X38191904Y-90461904D01*
X38287142Y-90414285D01*
X38334761Y-90366666D01*
X38382380Y-90271428D01*
X38382380Y-90080952D01*
X38334761Y-89985714D01*
X38287142Y-89938095D01*
X38191904Y-89890476D01*
X37382380Y-89890476D01*
X37715714Y-88985714D02*
X38382380Y-88985714D01*
X37334761Y-89223809D02*
X38049047Y-89461904D01*
X38049047Y-88842857D01*
X52182380Y-82656666D02*
X51706190Y-82990000D01*
X52182380Y-83228095D02*
X51182380Y-83228095D01*
X51182380Y-82847142D01*
X51230000Y-82751904D01*
X51277619Y-82704285D01*
X51372857Y-82656666D01*
X51515714Y-82656666D01*
X51610952Y-82704285D01*
X51658571Y-82751904D01*
X51706190Y-82847142D01*
X51706190Y-83228095D01*
X51182380Y-81799523D02*
X51182380Y-81990000D01*
X51230000Y-82085238D01*
X51277619Y-82132857D01*
X51420476Y-82228095D01*
X51610952Y-82275714D01*
X51991904Y-82275714D01*
X52087142Y-82228095D01*
X52134761Y-82180476D01*
X52182380Y-82085238D01*
X52182380Y-81894761D01*
X52134761Y-81799523D01*
X52087142Y-81751904D01*
X51991904Y-81704285D01*
X51753809Y-81704285D01*
X51658571Y-81751904D01*
X51610952Y-81799523D01*
X51563333Y-81894761D01*
X51563333Y-82085238D01*
X51610952Y-82180476D01*
X51658571Y-82228095D01*
X51753809Y-82275714D01*
X26038333Y-41462379D02*
X25705000Y-40986189D01*
X25466904Y-41462379D02*
X25466904Y-40462379D01*
X25847857Y-40462379D01*
X25943095Y-40509999D01*
X25990714Y-40557618D01*
X26038333Y-40652856D01*
X26038333Y-40795713D01*
X25990714Y-40890951D01*
X25943095Y-40938570D01*
X25847857Y-40986189D01*
X25466904Y-40986189D01*
X26990714Y-41462379D02*
X26419285Y-41462379D01*
X26705000Y-41462379D02*
X26705000Y-40462379D01*
X26609761Y-40605237D01*
X26514523Y-40700475D01*
X26419285Y-40748094D01*
X52107142Y-86756666D02*
X52154761Y-86804285D01*
X52202380Y-86947142D01*
X52202380Y-87042380D01*
X52154761Y-87185238D01*
X52059523Y-87280476D01*
X51964285Y-87328095D01*
X51773809Y-87375714D01*
X51630952Y-87375714D01*
X51440476Y-87328095D01*
X51345238Y-87280476D01*
X51250000Y-87185238D01*
X51202380Y-87042380D01*
X51202380Y-86947142D01*
X51250000Y-86804285D01*
X51297619Y-86756666D01*
X51202380Y-85899523D02*
X51202380Y-86090000D01*
X51250000Y-86185238D01*
X51297619Y-86232857D01*
X51440476Y-86328095D01*
X51630952Y-86375714D01*
X52011904Y-86375714D01*
X52107142Y-86328095D01*
X52154761Y-86280476D01*
X52202380Y-86185238D01*
X52202380Y-85994761D01*
X52154761Y-85899523D01*
X52107142Y-85851904D01*
X52011904Y-85804285D01*
X51773809Y-85804285D01*
X51678571Y-85851904D01*
X51630952Y-85899523D01*
X51583333Y-85994761D01*
X51583333Y-86185238D01*
X51630952Y-86280476D01*
X51678571Y-86328095D01*
X51773809Y-86375714D01*
X30223333Y-89207142D02*
X30175714Y-89254761D01*
X30032857Y-89302380D01*
X29937619Y-89302380D01*
X29794761Y-89254761D01*
X29699523Y-89159523D01*
X29651904Y-89064285D01*
X29604285Y-88873809D01*
X29604285Y-88730952D01*
X29651904Y-88540476D01*
X29699523Y-88445238D01*
X29794761Y-88350000D01*
X29937619Y-88302380D01*
X30032857Y-88302380D01*
X30175714Y-88350000D01*
X30223333Y-88397619D01*
X30604285Y-88397619D02*
X30651904Y-88350000D01*
X30747142Y-88302380D01*
X30985238Y-88302380D01*
X31080476Y-88350000D01*
X31128095Y-88397619D01*
X31175714Y-88492857D01*
X31175714Y-88588095D01*
X31128095Y-88730952D01*
X30556666Y-89302380D01*
X31175714Y-89302380D01*
X23433333Y-89297142D02*
X23385714Y-89344761D01*
X23242857Y-89392380D01*
X23147619Y-89392380D01*
X23004761Y-89344761D01*
X22909523Y-89249523D01*
X22861904Y-89154285D01*
X22814285Y-88963809D01*
X22814285Y-88820952D01*
X22861904Y-88630476D01*
X22909523Y-88535238D01*
X23004761Y-88440000D01*
X23147619Y-88392380D01*
X23242857Y-88392380D01*
X23385714Y-88440000D01*
X23433333Y-88487619D01*
X24385714Y-89392380D02*
X23814285Y-89392380D01*
X24100000Y-89392380D02*
X24100000Y-88392380D01*
X24004761Y-88535238D01*
X23909523Y-88630476D01*
X23814285Y-88678095D01*
X26992380Y-57321904D02*
X27801904Y-57321904D01*
X27897142Y-57274285D01*
X27944761Y-57226666D01*
X27992380Y-57131428D01*
X27992380Y-56940952D01*
X27944761Y-56845714D01*
X27897142Y-56798095D01*
X27801904Y-56750476D01*
X26992380Y-56750476D01*
X27992380Y-55750476D02*
X27992380Y-56321904D01*
X27992380Y-56036190D02*
X26992380Y-56036190D01*
X27135238Y-56131428D01*
X27230476Y-56226666D01*
X27278095Y-56321904D01*
M02*
