M48
; DRILL file {KiCad (5.1.2-1)-1} date Wednesday, August 23, 2023 at 02:56:16 PM
; FORMAT={-:-/ absolute / inch / decimal}
; #@! TF.CreationDate,2023-08-23T14:56:16-04:00
; #@! TF.GenerationSoftware,Kicad,Pcbnew,(5.1.2-1)-1
FMAT,2
INCH
T1C0.0157
T2C0.0315
T3C0.0335
T4C0.0394
T5C0.0433
T6C0.1181
T7C0.1378
%
G90
G05
T1
X0.6531Y-2.3268
X0.7268Y-1.6862
X0.7917Y-1.6858
X0.8539Y-1.6846
X0.8972Y-1.8748
X1.0835Y-1.865
X1.0839Y-2.0705
X1.0846Y-2.0209
X1.0941Y-2.2244
X1.1213Y-2.4528
X1.2492Y-1.7606
X1.2524Y-2.0378
X1.3531Y-1.5091
X1.4276Y-1.4886
X1.4917Y-3.9453
X1.5035Y-4.1429
X1.5071Y-3.9906
X1.5213Y-4.0516
X1.5248Y-3.9146
X1.5252Y-4.0996
X1.5315Y-4.1831
X1.5366Y-3.839
X1.537Y-3.7362
X1.537Y-3.789
X1.5378Y-3.687
X1.5917Y-1.2941
X1.6461Y-2.5059
X1.6866Y-2.0551
X1.7563Y-2.3909
X1.7642Y-4.237
X1.7681Y-2.1197
X1.7701Y-2.0213
X1.7701Y-2.072
X1.7724Y-3.5787
X1.8114Y-1.3457
X1.8555Y-3.1169
X1.8681Y-2.4417
X1.8858Y-4.2075
X1.9008Y-2.9402
X1.9035Y-2.2217
X2.022Y-2.3232
T2
X0.6311Y-1.7173
X1.1579Y-3.1256
X1.2362Y-1.498
X1.3862Y-2.0752
X1.387Y-3.5205
X1.6028Y-4.2736
X1.8283Y-3.515
X0.9587Y-3.5937
X0.9587Y-3.6937
X0.9587Y-3.7937
X0.9587Y-3.8937
X0.9587Y-3.9937
X0.9587Y-4.0937
X0.9587Y-4.1937
X0.9587Y-4.2937
X1.2587Y-3.5937
X1.2587Y-3.6937
X1.2587Y-3.7937
X1.2587Y-3.8937
X1.2587Y-3.9937
X1.2587Y-4.0937
X1.2587Y-4.1937
X1.2587Y-4.2937
T3
X1.585Y-2.735
X1.585Y-2.835
X1.585Y-2.935
X1.585Y-3.035
X1.585Y-3.135
X1.585Y-3.235
X1.585Y-3.335
X1.585Y-3.435
X1.585Y-3.535
T4
X1.9701Y-1.6004
X1.9701Y-1.7004
X1.9701Y-1.8004
X1.9701Y-1.9004
X1.9701Y-2.0004
X1.9701Y-2.1004
X0.9678Y-3.3613
X1.0828Y-3.3613
X0.7807Y-2.1264
X0.7807Y-2.2264
X0.7807Y-2.3264
X0.7807Y-2.4264
X0.8807Y-2.1264
X0.8807Y-2.2264
X0.8807Y-2.3264
X0.8807Y-2.4264
X0.5531Y-3.9543
X0.6531Y-3.9543
X1.7736Y-3.2783
X1.7736Y-3.3768
X0.5512Y-3.8067
X0.6512Y-3.8067
X1.2887Y-2.9548
X1.2887Y-3.0698
X1.1551Y-2.8315
X1.2535Y-2.8315
X1.352Y-2.8315
X1.4496Y-0.8724
X1.4496Y-0.9724
X1.9902Y-3.5717
X1.9902Y-3.6717
X1.9902Y-3.7717
X1.9902Y-3.8717
X1.9902Y-3.9717
X1.9902Y-4.0717
X1.9902Y-4.1717
X1.9902Y-4.2717
X1.2933Y-0.8697
X1.2933Y-0.9697
X1.6189Y-0.8937
X1.6189Y-0.9937
X0.498Y-0.8311
X0.498Y-0.9311
X0.498Y-1.0311
X0.498Y-1.1311
X0.498Y-1.2311
X0.498Y-1.3311
X1.2341Y-3.3623
X1.3491Y-3.3623
X0.5169Y-2.3072
X0.5169Y-2.4056
X0.5169Y-2.504
X0.5263Y-3.3918
X0.5263Y-3.4902
X0.5263Y-3.5887
T7
X1.8898Y-4.5276
X1.063Y-4.5276
X1.8898Y-0.9055
X1.063Y-0.9055
T5
G00X1.0646Y-2.55
M15
G01X1.0646Y-2.5224
M16
G05
G00X1.4425Y-2.55
M15
G01X1.4425Y-2.5224
M16
G05
T6
G00X0.6079Y-4.1244
M15
G01X0.6079Y-4.1244
M16
G05
G00X0.6079Y-4.3606
M15
G01X0.6079Y-4.3606
M16
G05
G00X0.7929Y-4.2425
M15
G01X0.7929Y-4.2425
M16
G05
T0
M30
