G04 #@! TF.GenerationSoftware,KiCad,Pcbnew,(5.1.2-1)-1*
G04 #@! TF.CreationDate,2023-08-23T14:56:14-04:00*
G04 #@! TF.ProjectId,ESP32_AudioBoard_Rev2,45535033-325f-4417-9564-696f426f6172,rev?*
G04 #@! TF.SameCoordinates,Original*
G04 #@! TF.FileFunction,Soldermask,Bot*
G04 #@! TF.FilePolarity,Negative*
%FSLAX46Y46*%
G04 Gerber Fmt 4.6, Leading zero omitted, Abs format (unit mm)*
G04 Created by KiCad (PCBNEW (5.1.2-1)-1) date 2023-08-23 14:56:14*
%MOMM*%
%LPD*%
G04 APERTURE LIST*
%ADD10C,0.150000*%
G04 APERTURE END LIST*
D10*
G36*
X48525331Y-113268211D02*
G01*
X48853092Y-113403974D01*
X49148070Y-113601072D01*
X49398928Y-113851930D01*
X49596026Y-114146908D01*
X49731789Y-114474669D01*
X49801000Y-114822616D01*
X49801000Y-115177384D01*
X49731789Y-115525331D01*
X49596026Y-115853092D01*
X49398928Y-116148070D01*
X49148070Y-116398928D01*
X48853092Y-116596026D01*
X48525331Y-116731789D01*
X48177384Y-116801000D01*
X47822616Y-116801000D01*
X47474669Y-116731789D01*
X47146908Y-116596026D01*
X46851930Y-116398928D01*
X46601072Y-116148070D01*
X46403974Y-115853092D01*
X46268211Y-115525331D01*
X46199000Y-115177384D01*
X46199000Y-114822616D01*
X46268211Y-114474669D01*
X46403974Y-114146908D01*
X46601072Y-113851930D01*
X46851930Y-113601072D01*
X47146908Y-113403974D01*
X47474669Y-113268211D01*
X47822616Y-113199000D01*
X48177384Y-113199000D01*
X48525331Y-113268211D01*
X48525331Y-113268211D01*
G37*
G36*
X27525331Y-113268211D02*
G01*
X27853092Y-113403974D01*
X28148070Y-113601072D01*
X28398928Y-113851930D01*
X28596026Y-114146908D01*
X28731789Y-114474669D01*
X28801000Y-114822616D01*
X28801000Y-115177384D01*
X28731789Y-115525331D01*
X28596026Y-115853092D01*
X28398928Y-116148070D01*
X28148070Y-116398928D01*
X27853092Y-116596026D01*
X27525331Y-116731789D01*
X27177384Y-116801000D01*
X26822616Y-116801000D01*
X26474669Y-116731789D01*
X26146908Y-116596026D01*
X25851930Y-116398928D01*
X25601072Y-116148070D01*
X25403974Y-115853092D01*
X25268211Y-115525331D01*
X25199000Y-115177384D01*
X25199000Y-114822616D01*
X25268211Y-114474669D01*
X25403974Y-114146908D01*
X25601072Y-113851930D01*
X25851930Y-113601072D01*
X26146908Y-113403974D01*
X26474669Y-113268211D01*
X26822616Y-113199000D01*
X27177384Y-113199000D01*
X27525331Y-113268211D01*
X27525331Y-113268211D01*
G37*
G36*
X16715752Y-108728097D02*
G01*
X16896295Y-108782864D01*
X17062677Y-108871797D01*
X17208516Y-108991484D01*
X17328203Y-109137323D01*
X17417136Y-109303705D01*
X17471903Y-109484248D01*
X17491000Y-109678140D01*
X17491000Y-111841860D01*
X17471903Y-112035752D01*
X17417136Y-112216295D01*
X17328203Y-112382677D01*
X17208516Y-112528516D01*
X17062677Y-112648203D01*
X16896295Y-112737136D01*
X16715752Y-112791903D01*
X16521860Y-112811000D01*
X14358140Y-112811000D01*
X14164248Y-112791903D01*
X13983705Y-112737136D01*
X13817323Y-112648203D01*
X13671484Y-112528516D01*
X13551797Y-112382677D01*
X13462864Y-112216295D01*
X13408097Y-112035752D01*
X13389000Y-111841860D01*
X13389000Y-109678140D01*
X13408097Y-109484248D01*
X13462864Y-109303705D01*
X13551797Y-109137323D01*
X13671484Y-108991484D01*
X13817323Y-108871797D01*
X13983705Y-108782864D01*
X14164248Y-108728097D01*
X14358140Y-108709000D01*
X16521860Y-108709000D01*
X16715752Y-108728097D01*
X16715752Y-108728097D01*
G37*
G36*
X32136823Y-108221313D02*
G01*
X32297242Y-108269976D01*
X32409011Y-108329718D01*
X32445078Y-108348996D01*
X32574659Y-108455341D01*
X32681004Y-108584922D01*
X32681005Y-108584924D01*
X32760024Y-108732758D01*
X32808687Y-108893177D01*
X32825117Y-109060000D01*
X32808687Y-109226823D01*
X32760024Y-109387242D01*
X32752670Y-109401000D01*
X32681004Y-109535078D01*
X32574659Y-109664659D01*
X32445078Y-109771004D01*
X32445076Y-109771005D01*
X32297242Y-109850024D01*
X32136823Y-109898687D01*
X32011804Y-109911000D01*
X31928196Y-109911000D01*
X31803177Y-109898687D01*
X31642758Y-109850024D01*
X31494924Y-109771005D01*
X31494922Y-109771004D01*
X31365341Y-109664659D01*
X31258996Y-109535078D01*
X31187330Y-109401000D01*
X31179976Y-109387242D01*
X31131313Y-109226823D01*
X31114883Y-109060000D01*
X31131313Y-108893177D01*
X31179976Y-108732758D01*
X31258995Y-108584924D01*
X31258996Y-108584922D01*
X31365341Y-108455341D01*
X31494922Y-108348996D01*
X31530989Y-108329718D01*
X31642758Y-108269976D01*
X31803177Y-108221313D01*
X31928196Y-108209000D01*
X32011804Y-108209000D01*
X32136823Y-108221313D01*
X32136823Y-108221313D01*
G37*
G36*
X24516823Y-108221313D02*
G01*
X24677242Y-108269976D01*
X24789011Y-108329718D01*
X24825078Y-108348996D01*
X24954659Y-108455341D01*
X25061004Y-108584922D01*
X25061005Y-108584924D01*
X25140024Y-108732758D01*
X25188687Y-108893177D01*
X25205117Y-109060000D01*
X25188687Y-109226823D01*
X25140024Y-109387242D01*
X25132670Y-109401000D01*
X25061004Y-109535078D01*
X24954659Y-109664659D01*
X24825078Y-109771004D01*
X24825076Y-109771005D01*
X24677242Y-109850024D01*
X24516823Y-109898687D01*
X24391804Y-109911000D01*
X24308196Y-109911000D01*
X24183177Y-109898687D01*
X24022758Y-109850024D01*
X23874924Y-109771005D01*
X23874922Y-109771004D01*
X23745341Y-109664659D01*
X23638996Y-109535078D01*
X23567330Y-109401000D01*
X23559976Y-109387242D01*
X23511313Y-109226823D01*
X23494883Y-109060000D01*
X23511313Y-108893177D01*
X23559976Y-108732758D01*
X23638995Y-108584924D01*
X23638996Y-108584922D01*
X23745341Y-108455341D01*
X23874922Y-108348996D01*
X23910989Y-108329718D01*
X24022758Y-108269976D01*
X24183177Y-108221313D01*
X24308196Y-108209000D01*
X24391804Y-108209000D01*
X24516823Y-108221313D01*
X24516823Y-108221313D01*
G37*
G36*
X36958674Y-108313465D02*
G01*
X36996367Y-108324899D01*
X37031103Y-108343466D01*
X37061548Y-108368452D01*
X37086534Y-108398897D01*
X37105101Y-108433633D01*
X37116535Y-108471326D01*
X37121000Y-108516661D01*
X37121000Y-109603339D01*
X37116535Y-109648674D01*
X37105101Y-109686367D01*
X37086534Y-109721103D01*
X37061548Y-109751548D01*
X37031103Y-109776534D01*
X36996367Y-109795101D01*
X36958674Y-109806535D01*
X36913339Y-109811000D01*
X36076661Y-109811000D01*
X36031326Y-109806535D01*
X35993633Y-109795101D01*
X35958897Y-109776534D01*
X35928452Y-109751548D01*
X35903466Y-109721103D01*
X35884899Y-109686367D01*
X35873465Y-109648674D01*
X35869000Y-109603339D01*
X35869000Y-108516661D01*
X35873465Y-108471326D01*
X35884899Y-108433633D01*
X35903466Y-108398897D01*
X35928452Y-108368452D01*
X35958897Y-108343466D01*
X35993633Y-108324899D01*
X36031326Y-108313465D01*
X36076661Y-108309000D01*
X36913339Y-108309000D01*
X36958674Y-108313465D01*
X36958674Y-108313465D01*
G37*
G36*
X21415752Y-105728097D02*
G01*
X21596295Y-105782864D01*
X21762677Y-105871797D01*
X21908516Y-105991484D01*
X22028203Y-106137323D01*
X22117136Y-106303705D01*
X22171903Y-106484248D01*
X22191000Y-106678140D01*
X22191000Y-108841860D01*
X22171903Y-109035752D01*
X22117136Y-109216295D01*
X22028203Y-109382677D01*
X21908516Y-109528516D01*
X21762677Y-109648203D01*
X21596295Y-109737136D01*
X21415752Y-109791903D01*
X21221860Y-109811000D01*
X19058140Y-109811000D01*
X18864248Y-109791903D01*
X18683705Y-109737136D01*
X18517323Y-109648203D01*
X18371484Y-109528516D01*
X18251797Y-109382677D01*
X18162864Y-109216295D01*
X18108097Y-109035752D01*
X18089000Y-108841860D01*
X18089000Y-106678140D01*
X18108097Y-106484248D01*
X18162864Y-106303705D01*
X18251797Y-106137323D01*
X18371484Y-105991484D01*
X18517323Y-105871797D01*
X18683705Y-105782864D01*
X18864248Y-105728097D01*
X19058140Y-105709000D01*
X21221860Y-105709000D01*
X21415752Y-105728097D01*
X21415752Y-105728097D01*
G37*
G36*
X34908674Y-108313465D02*
G01*
X34946367Y-108324899D01*
X34981103Y-108343466D01*
X35011548Y-108368452D01*
X35036534Y-108398897D01*
X35055101Y-108433633D01*
X35066535Y-108471326D01*
X35071000Y-108516661D01*
X35071000Y-109603339D01*
X35066535Y-109648674D01*
X35055101Y-109686367D01*
X35036534Y-109721103D01*
X35011548Y-109751548D01*
X34981103Y-109776534D01*
X34946367Y-109795101D01*
X34908674Y-109806535D01*
X34863339Y-109811000D01*
X34026661Y-109811000D01*
X33981326Y-109806535D01*
X33943633Y-109795101D01*
X33908897Y-109776534D01*
X33878452Y-109751548D01*
X33853466Y-109721103D01*
X33834899Y-109686367D01*
X33823465Y-109648674D01*
X33819000Y-109603339D01*
X33819000Y-108516661D01*
X33823465Y-108471326D01*
X33834899Y-108433633D01*
X33853466Y-108398897D01*
X33878452Y-108368452D01*
X33908897Y-108343466D01*
X33943633Y-108324899D01*
X33981326Y-108313465D01*
X34026661Y-108309000D01*
X34863339Y-108309000D01*
X34908674Y-108313465D01*
X34908674Y-108313465D01*
G37*
G36*
X50660442Y-107605518D02*
G01*
X50726627Y-107612037D01*
X50896466Y-107663557D01*
X51052991Y-107747222D01*
X51088729Y-107776552D01*
X51190186Y-107859814D01*
X51273448Y-107961271D01*
X51302778Y-107997009D01*
X51386443Y-108153534D01*
X51437963Y-108323373D01*
X51455359Y-108500000D01*
X51437963Y-108676627D01*
X51404463Y-108787062D01*
X51386442Y-108846468D01*
X51361476Y-108893175D01*
X51302778Y-109002991D01*
X51273448Y-109038729D01*
X51190186Y-109140186D01*
X51088729Y-109223448D01*
X51052991Y-109252778D01*
X50896466Y-109336443D01*
X50726627Y-109387963D01*
X50660442Y-109394482D01*
X50594260Y-109401000D01*
X50505740Y-109401000D01*
X50439558Y-109394482D01*
X50373373Y-109387963D01*
X50203534Y-109336443D01*
X50047009Y-109252778D01*
X50011271Y-109223448D01*
X49909814Y-109140186D01*
X49826552Y-109038729D01*
X49797222Y-109002991D01*
X49738524Y-108893175D01*
X49713558Y-108846468D01*
X49695537Y-108787062D01*
X49662037Y-108676627D01*
X49644641Y-108500000D01*
X49662037Y-108323373D01*
X49713557Y-108153534D01*
X49797222Y-107997009D01*
X49826552Y-107961271D01*
X49909814Y-107859814D01*
X50011271Y-107776552D01*
X50047009Y-107747222D01*
X50203534Y-107663557D01*
X50373373Y-107612037D01*
X50439558Y-107605518D01*
X50505740Y-107599000D01*
X50594260Y-107599000D01*
X50660442Y-107605518D01*
X50660442Y-107605518D01*
G37*
G36*
X32136823Y-105681313D02*
G01*
X32297242Y-105729976D01*
X32397144Y-105783375D01*
X32445078Y-105808996D01*
X32574659Y-105915341D01*
X32681004Y-106044922D01*
X32681005Y-106044924D01*
X32760024Y-106192758D01*
X32808687Y-106353177D01*
X32825117Y-106520000D01*
X32808687Y-106686823D01*
X32760024Y-106847242D01*
X32752670Y-106861000D01*
X32681004Y-106995078D01*
X32574659Y-107124659D01*
X32445078Y-107231004D01*
X32445076Y-107231005D01*
X32297242Y-107310024D01*
X32136823Y-107358687D01*
X32011804Y-107371000D01*
X31928196Y-107371000D01*
X31803177Y-107358687D01*
X31642758Y-107310024D01*
X31494924Y-107231005D01*
X31494922Y-107231004D01*
X31365341Y-107124659D01*
X31258996Y-106995078D01*
X31187330Y-106861000D01*
X31179976Y-106847242D01*
X31131313Y-106686823D01*
X31114883Y-106520000D01*
X31131313Y-106353177D01*
X31179976Y-106192758D01*
X31258995Y-106044924D01*
X31258996Y-106044922D01*
X31365341Y-105915341D01*
X31494922Y-105808996D01*
X31542856Y-105783375D01*
X31642758Y-105729976D01*
X31803177Y-105681313D01*
X31928196Y-105669000D01*
X32011804Y-105669000D01*
X32136823Y-105681313D01*
X32136823Y-105681313D01*
G37*
G36*
X24516823Y-105681313D02*
G01*
X24677242Y-105729976D01*
X24777144Y-105783375D01*
X24825078Y-105808996D01*
X24954659Y-105915341D01*
X25061004Y-106044922D01*
X25061005Y-106044924D01*
X25140024Y-106192758D01*
X25188687Y-106353177D01*
X25205117Y-106520000D01*
X25188687Y-106686823D01*
X25140024Y-106847242D01*
X25132670Y-106861000D01*
X25061004Y-106995078D01*
X24954659Y-107124659D01*
X24825078Y-107231004D01*
X24825076Y-107231005D01*
X24677242Y-107310024D01*
X24516823Y-107358687D01*
X24391804Y-107371000D01*
X24308196Y-107371000D01*
X24183177Y-107358687D01*
X24022758Y-107310024D01*
X23874924Y-107231005D01*
X23874922Y-107231004D01*
X23745341Y-107124659D01*
X23638996Y-106995078D01*
X23567330Y-106861000D01*
X23559976Y-106847242D01*
X23511313Y-106686823D01*
X23494883Y-106520000D01*
X23511313Y-106353177D01*
X23559976Y-106192758D01*
X23638995Y-106044924D01*
X23638996Y-106044922D01*
X23745341Y-105915341D01*
X23874922Y-105808996D01*
X23922856Y-105783375D01*
X24022758Y-105729976D01*
X24183177Y-105681313D01*
X24308196Y-105669000D01*
X24391804Y-105669000D01*
X24516823Y-105681313D01*
X24516823Y-105681313D01*
G37*
G36*
X36968674Y-105763465D02*
G01*
X37006367Y-105774899D01*
X37041103Y-105793466D01*
X37071548Y-105818452D01*
X37096534Y-105848897D01*
X37115101Y-105883633D01*
X37126535Y-105921326D01*
X37131000Y-105966661D01*
X37131000Y-107053339D01*
X37126535Y-107098674D01*
X37115101Y-107136367D01*
X37096534Y-107171103D01*
X37071548Y-107201548D01*
X37041103Y-107226534D01*
X37006367Y-107245101D01*
X36968674Y-107256535D01*
X36923339Y-107261000D01*
X36086661Y-107261000D01*
X36041326Y-107256535D01*
X36003633Y-107245101D01*
X35968897Y-107226534D01*
X35938452Y-107201548D01*
X35913466Y-107171103D01*
X35894899Y-107136367D01*
X35883465Y-107098674D01*
X35879000Y-107053339D01*
X35879000Y-105966661D01*
X35883465Y-105921326D01*
X35894899Y-105883633D01*
X35913466Y-105848897D01*
X35938452Y-105818452D01*
X35968897Y-105793466D01*
X36003633Y-105774899D01*
X36041326Y-105763465D01*
X36086661Y-105759000D01*
X36923339Y-105759000D01*
X36968674Y-105763465D01*
X36968674Y-105763465D01*
G37*
G36*
X34918674Y-105763465D02*
G01*
X34956367Y-105774899D01*
X34991103Y-105793466D01*
X35021548Y-105818452D01*
X35046534Y-105848897D01*
X35065101Y-105883633D01*
X35076535Y-105921326D01*
X35081000Y-105966661D01*
X35081000Y-107053339D01*
X35076535Y-107098674D01*
X35065101Y-107136367D01*
X35046534Y-107171103D01*
X35021548Y-107201548D01*
X34991103Y-107226534D01*
X34956367Y-107245101D01*
X34918674Y-107256535D01*
X34873339Y-107261000D01*
X34036661Y-107261000D01*
X33991326Y-107256535D01*
X33953633Y-107245101D01*
X33918897Y-107226534D01*
X33888452Y-107201548D01*
X33863466Y-107171103D01*
X33844899Y-107136367D01*
X33833465Y-107098674D01*
X33829000Y-107053339D01*
X33829000Y-105966661D01*
X33833465Y-105921326D01*
X33844899Y-105883633D01*
X33863466Y-105848897D01*
X33888452Y-105818452D01*
X33918897Y-105793466D01*
X33953633Y-105774899D01*
X33991326Y-105763465D01*
X34036661Y-105759000D01*
X34873339Y-105759000D01*
X34918674Y-105763465D01*
X34918674Y-105763465D01*
G37*
G36*
X50660443Y-105065519D02*
G01*
X50726627Y-105072037D01*
X50896466Y-105123557D01*
X51052991Y-105207222D01*
X51088729Y-105236552D01*
X51190186Y-105319814D01*
X51273448Y-105421271D01*
X51302778Y-105457009D01*
X51386443Y-105613534D01*
X51437963Y-105783373D01*
X51455359Y-105960000D01*
X51437963Y-106136627D01*
X51386443Y-106306466D01*
X51302778Y-106462991D01*
X51273448Y-106498729D01*
X51190186Y-106600186D01*
X51095197Y-106678140D01*
X51052991Y-106712778D01*
X50896466Y-106796443D01*
X50726627Y-106847963D01*
X50660442Y-106854482D01*
X50594260Y-106861000D01*
X50505740Y-106861000D01*
X50439558Y-106854482D01*
X50373373Y-106847963D01*
X50203534Y-106796443D01*
X50047009Y-106712778D01*
X50004803Y-106678140D01*
X49909814Y-106600186D01*
X49826552Y-106498729D01*
X49797222Y-106462991D01*
X49713557Y-106306466D01*
X49662037Y-106136627D01*
X49644641Y-105960000D01*
X49662037Y-105783373D01*
X49713557Y-105613534D01*
X49797222Y-105457009D01*
X49826552Y-105421271D01*
X49909814Y-105319814D01*
X50011271Y-105236552D01*
X50047009Y-105207222D01*
X50203534Y-105123557D01*
X50373373Y-105072037D01*
X50439557Y-105065519D01*
X50505740Y-105059000D01*
X50594260Y-105059000D01*
X50660443Y-105065519D01*
X50660443Y-105065519D01*
G37*
G36*
X17491000Y-106811000D02*
G01*
X13389000Y-106811000D01*
X13389000Y-102709000D01*
X17491000Y-102709000D01*
X17491000Y-106811000D01*
X17491000Y-106811000D01*
G37*
G36*
X24516823Y-103141313D02*
G01*
X24677242Y-103189976D01*
X24789011Y-103249718D01*
X24825078Y-103268996D01*
X24954659Y-103375341D01*
X25061004Y-103504922D01*
X25061005Y-103504924D01*
X25140024Y-103652758D01*
X25188687Y-103813177D01*
X25205117Y-103980000D01*
X25188687Y-104146823D01*
X25140024Y-104307242D01*
X25132670Y-104321000D01*
X25061004Y-104455078D01*
X24954659Y-104584659D01*
X24825078Y-104691004D01*
X24825076Y-104691005D01*
X24677242Y-104770024D01*
X24516823Y-104818687D01*
X24391804Y-104831000D01*
X24308196Y-104831000D01*
X24183177Y-104818687D01*
X24022758Y-104770024D01*
X23874924Y-104691005D01*
X23874922Y-104691004D01*
X23745341Y-104584659D01*
X23638996Y-104455078D01*
X23567330Y-104321000D01*
X23559976Y-104307242D01*
X23511313Y-104146823D01*
X23494883Y-103980000D01*
X23511313Y-103813177D01*
X23559976Y-103652758D01*
X23638995Y-103504924D01*
X23638996Y-103504922D01*
X23745341Y-103375341D01*
X23874922Y-103268996D01*
X23910989Y-103249718D01*
X24022758Y-103189976D01*
X24183177Y-103141313D01*
X24308196Y-103129000D01*
X24391804Y-103129000D01*
X24516823Y-103141313D01*
X24516823Y-103141313D01*
G37*
G36*
X32136823Y-103141313D02*
G01*
X32297242Y-103189976D01*
X32409011Y-103249718D01*
X32445078Y-103268996D01*
X32574659Y-103375341D01*
X32681004Y-103504922D01*
X32681005Y-103504924D01*
X32760024Y-103652758D01*
X32808687Y-103813177D01*
X32825117Y-103980000D01*
X32808687Y-104146823D01*
X32760024Y-104307242D01*
X32752670Y-104321000D01*
X32681004Y-104455078D01*
X32574659Y-104584659D01*
X32445078Y-104691004D01*
X32445076Y-104691005D01*
X32297242Y-104770024D01*
X32136823Y-104818687D01*
X32011804Y-104831000D01*
X31928196Y-104831000D01*
X31803177Y-104818687D01*
X31642758Y-104770024D01*
X31494924Y-104691005D01*
X31494922Y-104691004D01*
X31365341Y-104584659D01*
X31258996Y-104455078D01*
X31187330Y-104321000D01*
X31179976Y-104307242D01*
X31131313Y-104146823D01*
X31114883Y-103980000D01*
X31131313Y-103813177D01*
X31179976Y-103652758D01*
X31258995Y-103504924D01*
X31258996Y-103504922D01*
X31365341Y-103375341D01*
X31494922Y-103268996D01*
X31530989Y-103249718D01*
X31642758Y-103189976D01*
X31803177Y-103141313D01*
X31928196Y-103129000D01*
X32011804Y-103129000D01*
X32136823Y-103141313D01*
X32136823Y-103141313D01*
G37*
G36*
X34928674Y-103233465D02*
G01*
X34966367Y-103244899D01*
X35001103Y-103263466D01*
X35031548Y-103288452D01*
X35056534Y-103318897D01*
X35075101Y-103353633D01*
X35086535Y-103391326D01*
X35091000Y-103436661D01*
X35091000Y-104523339D01*
X35086535Y-104568674D01*
X35075101Y-104606367D01*
X35056534Y-104641103D01*
X35031548Y-104671548D01*
X35001103Y-104696534D01*
X34966367Y-104715101D01*
X34928674Y-104726535D01*
X34883339Y-104731000D01*
X34046661Y-104731000D01*
X34001326Y-104726535D01*
X33963633Y-104715101D01*
X33928897Y-104696534D01*
X33898452Y-104671548D01*
X33873466Y-104641103D01*
X33854899Y-104606367D01*
X33843465Y-104568674D01*
X33839000Y-104523339D01*
X33839000Y-103436661D01*
X33843465Y-103391326D01*
X33854899Y-103353633D01*
X33873466Y-103318897D01*
X33898452Y-103288452D01*
X33928897Y-103263466D01*
X33963633Y-103244899D01*
X34001326Y-103233465D01*
X34046661Y-103229000D01*
X34883339Y-103229000D01*
X34928674Y-103233465D01*
X34928674Y-103233465D01*
G37*
G36*
X36978674Y-103233465D02*
G01*
X37016367Y-103244899D01*
X37051103Y-103263466D01*
X37081548Y-103288452D01*
X37106534Y-103318897D01*
X37125101Y-103353633D01*
X37136535Y-103391326D01*
X37141000Y-103436661D01*
X37141000Y-104523339D01*
X37136535Y-104568674D01*
X37125101Y-104606367D01*
X37106534Y-104641103D01*
X37081548Y-104671548D01*
X37051103Y-104696534D01*
X37016367Y-104715101D01*
X36978674Y-104726535D01*
X36933339Y-104731000D01*
X36096661Y-104731000D01*
X36051326Y-104726535D01*
X36013633Y-104715101D01*
X35978897Y-104696534D01*
X35948452Y-104671548D01*
X35923466Y-104641103D01*
X35904899Y-104606367D01*
X35893465Y-104568674D01*
X35889000Y-104523339D01*
X35889000Y-103436661D01*
X35893465Y-103391326D01*
X35904899Y-103353633D01*
X35923466Y-103318897D01*
X35948452Y-103288452D01*
X35978897Y-103263466D01*
X36013633Y-103244899D01*
X36051326Y-103233465D01*
X36096661Y-103229000D01*
X36933339Y-103229000D01*
X36978674Y-103233465D01*
X36978674Y-103233465D01*
G37*
G36*
X50660442Y-102525518D02*
G01*
X50726627Y-102532037D01*
X50896466Y-102583557D01*
X51052991Y-102667222D01*
X51088729Y-102696552D01*
X51190186Y-102779814D01*
X51273448Y-102881271D01*
X51302778Y-102917009D01*
X51386443Y-103073534D01*
X51437963Y-103243373D01*
X51455359Y-103420000D01*
X51437963Y-103596627D01*
X51386443Y-103766466D01*
X51302778Y-103922991D01*
X51273448Y-103958729D01*
X51190186Y-104060186D01*
X51088729Y-104143448D01*
X51052991Y-104172778D01*
X50896466Y-104256443D01*
X50726627Y-104307963D01*
X50660443Y-104314481D01*
X50594260Y-104321000D01*
X50505740Y-104321000D01*
X50439558Y-104314482D01*
X50373373Y-104307963D01*
X50203534Y-104256443D01*
X50047009Y-104172778D01*
X50011271Y-104143448D01*
X49909814Y-104060186D01*
X49826552Y-103958729D01*
X49797222Y-103922991D01*
X49713557Y-103766466D01*
X49662037Y-103596627D01*
X49644641Y-103420000D01*
X49662037Y-103243373D01*
X49713557Y-103073534D01*
X49797222Y-102917009D01*
X49826552Y-102881271D01*
X49909814Y-102779814D01*
X50011271Y-102696552D01*
X50047009Y-102667222D01*
X50203534Y-102583557D01*
X50373373Y-102532037D01*
X50439558Y-102525518D01*
X50505740Y-102519000D01*
X50594260Y-102519000D01*
X50660442Y-102525518D01*
X50660442Y-102525518D01*
G37*
G36*
X24516823Y-100601313D02*
G01*
X24677242Y-100649976D01*
X24789011Y-100709718D01*
X24825078Y-100728996D01*
X24954659Y-100835341D01*
X25061004Y-100964922D01*
X25061005Y-100964924D01*
X25140024Y-101112758D01*
X25188687Y-101273177D01*
X25205117Y-101440000D01*
X25188687Y-101606823D01*
X25140024Y-101767242D01*
X25132670Y-101781000D01*
X25061004Y-101915078D01*
X24954659Y-102044659D01*
X24825078Y-102151004D01*
X24825076Y-102151005D01*
X24677242Y-102230024D01*
X24516823Y-102278687D01*
X24391804Y-102291000D01*
X24308196Y-102291000D01*
X24183177Y-102278687D01*
X24022758Y-102230024D01*
X23874924Y-102151005D01*
X23874922Y-102151004D01*
X23745341Y-102044659D01*
X23638996Y-101915078D01*
X23567330Y-101781000D01*
X23559976Y-101767242D01*
X23511313Y-101606823D01*
X23494883Y-101440000D01*
X23511313Y-101273177D01*
X23559976Y-101112758D01*
X23638995Y-100964924D01*
X23638996Y-100964922D01*
X23745341Y-100835341D01*
X23874922Y-100728996D01*
X23910989Y-100709718D01*
X24022758Y-100649976D01*
X24183177Y-100601313D01*
X24308196Y-100589000D01*
X24391804Y-100589000D01*
X24516823Y-100601313D01*
X24516823Y-100601313D01*
G37*
G36*
X32136823Y-100601313D02*
G01*
X32297242Y-100649976D01*
X32409011Y-100709718D01*
X32445078Y-100728996D01*
X32574659Y-100835341D01*
X32681004Y-100964922D01*
X32681005Y-100964924D01*
X32760024Y-101112758D01*
X32808687Y-101273177D01*
X32825117Y-101440000D01*
X32808687Y-101606823D01*
X32760024Y-101767242D01*
X32752670Y-101781000D01*
X32681004Y-101915078D01*
X32574659Y-102044659D01*
X32445078Y-102151004D01*
X32445076Y-102151005D01*
X32297242Y-102230024D01*
X32136823Y-102278687D01*
X32011804Y-102291000D01*
X31928196Y-102291000D01*
X31803177Y-102278687D01*
X31642758Y-102230024D01*
X31494924Y-102151005D01*
X31494922Y-102151004D01*
X31365341Y-102044659D01*
X31258996Y-101915078D01*
X31187330Y-101781000D01*
X31179976Y-101767242D01*
X31131313Y-101606823D01*
X31114883Y-101440000D01*
X31131313Y-101273177D01*
X31179976Y-101112758D01*
X31258995Y-100964924D01*
X31258996Y-100964922D01*
X31365341Y-100835341D01*
X31494922Y-100728996D01*
X31530989Y-100709718D01*
X31642758Y-100649976D01*
X31803177Y-100601313D01*
X31928196Y-100589000D01*
X32011804Y-100589000D01*
X32136823Y-100601313D01*
X32136823Y-100601313D01*
G37*
G36*
X36968674Y-100693465D02*
G01*
X37006367Y-100704899D01*
X37041103Y-100723466D01*
X37071548Y-100748452D01*
X37096534Y-100778897D01*
X37115101Y-100813633D01*
X37126535Y-100851326D01*
X37131000Y-100896661D01*
X37131000Y-101983339D01*
X37126535Y-102028674D01*
X37115101Y-102066367D01*
X37096534Y-102101103D01*
X37071548Y-102131548D01*
X37041103Y-102156534D01*
X37006367Y-102175101D01*
X36968674Y-102186535D01*
X36923339Y-102191000D01*
X36086661Y-102191000D01*
X36041326Y-102186535D01*
X36003633Y-102175101D01*
X35968897Y-102156534D01*
X35938452Y-102131548D01*
X35913466Y-102101103D01*
X35894899Y-102066367D01*
X35883465Y-102028674D01*
X35879000Y-101983339D01*
X35879000Y-100896661D01*
X35883465Y-100851326D01*
X35894899Y-100813633D01*
X35913466Y-100778897D01*
X35938452Y-100748452D01*
X35968897Y-100723466D01*
X36003633Y-100704899D01*
X36041326Y-100693465D01*
X36086661Y-100689000D01*
X36923339Y-100689000D01*
X36968674Y-100693465D01*
X36968674Y-100693465D01*
G37*
G36*
X34918674Y-100693465D02*
G01*
X34956367Y-100704899D01*
X34991103Y-100723466D01*
X35021548Y-100748452D01*
X35046534Y-100778897D01*
X35065101Y-100813633D01*
X35076535Y-100851326D01*
X35081000Y-100896661D01*
X35081000Y-101983339D01*
X35076535Y-102028674D01*
X35065101Y-102066367D01*
X35046534Y-102101103D01*
X35021548Y-102131548D01*
X34991103Y-102156534D01*
X34956367Y-102175101D01*
X34918674Y-102186535D01*
X34873339Y-102191000D01*
X34036661Y-102191000D01*
X33991326Y-102186535D01*
X33953633Y-102175101D01*
X33918897Y-102156534D01*
X33888452Y-102131548D01*
X33863466Y-102101103D01*
X33844899Y-102066367D01*
X33833465Y-102028674D01*
X33829000Y-101983339D01*
X33829000Y-100896661D01*
X33833465Y-100851326D01*
X33844899Y-100813633D01*
X33863466Y-100778897D01*
X33888452Y-100748452D01*
X33918897Y-100723466D01*
X33953633Y-100704899D01*
X33991326Y-100693465D01*
X34036661Y-100689000D01*
X34873339Y-100689000D01*
X34918674Y-100693465D01*
X34918674Y-100693465D01*
G37*
G36*
X50660443Y-99985519D02*
G01*
X50726627Y-99992037D01*
X50896466Y-100043557D01*
X51052991Y-100127222D01*
X51088729Y-100156552D01*
X51190186Y-100239814D01*
X51273448Y-100341271D01*
X51302778Y-100377009D01*
X51386443Y-100533534D01*
X51437963Y-100703373D01*
X51455359Y-100880000D01*
X51437963Y-101056627D01*
X51386443Y-101226466D01*
X51302778Y-101382991D01*
X51273448Y-101418729D01*
X51190186Y-101520186D01*
X51088729Y-101603448D01*
X51052991Y-101632778D01*
X50896466Y-101716443D01*
X50726627Y-101767963D01*
X50660442Y-101774482D01*
X50594260Y-101781000D01*
X50505740Y-101781000D01*
X50439558Y-101774482D01*
X50373373Y-101767963D01*
X50203534Y-101716443D01*
X50047009Y-101632778D01*
X50011271Y-101603448D01*
X49909814Y-101520186D01*
X49826552Y-101418729D01*
X49797222Y-101382991D01*
X49713557Y-101226466D01*
X49662037Y-101056627D01*
X49644641Y-100880000D01*
X49662037Y-100703373D01*
X49713557Y-100533534D01*
X49797222Y-100377009D01*
X49826552Y-100341271D01*
X49909814Y-100239814D01*
X50011271Y-100156552D01*
X50047009Y-100127222D01*
X50203534Y-100043557D01*
X50373373Y-99992037D01*
X50439557Y-99985519D01*
X50505740Y-99979000D01*
X50594260Y-99979000D01*
X50660443Y-99985519D01*
X50660443Y-99985519D01*
G37*
G36*
X46529928Y-100926764D02*
G01*
X46551009Y-100933160D01*
X46570445Y-100943548D01*
X46587476Y-100957524D01*
X46601452Y-100974555D01*
X46611840Y-100993991D01*
X46618236Y-101015072D01*
X46621000Y-101043140D01*
X46621000Y-101506860D01*
X46618236Y-101534928D01*
X46611840Y-101556009D01*
X46601452Y-101575445D01*
X46587476Y-101592476D01*
X46570445Y-101606452D01*
X46551009Y-101616840D01*
X46529928Y-101623236D01*
X46501860Y-101626000D01*
X44688140Y-101626000D01*
X44660072Y-101623236D01*
X44638991Y-101616840D01*
X44619555Y-101606452D01*
X44602524Y-101592476D01*
X44588548Y-101575445D01*
X44578160Y-101556009D01*
X44571764Y-101534928D01*
X44569000Y-101506860D01*
X44569000Y-101043140D01*
X44571764Y-101015072D01*
X44578160Y-100993991D01*
X44588548Y-100974555D01*
X44602524Y-100957524D01*
X44619555Y-100943548D01*
X44638991Y-100933160D01*
X44660072Y-100926764D01*
X44688140Y-100924000D01*
X46501860Y-100924000D01*
X46529928Y-100926764D01*
X46529928Y-100926764D01*
G37*
G36*
X41579928Y-100926764D02*
G01*
X41601009Y-100933160D01*
X41620445Y-100943548D01*
X41637476Y-100957524D01*
X41651452Y-100974555D01*
X41661840Y-100993991D01*
X41668236Y-101015072D01*
X41671000Y-101043140D01*
X41671000Y-101506860D01*
X41668236Y-101534928D01*
X41661840Y-101556009D01*
X41651452Y-101575445D01*
X41637476Y-101592476D01*
X41620445Y-101606452D01*
X41601009Y-101616840D01*
X41579928Y-101623236D01*
X41551860Y-101626000D01*
X39738140Y-101626000D01*
X39710072Y-101623236D01*
X39688991Y-101616840D01*
X39669555Y-101606452D01*
X39652524Y-101592476D01*
X39638548Y-101575445D01*
X39628160Y-101556009D01*
X39621764Y-101534928D01*
X39619000Y-101506860D01*
X39619000Y-101043140D01*
X39621764Y-101015072D01*
X39628160Y-100993991D01*
X39638548Y-100974555D01*
X39652524Y-100957524D01*
X39669555Y-100943548D01*
X39688991Y-100933160D01*
X39710072Y-100926764D01*
X39738140Y-100924000D01*
X41551860Y-100924000D01*
X41579928Y-100926764D01*
X41579928Y-100926764D01*
G37*
G36*
X14951000Y-101341000D02*
G01*
X13149000Y-101341000D01*
X13149000Y-99539000D01*
X14951000Y-99539000D01*
X14951000Y-101341000D01*
X14951000Y-101341000D01*
G37*
G36*
X16700443Y-99545519D02*
G01*
X16766627Y-99552037D01*
X16936466Y-99603557D01*
X17092991Y-99687222D01*
X17096405Y-99690024D01*
X17230186Y-99799814D01*
X17313448Y-99901271D01*
X17342778Y-99937009D01*
X17426443Y-100093534D01*
X17477963Y-100263373D01*
X17495359Y-100440000D01*
X17477963Y-100616627D01*
X17426443Y-100786466D01*
X17342778Y-100942991D01*
X17324778Y-100964924D01*
X17230186Y-101080186D01*
X17128729Y-101163448D01*
X17092991Y-101192778D01*
X16936466Y-101276443D01*
X16766627Y-101327963D01*
X16700443Y-101334481D01*
X16634260Y-101341000D01*
X16545740Y-101341000D01*
X16479557Y-101334481D01*
X16413373Y-101327963D01*
X16243534Y-101276443D01*
X16087009Y-101192778D01*
X16051271Y-101163448D01*
X15949814Y-101080186D01*
X15855222Y-100964924D01*
X15837222Y-100942991D01*
X15753557Y-100786466D01*
X15702037Y-100616627D01*
X15684641Y-100440000D01*
X15702037Y-100263373D01*
X15753557Y-100093534D01*
X15837222Y-99937009D01*
X15866552Y-99901271D01*
X15949814Y-99799814D01*
X16083595Y-99690024D01*
X16087009Y-99687222D01*
X16243534Y-99603557D01*
X16413373Y-99552037D01*
X16479557Y-99545519D01*
X16545740Y-99539000D01*
X16634260Y-99539000D01*
X16700443Y-99545519D01*
X16700443Y-99545519D01*
G37*
G36*
X41579928Y-99656764D02*
G01*
X41601009Y-99663160D01*
X41620445Y-99673548D01*
X41637476Y-99687524D01*
X41651452Y-99704555D01*
X41661840Y-99723991D01*
X41668236Y-99745072D01*
X41671000Y-99773140D01*
X41671000Y-100236860D01*
X41668236Y-100264928D01*
X41661840Y-100286009D01*
X41651452Y-100305445D01*
X41637476Y-100322476D01*
X41620445Y-100336452D01*
X41601009Y-100346840D01*
X41579928Y-100353236D01*
X41551860Y-100356000D01*
X39738140Y-100356000D01*
X39710072Y-100353236D01*
X39688991Y-100346840D01*
X39669555Y-100336452D01*
X39652524Y-100322476D01*
X39638548Y-100305445D01*
X39628160Y-100286009D01*
X39621764Y-100264928D01*
X39619000Y-100236860D01*
X39619000Y-99773140D01*
X39621764Y-99745072D01*
X39628160Y-99723991D01*
X39638548Y-99704555D01*
X39652524Y-99687524D01*
X39669555Y-99673548D01*
X39688991Y-99663160D01*
X39710072Y-99656764D01*
X39738140Y-99654000D01*
X41551860Y-99654000D01*
X41579928Y-99656764D01*
X41579928Y-99656764D01*
G37*
G36*
X46529928Y-99656764D02*
G01*
X46551009Y-99663160D01*
X46570445Y-99673548D01*
X46587476Y-99687524D01*
X46601452Y-99704555D01*
X46611840Y-99723991D01*
X46618236Y-99745072D01*
X46621000Y-99773140D01*
X46621000Y-100236860D01*
X46618236Y-100264928D01*
X46611840Y-100286009D01*
X46601452Y-100305445D01*
X46587476Y-100322476D01*
X46570445Y-100336452D01*
X46551009Y-100346840D01*
X46529928Y-100353236D01*
X46501860Y-100356000D01*
X44688140Y-100356000D01*
X44660072Y-100353236D01*
X44638991Y-100346840D01*
X44619555Y-100336452D01*
X44602524Y-100322476D01*
X44588548Y-100305445D01*
X44578160Y-100286009D01*
X44571764Y-100264928D01*
X44569000Y-100236860D01*
X44569000Y-99773140D01*
X44571764Y-99745072D01*
X44578160Y-99723991D01*
X44588548Y-99704555D01*
X44602524Y-99687524D01*
X44619555Y-99673548D01*
X44638991Y-99663160D01*
X44660072Y-99656764D01*
X44688140Y-99654000D01*
X46501860Y-99654000D01*
X46529928Y-99656764D01*
X46529928Y-99656764D01*
G37*
G36*
X24516823Y-98061313D02*
G01*
X24677242Y-98109976D01*
X24777144Y-98163375D01*
X24825078Y-98188996D01*
X24954659Y-98295341D01*
X25061004Y-98424922D01*
X25061005Y-98424924D01*
X25140024Y-98572758D01*
X25188687Y-98733177D01*
X25205117Y-98900000D01*
X25188687Y-99066823D01*
X25140024Y-99227242D01*
X25132670Y-99241000D01*
X25061004Y-99375078D01*
X24954659Y-99504659D01*
X24825078Y-99611004D01*
X24825076Y-99611005D01*
X24677242Y-99690024D01*
X24516823Y-99738687D01*
X24391804Y-99751000D01*
X24308196Y-99751000D01*
X24183177Y-99738687D01*
X24022758Y-99690024D01*
X23874924Y-99611005D01*
X23874922Y-99611004D01*
X23745341Y-99504659D01*
X23638996Y-99375078D01*
X23567330Y-99241000D01*
X23559976Y-99227242D01*
X23511313Y-99066823D01*
X23494883Y-98900000D01*
X23511313Y-98733177D01*
X23559976Y-98572758D01*
X23638995Y-98424924D01*
X23638996Y-98424922D01*
X23745341Y-98295341D01*
X23874922Y-98188996D01*
X23922856Y-98163375D01*
X24022758Y-98109976D01*
X24183177Y-98061313D01*
X24308196Y-98049000D01*
X24391804Y-98049000D01*
X24516823Y-98061313D01*
X24516823Y-98061313D01*
G37*
G36*
X32136823Y-98061313D02*
G01*
X32297242Y-98109976D01*
X32397144Y-98163375D01*
X32445078Y-98188996D01*
X32574659Y-98295341D01*
X32681004Y-98424922D01*
X32681005Y-98424924D01*
X32760024Y-98572758D01*
X32808687Y-98733177D01*
X32825117Y-98900000D01*
X32808687Y-99066823D01*
X32760024Y-99227242D01*
X32752670Y-99241000D01*
X32681004Y-99375078D01*
X32574659Y-99504659D01*
X32445078Y-99611004D01*
X32445076Y-99611005D01*
X32297242Y-99690024D01*
X32136823Y-99738687D01*
X32011804Y-99751000D01*
X31928196Y-99751000D01*
X31803177Y-99738687D01*
X31642758Y-99690024D01*
X31494924Y-99611005D01*
X31494922Y-99611004D01*
X31365341Y-99504659D01*
X31258996Y-99375078D01*
X31187330Y-99241000D01*
X31179976Y-99227242D01*
X31131313Y-99066823D01*
X31114883Y-98900000D01*
X31131313Y-98733177D01*
X31179976Y-98572758D01*
X31258995Y-98424924D01*
X31258996Y-98424922D01*
X31365341Y-98295341D01*
X31494922Y-98188996D01*
X31542856Y-98163375D01*
X31642758Y-98109976D01*
X31803177Y-98061313D01*
X31928196Y-98049000D01*
X32011804Y-98049000D01*
X32136823Y-98061313D01*
X32136823Y-98061313D01*
G37*
G36*
X36978674Y-98143465D02*
G01*
X37016367Y-98154899D01*
X37051103Y-98173466D01*
X37081548Y-98198452D01*
X37106534Y-98228897D01*
X37125101Y-98263633D01*
X37136535Y-98301326D01*
X37141000Y-98346661D01*
X37141000Y-99433339D01*
X37136535Y-99478674D01*
X37125101Y-99516367D01*
X37106534Y-99551103D01*
X37081548Y-99581548D01*
X37051103Y-99606534D01*
X37016367Y-99625101D01*
X36978674Y-99636535D01*
X36933339Y-99641000D01*
X36096661Y-99641000D01*
X36051326Y-99636535D01*
X36013633Y-99625101D01*
X35978897Y-99606534D01*
X35948452Y-99581548D01*
X35923466Y-99551103D01*
X35904899Y-99516367D01*
X35893465Y-99478674D01*
X35889000Y-99433339D01*
X35889000Y-98346661D01*
X35893465Y-98301326D01*
X35904899Y-98263633D01*
X35923466Y-98228897D01*
X35948452Y-98198452D01*
X35978897Y-98173466D01*
X36013633Y-98154899D01*
X36051326Y-98143465D01*
X36096661Y-98139000D01*
X36933339Y-98139000D01*
X36978674Y-98143465D01*
X36978674Y-98143465D01*
G37*
G36*
X34928674Y-98143465D02*
G01*
X34966367Y-98154899D01*
X35001103Y-98173466D01*
X35031548Y-98198452D01*
X35056534Y-98228897D01*
X35075101Y-98263633D01*
X35086535Y-98301326D01*
X35091000Y-98346661D01*
X35091000Y-99433339D01*
X35086535Y-99478674D01*
X35075101Y-99516367D01*
X35056534Y-99551103D01*
X35031548Y-99581548D01*
X35001103Y-99606534D01*
X34966367Y-99625101D01*
X34928674Y-99636535D01*
X34883339Y-99641000D01*
X34046661Y-99641000D01*
X34001326Y-99636535D01*
X33963633Y-99625101D01*
X33928897Y-99606534D01*
X33898452Y-99581548D01*
X33873466Y-99551103D01*
X33854899Y-99516367D01*
X33843465Y-99478674D01*
X33839000Y-99433339D01*
X33839000Y-98346661D01*
X33843465Y-98301326D01*
X33854899Y-98263633D01*
X33873466Y-98228897D01*
X33898452Y-98198452D01*
X33928897Y-98173466D01*
X33963633Y-98154899D01*
X34001326Y-98143465D01*
X34046661Y-98139000D01*
X34883339Y-98139000D01*
X34928674Y-98143465D01*
X34928674Y-98143465D01*
G37*
G36*
X50660442Y-97445518D02*
G01*
X50726627Y-97452037D01*
X50896466Y-97503557D01*
X50896468Y-97503558D01*
X50939282Y-97526443D01*
X51052991Y-97587222D01*
X51057594Y-97591000D01*
X51190186Y-97699814D01*
X51273448Y-97801271D01*
X51302778Y-97837009D01*
X51386443Y-97993534D01*
X51437963Y-98163373D01*
X51455359Y-98340000D01*
X51437963Y-98516627D01*
X51386443Y-98686466D01*
X51302778Y-98842991D01*
X51273448Y-98878729D01*
X51190186Y-98980186D01*
X51088729Y-99063448D01*
X51052991Y-99092778D01*
X50896466Y-99176443D01*
X50726627Y-99227963D01*
X50660443Y-99234481D01*
X50594260Y-99241000D01*
X50505740Y-99241000D01*
X50439557Y-99234481D01*
X50373373Y-99227963D01*
X50203534Y-99176443D01*
X50047009Y-99092778D01*
X50011271Y-99063448D01*
X49909814Y-98980186D01*
X49826552Y-98878729D01*
X49797222Y-98842991D01*
X49713557Y-98686466D01*
X49662037Y-98516627D01*
X49644641Y-98340000D01*
X49662037Y-98163373D01*
X49713557Y-97993534D01*
X49797222Y-97837009D01*
X49826552Y-97801271D01*
X49909814Y-97699814D01*
X50042406Y-97591000D01*
X50047009Y-97587222D01*
X50160718Y-97526443D01*
X50203532Y-97503558D01*
X50203534Y-97503557D01*
X50373373Y-97452037D01*
X50439558Y-97445518D01*
X50505740Y-97439000D01*
X50594260Y-97439000D01*
X50660442Y-97445518D01*
X50660442Y-97445518D01*
G37*
G36*
X41579928Y-98386764D02*
G01*
X41601009Y-98393160D01*
X41620445Y-98403548D01*
X41637476Y-98417524D01*
X41651452Y-98434555D01*
X41661840Y-98453991D01*
X41668236Y-98475072D01*
X41671000Y-98503140D01*
X41671000Y-98966860D01*
X41668236Y-98994928D01*
X41661840Y-99016009D01*
X41651452Y-99035445D01*
X41637476Y-99052476D01*
X41620445Y-99066452D01*
X41601009Y-99076840D01*
X41579928Y-99083236D01*
X41551860Y-99086000D01*
X39738140Y-99086000D01*
X39710072Y-99083236D01*
X39688991Y-99076840D01*
X39669555Y-99066452D01*
X39652524Y-99052476D01*
X39638548Y-99035445D01*
X39628160Y-99016009D01*
X39621764Y-98994928D01*
X39619000Y-98966860D01*
X39619000Y-98503140D01*
X39621764Y-98475072D01*
X39628160Y-98453991D01*
X39638548Y-98434555D01*
X39652524Y-98417524D01*
X39669555Y-98403548D01*
X39688991Y-98393160D01*
X39710072Y-98386764D01*
X39738140Y-98384000D01*
X41551860Y-98384000D01*
X41579928Y-98386764D01*
X41579928Y-98386764D01*
G37*
G36*
X46529928Y-98386764D02*
G01*
X46551009Y-98393160D01*
X46570445Y-98403548D01*
X46587476Y-98417524D01*
X46601452Y-98434555D01*
X46611840Y-98453991D01*
X46618236Y-98475072D01*
X46621000Y-98503140D01*
X46621000Y-98966860D01*
X46618236Y-98994928D01*
X46611840Y-99016009D01*
X46601452Y-99035445D01*
X46587476Y-99052476D01*
X46570445Y-99066452D01*
X46551009Y-99076840D01*
X46529928Y-99083236D01*
X46501860Y-99086000D01*
X44688140Y-99086000D01*
X44660072Y-99083236D01*
X44638991Y-99076840D01*
X44619555Y-99066452D01*
X44602524Y-99052476D01*
X44588548Y-99035445D01*
X44578160Y-99016009D01*
X44571764Y-98994928D01*
X44569000Y-98966860D01*
X44569000Y-98503140D01*
X44571764Y-98475072D01*
X44578160Y-98453991D01*
X44588548Y-98434555D01*
X44602524Y-98417524D01*
X44619555Y-98403548D01*
X44638991Y-98393160D01*
X44660072Y-98386764D01*
X44688140Y-98384000D01*
X46501860Y-98384000D01*
X46529928Y-98386764D01*
X46529928Y-98386764D01*
G37*
G36*
X41579928Y-97116764D02*
G01*
X41601009Y-97123160D01*
X41620445Y-97133548D01*
X41637476Y-97147524D01*
X41651452Y-97164555D01*
X41661840Y-97183991D01*
X41668236Y-97205072D01*
X41671000Y-97233140D01*
X41671000Y-97696860D01*
X41668236Y-97724928D01*
X41661840Y-97746009D01*
X41651452Y-97765445D01*
X41637476Y-97782476D01*
X41620445Y-97796452D01*
X41601009Y-97806840D01*
X41579928Y-97813236D01*
X41551860Y-97816000D01*
X39738140Y-97816000D01*
X39710072Y-97813236D01*
X39688991Y-97806840D01*
X39669555Y-97796452D01*
X39652524Y-97782476D01*
X39638548Y-97765445D01*
X39628160Y-97746009D01*
X39621764Y-97724928D01*
X39619000Y-97696860D01*
X39619000Y-97233140D01*
X39621764Y-97205072D01*
X39628160Y-97183991D01*
X39638548Y-97164555D01*
X39652524Y-97147524D01*
X39669555Y-97133548D01*
X39688991Y-97123160D01*
X39710072Y-97116764D01*
X39738140Y-97114000D01*
X41551860Y-97114000D01*
X41579928Y-97116764D01*
X41579928Y-97116764D01*
G37*
G36*
X46529928Y-97116764D02*
G01*
X46551009Y-97123160D01*
X46570445Y-97133548D01*
X46587476Y-97147524D01*
X46601452Y-97164555D01*
X46611840Y-97183991D01*
X46618236Y-97205072D01*
X46621000Y-97233140D01*
X46621000Y-97696860D01*
X46618236Y-97724928D01*
X46611840Y-97746009D01*
X46601452Y-97765445D01*
X46587476Y-97782476D01*
X46570445Y-97796452D01*
X46551009Y-97806840D01*
X46529928Y-97813236D01*
X46501860Y-97816000D01*
X44688140Y-97816000D01*
X44660072Y-97813236D01*
X44638991Y-97806840D01*
X44619555Y-97796452D01*
X44602524Y-97782476D01*
X44588548Y-97765445D01*
X44578160Y-97746009D01*
X44571764Y-97724928D01*
X44569000Y-97696860D01*
X44569000Y-97233140D01*
X44571764Y-97205072D01*
X44578160Y-97183991D01*
X44588548Y-97164555D01*
X44602524Y-97147524D01*
X44619555Y-97133548D01*
X44638991Y-97123160D01*
X44660072Y-97116764D01*
X44688140Y-97114000D01*
X46501860Y-97114000D01*
X46529928Y-97116764D01*
X46529928Y-97116764D01*
G37*
G36*
X14901000Y-97591000D02*
G01*
X13099000Y-97591000D01*
X13099000Y-95789000D01*
X14901000Y-95789000D01*
X14901000Y-97591000D01*
X14901000Y-97591000D01*
G37*
G36*
X16650442Y-95795518D02*
G01*
X16716627Y-95802037D01*
X16886466Y-95853557D01*
X16886468Y-95853558D01*
X16931305Y-95877524D01*
X17042991Y-95937222D01*
X17061411Y-95952339D01*
X17180186Y-96049814D01*
X17259505Y-96146466D01*
X17292778Y-96187009D01*
X17376443Y-96343534D01*
X17427963Y-96513373D01*
X17445359Y-96690000D01*
X17427963Y-96866627D01*
X17376443Y-97036466D01*
X17292778Y-97192991D01*
X17263448Y-97228729D01*
X17180186Y-97330186D01*
X17078729Y-97413448D01*
X17042991Y-97442778D01*
X17042989Y-97442779D01*
X16929281Y-97503558D01*
X16886466Y-97526443D01*
X16716627Y-97577963D01*
X16650442Y-97584482D01*
X16584260Y-97591000D01*
X16495740Y-97591000D01*
X16429558Y-97584482D01*
X16363373Y-97577963D01*
X16193534Y-97526443D01*
X16150720Y-97503558D01*
X16037011Y-97442779D01*
X16037009Y-97442778D01*
X16001271Y-97413448D01*
X15899814Y-97330186D01*
X15816552Y-97228729D01*
X15787222Y-97192991D01*
X15703557Y-97036466D01*
X15652037Y-96866627D01*
X15634641Y-96690000D01*
X15652037Y-96513373D01*
X15703557Y-96343534D01*
X15787222Y-96187009D01*
X15820495Y-96146466D01*
X15899814Y-96049814D01*
X16018589Y-95952339D01*
X16037009Y-95937222D01*
X16148695Y-95877524D01*
X16193532Y-95853558D01*
X16193534Y-95853557D01*
X16363373Y-95802037D01*
X16429558Y-95795518D01*
X16495740Y-95789000D01*
X16584260Y-95789000D01*
X16650442Y-95795518D01*
X16650442Y-95795518D01*
G37*
G36*
X32136823Y-95521313D02*
G01*
X32297242Y-95569976D01*
X32409011Y-95629718D01*
X32445078Y-95648996D01*
X32574659Y-95755341D01*
X32681004Y-95884922D01*
X32681005Y-95884924D01*
X32760024Y-96032758D01*
X32808687Y-96193177D01*
X32825117Y-96360000D01*
X32808687Y-96526823D01*
X32760024Y-96687242D01*
X32752670Y-96701000D01*
X32681004Y-96835078D01*
X32574659Y-96964659D01*
X32445078Y-97071004D01*
X32445076Y-97071005D01*
X32297242Y-97150024D01*
X32136823Y-97198687D01*
X32011804Y-97211000D01*
X31928196Y-97211000D01*
X31803177Y-97198687D01*
X31642758Y-97150024D01*
X31494924Y-97071005D01*
X31494922Y-97071004D01*
X31365341Y-96964659D01*
X31258996Y-96835078D01*
X31187330Y-96701000D01*
X31179976Y-96687242D01*
X31131313Y-96526823D01*
X31114883Y-96360000D01*
X31131313Y-96193177D01*
X31179976Y-96032758D01*
X31258995Y-95884924D01*
X31258996Y-95884922D01*
X31365341Y-95755341D01*
X31494922Y-95648996D01*
X31530989Y-95629718D01*
X31642758Y-95569976D01*
X31803177Y-95521313D01*
X31928196Y-95509000D01*
X32011804Y-95509000D01*
X32136823Y-95521313D01*
X32136823Y-95521313D01*
G37*
G36*
X24516823Y-95521313D02*
G01*
X24677242Y-95569976D01*
X24789011Y-95629718D01*
X24825078Y-95648996D01*
X24954659Y-95755341D01*
X25061004Y-95884922D01*
X25061005Y-95884924D01*
X25140024Y-96032758D01*
X25188687Y-96193177D01*
X25205117Y-96360000D01*
X25188687Y-96526823D01*
X25140024Y-96687242D01*
X25132670Y-96701000D01*
X25061004Y-96835078D01*
X24954659Y-96964659D01*
X24825078Y-97071004D01*
X24825076Y-97071005D01*
X24677242Y-97150024D01*
X24516823Y-97198687D01*
X24391804Y-97211000D01*
X24308196Y-97211000D01*
X24183177Y-97198687D01*
X24022758Y-97150024D01*
X23874924Y-97071005D01*
X23874922Y-97071004D01*
X23745341Y-96964659D01*
X23638996Y-96835078D01*
X23567330Y-96701000D01*
X23559976Y-96687242D01*
X23511313Y-96526823D01*
X23494883Y-96360000D01*
X23511313Y-96193177D01*
X23559976Y-96032758D01*
X23638995Y-95884924D01*
X23638996Y-95884922D01*
X23745341Y-95755341D01*
X23874922Y-95648996D01*
X23910989Y-95629718D01*
X24022758Y-95569976D01*
X24183177Y-95521313D01*
X24308196Y-95509000D01*
X24391804Y-95509000D01*
X24516823Y-95521313D01*
X24516823Y-95521313D01*
G37*
G36*
X36988674Y-95613465D02*
G01*
X37026367Y-95624899D01*
X37061103Y-95643466D01*
X37091548Y-95668452D01*
X37116534Y-95698897D01*
X37135101Y-95733633D01*
X37146535Y-95771326D01*
X37151000Y-95816661D01*
X37151000Y-96903339D01*
X37146535Y-96948674D01*
X37135101Y-96986367D01*
X37116534Y-97021103D01*
X37091548Y-97051548D01*
X37061103Y-97076534D01*
X37026367Y-97095101D01*
X36988674Y-97106535D01*
X36943339Y-97111000D01*
X36106661Y-97111000D01*
X36061326Y-97106535D01*
X36023633Y-97095101D01*
X35988897Y-97076534D01*
X35958452Y-97051548D01*
X35933466Y-97021103D01*
X35914899Y-96986367D01*
X35903465Y-96948674D01*
X35899000Y-96903339D01*
X35899000Y-95816661D01*
X35903465Y-95771326D01*
X35914899Y-95733633D01*
X35933466Y-95698897D01*
X35958452Y-95668452D01*
X35988897Y-95643466D01*
X36023633Y-95624899D01*
X36061326Y-95613465D01*
X36106661Y-95609000D01*
X36943339Y-95609000D01*
X36988674Y-95613465D01*
X36988674Y-95613465D01*
G37*
G36*
X34938674Y-95613465D02*
G01*
X34976367Y-95624899D01*
X35011103Y-95643466D01*
X35041548Y-95668452D01*
X35066534Y-95698897D01*
X35085101Y-95733633D01*
X35096535Y-95771326D01*
X35101000Y-95816661D01*
X35101000Y-96903339D01*
X35096535Y-96948674D01*
X35085101Y-96986367D01*
X35066534Y-97021103D01*
X35041548Y-97051548D01*
X35011103Y-97076534D01*
X34976367Y-97095101D01*
X34938674Y-97106535D01*
X34893339Y-97111000D01*
X34056661Y-97111000D01*
X34011326Y-97106535D01*
X33973633Y-97095101D01*
X33938897Y-97076534D01*
X33908452Y-97051548D01*
X33883466Y-97021103D01*
X33864899Y-96986367D01*
X33853465Y-96948674D01*
X33849000Y-96903339D01*
X33849000Y-95816661D01*
X33853465Y-95771326D01*
X33864899Y-95733633D01*
X33883466Y-95698897D01*
X33908452Y-95668452D01*
X33938897Y-95643466D01*
X33973633Y-95624899D01*
X34011326Y-95613465D01*
X34056661Y-95609000D01*
X34893339Y-95609000D01*
X34938674Y-95613465D01*
X34938674Y-95613465D01*
G37*
G36*
X50660443Y-94905519D02*
G01*
X50726627Y-94912037D01*
X50896466Y-94963557D01*
X51052991Y-95047222D01*
X51088729Y-95076552D01*
X51190186Y-95159814D01*
X51273448Y-95261271D01*
X51302778Y-95297009D01*
X51386443Y-95453534D01*
X51437963Y-95623373D01*
X51455359Y-95800000D01*
X51437963Y-95976627D01*
X51386443Y-96146466D01*
X51302778Y-96302991D01*
X51273448Y-96338729D01*
X51190186Y-96440186D01*
X51088729Y-96523448D01*
X51052991Y-96552778D01*
X50896466Y-96636443D01*
X50726627Y-96687963D01*
X50660442Y-96694482D01*
X50594260Y-96701000D01*
X50505740Y-96701000D01*
X50439558Y-96694482D01*
X50373373Y-96687963D01*
X50203534Y-96636443D01*
X50047009Y-96552778D01*
X50011271Y-96523448D01*
X49909814Y-96440186D01*
X49826552Y-96338729D01*
X49797222Y-96302991D01*
X49713557Y-96146466D01*
X49662037Y-95976627D01*
X49644641Y-95800000D01*
X49662037Y-95623373D01*
X49713557Y-95453534D01*
X49797222Y-95297009D01*
X49826552Y-95261271D01*
X49909814Y-95159814D01*
X50011271Y-95076552D01*
X50047009Y-95047222D01*
X50203534Y-94963557D01*
X50373373Y-94912037D01*
X50439557Y-94905519D01*
X50505740Y-94899000D01*
X50594260Y-94899000D01*
X50660443Y-94905519D01*
X50660443Y-94905519D01*
G37*
G36*
X46529928Y-95846764D02*
G01*
X46551009Y-95853160D01*
X46570445Y-95863548D01*
X46587476Y-95877524D01*
X46601452Y-95894555D01*
X46611840Y-95913991D01*
X46618236Y-95935072D01*
X46621000Y-95963140D01*
X46621000Y-96426860D01*
X46618236Y-96454928D01*
X46611840Y-96476009D01*
X46601452Y-96495445D01*
X46587476Y-96512476D01*
X46570445Y-96526452D01*
X46551009Y-96536840D01*
X46529928Y-96543236D01*
X46501860Y-96546000D01*
X44688140Y-96546000D01*
X44660072Y-96543236D01*
X44638991Y-96536840D01*
X44619555Y-96526452D01*
X44602524Y-96512476D01*
X44588548Y-96495445D01*
X44578160Y-96476009D01*
X44571764Y-96454928D01*
X44569000Y-96426860D01*
X44569000Y-95963140D01*
X44571764Y-95935072D01*
X44578160Y-95913991D01*
X44588548Y-95894555D01*
X44602524Y-95877524D01*
X44619555Y-95863548D01*
X44638991Y-95853160D01*
X44660072Y-95846764D01*
X44688140Y-95844000D01*
X46501860Y-95844000D01*
X46529928Y-95846764D01*
X46529928Y-95846764D01*
G37*
G36*
X41579928Y-95846764D02*
G01*
X41601009Y-95853160D01*
X41620445Y-95863548D01*
X41637476Y-95877524D01*
X41651452Y-95894555D01*
X41661840Y-95913991D01*
X41668236Y-95935072D01*
X41671000Y-95963140D01*
X41671000Y-96426860D01*
X41668236Y-96454928D01*
X41661840Y-96476009D01*
X41651452Y-96495445D01*
X41637476Y-96512476D01*
X41620445Y-96526452D01*
X41601009Y-96536840D01*
X41579928Y-96543236D01*
X41551860Y-96546000D01*
X39738140Y-96546000D01*
X39710072Y-96543236D01*
X39688991Y-96536840D01*
X39669555Y-96526452D01*
X39652524Y-96512476D01*
X39638548Y-96495445D01*
X39628160Y-96476009D01*
X39621764Y-96454928D01*
X39619000Y-96426860D01*
X39619000Y-95963140D01*
X39621764Y-95935072D01*
X39628160Y-95913991D01*
X39638548Y-95894555D01*
X39652524Y-95877524D01*
X39669555Y-95863548D01*
X39688991Y-95853160D01*
X39710072Y-95846764D01*
X39738140Y-95844000D01*
X41551860Y-95844000D01*
X41579928Y-95846764D01*
X41579928Y-95846764D01*
G37*
G36*
X46529928Y-94576764D02*
G01*
X46551009Y-94583160D01*
X46570445Y-94593548D01*
X46587476Y-94607524D01*
X46601452Y-94624555D01*
X46611840Y-94643991D01*
X46618236Y-94665072D01*
X46621000Y-94693140D01*
X46621000Y-95156860D01*
X46618236Y-95184928D01*
X46611840Y-95206009D01*
X46601452Y-95225445D01*
X46587476Y-95242476D01*
X46570445Y-95256452D01*
X46551009Y-95266840D01*
X46529928Y-95273236D01*
X46501860Y-95276000D01*
X44688140Y-95276000D01*
X44660072Y-95273236D01*
X44638991Y-95266840D01*
X44619555Y-95256452D01*
X44602524Y-95242476D01*
X44588548Y-95225445D01*
X44578160Y-95206009D01*
X44571764Y-95184928D01*
X44569000Y-95156860D01*
X44569000Y-94693140D01*
X44571764Y-94665072D01*
X44578160Y-94643991D01*
X44588548Y-94624555D01*
X44602524Y-94607524D01*
X44619555Y-94593548D01*
X44638991Y-94583160D01*
X44660072Y-94576764D01*
X44688140Y-94574000D01*
X46501860Y-94574000D01*
X46529928Y-94576764D01*
X46529928Y-94576764D01*
G37*
G36*
X41579928Y-94576764D02*
G01*
X41601009Y-94583160D01*
X41620445Y-94593548D01*
X41637476Y-94607524D01*
X41651452Y-94624555D01*
X41661840Y-94643991D01*
X41668236Y-94665072D01*
X41671000Y-94693140D01*
X41671000Y-95156860D01*
X41668236Y-95184928D01*
X41661840Y-95206009D01*
X41651452Y-95225445D01*
X41637476Y-95242476D01*
X41620445Y-95256452D01*
X41601009Y-95266840D01*
X41579928Y-95273236D01*
X41551860Y-95276000D01*
X39738140Y-95276000D01*
X39710072Y-95273236D01*
X39688991Y-95266840D01*
X39669555Y-95256452D01*
X39652524Y-95242476D01*
X39638548Y-95225445D01*
X39628160Y-95206009D01*
X39621764Y-95184928D01*
X39619000Y-95156860D01*
X39619000Y-94693140D01*
X39621764Y-94665072D01*
X39628160Y-94643991D01*
X39638548Y-94624555D01*
X39652524Y-94607524D01*
X39669555Y-94593548D01*
X39688991Y-94583160D01*
X39710072Y-94576764D01*
X39738140Y-94574000D01*
X41551860Y-94574000D01*
X41579928Y-94576764D01*
X41579928Y-94576764D01*
G37*
G36*
X24516823Y-92981313D02*
G01*
X24677242Y-93029976D01*
X24798648Y-93094869D01*
X24825078Y-93108996D01*
X24954659Y-93215341D01*
X25061004Y-93344922D01*
X25061005Y-93344924D01*
X25140024Y-93492758D01*
X25188687Y-93653177D01*
X25205117Y-93820000D01*
X25188687Y-93986823D01*
X25140024Y-94147242D01*
X25132670Y-94161000D01*
X25061004Y-94295078D01*
X24954659Y-94424659D01*
X24825078Y-94531004D01*
X24825076Y-94531005D01*
X24677242Y-94610024D01*
X24516823Y-94658687D01*
X24391804Y-94671000D01*
X24308196Y-94671000D01*
X24183177Y-94658687D01*
X24022758Y-94610024D01*
X23874924Y-94531005D01*
X23874922Y-94531004D01*
X23745341Y-94424659D01*
X23638996Y-94295078D01*
X23567330Y-94161000D01*
X23559976Y-94147242D01*
X23511313Y-93986823D01*
X23494883Y-93820000D01*
X23511313Y-93653177D01*
X23559976Y-93492758D01*
X23638995Y-93344924D01*
X23638996Y-93344922D01*
X23745341Y-93215341D01*
X23874922Y-93108996D01*
X23901352Y-93094869D01*
X24022758Y-93029976D01*
X24183177Y-92981313D01*
X24308196Y-92969000D01*
X24391804Y-92969000D01*
X24516823Y-92981313D01*
X24516823Y-92981313D01*
G37*
G36*
X32136823Y-92981313D02*
G01*
X32297242Y-93029976D01*
X32418648Y-93094869D01*
X32445078Y-93108996D01*
X32574659Y-93215341D01*
X32681004Y-93344922D01*
X32681005Y-93344924D01*
X32760024Y-93492758D01*
X32808687Y-93653177D01*
X32825117Y-93820000D01*
X32808687Y-93986823D01*
X32760024Y-94147242D01*
X32752670Y-94161000D01*
X32681004Y-94295078D01*
X32574659Y-94424659D01*
X32445078Y-94531004D01*
X32445076Y-94531005D01*
X32297242Y-94610024D01*
X32136823Y-94658687D01*
X32011804Y-94671000D01*
X31928196Y-94671000D01*
X31803177Y-94658687D01*
X31642758Y-94610024D01*
X31494924Y-94531005D01*
X31494922Y-94531004D01*
X31365341Y-94424659D01*
X31258996Y-94295078D01*
X31187330Y-94161000D01*
X31179976Y-94147242D01*
X31131313Y-93986823D01*
X31114883Y-93820000D01*
X31131313Y-93653177D01*
X31179976Y-93492758D01*
X31258995Y-93344924D01*
X31258996Y-93344922D01*
X31365341Y-93215341D01*
X31494922Y-93108996D01*
X31521352Y-93094869D01*
X31642758Y-93029976D01*
X31803177Y-92981313D01*
X31928196Y-92969000D01*
X32011804Y-92969000D01*
X32136823Y-92981313D01*
X32136823Y-92981313D01*
G37*
G36*
X36928674Y-93053465D02*
G01*
X36966367Y-93064899D01*
X37001103Y-93083466D01*
X37031548Y-93108452D01*
X37056534Y-93138897D01*
X37075101Y-93173633D01*
X37086535Y-93211326D01*
X37091000Y-93256661D01*
X37091000Y-94343339D01*
X37086535Y-94388674D01*
X37075101Y-94426367D01*
X37056534Y-94461103D01*
X37031548Y-94491548D01*
X37001103Y-94516534D01*
X36966367Y-94535101D01*
X36928674Y-94546535D01*
X36883339Y-94551000D01*
X36046661Y-94551000D01*
X36001326Y-94546535D01*
X35963633Y-94535101D01*
X35928897Y-94516534D01*
X35898452Y-94491548D01*
X35873466Y-94461103D01*
X35854899Y-94426367D01*
X35843465Y-94388674D01*
X35839000Y-94343339D01*
X35839000Y-93256661D01*
X35843465Y-93211326D01*
X35854899Y-93173633D01*
X35873466Y-93138897D01*
X35898452Y-93108452D01*
X35928897Y-93083466D01*
X35963633Y-93064899D01*
X36001326Y-93053465D01*
X36046661Y-93049000D01*
X36883339Y-93049000D01*
X36928674Y-93053465D01*
X36928674Y-93053465D01*
G37*
G36*
X34878674Y-93053465D02*
G01*
X34916367Y-93064899D01*
X34951103Y-93083466D01*
X34981548Y-93108452D01*
X35006534Y-93138897D01*
X35025101Y-93173633D01*
X35036535Y-93211326D01*
X35041000Y-93256661D01*
X35041000Y-94343339D01*
X35036535Y-94388674D01*
X35025101Y-94426367D01*
X35006534Y-94461103D01*
X34981548Y-94491548D01*
X34951103Y-94516534D01*
X34916367Y-94535101D01*
X34878674Y-94546535D01*
X34833339Y-94551000D01*
X33996661Y-94551000D01*
X33951326Y-94546535D01*
X33913633Y-94535101D01*
X33878897Y-94516534D01*
X33848452Y-94491548D01*
X33823466Y-94461103D01*
X33804899Y-94426367D01*
X33793465Y-94388674D01*
X33789000Y-94343339D01*
X33789000Y-93256661D01*
X33793465Y-93211326D01*
X33804899Y-93173633D01*
X33823466Y-93138897D01*
X33848452Y-93108452D01*
X33878897Y-93083466D01*
X33913633Y-93064899D01*
X33951326Y-93053465D01*
X33996661Y-93049000D01*
X34833339Y-93049000D01*
X34878674Y-93053465D01*
X34878674Y-93053465D01*
G37*
G36*
X50660442Y-92365518D02*
G01*
X50726627Y-92372037D01*
X50896466Y-92423557D01*
X51052991Y-92507222D01*
X51088729Y-92536552D01*
X51190186Y-92619814D01*
X51273448Y-92721271D01*
X51302778Y-92757009D01*
X51386443Y-92913534D01*
X51437963Y-93083373D01*
X51455359Y-93260000D01*
X51437963Y-93436627D01*
X51386443Y-93606466D01*
X51302778Y-93762991D01*
X51273448Y-93798729D01*
X51190186Y-93900186D01*
X51088729Y-93983448D01*
X51052991Y-94012778D01*
X50896466Y-94096443D01*
X50726627Y-94147963D01*
X50660442Y-94154482D01*
X50594260Y-94161000D01*
X50505740Y-94161000D01*
X50439558Y-94154482D01*
X50373373Y-94147963D01*
X50203534Y-94096443D01*
X50047009Y-94012778D01*
X50011271Y-93983448D01*
X49909814Y-93900186D01*
X49826552Y-93798729D01*
X49797222Y-93762991D01*
X49713557Y-93606466D01*
X49662037Y-93436627D01*
X49644641Y-93260000D01*
X49662037Y-93083373D01*
X49713557Y-92913534D01*
X49797222Y-92757009D01*
X49826552Y-92721271D01*
X49909814Y-92619814D01*
X50011271Y-92536552D01*
X50047009Y-92507222D01*
X50203534Y-92423557D01*
X50373373Y-92372037D01*
X50439558Y-92365518D01*
X50505740Y-92359000D01*
X50594260Y-92359000D01*
X50660442Y-92365518D01*
X50660442Y-92365518D01*
G37*
G36*
X41579928Y-93306764D02*
G01*
X41601009Y-93313160D01*
X41620445Y-93323548D01*
X41637476Y-93337524D01*
X41651452Y-93354555D01*
X41661840Y-93373991D01*
X41668236Y-93395072D01*
X41671000Y-93423140D01*
X41671000Y-93886860D01*
X41668236Y-93914928D01*
X41661840Y-93936009D01*
X41651452Y-93955445D01*
X41637476Y-93972476D01*
X41620445Y-93986452D01*
X41601009Y-93996840D01*
X41579928Y-94003236D01*
X41551860Y-94006000D01*
X39738140Y-94006000D01*
X39710072Y-94003236D01*
X39688991Y-93996840D01*
X39669555Y-93986452D01*
X39652524Y-93972476D01*
X39638548Y-93955445D01*
X39628160Y-93936009D01*
X39621764Y-93914928D01*
X39619000Y-93886860D01*
X39619000Y-93423140D01*
X39621764Y-93395072D01*
X39628160Y-93373991D01*
X39638548Y-93354555D01*
X39652524Y-93337524D01*
X39669555Y-93323548D01*
X39688991Y-93313160D01*
X39710072Y-93306764D01*
X39738140Y-93304000D01*
X41551860Y-93304000D01*
X41579928Y-93306764D01*
X41579928Y-93306764D01*
G37*
G36*
X46529928Y-93306764D02*
G01*
X46551009Y-93313160D01*
X46570445Y-93323548D01*
X46587476Y-93337524D01*
X46601452Y-93354555D01*
X46611840Y-93373991D01*
X46618236Y-93395072D01*
X46621000Y-93423140D01*
X46621000Y-93886860D01*
X46618236Y-93914928D01*
X46611840Y-93936009D01*
X46601452Y-93955445D01*
X46587476Y-93972476D01*
X46570445Y-93986452D01*
X46551009Y-93996840D01*
X46529928Y-94003236D01*
X46501860Y-94006000D01*
X44688140Y-94006000D01*
X44660072Y-94003236D01*
X44638991Y-93996840D01*
X44619555Y-93986452D01*
X44602524Y-93972476D01*
X44588548Y-93955445D01*
X44578160Y-93936009D01*
X44571764Y-93914928D01*
X44569000Y-93886860D01*
X44569000Y-93423140D01*
X44571764Y-93395072D01*
X44578160Y-93373991D01*
X44588548Y-93354555D01*
X44602524Y-93337524D01*
X44619555Y-93323548D01*
X44638991Y-93313160D01*
X44660072Y-93306764D01*
X44688140Y-93304000D01*
X46501860Y-93304000D01*
X46529928Y-93306764D01*
X46529928Y-93306764D01*
G37*
G36*
X41579928Y-92036764D02*
G01*
X41601009Y-92043160D01*
X41620445Y-92053548D01*
X41637476Y-92067524D01*
X41651452Y-92084555D01*
X41661840Y-92103991D01*
X41668236Y-92125072D01*
X41671000Y-92153140D01*
X41671000Y-92616860D01*
X41668236Y-92644928D01*
X41661840Y-92666009D01*
X41651452Y-92685445D01*
X41637476Y-92702476D01*
X41620445Y-92716452D01*
X41601009Y-92726840D01*
X41579928Y-92733236D01*
X41551860Y-92736000D01*
X39738140Y-92736000D01*
X39710072Y-92733236D01*
X39688991Y-92726840D01*
X39669555Y-92716452D01*
X39652524Y-92702476D01*
X39638548Y-92685445D01*
X39628160Y-92666009D01*
X39621764Y-92644928D01*
X39619000Y-92616860D01*
X39619000Y-92153140D01*
X39621764Y-92125072D01*
X39628160Y-92103991D01*
X39638548Y-92084555D01*
X39652524Y-92067524D01*
X39669555Y-92053548D01*
X39688991Y-92043160D01*
X39710072Y-92036764D01*
X39738140Y-92034000D01*
X41551860Y-92034000D01*
X41579928Y-92036764D01*
X41579928Y-92036764D01*
G37*
G36*
X46529928Y-92036764D02*
G01*
X46551009Y-92043160D01*
X46570445Y-92053548D01*
X46587476Y-92067524D01*
X46601452Y-92084555D01*
X46611840Y-92103991D01*
X46618236Y-92125072D01*
X46621000Y-92153140D01*
X46621000Y-92616860D01*
X46618236Y-92644928D01*
X46611840Y-92666009D01*
X46601452Y-92685445D01*
X46587476Y-92702476D01*
X46570445Y-92716452D01*
X46551009Y-92726840D01*
X46529928Y-92733236D01*
X46501860Y-92736000D01*
X44688140Y-92736000D01*
X44660072Y-92733236D01*
X44638991Y-92726840D01*
X44619555Y-92716452D01*
X44602524Y-92702476D01*
X44588548Y-92685445D01*
X44578160Y-92666009D01*
X44571764Y-92644928D01*
X44569000Y-92616860D01*
X44569000Y-92153140D01*
X44571764Y-92125072D01*
X44578160Y-92103991D01*
X44588548Y-92084555D01*
X44602524Y-92067524D01*
X44619555Y-92053548D01*
X44638991Y-92043160D01*
X44660072Y-92036764D01*
X44688140Y-92034000D01*
X46501860Y-92034000D01*
X46529928Y-92036764D01*
X46529928Y-92036764D01*
G37*
G36*
X25201000Y-92131000D02*
G01*
X23499000Y-92131000D01*
X23499000Y-90429000D01*
X25201000Y-90429000D01*
X25201000Y-92131000D01*
X25201000Y-92131000D01*
G37*
G36*
X32136823Y-90441313D02*
G01*
X32297242Y-90489976D01*
X32401447Y-90545675D01*
X32445078Y-90568996D01*
X32574659Y-90675341D01*
X32681004Y-90804922D01*
X32681005Y-90804924D01*
X32760024Y-90952758D01*
X32808687Y-91113177D01*
X32825117Y-91280000D01*
X32808687Y-91446823D01*
X32760024Y-91607242D01*
X32752670Y-91621000D01*
X32681004Y-91755078D01*
X32574659Y-91884659D01*
X32445078Y-91991004D01*
X32445076Y-91991005D01*
X32297242Y-92070024D01*
X32136823Y-92118687D01*
X32011804Y-92131000D01*
X31928196Y-92131000D01*
X31803177Y-92118687D01*
X31642758Y-92070024D01*
X31494924Y-91991005D01*
X31494922Y-91991004D01*
X31365341Y-91884659D01*
X31258996Y-91755078D01*
X31187330Y-91621000D01*
X31179976Y-91607242D01*
X31131313Y-91446823D01*
X31114883Y-91280000D01*
X31131313Y-91113177D01*
X31179976Y-90952758D01*
X31258995Y-90804924D01*
X31258996Y-90804922D01*
X31365341Y-90675341D01*
X31494922Y-90568996D01*
X31538553Y-90545675D01*
X31642758Y-90489976D01*
X31803177Y-90441313D01*
X31928196Y-90429000D01*
X32011804Y-90429000D01*
X32136823Y-90441313D01*
X32136823Y-90441313D01*
G37*
G36*
X13645495Y-90237446D02*
G01*
X13818566Y-90309134D01*
X13818567Y-90309135D01*
X13974327Y-90413210D01*
X14106790Y-90545673D01*
X14118678Y-90563465D01*
X14210866Y-90701434D01*
X14282554Y-90874505D01*
X14319100Y-91058233D01*
X14319100Y-91245567D01*
X14282554Y-91429295D01*
X14210866Y-91602366D01*
X14210865Y-91602367D01*
X14106790Y-91758127D01*
X13974327Y-91890590D01*
X13900322Y-91940038D01*
X13818566Y-91994666D01*
X13645495Y-92066354D01*
X13461767Y-92102900D01*
X13274433Y-92102900D01*
X13090705Y-92066354D01*
X12917634Y-91994666D01*
X12835878Y-91940038D01*
X12761873Y-91890590D01*
X12629410Y-91758127D01*
X12525335Y-91602367D01*
X12525334Y-91602366D01*
X12453646Y-91429295D01*
X12417100Y-91245567D01*
X12417100Y-91058233D01*
X12453646Y-90874505D01*
X12525334Y-90701434D01*
X12617522Y-90563465D01*
X12629410Y-90545673D01*
X12761873Y-90413210D01*
X12917633Y-90309135D01*
X12917634Y-90309134D01*
X13090705Y-90237446D01*
X13274433Y-90200900D01*
X13461767Y-90200900D01*
X13645495Y-90237446D01*
X13645495Y-90237446D01*
G37*
G36*
X34878674Y-90563465D02*
G01*
X34916367Y-90574899D01*
X34951103Y-90593466D01*
X34981548Y-90618452D01*
X35006534Y-90648897D01*
X35025101Y-90683633D01*
X35036535Y-90721326D01*
X35041000Y-90766661D01*
X35041000Y-91853339D01*
X35036535Y-91898674D01*
X35025101Y-91936367D01*
X35006534Y-91971103D01*
X34981548Y-92001548D01*
X34951103Y-92026534D01*
X34916367Y-92045101D01*
X34878674Y-92056535D01*
X34833339Y-92061000D01*
X33996661Y-92061000D01*
X33951326Y-92056535D01*
X33913633Y-92045101D01*
X33878897Y-92026534D01*
X33848452Y-92001548D01*
X33823466Y-91971103D01*
X33804899Y-91936367D01*
X33793465Y-91898674D01*
X33789000Y-91853339D01*
X33789000Y-90766661D01*
X33793465Y-90721326D01*
X33804899Y-90683633D01*
X33823466Y-90648897D01*
X33848452Y-90618452D01*
X33878897Y-90593466D01*
X33913633Y-90574899D01*
X33951326Y-90563465D01*
X33996661Y-90559000D01*
X34833339Y-90559000D01*
X34878674Y-90563465D01*
X34878674Y-90563465D01*
G37*
G36*
X36928674Y-90563465D02*
G01*
X36966367Y-90574899D01*
X37001103Y-90593466D01*
X37031548Y-90618452D01*
X37056534Y-90648897D01*
X37075101Y-90683633D01*
X37086535Y-90721326D01*
X37091000Y-90766661D01*
X37091000Y-91853339D01*
X37086535Y-91898674D01*
X37075101Y-91936367D01*
X37056534Y-91971103D01*
X37031548Y-92001548D01*
X37001103Y-92026534D01*
X36966367Y-92045101D01*
X36928674Y-92056535D01*
X36883339Y-92061000D01*
X36046661Y-92061000D01*
X36001326Y-92056535D01*
X35963633Y-92045101D01*
X35928897Y-92026534D01*
X35898452Y-92001548D01*
X35873466Y-91971103D01*
X35854899Y-91936367D01*
X35843465Y-91898674D01*
X35839000Y-91853339D01*
X35839000Y-90766661D01*
X35843465Y-90721326D01*
X35854899Y-90683633D01*
X35873466Y-90648897D01*
X35898452Y-90618452D01*
X35928897Y-90593466D01*
X35963633Y-90574899D01*
X36001326Y-90563465D01*
X36046661Y-90559000D01*
X36883339Y-90559000D01*
X36928674Y-90563465D01*
X36928674Y-90563465D01*
G37*
G36*
X51451000Y-91621000D02*
G01*
X49649000Y-91621000D01*
X49649000Y-89819000D01*
X51451000Y-89819000D01*
X51451000Y-91621000D01*
X51451000Y-91621000D01*
G37*
G36*
X41036000Y-90566000D02*
G01*
X39484000Y-90566000D01*
X39484000Y-89014000D01*
X41036000Y-89014000D01*
X41036000Y-90566000D01*
X41036000Y-90566000D01*
G37*
G36*
X13645495Y-87737446D02*
G01*
X13818566Y-87809134D01*
X13818567Y-87809135D01*
X13974327Y-87913210D01*
X14106790Y-88045673D01*
X14106791Y-88045675D01*
X14210866Y-88201434D01*
X14282554Y-88374505D01*
X14319100Y-88558233D01*
X14319100Y-88745567D01*
X14282554Y-88929295D01*
X14210866Y-89102366D01*
X14210865Y-89102367D01*
X14106790Y-89258127D01*
X13974327Y-89390590D01*
X13895918Y-89442981D01*
X13818566Y-89494666D01*
X13645495Y-89566354D01*
X13461767Y-89602900D01*
X13274433Y-89602900D01*
X13090705Y-89566354D01*
X12917634Y-89494666D01*
X12840282Y-89442981D01*
X12761873Y-89390590D01*
X12629410Y-89258127D01*
X12525335Y-89102367D01*
X12525334Y-89102366D01*
X12453646Y-88929295D01*
X12417100Y-88745567D01*
X12417100Y-88558233D01*
X12453646Y-88374505D01*
X12525334Y-88201434D01*
X12629409Y-88045675D01*
X12629410Y-88045673D01*
X12761873Y-87913210D01*
X12917633Y-87809135D01*
X12917634Y-87809134D01*
X13090705Y-87737446D01*
X13274433Y-87700900D01*
X13461767Y-87700900D01*
X13645495Y-87737446D01*
X13645495Y-87737446D01*
G37*
G36*
X40486348Y-86503820D02*
G01*
X40486350Y-86503821D01*
X40486351Y-86503821D01*
X40627574Y-86562317D01*
X40627577Y-86562319D01*
X40754669Y-86647239D01*
X40862761Y-86755331D01*
X40864629Y-86758127D01*
X40947683Y-86882426D01*
X40994174Y-86994666D01*
X41006180Y-87023652D01*
X41021943Y-87102900D01*
X41036000Y-87173571D01*
X41036000Y-87326429D01*
X41006179Y-87476351D01*
X40947683Y-87617574D01*
X40947681Y-87617577D01*
X40862761Y-87744669D01*
X40754669Y-87852761D01*
X40627577Y-87937681D01*
X40627574Y-87937683D01*
X40486351Y-87996179D01*
X40486350Y-87996179D01*
X40486348Y-87996180D01*
X40336431Y-88026000D01*
X40183569Y-88026000D01*
X40033652Y-87996180D01*
X40033650Y-87996179D01*
X40033649Y-87996179D01*
X39892426Y-87937683D01*
X39892423Y-87937681D01*
X39765331Y-87852761D01*
X39657239Y-87744669D01*
X39572319Y-87617577D01*
X39572317Y-87617574D01*
X39513821Y-87476351D01*
X39484000Y-87326429D01*
X39484000Y-87173571D01*
X39498057Y-87102900D01*
X39513820Y-87023652D01*
X39525826Y-86994666D01*
X39572317Y-86882426D01*
X39655371Y-86758127D01*
X39657239Y-86755331D01*
X39765331Y-86647239D01*
X39892423Y-86562319D01*
X39892426Y-86562317D01*
X40033649Y-86503821D01*
X40033650Y-86503821D01*
X40033652Y-86503820D01*
X40183569Y-86474000D01*
X40336431Y-86474000D01*
X40486348Y-86503820D01*
X40486348Y-86503820D01*
G37*
G36*
X13645495Y-85237446D02*
G01*
X13818566Y-85309134D01*
X13818567Y-85309135D01*
X13974327Y-85413210D01*
X14106790Y-85545673D01*
X14106791Y-85545675D01*
X14210866Y-85701434D01*
X14282554Y-85874505D01*
X14319100Y-86058233D01*
X14319100Y-86245567D01*
X14282554Y-86429295D01*
X14210866Y-86602366D01*
X14165006Y-86671000D01*
X14106790Y-86758127D01*
X13974327Y-86890590D01*
X13895918Y-86942981D01*
X13818566Y-86994666D01*
X13645495Y-87066354D01*
X13461767Y-87102900D01*
X13274433Y-87102900D01*
X13090705Y-87066354D01*
X12917634Y-86994666D01*
X12840282Y-86942981D01*
X12761873Y-86890590D01*
X12629410Y-86758127D01*
X12571194Y-86671000D01*
X12525334Y-86602366D01*
X12453646Y-86429295D01*
X12417100Y-86245567D01*
X12417100Y-86058233D01*
X12453646Y-85874505D01*
X12525334Y-85701434D01*
X12629409Y-85545675D01*
X12629410Y-85545673D01*
X12761873Y-85413210D01*
X12917633Y-85309135D01*
X12917634Y-85309134D01*
X13090705Y-85237446D01*
X13274433Y-85200900D01*
X13461767Y-85200900D01*
X13645495Y-85237446D01*
X13645495Y-85237446D01*
G37*
G36*
X45958600Y-84872989D02*
G01*
X45991652Y-84883015D01*
X46022103Y-84899292D01*
X46048799Y-84921201D01*
X46070708Y-84947897D01*
X46086985Y-84978348D01*
X46097011Y-85011400D01*
X46101000Y-85051903D01*
X46101000Y-86488097D01*
X46097011Y-86528600D01*
X46086985Y-86561652D01*
X46070708Y-86592103D01*
X46048799Y-86618799D01*
X46022103Y-86640708D01*
X45991652Y-86656985D01*
X45958600Y-86667011D01*
X45918097Y-86671000D01*
X44181903Y-86671000D01*
X44141400Y-86667011D01*
X44108348Y-86656985D01*
X44077897Y-86640708D01*
X44051201Y-86618799D01*
X44029292Y-86592103D01*
X44013015Y-86561652D01*
X44002989Y-86528600D01*
X43999000Y-86488097D01*
X43999000Y-85051903D01*
X44002989Y-85011400D01*
X44013015Y-84978348D01*
X44029292Y-84947897D01*
X44051201Y-84921201D01*
X44077897Y-84899292D01*
X44108348Y-84883015D01*
X44141400Y-84872989D01*
X44181903Y-84869000D01*
X45918097Y-84869000D01*
X45958600Y-84872989D01*
X45958600Y-84872989D01*
G37*
G36*
X35519000Y-86653800D02*
G01*
X33017000Y-86653800D01*
X33017000Y-84151800D01*
X35519000Y-84151800D01*
X35519000Y-86653800D01*
X35519000Y-86653800D01*
G37*
G36*
X31583203Y-84174275D02*
G01*
X31711903Y-84199875D01*
X31939571Y-84294178D01*
X32144466Y-84431085D01*
X32318715Y-84605334D01*
X32455622Y-84810229D01*
X32455623Y-84810231D01*
X32549925Y-85037897D01*
X32598000Y-85279586D01*
X32598000Y-85526014D01*
X32594089Y-85545675D01*
X32549925Y-85767703D01*
X32455622Y-85995371D01*
X32318715Y-86200266D01*
X32144466Y-86374515D01*
X31939571Y-86511422D01*
X31939570Y-86511423D01*
X31939569Y-86511423D01*
X31711903Y-86605725D01*
X31470214Y-86653800D01*
X31223786Y-86653800D01*
X30982097Y-86605725D01*
X30754431Y-86511423D01*
X30754430Y-86511423D01*
X30754429Y-86511422D01*
X30549534Y-86374515D01*
X30375285Y-86200266D01*
X30238378Y-85995371D01*
X30144075Y-85767703D01*
X30099911Y-85545675D01*
X30096000Y-85526014D01*
X30096000Y-85279586D01*
X30144075Y-85037897D01*
X30238377Y-84810231D01*
X30238378Y-84810229D01*
X30375285Y-84605334D01*
X30549534Y-84431085D01*
X30754429Y-84294178D01*
X30982097Y-84199875D01*
X31110797Y-84174275D01*
X31223786Y-84151800D01*
X31470214Y-84151800D01*
X31583203Y-84174275D01*
X31583203Y-84174275D01*
G37*
G36*
X25833000Y-86628200D02*
G01*
X23331000Y-86628200D01*
X23331000Y-84126200D01*
X25833000Y-84126200D01*
X25833000Y-86628200D01*
X25833000Y-86628200D01*
G37*
G36*
X27785897Y-84157963D02*
G01*
X27867903Y-84174275D01*
X28095571Y-84268578D01*
X28300466Y-84405485D01*
X28474715Y-84579734D01*
X28510688Y-84633571D01*
X28611623Y-84784631D01*
X28705925Y-85012297D01*
X28744191Y-85204671D01*
X28754000Y-85253987D01*
X28754000Y-85500413D01*
X28705925Y-85742103D01*
X28611622Y-85969771D01*
X28474715Y-86174666D01*
X28300466Y-86348915D01*
X28095571Y-86485822D01*
X28095570Y-86485823D01*
X28095569Y-86485823D01*
X27867903Y-86580125D01*
X27626214Y-86628200D01*
X27379786Y-86628200D01*
X27138097Y-86580125D01*
X26910431Y-86485823D01*
X26910430Y-86485823D01*
X26910429Y-86485822D01*
X26705534Y-86348915D01*
X26531285Y-86174666D01*
X26394378Y-85969771D01*
X26300075Y-85742103D01*
X26252000Y-85500413D01*
X26252000Y-85253987D01*
X26261810Y-85204671D01*
X26300075Y-85012297D01*
X26394377Y-84784631D01*
X26495312Y-84633571D01*
X26531285Y-84579734D01*
X26705534Y-84405485D01*
X26910429Y-84268578D01*
X27138097Y-84174275D01*
X27220103Y-84157963D01*
X27379786Y-84126200D01*
X27626214Y-84126200D01*
X27785897Y-84157963D01*
X27785897Y-84157963D01*
G37*
G36*
X40486348Y-83963820D02*
G01*
X40486350Y-83963821D01*
X40486351Y-83963821D01*
X40627574Y-84022317D01*
X40627577Y-84022319D01*
X40754669Y-84107239D01*
X40862761Y-84215331D01*
X40898339Y-84268578D01*
X40947683Y-84342426D01*
X40984406Y-84431084D01*
X41006180Y-84483652D01*
X41036000Y-84633569D01*
X41036000Y-84786431D01*
X41009193Y-84921201D01*
X41006179Y-84936351D01*
X40947683Y-85077574D01*
X40947681Y-85077577D01*
X40862761Y-85204669D01*
X40754669Y-85312761D01*
X40627577Y-85397681D01*
X40627574Y-85397683D01*
X40486351Y-85456179D01*
X40486350Y-85456179D01*
X40486348Y-85456180D01*
X40336431Y-85486000D01*
X40183569Y-85486000D01*
X40033652Y-85456180D01*
X40033650Y-85456179D01*
X40033649Y-85456179D01*
X39892426Y-85397683D01*
X39892423Y-85397681D01*
X39765331Y-85312761D01*
X39657239Y-85204669D01*
X39572319Y-85077577D01*
X39572317Y-85077574D01*
X39513821Y-84936351D01*
X39510808Y-84921201D01*
X39484000Y-84786431D01*
X39484000Y-84633569D01*
X39513820Y-84483652D01*
X39535594Y-84431084D01*
X39572317Y-84342426D01*
X39621661Y-84268578D01*
X39657239Y-84215331D01*
X39765331Y-84107239D01*
X39892423Y-84022319D01*
X39892426Y-84022317D01*
X40033649Y-83963821D01*
X40033650Y-83963821D01*
X40033652Y-83963820D01*
X40183569Y-83934000D01*
X40336431Y-83934000D01*
X40486348Y-83963820D01*
X40486348Y-83963820D01*
G37*
G36*
X45310443Y-82375519D02*
G01*
X45376627Y-82382037D01*
X45546466Y-82433557D01*
X45702991Y-82517222D01*
X45727790Y-82537574D01*
X45840186Y-82629814D01*
X45923448Y-82731271D01*
X45952778Y-82767009D01*
X46036443Y-82923534D01*
X46087963Y-83093373D01*
X46105359Y-83270000D01*
X46087963Y-83446627D01*
X46036443Y-83616466D01*
X45952778Y-83772991D01*
X45923448Y-83808729D01*
X45840186Y-83910186D01*
X45738729Y-83993448D01*
X45702991Y-84022778D01*
X45546466Y-84106443D01*
X45376627Y-84157963D01*
X45310442Y-84164482D01*
X45244260Y-84171000D01*
X44855740Y-84171000D01*
X44789558Y-84164482D01*
X44723373Y-84157963D01*
X44553534Y-84106443D01*
X44397009Y-84022778D01*
X44361271Y-83993448D01*
X44259814Y-83910186D01*
X44176552Y-83808729D01*
X44147222Y-83772991D01*
X44063557Y-83616466D01*
X44012037Y-83446627D01*
X43994641Y-83270000D01*
X44012037Y-83093373D01*
X44063557Y-82923534D01*
X44147222Y-82767009D01*
X44176552Y-82731271D01*
X44259814Y-82629814D01*
X44372210Y-82537574D01*
X44397009Y-82517222D01*
X44553534Y-82433557D01*
X44723373Y-82382037D01*
X44789557Y-82375519D01*
X44855740Y-82369000D01*
X45244260Y-82369000D01*
X45310443Y-82375519D01*
X45310443Y-82375519D01*
G37*
G36*
X40486348Y-81423820D02*
G01*
X40486350Y-81423821D01*
X40486351Y-81423821D01*
X40627574Y-81482317D01*
X40627577Y-81482319D01*
X40754669Y-81567239D01*
X40862761Y-81675331D01*
X40947681Y-81802423D01*
X40947683Y-81802426D01*
X41006179Y-81943649D01*
X41006180Y-81943652D01*
X41036000Y-82093569D01*
X41036000Y-82246431D01*
X41009027Y-82382037D01*
X41006179Y-82396351D01*
X40947683Y-82537574D01*
X40947681Y-82537577D01*
X40862761Y-82664669D01*
X40754669Y-82772761D01*
X40627577Y-82857681D01*
X40627574Y-82857683D01*
X40486351Y-82916179D01*
X40486350Y-82916179D01*
X40486348Y-82916180D01*
X40336431Y-82946000D01*
X40183569Y-82946000D01*
X40033652Y-82916180D01*
X40033650Y-82916179D01*
X40033649Y-82916179D01*
X39892426Y-82857683D01*
X39892423Y-82857681D01*
X39765331Y-82772761D01*
X39657239Y-82664669D01*
X39572319Y-82537577D01*
X39572317Y-82537574D01*
X39513821Y-82396351D01*
X39510974Y-82382037D01*
X39484000Y-82246431D01*
X39484000Y-82093569D01*
X39513820Y-81943652D01*
X39513821Y-81943649D01*
X39572317Y-81802426D01*
X39572319Y-81802423D01*
X39657239Y-81675331D01*
X39765331Y-81567239D01*
X39892423Y-81482319D01*
X39892426Y-81482317D01*
X40033649Y-81423821D01*
X40033650Y-81423821D01*
X40033652Y-81423820D01*
X40183569Y-81394000D01*
X40336431Y-81394000D01*
X40486348Y-81423820D01*
X40486348Y-81423820D01*
G37*
G36*
X20961000Y-82051000D02*
G01*
X18859000Y-82051000D01*
X18859000Y-80449000D01*
X20961000Y-80449000D01*
X20961000Y-82051000D01*
X20961000Y-82051000D01*
G37*
G36*
X27261000Y-80901000D02*
G01*
X25159000Y-80901000D01*
X25159000Y-76999000D01*
X27261000Y-76999000D01*
X27261000Y-80901000D01*
X27261000Y-80901000D01*
G37*
G36*
X40486348Y-78883820D02*
G01*
X40486350Y-78883821D01*
X40486351Y-78883821D01*
X40627574Y-78942317D01*
X40627577Y-78942319D01*
X40754669Y-79027239D01*
X40862761Y-79135331D01*
X40945278Y-79258827D01*
X40947683Y-79262426D01*
X40991692Y-79368674D01*
X41006180Y-79403652D01*
X41036000Y-79553569D01*
X41036000Y-79706431D01*
X41027135Y-79751000D01*
X41006179Y-79856351D01*
X40947683Y-79997574D01*
X40947681Y-79997577D01*
X40862761Y-80124669D01*
X40754669Y-80232761D01*
X40627577Y-80317681D01*
X40627574Y-80317683D01*
X40486351Y-80376179D01*
X40486350Y-80376179D01*
X40486348Y-80376180D01*
X40336431Y-80406000D01*
X40183569Y-80406000D01*
X40033652Y-80376180D01*
X40033650Y-80376179D01*
X40033649Y-80376179D01*
X39892426Y-80317683D01*
X39892423Y-80317681D01*
X39765331Y-80232761D01*
X39657239Y-80124669D01*
X39572319Y-79997577D01*
X39572317Y-79997574D01*
X39513821Y-79856351D01*
X39492866Y-79751000D01*
X39484000Y-79706431D01*
X39484000Y-79553569D01*
X39513820Y-79403652D01*
X39528308Y-79368674D01*
X39572317Y-79262426D01*
X39574722Y-79258827D01*
X39657239Y-79135331D01*
X39765331Y-79027239D01*
X39892423Y-78942319D01*
X39892426Y-78942317D01*
X40033649Y-78883821D01*
X40033650Y-78883821D01*
X40033652Y-78883820D01*
X40183569Y-78854000D01*
X40336431Y-78854000D01*
X40486348Y-78883820D01*
X40486348Y-78883820D01*
G37*
G36*
X20961000Y-79751000D02*
G01*
X18859000Y-79751000D01*
X18859000Y-78149000D01*
X20961000Y-78149000D01*
X20961000Y-79751000D01*
X20961000Y-79751000D01*
G37*
G36*
X43848674Y-78283465D02*
G01*
X43886367Y-78294899D01*
X43921103Y-78313466D01*
X43951548Y-78338452D01*
X43976534Y-78368897D01*
X43995101Y-78403633D01*
X44006535Y-78441326D01*
X44011000Y-78486661D01*
X44011000Y-79323339D01*
X44006535Y-79368674D01*
X43995101Y-79406367D01*
X43976534Y-79441103D01*
X43951548Y-79471548D01*
X43921103Y-79496534D01*
X43886367Y-79515101D01*
X43848674Y-79526535D01*
X43803339Y-79531000D01*
X42716661Y-79531000D01*
X42671326Y-79526535D01*
X42633633Y-79515101D01*
X42598897Y-79496534D01*
X42568452Y-79471548D01*
X42543466Y-79441103D01*
X42524899Y-79406367D01*
X42513465Y-79368674D01*
X42509000Y-79323339D01*
X42509000Y-78486661D01*
X42513465Y-78441326D01*
X42524899Y-78403633D01*
X42543466Y-78368897D01*
X42568452Y-78338452D01*
X42598897Y-78313466D01*
X42633633Y-78294899D01*
X42671326Y-78283465D01*
X42716661Y-78279000D01*
X43803339Y-78279000D01*
X43848674Y-78283465D01*
X43848674Y-78283465D01*
G37*
G36*
X33097703Y-76770075D02*
G01*
X33323619Y-76863652D01*
X33325371Y-76864378D01*
X33530266Y-77001285D01*
X33704515Y-77175534D01*
X33762240Y-77261925D01*
X33841423Y-77380431D01*
X33935725Y-77608097D01*
X33981094Y-77836180D01*
X33983800Y-77849787D01*
X33983800Y-78096213D01*
X33935725Y-78337903D01*
X33841422Y-78565571D01*
X33704515Y-78770466D01*
X33530266Y-78944715D01*
X33325371Y-79081622D01*
X33325370Y-79081623D01*
X33325369Y-79081623D01*
X33097703Y-79175925D01*
X32856014Y-79224000D01*
X32609586Y-79224000D01*
X32367897Y-79175925D01*
X32140231Y-79081623D01*
X32140230Y-79081623D01*
X32140229Y-79081622D01*
X31935334Y-78944715D01*
X31761085Y-78770466D01*
X31624178Y-78565571D01*
X31529875Y-78337903D01*
X31481800Y-78096213D01*
X31481800Y-77849787D01*
X31484507Y-77836180D01*
X31529875Y-77608097D01*
X31624177Y-77380431D01*
X31703360Y-77261925D01*
X31761085Y-77175534D01*
X31935334Y-77001285D01*
X32140229Y-76864378D01*
X32141982Y-76863652D01*
X32367897Y-76770075D01*
X32609586Y-76722000D01*
X32856014Y-76722000D01*
X33097703Y-76770075D01*
X33097703Y-76770075D01*
G37*
G36*
X40486348Y-76343820D02*
G01*
X40486350Y-76343821D01*
X40486351Y-76343821D01*
X40627574Y-76402317D01*
X40627577Y-76402319D01*
X40754669Y-76487239D01*
X40862761Y-76595331D01*
X40947398Y-76722000D01*
X40947683Y-76722426D01*
X41006179Y-76863649D01*
X41006180Y-76863652D01*
X41036000Y-77013569D01*
X41036000Y-77166429D01*
X41006179Y-77316351D01*
X40947683Y-77457574D01*
X40947681Y-77457577D01*
X40862761Y-77584669D01*
X40754669Y-77692761D01*
X40627577Y-77777681D01*
X40627574Y-77777683D01*
X40486351Y-77836179D01*
X40486350Y-77836179D01*
X40486348Y-77836180D01*
X40336431Y-77866000D01*
X40183569Y-77866000D01*
X40033652Y-77836180D01*
X40033650Y-77836179D01*
X40033649Y-77836179D01*
X39892426Y-77777683D01*
X39892423Y-77777681D01*
X39765331Y-77692761D01*
X39657239Y-77584669D01*
X39572319Y-77457577D01*
X39572317Y-77457574D01*
X39513821Y-77316351D01*
X39484000Y-77166429D01*
X39484000Y-77013569D01*
X39513820Y-76863652D01*
X39513821Y-76863649D01*
X39572317Y-76722426D01*
X39572602Y-76722000D01*
X39657239Y-76595331D01*
X39765331Y-76487239D01*
X39892423Y-76402319D01*
X39892426Y-76402317D01*
X40033649Y-76343821D01*
X40033650Y-76343821D01*
X40033652Y-76343820D01*
X40183569Y-76314000D01*
X40336431Y-76314000D01*
X40486348Y-76343820D01*
X40486348Y-76343820D01*
G37*
G36*
X43848674Y-76233465D02*
G01*
X43886367Y-76244899D01*
X43921103Y-76263466D01*
X43951548Y-76288452D01*
X43976534Y-76318897D01*
X43995101Y-76353633D01*
X44006535Y-76391326D01*
X44011000Y-76436661D01*
X44011000Y-77273339D01*
X44006535Y-77318674D01*
X43995101Y-77356367D01*
X43976534Y-77391103D01*
X43951548Y-77421548D01*
X43921103Y-77446534D01*
X43886367Y-77465101D01*
X43848674Y-77476535D01*
X43803339Y-77481000D01*
X42716661Y-77481000D01*
X42671326Y-77476535D01*
X42633633Y-77465101D01*
X42598897Y-77446534D01*
X42568452Y-77421548D01*
X42543466Y-77391103D01*
X42524899Y-77356367D01*
X42513465Y-77318674D01*
X42509000Y-77273339D01*
X42509000Y-76436661D01*
X42513465Y-76391326D01*
X42524899Y-76353633D01*
X42543466Y-76318897D01*
X42568452Y-76288452D01*
X42598897Y-76263466D01*
X42633633Y-76244899D01*
X42671326Y-76233465D01*
X42716661Y-76229000D01*
X43803339Y-76229000D01*
X43848674Y-76233465D01*
X43848674Y-76233465D01*
G37*
G36*
X20961000Y-77451000D02*
G01*
X18859000Y-77451000D01*
X18859000Y-75849000D01*
X20961000Y-75849000D01*
X20961000Y-77451000D01*
X20961000Y-77451000D01*
G37*
G36*
X33983800Y-76303000D02*
G01*
X31481800Y-76303000D01*
X31481800Y-73801000D01*
X33983800Y-73801000D01*
X33983800Y-76303000D01*
X33983800Y-76303000D01*
G37*
G36*
X40486348Y-73803820D02*
G01*
X40486350Y-73803821D01*
X40486351Y-73803821D01*
X40627574Y-73862317D01*
X40627577Y-73862319D01*
X40754669Y-73947239D01*
X40862761Y-74055331D01*
X40947681Y-74182423D01*
X40947683Y-74182426D01*
X41006179Y-74323649D01*
X41036000Y-74473571D01*
X41036000Y-74626429D01*
X41006179Y-74776351D01*
X40947683Y-74917574D01*
X40947681Y-74917577D01*
X40862761Y-75044669D01*
X40754669Y-75152761D01*
X40627577Y-75237681D01*
X40627574Y-75237683D01*
X40486351Y-75296179D01*
X40486350Y-75296179D01*
X40486348Y-75296180D01*
X40336431Y-75326000D01*
X40183569Y-75326000D01*
X40033652Y-75296180D01*
X40033650Y-75296179D01*
X40033649Y-75296179D01*
X39892426Y-75237683D01*
X39892423Y-75237681D01*
X39765331Y-75152761D01*
X39657239Y-75044669D01*
X39572319Y-74917577D01*
X39572317Y-74917574D01*
X39513821Y-74776351D01*
X39484000Y-74626429D01*
X39484000Y-74473571D01*
X39513821Y-74323649D01*
X39572317Y-74182426D01*
X39572319Y-74182423D01*
X39657239Y-74055331D01*
X39765331Y-73947239D01*
X39892423Y-73862319D01*
X39892426Y-73862317D01*
X40033649Y-73803821D01*
X40033650Y-73803821D01*
X40033652Y-73803820D01*
X40183569Y-73774000D01*
X40336431Y-73774000D01*
X40486348Y-73803820D01*
X40486348Y-73803820D01*
G37*
G36*
X30291000Y-72871000D02*
G01*
X28389000Y-72871000D01*
X28389000Y-70969000D01*
X30291000Y-70969000D01*
X30291000Y-72871000D01*
X30291000Y-72871000D01*
G37*
G36*
X34617395Y-71005546D02*
G01*
X34790466Y-71077234D01*
X34790467Y-71077235D01*
X34946227Y-71181310D01*
X35078690Y-71313773D01*
X35078691Y-71313775D01*
X35182766Y-71469534D01*
X35254454Y-71642605D01*
X35291000Y-71826333D01*
X35291000Y-72013667D01*
X35254454Y-72197395D01*
X35182766Y-72370466D01*
X35131081Y-72447818D01*
X35078690Y-72526227D01*
X34946227Y-72658690D01*
X34867818Y-72711081D01*
X34790466Y-72762766D01*
X34617395Y-72834454D01*
X34433667Y-72871000D01*
X34246333Y-72871000D01*
X34062605Y-72834454D01*
X33889534Y-72762766D01*
X33812182Y-72711081D01*
X33733773Y-72658690D01*
X33601310Y-72526227D01*
X33548919Y-72447818D01*
X33497234Y-72370466D01*
X33425546Y-72197395D01*
X33389000Y-72013667D01*
X33389000Y-71826333D01*
X33425546Y-71642605D01*
X33497234Y-71469534D01*
X33601309Y-71313775D01*
X33601310Y-71313773D01*
X33733773Y-71181310D01*
X33889533Y-71077235D01*
X33889534Y-71077234D01*
X34062605Y-71005546D01*
X34246333Y-70969000D01*
X34433667Y-70969000D01*
X34617395Y-71005546D01*
X34617395Y-71005546D01*
G37*
G36*
X32117395Y-71005546D02*
G01*
X32290466Y-71077234D01*
X32290467Y-71077235D01*
X32446227Y-71181310D01*
X32578690Y-71313773D01*
X32578691Y-71313775D01*
X32682766Y-71469534D01*
X32754454Y-71642605D01*
X32791000Y-71826333D01*
X32791000Y-72013667D01*
X32754454Y-72197395D01*
X32682766Y-72370466D01*
X32631081Y-72447818D01*
X32578690Y-72526227D01*
X32446227Y-72658690D01*
X32367818Y-72711081D01*
X32290466Y-72762766D01*
X32117395Y-72834454D01*
X31933667Y-72871000D01*
X31746333Y-72871000D01*
X31562605Y-72834454D01*
X31389534Y-72762766D01*
X31312182Y-72711081D01*
X31233773Y-72658690D01*
X31101310Y-72526227D01*
X31048919Y-72447818D01*
X30997234Y-72370466D01*
X30925546Y-72197395D01*
X30889000Y-72013667D01*
X30889000Y-71826333D01*
X30925546Y-71642605D01*
X30997234Y-71469534D01*
X31101309Y-71313775D01*
X31101310Y-71313773D01*
X31233773Y-71181310D01*
X31389533Y-71077235D01*
X31389534Y-71077234D01*
X31562605Y-71005546D01*
X31746333Y-70969000D01*
X31933667Y-70969000D01*
X32117395Y-71005546D01*
X32117395Y-71005546D01*
G37*
G36*
X40486348Y-71263820D02*
G01*
X40486350Y-71263821D01*
X40486351Y-71263821D01*
X40627574Y-71322317D01*
X40627577Y-71322319D01*
X40754669Y-71407239D01*
X40862761Y-71515331D01*
X40947681Y-71642423D01*
X40947683Y-71642426D01*
X41006179Y-71783649D01*
X41006180Y-71783652D01*
X41014670Y-71826335D01*
X41036000Y-71933571D01*
X41036000Y-72086429D01*
X41006179Y-72236351D01*
X40947683Y-72377574D01*
X40947681Y-72377577D01*
X40862761Y-72504669D01*
X40754669Y-72612761D01*
X40627577Y-72697681D01*
X40627574Y-72697683D01*
X40486351Y-72756179D01*
X40486350Y-72756179D01*
X40486348Y-72756180D01*
X40336431Y-72786000D01*
X40183569Y-72786000D01*
X40033652Y-72756180D01*
X40033650Y-72756179D01*
X40033649Y-72756179D01*
X39892426Y-72697683D01*
X39892423Y-72697681D01*
X39765331Y-72612761D01*
X39657239Y-72504669D01*
X39572319Y-72377577D01*
X39572317Y-72377574D01*
X39513821Y-72236351D01*
X39484000Y-72086429D01*
X39484000Y-71933571D01*
X39505330Y-71826335D01*
X39513820Y-71783652D01*
X39513821Y-71783649D01*
X39572317Y-71642426D01*
X39572319Y-71642423D01*
X39657239Y-71515331D01*
X39765331Y-71407239D01*
X39892423Y-71322319D01*
X39892426Y-71322317D01*
X40033649Y-71263821D01*
X40033650Y-71263821D01*
X40033652Y-71263820D01*
X40183569Y-71234000D01*
X40336431Y-71234000D01*
X40486348Y-71263820D01*
X40486348Y-71263820D01*
G37*
G36*
X29948672Y-69108466D02*
G01*
X29986365Y-69119900D01*
X30021101Y-69138467D01*
X30051546Y-69163453D01*
X30076532Y-69193898D01*
X30095099Y-69228634D01*
X30106533Y-69266327D01*
X30110998Y-69311662D01*
X30110998Y-70148340D01*
X30106533Y-70193675D01*
X30095099Y-70231368D01*
X30076532Y-70266104D01*
X30051546Y-70296549D01*
X30021101Y-70321535D01*
X29986365Y-70340102D01*
X29948672Y-70351536D01*
X29903337Y-70356001D01*
X28816659Y-70356001D01*
X28771324Y-70351536D01*
X28733631Y-70340102D01*
X28698895Y-70321535D01*
X28668450Y-70296549D01*
X28643464Y-70266104D01*
X28624897Y-70231368D01*
X28613463Y-70193675D01*
X28608998Y-70148340D01*
X28608998Y-69311662D01*
X28613463Y-69266327D01*
X28624897Y-69228634D01*
X28643464Y-69193898D01*
X28668450Y-69163453D01*
X28698895Y-69138467D01*
X28733631Y-69119900D01*
X28771324Y-69108466D01*
X28816659Y-69104001D01*
X29903337Y-69104001D01*
X29948672Y-69108466D01*
X29948672Y-69108466D01*
G37*
G36*
X40486348Y-68723820D02*
G01*
X40486350Y-68723821D01*
X40486351Y-68723821D01*
X40627574Y-68782317D01*
X40627577Y-68782319D01*
X40754669Y-68867239D01*
X40862761Y-68975331D01*
X40947681Y-69102423D01*
X40947683Y-69102426D01*
X41006179Y-69243649D01*
X41006180Y-69243652D01*
X41021978Y-69323076D01*
X41036000Y-69393571D01*
X41036000Y-69546429D01*
X41006179Y-69696351D01*
X40947683Y-69837574D01*
X40947681Y-69837577D01*
X40862761Y-69964669D01*
X40754669Y-70072761D01*
X40690301Y-70115770D01*
X40627574Y-70157683D01*
X40486351Y-70216179D01*
X40486350Y-70216179D01*
X40486348Y-70216180D01*
X40336431Y-70246000D01*
X40183569Y-70246000D01*
X40033652Y-70216180D01*
X40033650Y-70216179D01*
X40033649Y-70216179D01*
X39892426Y-70157683D01*
X39829699Y-70115770D01*
X39765331Y-70072761D01*
X39657239Y-69964669D01*
X39572319Y-69837577D01*
X39572317Y-69837574D01*
X39513821Y-69696351D01*
X39484000Y-69546429D01*
X39484000Y-69393571D01*
X39498022Y-69323076D01*
X39513820Y-69243652D01*
X39513821Y-69243649D01*
X39572317Y-69102426D01*
X39572319Y-69102423D01*
X39657239Y-68975331D01*
X39765331Y-68867239D01*
X39892423Y-68782319D01*
X39892426Y-68782317D01*
X40033649Y-68723821D01*
X40033650Y-68723821D01*
X40033652Y-68723820D01*
X40183569Y-68694000D01*
X40336431Y-68694000D01*
X40486348Y-68723820D01*
X40486348Y-68723820D01*
G37*
G36*
X32218674Y-68623465D02*
G01*
X32256367Y-68634899D01*
X32291103Y-68653466D01*
X32321548Y-68678452D01*
X32346534Y-68708897D01*
X32365101Y-68743633D01*
X32376535Y-68781326D01*
X32381000Y-68826661D01*
X32381000Y-69913339D01*
X32376535Y-69958674D01*
X32365101Y-69996367D01*
X32346534Y-70031103D01*
X32321548Y-70061548D01*
X32291103Y-70086534D01*
X32256367Y-70105101D01*
X32218674Y-70116535D01*
X32173339Y-70121000D01*
X31336661Y-70121000D01*
X31291326Y-70116535D01*
X31253633Y-70105101D01*
X31218897Y-70086534D01*
X31188452Y-70061548D01*
X31163466Y-70031103D01*
X31144899Y-69996367D01*
X31133465Y-69958674D01*
X31129000Y-69913339D01*
X31129000Y-68826661D01*
X31133465Y-68781326D01*
X31144899Y-68743633D01*
X31163466Y-68708897D01*
X31188452Y-68678452D01*
X31218897Y-68653466D01*
X31253633Y-68634899D01*
X31291326Y-68623465D01*
X31336661Y-68619000D01*
X32173339Y-68619000D01*
X32218674Y-68623465D01*
X32218674Y-68623465D01*
G37*
G36*
X34268674Y-68623465D02*
G01*
X34306367Y-68634899D01*
X34341103Y-68653466D01*
X34371548Y-68678452D01*
X34396534Y-68708897D01*
X34415101Y-68743633D01*
X34426535Y-68781326D01*
X34431000Y-68826661D01*
X34431000Y-69913339D01*
X34426535Y-69958674D01*
X34415101Y-69996367D01*
X34396534Y-70031103D01*
X34371548Y-70061548D01*
X34341103Y-70086534D01*
X34306367Y-70105101D01*
X34268674Y-70116535D01*
X34223339Y-70121000D01*
X33386661Y-70121000D01*
X33341326Y-70116535D01*
X33303633Y-70105101D01*
X33268897Y-70086534D01*
X33238452Y-70061548D01*
X33213466Y-70031103D01*
X33194899Y-69996367D01*
X33183465Y-69958674D01*
X33179000Y-69913339D01*
X33179000Y-68826661D01*
X33183465Y-68781326D01*
X33194899Y-68743633D01*
X33213466Y-68708897D01*
X33238452Y-68678452D01*
X33268897Y-68653466D01*
X33303633Y-68634899D01*
X33341326Y-68623465D01*
X33386661Y-68619000D01*
X34223339Y-68619000D01*
X34268674Y-68623465D01*
X34268674Y-68623465D01*
G37*
G36*
X29948672Y-67058466D02*
G01*
X29986365Y-67069900D01*
X30021101Y-67088467D01*
X30051546Y-67113453D01*
X30076532Y-67143898D01*
X30095099Y-67178634D01*
X30106533Y-67216327D01*
X30110998Y-67261662D01*
X30110998Y-68098340D01*
X30106533Y-68143675D01*
X30095099Y-68181368D01*
X30076532Y-68216104D01*
X30051546Y-68246549D01*
X30021101Y-68271535D01*
X29986365Y-68290102D01*
X29948672Y-68301536D01*
X29903337Y-68306001D01*
X28816659Y-68306001D01*
X28771324Y-68301536D01*
X28733631Y-68290102D01*
X28698895Y-68271535D01*
X28668450Y-68246549D01*
X28643464Y-68216104D01*
X28624897Y-68181368D01*
X28613463Y-68143675D01*
X28608998Y-68098340D01*
X28608998Y-67261662D01*
X28613463Y-67216327D01*
X28624897Y-67178634D01*
X28643464Y-67143898D01*
X28668450Y-67113453D01*
X28698895Y-67088467D01*
X28733631Y-67069900D01*
X28771324Y-67058466D01*
X28816659Y-67054001D01*
X29903337Y-67054001D01*
X29948672Y-67058466D01*
X29948672Y-67058466D01*
G37*
G36*
X27316604Y-62769416D02*
G01*
X27582579Y-62850099D01*
X27582581Y-62850100D01*
X27827701Y-62981119D01*
X28042556Y-63157444D01*
X28218881Y-63372299D01*
X28349900Y-63617418D01*
X28349900Y-63617419D01*
X28349901Y-63617421D01*
X28430584Y-63883397D01*
X28451000Y-64090685D01*
X28451000Y-64749316D01*
X28430584Y-64956604D01*
X28349901Y-65222578D01*
X28349900Y-65222581D01*
X28218881Y-65467701D01*
X28042556Y-65682556D01*
X27827700Y-65858881D01*
X27582580Y-65989900D01*
X27582578Y-65989901D01*
X27316603Y-66070584D01*
X27040000Y-66097827D01*
X26763396Y-66070584D01*
X26497421Y-65989901D01*
X26497419Y-65989900D01*
X26252299Y-65858881D01*
X26037444Y-65682556D01*
X25861119Y-65467700D01*
X25730100Y-65222580D01*
X25730099Y-65222578D01*
X25649416Y-64956603D01*
X25629000Y-64749315D01*
X25629000Y-64090684D01*
X25649416Y-63883396D01*
X25730099Y-63617421D01*
X25861120Y-63372298D01*
X26037444Y-63157444D01*
X26252300Y-62981119D01*
X26497420Y-62850100D01*
X26497422Y-62850099D01*
X26763397Y-62769416D01*
X27040000Y-62742173D01*
X27316604Y-62769416D01*
X27316604Y-62769416D01*
G37*
G36*
X36916604Y-62769416D02*
G01*
X37182579Y-62850099D01*
X37182581Y-62850100D01*
X37427701Y-62981119D01*
X37642556Y-63157444D01*
X37818881Y-63372299D01*
X37949900Y-63617418D01*
X37949900Y-63617419D01*
X37949901Y-63617421D01*
X38030584Y-63883397D01*
X38051000Y-64090685D01*
X38051000Y-64749316D01*
X38030584Y-64956604D01*
X37949901Y-65222578D01*
X37949900Y-65222581D01*
X37818881Y-65467701D01*
X37642556Y-65682556D01*
X37427700Y-65858881D01*
X37182580Y-65989900D01*
X37182578Y-65989901D01*
X36916603Y-66070584D01*
X36640000Y-66097827D01*
X36363396Y-66070584D01*
X36097421Y-65989901D01*
X36097419Y-65989900D01*
X35852299Y-65858881D01*
X35637444Y-65682556D01*
X35461119Y-65467700D01*
X35330100Y-65222580D01*
X35330099Y-65222578D01*
X35249416Y-64956603D01*
X35229000Y-64749315D01*
X35229000Y-64090684D01*
X35249416Y-63883396D01*
X35330099Y-63617421D01*
X35461120Y-63372298D01*
X35637444Y-63157444D01*
X35852300Y-62981119D01*
X36097420Y-62850100D01*
X36097422Y-62850099D01*
X36363397Y-62769416D01*
X36640000Y-62742173D01*
X36916604Y-62769416D01*
X36916604Y-62769416D01*
G37*
G36*
X13405495Y-62687446D02*
G01*
X13578566Y-62759134D01*
X13578567Y-62759135D01*
X13734327Y-62863210D01*
X13866790Y-62995673D01*
X13866791Y-62995675D01*
X13970866Y-63151434D01*
X14042554Y-63324505D01*
X14079100Y-63508233D01*
X14079100Y-63695567D01*
X14042554Y-63879295D01*
X13970866Y-64052366D01*
X13970865Y-64052367D01*
X13866790Y-64208127D01*
X13734327Y-64340590D01*
X13655918Y-64392981D01*
X13578566Y-64444666D01*
X13405495Y-64516354D01*
X13221767Y-64552900D01*
X13034433Y-64552900D01*
X12850705Y-64516354D01*
X12677634Y-64444666D01*
X12600282Y-64392981D01*
X12521873Y-64340590D01*
X12389410Y-64208127D01*
X12285335Y-64052367D01*
X12285334Y-64052366D01*
X12213646Y-63879295D01*
X12177100Y-63695567D01*
X12177100Y-63508233D01*
X12213646Y-63324505D01*
X12285334Y-63151434D01*
X12389409Y-62995675D01*
X12389410Y-62995673D01*
X12521873Y-62863210D01*
X12677633Y-62759135D01*
X12677634Y-62759134D01*
X12850705Y-62687446D01*
X13034433Y-62650900D01*
X13221767Y-62650900D01*
X13405495Y-62687446D01*
X13405495Y-62687446D01*
G37*
G36*
X23271000Y-62531000D02*
G01*
X21469000Y-62531000D01*
X21469000Y-60729000D01*
X23271000Y-60729000D01*
X23271000Y-62531000D01*
X23271000Y-62531000D01*
G37*
G36*
X19940442Y-60735518D02*
G01*
X20006627Y-60742037D01*
X20176466Y-60793557D01*
X20332991Y-60877222D01*
X20368729Y-60906552D01*
X20470186Y-60989814D01*
X20553448Y-61091271D01*
X20582778Y-61127009D01*
X20666443Y-61283534D01*
X20717963Y-61453373D01*
X20735359Y-61630000D01*
X20717963Y-61806627D01*
X20666443Y-61976466D01*
X20582778Y-62132991D01*
X20553448Y-62168729D01*
X20470186Y-62270186D01*
X20368729Y-62353448D01*
X20332991Y-62382778D01*
X20176466Y-62466443D01*
X20006627Y-62517963D01*
X19940443Y-62524481D01*
X19874260Y-62531000D01*
X19785740Y-62531000D01*
X19719557Y-62524481D01*
X19653373Y-62517963D01*
X19483534Y-62466443D01*
X19327009Y-62382778D01*
X19291271Y-62353448D01*
X19189814Y-62270186D01*
X19106552Y-62168729D01*
X19077222Y-62132991D01*
X18993557Y-61976466D01*
X18942037Y-61806627D01*
X18924641Y-61630000D01*
X18942037Y-61453373D01*
X18993557Y-61283534D01*
X19077222Y-61127009D01*
X19106552Y-61091271D01*
X19189814Y-60989814D01*
X19291271Y-60906552D01*
X19327009Y-60877222D01*
X19483534Y-60793557D01*
X19653373Y-60742037D01*
X19719558Y-60735518D01*
X19785740Y-60729000D01*
X19874260Y-60729000D01*
X19940442Y-60735518D01*
X19940442Y-60735518D01*
G37*
G36*
X13405495Y-60187446D02*
G01*
X13578566Y-60259134D01*
X13578567Y-60259135D01*
X13734327Y-60363210D01*
X13866790Y-60495673D01*
X13866791Y-60495675D01*
X13970866Y-60651434D01*
X14042554Y-60824505D01*
X14079100Y-61008233D01*
X14079100Y-61195567D01*
X14042554Y-61379295D01*
X13970866Y-61552366D01*
X13970865Y-61552367D01*
X13866790Y-61708127D01*
X13734327Y-61840590D01*
X13655918Y-61892981D01*
X13578566Y-61944666D01*
X13405495Y-62016354D01*
X13221767Y-62052900D01*
X13034433Y-62052900D01*
X12850705Y-62016354D01*
X12677634Y-61944666D01*
X12600282Y-61892981D01*
X12521873Y-61840590D01*
X12389410Y-61708127D01*
X12285335Y-61552367D01*
X12285334Y-61552366D01*
X12213646Y-61379295D01*
X12177100Y-61195567D01*
X12177100Y-61008233D01*
X12213646Y-60824505D01*
X12285334Y-60651434D01*
X12389409Y-60495675D01*
X12389410Y-60495673D01*
X12521873Y-60363210D01*
X12677633Y-60259135D01*
X12677634Y-60259134D01*
X12850705Y-60187446D01*
X13034433Y-60150900D01*
X13221767Y-60150900D01*
X13405495Y-60187446D01*
X13405495Y-60187446D01*
G37*
G36*
X19940442Y-58195518D02*
G01*
X20006627Y-58202037D01*
X20176466Y-58253557D01*
X20332991Y-58337222D01*
X20368729Y-58366552D01*
X20470186Y-58449814D01*
X20553448Y-58551271D01*
X20582778Y-58587009D01*
X20666443Y-58743534D01*
X20717963Y-58913373D01*
X20735359Y-59090000D01*
X20717963Y-59266627D01*
X20666443Y-59436466D01*
X20582778Y-59592991D01*
X20553448Y-59628729D01*
X20470186Y-59730186D01*
X20368729Y-59813448D01*
X20332991Y-59842778D01*
X20176466Y-59926443D01*
X20006627Y-59977963D01*
X19940442Y-59984482D01*
X19874260Y-59991000D01*
X19785740Y-59991000D01*
X19719558Y-59984482D01*
X19653373Y-59977963D01*
X19483534Y-59926443D01*
X19327009Y-59842778D01*
X19291271Y-59813448D01*
X19189814Y-59730186D01*
X19106552Y-59628729D01*
X19077222Y-59592991D01*
X18993557Y-59436466D01*
X18942037Y-59266627D01*
X18924641Y-59090000D01*
X18942037Y-58913373D01*
X18993557Y-58743534D01*
X19077222Y-58587009D01*
X19106552Y-58551271D01*
X19189814Y-58449814D01*
X19291271Y-58366552D01*
X19327009Y-58337222D01*
X19483534Y-58253557D01*
X19653373Y-58202037D01*
X19719558Y-58195518D01*
X19785740Y-58189000D01*
X19874260Y-58189000D01*
X19940442Y-58195518D01*
X19940442Y-58195518D01*
G37*
G36*
X22480442Y-58195518D02*
G01*
X22546627Y-58202037D01*
X22716466Y-58253557D01*
X22872991Y-58337222D01*
X22908729Y-58366552D01*
X23010186Y-58449814D01*
X23093448Y-58551271D01*
X23122778Y-58587009D01*
X23206443Y-58743534D01*
X23257963Y-58913373D01*
X23275359Y-59090000D01*
X23257963Y-59266627D01*
X23206443Y-59436466D01*
X23122778Y-59592991D01*
X23093448Y-59628729D01*
X23010186Y-59730186D01*
X22908729Y-59813448D01*
X22872991Y-59842778D01*
X22716466Y-59926443D01*
X22546627Y-59977963D01*
X22480442Y-59984482D01*
X22414260Y-59991000D01*
X22325740Y-59991000D01*
X22259558Y-59984482D01*
X22193373Y-59977963D01*
X22023534Y-59926443D01*
X21867009Y-59842778D01*
X21831271Y-59813448D01*
X21729814Y-59730186D01*
X21646552Y-59628729D01*
X21617222Y-59592991D01*
X21533557Y-59436466D01*
X21482037Y-59266627D01*
X21464641Y-59090000D01*
X21482037Y-58913373D01*
X21533557Y-58743534D01*
X21617222Y-58587009D01*
X21646552Y-58551271D01*
X21729814Y-58449814D01*
X21831271Y-58366552D01*
X21867009Y-58337222D01*
X22023534Y-58253557D01*
X22193373Y-58202037D01*
X22259558Y-58195518D01*
X22325740Y-58189000D01*
X22414260Y-58189000D01*
X22480442Y-58195518D01*
X22480442Y-58195518D01*
G37*
G36*
X13405495Y-57687446D02*
G01*
X13578566Y-57759134D01*
X13578567Y-57759135D01*
X13734327Y-57863210D01*
X13866790Y-57995673D01*
X13866791Y-57995675D01*
X13970866Y-58151434D01*
X14042554Y-58324505D01*
X14079100Y-58508233D01*
X14079100Y-58695567D01*
X14042554Y-58879295D01*
X13970866Y-59052366D01*
X13970865Y-59052367D01*
X13866790Y-59208127D01*
X13734327Y-59340590D01*
X13655918Y-59392981D01*
X13578566Y-59444666D01*
X13405495Y-59516354D01*
X13221767Y-59552900D01*
X13034433Y-59552900D01*
X12850705Y-59516354D01*
X12677634Y-59444666D01*
X12600282Y-59392981D01*
X12521873Y-59340590D01*
X12389410Y-59208127D01*
X12285335Y-59052367D01*
X12285334Y-59052366D01*
X12213646Y-58879295D01*
X12177100Y-58695567D01*
X12177100Y-58508233D01*
X12213646Y-58324505D01*
X12285334Y-58151434D01*
X12389409Y-57995675D01*
X12389410Y-57995673D01*
X12521873Y-57863210D01*
X12677633Y-57759135D01*
X12677634Y-57759134D01*
X12850705Y-57687446D01*
X13034433Y-57650900D01*
X13221767Y-57650900D01*
X13405495Y-57687446D01*
X13405495Y-57687446D01*
G37*
G36*
X19940443Y-55655519D02*
G01*
X20006627Y-55662037D01*
X20176466Y-55713557D01*
X20332991Y-55797222D01*
X20368729Y-55826552D01*
X20470186Y-55909814D01*
X20553448Y-56011271D01*
X20582778Y-56047009D01*
X20666443Y-56203534D01*
X20717963Y-56373373D01*
X20735359Y-56550000D01*
X20717963Y-56726627D01*
X20666443Y-56896466D01*
X20582778Y-57052991D01*
X20553448Y-57088729D01*
X20470186Y-57190186D01*
X20368729Y-57273448D01*
X20332991Y-57302778D01*
X20176466Y-57386443D01*
X20006627Y-57437963D01*
X19940443Y-57444481D01*
X19874260Y-57451000D01*
X19785740Y-57451000D01*
X19719557Y-57444481D01*
X19653373Y-57437963D01*
X19483534Y-57386443D01*
X19327009Y-57302778D01*
X19291271Y-57273448D01*
X19189814Y-57190186D01*
X19106552Y-57088729D01*
X19077222Y-57052991D01*
X18993557Y-56896466D01*
X18942037Y-56726627D01*
X18924641Y-56550000D01*
X18942037Y-56373373D01*
X18993557Y-56203534D01*
X19077222Y-56047009D01*
X19106552Y-56011271D01*
X19189814Y-55909814D01*
X19291271Y-55826552D01*
X19327009Y-55797222D01*
X19483534Y-55713557D01*
X19653373Y-55662037D01*
X19719557Y-55655519D01*
X19785740Y-55649000D01*
X19874260Y-55649000D01*
X19940443Y-55655519D01*
X19940443Y-55655519D01*
G37*
G36*
X22480443Y-55655519D02*
G01*
X22546627Y-55662037D01*
X22716466Y-55713557D01*
X22872991Y-55797222D01*
X22908729Y-55826552D01*
X23010186Y-55909814D01*
X23093448Y-56011271D01*
X23122778Y-56047009D01*
X23206443Y-56203534D01*
X23257963Y-56373373D01*
X23275359Y-56550000D01*
X23257963Y-56726627D01*
X23206443Y-56896466D01*
X23122778Y-57052991D01*
X23093448Y-57088729D01*
X23010186Y-57190186D01*
X22908729Y-57273448D01*
X22872991Y-57302778D01*
X22716466Y-57386443D01*
X22546627Y-57437963D01*
X22480443Y-57444481D01*
X22414260Y-57451000D01*
X22325740Y-57451000D01*
X22259557Y-57444481D01*
X22193373Y-57437963D01*
X22023534Y-57386443D01*
X21867009Y-57302778D01*
X21831271Y-57273448D01*
X21729814Y-57190186D01*
X21646552Y-57088729D01*
X21617222Y-57052991D01*
X21533557Y-56896466D01*
X21482037Y-56726627D01*
X21464641Y-56550000D01*
X21482037Y-56373373D01*
X21533557Y-56203534D01*
X21617222Y-56047009D01*
X21646552Y-56011271D01*
X21729814Y-55909814D01*
X21831271Y-55826552D01*
X21867009Y-55797222D01*
X22023534Y-55713557D01*
X22193373Y-55662037D01*
X22259557Y-55655519D01*
X22325740Y-55649000D01*
X22414260Y-55649000D01*
X22480443Y-55655519D01*
X22480443Y-55655519D01*
G37*
G36*
X39458674Y-55043465D02*
G01*
X39496367Y-55054899D01*
X39531103Y-55073466D01*
X39561548Y-55098452D01*
X39586534Y-55128897D01*
X39605101Y-55163633D01*
X39616535Y-55201326D01*
X39621000Y-55246661D01*
X39621000Y-56083339D01*
X39616535Y-56128674D01*
X39605101Y-56166367D01*
X39586534Y-56201103D01*
X39561548Y-56231548D01*
X39531103Y-56256534D01*
X39496367Y-56275101D01*
X39458674Y-56286535D01*
X39413339Y-56291000D01*
X38326661Y-56291000D01*
X38281326Y-56286535D01*
X38243633Y-56275101D01*
X38208897Y-56256534D01*
X38178452Y-56231548D01*
X38153466Y-56201103D01*
X38134899Y-56166367D01*
X38123465Y-56128674D01*
X38119000Y-56083339D01*
X38119000Y-55246661D01*
X38123465Y-55201326D01*
X38134899Y-55163633D01*
X38153466Y-55128897D01*
X38178452Y-55098452D01*
X38208897Y-55073466D01*
X38243633Y-55054899D01*
X38281326Y-55043465D01*
X38326661Y-55039000D01*
X39413339Y-55039000D01*
X39458674Y-55043465D01*
X39458674Y-55043465D01*
G37*
G36*
X22480443Y-53115519D02*
G01*
X22546627Y-53122037D01*
X22716466Y-53173557D01*
X22872991Y-53257222D01*
X22908729Y-53286552D01*
X23010186Y-53369814D01*
X23093448Y-53471271D01*
X23122778Y-53507009D01*
X23206443Y-53663534D01*
X23257963Y-53833373D01*
X23275359Y-54010000D01*
X23257963Y-54186627D01*
X23206443Y-54356466D01*
X23122778Y-54512991D01*
X23093448Y-54548729D01*
X23010186Y-54650186D01*
X22908729Y-54733448D01*
X22872991Y-54762778D01*
X22716466Y-54846443D01*
X22546627Y-54897963D01*
X22480442Y-54904482D01*
X22414260Y-54911000D01*
X22325740Y-54911000D01*
X22259558Y-54904482D01*
X22193373Y-54897963D01*
X22023534Y-54846443D01*
X21867009Y-54762778D01*
X21831271Y-54733448D01*
X21729814Y-54650186D01*
X21646552Y-54548729D01*
X21617222Y-54512991D01*
X21533557Y-54356466D01*
X21482037Y-54186627D01*
X21464641Y-54010000D01*
X21482037Y-53833373D01*
X21533557Y-53663534D01*
X21617222Y-53507009D01*
X21646552Y-53471271D01*
X21729814Y-53369814D01*
X21831271Y-53286552D01*
X21867009Y-53257222D01*
X22023534Y-53173557D01*
X22193373Y-53122037D01*
X22259557Y-53115519D01*
X22325740Y-53109000D01*
X22414260Y-53109000D01*
X22480443Y-53115519D01*
X22480443Y-53115519D01*
G37*
G36*
X19940443Y-53115519D02*
G01*
X20006627Y-53122037D01*
X20176466Y-53173557D01*
X20332991Y-53257222D01*
X20368729Y-53286552D01*
X20470186Y-53369814D01*
X20553448Y-53471271D01*
X20582778Y-53507009D01*
X20666443Y-53663534D01*
X20717963Y-53833373D01*
X20735359Y-54010000D01*
X20717963Y-54186627D01*
X20666443Y-54356466D01*
X20582778Y-54512991D01*
X20553448Y-54548729D01*
X20470186Y-54650186D01*
X20368729Y-54733448D01*
X20332991Y-54762778D01*
X20176466Y-54846443D01*
X20006627Y-54897963D01*
X19940442Y-54904482D01*
X19874260Y-54911000D01*
X19785740Y-54911000D01*
X19719558Y-54904482D01*
X19653373Y-54897963D01*
X19483534Y-54846443D01*
X19327009Y-54762778D01*
X19291271Y-54733448D01*
X19189814Y-54650186D01*
X19106552Y-54548729D01*
X19077222Y-54512991D01*
X18993557Y-54356466D01*
X18942037Y-54186627D01*
X18924641Y-54010000D01*
X18942037Y-53833373D01*
X18993557Y-53663534D01*
X19077222Y-53507009D01*
X19106552Y-53471271D01*
X19189814Y-53369814D01*
X19291271Y-53286552D01*
X19327009Y-53257222D01*
X19483534Y-53173557D01*
X19653373Y-53122037D01*
X19719557Y-53115519D01*
X19785740Y-53109000D01*
X19874260Y-53109000D01*
X19940443Y-53115519D01*
X19940443Y-53115519D01*
G37*
G36*
X50150442Y-52455518D02*
G01*
X50216627Y-52462037D01*
X50386466Y-52513557D01*
X50542991Y-52597222D01*
X50578729Y-52626552D01*
X50680186Y-52709814D01*
X50763448Y-52811271D01*
X50792778Y-52847009D01*
X50876443Y-53003534D01*
X50927963Y-53173373D01*
X50945359Y-53350000D01*
X50927963Y-53526627D01*
X50876443Y-53696466D01*
X50792778Y-53852991D01*
X50763448Y-53888729D01*
X50680186Y-53990186D01*
X50579296Y-54072983D01*
X50542991Y-54102778D01*
X50386466Y-54186443D01*
X50216627Y-54237963D01*
X50150443Y-54244481D01*
X50084260Y-54251000D01*
X49995740Y-54251000D01*
X49929557Y-54244481D01*
X49863373Y-54237963D01*
X49693534Y-54186443D01*
X49537009Y-54102778D01*
X49500704Y-54072983D01*
X49399814Y-53990186D01*
X49316552Y-53888729D01*
X49287222Y-53852991D01*
X49203557Y-53696466D01*
X49152037Y-53526627D01*
X49134641Y-53350000D01*
X49152037Y-53173373D01*
X49203557Y-53003534D01*
X49287222Y-52847009D01*
X49316552Y-52811271D01*
X49399814Y-52709814D01*
X49501271Y-52626552D01*
X49537009Y-52597222D01*
X49693534Y-52513557D01*
X49863373Y-52462037D01*
X49929558Y-52455518D01*
X49995740Y-52449000D01*
X50084260Y-52449000D01*
X50150442Y-52455518D01*
X50150442Y-52455518D01*
G37*
G36*
X39458674Y-52993465D02*
G01*
X39496367Y-53004899D01*
X39531103Y-53023466D01*
X39561548Y-53048452D01*
X39586534Y-53078897D01*
X39605101Y-53113633D01*
X39616535Y-53151326D01*
X39621000Y-53196661D01*
X39621000Y-54033339D01*
X39616535Y-54078674D01*
X39605101Y-54116367D01*
X39586534Y-54151103D01*
X39561548Y-54181548D01*
X39531103Y-54206534D01*
X39496367Y-54225101D01*
X39458674Y-54236535D01*
X39413339Y-54241000D01*
X38326661Y-54241000D01*
X38281326Y-54236535D01*
X38243633Y-54225101D01*
X38208897Y-54206534D01*
X38178452Y-54181548D01*
X38153466Y-54151103D01*
X38134899Y-54116367D01*
X38123465Y-54078674D01*
X38119000Y-54033339D01*
X38119000Y-53196661D01*
X38123465Y-53151326D01*
X38134899Y-53113633D01*
X38153466Y-53078897D01*
X38178452Y-53048452D01*
X38208897Y-53023466D01*
X38243633Y-53004899D01*
X38281326Y-52993465D01*
X38326661Y-52989000D01*
X39413339Y-52989000D01*
X39458674Y-52993465D01*
X39458674Y-52993465D01*
G37*
G36*
X29469999Y-51789737D02*
G01*
X29479608Y-51792652D01*
X29488472Y-51797390D01*
X29496237Y-51803763D01*
X29506448Y-51816206D01*
X29513378Y-51826575D01*
X29530705Y-51843902D01*
X29551080Y-51857515D01*
X29573720Y-51866891D01*
X29597753Y-51871671D01*
X29622257Y-51871670D01*
X29646290Y-51866888D01*
X29668929Y-51857510D01*
X29689302Y-51843895D01*
X29706629Y-51826568D01*
X29713558Y-51816198D01*
X29723763Y-51803763D01*
X29731528Y-51797390D01*
X29740392Y-51792652D01*
X29750001Y-51789737D01*
X29766140Y-51788148D01*
X30253861Y-51788148D01*
X30272199Y-51789954D01*
X30284450Y-51790556D01*
X30302869Y-51790556D01*
X30325149Y-51792750D01*
X30409233Y-51809476D01*
X30430660Y-51815976D01*
X30509858Y-51848780D01*
X30515303Y-51851691D01*
X30515309Y-51851693D01*
X30524169Y-51856429D01*
X30524173Y-51856432D01*
X30529614Y-51859340D01*
X30600899Y-51906971D01*
X30618204Y-51921172D01*
X30678828Y-51981796D01*
X30693029Y-51999101D01*
X30740660Y-52070386D01*
X30743568Y-52075827D01*
X30743571Y-52075831D01*
X30748307Y-52084691D01*
X30748309Y-52084697D01*
X30751220Y-52090142D01*
X30784024Y-52169340D01*
X30790524Y-52190767D01*
X30807250Y-52274851D01*
X30809444Y-52297131D01*
X30809444Y-52315550D01*
X30810046Y-52327801D01*
X30811852Y-52346139D01*
X30811852Y-52833862D01*
X30810046Y-52852199D01*
X30809444Y-52864450D01*
X30809444Y-52882869D01*
X30807250Y-52905149D01*
X30790524Y-52989233D01*
X30784024Y-53010660D01*
X30751220Y-53089858D01*
X30748309Y-53095303D01*
X30748307Y-53095309D01*
X30743571Y-53104169D01*
X30743568Y-53104173D01*
X30740660Y-53109614D01*
X30693029Y-53180899D01*
X30678828Y-53198204D01*
X30618204Y-53258828D01*
X30600899Y-53273029D01*
X30529614Y-53320660D01*
X30524173Y-53323568D01*
X30524169Y-53323571D01*
X30515309Y-53328307D01*
X30515303Y-53328309D01*
X30509858Y-53331220D01*
X30430660Y-53364024D01*
X30409233Y-53370524D01*
X30325149Y-53387250D01*
X30302869Y-53389444D01*
X30284450Y-53389444D01*
X30272199Y-53390046D01*
X30253862Y-53391852D01*
X29766140Y-53391852D01*
X29750001Y-53390263D01*
X29740392Y-53387348D01*
X29731528Y-53382610D01*
X29723763Y-53376237D01*
X29713552Y-53363794D01*
X29706622Y-53353425D01*
X29689295Y-53336098D01*
X29668920Y-53322485D01*
X29646280Y-53313109D01*
X29622247Y-53308329D01*
X29597743Y-53308330D01*
X29573710Y-53313112D01*
X29551071Y-53322490D01*
X29530698Y-53336105D01*
X29513371Y-53353432D01*
X29506442Y-53363802D01*
X29496237Y-53376237D01*
X29488472Y-53382610D01*
X29479608Y-53387348D01*
X29469999Y-53390263D01*
X29453860Y-53391852D01*
X28966138Y-53391852D01*
X28947801Y-53390046D01*
X28935550Y-53389444D01*
X28917131Y-53389444D01*
X28894851Y-53387250D01*
X28810767Y-53370524D01*
X28789340Y-53364024D01*
X28710142Y-53331220D01*
X28704697Y-53328309D01*
X28704691Y-53328307D01*
X28695831Y-53323571D01*
X28695827Y-53323568D01*
X28690386Y-53320660D01*
X28619101Y-53273029D01*
X28601796Y-53258828D01*
X28541172Y-53198204D01*
X28526971Y-53180899D01*
X28479340Y-53109614D01*
X28476432Y-53104173D01*
X28476429Y-53104169D01*
X28471693Y-53095309D01*
X28471691Y-53095303D01*
X28468780Y-53089858D01*
X28435976Y-53010660D01*
X28429476Y-52989233D01*
X28412750Y-52905149D01*
X28410556Y-52882869D01*
X28410556Y-52864450D01*
X28409954Y-52852199D01*
X28408148Y-52833862D01*
X28408148Y-52346139D01*
X28409954Y-52327801D01*
X28410556Y-52315550D01*
X28410556Y-52297131D01*
X28412750Y-52274851D01*
X28429476Y-52190767D01*
X28435976Y-52169340D01*
X28468780Y-52090142D01*
X28471691Y-52084697D01*
X28471693Y-52084691D01*
X28476429Y-52075831D01*
X28476432Y-52075827D01*
X28479340Y-52070386D01*
X28526971Y-51999101D01*
X28541172Y-51981796D01*
X28601796Y-51921172D01*
X28619101Y-51906971D01*
X28690386Y-51859340D01*
X28695827Y-51856432D01*
X28695831Y-51856429D01*
X28704691Y-51851693D01*
X28704697Y-51851691D01*
X28710142Y-51848780D01*
X28789340Y-51815976D01*
X28810767Y-51809476D01*
X28894851Y-51792750D01*
X28917131Y-51790556D01*
X28935550Y-51790556D01*
X28947801Y-51789954D01*
X28966139Y-51788148D01*
X29453860Y-51788148D01*
X29469999Y-51789737D01*
X29469999Y-51789737D01*
G37*
G36*
X40538264Y-50960978D02*
G01*
X40582388Y-50972287D01*
X40643009Y-50994351D01*
X40643016Y-50994353D01*
X41542916Y-51321890D01*
X41542924Y-51321894D01*
X41603542Y-51343957D01*
X41644612Y-51363655D01*
X41676118Y-51387290D01*
X41702413Y-51416622D01*
X41722475Y-51450511D01*
X41735542Y-51487669D01*
X41741108Y-51526656D01*
X41738961Y-51565986D01*
X41727652Y-51610110D01*
X41705588Y-51670730D01*
X41705586Y-51670738D01*
X41463554Y-52335715D01*
X41463550Y-52335723D01*
X41441487Y-52396341D01*
X41421789Y-52437411D01*
X41398154Y-52468917D01*
X41368822Y-52495212D01*
X41334933Y-52515274D01*
X41297775Y-52528341D01*
X41258788Y-52533907D01*
X41219458Y-52531760D01*
X41175334Y-52520451D01*
X41114713Y-52498387D01*
X41114706Y-52498385D01*
X40214806Y-52170848D01*
X40214798Y-52170844D01*
X40154180Y-52148781D01*
X40113110Y-52129083D01*
X40081604Y-52105448D01*
X40055309Y-52076116D01*
X40035247Y-52042227D01*
X40022180Y-52005069D01*
X40016614Y-51966082D01*
X40018761Y-51926752D01*
X40030070Y-51882628D01*
X40052134Y-51822008D01*
X40052136Y-51822000D01*
X40294168Y-51157023D01*
X40294172Y-51157015D01*
X40316235Y-51096397D01*
X40335933Y-51055327D01*
X40359568Y-51023821D01*
X40388900Y-50997526D01*
X40422789Y-50977464D01*
X40459947Y-50964397D01*
X40498934Y-50958831D01*
X40538264Y-50960978D01*
X40538264Y-50960978D01*
G37*
G36*
X37035515Y-50713890D02*
G01*
X37072673Y-50726957D01*
X37106562Y-50747019D01*
X37135894Y-50773314D01*
X37159529Y-50804820D01*
X37179227Y-50845890D01*
X37201290Y-50906508D01*
X37201294Y-50906516D01*
X37528831Y-51806416D01*
X37528833Y-51806423D01*
X37550897Y-51867044D01*
X37562206Y-51911168D01*
X37564353Y-51950498D01*
X37558787Y-51989485D01*
X37545720Y-52026643D01*
X37525658Y-52060532D01*
X37499363Y-52089864D01*
X37467857Y-52113499D01*
X37426787Y-52133197D01*
X37366169Y-52155260D01*
X37366161Y-52155264D01*
X36701184Y-52397296D01*
X36701176Y-52397298D01*
X36640556Y-52419362D01*
X36596432Y-52430671D01*
X36557102Y-52432818D01*
X36518115Y-52427252D01*
X36480957Y-52414185D01*
X36447068Y-52394123D01*
X36417736Y-52367828D01*
X36394101Y-52336322D01*
X36374403Y-52295252D01*
X36352340Y-52234634D01*
X36352336Y-52234626D01*
X36024799Y-51334726D01*
X36024797Y-51334719D01*
X36002733Y-51274098D01*
X35991424Y-51229974D01*
X35989277Y-51190644D01*
X35994843Y-51151657D01*
X36007910Y-51114499D01*
X36027972Y-51080610D01*
X36054267Y-51051278D01*
X36085773Y-51027643D01*
X36126843Y-51007945D01*
X36187461Y-50985882D01*
X36187469Y-50985878D01*
X36852446Y-50743846D01*
X36852454Y-50743844D01*
X36913074Y-50721780D01*
X36957198Y-50710471D01*
X36996528Y-50708324D01*
X37035515Y-50713890D01*
X37035515Y-50713890D01*
G37*
G36*
X38961885Y-50012748D02*
G01*
X38999043Y-50025815D01*
X39032932Y-50045877D01*
X39062264Y-50072172D01*
X39085899Y-50103678D01*
X39105597Y-50144748D01*
X39127660Y-50205366D01*
X39127664Y-50205374D01*
X39455201Y-51105274D01*
X39455203Y-51105281D01*
X39477267Y-51165902D01*
X39488576Y-51210026D01*
X39490723Y-51249356D01*
X39485157Y-51288343D01*
X39472090Y-51325501D01*
X39452028Y-51359390D01*
X39425733Y-51388722D01*
X39394227Y-51412357D01*
X39353157Y-51432055D01*
X39292539Y-51454118D01*
X39292531Y-51454122D01*
X38627554Y-51696154D01*
X38627546Y-51696156D01*
X38566926Y-51718220D01*
X38522802Y-51729529D01*
X38483472Y-51731676D01*
X38444485Y-51726110D01*
X38407327Y-51713043D01*
X38373438Y-51692981D01*
X38344106Y-51666686D01*
X38320471Y-51635180D01*
X38300773Y-51594110D01*
X38278710Y-51533492D01*
X38278706Y-51533484D01*
X37951169Y-50633584D01*
X37951167Y-50633577D01*
X37929103Y-50572956D01*
X37917794Y-50528832D01*
X37915647Y-50489502D01*
X37921213Y-50450515D01*
X37934280Y-50413357D01*
X37954342Y-50379468D01*
X37980637Y-50350136D01*
X38012143Y-50326501D01*
X38053213Y-50306803D01*
X38113831Y-50284740D01*
X38113839Y-50284736D01*
X38778816Y-50042704D01*
X38778824Y-50042702D01*
X38839444Y-50020638D01*
X38883568Y-50009329D01*
X38922898Y-50007182D01*
X38961885Y-50012748D01*
X38961885Y-50012748D01*
G37*
G36*
X50150443Y-49915519D02*
G01*
X50216627Y-49922037D01*
X50386466Y-49973557D01*
X50542991Y-50057222D01*
X50569492Y-50078971D01*
X50680186Y-50169814D01*
X50741460Y-50244478D01*
X50792778Y-50307009D01*
X50876443Y-50463534D01*
X50927963Y-50633373D01*
X50945359Y-50810000D01*
X50927963Y-50986627D01*
X50876443Y-51156466D01*
X50876442Y-51156468D01*
X50876145Y-51157023D01*
X50792778Y-51312991D01*
X50782511Y-51325501D01*
X50680186Y-51450186D01*
X50578729Y-51533448D01*
X50542991Y-51562778D01*
X50542989Y-51562779D01*
X50407538Y-51635180D01*
X50386466Y-51646443D01*
X50216627Y-51697963D01*
X50150442Y-51704482D01*
X50084260Y-51711000D01*
X49995740Y-51711000D01*
X49929558Y-51704482D01*
X49863373Y-51697963D01*
X49693534Y-51646443D01*
X49672463Y-51635180D01*
X49537011Y-51562779D01*
X49537009Y-51562778D01*
X49501271Y-51533448D01*
X49399814Y-51450186D01*
X49297489Y-51325501D01*
X49287222Y-51312991D01*
X49203855Y-51157023D01*
X49203558Y-51156468D01*
X49203557Y-51156466D01*
X49152037Y-50986627D01*
X49134641Y-50810000D01*
X49152037Y-50633373D01*
X49203557Y-50463534D01*
X49287222Y-50307009D01*
X49338540Y-50244478D01*
X49399814Y-50169814D01*
X49510508Y-50078971D01*
X49537009Y-50057222D01*
X49693534Y-49973557D01*
X49863373Y-49922037D01*
X49929557Y-49915519D01*
X49995740Y-49909000D01*
X50084260Y-49909000D01*
X50150443Y-49915519D01*
X50150443Y-49915519D01*
G37*
G36*
X41239406Y-49034608D02*
G01*
X41283530Y-49045917D01*
X41344151Y-49067981D01*
X41344158Y-49067983D01*
X42244058Y-49395520D01*
X42244066Y-49395524D01*
X42304684Y-49417587D01*
X42345754Y-49437285D01*
X42377260Y-49460920D01*
X42403555Y-49490252D01*
X42423617Y-49524141D01*
X42436684Y-49561299D01*
X42442250Y-49600286D01*
X42440103Y-49639616D01*
X42428794Y-49683740D01*
X42406730Y-49744360D01*
X42406728Y-49744368D01*
X42164696Y-50409345D01*
X42164692Y-50409353D01*
X42142629Y-50469971D01*
X42122931Y-50511041D01*
X42099296Y-50542547D01*
X42069964Y-50568842D01*
X42036075Y-50588904D01*
X41998917Y-50601971D01*
X41959930Y-50607537D01*
X41920600Y-50605390D01*
X41876476Y-50594081D01*
X41815855Y-50572017D01*
X41815848Y-50572015D01*
X40915948Y-50244478D01*
X40915940Y-50244474D01*
X40855322Y-50222411D01*
X40814252Y-50202713D01*
X40782746Y-50179078D01*
X40756451Y-50149746D01*
X40736389Y-50115857D01*
X40723322Y-50078699D01*
X40717756Y-50039712D01*
X40719903Y-50000382D01*
X40731212Y-49956258D01*
X40753276Y-49895638D01*
X40753278Y-49895630D01*
X40995310Y-49230653D01*
X40995314Y-49230645D01*
X41017377Y-49170027D01*
X41037075Y-49128957D01*
X41060710Y-49097451D01*
X41090042Y-49071156D01*
X41123931Y-49051094D01*
X41161089Y-49038027D01*
X41200076Y-49032461D01*
X41239406Y-49034608D01*
X41239406Y-49034608D01*
G37*
G36*
X37221847Y-47600404D02*
G01*
X37242634Y-47607714D01*
X37261589Y-47618935D01*
X37277998Y-47633645D01*
X37291221Y-47651273D01*
X37303415Y-47676696D01*
X37322687Y-47729646D01*
X37322694Y-47729660D01*
X37904470Y-49328077D01*
X37904472Y-49328085D01*
X37923745Y-49381037D01*
X37930748Y-49408362D01*
X37931949Y-49430360D01*
X37928835Y-49452171D01*
X37921525Y-49472959D01*
X37910304Y-49491914D01*
X37895592Y-49508325D01*
X37877970Y-49521544D01*
X37852540Y-49533742D01*
X37799579Y-49553018D01*
X37469747Y-49673067D01*
X37469743Y-49673068D01*
X37416788Y-49692342D01*
X37389463Y-49699345D01*
X37367465Y-49700546D01*
X37345653Y-49697432D01*
X37324866Y-49690122D01*
X37305911Y-49678901D01*
X37289502Y-49664191D01*
X37276279Y-49646563D01*
X37264085Y-49621140D01*
X37244813Y-49568190D01*
X37244806Y-49568176D01*
X36663030Y-47969759D01*
X36663028Y-47969751D01*
X36643755Y-47916799D01*
X36636752Y-47889474D01*
X36635551Y-47867476D01*
X36638665Y-47845665D01*
X36645975Y-47824877D01*
X36657196Y-47805922D01*
X36671908Y-47789511D01*
X36689530Y-47776292D01*
X36714960Y-47764094D01*
X36894794Y-47698640D01*
X37097753Y-47624769D01*
X37097757Y-47624768D01*
X37150712Y-47605494D01*
X37178037Y-47598491D01*
X37200035Y-47597290D01*
X37221847Y-47600404D01*
X37221847Y-47600404D01*
G37*
G36*
X38415257Y-47166038D02*
G01*
X38436044Y-47173348D01*
X38454999Y-47184569D01*
X38471408Y-47199279D01*
X38484631Y-47216907D01*
X38496825Y-47242330D01*
X38516097Y-47295280D01*
X38516104Y-47295294D01*
X39097880Y-48893711D01*
X39097882Y-48893719D01*
X39117155Y-48946671D01*
X39124158Y-48973996D01*
X39125359Y-48995994D01*
X39122245Y-49017805D01*
X39114935Y-49038593D01*
X39103714Y-49057548D01*
X39089002Y-49073959D01*
X39071380Y-49087178D01*
X39045950Y-49099376D01*
X38992989Y-49118652D01*
X38663157Y-49238701D01*
X38663153Y-49238702D01*
X38610198Y-49257976D01*
X38582873Y-49264979D01*
X38560875Y-49266180D01*
X38539063Y-49263066D01*
X38518276Y-49255756D01*
X38499321Y-49244535D01*
X38482912Y-49229825D01*
X38469689Y-49212197D01*
X38457495Y-49186774D01*
X38438223Y-49133824D01*
X38438216Y-49133810D01*
X37856440Y-47535393D01*
X37856438Y-47535385D01*
X37837165Y-47482433D01*
X37830162Y-47455108D01*
X37828961Y-47433110D01*
X37832075Y-47411299D01*
X37839385Y-47390511D01*
X37850606Y-47371556D01*
X37865318Y-47355145D01*
X37882940Y-47341926D01*
X37908370Y-47329728D01*
X38088204Y-47264274D01*
X38291163Y-47190403D01*
X38291167Y-47190402D01*
X38344122Y-47171128D01*
X38371447Y-47164125D01*
X38393445Y-47162924D01*
X38415257Y-47166038D01*
X38415257Y-47166038D01*
G37*
G36*
X30052088Y-47215712D02*
G01*
X30074247Y-47218876D01*
X30157528Y-47239254D01*
X30178656Y-47246684D01*
X30256346Y-47282912D01*
X30266173Y-47288730D01*
X30270306Y-47291176D01*
X30270309Y-47291178D01*
X30275616Y-47294320D01*
X30344761Y-47345019D01*
X30361426Y-47359959D01*
X30419346Y-47423168D01*
X30423050Y-47428106D01*
X30423051Y-47428107D01*
X30429080Y-47436143D01*
X30429086Y-47436152D01*
X30432785Y-47441084D01*
X30477257Y-47514372D01*
X30479922Y-47519929D01*
X30479928Y-47519938D01*
X30483837Y-47528089D01*
X30486940Y-47534559D01*
X30493227Y-47551832D01*
X30497977Y-47563127D01*
X30505964Y-47579784D01*
X30672776Y-48038097D01*
X30677350Y-48055943D01*
X30680976Y-48067666D01*
X30687276Y-48084973D01*
X30692835Y-48106664D01*
X30705876Y-48191394D01*
X30707096Y-48213749D01*
X30703357Y-48299403D01*
X30700193Y-48321562D01*
X30679815Y-48404843D01*
X30672385Y-48425971D01*
X30636157Y-48503661D01*
X30624749Y-48522931D01*
X30574050Y-48592076D01*
X30559110Y-48608741D01*
X30495899Y-48666663D01*
X30477992Y-48680096D01*
X30404694Y-48724575D01*
X30384510Y-48734256D01*
X30367208Y-48740554D01*
X30355915Y-48745304D01*
X30339288Y-48753277D01*
X29880972Y-48920092D01*
X29872889Y-48922163D01*
X29865265Y-48924118D01*
X29863852Y-48924195D01*
X29855234Y-48924666D01*
X29845288Y-48923246D01*
X29835812Y-48919914D01*
X29821966Y-48911717D01*
X29811908Y-48904342D01*
X29789700Y-48893986D01*
X29765898Y-48888161D01*
X29741417Y-48887092D01*
X29717198Y-48890819D01*
X29694172Y-48899200D01*
X29673223Y-48911911D01*
X29655156Y-48928466D01*
X29640667Y-48948227D01*
X29630311Y-48970435D01*
X29627346Y-48982547D01*
X29625339Y-48988253D01*
X29622007Y-48997730D01*
X29622006Y-48997731D01*
X29616888Y-49006377D01*
X29610185Y-49013854D01*
X29602147Y-49019884D01*
X29587526Y-49026897D01*
X29129216Y-49193708D01*
X29114951Y-49197364D01*
X29113511Y-49197733D01*
X29113510Y-49197733D01*
X29111380Y-49198279D01*
X29099656Y-49201905D01*
X29082344Y-49208206D01*
X29076370Y-49209737D01*
X29076365Y-49209739D01*
X29066634Y-49212233D01*
X29066631Y-49212233D01*
X29060652Y-49213766D01*
X28975921Y-49226807D01*
X28953567Y-49228027D01*
X28867912Y-49224288D01*
X28845753Y-49221124D01*
X28762472Y-49200746D01*
X28741344Y-49193316D01*
X28663654Y-49157088D01*
X28653827Y-49151270D01*
X28649694Y-49148824D01*
X28649691Y-49148822D01*
X28644384Y-49145680D01*
X28575239Y-49094981D01*
X28558574Y-49080041D01*
X28500654Y-49016832D01*
X28496949Y-49011893D01*
X28490920Y-49003857D01*
X28490914Y-49003848D01*
X28487215Y-48998916D01*
X28442743Y-48925628D01*
X28440078Y-48920071D01*
X28440072Y-48920062D01*
X28435728Y-48911004D01*
X28435727Y-48911001D01*
X28433060Y-48905441D01*
X28426773Y-48888168D01*
X28422023Y-48876873D01*
X28414036Y-48860216D01*
X28247224Y-48401903D01*
X28242650Y-48384057D01*
X28239024Y-48372334D01*
X28232724Y-48355027D01*
X28227165Y-48333336D01*
X28214124Y-48248606D01*
X28212904Y-48226251D01*
X28216643Y-48140597D01*
X28219807Y-48118438D01*
X28240185Y-48035157D01*
X28247615Y-48014029D01*
X28283843Y-47936339D01*
X28289661Y-47926512D01*
X28292107Y-47922379D01*
X28292109Y-47922376D01*
X28295251Y-47917069D01*
X28345950Y-47847924D01*
X28360890Y-47831259D01*
X28424101Y-47773337D01*
X28442008Y-47759904D01*
X28515306Y-47715425D01*
X28535490Y-47705744D01*
X28552792Y-47699446D01*
X28564085Y-47694696D01*
X28580712Y-47686723D01*
X29039028Y-47519908D01*
X29047111Y-47517837D01*
X29054735Y-47515882D01*
X29056148Y-47515805D01*
X29064766Y-47515334D01*
X29074712Y-47516754D01*
X29084188Y-47520086D01*
X29098034Y-47528283D01*
X29108092Y-47535658D01*
X29130300Y-47546014D01*
X29154102Y-47551839D01*
X29178583Y-47552908D01*
X29202802Y-47549181D01*
X29225828Y-47540800D01*
X29246777Y-47528089D01*
X29264844Y-47511534D01*
X29279333Y-47491773D01*
X29289689Y-47469565D01*
X29292654Y-47457453D01*
X29295665Y-47448890D01*
X29297993Y-47442270D01*
X29303111Y-47433625D01*
X29303112Y-47433623D01*
X29309815Y-47426146D01*
X29317853Y-47420116D01*
X29332474Y-47413103D01*
X29790784Y-47246292D01*
X29805049Y-47242636D01*
X29806489Y-47242267D01*
X29806490Y-47242267D01*
X29808620Y-47241721D01*
X29820344Y-47238095D01*
X29837656Y-47231794D01*
X29843630Y-47230263D01*
X29843635Y-47230261D01*
X29853366Y-47227767D01*
X29853369Y-47227767D01*
X29859348Y-47226234D01*
X29944079Y-47213193D01*
X29966433Y-47211973D01*
X30052088Y-47215712D01*
X30052088Y-47215712D01*
G37*
G36*
X50150442Y-47375518D02*
G01*
X50216627Y-47382037D01*
X50386466Y-47433557D01*
X50386468Y-47433558D01*
X50391304Y-47436143D01*
X50542991Y-47517222D01*
X50560889Y-47531911D01*
X50680186Y-47629814D01*
X50750444Y-47715425D01*
X50792778Y-47767009D01*
X50876443Y-47923534D01*
X50927963Y-48093373D01*
X50945359Y-48270000D01*
X50927963Y-48446627D01*
X50878786Y-48608741D01*
X50876442Y-48616468D01*
X50849612Y-48666663D01*
X50792778Y-48772991D01*
X50786246Y-48780950D01*
X50680186Y-48910186D01*
X50585060Y-48988253D01*
X50542991Y-49022778D01*
X50520859Y-49034608D01*
X50441421Y-49077069D01*
X50386466Y-49106443D01*
X50216627Y-49157963D01*
X50150443Y-49164481D01*
X50084260Y-49171000D01*
X49995740Y-49171000D01*
X49929557Y-49164481D01*
X49863373Y-49157963D01*
X49693534Y-49106443D01*
X49638580Y-49077069D01*
X49559141Y-49034608D01*
X49537009Y-49022778D01*
X49494940Y-48988253D01*
X49399814Y-48910186D01*
X49293754Y-48780950D01*
X49287222Y-48772991D01*
X49230388Y-48666663D01*
X49203558Y-48616468D01*
X49201214Y-48608741D01*
X49152037Y-48446627D01*
X49134641Y-48270000D01*
X49152037Y-48093373D01*
X49203557Y-47923534D01*
X49287222Y-47767009D01*
X49329556Y-47715425D01*
X49399814Y-47629814D01*
X49519111Y-47531911D01*
X49537009Y-47517222D01*
X49688696Y-47436143D01*
X49693532Y-47433558D01*
X49693534Y-47433557D01*
X49863373Y-47382037D01*
X49929558Y-47375518D01*
X49995740Y-47369000D01*
X50084260Y-47369000D01*
X50150442Y-47375518D01*
X50150442Y-47375518D01*
G37*
G36*
X39608667Y-46731672D02*
G01*
X39629454Y-46738982D01*
X39648409Y-46750203D01*
X39664818Y-46764913D01*
X39678041Y-46782541D01*
X39690235Y-46807964D01*
X39709507Y-46860914D01*
X39709514Y-46860928D01*
X40291290Y-48459345D01*
X40291292Y-48459353D01*
X40310565Y-48512305D01*
X40317568Y-48539630D01*
X40318769Y-48561628D01*
X40315655Y-48583439D01*
X40308345Y-48604227D01*
X40297124Y-48623182D01*
X40282412Y-48639593D01*
X40264790Y-48652812D01*
X40239360Y-48665010D01*
X40186399Y-48684286D01*
X39856567Y-48804335D01*
X39856563Y-48804336D01*
X39803608Y-48823610D01*
X39776283Y-48830613D01*
X39754285Y-48831814D01*
X39732473Y-48828700D01*
X39711686Y-48821390D01*
X39692731Y-48810169D01*
X39676322Y-48795459D01*
X39663099Y-48777831D01*
X39650905Y-48752408D01*
X39631633Y-48699458D01*
X39631626Y-48699444D01*
X39049850Y-47101027D01*
X39049848Y-47101019D01*
X39030575Y-47048067D01*
X39023572Y-47020742D01*
X39022371Y-46998744D01*
X39025485Y-46976933D01*
X39032795Y-46956145D01*
X39044016Y-46937190D01*
X39058728Y-46920779D01*
X39076350Y-46907560D01*
X39101780Y-46895362D01*
X39341905Y-46807964D01*
X39484573Y-46756037D01*
X39484577Y-46756036D01*
X39537532Y-46736762D01*
X39564857Y-46729759D01*
X39586855Y-46728558D01*
X39608667Y-46731672D01*
X39608667Y-46731672D01*
G37*
G36*
X40802076Y-46297307D02*
G01*
X40822863Y-46304617D01*
X40841818Y-46315838D01*
X40858227Y-46330548D01*
X40871450Y-46348176D01*
X40883644Y-46373599D01*
X40902916Y-46426549D01*
X40902923Y-46426563D01*
X41484699Y-48024980D01*
X41484701Y-48024988D01*
X41503974Y-48077940D01*
X41510977Y-48105265D01*
X41512178Y-48127263D01*
X41509064Y-48149074D01*
X41501754Y-48169862D01*
X41490533Y-48188817D01*
X41475821Y-48205228D01*
X41458199Y-48218447D01*
X41432769Y-48230645D01*
X41297509Y-48279875D01*
X41049976Y-48369970D01*
X41049972Y-48369971D01*
X40997017Y-48389245D01*
X40969692Y-48396248D01*
X40947694Y-48397449D01*
X40925882Y-48394335D01*
X40905095Y-48387025D01*
X40886140Y-48375804D01*
X40869731Y-48361094D01*
X40856508Y-48343466D01*
X40844314Y-48318043D01*
X40825042Y-48265093D01*
X40825035Y-48265079D01*
X40243259Y-46666662D01*
X40243257Y-46666654D01*
X40223984Y-46613702D01*
X40216981Y-46586377D01*
X40215780Y-46564379D01*
X40218894Y-46542568D01*
X40226204Y-46521780D01*
X40237425Y-46502825D01*
X40252137Y-46486414D01*
X40269759Y-46473195D01*
X40295189Y-46460997D01*
X40544694Y-46370185D01*
X40677982Y-46321672D01*
X40677986Y-46321671D01*
X40730941Y-46302397D01*
X40758266Y-46295394D01*
X40780264Y-46294193D01*
X40802076Y-46297307D01*
X40802076Y-46297307D01*
G37*
G36*
X50150443Y-44835519D02*
G01*
X50216627Y-44842037D01*
X50386466Y-44893557D01*
X50542991Y-44977222D01*
X50568556Y-44998203D01*
X50680186Y-45089814D01*
X50763448Y-45191271D01*
X50792778Y-45227009D01*
X50876443Y-45383534D01*
X50927963Y-45553373D01*
X50945359Y-45730000D01*
X50927963Y-45906627D01*
X50876443Y-46076466D01*
X50792778Y-46232991D01*
X50763448Y-46268729D01*
X50680186Y-46370186D01*
X50611489Y-46426563D01*
X50542991Y-46482778D01*
X50505486Y-46502825D01*
X50390328Y-46564379D01*
X50386466Y-46566443D01*
X50216627Y-46617963D01*
X50150442Y-46624482D01*
X50084260Y-46631000D01*
X49995740Y-46631000D01*
X49929558Y-46624482D01*
X49863373Y-46617963D01*
X49693534Y-46566443D01*
X49689673Y-46564379D01*
X49574514Y-46502825D01*
X49537009Y-46482778D01*
X49468511Y-46426563D01*
X49399814Y-46370186D01*
X49316552Y-46268729D01*
X49287222Y-46232991D01*
X49203557Y-46076466D01*
X49152037Y-45906627D01*
X49134641Y-45730000D01*
X49152037Y-45553373D01*
X49203557Y-45383534D01*
X49287222Y-45227009D01*
X49316552Y-45191271D01*
X49399814Y-45089814D01*
X49511444Y-44998203D01*
X49537009Y-44977222D01*
X49693534Y-44893557D01*
X49863373Y-44842037D01*
X49929557Y-44835519D01*
X49995740Y-44829000D01*
X50084260Y-44829000D01*
X50150443Y-44835519D01*
X50150443Y-44835519D01*
G37*
G36*
X35528848Y-42948925D02*
G01*
X35549635Y-42956235D01*
X35568590Y-42967456D01*
X35584999Y-42982166D01*
X35598222Y-42999794D01*
X35610416Y-43025217D01*
X35629688Y-43078167D01*
X35629695Y-43078181D01*
X36211471Y-44676598D01*
X36211473Y-44676606D01*
X36230746Y-44729558D01*
X36237749Y-44756883D01*
X36238950Y-44778881D01*
X36235836Y-44800692D01*
X36228526Y-44821480D01*
X36217305Y-44840435D01*
X36202593Y-44856846D01*
X36184971Y-44870065D01*
X36159541Y-44882263D01*
X36106580Y-44901539D01*
X35776748Y-45021588D01*
X35776744Y-45021589D01*
X35723789Y-45040863D01*
X35696464Y-45047866D01*
X35674466Y-45049067D01*
X35652654Y-45045953D01*
X35631867Y-45038643D01*
X35612912Y-45027422D01*
X35596503Y-45012712D01*
X35583280Y-44995084D01*
X35571086Y-44969661D01*
X35551814Y-44916711D01*
X35551807Y-44916697D01*
X34970031Y-43318280D01*
X34970029Y-43318272D01*
X34950756Y-43265320D01*
X34943753Y-43237995D01*
X34942552Y-43215997D01*
X34945666Y-43194186D01*
X34952976Y-43173398D01*
X34964197Y-43154443D01*
X34978909Y-43138032D01*
X34996531Y-43124813D01*
X35021961Y-43112615D01*
X35262086Y-43025217D01*
X35404754Y-42973290D01*
X35404758Y-42973289D01*
X35457713Y-42954015D01*
X35485038Y-42947012D01*
X35507036Y-42945811D01*
X35528848Y-42948925D01*
X35528848Y-42948925D01*
G37*
G36*
X36722257Y-42514560D02*
G01*
X36743044Y-42521870D01*
X36761999Y-42533091D01*
X36778408Y-42547801D01*
X36791631Y-42565429D01*
X36803825Y-42590852D01*
X36823097Y-42643802D01*
X36823104Y-42643816D01*
X37404880Y-44242233D01*
X37404882Y-44242241D01*
X37424155Y-44295193D01*
X37431158Y-44322518D01*
X37432359Y-44344516D01*
X37429245Y-44366327D01*
X37421935Y-44387115D01*
X37410714Y-44406070D01*
X37396002Y-44422481D01*
X37378380Y-44435700D01*
X37352950Y-44447898D01*
X37299989Y-44467174D01*
X36970157Y-44587223D01*
X36970153Y-44587224D01*
X36917198Y-44606498D01*
X36889873Y-44613501D01*
X36867875Y-44614702D01*
X36846063Y-44611588D01*
X36825276Y-44604278D01*
X36806321Y-44593057D01*
X36789912Y-44578347D01*
X36776689Y-44560719D01*
X36764495Y-44535296D01*
X36745223Y-44482346D01*
X36745216Y-44482332D01*
X36163440Y-42883915D01*
X36163438Y-42883907D01*
X36144165Y-42830955D01*
X36137162Y-42803630D01*
X36135961Y-42781632D01*
X36139075Y-42759821D01*
X36146385Y-42739033D01*
X36157606Y-42720078D01*
X36172318Y-42703667D01*
X36189940Y-42690448D01*
X36215370Y-42678250D01*
X36455495Y-42590852D01*
X36598163Y-42538925D01*
X36598167Y-42538924D01*
X36651122Y-42519650D01*
X36678447Y-42512647D01*
X36700445Y-42511446D01*
X36722257Y-42514560D01*
X36722257Y-42514560D01*
G37*
G36*
X37915667Y-42080194D02*
G01*
X37936454Y-42087504D01*
X37955409Y-42098725D01*
X37971818Y-42113435D01*
X37985041Y-42131063D01*
X37997235Y-42156486D01*
X38016507Y-42209436D01*
X38016514Y-42209450D01*
X38598290Y-43807867D01*
X38598292Y-43807875D01*
X38617565Y-43860827D01*
X38624568Y-43888152D01*
X38625769Y-43910150D01*
X38622655Y-43931961D01*
X38615345Y-43952749D01*
X38604124Y-43971704D01*
X38589412Y-43988115D01*
X38571790Y-44001334D01*
X38546360Y-44013532D01*
X38493399Y-44032808D01*
X38163567Y-44152857D01*
X38163563Y-44152858D01*
X38110608Y-44172132D01*
X38083283Y-44179135D01*
X38061285Y-44180336D01*
X38039473Y-44177222D01*
X38018686Y-44169912D01*
X37999731Y-44158691D01*
X37983322Y-44143981D01*
X37970099Y-44126353D01*
X37957905Y-44100930D01*
X37938633Y-44047980D01*
X37938626Y-44047966D01*
X37356850Y-42449549D01*
X37356848Y-42449541D01*
X37337575Y-42396589D01*
X37330572Y-42369264D01*
X37329371Y-42347266D01*
X37332485Y-42325455D01*
X37339795Y-42304667D01*
X37351016Y-42285712D01*
X37365728Y-42269301D01*
X37383350Y-42256082D01*
X37408780Y-42243884D01*
X37648905Y-42156486D01*
X37791573Y-42104559D01*
X37791577Y-42104558D01*
X37844532Y-42085284D01*
X37871857Y-42078281D01*
X37893855Y-42077080D01*
X37915667Y-42080194D01*
X37915667Y-42080194D01*
G37*
G36*
X50150442Y-42295518D02*
G01*
X50216627Y-42302037D01*
X50386466Y-42353557D01*
X50542991Y-42437222D01*
X50578729Y-42466552D01*
X50680186Y-42549814D01*
X50731873Y-42612796D01*
X50792778Y-42687009D01*
X50876443Y-42843534D01*
X50927963Y-43013373D01*
X50945359Y-43190000D01*
X50927963Y-43366627D01*
X50876443Y-43536466D01*
X50792778Y-43692991D01*
X50767292Y-43724046D01*
X50680186Y-43830186D01*
X50609553Y-43888152D01*
X50542991Y-43942778D01*
X50542989Y-43942779D01*
X50402395Y-44017929D01*
X50386466Y-44026443D01*
X50216627Y-44077963D01*
X50150443Y-44084481D01*
X50084260Y-44091000D01*
X49995740Y-44091000D01*
X49929557Y-44084481D01*
X49863373Y-44077963D01*
X49693534Y-44026443D01*
X49677606Y-44017929D01*
X49537011Y-43942779D01*
X49537009Y-43942778D01*
X49470447Y-43888152D01*
X49399814Y-43830186D01*
X49312708Y-43724046D01*
X49287222Y-43692991D01*
X49203557Y-43536466D01*
X49152037Y-43366627D01*
X49134641Y-43190000D01*
X49152037Y-43013373D01*
X49203557Y-42843534D01*
X49287222Y-42687009D01*
X49348127Y-42612796D01*
X49399814Y-42549814D01*
X49501271Y-42466552D01*
X49537009Y-42437222D01*
X49693534Y-42353557D01*
X49863373Y-42302037D01*
X49929558Y-42295518D01*
X49995740Y-42289000D01*
X50084260Y-42289000D01*
X50150442Y-42295518D01*
X50150442Y-42295518D01*
G37*
G36*
X39109077Y-41645828D02*
G01*
X39129864Y-41653138D01*
X39148819Y-41664359D01*
X39165228Y-41679069D01*
X39178451Y-41696697D01*
X39190645Y-41722120D01*
X39209917Y-41775070D01*
X39209924Y-41775084D01*
X39791700Y-43373501D01*
X39791702Y-43373509D01*
X39810975Y-43426461D01*
X39817978Y-43453786D01*
X39819179Y-43475784D01*
X39816065Y-43497595D01*
X39808755Y-43518383D01*
X39797534Y-43537338D01*
X39782822Y-43553749D01*
X39765200Y-43566968D01*
X39739770Y-43579166D01*
X39686809Y-43598442D01*
X39356977Y-43718491D01*
X39356973Y-43718492D01*
X39304018Y-43737766D01*
X39276693Y-43744769D01*
X39254695Y-43745970D01*
X39232883Y-43742856D01*
X39212096Y-43735546D01*
X39193141Y-43724325D01*
X39176732Y-43709615D01*
X39163509Y-43691987D01*
X39151315Y-43666564D01*
X39132043Y-43613614D01*
X39132036Y-43613600D01*
X38550260Y-42015183D01*
X38550258Y-42015175D01*
X38530985Y-41962223D01*
X38523982Y-41934898D01*
X38522781Y-41912900D01*
X38525895Y-41891089D01*
X38533205Y-41870301D01*
X38544426Y-41851346D01*
X38559138Y-41834935D01*
X38576760Y-41821716D01*
X38602190Y-41809518D01*
X38842315Y-41722120D01*
X38984983Y-41670193D01*
X38984987Y-41670192D01*
X39037942Y-41650918D01*
X39065267Y-41643915D01*
X39087265Y-41642714D01*
X39109077Y-41645828D01*
X39109077Y-41645828D01*
G37*
G36*
X35339485Y-41021213D02*
G01*
X35376643Y-41034280D01*
X35410532Y-41054342D01*
X35439864Y-41080637D01*
X35463499Y-41112143D01*
X35483197Y-41153213D01*
X35505260Y-41213831D01*
X35505264Y-41213839D01*
X35747296Y-41878816D01*
X35747298Y-41878824D01*
X35769362Y-41939444D01*
X35780671Y-41983568D01*
X35782818Y-42022898D01*
X35777252Y-42061885D01*
X35764185Y-42099043D01*
X35744123Y-42132932D01*
X35717828Y-42162264D01*
X35686322Y-42185899D01*
X35645252Y-42205597D01*
X35584634Y-42227660D01*
X35584626Y-42227664D01*
X34684726Y-42555201D01*
X34684719Y-42555203D01*
X34624098Y-42577267D01*
X34579974Y-42588576D01*
X34540644Y-42590723D01*
X34501657Y-42585157D01*
X34464499Y-42572090D01*
X34430610Y-42552028D01*
X34401278Y-42525733D01*
X34377643Y-42494227D01*
X34357945Y-42453157D01*
X34335882Y-42392539D01*
X34335878Y-42392531D01*
X34093846Y-41727554D01*
X34093844Y-41727546D01*
X34071780Y-41666926D01*
X34060471Y-41622802D01*
X34058324Y-41583472D01*
X34063890Y-41544485D01*
X34076957Y-41507327D01*
X34097019Y-41473438D01*
X34123314Y-41444106D01*
X34154820Y-41420471D01*
X34195890Y-41400773D01*
X34256508Y-41378710D01*
X34256516Y-41378706D01*
X35156416Y-41051169D01*
X35156423Y-41051167D01*
X35217044Y-41029103D01*
X35261168Y-41017794D01*
X35300498Y-41015647D01*
X35339485Y-41021213D01*
X35339485Y-41021213D01*
G37*
G36*
X38180053Y-40094397D02*
G01*
X38217211Y-40107464D01*
X38251100Y-40127526D01*
X38280432Y-40153821D01*
X38304067Y-40185327D01*
X38323765Y-40226397D01*
X38345828Y-40287015D01*
X38345832Y-40287023D01*
X38587864Y-40952000D01*
X38587866Y-40952008D01*
X38609930Y-41012628D01*
X38621239Y-41056752D01*
X38623386Y-41096082D01*
X38617820Y-41135069D01*
X38604753Y-41172227D01*
X38584691Y-41206116D01*
X38558396Y-41235448D01*
X38526890Y-41259083D01*
X38485820Y-41278781D01*
X38425202Y-41300844D01*
X38425194Y-41300848D01*
X37525294Y-41628385D01*
X37525287Y-41628387D01*
X37464666Y-41650451D01*
X37420542Y-41661760D01*
X37381212Y-41663907D01*
X37342225Y-41658341D01*
X37305067Y-41645274D01*
X37271178Y-41625212D01*
X37241846Y-41598917D01*
X37218211Y-41567411D01*
X37198513Y-41526341D01*
X37176450Y-41465723D01*
X37176446Y-41465715D01*
X36934414Y-40800738D01*
X36934412Y-40800730D01*
X36912348Y-40740110D01*
X36901039Y-40695986D01*
X36898892Y-40656656D01*
X36904458Y-40617669D01*
X36917525Y-40580511D01*
X36937587Y-40546622D01*
X36963882Y-40517290D01*
X36995388Y-40493655D01*
X37036458Y-40473957D01*
X37097076Y-40451894D01*
X37097084Y-40451890D01*
X37996984Y-40124353D01*
X37996991Y-40124351D01*
X38057612Y-40102287D01*
X38101736Y-40090978D01*
X38141066Y-40088831D01*
X38180053Y-40094397D01*
X38180053Y-40094397D01*
G37*
G36*
X50941000Y-41551000D02*
G01*
X49139000Y-41551000D01*
X49139000Y-39749000D01*
X50941000Y-39749000D01*
X50941000Y-41551000D01*
X50941000Y-41551000D01*
G37*
G36*
X34638343Y-39094843D02*
G01*
X34675501Y-39107910D01*
X34709390Y-39127972D01*
X34738722Y-39154267D01*
X34762357Y-39185773D01*
X34782055Y-39226843D01*
X34804118Y-39287461D01*
X34804122Y-39287469D01*
X35046154Y-39952446D01*
X35046156Y-39952454D01*
X35068220Y-40013074D01*
X35079529Y-40057198D01*
X35081676Y-40096528D01*
X35076110Y-40135515D01*
X35063043Y-40172673D01*
X35042981Y-40206562D01*
X35016686Y-40235894D01*
X34985180Y-40259529D01*
X34944110Y-40279227D01*
X34883492Y-40301290D01*
X34883484Y-40301294D01*
X33983584Y-40628831D01*
X33983577Y-40628833D01*
X33922956Y-40650897D01*
X33878832Y-40662206D01*
X33839502Y-40664353D01*
X33800515Y-40658787D01*
X33763357Y-40645720D01*
X33729468Y-40625658D01*
X33700136Y-40599363D01*
X33676501Y-40567857D01*
X33656803Y-40526787D01*
X33634740Y-40466169D01*
X33634736Y-40466161D01*
X33392704Y-39801184D01*
X33392702Y-39801176D01*
X33370638Y-39740556D01*
X33359329Y-39696432D01*
X33357182Y-39657102D01*
X33362748Y-39618115D01*
X33375815Y-39580957D01*
X33395877Y-39547068D01*
X33422172Y-39517736D01*
X33453678Y-39494101D01*
X33494748Y-39474403D01*
X33555366Y-39452340D01*
X33555374Y-39452336D01*
X34455274Y-39124799D01*
X34455281Y-39124797D01*
X34515902Y-39102733D01*
X34560026Y-39091424D01*
X34599356Y-39089277D01*
X34638343Y-39094843D01*
X34638343Y-39094843D01*
G37*
G36*
X37478911Y-38168027D02*
G01*
X37516069Y-38181094D01*
X37549958Y-38201156D01*
X37579290Y-38227451D01*
X37602925Y-38258957D01*
X37622623Y-38300027D01*
X37644686Y-38360645D01*
X37644690Y-38360653D01*
X37886722Y-39025630D01*
X37886724Y-39025638D01*
X37908788Y-39086258D01*
X37920097Y-39130382D01*
X37922244Y-39169712D01*
X37916678Y-39208699D01*
X37903611Y-39245857D01*
X37883549Y-39279746D01*
X37857254Y-39309078D01*
X37825748Y-39332713D01*
X37784678Y-39352411D01*
X37724060Y-39374474D01*
X37724052Y-39374478D01*
X36824152Y-39702015D01*
X36824145Y-39702017D01*
X36763524Y-39724081D01*
X36719400Y-39735390D01*
X36680070Y-39737537D01*
X36641083Y-39731971D01*
X36603925Y-39718904D01*
X36570036Y-39698842D01*
X36540704Y-39672547D01*
X36517069Y-39641041D01*
X36497371Y-39599971D01*
X36475308Y-39539353D01*
X36475304Y-39539345D01*
X36233272Y-38874368D01*
X36233270Y-38874360D01*
X36211206Y-38813740D01*
X36199897Y-38769616D01*
X36197750Y-38730286D01*
X36203316Y-38691299D01*
X36216383Y-38654141D01*
X36236445Y-38620252D01*
X36262740Y-38590920D01*
X36294246Y-38567285D01*
X36335316Y-38547587D01*
X36395934Y-38525524D01*
X36395942Y-38525520D01*
X37295842Y-38197983D01*
X37295849Y-38197981D01*
X37356470Y-38175917D01*
X37400594Y-38164608D01*
X37439924Y-38162461D01*
X37478911Y-38168027D01*
X37478911Y-38168027D01*
G37*
G36*
X50488674Y-36788469D02*
G01*
X50526367Y-36799903D01*
X50561103Y-36818470D01*
X50591548Y-36843456D01*
X50616534Y-36873901D01*
X50635101Y-36908637D01*
X50646535Y-36946330D01*
X50651000Y-36991665D01*
X50651000Y-37828343D01*
X50646535Y-37873678D01*
X50635101Y-37911371D01*
X50616534Y-37946107D01*
X50591548Y-37976552D01*
X50561103Y-38001538D01*
X50526367Y-38020105D01*
X50488674Y-38031539D01*
X50443339Y-38036004D01*
X49356661Y-38036004D01*
X49311326Y-38031539D01*
X49273633Y-38020105D01*
X49238897Y-38001538D01*
X49208452Y-37976552D01*
X49183466Y-37946107D01*
X49164899Y-37911371D01*
X49153465Y-37873678D01*
X49149000Y-37828343D01*
X49149000Y-36991665D01*
X49153465Y-36946330D01*
X49164899Y-36908637D01*
X49183466Y-36873901D01*
X49208452Y-36843456D01*
X49238897Y-36818470D01*
X49273633Y-36799903D01*
X49311326Y-36788469D01*
X49356661Y-36784004D01*
X50443339Y-36784004D01*
X50488674Y-36788469D01*
X50488674Y-36788469D01*
G37*
G36*
X48508674Y-36783465D02*
G01*
X48546367Y-36794899D01*
X48581103Y-36813466D01*
X48611548Y-36838452D01*
X48636534Y-36868897D01*
X48655101Y-36903633D01*
X48666535Y-36941326D01*
X48671000Y-36986661D01*
X48671000Y-37823339D01*
X48666535Y-37868674D01*
X48655101Y-37906367D01*
X48636534Y-37941103D01*
X48611548Y-37971548D01*
X48581103Y-37996534D01*
X48546367Y-38015101D01*
X48508674Y-38026535D01*
X48463339Y-38031000D01*
X47376661Y-38031000D01*
X47331326Y-38026535D01*
X47293633Y-38015101D01*
X47258897Y-37996534D01*
X47228452Y-37971548D01*
X47203466Y-37941103D01*
X47184899Y-37906367D01*
X47173465Y-37868674D01*
X47169000Y-37823339D01*
X47169000Y-36986661D01*
X47173465Y-36941326D01*
X47184899Y-36903633D01*
X47203466Y-36868897D01*
X47228452Y-36838452D01*
X47258897Y-36813466D01*
X47293633Y-36794899D01*
X47331326Y-36783465D01*
X47376661Y-36779000D01*
X48463339Y-36779000D01*
X48508674Y-36783465D01*
X48508674Y-36783465D01*
G37*
G36*
X50488674Y-34738469D02*
G01*
X50526367Y-34749903D01*
X50561103Y-34768470D01*
X50591548Y-34793456D01*
X50616534Y-34823901D01*
X50635101Y-34858637D01*
X50646535Y-34896330D01*
X50651000Y-34941665D01*
X50651000Y-35778343D01*
X50646535Y-35823678D01*
X50635101Y-35861371D01*
X50616534Y-35896107D01*
X50591548Y-35926552D01*
X50561103Y-35951538D01*
X50526367Y-35970105D01*
X50488674Y-35981539D01*
X50443339Y-35986004D01*
X49356661Y-35986004D01*
X49311326Y-35981539D01*
X49273633Y-35970105D01*
X49238897Y-35951538D01*
X49208452Y-35926552D01*
X49183466Y-35896107D01*
X49164899Y-35861371D01*
X49153465Y-35823678D01*
X49149000Y-35778343D01*
X49149000Y-34941665D01*
X49153465Y-34896330D01*
X49164899Y-34858637D01*
X49183466Y-34823901D01*
X49208452Y-34793456D01*
X49238897Y-34768470D01*
X49273633Y-34749903D01*
X49311326Y-34738469D01*
X49356661Y-34734004D01*
X50443339Y-34734004D01*
X50488674Y-34738469D01*
X50488674Y-34738469D01*
G37*
G36*
X48508674Y-34733465D02*
G01*
X48546367Y-34744899D01*
X48581103Y-34763466D01*
X48611548Y-34788452D01*
X48636534Y-34818897D01*
X48655101Y-34853633D01*
X48666535Y-34891326D01*
X48671000Y-34936661D01*
X48671000Y-35773339D01*
X48666535Y-35818674D01*
X48655101Y-35856367D01*
X48636534Y-35891103D01*
X48611548Y-35921548D01*
X48581103Y-35946534D01*
X48546367Y-35965101D01*
X48508674Y-35976535D01*
X48463339Y-35981000D01*
X47376661Y-35981000D01*
X47331326Y-35976535D01*
X47293633Y-35965101D01*
X47258897Y-35946534D01*
X47228452Y-35921548D01*
X47203466Y-35891103D01*
X47184899Y-35856367D01*
X47173465Y-35818674D01*
X47169000Y-35773339D01*
X47169000Y-34936661D01*
X47173465Y-34891326D01*
X47184899Y-34853633D01*
X47203466Y-34818897D01*
X47228452Y-34788452D01*
X47258897Y-34763466D01*
X47293633Y-34744899D01*
X47331326Y-34733465D01*
X47376661Y-34729000D01*
X48463339Y-34729000D01*
X48508674Y-34733465D01*
X48508674Y-34733465D01*
G37*
G36*
X13551000Y-34711000D02*
G01*
X11749000Y-34711000D01*
X11749000Y-32909000D01*
X13551000Y-32909000D01*
X13551000Y-34711000D01*
X13551000Y-34711000D01*
G37*
G36*
X48368674Y-32603465D02*
G01*
X48406367Y-32614899D01*
X48441103Y-32633466D01*
X48471548Y-32658452D01*
X48496534Y-32688897D01*
X48515101Y-32723633D01*
X48526535Y-32761326D01*
X48531000Y-32806661D01*
X48531000Y-33893339D01*
X48526535Y-33938674D01*
X48515101Y-33976367D01*
X48496534Y-34011103D01*
X48471548Y-34041548D01*
X48441103Y-34066534D01*
X48406367Y-34085101D01*
X48368674Y-34096535D01*
X48323339Y-34101000D01*
X47486661Y-34101000D01*
X47441326Y-34096535D01*
X47403633Y-34085101D01*
X47368897Y-34066534D01*
X47338452Y-34041548D01*
X47313466Y-34011103D01*
X47294899Y-33976367D01*
X47283465Y-33938674D01*
X47279000Y-33893339D01*
X47279000Y-32806661D01*
X47283465Y-32761326D01*
X47294899Y-32723633D01*
X47313466Y-32688897D01*
X47338452Y-32658452D01*
X47368897Y-32633466D01*
X47403633Y-32614899D01*
X47441326Y-32603465D01*
X47486661Y-32599000D01*
X48323339Y-32599000D01*
X48368674Y-32603465D01*
X48368674Y-32603465D01*
G37*
G36*
X50418674Y-32603465D02*
G01*
X50456367Y-32614899D01*
X50491103Y-32633466D01*
X50521548Y-32658452D01*
X50546534Y-32688897D01*
X50565101Y-32723633D01*
X50576535Y-32761326D01*
X50581000Y-32806661D01*
X50581000Y-33893339D01*
X50576535Y-33938674D01*
X50565101Y-33976367D01*
X50546534Y-34011103D01*
X50521548Y-34041548D01*
X50491103Y-34066534D01*
X50456367Y-34085101D01*
X50418674Y-34096535D01*
X50373339Y-34101000D01*
X49536661Y-34101000D01*
X49491326Y-34096535D01*
X49453633Y-34085101D01*
X49418897Y-34066534D01*
X49388452Y-34041548D01*
X49363466Y-34011103D01*
X49344899Y-33976367D01*
X49333465Y-33938674D01*
X49329000Y-33893339D01*
X49329000Y-32806661D01*
X49333465Y-32761326D01*
X49344899Y-32723633D01*
X49363466Y-32688897D01*
X49388452Y-32658452D01*
X49418897Y-32633466D01*
X49453633Y-32614899D01*
X49491326Y-32603465D01*
X49536661Y-32599000D01*
X50373339Y-32599000D01*
X50418674Y-32603465D01*
X50418674Y-32603465D01*
G37*
G36*
X12760443Y-30375519D02*
G01*
X12826627Y-30382037D01*
X12996466Y-30433557D01*
X13152991Y-30517222D01*
X13188729Y-30546552D01*
X13290186Y-30629814D01*
X13373448Y-30731271D01*
X13402778Y-30767009D01*
X13486443Y-30923534D01*
X13537963Y-31093373D01*
X13555359Y-31270000D01*
X13537963Y-31446627D01*
X13486443Y-31616466D01*
X13402778Y-31772991D01*
X13373448Y-31808729D01*
X13290186Y-31910186D01*
X13188729Y-31993448D01*
X13152991Y-32022778D01*
X12996466Y-32106443D01*
X12826627Y-32157963D01*
X12760443Y-32164481D01*
X12694260Y-32171000D01*
X12605740Y-32171000D01*
X12539557Y-32164481D01*
X12473373Y-32157963D01*
X12303534Y-32106443D01*
X12147009Y-32022778D01*
X12111271Y-31993448D01*
X12009814Y-31910186D01*
X11926552Y-31808729D01*
X11897222Y-31772991D01*
X11813557Y-31616466D01*
X11762037Y-31446627D01*
X11744641Y-31270000D01*
X11762037Y-31093373D01*
X11813557Y-30923534D01*
X11897222Y-30767009D01*
X11926552Y-30731271D01*
X12009814Y-30629814D01*
X12111271Y-30546552D01*
X12147009Y-30517222D01*
X12303534Y-30433557D01*
X12473373Y-30382037D01*
X12539557Y-30375519D01*
X12605740Y-30369000D01*
X12694260Y-30369000D01*
X12760443Y-30375519D01*
X12760443Y-30375519D01*
G37*
G36*
X12760443Y-27835519D02*
G01*
X12826627Y-27842037D01*
X12996466Y-27893557D01*
X13152991Y-27977222D01*
X13188729Y-28006552D01*
X13290186Y-28089814D01*
X13373448Y-28191271D01*
X13402778Y-28227009D01*
X13486443Y-28383534D01*
X13537963Y-28553373D01*
X13555359Y-28730000D01*
X13537963Y-28906627D01*
X13486443Y-29076466D01*
X13402778Y-29232991D01*
X13373448Y-29268729D01*
X13290186Y-29370186D01*
X13188729Y-29453448D01*
X13152991Y-29482778D01*
X12996466Y-29566443D01*
X12826627Y-29617963D01*
X12760443Y-29624481D01*
X12694260Y-29631000D01*
X12605740Y-29631000D01*
X12539557Y-29624481D01*
X12473373Y-29617963D01*
X12303534Y-29566443D01*
X12147009Y-29482778D01*
X12111271Y-29453448D01*
X12009814Y-29370186D01*
X11926552Y-29268729D01*
X11897222Y-29232991D01*
X11813557Y-29076466D01*
X11762037Y-28906627D01*
X11744641Y-28730000D01*
X11762037Y-28553373D01*
X11813557Y-28383534D01*
X11897222Y-28227009D01*
X11926552Y-28191271D01*
X12009814Y-28089814D01*
X12111271Y-28006552D01*
X12147009Y-27977222D01*
X12303534Y-27893557D01*
X12473373Y-27842037D01*
X12539557Y-27835519D01*
X12605740Y-27829000D01*
X12694260Y-27829000D01*
X12760443Y-27835519D01*
X12760443Y-27835519D01*
G37*
G36*
X12760442Y-25295518D02*
G01*
X12826627Y-25302037D01*
X12996466Y-25353557D01*
X13152991Y-25437222D01*
X13188729Y-25466552D01*
X13290186Y-25549814D01*
X13373448Y-25651271D01*
X13402778Y-25687009D01*
X13486443Y-25843534D01*
X13537963Y-26013373D01*
X13555359Y-26190000D01*
X13537963Y-26366627D01*
X13486443Y-26536466D01*
X13402778Y-26692991D01*
X13373448Y-26728729D01*
X13290186Y-26830186D01*
X13188729Y-26913448D01*
X13152991Y-26942778D01*
X12996466Y-27026443D01*
X12826627Y-27077963D01*
X12760443Y-27084481D01*
X12694260Y-27091000D01*
X12605740Y-27091000D01*
X12539557Y-27084481D01*
X12473373Y-27077963D01*
X12303534Y-27026443D01*
X12147009Y-26942778D01*
X12111271Y-26913448D01*
X12009814Y-26830186D01*
X11926552Y-26728729D01*
X11897222Y-26692991D01*
X11813557Y-26536466D01*
X11762037Y-26366627D01*
X11744641Y-26190000D01*
X11762037Y-26013373D01*
X11813557Y-25843534D01*
X11897222Y-25687009D01*
X11926552Y-25651271D01*
X12009814Y-25549814D01*
X12111271Y-25466552D01*
X12147009Y-25437222D01*
X12303534Y-25353557D01*
X12473373Y-25302037D01*
X12539558Y-25295518D01*
X12605740Y-25289000D01*
X12694260Y-25289000D01*
X12760442Y-25295518D01*
X12760442Y-25295518D01*
G37*
G36*
X42021000Y-26141000D02*
G01*
X40219000Y-26141000D01*
X40219000Y-24339000D01*
X42021000Y-24339000D01*
X42021000Y-26141000D01*
X42021000Y-26141000D01*
G37*
G36*
X37721000Y-25601000D02*
G01*
X35919000Y-25601000D01*
X35919000Y-23799000D01*
X37721000Y-23799000D01*
X37721000Y-25601000D01*
X37721000Y-25601000D01*
G37*
G36*
X33751000Y-25531000D02*
G01*
X31949000Y-25531000D01*
X31949000Y-23729000D01*
X33751000Y-23729000D01*
X33751000Y-25531000D01*
X33751000Y-25531000D01*
G37*
G36*
X48525331Y-21268211D02*
G01*
X48853092Y-21403974D01*
X49148070Y-21601072D01*
X49398928Y-21851930D01*
X49596026Y-22146908D01*
X49731789Y-22474669D01*
X49801000Y-22822616D01*
X49801000Y-23177384D01*
X49731789Y-23525331D01*
X49596026Y-23853092D01*
X49398928Y-24148070D01*
X49148070Y-24398928D01*
X48853092Y-24596026D01*
X48525331Y-24731789D01*
X48177384Y-24801000D01*
X47822616Y-24801000D01*
X47474669Y-24731789D01*
X47146908Y-24596026D01*
X46851930Y-24398928D01*
X46601072Y-24148070D01*
X46403974Y-23853092D01*
X46268211Y-23525331D01*
X46199000Y-23177384D01*
X46199000Y-22822616D01*
X46268211Y-22474669D01*
X46403974Y-22146908D01*
X46601072Y-21851930D01*
X46851930Y-21601072D01*
X47146908Y-21403974D01*
X47474669Y-21268211D01*
X47822616Y-21199000D01*
X48177384Y-21199000D01*
X48525331Y-21268211D01*
X48525331Y-21268211D01*
G37*
G36*
X27525331Y-21268211D02*
G01*
X27853092Y-21403974D01*
X28148070Y-21601072D01*
X28398928Y-21851930D01*
X28596026Y-22146908D01*
X28731789Y-22474669D01*
X28801000Y-22822616D01*
X28801000Y-23177384D01*
X28731789Y-23525331D01*
X28596026Y-23853092D01*
X28398928Y-24148070D01*
X28148070Y-24398928D01*
X27853092Y-24596026D01*
X27525331Y-24731789D01*
X27177384Y-24801000D01*
X26822616Y-24801000D01*
X26474669Y-24731789D01*
X26146908Y-24596026D01*
X25851930Y-24398928D01*
X25601072Y-24148070D01*
X25403974Y-23853092D01*
X25268211Y-23525331D01*
X25199000Y-23177384D01*
X25199000Y-22822616D01*
X25268211Y-22474669D01*
X25403974Y-22146908D01*
X25601072Y-21851930D01*
X25851930Y-21601072D01*
X26146908Y-21403974D01*
X26474669Y-21268211D01*
X26822616Y-21199000D01*
X27177384Y-21199000D01*
X27525331Y-21268211D01*
X27525331Y-21268211D01*
G37*
G36*
X12760442Y-22755518D02*
G01*
X12826627Y-22762037D01*
X12996466Y-22813557D01*
X13152991Y-22897222D01*
X13171946Y-22912778D01*
X13290186Y-23009814D01*
X13373448Y-23111271D01*
X13402778Y-23147009D01*
X13486443Y-23303534D01*
X13537963Y-23473373D01*
X13555359Y-23650000D01*
X13537963Y-23826627D01*
X13486443Y-23996466D01*
X13402778Y-24152991D01*
X13373448Y-24188729D01*
X13290186Y-24290186D01*
X13188729Y-24373448D01*
X13152991Y-24402778D01*
X12996466Y-24486443D01*
X12826627Y-24537963D01*
X12760442Y-24544482D01*
X12694260Y-24551000D01*
X12605740Y-24551000D01*
X12539558Y-24544482D01*
X12473373Y-24537963D01*
X12303534Y-24486443D01*
X12147009Y-24402778D01*
X12111271Y-24373448D01*
X12009814Y-24290186D01*
X11926552Y-24188729D01*
X11897222Y-24152991D01*
X11813557Y-23996466D01*
X11762037Y-23826627D01*
X11744641Y-23650000D01*
X11762037Y-23473373D01*
X11813557Y-23303534D01*
X11897222Y-23147009D01*
X11926552Y-23111271D01*
X12009814Y-23009814D01*
X12128054Y-22912778D01*
X12147009Y-22897222D01*
X12303534Y-22813557D01*
X12473373Y-22762037D01*
X12539558Y-22755518D01*
X12605740Y-22749000D01*
X12694260Y-22749000D01*
X12760442Y-22755518D01*
X12760442Y-22755518D01*
G37*
G36*
X41230443Y-21805519D02*
G01*
X41296627Y-21812037D01*
X41466466Y-21863557D01*
X41622991Y-21947222D01*
X41658729Y-21976552D01*
X41760186Y-22059814D01*
X41831660Y-22146907D01*
X41872778Y-22197009D01*
X41956443Y-22353534D01*
X42007963Y-22523373D01*
X42025359Y-22700000D01*
X42007963Y-22876627D01*
X41956443Y-23046466D01*
X41872778Y-23202991D01*
X41843448Y-23238729D01*
X41760186Y-23340186D01*
X41658729Y-23423448D01*
X41622991Y-23452778D01*
X41466466Y-23536443D01*
X41296627Y-23587963D01*
X41230443Y-23594481D01*
X41164260Y-23601000D01*
X41075740Y-23601000D01*
X41009557Y-23594481D01*
X40943373Y-23587963D01*
X40773534Y-23536443D01*
X40617009Y-23452778D01*
X40581271Y-23423448D01*
X40479814Y-23340186D01*
X40396552Y-23238729D01*
X40367222Y-23202991D01*
X40283557Y-23046466D01*
X40232037Y-22876627D01*
X40214641Y-22700000D01*
X40232037Y-22523373D01*
X40283557Y-22353534D01*
X40367222Y-22197009D01*
X40408340Y-22146907D01*
X40479814Y-22059814D01*
X40581271Y-21976552D01*
X40617009Y-21947222D01*
X40773534Y-21863557D01*
X40943373Y-21812037D01*
X41009557Y-21805519D01*
X41075740Y-21799000D01*
X41164260Y-21799000D01*
X41230443Y-21805519D01*
X41230443Y-21805519D01*
G37*
G36*
X36930442Y-21265518D02*
G01*
X36996627Y-21272037D01*
X37166466Y-21323557D01*
X37322991Y-21407222D01*
X37358729Y-21436552D01*
X37460186Y-21519814D01*
X37536653Y-21612991D01*
X37572778Y-21657009D01*
X37656443Y-21813534D01*
X37707963Y-21983373D01*
X37725359Y-22160000D01*
X37707963Y-22336627D01*
X37656443Y-22506466D01*
X37572778Y-22662991D01*
X37543448Y-22698729D01*
X37460186Y-22800186D01*
X37367043Y-22876625D01*
X37322991Y-22912778D01*
X37166466Y-22996443D01*
X36996627Y-23047963D01*
X36930443Y-23054481D01*
X36864260Y-23061000D01*
X36775740Y-23061000D01*
X36709557Y-23054481D01*
X36643373Y-23047963D01*
X36473534Y-22996443D01*
X36317009Y-22912778D01*
X36272957Y-22876625D01*
X36179814Y-22800186D01*
X36096552Y-22698729D01*
X36067222Y-22662991D01*
X35983557Y-22506466D01*
X35932037Y-22336627D01*
X35914641Y-22160000D01*
X35932037Y-21983373D01*
X35983557Y-21813534D01*
X36067222Y-21657009D01*
X36103347Y-21612991D01*
X36179814Y-21519814D01*
X36281271Y-21436552D01*
X36317009Y-21407222D01*
X36473534Y-21323557D01*
X36643373Y-21272037D01*
X36709558Y-21265518D01*
X36775740Y-21259000D01*
X36864260Y-21259000D01*
X36930442Y-21265518D01*
X36930442Y-21265518D01*
G37*
G36*
X32960442Y-21195518D02*
G01*
X33026627Y-21202037D01*
X33196466Y-21253557D01*
X33196468Y-21253558D01*
X33223883Y-21268212D01*
X33352991Y-21337222D01*
X33388729Y-21366552D01*
X33490186Y-21449814D01*
X33547633Y-21519815D01*
X33602778Y-21587009D01*
X33686443Y-21743534D01*
X33737963Y-21913373D01*
X33755359Y-22090000D01*
X33737963Y-22266627D01*
X33686443Y-22436466D01*
X33602778Y-22592991D01*
X33573448Y-22628729D01*
X33490186Y-22730186D01*
X33404889Y-22800186D01*
X33352991Y-22842778D01*
X33196466Y-22926443D01*
X33026627Y-22977963D01*
X32960443Y-22984481D01*
X32894260Y-22991000D01*
X32805740Y-22991000D01*
X32739557Y-22984481D01*
X32673373Y-22977963D01*
X32503534Y-22926443D01*
X32347009Y-22842778D01*
X32295111Y-22800186D01*
X32209814Y-22730186D01*
X32126552Y-22628729D01*
X32097222Y-22592991D01*
X32013557Y-22436466D01*
X31962037Y-22266627D01*
X31944641Y-22090000D01*
X31962037Y-21913373D01*
X32013557Y-21743534D01*
X32097222Y-21587009D01*
X32152367Y-21519815D01*
X32209814Y-21449814D01*
X32311271Y-21366552D01*
X32347009Y-21337222D01*
X32476117Y-21268212D01*
X32503532Y-21253558D01*
X32503534Y-21253557D01*
X32673373Y-21202037D01*
X32739558Y-21195518D01*
X32805740Y-21189000D01*
X32894260Y-21189000D01*
X32960442Y-21195518D01*
X32960442Y-21195518D01*
G37*
G36*
X12760443Y-20215519D02*
G01*
X12826627Y-20222037D01*
X12996466Y-20273557D01*
X13152991Y-20357222D01*
X13188729Y-20386552D01*
X13290186Y-20469814D01*
X13373448Y-20571271D01*
X13402778Y-20607009D01*
X13486443Y-20763534D01*
X13537963Y-20933373D01*
X13555359Y-21110000D01*
X13537963Y-21286627D01*
X13486443Y-21456466D01*
X13402778Y-21612991D01*
X13373448Y-21648729D01*
X13290186Y-21750186D01*
X13212995Y-21813534D01*
X13152991Y-21862778D01*
X12996466Y-21946443D01*
X12826627Y-21997963D01*
X12760442Y-22004482D01*
X12694260Y-22011000D01*
X12605740Y-22011000D01*
X12539558Y-22004482D01*
X12473373Y-21997963D01*
X12303534Y-21946443D01*
X12147009Y-21862778D01*
X12087005Y-21813534D01*
X12009814Y-21750186D01*
X11926552Y-21648729D01*
X11897222Y-21612991D01*
X11813557Y-21456466D01*
X11762037Y-21286627D01*
X11744641Y-21110000D01*
X11762037Y-20933373D01*
X11813557Y-20763534D01*
X11897222Y-20607009D01*
X11926552Y-20571271D01*
X12009814Y-20469814D01*
X12111271Y-20386552D01*
X12147009Y-20357222D01*
X12303534Y-20273557D01*
X12473373Y-20222037D01*
X12539557Y-20215519D01*
X12605740Y-20209000D01*
X12694260Y-20209000D01*
X12760443Y-20215519D01*
X12760443Y-20215519D01*
G37*
M02*
