<?xml version="1.0" encoding="utf-8"?>
<!-- Generator: Adobe Illustrator 27.5.0, SVG Export Plug-In . SVG Version: 6.00 Build 0)  -->
<svg version="1.1" id="Layer_1" xmlns="http://www.w3.org/2000/svg" xmlns:xlink="http://www.w3.org/1999/xlink" x="0px" y="0px"
	 viewBox="0 0 864 864" style="enable-background:new 0 0 864 864;" xml:space="preserve">
<style type="text/css">
	.st0{fill:none;stroke:#231F20;stroke-width:1.000000e-02;stroke-linecap:round;stroke-miterlimit:11.3386;}
	.st1{display:none;}
	.st2{display:inline;fill:none;stroke:#777777;stroke-linecap:round;stroke-miterlimit:11.3386;}
	
		.st3{display:inline;fill-rule:evenodd;clip-rule:evenodd;fill:#777777;stroke:#777777;stroke-width:2.0088;stroke-linecap:round;stroke-miterlimit:11.3386;}
</style>
<path id="front_outsideCutPath" vector-effect="non-scaling-stroke" class="st0" d="M171,34.2h-40.5v8.5H69.7v-8.5H29.2v59h8.5V154
	h-8.5v60.8h8.5v60.9h-8.5v59h40.5v-8.5h60.8v8.5H171v-59h-8.5v-60.8h8.5v-60.8h-8.5V93.2h8.5V34.2z"/>
<path id="left_outsideCutPath" vector-effect="non-scaling-stroke" class="st0" d="M183.2,192.9v40.6l0,0v60.8l0,0v40.4h32v-8.5H276
	v8.5h31.9v-40.5h8.5v-60.8h-8.5v-40.5H276v8.5h-60.8v-8.5L183.2,192.9L183.2,192.9z"/>
<path id="top_outsideCutPath" vector-effect="non-scaling-stroke" class="st0" d="M327.6,201.4v32.1h-8.5v60.8h8.5v31.9h50.5v8.5
	h60.8v-8.5h60.8v8.5h60.9v-8.5h50.5v-31.9h8.5v-60.8h-8.5v-32h-50.4l0,0h-60.9l0,0H439l0,0l-60.8-0.1l0,0L327.6,201.4L327.6,201.4z"
	/>
<path id="right_outsideCutPath" vector-effect="non-scaling-stroke" class="st0" d="M183.2,42.7v40.5h-8.5V144h8.5v40.5h31.9V176
	h60.8v8.5h32V144l0,0V83.2l0,0V42.7h-32v8.5h-60.8v-8.5H183.2z"/>
<path id="bottom_outsideCutPath" vector-effect="non-scaling-stroke" class="st0" d="M327.6,51.2v32h-8.5V144h8.5v31.9h50.5v8.5
	h60.8v-8.5h60.8v8.5h60.9v-8.5h50.5V144h8.5V83.2h-8.5v-32h-50.5l0,0h-60.5l0,0h-60.9l0,0h-60.9l0,0
	C378.3,51.2,327.6,51.2,327.6,51.2z"/>
<path class="st0" d="M45.5,276.5V92.3c0-19.6,15.6-35.4,34.7-35.4l0,0c19.2,0,34.7,15.9,34.7,35.4v184.3c0,19.6-15.6,35.4-34.7,35.4
	l0,0C61,312,45.5,296,45.5,276.5z"/>
<circle class="st0" cx="50.5" cy="54.1" r="5.7"/>
<circle class="st0" cx="50.5" cy="314.8" r="5.7"/>
<circle class="st0" cx="110" cy="314.8" r="5.7"/>
<circle class="st0" cx="110" cy="54.1" r="5.7"/>
<circle class="st0" cx="375" cy="262.2" r="13.5"/>
<g id="Guides" class="st1">
	<line class="st2" x1="209.6" y1="558.1" x2="230.9" y2="558.1"/>
	<line class="st2" x1="230.9" y1="558.1" x2="230.9" y2="578"/>
	<line class="st2" x1="230.9" y1="558.1" x2="290.4" y2="558.1"/>
	<line class="st2" x1="209.6" y1="429.3" x2="226.7" y2="429.3"/>
	<line class="st2" x1="263.5" y1="277.5" x2="263.5" y2="300.2"/>
	<line class="st2" x1="209.6" y1="297.4" x2="230.9" y2="297.4"/>
	<line class="st2" x1="230.9" y1="277.5" x2="230.9" y2="297.4"/>
	<line class="st2" x1="230.9" y1="297.4" x2="290.4" y2="297.4"/>
	<path id="right_labelLayer" vector-effect="non-scaling-stroke" class="st3" d="M449.6,358h-2.3v-9.8c0-0.3,0-0.7-0.1-1
		c-0.1-0.7-0.4-1.3-0.8-1.7c-0.3-0.3-0.7-0.5-1.1-0.7s-1-0.2-1.6-0.2c-0.4,0-0.9,0-1.3,0.1c-0.5,0.1-0.9,0.2-1.3,0.4
		s-0.7,0.4-0.9,0.7c-0.3,0.3-0.5,0.7-0.6,1.1c-0.3,0.7-0.4,1.6-0.4,2.6c0,0.2,0,0.3,0,0.5v7.9h-2.3v-21.5h2.3v6.5c0,0.3,0,0.5,0,0.8
		c0,0.2,0,0.5,0,0.7s0,0.3-0.1,0.5h0.1c0.4-0.6,1-1.2,1.6-1.5c0.1-0.1,0.2-0.1,0.3-0.2c0.6-0.3,1.3-0.5,1.9-0.6
		c0.3,0,0.6-0.1,0.9-0.1c0.5,0,1,0,1.6,0.1s1.1,0.2,1.5,0.5c0.4,0.2,0.8,0.4,1.1,0.7c0.4,0.4,0.8,1,1,1.6c0.3,0.7,0.4,1.6,0.4,2.7
		L449.6,358L449.6,358z M428.6,342.9h5.2v1.5l-2.8,0.3c0.3,0.3,0.5,0.7,0.7,1.3c0.2,0.5,0.3,1.1,0.3,1.8c0,0.6-0.1,1.1-0.2,1.6
		c-0.2,0.7-0.7,1.4-1.3,1.9c-0.9,0.8-2.1,1.2-3.7,1.3c-0.2,0-0.3,0-0.5,0c-0.3,0-0.6,0-0.9,0c-0.1,0-0.3,0-0.4-0.1
		c-0.2,0.1-0.5,0.3-0.7,0.4c-0.2,0.2-0.4,0.4-0.5,0.6c-0.2,0.3-0.3,0.6-0.3,0.9c0,0.4,0.2,0.7,0.5,0.9s0.9,0.3,1.8,0.3h2.7
		c0.5,0,1,0,1.4,0.1c0.5,0.1,0.9,0.2,1.3,0.4c0.4,0.1,0.7,0.3,1,0.6c0.7,0.5,1.1,1.3,1.3,2.1c0,0.3,0.1,0.6,0.1,0.9
		c0,1.7-0.7,3-2,3.8c-0.9,0.6-2.2,1-3.7,1.2c-0.7,0.1-1.4,0.1-2.2,0.1c-0.6,0-1.2,0-1.7-0.1c-1.2-0.2-2.1-0.5-2.9-1
		c-0.5-0.3-0.9-0.8-1.2-1.3c-0.3-0.5-0.4-1-0.4-1.6c0-0.1,0-0.2,0-0.3c0-0.9,0.3-1.7,0.9-2.4s1.4-1.1,2.5-1.4
		c-0.4-0.2-0.7-0.4-0.9-0.7c0,0,0,0-0.1-0.1c-0.2-0.3-0.4-0.7-0.4-1.2v-0.1c0-0.3,0-0.6,0.1-0.8c0.1-0.2,0.2-0.4,0.3-0.6
		c0.1-0.2,0.3-0.3,0.4-0.5c0.2-0.1,0.3-0.3,0.5-0.4c0.1-0.1,0.3-0.2,0.4-0.3c-0.7-0.3-1.3-0.8-1.8-1.4c-0.1-0.1-0.1-0.2-0.2-0.2
		c-0.4-0.7-0.7-1.5-0.7-2.3c0-0.1,0-0.2,0-0.4c0-1.7,0.5-2.9,1.5-3.8c0.5-0.5,1.2-0.8,1.9-1c0.5-0.2,1-0.2,1.6-0.3
		c0.2,0,0.5,0,0.7,0c0.4,0,0.8,0,1.2,0.1C427.9,342.7,428.3,342.8,428.6,342.9z M461.3,356.1v1.8c-0.1,0-0.2,0.1-0.3,0.1
		c-0.2,0.1-0.4,0.1-0.7,0.2h-0.1c-0.5,0.1-0.9,0.1-1.3,0.1c-0.6,0-1.2-0.1-1.8-0.2c-1.8-0.5-2.6-2-2.6-4.4v-9h-2.2v-1.1l2.2-1l1-3.2
		h1.3v3.5h4.4v1.8h-4.4v8.9c0,0.3,0,0.5,0.1,0.8s0.1,0.6,0.3,0.8c0.1,0.2,0.2,0.3,0.3,0.5c0.4,0.5,1,0.7,1.8,0.7
		c0.4,0,0.7,0,1.1-0.1c0,0,0,0,0.1,0C460.8,356.3,461.1,356.2,461.3,356.1z M411.4,342.7l-0.3,2.1c-0.5-0.1-1-0.2-1.4-0.2
		c-0.1,0-0.2,0-0.2,0c-1.2,0-2.3,0.5-3.1,1.5c-0.7,0.8-1.2,1.9-1.3,2.9c0,0.3,0,0.5,0,0.8v8.1h-2.3v-15.2h1.9l0.3,2.8h0.1
		c0.2-0.4,0.5-0.9,0.9-1.2c0.3-0.4,0.7-0.7,1.2-1c0.8-0.5,1.7-0.8,2.6-0.8c0.3,0,0.6,0,0.9,0C410.8,342.6,411.1,342.7,411.4,342.7z
		 M416.5,342.9V358h-2.3v-15.2L416.5,342.9L416.5,342.9z M427.8,357.7H425c-0.3,0-0.6,0-0.9,0.1c-0.6,0.1-1.1,0.3-1.5,0.7
		c-0.6,0.5-0.9,1.2-0.9,2.1c0,0.3,0,0.6,0.2,0.9c0.2,0.4,0.5,0.8,0.9,1c0.7,0.4,1.7,0.6,3,0.6c0.5,0,1,0,1.5-0.1
		c1-0.1,1.8-0.3,2.5-0.6c0.1-0.1,0.2-0.1,0.3-0.2c0.9-0.6,1.4-1.4,1.4-2.3c0-0.2,0-0.4-0.1-0.6c-0.1-0.5-0.3-0.9-0.7-1.1
		c-0.2-0.1-0.3-0.2-0.5-0.2C429.6,357.8,428.8,357.7,427.8,357.7z M423,347.7c0,0.3,0,0.6,0.1,0.9c0.1,0.6,0.4,1.1,0.8,1.5
		c0.6,0.5,1.4,0.8,2.5,0.8c1.8,0,2.8-0.7,3.2-2c0.1-0.4,0.2-0.8,0.2-1.2c0-1.8-0.7-2.9-2.1-3.3c-0.4-0.1-0.8-0.2-1.3-0.1
		c-0.8,0-1.5,0.2-2,0.5c-0.2,0.1-0.3,0.2-0.5,0.4c-0.5,0.5-0.8,1.2-0.9,2.1C423,347.4,423,347.5,423,347.7z M414.4,337.6
		c-0.1,0.1-0.2,0.2-0.2,0.3c-0.1,0.2-0.2,0.5-0.2,0.8s0,0.5,0.1,0.7s0.2,0.3,0.3,0.5c0.3,0.3,0.6,0.4,1,0.4s0.7-0.1,1-0.4
		c0.1-0.1,0.2-0.2,0.2-0.3c0.1-0.1,0.1-0.3,0.1-0.4s0-0.3,0-0.4s0-0.2,0-0.2c0-0.4-0.2-0.7-0.4-0.9c-0.3-0.2-0.6-0.4-1-0.4h-0.1
		C415,337.2,414.7,337.4,414.4,337.6z"/>
	<path id="left_labelLayer" vector-effect="non-scaling-stroke" class="st3" d="M433.1,503.2v1.8h-3.9v13.4h-2.3V505h-2.7v-1
		l2.7-0.8v-0.8c0-0.7,0.1-1.4,0.2-2.1c0.5-2.3,2.1-3.5,4.7-3.5c0.4,0,0.7,0,1,0.1c0.3,0,0.7,0.1,1.1,0.2c0.2,0.1,0.5,0.1,0.7,0.2
		L434,499c-0.6-0.2-1.2-0.3-1.7-0.4c-0.2,0-0.4,0-0.6,0c-0.3,0-0.5,0-0.7,0.1c-0.5,0.1-0.9,0.4-1.2,0.8c-0.4,0.6-0.6,1.5-0.6,2.8v1
		L433.1,503.2L433.1,503.2z M422.3,509.8v1.5h-10.4c0,1.2,0.2,2.2,0.7,3.1c0.2,0.4,0.4,0.7,0.7,1c0.6,0.6,1.4,1.1,2.2,1.2
		c0.5,0.1,0.9,0.2,1.4,0.1c1.6,0,3.1-0.3,4.5-0.9c0.1,0,0.2-0.1,0.3-0.1v2c-0.4,0.2-0.8,0.3-1.3,0.5c-0.3,0.1-0.7,0.2-1,0.3
		c-0.7,0.2-1.6,0.2-2.6,0.2c-0.8,0-1.5-0.1-2.2-0.3c-1.2-0.3-2.2-0.9-3.1-1.8c-1.2-1.3-1.9-3-1.9-5.3c0-0.1,0-0.3,0-0.4
		c0-0.8,0.1-1.6,0.2-2.4c0.2-1,0.5-1.8,1-2.6c0.2-0.3,0.4-0.6,0.6-0.9c1.1-1.3,2.6-2.1,4.3-2.1c0.2,0,0.4,0,0.6,0
		c0.7,0,1.3,0.1,2,0.3c1,0.3,1.9,0.8,2.5,1.6c0.7,0.8,1.2,1.8,1.5,2.9C422.2,508.4,422.3,509.1,422.3,509.8z M442.8,516.5v1.8
		c-0.1,0-0.2,0.1-0.3,0.1c-0.2,0.1-0.4,0.1-0.7,0.2h-0.1c-0.5,0.1-0.9,0.1-1.3,0.1c-0.6,0-1.2-0.1-1.8-0.2c-1.8-0.5-2.6-2-2.6-4.4
		v-9h-2.2V504l2.2-1l1-3.2h1.3v3.5h4.4v1.8h-4.4v8.9c0,0.3,0,0.5,0.1,0.8s0.1,0.6,0.3,0.8c0.1,0.2,0.2,0.3,0.3,0.5
		c0.4,0.5,1,0.7,1.8,0.7c0.4,0,0.7,0,1.1-0.1c0,0,0,0,0.1,0C442.3,516.6,442.6,516.6,442.8,516.5z M405.5,496.9v21.5h-2.3v-21.5
		L405.5,496.9L405.5,496.9z M411.9,509.4h7.9c0-1-0.1-1.8-0.4-2.5c-0.1-0.3-0.3-0.6-0.5-0.9c-0.5-0.6-1.2-1-1.9-1.1
		c-0.3-0.1-0.6-0.1-0.9-0.1c-1.2,0-2.2,0.4-2.9,1.2c-0.4,0.4-0.7,1-0.9,1.5C412.1,508.1,412,508.7,411.9,509.4z"/>
	<path id="bottom_labelLayer" vector-effect="non-scaling-stroke" class="st3" d="M708.7,364.3h-2.3v-9.9c0-0.8-0.1-1.4-0.3-1.9
		c-0.1-0.3-0.3-0.6-0.5-0.8c-0.3-0.3-0.7-0.6-1.1-0.7c-0.4-0.1-0.8-0.2-1.3-0.2c-0.4,0-0.8,0-1.2,0.1c-0.8,0.2-1.5,0.5-2,1.1
		c-0.7,0.8-1,2.1-1,3.8l0,0v8.5h-2.3v-9.9c0-0.8-0.1-1.4-0.3-1.9c-0.1-0.3-0.3-0.6-0.5-0.8c-0.3-0.3-0.7-0.6-1.1-0.7
		c-0.3-0.1-0.6-0.1-0.9-0.2c-0.1,0-0.3,0-0.4,0c-0.4,0-0.8,0-1.2,0.1c-0.9,0.2-1.5,0.6-2,1.2c-0.6,0.8-0.9,2-1,3.7
		c0,0.2,0,0.4,0,0.5v8H687v-15.2h1.9l0.4,2.1h0.1c0.4-0.7,1.1-1.3,1.8-1.7c0.7-0.3,1.4-0.6,2.2-0.6c0.2,0,0.3,0,0.5,0
		c0.6,0,1.1,0.1,1.7,0.2c1.4,0.3,2.4,1.1,3,2.4h0.1c0.4-0.8,1.1-1.4,1.8-1.8c0.1,0,0.1-0.1,0.2-0.1c0.7-0.4,1.4-0.6,2.1-0.6
		c0.3,0,0.5,0,0.8,0c1.2,0,2.1,0.2,2.9,0.6c0.4,0.2,0.7,0.4,1,0.7c0.6,0.6,1,1.6,1.2,2.8c0.1,0.5,0.1,1,0.1,1.5L708.7,364.3
		L708.7,364.3z M617.7,362.4h-0.2l-0.5,2h-1.6v-21.5h2.3v5.2c0,1.1,0,2.2-0.1,3.1v0.1h0.1c0.9-1.3,2.3-2.1,3.8-2.2
		c0.3,0,0.6-0.1,0.9-0.1c0.7,0,1.3,0.1,2,0.3c1.1,0.3,2,0.9,2.7,1.8c0.9,1.1,1.4,2.5,1.6,4.4c0,0.5,0.1,0.9,0.1,1.4
		c0,0.8-0.1,1.5-0.2,2.3c-0.1,0.8-0.4,1.5-0.7,2.2c-0.2,0.5-0.5,0.9-0.8,1.4c-0.9,1.2-2.3,1.9-3.9,2c-0.3,0-0.5,0-0.8,0
		c-1,0-1.9-0.2-2.7-0.5C618.9,363.7,618.2,363.1,617.7,362.4z M656.9,362.4v1.8c-0.1,0-0.2,0.1-0.3,0.1c-0.2,0.1-0.4,0.1-0.7,0.2
		h-0.1c-0.5,0.1-0.9,0.1-1.3,0.1c-0.6,0-1.2-0.1-1.8-0.2c-1.8-0.5-2.6-2-2.6-4.4v-9h-2.2v-1.1l2.2-1l1-3.2h1.3v3.5h4.4v1.8h-4.4v8.9
		c0,0.3,0,0.5,0.1,0.8s0.1,0.6,0.3,0.8c0.1,0.2,0.2,0.3,0.3,0.5c0.4,0.5,1,0.7,1.8,0.7c0.4,0,0.7,0,1.1-0.1c0,0,0,0,0.1,0
		C656.4,362.6,656.7,362.5,656.9,362.4z M666.9,362.4v1.8c-0.1,0-0.2,0.1-0.3,0.1c-0.2,0.1-0.4,0.1-0.7,0.2h-0.1
		c-0.5,0.1-0.9,0.1-1.3,0.1c-0.6,0-1.2-0.1-1.8-0.2c-1.8-0.5-2.6-2-2.6-4.4v-9h-2.2v-1.1l2.2-1l1-3.2h1.3v3.5h4.4v1.8h-4.4v8.9
		c0,0.3,0,0.5,0.1,0.8s0.1,0.6,0.3,0.8c0.1,0.2,0.2,0.3,0.3,0.5c0.4,0.5,1,0.7,1.8,0.7c0.4,0,0.7,0,1.1-0.1c0,0,0,0,0.1,0
		C666.4,362.6,666.7,362.5,666.9,362.4z M645.7,359c0.1-0.8,0.2-1.5,0.2-2.3c0-1-0.1-1.9-0.3-2.7c-0.3-1.1-0.8-2.2-1.6-3
		c-0.7-0.9-1.7-1.5-2.8-1.8c-0.7-0.2-1.5-0.3-2.3-0.3c-0.5,0-1.1,0-1.6,0.1c-1.4,0.2-2.6,0.9-3.5,1.9c-0.3,0.3-0.6,0.7-0.8,1.1
		c-0.7,1.2-1.1,2.8-1.1,4.7c0,0.6,0,1.2,0.1,1.9c0.1,0.8,0.4,1.6,0.7,2.3c0.1,0.1,0.1,0.2,0.2,0.3c0.5,1,1.3,1.8,2.3,2.4
		c1.1,0.6,2.3,1,3.6,1c0.5,0,1,0,1.6-0.1c1.4-0.2,2.7-0.9,3.6-2c0.3-0.3,0.5-0.7,0.8-1C645.2,360.8,645.5,360,645.7,359z M682.8,359
		c0.1-0.8,0.2-1.5,0.2-2.3c0-1-0.1-1.9-0.3-2.7c-0.3-1.1-0.8-2.2-1.6-3c-0.7-0.9-1.7-1.5-2.8-1.8c-0.7-0.2-1.5-0.3-2.3-0.3
		c-0.5,0-1.1,0-1.6,0.1c-1.4,0.2-2.6,0.9-3.5,1.9c-0.3,0.3-0.6,0.7-0.8,1.1c-0.7,1.2-1.1,2.8-1.1,4.7c0,0.6,0,1.2,0.1,1.9
		c0.1,0.8,0.4,1.6,0.7,2.3c0.1,0.1,0.1,0.2,0.2,0.3c0.5,1,1.3,1.8,2.3,2.4c1.1,0.6,2.3,1,3.6,1c0.5,0,1,0,1.6-0.1
		c1.4-0.2,2.7-0.9,3.6-2c0.3-0.3,0.5-0.7,0.8-1C682.3,360.8,682.6,360,682.8,359z M634.3,356.7c0,1.9,0.4,3.4,1.2,4.4
		c0.6,0.8,1.5,1.3,2.5,1.4c0.3,0.1,0.6,0.1,1,0.1c0.5,0,0.9-0.1,1.4-0.2c0.8-0.2,1.5-0.7,2-1.3c0.3-0.5,0.6-1,0.8-1.5s0.3-1,0.3-1.5
		c0.1-0.5,0.1-0.9,0.1-1.4s0-1.1-0.1-1.6c-0.1-0.6-0.2-1.1-0.4-1.5c-0.2-0.5-0.4-0.9-0.7-1.3c-0.6-0.7-1.4-1.2-2.3-1.4
		c-0.4-0.1-0.7-0.1-1.1-0.1c-0.5,0-0.9,0-1.4,0.2c-0.8,0.2-1.5,0.7-2,1.3C634.7,353.3,634.3,354.8,634.3,356.7z M671.4,356.7
		c0,1.9,0.4,3.4,1.2,4.4c0.6,0.8,1.5,1.3,2.5,1.4c0.3,0.1,0.6,0.1,1,0.1c0.5,0,0.9-0.1,1.4-0.2c0.8-0.2,1.5-0.7,2-1.3
		c0.3-0.5,0.6-1,0.8-1.5s0.3-1,0.3-1.5c0.1-0.5,0.1-0.9,0.1-1.4s0-1.1-0.1-1.6c-0.1-0.6-0.2-1.1-0.4-1.5c-0.2-0.5-0.4-0.9-0.7-1.3
		c-0.6-0.7-1.4-1.2-2.3-1.4c-0.4-0.1-0.7-0.1-1.1-0.1c-0.5,0-0.9,0-1.4,0.2c-0.8,0.2-1.5,0.7-2,1.3
		C671.8,353.3,671.4,354.8,671.4,356.7z M619.6,351.4c-0.3,0.2-0.6,0.5-0.9,0.8c-0.7,0.9-1,2.4-1,4.5c0,0.5,0,1,0.1,1.6
		c0.1,1.1,0.3,1.9,0.7,2.5c0.1,0.2,0.2,0.3,0.3,0.5c0.4,0.5,1,0.9,1.7,1.1c0.4,0.1,0.8,0.2,1.3,0.2c0.2,0,0.3,0,0.5,0
		c0.4,0,0.9-0.1,1.3-0.2c0.8-0.2,1.4-0.7,1.9-1.4c0.7-1,1-2.5,1-4.4c0-0.5,0-1-0.1-1.5c-0.1-1.2-0.5-2.2-1-2.9
		c-0.7-1-1.8-1.5-3.2-1.5C621.1,350.8,620.3,351,619.6,351.4z"/>
	<path id="top_labelLayer" vector-effect="non-scaling-stroke" class="st3" d="M672.6,511.1h-0.2c0.1,0.5,0.1,1.1,0.1,1.6
		c0,0.3,0,0.6,0,0.9v6.2h-2.3v-22h1.9l0.3,2.1h0.1c0.3-0.4,0.6-0.7,0.9-1c0.3-0.3,0.7-0.6,1.2-0.8c0.5-0.2,1.1-0.4,1.6-0.5
		c0.3,0,0.7-0.1,1-0.1c0.7,0,1.3,0.1,2,0.3c1.1,0.3,2,0.9,2.7,1.8c1.1,1.4,1.6,3.3,1.6,5.8c0,0.8-0.1,1.5-0.2,2.3
		c-0.1,0.8-0.4,1.5-0.7,2.2c-0.2,0.5-0.5,0.9-0.8,1.4c-0.9,1.2-2.3,1.9-3.9,2c-0.3,0-0.5,0-0.8,0c-1,0-1.9-0.2-2.7-0.5
		C673.8,512.4,673.1,511.8,672.6,511.1z M650.1,511.2v1.8c-0.1,0-0.2,0.1-0.3,0.1c-0.2,0.1-0.4,0.1-0.7,0.2H649
		c-0.5,0.1-0.9,0.1-1.3,0.1c-0.6,0-1.2-0.1-1.8-0.2c-1.8-0.5-2.6-2-2.6-4.4v-9h-2.2v-1.1l2.2-1l1-3.2h1.3v3.5h4.4v1.8h-4.4v8.9
		c0,0.3,0,0.5,0.1,0.8s0.1,0.6,0.3,0.8c0.1,0.2,0.2,0.3,0.3,0.5c0.4,0.5,1,0.7,1.8,0.7c0.4,0,0.7,0,1.1-0.1c0,0,0,0,0.1,0
		C649.6,511.3,649.9,511.2,650.1,511.2z M666,507.8c0.1-0.8,0.2-1.5,0.2-2.3c0-1-0.1-1.9-0.3-2.7c-0.3-1.1-0.8-2.2-1.6-3
		c-0.7-0.9-1.7-1.5-2.8-1.8c-0.7-0.2-1.5-0.3-2.3-0.3c-0.5,0-1.1,0-1.6,0.1c-1.4,0.2-2.6,0.9-3.5,1.9c-0.3,0.3-0.6,0.7-0.8,1.1
		c-0.7,1.2-1.1,2.8-1.1,4.7c0,0.6,0,1.2,0.1,1.9c0.1,0.8,0.4,1.6,0.7,2.3c0.1,0.1,0.1,0.2,0.2,0.3c0.5,1,1.3,1.8,2.3,2.4
		c1.1,0.6,2.3,1,3.6,1c0.5,0,1,0,1.6-0.1c1.4-0.2,2.7-0.9,3.6-2c0.3-0.3,0.5-0.7,0.8-1C665.6,509.5,665.9,508.7,666,507.8z
		 M654.7,505.5c0,1.9,0.4,3.4,1.2,4.4c0.6,0.8,1.5,1.3,2.5,1.4c0.3,0.1,0.6,0.1,1,0.1c0.5,0,0.9-0.1,1.4-0.2c0.8-0.2,1.5-0.7,2-1.3
		c0.3-0.5,0.6-1,0.8-1.5c0.1-0.5,0.3-1,0.3-1.5c0.1-0.5,0.1-0.9,0.1-1.4s0-1.1-0.1-1.6c-0.1-0.6-0.2-1.1-0.4-1.5
		c-0.2-0.5-0.4-0.9-0.7-1.3c-0.6-0.7-1.4-1.2-2.3-1.4c-0.4-0.1-0.7-0.1-1.1-0.1c-0.5,0-0.9,0-1.4,0.2c-0.8,0.2-1.5,0.7-2,1.3
		C655.1,502,654.7,503.5,654.7,505.5z M672.6,504.9v0.5c0,0.5,0,1,0.1,1.6c0.1,1.1,0.3,1.9,0.7,2.5c0.1,0.2,0.2,0.3,0.3,0.5
		c0.4,0.5,1,0.9,1.7,1.1c0.4,0.1,0.8,0.2,1.3,0.2c0.2,0,0.3,0,0.5,0c0.5,0,1-0.1,1.5-0.3c0.6-0.3,1.1-0.7,1.6-1.3
		c0.3-0.5,0.6-1,0.8-1.6c0.1-0.5,0.2-1,0.3-1.6c0-0.4,0-0.8,0-1.1c0-1.2-0.2-2.3-0.5-3.2c-0.2-0.4-0.4-0.8-0.6-1.2
		c-0.6-0.9-1.6-1.4-2.6-1.5c-0.2,0-0.3,0-0.5,0c-1.5,0-2.7,0.4-3.4,1.3c-0.6,0.8-1,2.1-1.1,3.7C672.6,504.7,672.6,504.8,672.6,504.9
		z"/>
</g>
<path class="st0" d="M335.6,201.4"/>
<path class="st0" d="M603.2,201.5"/>
<path class="st0" d="M338.1,51.2"/>
<path class="st0" d="M307.9,55.4"/>
<path class="st0" d="M316.4,55.4"/>
<path class="st0" d="M183.2,223.5"/>
<path id="front_outsideCutPath_00000108272643739268030350000005134840093854243747_" vector-effect="non-scaling-stroke" class="st0" d="
	M171,340h-40.5v8.5H69.7V340H29.2v59h8.5v60.8h-8.5v60.8h8.5v60.9h-8.5v59h40.5V632h60.8v8.5H171v-59h-8.5v-60.8h8.5v-60.8h-8.5
	v-60.8h8.5V340z"/>
<path id="left_outsideCutPath_00000052821950968276022720000005786573365526117039_" vector-effect="non-scaling-stroke" class="st0" d="
	M183.2,498.8v40.6l0,0v60.8l0,0v40.4h32V632H276v8.5h31.9V600h8.5v-60.8h-8.5v-40.5H276v8.5h-60.8v-8.5L183.2,498.8L183.2,498.8z"/>
<path id="top_outsideCutPath_00000041276133249262309940000012103031267481725370_" vector-effect="non-scaling-stroke" class="st0" d="
	M327.6,507.2v32.1h-8.5v60.8h8.5V632h50.5v8.5h60.8V632h60.8v8.5h60.9V632h50.5v-31.9h8.5v-60.8h-8.5v-32h-50.4l0,0h-60.9l0,0H439
	l0,0l-60.8-0.1l0,0L327.6,507.2L327.6,507.2z"/>
<path id="right_outsideCutPath_00000061441318578861118750000015742754395671611540_" vector-effect="non-scaling-stroke" class="st0" d="
	M183.2,348.5V389h-8.5v60.8h8.5v40.5h31.9v-8.5h60.8v8.5h32v-40.5l0,0V389l0,0v-40.5h-32v8.5h-60.8v-8.5H183.2z"/>
<path id="bottom_outsideCutPath_00000055680204543439085180000000245797719624690592_" vector-effect="non-scaling-stroke" class="st0" d="
	M327.6,357v32h-8.5v60.8h8.5v31.9h50.5v8.5h60.8v-8.5h60.8v8.5h60.9v-8.5h50.5v-31.9h8.5V389h-8.5v-32h-50.5l0,0h-60.5l0,0h-60.9
	l0,0h-60.9l0,0H327.6z"/>
<path class="st0" d="M45.5,582.4V398.1c0-19.6,15.6-35.4,34.7-35.4l0,0c19.2,0,34.7,15.9,34.7,35.4v184.3
	c0,19.6-15.6,35.4-34.7,35.4l0,0C61,617.8,45.5,601.9,45.5,582.4z"/>
<circle class="st0" cx="50.5" cy="359.9" r="5.7"/>
<circle class="st0" cx="50.5" cy="620.7" r="5.7"/>
<circle class="st0" cx="110" cy="620.7" r="5.7"/>
<circle class="st0" cx="110" cy="359.9" r="5.7"/>
<circle class="st0" cx="375" cy="568.2" r="13.5"/>
<path class="st0" d="M335.6,507.2"/>
<path class="st0" d="M603.2,507.3"/>
<path class="st0" d="M338.1,357"/>
<path class="st0" d="M307.9,361.2"/>
<path class="st0" d="M316.4,361.2"/>
<path class="st0" d="M183.2,529.3"/>
<path id="front_outsideCutPath_00000178166613581349849880000012866737894777547420_" vector-effect="non-scaling-stroke" class="st0" d="
	M778.4,529.3h-40.5v8.5h-60.8v-8.5h-40.5v59h8.5v60.8h-8.5V710h8.5v60.9h-8.5v59h40.5v-8.5h60.8v8.5h40.5v-59h-8.5V710h8.5v-60.8
	h-8.5v-60.8h8.5V529.3z"/>
<path id="left_outsideCutPath_00000023978850102892096340000017555859185951393930_" vector-effect="non-scaling-stroke" class="st0" d="
	M640.9,365.6v40.6l0,0V467l0,0v40.4h32v-8.5h60.8v8.5h31.9v-40.5h8.5v-60.8h-8.5v-40.5h-31.9v8.5h-60.8v-8.5H640.9L640.9,365.6z"/>
<path id="top_outsideCutPath_00000068675887141489697360000000391131222943611792_" vector-effect="non-scaling-stroke" class="st0" d="
	M768.4,59.7h-32.1v-8.5h-60.8v8.5h-31.9v50.5h-8.5V171h8.5v60.8h-8.5v60.9h8.5v50.5h31.9v8.5h60.8v-8.5h32v-50.4l0,0v-60.9l0,0
	v-60.8l0,0l0.1-60.8l0,0V59.7L768.4,59.7z"/>
<path id="right_outsideCutPath_00000041255987831121720290000001802951039823541939_" vector-effect="non-scaling-stroke" class="st0" d="
	M182.4,654.4v40.5h-8.5v60.8h8.5v40.5h31.9v-8.5h60.8v8.5h32v-40.5l0,0v-60.8l0,0v-40.5h-32v8.5h-60.8v-8.5H182.4z"/>
<path id="bottom_outsideCutPath_00000029012050930899400670000016792599020642971059_" vector-effect="non-scaling-stroke" class="st0" d="
	M326.8,662.9v32h-8.5v60.8h8.5v31.9h50.5v8.5h60.8v-8.5h60.8v8.5h60.9v-8.5h50.5v-31.9h8.5v-60.8h-8.5v-32h-50.5l0,0h-60.5l0,0
	h-60.9l0,0h-60.9l0,0H326.8z"/>
<path class="st0" d="M652.9,771.8V587.5c0-19.6,15.6-35.4,34.7-35.4l0,0c19.2,0,34.7,15.9,34.7,35.4v184.3
	c0,19.6-15.6,35.4-34.7,35.4l0,0C668.4,807.1,652.9,791.2,652.9,771.8z"/>
<circle class="st0" cx="657.9" cy="549.2" r="5.7"/>
<circle class="st0" cx="657.9" cy="810" r="5.7"/>
<circle class="st0" cx="717.4" cy="810" r="5.7"/>
<circle class="st0" cx="717.4" cy="549.2" r="5.7"/>
<circle class="st0" cx="707.5" cy="107.1" r="13.5"/>
<path class="st0" d="M768.4,67.7"/>
<path class="st0" d="M768.3,335.3"/>
<path class="st0" d="M337.3,662.9"/>
<path class="st0" d="M307.1,667.1"/>
<path class="st0" d="M315.6,667.1"/>
<path class="st0" d="M640.9,396.2"/>
</svg>
